<?xml version="1.0" encoding="UTF-8" standalone="no"?>
<!DOCTYPE svg PUBLIC "-//W3C//DTD SVG 1.1//EN"
 "http://www.w3.org/Graphics/SVG/1.1/DTD/svg11.dtd">
<!-- Generated by graphviz version 14.0.0 (20250921.2048)
 -->
<!-- Pages: 1 -->
<svg width="62pt" height="620pt"
 viewBox="0.00 0.00 62.00 620.00" xmlns="http://www.w3.org/2000/svg" xmlns:xlink="http://www.w3.org/1999/xlink">
<g id="graph0" class="graph" transform="scale(1 1) rotate(0) translate(4 616)">
<polygon fill="white" stroke="none" points="-4,4 -4,-616 58,-616 58,4 -4,4"/>
<!-- 2 -->
<g id="node1" class="node">
<title>2</title>
<ellipse fill="none" stroke="black" cx="27" cy="-18" rx="27" ry="18"/>
<text xml:space="preserve" text-anchor="middle" x="27" y="-12.95" font-family="Times,serif" font-size="14.00">2</text>
</g>
<!-- 7 -->
<g id="node2" class="node">
<title>7</title>
<ellipse fill="none" stroke="black" cx="27" cy="-90" rx="27" ry="18"/>
<text xml:space="preserve" text-anchor="middle" x="27" y="-84.95" font-family="Times,serif" font-size="14.00">7</text>
</g>
<!-- 7&#45;&gt;2 -->
<g id="edge1" class="edge">
<title>7&#45;&gt;2</title>
<path fill="none" stroke="black" d="M27,-71.7C27,-64.41 27,-55.73 27,-47.54"/>
<polygon fill="black" stroke="black" points="30.5,-47.62 27,-37.62 23.5,-47.62 30.5,-47.62"/>
</g>
<!-- 8 -->
<g id="node3" class="node">
<title>8</title>
<ellipse fill="none" stroke="black" cx="27" cy="-162" rx="27" ry="18"/>
<text xml:space="preserve" text-anchor="middle" x="27" y="-156.95" font-family="Times,serif" font-size="14.00">8</text>
</g>
<!-- 8&#45;&gt;7 -->
<g id="edge2" class="edge">
<title>8&#45;&gt;7</title>
<path fill="none" stroke="black" d="M27,-143.7C27,-136.41 27,-127.73 27,-119.54"/>
<polygon fill="black" stroke="black" points="30.5,-119.62 27,-109.62 23.5,-119.62 30.5,-119.62"/>
</g>
<!-- 13 -->
<g id="node4" class="node">
<title>13</title>
<ellipse fill="none" stroke="black" cx="27" cy="-234" rx="27" ry="18"/>
<text xml:space="preserve" text-anchor="middle" x="27" y="-228.95" font-family="Times,serif" font-size="14.00">13</text>
</g>
<!-- 13&#45;&gt;8 -->
<g id="edge3" class="edge">
<title>13&#45;&gt;8</title>
<path fill="none" stroke="black" d="M27,-215.7C27,-208.41 27,-199.73 27,-191.54"/>
<polygon fill="black" stroke="black" points="30.5,-191.62 27,-181.62 23.5,-191.62 30.5,-191.62"/>
</g>
<!-- 4 -->
<g id="node5" class="node">
<title>4</title>
<ellipse fill="none" stroke="black" cx="27" cy="-306" rx="27" ry="18"/>
<text xml:space="preserve" text-anchor="middle" x="27" y="-300.95" font-family="Times,serif" font-size="14.00">4</text>
</g>
<!-- 4&#45;&gt;13 -->
<g id="edge4" class="edge">
<title>4&#45;&gt;13</title>
<path fill="none" stroke="black" d="M27,-287.7C27,-280.41 27,-271.73 27,-263.54"/>
<polygon fill="black" stroke="black" points="30.5,-263.62 27,-253.62 23.5,-263.62 30.5,-263.62"/>
</g>
<!-- 5 -->
<g id="node6" class="node">
<title>5</title>
<ellipse fill="none" stroke="black" cx="27" cy="-378" rx="27" ry="18"/>
<text xml:space="preserve" text-anchor="middle" x="27" y="-372.95" font-family="Times,serif" font-size="14.00">5</text>
</g>
<!-- 5&#45;&gt;4 -->
<g id="edge5" class="edge">
<title>5&#45;&gt;4</title>
<path fill="none" stroke="black" d="M27,-359.7C27,-352.41 27,-343.73 27,-335.54"/>
<polygon fill="black" stroke="black" points="30.5,-335.62 27,-325.62 23.5,-335.62 30.5,-335.62"/>
</g>
<!-- 25 -->
<g id="node7" class="node">
<title>25</title>
<ellipse fill="none" stroke="black" cx="27" cy="-450" rx="27" ry="18"/>
<text xml:space="preserve" text-anchor="middle" x="27" y="-444.95" font-family="Times,serif" font-size="14.00">25</text>
</g>
<!-- 25&#45;&gt;5 -->
<g id="edge6" class="edge">
<title>25&#45;&gt;5</title>
<path fill="none" stroke="black" d="M27,-431.7C27,-424.41 27,-415.73 27,-407.54"/>
<polygon fill="black" stroke="black" points="30.5,-407.62 27,-397.62 23.5,-407.62 30.5,-407.62"/>
</g>
<!-- 17 -->
<g id="node8" class="node">
<title>17</title>
<ellipse fill="none" stroke="black" cx="27" cy="-522" rx="27" ry="18"/>
<text xml:space="preserve" text-anchor="middle" x="27" y="-516.95" font-family="Times,serif" font-size="14.00">17</text>
</g>
<!-- 17&#45;&gt;25 -->
<g id="edge7" class="edge">
<title>17&#45;&gt;25</title>
<path fill="none" stroke="black" d="M27,-503.7C27,-496.41 27,-487.73 27,-479.54"/>
<polygon fill="black" stroke="black" points="30.5,-479.62 27,-469.62 23.5,-479.62 30.5,-479.62"/>
</g>
<!-- 20 -->
<g id="node9" class="node">
<title>20</title>
<ellipse fill="none" stroke="black" cx="27" cy="-594" rx="27" ry="18"/>
<text xml:space="preserve" text-anchor="middle" x="27" y="-588.95" font-family="Times,serif" font-size="14.00">20</text>
</g>
<!-- 20&#45;&gt;17 -->
<g id="edge8" class="edge">
<title>20&#45;&gt;17</title>
<path fill="none" stroke="black" d="M27,-575.7C27,-568.41 27,-559.73 27,-551.54"/>
<polygon fill="black" stroke="black" points="30.5,-551.62 27,-541.62 23.5,-551.62 30.5,-551.62"/>
</g>
</g>
</svg>
