<?xml version="1.0" encoding="UTF-8" standalone="no"?>
<!DOCTYPE svg PUBLIC "-//W3C//DTD SVG 1.1//EN"
 "http://www.w3.org/Graphics/SVG/1.1/DTD/svg11.dtd">
<!-- Generated by graphviz version 14.0.0 (20250921.2048)
 -->
<!-- Pages: 1 -->
<svg width="782pt" height="44pt"
 viewBox="0.00 0.00 782.00 44.00" xmlns="http://www.w3.org/2000/svg" xmlns:xlink="http://www.w3.org/1999/xlink">
<g id="graph0" class="graph" transform="scale(1 1) rotate(0) translate(4 40)">
<polygon fill="white" stroke="none" points="-4,4 -4,-40 778,-40 778,4 -4,4"/>
<!-- 2 -->
<g id="node1" class="node">
<title>2</title>
<ellipse fill="none" stroke="black" cx="747" cy="-18" rx="27" ry="18"/>
<text xml:space="preserve" text-anchor="middle" x="747" y="-12.95" font-family="Times,serif" font-size="14.00">2</text>
</g>
<!-- 7 -->
<g id="node2" class="node">
<title>7</title>
<ellipse fill="none" stroke="black" cx="657" cy="-18" rx="27" ry="18"/>
<text xml:space="preserve" text-anchor="middle" x="657" y="-12.95" font-family="Times,serif" font-size="14.00">7</text>
</g>
<!-- 7&#45;&gt;2 -->
<g id="edge1" class="edge">
<title>7&#45;&gt;2</title>
<path fill="none" stroke="black" d="M684.4,-18C691.89,-18 700.18,-18 708.2,-18"/>
<polygon fill="black" stroke="black" points="708.1,-21.5 718.1,-18 708.1,-14.5 708.1,-21.5"/>
</g>
<!-- 8 -->
<g id="node3" class="node">
<title>8</title>
<ellipse fill="none" stroke="black" cx="567" cy="-18" rx="27" ry="18"/>
<text xml:space="preserve" text-anchor="middle" x="567" y="-12.95" font-family="Times,serif" font-size="14.00">8</text>
</g>
<!-- 8&#45;&gt;7 -->
<g id="edge2" class="edge">
<title>8&#45;&gt;7</title>
<path fill="none" stroke="black" d="M594.4,-18C601.89,-18 610.18,-18 618.2,-18"/>
<polygon fill="black" stroke="black" points="618.1,-21.5 628.1,-18 618.1,-14.5 618.1,-21.5"/>
</g>
<!-- 13 -->
<g id="node4" class="node">
<title>13</title>
<ellipse fill="none" stroke="black" cx="477" cy="-18" rx="27" ry="18"/>
<text xml:space="preserve" text-anchor="middle" x="477" y="-12.95" font-family="Times,serif" font-size="14.00">13</text>
</g>
<!-- 13&#45;&gt;8 -->
<g id="edge3" class="edge">
<title>13&#45;&gt;8</title>
<path fill="none" stroke="black" d="M504.4,-18C511.89,-18 520.18,-18 528.2,-18"/>
<polygon fill="black" stroke="black" points="528.1,-21.5 538.1,-18 528.1,-14.5 528.1,-21.5"/>
</g>
<!-- 4 -->
<g id="node5" class="node">
<title>4</title>
<ellipse fill="none" stroke="black" cx="387" cy="-18" rx="27" ry="18"/>
<text xml:space="preserve" text-anchor="middle" x="387" y="-12.95" font-family="Times,serif" font-size="14.00">4</text>
</g>
<!-- 4&#45;&gt;13 -->
<g id="edge4" class="edge">
<title>4&#45;&gt;13</title>
<path fill="none" stroke="black" d="M414.4,-18C421.89,-18 430.18,-18 438.2,-18"/>
<polygon fill="black" stroke="black" points="438.1,-21.5 448.1,-18 438.1,-14.5 438.1,-21.5"/>
</g>
<!-- 5 -->
<g id="node6" class="node">
<title>5</title>
<ellipse fill="none" stroke="black" cx="297" cy="-18" rx="27" ry="18"/>
<text xml:space="preserve" text-anchor="middle" x="297" y="-12.95" font-family="Times,serif" font-size="14.00">5</text>
</g>
<!-- 5&#45;&gt;4 -->
<g id="edge5" class="edge">
<title>5&#45;&gt;4</title>
<path fill="none" stroke="black" d="M324.4,-18C331.89,-18 340.18,-18 348.2,-18"/>
<polygon fill="black" stroke="black" points="348.1,-21.5 358.1,-18 348.1,-14.5 348.1,-21.5"/>
</g>
<!-- 25 -->
<g id="node7" class="node">
<title>25</title>
<ellipse fill="none" stroke="black" cx="207" cy="-18" rx="27" ry="18"/>
<text xml:space="preserve" text-anchor="middle" x="207" y="-12.95" font-family="Times,serif" font-size="14.00">25</text>
</g>
<!-- 25&#45;&gt;5 -->
<g id="edge6" class="edge">
<title>25&#45;&gt;5</title>
<path fill="none" stroke="black" d="M234.4,-18C241.89,-18 250.18,-18 258.2,-18"/>
<polygon fill="black" stroke="black" points="258.1,-21.5 268.1,-18 258.1,-14.5 258.1,-21.5"/>
</g>
<!-- 17 -->
<g id="node8" class="node">
<title>17</title>
<ellipse fill="none" stroke="black" cx="117" cy="-18" rx="27" ry="18"/>
<text xml:space="preserve" text-anchor="middle" x="117" y="-12.95" font-family="Times,serif" font-size="14.00">17</text>
</g>
<!-- 17&#45;&gt;25 -->
<g id="edge7" class="edge">
<title>17&#45;&gt;25</title>
<path fill="none" stroke="black" d="M144.4,-18C151.89,-18 160.18,-18 168.2,-18"/>
<polygon fill="black" stroke="black" points="168.1,-21.5 178.1,-18 168.1,-14.5 168.1,-21.5"/>
</g>
<!-- 20 -->
<g id="node9" class="node">
<title>20</title>
<ellipse fill="none" stroke="black" cx="27" cy="-18" rx="27" ry="18"/>
<text xml:space="preserve" text-anchor="middle" x="27" y="-12.95" font-family="Times,serif" font-size="14.00">20</text>
</g>
<!-- 20&#45;&gt;17 -->
<g id="edge8" class="edge">
<title>20&#45;&gt;17</title>
<path fill="none" stroke="black" d="M54.4,-18C61.89,-18 70.18,-18 78.2,-18"/>
<polygon fill="black" stroke="black" points="78.1,-21.5 88.1,-18 78.1,-14.5 78.1,-21.5"/>
</g>
</g>
</svg>
