<?xml version="1.0" encoding="UTF-8" standalone="no"?>
<!DOCTYPE svg PUBLIC "-//W3C//DTD SVG 1.1//EN"
 "http://www.w3.org/Graphics/SVG/1.1/DTD/svg11.dtd">
<!-- Generated by graphviz version 14.0.0 (20250921.2048)
 -->
<!-- Pages: 1 -->
<svg width="331pt" height="264pt"
 viewBox="0.00 0.00 331.00 264.00" xmlns="http://www.w3.org/2000/svg" xmlns:xlink="http://www.w3.org/1999/xlink">
<g id="graph0" class="graph" transform="scale(1 1) rotate(0) translate(4 260)">
<polygon fill="white" stroke="none" points="-4,4 -4,-260 327.25,-260 327.25,4 -4,4"/>
<!-- 4487887040 -->
<g id="node1" class="node">
<title>4487887040</title>
<path fill="lightgray" stroke="lightgray" d="M151,-219.5C151,-219.5 189.25,-219.5 189.25,-219.5 195.25,-219.5 201.25,-225.5 201.25,-231.5 201.25,-231.5 201.25,-243.5 201.25,-243.5 201.25,-249.5 195.25,-255.5 189.25,-255.5 189.25,-255.5 151,-255.5 151,-255.5 145,-255.5 139,-249.5 139,-243.5 139,-243.5 139,-231.5 139,-231.5 139,-225.5 145,-219.5 151,-219.5"/>
<text xml:space="preserve" text-anchor="middle" x="148.88" y="-232.45" font-family="Times,serif" font-size="14.00"> </text>
<polyline fill="none" stroke="lightgray" points="158.75,-219.5 158.75,-255.5"/>
<text xml:space="preserve" text-anchor="middle" x="170.12" y="-232.45" font-family="Times,serif" font-size="14.00">5</text>
<polyline fill="none" stroke="lightgray" points="181.5,-219.5 181.5,-255.5"/>
<text xml:space="preserve" text-anchor="middle" x="191.38" y="-232.45" font-family="Times,serif" font-size="14.00"> </text>
</g>
<!-- 4487887152 -->
<g id="node2" class="node">
<title>4487887152</title>
<path fill="lightgray" stroke="lightgray" d="M85.62,-146.5C85.62,-146.5 130.62,-146.5 130.62,-146.5 136.62,-146.5 142.62,-152.5 142.62,-158.5 142.62,-158.5 142.62,-170.5 142.62,-170.5 142.62,-176.5 136.62,-182.5 130.62,-182.5 130.62,-182.5 85.62,-182.5 85.62,-182.5 79.62,-182.5 73.62,-176.5 73.62,-170.5 73.62,-170.5 73.62,-158.5 73.62,-158.5 73.62,-152.5 79.62,-146.5 85.62,-146.5"/>
<text xml:space="preserve" text-anchor="middle" x="83.5" y="-159.45" font-family="Times,serif" font-size="14.00"> </text>
<polyline fill="none" stroke="lightgray" points="93.38,-146.5 93.38,-182.5"/>
<text xml:space="preserve" text-anchor="middle" x="108.12" y="-159.45" font-family="Times,serif" font-size="14.00">55</text>
<polyline fill="none" stroke="lightgray" points="122.88,-146.5 122.88,-182.5"/>
<text xml:space="preserve" text-anchor="middle" x="132.75" y="-159.45" font-family="Times,serif" font-size="14.00"> </text>
</g>
<!-- 4487887040&#45;&gt;4487887152 -->
<g id="edge1" class="edge">
<title>4487887040:l&#45;&gt;4487887152:v</title>
<path fill="none" stroke="black" d="M148.88,-219C148.88,-199.55 122.49,-203.74 112.18,-193.53"/>
<polygon fill="black" stroke="black" points="115.53,-192.49 108.67,-184.41 109,-195 115.53,-192.49"/>
</g>
<!-- 4487887264 -->
<g id="node3" class="node">
<title>4487887264</title>
<path fill="lightgray" stroke="lightgray" d="M214,-146.5C214,-146.5 252.25,-146.5 252.25,-146.5 258.25,-146.5 264.25,-152.5 264.25,-158.5 264.25,-158.5 264.25,-170.5 264.25,-170.5 264.25,-176.5 258.25,-182.5 252.25,-182.5 252.25,-182.5 214,-182.5 214,-182.5 208,-182.5 202,-176.5 202,-170.5 202,-170.5 202,-158.5 202,-158.5 202,-152.5 208,-146.5 214,-146.5"/>
<text xml:space="preserve" text-anchor="middle" x="211.88" y="-159.45" font-family="Times,serif" font-size="14.00"> </text>
<polyline fill="none" stroke="lightgray" points="221.75,-146.5 221.75,-182.5"/>
<text xml:space="preserve" text-anchor="middle" x="233.12" y="-159.45" font-family="Times,serif" font-size="14.00">3</text>
<polyline fill="none" stroke="lightgray" points="244.5,-146.5 244.5,-182.5"/>
<text xml:space="preserve" text-anchor="middle" x="254.38" y="-159.45" font-family="Times,serif" font-size="14.00"> </text>
</g>
<!-- 4487887040&#45;&gt;4487887264 -->
<g id="edge2" class="edge">
<title>4487887040:r&#45;&gt;4487887264:v</title>
<path fill="none" stroke="black" d="M191.38,-219C191.38,-199.28 218.41,-203.85 228.97,-193.62"/>
<polygon fill="black" stroke="black" points="232.19,-195 232.57,-184.41 225.67,-192.45 232.19,-195"/>
</g>
<!-- 4487887376 -->
<g id="node4" class="node">
<title>4487887376</title>
<path fill="lightgray" stroke="lightgray" d="M33,-73.5C33,-73.5 71.25,-73.5 71.25,-73.5 77.25,-73.5 83.25,-79.5 83.25,-85.5 83.25,-85.5 83.25,-97.5 83.25,-97.5 83.25,-103.5 77.25,-109.5 71.25,-109.5 71.25,-109.5 33,-109.5 33,-109.5 27,-109.5 21,-103.5 21,-97.5 21,-97.5 21,-85.5 21,-85.5 21,-79.5 27,-73.5 33,-73.5"/>
<text xml:space="preserve" text-anchor="middle" x="30.88" y="-86.45" font-family="Times,serif" font-size="14.00"> </text>
<polyline fill="none" stroke="lightgray" points="40.75,-73.5 40.75,-109.5"/>
<text xml:space="preserve" text-anchor="middle" x="52.12" y="-86.45" font-family="Times,serif" font-size="14.00">4</text>
<polyline fill="none" stroke="lightgray" points="63.5,-73.5 63.5,-109.5"/>
<text xml:space="preserve" text-anchor="middle" x="73.38" y="-86.45" font-family="Times,serif" font-size="14.00"> </text>
</g>
<!-- 4487887152&#45;&gt;4487887376 -->
<g id="edge3" class="edge">
<title>4487887152:l&#45;&gt;4487887376:v</title>
<path fill="none" stroke="black" d="M83.5,-146C83.5,-129.42 64.35,-129.73 55.97,-120.54"/>
<polygon fill="black" stroke="black" points="59.36,-119.61 52.64,-111.42 52.79,-122.02 59.36,-119.61"/>
</g>
<!-- 4487887488 -->
<g id="node5" class="node">
<title>4487887488</title>
<path fill="lightgray" stroke="lightgray" d="M113,-73.5C113,-73.5 151.25,-73.5 151.25,-73.5 157.25,-73.5 163.25,-79.5 163.25,-85.5 163.25,-85.5 163.25,-97.5 163.25,-97.5 163.25,-103.5 157.25,-109.5 151.25,-109.5 151.25,-109.5 113,-109.5 113,-109.5 107,-109.5 101,-103.5 101,-97.5 101,-97.5 101,-85.5 101,-85.5 101,-79.5 107,-73.5 113,-73.5"/>
<text xml:space="preserve" text-anchor="middle" x="110.88" y="-86.45" font-family="Times,serif" font-size="14.00"> </text>
<polyline fill="none" stroke="lightgray" points="120.75,-73.5 120.75,-109.5"/>
<text xml:space="preserve" text-anchor="middle" x="132.12" y="-86.45" font-family="Times,serif" font-size="14.00">1</text>
<polyline fill="none" stroke="lightgray" points="143.5,-73.5 143.5,-109.5"/>
<text xml:space="preserve" text-anchor="middle" x="153.38" y="-86.45" font-family="Times,serif" font-size="14.00"> </text>
</g>
<!-- 4487887152&#45;&gt;4487887488 -->
<g id="edge4" class="edge">
<title>4487887152:r&#45;&gt;4487887488:v</title>
<path fill="none" stroke="black" d="M132.75,-146C132.75,-134.62 132.43,-129.32 132.25,-121.45"/>
<polygon fill="black" stroke="black" points="135.75,-121.47 132.14,-111.51 128.75,-121.55 135.75,-121.47"/>
</g>
<!-- 4487887600 -->
<g id="node6" class="node">
<title>4487887600</title>
<path fill="lightgray" stroke="lightgray" d="M193,-73.5C193,-73.5 231.25,-73.5 231.25,-73.5 237.25,-73.5 243.25,-79.5 243.25,-85.5 243.25,-85.5 243.25,-97.5 243.25,-97.5 243.25,-103.5 237.25,-109.5 231.25,-109.5 231.25,-109.5 193,-109.5 193,-109.5 187,-109.5 181,-103.5 181,-97.5 181,-97.5 181,-85.5 181,-85.5 181,-79.5 187,-73.5 193,-73.5"/>
<text xml:space="preserve" text-anchor="middle" x="190.88" y="-86.45" font-family="Times,serif" font-size="14.00"> </text>
<polyline fill="none" stroke="lightgray" points="200.75,-73.5 200.75,-109.5"/>
<text xml:space="preserve" text-anchor="middle" x="212.12" y="-86.45" font-family="Times,serif" font-size="14.00">0</text>
<polyline fill="none" stroke="lightgray" points="223.5,-73.5 223.5,-109.5"/>
<text xml:space="preserve" text-anchor="middle" x="233.38" y="-86.45" font-family="Times,serif" font-size="14.00"> </text>
</g>
<!-- 4487887264&#45;&gt;4487887600 -->
<g id="edge5" class="edge">
<title>4487887264:l&#45;&gt;4487887600:v</title>
<path fill="none" stroke="black" d="M211.88,-146C211.88,-134.62 212,-129.32 212.07,-121.45"/>
<polygon fill="black" stroke="black" points="215.57,-121.53 212.12,-111.51 208.57,-121.5 215.57,-121.53"/>
</g>
<!-- 4487887712 -->
<g id="node7" class="node">
<title>4487887712</title>
<path fill="lightgray" stroke="lightgray" d="M273,-73.5C273,-73.5 311.25,-73.5 311.25,-73.5 317.25,-73.5 323.25,-79.5 323.25,-85.5 323.25,-85.5 323.25,-97.5 323.25,-97.5 323.25,-103.5 317.25,-109.5 311.25,-109.5 311.25,-109.5 273,-109.5 273,-109.5 267,-109.5 261,-103.5 261,-97.5 261,-97.5 261,-85.5 261,-85.5 261,-79.5 267,-73.5 273,-73.5"/>
<text xml:space="preserve" text-anchor="middle" x="270.88" y="-86.45" font-family="Times,serif" font-size="14.00"> </text>
<polyline fill="none" stroke="lightgray" points="280.75,-73.5 280.75,-109.5"/>
<text xml:space="preserve" text-anchor="middle" x="292.12" y="-86.45" font-family="Times,serif" font-size="14.00">2</text>
<polyline fill="none" stroke="lightgray" points="303.5,-73.5 303.5,-109.5"/>
<text xml:space="preserve" text-anchor="middle" x="313.38" y="-86.45" font-family="Times,serif" font-size="14.00"> </text>
</g>
<!-- 4487887264&#45;&gt;4487887712 -->
<g id="edge6" class="edge">
<title>4487887264:r&#45;&gt;4487887712:v</title>
<path fill="none" stroke="black" d="M254.38,-146C254.38,-127.53 278.35,-130.36 288.09,-120.54"/>
<polygon fill="black" stroke="black" points="291.27,-122 291.58,-111.41 284.74,-119.5 291.27,-122"/>
</g>
<!-- 4487887824 -->
<g id="node8" class="node">
<title>4487887824</title>
<path fill="lightgray" stroke="lightgray" d="M12,-0.5C12,-0.5 50.25,-0.5 50.25,-0.5 56.25,-0.5 62.25,-6.5 62.25,-12.5 62.25,-12.5 62.25,-24.5 62.25,-24.5 62.25,-30.5 56.25,-36.5 50.25,-36.5 50.25,-36.5 12,-36.5 12,-36.5 6,-36.5 0,-30.5 0,-24.5 0,-24.5 0,-12.5 0,-12.5 0,-6.5 6,-0.5 12,-0.5"/>
<text xml:space="preserve" text-anchor="middle" x="9.88" y="-13.45" font-family="Times,serif" font-size="14.00"> </text>
<polyline fill="none" stroke="lightgray" points="19.75,-0.5 19.75,-36.5"/>
<text xml:space="preserve" text-anchor="middle" x="31.12" y="-13.45" font-family="Times,serif" font-size="14.00">3</text>
<polyline fill="none" stroke="lightgray" points="42.5,-0.5 42.5,-36.5"/>
<text xml:space="preserve" text-anchor="middle" x="52.38" y="-13.45" font-family="Times,serif" font-size="14.00"> </text>
</g>
<!-- 4487887376&#45;&gt;4487887824 -->
<g id="edge7" class="edge">
<title>4487887376:l&#45;&gt;4487887824:v</title>
<path fill="none" stroke="black" d="M30.88,-73C30.88,-61.62 31,-56.32 31.07,-48.45"/>
<polygon fill="black" stroke="black" points="34.57,-48.53 31.12,-38.51 27.57,-48.5 34.57,-48.53"/>
</g>
</g>
</svg>
