<?xml version="1.0" encoding="UTF-8" standalone="no"?>
<!DOCTYPE svg PUBLIC "-//W3C//DTD SVG 1.1//EN"
 "http://www.w3.org/Graphics/SVG/1.1/DTD/svg11.dtd">
<!-- Generated by graphviz version 14.0.0 (20250921.2048)
 -->
<!-- Title: G Pages: 1 -->
<svg width="454pt" height="500pt"
 viewBox="0.00 0.00 454.00 500.00" xmlns="http://www.w3.org/2000/svg" xmlns:xlink="http://www.w3.org/1999/xlink">
<g id="graph0" class="graph" transform="scale(1.05042 1.05042) rotate(0) translate(4 472)">
<title>G</title>
<polygon fill="white" stroke="none" points="-4,4 -4,-472 428,-472 428,4 -4,4"/>
<!-- 0 -->
<g id="node1" class="node">
<title>0</title>
<ellipse fill="none" stroke="black" cx="235" cy="-378" rx="27" ry="18"/>
<text xml:space="preserve" text-anchor="middle" x="235" y="-372.95" font-family="Times,serif" font-size="14.00">55</text>
</g>
<!-- 1 -->
<g id="node2" class="node">
<title>1</title>
<ellipse fill="none" stroke="black" cx="199" cy="-306" rx="27" ry="18"/>
<text xml:space="preserve" text-anchor="middle" x="199" y="-300.95" font-family="Times,serif" font-size="14.00">44</text>
</g>
<!-- 0&#45;&gt;1 -->
<g id="edge1" class="edge">
<title>0&#45;&gt;1</title>
<path fill="none" stroke="black" d="M226.65,-360.76C222.42,-352.55 217.19,-342.37 212.42,-333.09"/>
<polygon fill="black" stroke="black" points="215.68,-331.79 208,-324.49 209.46,-334.99 215.68,-331.79"/>
</g>
<!-- 2 -->
<g id="node3" class="node">
<title>2</title>
<ellipse fill="none" stroke="black" cx="298" cy="-306" rx="27" ry="18"/>
<text xml:space="preserve" text-anchor="middle" x="298" y="-300.95" font-family="Times,serif" font-size="14.00">33</text>
</g>
<!-- 0&#45;&gt;2 -->
<g id="edge4" class="edge">
<title>0&#45;&gt;2</title>
<path fill="none" stroke="black" d="M248.36,-362.15C256.71,-352.87 267.65,-340.73 277.13,-330.19"/>
<polygon fill="black" stroke="black" points="279.56,-332.72 283.65,-322.95 274.35,-328.04 279.56,-332.72"/>
</g>
<!-- 3 -->
<g id="node4" class="node">
<title>3</title>
<ellipse fill="none" stroke="black" cx="99" cy="-234" rx="27" ry="18"/>
<text xml:space="preserve" text-anchor="middle" x="99" y="-228.95" font-family="Times,serif" font-size="14.00">22</text>
</g>
<!-- 1&#45;&gt;3 -->
<g id="edge8" class="edge">
<title>1&#45;&gt;3</title>
<path fill="none" stroke="black" d="M181.12,-292.49C165.86,-281.8 143.67,-266.27 126.2,-254.04"/>
<polygon fill="black" stroke="black" points="128.5,-251.38 118.3,-248.51 124.49,-257.11 128.5,-251.38"/>
</g>
<!-- 4 -->
<g id="node5" class="node">
<title>4</title>
<ellipse fill="none" stroke="black" cx="199" cy="-234" rx="27" ry="18"/>
<text xml:space="preserve" text-anchor="middle" x="199" y="-228.95" font-family="Times,serif" font-size="14.00">11</text>
</g>
<!-- 1&#45;&gt;4 -->
<g id="edge14" class="edge">
<title>1&#45;&gt;4</title>
<path fill="none" stroke="black" d="M199,-287.7C199,-280.41 199,-271.73 199,-263.54"/>
<polygon fill="black" stroke="black" points="202.5,-263.62 199,-253.62 195.5,-263.62 202.5,-263.62"/>
</g>
<!-- 5 -->
<g id="node6" class="node">
<title>5</title>
<ellipse fill="none" stroke="black" cx="325" cy="-90" rx="27" ry="18"/>
<text xml:space="preserve" text-anchor="middle" x="325" y="-84.95" font-family="Times,serif" font-size="14.00">8</text>
</g>
<!-- 2&#45;&gt;5 -->
<g id="edge7" class="edge">
<title>2&#45;&gt;5</title>
<path fill="none" stroke="black" d="M299.87,-287.58C303.08,-258.03 309.99,-196.16 317,-144 318.07,-136.04 319.33,-127.42 320.53,-119.49"/>
<polygon fill="black" stroke="black" points="323.98,-120.08 322.04,-109.66 317.06,-119.01 323.98,-120.08"/>
</g>
<!-- 6 -->
<g id="node7" class="node">
<title>6</title>
<ellipse fill="none" stroke="black" cx="353" cy="-234" rx="27" ry="18"/>
<text xml:space="preserve" text-anchor="middle" x="353" y="-228.95" font-family="Times,serif" font-size="14.00">8</text>
</g>
<!-- 2&#45;&gt;6 -->
<g id="edge15" class="edge">
<title>2&#45;&gt;6</title>
<path fill="none" stroke="black" d="M310.21,-289.46C317.11,-280.67 325.91,-269.48 333.73,-259.53"/>
<polygon fill="black" stroke="black" points="336.47,-261.71 339.89,-251.68 330.96,-257.38 336.47,-261.71"/>
</g>
<!-- 7 -->
<g id="node8" class="node">
<title>7</title>
<ellipse fill="none" stroke="black" cx="27" cy="-162" rx="27" ry="18"/>
<text xml:space="preserve" text-anchor="middle" x="27" y="-156.95" font-family="Times,serif" font-size="14.00">3</text>
</g>
<!-- 3&#45;&gt;7 -->
<g id="edge3" class="edge">
<title>3&#45;&gt;7</title>
<path fill="none" stroke="black" d="M84.08,-218.5C74.23,-208.92 61.14,-196.19 49.97,-185.34"/>
<polygon fill="black" stroke="black" points="52.59,-183 42.98,-178.54 47.71,-188.02 52.59,-183"/>
</g>
<!-- 8 -->
<g id="node9" class="node">
<title>8</title>
<ellipse fill="none" stroke="black" cx="99" cy="-162" rx="27" ry="18"/>
<text xml:space="preserve" text-anchor="middle" x="99" y="-156.95" font-family="Times,serif" font-size="14.00">2</text>
</g>
<!-- 3&#45;&gt;8 -->
<g id="edge11" class="edge">
<title>3&#45;&gt;8</title>
<path fill="none" stroke="black" d="M99,-215.7C99,-208.41 99,-199.73 99,-191.54"/>
<polygon fill="black" stroke="black" points="102.5,-191.62 99,-181.62 95.5,-191.62 102.5,-191.62"/>
</g>
<!-- 9 -->
<g id="node10" class="node">
<title>9</title>
<ellipse fill="none" stroke="black" cx="171" cy="-162" rx="27" ry="18"/>
<text xml:space="preserve" text-anchor="middle" x="171" y="-156.95" font-family="Times,serif" font-size="14.00">1</text>
</g>
<!-- 4&#45;&gt;9 -->
<g id="edge2" class="edge">
<title>4&#45;&gt;9</title>
<path fill="none" stroke="black" d="M192.36,-216.41C189.23,-208.57 185.4,-198.99 181.85,-190.13"/>
<polygon fill="black" stroke="black" points="185.11,-188.86 178.15,-180.88 178.61,-191.46 185.11,-188.86"/>
</g>
<!-- 10 -->
<g id="node11" class="node">
<title>10</title>
<ellipse fill="none" stroke="black" cx="243" cy="-162" rx="27" ry="18"/>
<text xml:space="preserve" text-anchor="middle" x="243" y="-156.95" font-family="Times,serif" font-size="14.00">8</text>
</g>
<!-- 4&#45;&gt;10 -->
<g id="edge10" class="edge">
<title>4&#45;&gt;10</title>
<path fill="none" stroke="black" d="M208.98,-217.12C214.33,-208.61 221.04,-197.94 227.08,-188.32"/>
<polygon fill="black" stroke="black" points="229.89,-190.43 232.25,-180.1 223.96,-186.71 229.89,-190.43"/>
</g>
<!-- 11 -->
<g id="node12" class="node">
<title>11</title>
<ellipse fill="none" stroke="black" cx="325" cy="-18" rx="27" ry="18"/>
<text xml:space="preserve" text-anchor="middle" x="325" y="-12.95" font-family="Times,serif" font-size="14.00">4</text>
</g>
<!-- 5&#45;&gt;11 -->
<g id="edge12" class="edge">
<title>5&#45;&gt;11</title>
<path fill="none" stroke="black" d="M319.12,-72.05C318.33,-64.57 318.08,-55.58 318.37,-47.14"/>
<polygon fill="black" stroke="black" points="321.85,-47.51 319.04,-37.3 314.87,-47.04 321.85,-47.51"/>
</g>
<!-- 12 -->
<g id="node13" class="node">
<title>12</title>
<ellipse fill="none" stroke="black" cx="397" cy="-18" rx="27" ry="18"/>
<text xml:space="preserve" text-anchor="middle" x="397" y="-12.95" font-family="Times,serif" font-size="14.00">5</text>
</g>
<!-- 5&#45;&gt;12 -->
<g id="edge17" class="edge">
<title>5&#45;&gt;12</title>
<path fill="none" stroke="black" d="M339.92,-74.5C349.77,-64.92 362.86,-52.19 374.03,-41.34"/>
<polygon fill="black" stroke="black" points="376.29,-44.02 381.02,-34.54 371.41,-39 376.29,-44.02"/>
</g>
<!-- 13 -->
<!-- 6&#45;&gt;13 -->
<!-- 11&#45;&gt;5 -->
<!-- 13&#45;&gt;5 -->
<!-- 13&#45;&gt;6 -->
<!-- None -->
<g id="node15" class="node">
<title>None</title>
<ellipse fill="none" stroke="black" cx="235" cy="-450" rx="30.88" ry="18"/>
<text xml:space="preserve" text-anchor="middle" x="235" y="-444.95" font-family="Times,serif" font-size="14.00">None</text>
</g>
<!-- None&#45;&gt;0 -->
<g id="edge13" class="edge">
<title>None&#45;&gt;0</title>
<path fill="none" stroke="black" d="M235,-431.7C235,-424.41 235,-415.73 235,-407.54"/>
<polygon fill="black" stroke="black" points="238.5,-407.62 235,-397.62 231.5,-407.62 238.5,-407.62"/>
</g>
</g>
</svg>
