<?xml version="1.0" encoding="UTF-8" standalone="no"?>
<!DOCTYPE svg PUBLIC "-//W3C//DTD SVG 1.1//EN"
 "http://www.w3.org/Graphics/SVG/1.1/DTD/svg11.dtd">
<!-- Generated by graphviz version 14.0.0 (20250921.2048)
 -->
<!-- Pages: 1 -->
<svg width="230pt" height="191pt"
 viewBox="0.00 0.00 230.00 191.00" xmlns="http://www.w3.org/2000/svg" xmlns:xlink="http://www.w3.org/1999/xlink">
<g id="graph0" class="graph" transform="scale(1 1) rotate(0) translate(4 187)">
<polygon fill="white" stroke="none" points="-4,4 -4,-187 226.25,-187 226.25,4 -4,4"/>
<!-- 4465224832 -->
<g id="node1" class="node">
<title>4465224832</title>
<path fill="lightgray" stroke="lightgray" d="M121,-146.5C121,-146.5 159.25,-146.5 159.25,-146.5 165.25,-146.5 171.25,-152.5 171.25,-158.5 171.25,-158.5 171.25,-170.5 171.25,-170.5 171.25,-176.5 165.25,-182.5 159.25,-182.5 159.25,-182.5 121,-182.5 121,-182.5 115,-182.5 109,-176.5 109,-170.5 109,-170.5 109,-158.5 109,-158.5 109,-152.5 115,-146.5 121,-146.5"/>
<text xml:space="preserve" text-anchor="middle" x="118.88" y="-159.45" font-family="Times,serif" font-size="14.00"> </text>
<polyline fill="none" stroke="lightgray" points="128.75,-146.5 128.75,-182.5"/>
<text xml:space="preserve" text-anchor="middle" x="140.12" y="-159.45" font-family="Times,serif" font-size="14.00">5</text>
<polyline fill="none" stroke="lightgray" points="151.5,-146.5 151.5,-182.5"/>
<text xml:space="preserve" text-anchor="middle" x="161.38" y="-159.45" font-family="Times,serif" font-size="14.00"> </text>
</g>
<!-- 4465225616 -->
<g id="node2" class="node">
<title>4465225616</title>
<path fill="lightgray" stroke="lightgray" d="M71,-73.5C71,-73.5 109.25,-73.5 109.25,-73.5 115.25,-73.5 121.25,-79.5 121.25,-85.5 121.25,-85.5 121.25,-97.5 121.25,-97.5 121.25,-103.5 115.25,-109.5 109.25,-109.5 109.25,-109.5 71,-109.5 71,-109.5 65,-109.5 59,-103.5 59,-97.5 59,-97.5 59,-85.5 59,-85.5 59,-79.5 65,-73.5 71,-73.5"/>
<text xml:space="preserve" text-anchor="middle" x="68.88" y="-86.45" font-family="Times,serif" font-size="14.00"> </text>
<polyline fill="none" stroke="lightgray" points="78.75,-73.5 78.75,-109.5"/>
<text xml:space="preserve" text-anchor="middle" x="90.12" y="-86.45" font-family="Times,serif" font-size="14.00">4</text>
<polyline fill="none" stroke="lightgray" points="101.5,-73.5 101.5,-109.5"/>
<text xml:space="preserve" text-anchor="middle" x="111.38" y="-86.45" font-family="Times,serif" font-size="14.00"> </text>
</g>
<!-- 4465224832&#45;&gt;4465225616 -->
<g id="edge1" class="edge">
<title>4465224832:l&#45;&gt;4465225616:v</title>
<path fill="none" stroke="black" d="M118.88,-146C118.88,-130.16 101.68,-129.54 93.88,-120.59"/>
<polygon fill="black" stroke="black" points="97.27,-119.68 90.63,-111.43 90.68,-122.02 97.27,-119.68"/>
</g>
<!-- 4465224944 -->
<g id="node3" class="node">
<title>4465224944</title>
<path fill="lightgray" stroke="lightgray" d="M172,-73.5C172,-73.5 210.25,-73.5 210.25,-73.5 216.25,-73.5 222.25,-79.5 222.25,-85.5 222.25,-85.5 222.25,-97.5 222.25,-97.5 222.25,-103.5 216.25,-109.5 210.25,-109.5 210.25,-109.5 172,-109.5 172,-109.5 166,-109.5 160,-103.5 160,-97.5 160,-97.5 160,-85.5 160,-85.5 160,-79.5 166,-73.5 172,-73.5"/>
<text xml:space="preserve" text-anchor="middle" x="169.88" y="-86.45" font-family="Times,serif" font-size="14.00"> </text>
<polyline fill="none" stroke="lightgray" points="179.75,-73.5 179.75,-109.5"/>
<text xml:space="preserve" text-anchor="middle" x="191.12" y="-86.45" font-family="Times,serif" font-size="14.00">2</text>
<polyline fill="none" stroke="lightgray" points="202.5,-73.5 202.5,-109.5"/>
<text xml:space="preserve" text-anchor="middle" x="212.38" y="-86.45" font-family="Times,serif" font-size="14.00"> </text>
</g>
<!-- 4465224832&#45;&gt;4465224944 -->
<g id="edge2" class="edge">
<title>4465224832:r&#45;&gt;4465224944:v</title>
<path fill="none" stroke="black" d="M161.38,-146C161.38,-129.95 179.17,-129.61 187.24,-120.67"/>
<polygon fill="black" stroke="black" points="190.47,-122.02 190.61,-111.42 183.89,-119.62 190.47,-122.02"/>
</g>
<!-- 4465221584 -->
<g id="node4" class="node">
<title>4465221584</title>
<path fill="lightgray" stroke="lightgray" d="M12,-0.5C12,-0.5 50.25,-0.5 50.25,-0.5 56.25,-0.5 62.25,-6.5 62.25,-12.5 62.25,-12.5 62.25,-24.5 62.25,-24.5 62.25,-30.5 56.25,-36.5 50.25,-36.5 50.25,-36.5 12,-36.5 12,-36.5 6,-36.5 0,-30.5 0,-24.5 0,-24.5 0,-12.5 0,-12.5 0,-6.5 6,-0.5 12,-0.5"/>
<text xml:space="preserve" text-anchor="middle" x="9.88" y="-13.45" font-family="Times,serif" font-size="14.00"> </text>
<polyline fill="none" stroke="lightgray" points="19.75,-0.5 19.75,-36.5"/>
<text xml:space="preserve" text-anchor="middle" x="31.12" y="-13.45" font-family="Times,serif" font-size="14.00">3</text>
<polyline fill="none" stroke="lightgray" points="42.5,-0.5 42.5,-36.5"/>
<text xml:space="preserve" text-anchor="middle" x="52.38" y="-13.45" font-family="Times,serif" font-size="14.00"> </text>
</g>
<!-- 4465225616&#45;&gt;4465221584 -->
<g id="edge3" class="edge">
<title>4465225616:l&#45;&gt;4465221584:v</title>
<path fill="none" stroke="black" d="M68.88,-73C68.88,-54.53 44.9,-57.36 35.16,-47.54"/>
<polygon fill="black" stroke="black" points="38.51,-46.5 31.67,-38.41 31.98,-49 38.51,-46.5"/>
</g>
<!-- 4465228864 -->
<g id="node5" class="node">
<title>4465228864</title>
<path fill="lightgray" stroke="lightgray" d="M92,-0.5C92,-0.5 130.25,-0.5 130.25,-0.5 136.25,-0.5 142.25,-6.5 142.25,-12.5 142.25,-12.5 142.25,-24.5 142.25,-24.5 142.25,-30.5 136.25,-36.5 130.25,-36.5 130.25,-36.5 92,-36.5 92,-36.5 86,-36.5 80,-30.5 80,-24.5 80,-24.5 80,-12.5 80,-12.5 80,-6.5 86,-0.5 92,-0.5"/>
<text xml:space="preserve" text-anchor="middle" x="89.88" y="-13.45" font-family="Times,serif" font-size="14.00"> </text>
<polyline fill="none" stroke="lightgray" points="99.75,-0.5 99.75,-36.5"/>
<text xml:space="preserve" text-anchor="middle" x="111.12" y="-13.45" font-family="Times,serif" font-size="14.00">1</text>
<polyline fill="none" stroke="lightgray" points="122.5,-0.5 122.5,-36.5"/>
<text xml:space="preserve" text-anchor="middle" x="132.38" y="-13.45" font-family="Times,serif" font-size="14.00"> </text>
</g>
<!-- 4465225616&#45;&gt;4465228864 -->
<g id="edge4" class="edge">
<title>4465225616:r&#45;&gt;4465228864:v</title>
<path fill="none" stroke="black" d="M111.38,-73C111.38,-61.62 111.25,-56.32 111.18,-48.45"/>
<polygon fill="black" stroke="black" points="114.68,-48.5 111.13,-38.51 107.68,-48.53 114.68,-48.5"/>
</g>
<!-- 4465223488 -->
<g id="node6" class="node">
<title>4465223488</title>
<path fill="lightgray" stroke="lightgray" d="M172,-0.5C172,-0.5 210.25,-0.5 210.25,-0.5 216.25,-0.5 222.25,-6.5 222.25,-12.5 222.25,-12.5 222.25,-24.5 222.25,-24.5 222.25,-30.5 216.25,-36.5 210.25,-36.5 210.25,-36.5 172,-36.5 172,-36.5 166,-36.5 160,-30.5 160,-24.5 160,-24.5 160,-12.5 160,-12.5 160,-6.5 166,-0.5 172,-0.5"/>
<text xml:space="preserve" text-anchor="middle" x="169.88" y="-13.45" font-family="Times,serif" font-size="14.00"> </text>
<polyline fill="none" stroke="lightgray" points="179.75,-0.5 179.75,-36.5"/>
<text xml:space="preserve" text-anchor="middle" x="191.12" y="-13.45" font-family="Times,serif" font-size="14.00">0</text>
<polyline fill="none" stroke="lightgray" points="202.5,-0.5 202.5,-36.5"/>
<text xml:space="preserve" text-anchor="middle" x="212.38" y="-13.45" font-family="Times,serif" font-size="14.00"> </text>
</g>
<!-- 4465224944&#45;&gt;4465223488 -->
<g id="edge5" class="edge">
<title>4465224944:l&#45;&gt;4465223488:v</title>
<path fill="none" stroke="black" d="M169.88,-73C169.88,-59.07 181.83,-56.23 187.8,-47.85"/>
<polygon fill="black" stroke="black" points="191.1,-49.03 190.68,-38.45 184.41,-46.99 191.1,-49.03"/>
</g>
</g>
</svg>
