<?xml version="1.0" encoding="UTF-8" standalone="no"?>
<!DOCTYPE svg PUBLIC "-//W3C//DTD SVG 1.1//EN"
 "http://www.w3.org/Graphics/SVG/1.1/DTD/svg11.dtd">
<!-- Generated by graphviz version 14.0.0 (20250921.2048)
 -->
<!-- Pages: 1 -->
<svg width="365pt" height="289pt"
 viewBox="0.00 0.00 365.00 289.00" xmlns="http://www.w3.org/2000/svg" xmlns:xlink="http://www.w3.org/1999/xlink">
<g id="graph0" class="graph" transform="scale(1 1) rotate(0) translate(4 284.5)">
<polygon fill="white" stroke="none" points="-4,4 -4,-284.5 360.62,-284.5 360.62,4 -4,4"/>
<text xml:space="preserve" text-anchor="middle" x="178.31" y="-7.2" font-family="Times,serif" font-size="14.00">MaxHeap [6, 10, 17, 9, 3, 5, 19, 22, 84], heapsize: 7</text>
<!-- 4495599312 -->
<g id="node1" class="node">
<title>4495599312</title>
<path fill="lightgray" stroke="green" d="M199.38,-244C199.38,-244 237.62,-244 237.62,-244 243.62,-244 249.62,-250 249.62,-256 249.62,-256 249.62,-268 249.62,-268 249.62,-274 243.62,-280 237.62,-280 237.62,-280 199.38,-280 199.38,-280 193.38,-280 187.38,-274 187.38,-268 187.38,-268 187.38,-256 187.38,-256 187.38,-250 193.38,-244 199.38,-244"/>
<text xml:space="preserve" text-anchor="middle" x="197.25" y="-256.95" font-family="Times,serif" font-size="14.00"> </text>
<polyline fill="none" stroke="green" points="207.12,-244 207.12,-280"/>
<text xml:space="preserve" text-anchor="middle" x="218.5" y="-256.95" font-family="Times,serif" font-size="14.00">6</text>
<polyline fill="none" stroke="green" points="229.88,-244 229.88,-280"/>
<text xml:space="preserve" text-anchor="middle" x="239.75" y="-256.95" font-family="Times,serif" font-size="14.00"> </text>
</g>
<!-- 4495598752 -->
<g id="node2" class="node">
<title>4495598752</title>
<path fill="lightgray" stroke="lightgray" d="M111,-171C111,-171 156,-171 156,-171 162,-171 168,-177 168,-183 168,-183 168,-195 168,-195 168,-201 162,-207 156,-207 156,-207 111,-207 111,-207 105,-207 99,-201 99,-195 99,-195 99,-183 99,-183 99,-177 105,-171 111,-171"/>
<text xml:space="preserve" text-anchor="middle" x="108.88" y="-183.95" font-family="Times,serif" font-size="14.00"> </text>
<polyline fill="none" stroke="lightgray" points="118.75,-171 118.75,-207"/>
<text xml:space="preserve" text-anchor="middle" x="133.5" y="-183.95" font-family="Times,serif" font-size="14.00">10</text>
<polyline fill="none" stroke="lightgray" points="148.25,-171 148.25,-207"/>
<text xml:space="preserve" text-anchor="middle" x="158.12" y="-183.95" font-family="Times,serif" font-size="14.00"> </text>
</g>
<!-- 4495599312&#45;&gt;4495598752 -->
<g id="edge1" class="edge">
<title>4495599312:l&#45;&gt;4495598752:v</title>
<path fill="none" stroke="black" d="M197.25,-243.5C197.25,-215.79 151.02,-232.76 137.3,-218.32"/>
<polygon fill="black" stroke="black" points="140.61,-217.21 134,-208.93 134.01,-219.52 140.61,-217.21"/>
</g>
<!-- 4495597520 -->
<g id="node3" class="node">
<title>4495597520</title>
<path fill="lightgray" stroke="lightgray" d="M259,-171C259,-171 304,-171 304,-171 310,-171 316,-177 316,-183 316,-183 316,-195 316,-195 316,-201 310,-207 304,-207 304,-207 259,-207 259,-207 253,-207 247,-201 247,-195 247,-195 247,-183 247,-183 247,-177 253,-171 259,-171"/>
<text xml:space="preserve" text-anchor="middle" x="256.88" y="-183.95" font-family="Times,serif" font-size="14.00"> </text>
<polyline fill="none" stroke="lightgray" points="266.75,-171 266.75,-207"/>
<text xml:space="preserve" text-anchor="middle" x="281.5" y="-183.95" font-family="Times,serif" font-size="14.00">17</text>
<polyline fill="none" stroke="lightgray" points="296.25,-171 296.25,-207"/>
<text xml:space="preserve" text-anchor="middle" x="306.12" y="-183.95" font-family="Times,serif" font-size="14.00"> </text>
</g>
<!-- 4495599312&#45;&gt;4495597520 -->
<g id="edge2" class="edge">
<title>4495599312:r&#45;&gt;4495597520:v</title>
<path fill="none" stroke="black" d="M239.75,-243.5C239.75,-223.78 266.78,-228.35 277.34,-218.12"/>
<polygon fill="black" stroke="black" points="280.56,-219.5 280.95,-208.91 274.05,-216.95 280.56,-219.5"/>
</g>
<!-- 4495598976 -->
<g id="node4" class="node">
<title>4495598976</title>
<path fill="lightgray" stroke="lightgray" d="M58.38,-98C58.38,-98 96.62,-98 96.62,-98 102.62,-98 108.62,-104 108.62,-110 108.62,-110 108.62,-122 108.62,-122 108.62,-128 102.62,-134 96.62,-134 96.62,-134 58.38,-134 58.38,-134 52.38,-134 46.38,-128 46.38,-122 46.38,-122 46.38,-110 46.38,-110 46.38,-104 52.38,-98 58.38,-98"/>
<text xml:space="preserve" text-anchor="middle" x="56.25" y="-110.95" font-family="Times,serif" font-size="14.00"> </text>
<polyline fill="none" stroke="lightgray" points="66.12,-98 66.12,-134"/>
<text xml:space="preserve" text-anchor="middle" x="77.5" y="-110.95" font-family="Times,serif" font-size="14.00">9</text>
<polyline fill="none" stroke="lightgray" points="88.88,-98 88.88,-134"/>
<text xml:space="preserve" text-anchor="middle" x="98.75" y="-110.95" font-family="Times,serif" font-size="14.00"> </text>
</g>
<!-- 4495598752&#45;&gt;4495598976 -->
<g id="edge3" class="edge">
<title>4495598752:l&#45;&gt;4495598976:v</title>
<path fill="none" stroke="black" d="M108.88,-170.5C108.88,-153.92 89.73,-154.23 81.35,-145.04"/>
<polygon fill="black" stroke="black" points="84.74,-144.11 78.02,-135.92 78.16,-146.52 84.74,-144.11"/>
</g>
<!-- 4495597856 -->
<g id="node5" class="node">
<title>4495597856</title>
<path fill="lightgray" stroke="lightgray" d="M138.38,-98C138.38,-98 176.62,-98 176.62,-98 182.62,-98 188.62,-104 188.62,-110 188.62,-110 188.62,-122 188.62,-122 188.62,-128 182.62,-134 176.62,-134 176.62,-134 138.38,-134 138.38,-134 132.38,-134 126.38,-128 126.38,-122 126.38,-122 126.38,-110 126.38,-110 126.38,-104 132.38,-98 138.38,-98"/>
<text xml:space="preserve" text-anchor="middle" x="136.25" y="-110.95" font-family="Times,serif" font-size="14.00"> </text>
<polyline fill="none" stroke="lightgray" points="146.12,-98 146.12,-134"/>
<text xml:space="preserve" text-anchor="middle" x="157.5" y="-110.95" font-family="Times,serif" font-size="14.00">3</text>
<polyline fill="none" stroke="lightgray" points="168.88,-98 168.88,-134"/>
<text xml:space="preserve" text-anchor="middle" x="178.75" y="-110.95" font-family="Times,serif" font-size="14.00"> </text>
</g>
<!-- 4495598752&#45;&gt;4495597856 -->
<g id="edge4" class="edge">
<title>4495598752:r&#45;&gt;4495597856:v</title>
<path fill="none" stroke="black" d="M158.12,-170.5C158.12,-159.12 157.81,-153.82 157.63,-145.95"/>
<polygon fill="black" stroke="black" points="161.13,-145.97 157.52,-136.01 154.13,-146.05 161.13,-145.97"/>
</g>
<!-- 4495603792 -->
<g id="node6" class="node">
<title>4495603792</title>
<path fill="lightgray" stroke="lightgray" d="M306.38,-98C306.38,-98 344.62,-98 344.62,-98 350.62,-98 356.62,-104 356.62,-110 356.62,-110 356.62,-122 356.62,-122 356.62,-128 350.62,-134 344.62,-134 344.62,-134 306.38,-134 306.38,-134 300.38,-134 294.38,-128 294.38,-122 294.38,-122 294.38,-110 294.38,-110 294.38,-104 300.38,-98 306.38,-98"/>
<text xml:space="preserve" text-anchor="middle" x="304.25" y="-110.95" font-family="Times,serif" font-size="14.00"> </text>
<polyline fill="none" stroke="lightgray" points="314.12,-98 314.12,-134"/>
<text xml:space="preserve" text-anchor="middle" x="325.5" y="-110.95" font-family="Times,serif" font-size="14.00">5</text>
<polyline fill="none" stroke="lightgray" points="336.88,-98 336.88,-134"/>
<text xml:space="preserve" text-anchor="middle" x="346.75" y="-110.95" font-family="Times,serif" font-size="14.00"> </text>
</g>
<!-- 4495597520&#45;&gt;4495603792 -->
<g id="edge5" class="edge">
<title>4495597520:l&#45;&gt;4495603792:v</title>
<path fill="none" stroke="black" d="M256.88,-170.5C256.88,-140.63 308.48,-161.39 322.19,-144.98"/>
<polygon fill="black" stroke="black" points="325.37,-146.53 325.04,-135.94 318.69,-144.42 325.37,-146.53"/>
</g>
<!-- 4495591472 -->
<g id="node7" class="node">
<title>4495591472</title>
<path fill="lightgray" stroke="green" d="M219,-98C219,-98 264,-98 264,-98 270,-98 276,-104 276,-110 276,-110 276,-122 276,-122 276,-128 270,-134 264,-134 264,-134 219,-134 219,-134 213,-134 207,-128 207,-122 207,-122 207,-110 207,-110 207,-104 213,-98 219,-98"/>
<text xml:space="preserve" text-anchor="middle" x="216.88" y="-110.95" font-family="Times,serif" font-size="14.00"> </text>
<polyline fill="none" stroke="green" points="226.75,-98 226.75,-134"/>
<text xml:space="preserve" text-anchor="middle" x="241.5" y="-110.95" font-family="Times,serif" font-size="14.00">19</text>
<polyline fill="none" stroke="green" points="256.25,-98 256.25,-134"/>
<text xml:space="preserve" text-anchor="middle" x="266.12" y="-110.95" font-family="Times,serif" font-size="14.00"> </text>
</g>
<!-- 4495597520&#45;&gt;4495591472 -->
<g id="edge6" class="edge">
<title>4495597520:r&#45;&gt;4495591472:v</title>
<path fill="none" stroke="black" d="M306.12,-170.5C306.12,-142.25 258.4,-160.25 244.97,-145"/>
<polygon fill="black" stroke="black" points="248.44,-144.33 241.98,-135.94 241.79,-146.53 248.44,-144.33"/>
</g>
<!-- 4495592368 -->
<g id="node8" class="node">
<title>4495592368</title>
<path fill="lightgray" stroke="lightgray" d="M12,-25C12,-25 57,-25 57,-25 63,-25 69,-31 69,-37 69,-37 69,-49 69,-49 69,-55 63,-61 57,-61 57,-61 12,-61 12,-61 6,-61 0,-55 0,-49 0,-49 0,-37 0,-37 0,-31 6,-25 12,-25"/>
<text xml:space="preserve" text-anchor="middle" x="9.88" y="-37.95" font-family="Times,serif" font-size="14.00"> </text>
<polyline fill="none" stroke="lightgray" points="19.75,-25 19.75,-61"/>
<text xml:space="preserve" text-anchor="middle" x="34.5" y="-37.95" font-family="Times,serif" font-size="14.00">22</text>
<polyline fill="none" stroke="lightgray" points="49.25,-25 49.25,-61"/>
<text xml:space="preserve" text-anchor="middle" x="59.12" y="-37.95" font-family="Times,serif" font-size="14.00"> </text>
</g>
<!-- 4495598976&#45;&gt;4495592368 -->
<g id="edge7" class="edge">
<title>4495598976:l&#45;&gt;4495592368:v</title>
<path fill="none" stroke="black" d="M56.25,-97.5C56.25,-83.48 44.02,-80.76 37.9,-72.38"/>
<polygon fill="black" stroke="black" points="41.27,-71.45 34.95,-62.94 34.59,-73.53 41.27,-71.45"/>
</g>
<!-- 4495592704 -->
<g id="node9" class="node">
<title>4495592704</title>
<path fill="lightgray" stroke="lightgray" d="M99,-25C99,-25 144,-25 144,-25 150,-25 156,-31 156,-37 156,-37 156,-49 156,-49 156,-55 150,-61 144,-61 144,-61 99,-61 99,-61 93,-61 87,-55 87,-49 87,-49 87,-37 87,-37 87,-31 93,-25 99,-25"/>
<text xml:space="preserve" text-anchor="middle" x="96.88" y="-37.95" font-family="Times,serif" font-size="14.00"> </text>
<polyline fill="none" stroke="lightgray" points="106.75,-25 106.75,-61"/>
<text xml:space="preserve" text-anchor="middle" x="121.5" y="-37.95" font-family="Times,serif" font-size="14.00">84</text>
<polyline fill="none" stroke="lightgray" points="136.25,-25 136.25,-61"/>
<text xml:space="preserve" text-anchor="middle" x="146.12" y="-37.95" font-family="Times,serif" font-size="14.00"> </text>
</g>
<!-- 4495598976&#45;&gt;4495592704 -->
<g id="edge8" class="edge">
<title>4495598976:r&#45;&gt;4495592704:v</title>
<path fill="none" stroke="black" d="M98.75,-97.5C98.75,-83.3 111.55,-80.8 117.95,-72.45"/>
<polygon fill="black" stroke="black" points="121.27,-73.53 121.03,-62.94 114.62,-71.37 121.27,-73.53"/>
</g>
<!-- 4495591472&#45;&gt;4495599312 -->
<g id="edge9" class="edge">
<title>4495591472&#45;&gt;4495599312</title>
<path fill="none" stroke="green" d="M238.72,-134.43C234.83,-158.79 227.72,-203.3 223.05,-232.52"/>
<polygon fill="green" stroke="green" points="219.63,-231.71 221.51,-242.14 226.55,-232.81 219.63,-231.71"/>
</g>
</g>
</svg>
