<?xml version="1.0" encoding="UTF-8" standalone="no"?>
<!DOCTYPE svg PUBLIC "-//W3C//DTD SVG 1.1//EN"
 "http://www.w3.org/Graphics/SVG/1.1/DTD/svg11.dtd">
<!-- Generated by graphviz version 14.0.0 (20250921.2048)
 -->
<!-- Pages: 1 -->
<svg width="318pt" height="216pt"
 viewBox="0.00 0.00 318.00 216.00" xmlns="http://www.w3.org/2000/svg" xmlns:xlink="http://www.w3.org/1999/xlink">
<g id="graph0" class="graph" transform="scale(1 1) rotate(0) translate(4 211.5)">
<polygon fill="white" stroke="none" points="-4,4 -4,-211.5 313.62,-211.5 313.62,4 -4,4"/>
<text xml:space="preserve" text-anchor="middle" x="154.81" y="-7.2" font-family="Times,serif" font-size="14.00">MaxHeap [6, 10, 17, 9, 3, 5, 19, 22, 84], heapsize: 7</text>
<!-- 4512495808 -->
<g id="node1" class="node">
<title>4512495808</title>
<path fill="lightgray" stroke="green" d="M132,-171C132,-171 170.25,-171 170.25,-171 176.25,-171 182.25,-177 182.25,-183 182.25,-183 182.25,-195 182.25,-195 182.25,-201 176.25,-207 170.25,-207 170.25,-207 132,-207 132,-207 126,-207 120,-201 120,-195 120,-195 120,-183 120,-183 120,-177 126,-171 132,-171"/>
<text xml:space="preserve" text-anchor="middle" x="129.88" y="-183.95" font-family="Times,serif" font-size="14.00"> </text>
<polyline fill="none" stroke="green" points="139.75,-171 139.75,-207"/>
<text xml:space="preserve" text-anchor="middle" x="151.12" y="-183.95" font-family="Times,serif" font-size="14.00">6</text>
<polyline fill="none" stroke="green" points="162.5,-171 162.5,-207"/>
<text xml:space="preserve" text-anchor="middle" x="172.38" y="-183.95" font-family="Times,serif" font-size="14.00"> </text>
</g>
<!-- 4534526912 -->
<g id="node2" class="node">
<title>4534526912</title>
<path fill="lightgray" stroke="lightgray" d="M64.62,-98C64.62,-98 109.62,-98 109.62,-98 115.62,-98 121.62,-104 121.62,-110 121.62,-110 121.62,-122 121.62,-122 121.62,-128 115.62,-134 109.62,-134 109.62,-134 64.62,-134 64.62,-134 58.62,-134 52.62,-128 52.62,-122 52.62,-122 52.62,-110 52.62,-110 52.62,-104 58.62,-98 64.62,-98"/>
<text xml:space="preserve" text-anchor="middle" x="62.5" y="-110.95" font-family="Times,serif" font-size="14.00"> </text>
<polyline fill="none" stroke="lightgray" points="72.38,-98 72.38,-134"/>
<text xml:space="preserve" text-anchor="middle" x="87.12" y="-110.95" font-family="Times,serif" font-size="14.00">10</text>
<polyline fill="none" stroke="lightgray" points="101.88,-98 101.88,-134"/>
<text xml:space="preserve" text-anchor="middle" x="111.75" y="-110.95" font-family="Times,serif" font-size="14.00"> </text>
</g>
<!-- 4512495808&#45;&gt;4534526912 -->
<g id="edge1" class="edge">
<title>4512495808:l&#45;&gt;4534526912:v</title>
<path fill="none" stroke="black" d="M129.88,-170.5C129.88,-150.32 101.65,-155.56 91.07,-144.92"/>
<polygon fill="black" stroke="black" points="94.48,-144.03 87.66,-135.92 87.93,-146.51 94.48,-144.03"/>
</g>
<!-- 4534529376 -->
<g id="node3" class="node">
<title>4534529376</title>
<path fill="lightgray" stroke="lightgray" d="M192.62,-98C192.62,-98 237.62,-98 237.62,-98 243.62,-98 249.62,-104 249.62,-110 249.62,-110 249.62,-122 249.62,-122 249.62,-128 243.62,-134 237.62,-134 237.62,-134 192.62,-134 192.62,-134 186.62,-134 180.62,-128 180.62,-122 180.62,-122 180.62,-110 180.62,-110 180.62,-104 186.62,-98 192.62,-98"/>
<text xml:space="preserve" text-anchor="middle" x="190.5" y="-110.95" font-family="Times,serif" font-size="14.00"> </text>
<polyline fill="none" stroke="lightgray" points="200.38,-98 200.38,-134"/>
<text xml:space="preserve" text-anchor="middle" x="215.12" y="-110.95" font-family="Times,serif" font-size="14.00">17</text>
<polyline fill="none" stroke="lightgray" points="229.88,-98 229.88,-134"/>
<text xml:space="preserve" text-anchor="middle" x="239.75" y="-110.95" font-family="Times,serif" font-size="14.00"> </text>
</g>
<!-- 4512495808&#45;&gt;4534529376 -->
<g id="edge2" class="edge">
<title>4512495808:r&#45;&gt;4534529376:v</title>
<path fill="none" stroke="black" d="M172.38,-170.5C172.38,-150.32 200.6,-155.56 211.18,-144.92"/>
<polygon fill="black" stroke="black" points="214.32,-146.51 214.59,-135.92 207.77,-144.03 214.32,-146.51"/>
</g>
<!-- 4534529712 -->
<g id="node4" class="node">
<title>4534529712</title>
<path fill="lightgray" stroke="lightgray" d="M12,-25C12,-25 50.25,-25 50.25,-25 56.25,-25 62.25,-31 62.25,-37 62.25,-37 62.25,-49 62.25,-49 62.25,-55 56.25,-61 50.25,-61 50.25,-61 12,-61 12,-61 6,-61 0,-55 0,-49 0,-49 0,-37 0,-37 0,-31 6,-25 12,-25"/>
<text xml:space="preserve" text-anchor="middle" x="9.88" y="-37.95" font-family="Times,serif" font-size="14.00"> </text>
<polyline fill="none" stroke="lightgray" points="19.75,-25 19.75,-61"/>
<text xml:space="preserve" text-anchor="middle" x="31.12" y="-37.95" font-family="Times,serif" font-size="14.00">9</text>
<polyline fill="none" stroke="lightgray" points="42.5,-25 42.5,-61"/>
<text xml:space="preserve" text-anchor="middle" x="52.38" y="-37.95" font-family="Times,serif" font-size="14.00"> </text>
</g>
<!-- 4534526912&#45;&gt;4534529712 -->
<g id="edge3" class="edge">
<title>4534526912:l&#45;&gt;4534529712:v</title>
<path fill="none" stroke="black" d="M62.5,-97.5C62.5,-80.92 43.35,-81.23 34.97,-72.04"/>
<polygon fill="black" stroke="black" points="38.36,-71.11 31.64,-62.92 31.79,-73.52 38.36,-71.11"/>
</g>
<!-- 4534530048 -->
<g id="node5" class="node">
<title>4534530048</title>
<path fill="lightgray" stroke="lightgray" d="M92,-25C92,-25 130.25,-25 130.25,-25 136.25,-25 142.25,-31 142.25,-37 142.25,-37 142.25,-49 142.25,-49 142.25,-55 136.25,-61 130.25,-61 130.25,-61 92,-61 92,-61 86,-61 80,-55 80,-49 80,-49 80,-37 80,-37 80,-31 86,-25 92,-25"/>
<text xml:space="preserve" text-anchor="middle" x="89.88" y="-37.95" font-family="Times,serif" font-size="14.00"> </text>
<polyline fill="none" stroke="lightgray" points="99.75,-25 99.75,-61"/>
<text xml:space="preserve" text-anchor="middle" x="111.12" y="-37.95" font-family="Times,serif" font-size="14.00">3</text>
<polyline fill="none" stroke="lightgray" points="122.5,-25 122.5,-61"/>
<text xml:space="preserve" text-anchor="middle" x="132.38" y="-37.95" font-family="Times,serif" font-size="14.00"> </text>
</g>
<!-- 4534526912&#45;&gt;4534530048 -->
<g id="edge4" class="edge">
<title>4534526912:r&#45;&gt;4534530048:v</title>
<path fill="none" stroke="black" d="M111.75,-97.5C111.75,-86.12 111.43,-80.82 111.25,-72.95"/>
<polygon fill="black" stroke="black" points="114.75,-72.97 111.14,-63.01 107.75,-73.05 114.75,-72.97"/>
</g>
<!-- 4534523328 -->
<g id="node6" class="node">
<title>4534523328</title>
<path fill="lightgray" stroke="lightgray" d="M172,-25C172,-25 210.25,-25 210.25,-25 216.25,-25 222.25,-31 222.25,-37 222.25,-37 222.25,-49 222.25,-49 222.25,-55 216.25,-61 210.25,-61 210.25,-61 172,-61 172,-61 166,-61 160,-55 160,-49 160,-49 160,-37 160,-37 160,-31 166,-25 172,-25"/>
<text xml:space="preserve" text-anchor="middle" x="169.88" y="-37.95" font-family="Times,serif" font-size="14.00"> </text>
<polyline fill="none" stroke="lightgray" points="179.75,-25 179.75,-61"/>
<text xml:space="preserve" text-anchor="middle" x="191.12" y="-37.95" font-family="Times,serif" font-size="14.00">5</text>
<polyline fill="none" stroke="lightgray" points="202.5,-25 202.5,-61"/>
<text xml:space="preserve" text-anchor="middle" x="212.38" y="-37.95" font-family="Times,serif" font-size="14.00"> </text>
</g>
<!-- 4534529376&#45;&gt;4534523328 -->
<g id="edge5" class="edge">
<title>4534529376:l&#45;&gt;4534523328:v</title>
<path fill="none" stroke="black" d="M190.5,-97.5C190.5,-86.12 190.82,-80.82 191,-72.95"/>
<polygon fill="black" stroke="black" points="194.5,-73.05 191.11,-63.01 187.5,-72.97 194.5,-73.05"/>
</g>
<!-- 4534524784 -->
<g id="node7" class="node">
<title>4534524784</title>
<path fill="lightgray" stroke="green" d="M252.62,-25C252.62,-25 297.62,-25 297.62,-25 303.62,-25 309.62,-31 309.62,-37 309.62,-37 309.62,-49 309.62,-49 309.62,-55 303.62,-61 297.62,-61 297.62,-61 252.62,-61 252.62,-61 246.62,-61 240.62,-55 240.62,-49 240.62,-49 240.62,-37 240.62,-37 240.62,-31 246.62,-25 252.62,-25"/>
<text xml:space="preserve" text-anchor="middle" x="250.5" y="-37.95" font-family="Times,serif" font-size="14.00"> </text>
<polyline fill="none" stroke="green" points="260.38,-25 260.38,-61"/>
<text xml:space="preserve" text-anchor="middle" x="275.12" y="-37.95" font-family="Times,serif" font-size="14.00">19</text>
<polyline fill="none" stroke="green" points="289.88,-25 289.88,-61"/>
<text xml:space="preserve" text-anchor="middle" x="299.75" y="-37.95" font-family="Times,serif" font-size="14.00"> </text>
</g>
<!-- 4534529376&#45;&gt;4534524784 -->
<g id="edge6" class="edge">
<title>4534529376:r&#45;&gt;4534524784:v</title>
<path fill="none" stroke="black" d="M239.75,-97.5C239.75,-79.8 261.78,-81.58 271.07,-72.11"/>
<polygon fill="black" stroke="black" points="274.28,-73.5 274.58,-62.91 267.74,-71 274.28,-73.5"/>
</g>
</g>
</svg>
