<?xml version="1.0" encoding="UTF-8" standalone="no"?>
<!DOCTYPE svg PUBLIC "-//W3C//DTD SVG 1.1//EN"
 "http://www.w3.org/Graphics/SVG/1.1/DTD/svg11.dtd">
<!-- Generated by graphviz version 14.0.0 (20250921.2048)
 -->
<!-- Pages: 1 -->
<svg width="392pt" height="70pt"
 viewBox="0.00 0.00 392.00 70.00" xmlns="http://www.w3.org/2000/svg" xmlns:xlink="http://www.w3.org/1999/xlink">
<g id="graph0" class="graph" transform="scale(1 1) rotate(0) translate(4 65.5)">
<polygon fill="white" stroke="none" points="-4,4 -4,-65.5 387.5,-65.5 387.5,4 -4,4"/>
<text xml:space="preserve" text-anchor="middle" x="191.75" y="-7.2" font-family="Times,serif" font-size="14.00">MaxHeap [27, 17, 10, 16, 13, 9, 1, 5, 7, 12, 4, 8, 3, 0], heapsize: 1</text>
<!-- 4534519184 -->
<g id="node1" class="node">
<title>4534519184</title>
<path fill="lightgray" stroke="lightgray" d="M169.25,-25C169.25,-25 214.25,-25 214.25,-25 220.25,-25 226.25,-31 226.25,-37 226.25,-37 226.25,-49 226.25,-49 226.25,-55 220.25,-61 214.25,-61 214.25,-61 169.25,-61 169.25,-61 163.25,-61 157.25,-55 157.25,-49 157.25,-49 157.25,-37 157.25,-37 157.25,-31 163.25,-25 169.25,-25"/>
<text xml:space="preserve" text-anchor="middle" x="167.12" y="-37.95" font-family="Times,serif" font-size="14.00"> </text>
<polyline fill="none" stroke="lightgray" points="177,-25 177,-61"/>
<text xml:space="preserve" text-anchor="middle" x="191.75" y="-37.95" font-family="Times,serif" font-size="14.00">27</text>
<polyline fill="none" stroke="lightgray" points="206.5,-25 206.5,-61"/>
<text xml:space="preserve" text-anchor="middle" x="216.38" y="-37.95" font-family="Times,serif" font-size="14.00"> </text>
</g>
</g>
</svg>
