<?xml version="1.0" encoding="UTF-8" standalone="no"?>
<!DOCTYPE svg PUBLIC "-//W3C//DTD SVG 1.1//EN"
 "http://www.w3.org/Graphics/SVG/1.1/DTD/svg11.dtd">
<!-- Generated by graphviz version 14.0.0 (20250921.2048)
 -->
<!-- Pages: 1 -->
<svg width="558pt" height="289pt"
 viewBox="0.00 0.00 558.00 289.00" xmlns="http://www.w3.org/2000/svg" xmlns:xlink="http://www.w3.org/1999/xlink">
<g id="graph0" class="graph" transform="scale(1 1) rotate(0) translate(4 284.5)">
<polygon fill="white" stroke="none" points="-4,4 -4,-284.5 554.25,-284.5 554.25,4 -4,4"/>
<text xml:space="preserve" text-anchor="middle" x="275.12" y="-7.2" font-family="Times,serif" font-size="14.00">MaxHeap [27, 17, 10, 16, 13, 9, 1, 5, 7, 12, 4, 8, 3, 0], heapsize: 1</text>
<!-- 4495596176 -->
<g id="node1" class="node">
<title>4495596176</title>
<path fill="lightgray" stroke="lightgray" d="M313.62,-244C313.62,-244 358.62,-244 358.62,-244 364.62,-244 370.62,-250 370.62,-256 370.62,-256 370.62,-268 370.62,-268 370.62,-274 364.62,-280 358.62,-280 358.62,-280 313.62,-280 313.62,-280 307.62,-280 301.62,-274 301.62,-268 301.62,-268 301.62,-256 301.62,-256 301.62,-250 307.62,-244 313.62,-244"/>
<text xml:space="preserve" text-anchor="middle" x="311.5" y="-256.95" font-family="Times,serif" font-size="14.00"> </text>
<polyline fill="none" stroke="lightgray" points="321.38,-244 321.38,-280"/>
<text xml:space="preserve" text-anchor="middle" x="336.12" y="-256.95" font-family="Times,serif" font-size="14.00">27</text>
<polyline fill="none" stroke="lightgray" points="350.88,-244 350.88,-280"/>
<text xml:space="preserve" text-anchor="middle" x="360.75" y="-256.95" font-family="Times,serif" font-size="14.00"> </text>
</g>
<!-- 4495592144 -->
<g id="node2" class="node">
<title>4495592144</title>
<path fill="lightgray" stroke="lightgray" d="M190.62,-171C190.62,-171 235.62,-171 235.62,-171 241.62,-171 247.62,-177 247.62,-183 247.62,-183 247.62,-195 247.62,-195 247.62,-201 241.62,-207 235.62,-207 235.62,-207 190.62,-207 190.62,-207 184.62,-207 178.62,-201 178.62,-195 178.62,-195 178.62,-183 178.62,-183 178.62,-177 184.62,-171 190.62,-171"/>
<text xml:space="preserve" text-anchor="middle" x="188.5" y="-183.95" font-family="Times,serif" font-size="14.00"> </text>
<polyline fill="none" stroke="lightgray" points="198.38,-171 198.38,-207"/>
<text xml:space="preserve" text-anchor="middle" x="213.12" y="-183.95" font-family="Times,serif" font-size="14.00">17</text>
<polyline fill="none" stroke="lightgray" points="227.88,-171 227.88,-207"/>
<text xml:space="preserve" text-anchor="middle" x="237.75" y="-183.95" font-family="Times,serif" font-size="14.00"> </text>
</g>
<!-- 4495596176&#45;&gt;4495592144 -->
<g id="edge1" class="edge">
<title>4495596176:l&#45;&gt;4495592144:v</title>
<path fill="none" stroke="black" d="M311.5,-243.5C311.5,-201.49 231.4,-243.89 215.76,-218.37"/>
<polygon fill="black" stroke="black" points="219.24,-217.87 213.48,-208.97 212.43,-219.51 219.24,-217.87"/>
</g>
<!-- 4495594048 -->
<g id="node3" class="node">
<title>4495594048</title>
<path fill="lightgray" stroke="lightgray" d="M419.62,-171C419.62,-171 464.62,-171 464.62,-171 470.62,-171 476.62,-177 476.62,-183 476.62,-183 476.62,-195 476.62,-195 476.62,-201 470.62,-207 464.62,-207 464.62,-207 419.62,-207 419.62,-207 413.62,-207 407.62,-201 407.62,-195 407.62,-195 407.62,-183 407.62,-183 407.62,-177 413.62,-171 419.62,-171"/>
<text xml:space="preserve" text-anchor="middle" x="417.5" y="-183.95" font-family="Times,serif" font-size="14.00"> </text>
<polyline fill="none" stroke="lightgray" points="427.38,-171 427.38,-207"/>
<text xml:space="preserve" text-anchor="middle" x="442.12" y="-183.95" font-family="Times,serif" font-size="14.00">10</text>
<polyline fill="none" stroke="lightgray" points="456.88,-171 456.88,-207"/>
<text xml:space="preserve" text-anchor="middle" x="466.75" y="-183.95" font-family="Times,serif" font-size="14.00"> </text>
</g>
<!-- 4495596176&#45;&gt;4495594048 -->
<g id="edge2" class="edge">
<title>4495596176:r&#45;&gt;4495594048:v</title>
<path fill="none" stroke="black" d="M360.75,-243.5C360.75,-208.74 423.61,-237.82 438.83,-218.52"/>
<polygon fill="black" stroke="black" points="442.19,-219.53 441.69,-208.95 435.48,-217.53 442.19,-219.53"/>
</g>
<!-- 4495592704 -->
<g id="node4" class="node">
<title>4495592704</title>
<path fill="lightgray" stroke="lightgray" d="M64.62,-98C64.62,-98 109.62,-98 109.62,-98 115.62,-98 121.62,-104 121.62,-110 121.62,-110 121.62,-122 121.62,-122 121.62,-128 115.62,-134 109.62,-134 109.62,-134 64.62,-134 64.62,-134 58.62,-134 52.62,-128 52.62,-122 52.62,-122 52.62,-110 52.62,-110 52.62,-104 58.62,-98 64.62,-98"/>
<text xml:space="preserve" text-anchor="middle" x="62.5" y="-110.95" font-family="Times,serif" font-size="14.00"> </text>
<polyline fill="none" stroke="lightgray" points="72.38,-98 72.38,-134"/>
<text xml:space="preserve" text-anchor="middle" x="87.12" y="-110.95" font-family="Times,serif" font-size="14.00">16</text>
<polyline fill="none" stroke="lightgray" points="101.88,-98 101.88,-134"/>
<text xml:space="preserve" text-anchor="middle" x="111.75" y="-110.95" font-family="Times,serif" font-size="14.00"> </text>
</g>
<!-- 4495592144&#45;&gt;4495592704 -->
<g id="edge3" class="edge">
<title>4495592144:l&#45;&gt;4495592704:v</title>
<path fill="none" stroke="black" d="M188.5,-170.5C188.5,-127.36 105.96,-171.69 89.84,-145.63"/>
<polygon fill="black" stroke="black" points="93.25,-144.86 87.48,-135.97 86.45,-146.51 93.25,-144.86"/>
</g>
<!-- 4495592480 -->
<g id="node5" class="node">
<title>4495592480</title>
<path fill="lightgray" stroke="lightgray" d="M214.62,-98C214.62,-98 259.62,-98 259.62,-98 265.62,-98 271.62,-104 271.62,-110 271.62,-110 271.62,-122 271.62,-122 271.62,-128 265.62,-134 259.62,-134 259.62,-134 214.62,-134 214.62,-134 208.62,-134 202.62,-128 202.62,-122 202.62,-122 202.62,-110 202.62,-110 202.62,-104 208.62,-98 214.62,-98"/>
<text xml:space="preserve" text-anchor="middle" x="212.5" y="-110.95" font-family="Times,serif" font-size="14.00"> </text>
<polyline fill="none" stroke="lightgray" points="222.38,-98 222.38,-134"/>
<text xml:space="preserve" text-anchor="middle" x="237.12" y="-110.95" font-family="Times,serif" font-size="14.00">13</text>
<polyline fill="none" stroke="lightgray" points="251.88,-98 251.88,-134"/>
<text xml:space="preserve" text-anchor="middle" x="261.75" y="-110.95" font-family="Times,serif" font-size="14.00"> </text>
</g>
<!-- 4495592144&#45;&gt;4495592480 -->
<g id="edge4" class="edge">
<title>4495592144:r&#45;&gt;4495592480:v</title>
<path fill="none" stroke="black" d="M237.75,-170.5C237.75,-159.12 237.43,-153.82 237.25,-145.95"/>
<polygon fill="black" stroke="black" points="240.75,-145.97 237.14,-136.01 233.75,-146.05 240.75,-145.97"/>
</g>
<!-- 4495593824 -->
<g id="node6" class="node">
<title>4495593824</title>
<path fill="lightgray" stroke="green" d="M399,-98C399,-98 437.25,-98 437.25,-98 443.25,-98 449.25,-104 449.25,-110 449.25,-110 449.25,-122 449.25,-122 449.25,-128 443.25,-134 437.25,-134 437.25,-134 399,-134 399,-134 393,-134 387,-128 387,-122 387,-122 387,-110 387,-110 387,-104 393,-98 399,-98"/>
<text xml:space="preserve" text-anchor="middle" x="396.88" y="-110.95" font-family="Times,serif" font-size="14.00"> </text>
<polyline fill="none" stroke="green" points="406.75,-98 406.75,-134"/>
<text xml:space="preserve" text-anchor="middle" x="418.12" y="-110.95" font-family="Times,serif" font-size="14.00">9</text>
<polyline fill="none" stroke="green" points="429.5,-98 429.5,-134"/>
<text xml:space="preserve" text-anchor="middle" x="439.38" y="-110.95" font-family="Times,serif" font-size="14.00"> </text>
</g>
<!-- 4495594048&#45;&gt;4495593824 -->
<g id="edge5" class="edge">
<title>4495594048:l&#45;&gt;4495593824:v</title>
<path fill="none" stroke="black" d="M417.5,-170.5C417.5,-159.12 417.82,-153.82 418,-145.95"/>
<polygon fill="black" stroke="black" points="421.5,-146.05 418.11,-136.01 414.5,-145.97 421.5,-146.05"/>
</g>
<!-- 4495593376 -->
<g id="node7" class="node">
<title>4495593376</title>
<path fill="lightgray" stroke="lightgray" d="M500,-98C500,-98 538.25,-98 538.25,-98 544.25,-98 550.25,-104 550.25,-110 550.25,-110 550.25,-122 550.25,-122 550.25,-128 544.25,-134 538.25,-134 538.25,-134 500,-134 500,-134 494,-134 488,-128 488,-122 488,-122 488,-110 488,-110 488,-104 494,-98 500,-98"/>
<text xml:space="preserve" text-anchor="middle" x="497.88" y="-110.95" font-family="Times,serif" font-size="14.00"> </text>
<polyline fill="none" stroke="lightgray" points="507.75,-98 507.75,-134"/>
<text xml:space="preserve" text-anchor="middle" x="519.12" y="-110.95" font-family="Times,serif" font-size="14.00">1</text>
<polyline fill="none" stroke="lightgray" points="530.5,-98 530.5,-134"/>
<text xml:space="preserve" text-anchor="middle" x="540.38" y="-110.95" font-family="Times,serif" font-size="14.00"> </text>
</g>
<!-- 4495594048&#45;&gt;4495593376 -->
<g id="edge6" class="edge">
<title>4495594048:r&#45;&gt;4495593376:v</title>
<path fill="none" stroke="black" d="M466.75,-170.5C466.75,-147.11 502.67,-157.14 515.02,-145.24"/>
<polygon fill="black" stroke="black" points="518.28,-146.5 518.58,-135.91 511.74,-144 518.28,-146.5"/>
</g>
<!-- 4495593488 -->
<g id="node8" class="node">
<title>4495593488</title>
<path fill="lightgray" stroke="lightgray" d="M12,-25C12,-25 50.25,-25 50.25,-25 56.25,-25 62.25,-31 62.25,-37 62.25,-37 62.25,-49 62.25,-49 62.25,-55 56.25,-61 50.25,-61 50.25,-61 12,-61 12,-61 6,-61 0,-55 0,-49 0,-49 0,-37 0,-37 0,-31 6,-25 12,-25"/>
<text xml:space="preserve" text-anchor="middle" x="9.88" y="-37.95" font-family="Times,serif" font-size="14.00"> </text>
<polyline fill="none" stroke="lightgray" points="19.75,-25 19.75,-61"/>
<text xml:space="preserve" text-anchor="middle" x="31.12" y="-37.95" font-family="Times,serif" font-size="14.00">5</text>
<polyline fill="none" stroke="lightgray" points="42.5,-25 42.5,-61"/>
<text xml:space="preserve" text-anchor="middle" x="52.38" y="-37.95" font-family="Times,serif" font-size="14.00"> </text>
</g>
<!-- 4495592704&#45;&gt;4495593488 -->
<g id="edge7" class="edge">
<title>4495592704:l&#45;&gt;4495593488:v</title>
<path fill="none" stroke="black" d="M62.5,-97.5C62.5,-80.92 43.35,-81.23 34.97,-72.04"/>
<polygon fill="black" stroke="black" points="38.36,-71.11 31.64,-62.92 31.79,-73.52 38.36,-71.11"/>
</g>
<!-- 4495592032 -->
<g id="node9" class="node">
<title>4495592032</title>
<path fill="lightgray" stroke="lightgray" d="M92,-25C92,-25 130.25,-25 130.25,-25 136.25,-25 142.25,-31 142.25,-37 142.25,-37 142.25,-49 142.25,-49 142.25,-55 136.25,-61 130.25,-61 130.25,-61 92,-61 92,-61 86,-61 80,-55 80,-49 80,-49 80,-37 80,-37 80,-31 86,-25 92,-25"/>
<text xml:space="preserve" text-anchor="middle" x="89.88" y="-37.95" font-family="Times,serif" font-size="14.00"> </text>
<polyline fill="none" stroke="lightgray" points="99.75,-25 99.75,-61"/>
<text xml:space="preserve" text-anchor="middle" x="111.12" y="-37.95" font-family="Times,serif" font-size="14.00">7</text>
<polyline fill="none" stroke="lightgray" points="122.5,-25 122.5,-61"/>
<text xml:space="preserve" text-anchor="middle" x="132.38" y="-37.95" font-family="Times,serif" font-size="14.00"> </text>
</g>
<!-- 4495592704&#45;&gt;4495592032 -->
<g id="edge8" class="edge">
<title>4495592704:r&#45;&gt;4495592032:v</title>
<path fill="none" stroke="black" d="M111.75,-97.5C111.75,-86.12 111.43,-80.82 111.25,-72.95"/>
<polygon fill="black" stroke="black" points="114.75,-72.97 111.14,-63.01 107.75,-73.05 114.75,-72.97"/>
</g>
<!-- 4495593936 -->
<g id="node10" class="node">
<title>4495593936</title>
<path fill="lightgray" stroke="lightgray" d="M172.62,-25C172.62,-25 217.62,-25 217.62,-25 223.62,-25 229.62,-31 229.62,-37 229.62,-37 229.62,-49 229.62,-49 229.62,-55 223.62,-61 217.62,-61 217.62,-61 172.62,-61 172.62,-61 166.62,-61 160.62,-55 160.62,-49 160.62,-49 160.62,-37 160.62,-37 160.62,-31 166.62,-25 172.62,-25"/>
<text xml:space="preserve" text-anchor="middle" x="170.5" y="-37.95" font-family="Times,serif" font-size="14.00"> </text>
<polyline fill="none" stroke="lightgray" points="180.38,-25 180.38,-61"/>
<text xml:space="preserve" text-anchor="middle" x="195.12" y="-37.95" font-family="Times,serif" font-size="14.00">12</text>
<polyline fill="none" stroke="lightgray" points="209.88,-25 209.88,-61"/>
<text xml:space="preserve" text-anchor="middle" x="219.75" y="-37.95" font-family="Times,serif" font-size="14.00"> </text>
</g>
<!-- 4495592480&#45;&gt;4495593936 -->
<g id="edge9" class="edge">
<title>4495592480:l&#45;&gt;4495593936:v</title>
<path fill="none" stroke="black" d="M212.5,-97.5C212.5,-84.31 202.93,-80.66 197.99,-72.38"/>
<polygon fill="black" stroke="black" points="201.44,-71.74 195.51,-62.96 194.68,-73.53 201.44,-71.74"/>
</g>
<!-- 4495592928 -->
<g id="node11" class="node">
<title>4495592928</title>
<path fill="lightgray" stroke="lightgray" d="M260,-25C260,-25 298.25,-25 298.25,-25 304.25,-25 310.25,-31 310.25,-37 310.25,-37 310.25,-49 310.25,-49 310.25,-55 304.25,-61 298.25,-61 298.25,-61 260,-61 260,-61 254,-61 248,-55 248,-49 248,-49 248,-37 248,-37 248,-31 254,-25 260,-25"/>
<text xml:space="preserve" text-anchor="middle" x="257.88" y="-37.95" font-family="Times,serif" font-size="14.00"> </text>
<polyline fill="none" stroke="lightgray" points="267.75,-25 267.75,-61"/>
<text xml:space="preserve" text-anchor="middle" x="279.12" y="-37.95" font-family="Times,serif" font-size="14.00">4</text>
<polyline fill="none" stroke="lightgray" points="290.5,-25 290.5,-61"/>
<text xml:space="preserve" text-anchor="middle" x="300.38" y="-37.95" font-family="Times,serif" font-size="14.00"> </text>
</g>
<!-- 4495592480&#45;&gt;4495592928 -->
<g id="edge10" class="edge">
<title>4495592480:r&#45;&gt;4495592928:v</title>
<path fill="none" stroke="black" d="M261.75,-97.5C261.75,-84.31 271.32,-80.66 276.26,-72.38"/>
<polygon fill="black" stroke="black" points="279.57,-73.53 278.74,-62.96 272.81,-71.74 279.57,-73.53"/>
</g>
<!-- 4495593600 -->
<g id="node12" class="node">
<title>4495593600</title>
<path fill="lightgray" stroke="lightgray" d="M340,-25C340,-25 378.25,-25 378.25,-25 384.25,-25 390.25,-31 390.25,-37 390.25,-37 390.25,-49 390.25,-49 390.25,-55 384.25,-61 378.25,-61 378.25,-61 340,-61 340,-61 334,-61 328,-55 328,-49 328,-49 328,-37 328,-37 328,-31 334,-25 340,-25"/>
<text xml:space="preserve" text-anchor="middle" x="337.88" y="-37.95" font-family="Times,serif" font-size="14.00"> </text>
<polyline fill="none" stroke="lightgray" points="347.75,-25 347.75,-61"/>
<text xml:space="preserve" text-anchor="middle" x="359.12" y="-37.95" font-family="Times,serif" font-size="14.00">8</text>
<polyline fill="none" stroke="lightgray" points="370.5,-25 370.5,-61"/>
<text xml:space="preserve" text-anchor="middle" x="380.38" y="-37.95" font-family="Times,serif" font-size="14.00"> </text>
</g>
<!-- 4495593824&#45;&gt;4495593600 -->
<g id="edge11" class="edge">
<title>4495593824:l&#45;&gt;4495593600:v</title>
<path fill="none" stroke="black" d="M396.88,-97.5C396.88,-79.03 372.9,-81.86 363.16,-72.04"/>
<polygon fill="black" stroke="black" points="366.51,-71 359.67,-62.91 359.98,-73.5 366.51,-71"/>
</g>
<!-- 4495593152 -->
<g id="node13" class="node">
<title>4495593152</title>
<path fill="lightgray" stroke="green" d="M420,-25C420,-25 458.25,-25 458.25,-25 464.25,-25 470.25,-31 470.25,-37 470.25,-37 470.25,-49 470.25,-49 470.25,-55 464.25,-61 458.25,-61 458.25,-61 420,-61 420,-61 414,-61 408,-55 408,-49 408,-49 408,-37 408,-37 408,-31 414,-25 420,-25"/>
<text xml:space="preserve" text-anchor="middle" x="417.88" y="-37.95" font-family="Times,serif" font-size="14.00"> </text>
<polyline fill="none" stroke="green" points="427.75,-25 427.75,-61"/>
<text xml:space="preserve" text-anchor="middle" x="439.12" y="-37.95" font-family="Times,serif" font-size="14.00">3</text>
<polyline fill="none" stroke="green" points="450.5,-25 450.5,-61"/>
<text xml:space="preserve" text-anchor="middle" x="460.38" y="-37.95" font-family="Times,serif" font-size="14.00"> </text>
</g>
<!-- 4495593824&#45;&gt;4495593152 -->
<g id="edge12" class="edge">
<title>4495593824:r&#45;&gt;4495593152:v</title>
<path fill="none" stroke="black" d="M439.38,-97.5C439.38,-86.12 439.25,-80.82 439.18,-72.95"/>
<polygon fill="black" stroke="black" points="442.68,-73 439.13,-63.01 435.68,-73.03 442.68,-73"/>
</g>
<!-- 4495593712 -->
<g id="node14" class="node">
<title>4495593712</title>
<path fill="lightgray" stroke="lightgray" d="M500,-25C500,-25 538.25,-25 538.25,-25 544.25,-25 550.25,-31 550.25,-37 550.25,-37 550.25,-49 550.25,-49 550.25,-55 544.25,-61 538.25,-61 538.25,-61 500,-61 500,-61 494,-61 488,-55 488,-49 488,-49 488,-37 488,-37 488,-31 494,-25 500,-25"/>
<text xml:space="preserve" text-anchor="middle" x="497.88" y="-37.95" font-family="Times,serif" font-size="14.00"> </text>
<polyline fill="none" stroke="lightgray" points="507.75,-25 507.75,-61"/>
<text xml:space="preserve" text-anchor="middle" x="519.12" y="-37.95" font-family="Times,serif" font-size="14.00">0</text>
<polyline fill="none" stroke="lightgray" points="530.5,-25 530.5,-61"/>
<text xml:space="preserve" text-anchor="middle" x="540.38" y="-37.95" font-family="Times,serif" font-size="14.00"> </text>
</g>
<!-- 4495593376&#45;&gt;4495593712 -->
<g id="edge13" class="edge">
<title>4495593376:l&#45;&gt;4495593712:v</title>
<path fill="none" stroke="black" d="M497.88,-97.5C497.88,-83.57 509.83,-80.73 515.8,-72.35"/>
<polygon fill="black" stroke="black" points="519.1,-73.53 518.68,-62.95 512.41,-71.49 519.1,-73.53"/>
</g>
<!-- 4495593152&#45;&gt;4495593824 -->
<g id="edge14" class="edge">
<title>4495593152&#45;&gt;4495593824</title>
<path fill="none" stroke="green" d="M434.09,-61.03C431.8,-68.77 429.03,-78.13 426.44,-86.87"/>
<polygon fill="green" stroke="green" points="423.12,-85.78 423.64,-96.36 429.83,-87.76 423.12,-85.78"/>
</g>
</g>
</svg>
