<?xml version="1.0" encoding="UTF-8" standalone="no"?>
<!DOCTYPE svg PUBLIC "-//W3C//DTD SVG 1.1//EN"
 "http://www.w3.org/Graphics/SVG/1.1/DTD/svg11.dtd">
<!-- Generated by graphviz version 14.0.0 (20250921.2048)
 -->
<!-- Pages: 1 -->
<svg width="360pt" height="289pt"
 viewBox="0.00 0.00 360.00 289.00" xmlns="http://www.w3.org/2000/svg" xmlns:xlink="http://www.w3.org/1999/xlink">
<g id="graph0" class="graph" transform="scale(1 1) rotate(0) translate(4 284.5)">
<polygon fill="white" stroke="none" points="-4,4 -4,-284.5 356.25,-284.5 356.25,4 -4,4"/>
<text xml:space="preserve" text-anchor="middle" x="176.12" y="-7.2" font-family="Times,serif" font-size="14.00">MaxHeap [22, 10, 19, 9, 3, 17, 6, 5, 84], heapsize: 8</text>
<!-- 4495603120 -->
<g id="node1" class="node">
<title>4495603120</title>
<path fill="lightgray" stroke="lightgray" d="M164.62,-244C164.62,-244 209.62,-244 209.62,-244 215.62,-244 221.62,-250 221.62,-256 221.62,-256 221.62,-268 221.62,-268 221.62,-274 215.62,-280 209.62,-280 209.62,-280 164.62,-280 164.62,-280 158.62,-280 152.62,-274 152.62,-268 152.62,-268 152.62,-256 152.62,-256 152.62,-250 158.62,-244 164.62,-244"/>
<text xml:space="preserve" text-anchor="middle" x="162.5" y="-256.95" font-family="Times,serif" font-size="14.00"> </text>
<polyline fill="none" stroke="lightgray" points="172.38,-244 172.38,-280"/>
<text xml:space="preserve" text-anchor="middle" x="187.12" y="-256.95" font-family="Times,serif" font-size="14.00">22</text>
<polyline fill="none" stroke="lightgray" points="201.88,-244 201.88,-280"/>
<text xml:space="preserve" text-anchor="middle" x="211.75" y="-256.95" font-family="Times,serif" font-size="14.00"> </text>
</g>
<!-- 4495600096 -->
<g id="node2" class="node">
<title>4495600096</title>
<path fill="lightgray" stroke="green" d="M90.62,-171C90.62,-171 135.62,-171 135.62,-171 141.62,-171 147.62,-177 147.62,-183 147.62,-183 147.62,-195 147.62,-195 147.62,-201 141.62,-207 135.62,-207 135.62,-207 90.62,-207 90.62,-207 84.62,-207 78.62,-201 78.62,-195 78.62,-195 78.62,-183 78.62,-183 78.62,-177 84.62,-171 90.62,-171"/>
<text xml:space="preserve" text-anchor="middle" x="88.5" y="-183.95" font-family="Times,serif" font-size="14.00"> </text>
<polyline fill="none" stroke="green" points="98.38,-171 98.38,-207"/>
<text xml:space="preserve" text-anchor="middle" x="113.12" y="-183.95" font-family="Times,serif" font-size="14.00">10</text>
<polyline fill="none" stroke="green" points="127.88,-171 127.88,-207"/>
<text xml:space="preserve" text-anchor="middle" x="137.75" y="-183.95" font-family="Times,serif" font-size="14.00"> </text>
</g>
<!-- 4495603120&#45;&gt;4495600096 -->
<g id="edge1" class="edge">
<title>4495603120:l&#45;&gt;4495600096:v</title>
<path fill="none" stroke="black" d="M162.5,-243.5C162.5,-221.01 128.64,-229.71 117,-217.94"/>
<polygon fill="black" stroke="black" points="120.41,-217.08 113.65,-208.92 113.85,-219.51 120.41,-217.08"/>
</g>
<!-- 4495601552 -->
<g id="node3" class="node">
<title>4495601552</title>
<path fill="lightgray" stroke="lightgray" d="M238.62,-171C238.62,-171 283.62,-171 283.62,-171 289.62,-171 295.62,-177 295.62,-183 295.62,-183 295.62,-195 295.62,-195 295.62,-201 289.62,-207 283.62,-207 283.62,-207 238.62,-207 238.62,-207 232.62,-207 226.62,-201 226.62,-195 226.62,-195 226.62,-183 226.62,-183 226.62,-177 232.62,-171 238.62,-171"/>
<text xml:space="preserve" text-anchor="middle" x="236.5" y="-183.95" font-family="Times,serif" font-size="14.00"> </text>
<polyline fill="none" stroke="lightgray" points="246.38,-171 246.38,-207"/>
<text xml:space="preserve" text-anchor="middle" x="261.12" y="-183.95" font-family="Times,serif" font-size="14.00">19</text>
<polyline fill="none" stroke="lightgray" points="275.88,-171 275.88,-207"/>
<text xml:space="preserve" text-anchor="middle" x="285.75" y="-183.95" font-family="Times,serif" font-size="14.00"> </text>
</g>
<!-- 4495603120&#45;&gt;4495601552 -->
<g id="edge2" class="edge">
<title>4495603120:r&#45;&gt;4495601552:v</title>
<path fill="none" stroke="black" d="M211.75,-243.5C211.75,-221.01 245.61,-229.71 257.25,-217.94"/>
<polygon fill="black" stroke="black" points="260.4,-219.51 260.6,-208.92 253.84,-217.08 260.4,-219.51"/>
</g>
<!-- 4495602000 -->
<g id="node4" class="node">
<title>4495602000</title>
<path fill="lightgray" stroke="green" d="M54,-98C54,-98 92.25,-98 92.25,-98 98.25,-98 104.25,-104 104.25,-110 104.25,-110 104.25,-122 104.25,-122 104.25,-128 98.25,-134 92.25,-134 92.25,-134 54,-134 54,-134 48,-134 42,-128 42,-122 42,-122 42,-110 42,-110 42,-104 48,-98 54,-98"/>
<text xml:space="preserve" text-anchor="middle" x="51.88" y="-110.95" font-family="Times,serif" font-size="14.00"> </text>
<polyline fill="none" stroke="green" points="61.75,-98 61.75,-134"/>
<text xml:space="preserve" text-anchor="middle" x="73.12" y="-110.95" font-family="Times,serif" font-size="14.00">9</text>
<polyline fill="none" stroke="green" points="84.5,-98 84.5,-134"/>
<text xml:space="preserve" text-anchor="middle" x="94.38" y="-110.95" font-family="Times,serif" font-size="14.00"> </text>
</g>
<!-- 4495600096&#45;&gt;4495602000 -->
<g id="edge3" class="edge">
<title>4495600096:l&#45;&gt;4495602000:v</title>
<path fill="none" stroke="black" d="M88.5,-170.5C88.5,-157.72 80.21,-153.68 75.8,-145.54"/>
<polygon fill="black" stroke="black" points="79.24,-144.86 73.48,-135.97 72.44,-146.51 79.24,-144.86"/>
</g>
<!-- 4495597968 -->
<g id="node5" class="node">
<title>4495597968</title>
<path fill="lightgray" stroke="lightgray" d="M134,-98C134,-98 172.25,-98 172.25,-98 178.25,-98 184.25,-104 184.25,-110 184.25,-110 184.25,-122 184.25,-122 184.25,-128 178.25,-134 172.25,-134 172.25,-134 134,-134 134,-134 128,-134 122,-128 122,-122 122,-122 122,-110 122,-110 122,-104 128,-98 134,-98"/>
<text xml:space="preserve" text-anchor="middle" x="131.88" y="-110.95" font-family="Times,serif" font-size="14.00"> </text>
<polyline fill="none" stroke="lightgray" points="141.75,-98 141.75,-134"/>
<text xml:space="preserve" text-anchor="middle" x="153.12" y="-110.95" font-family="Times,serif" font-size="14.00">3</text>
<polyline fill="none" stroke="lightgray" points="164.5,-98 164.5,-134"/>
<text xml:space="preserve" text-anchor="middle" x="174.38" y="-110.95" font-family="Times,serif" font-size="14.00"> </text>
</g>
<!-- 4495600096&#45;&gt;4495597968 -->
<g id="edge4" class="edge">
<title>4495600096:r&#45;&gt;4495597968:v</title>
<path fill="none" stroke="black" d="M137.75,-170.5C137.75,-157.72 146.04,-153.68 150.45,-145.54"/>
<polygon fill="black" stroke="black" points="153.81,-146.51 152.77,-135.97 147.01,-144.86 153.81,-146.51"/>
</g>
<!-- 4495593152 -->
<g id="node6" class="node">
<title>4495593152</title>
<path fill="lightgray" stroke="lightgray" d="M214.62,-98C214.62,-98 259.62,-98 259.62,-98 265.62,-98 271.62,-104 271.62,-110 271.62,-110 271.62,-122 271.62,-122 271.62,-128 265.62,-134 259.62,-134 259.62,-134 214.62,-134 214.62,-134 208.62,-134 202.62,-128 202.62,-122 202.62,-122 202.62,-110 202.62,-110 202.62,-104 208.62,-98 214.62,-98"/>
<text xml:space="preserve" text-anchor="middle" x="212.5" y="-110.95" font-family="Times,serif" font-size="14.00"> </text>
<polyline fill="none" stroke="lightgray" points="222.38,-98 222.38,-134"/>
<text xml:space="preserve" text-anchor="middle" x="237.12" y="-110.95" font-family="Times,serif" font-size="14.00">17</text>
<polyline fill="none" stroke="lightgray" points="251.88,-98 251.88,-134"/>
<text xml:space="preserve" text-anchor="middle" x="261.75" y="-110.95" font-family="Times,serif" font-size="14.00"> </text>
</g>
<!-- 4495601552&#45;&gt;4495593152 -->
<g id="edge5" class="edge">
<title>4495601552:l&#45;&gt;4495593152:v</title>
<path fill="none" stroke="black" d="M236.5,-170.5C236.5,-159.12 236.82,-153.82 237,-145.95"/>
<polygon fill="black" stroke="black" points="240.5,-146.05 237.11,-136.01 233.5,-145.97 240.5,-146.05"/>
</g>
<!-- 4495595056 -->
<g id="node7" class="node">
<title>4495595056</title>
<path fill="lightgray" stroke="lightgray" d="M302,-98C302,-98 340.25,-98 340.25,-98 346.25,-98 352.25,-104 352.25,-110 352.25,-110 352.25,-122 352.25,-122 352.25,-128 346.25,-134 340.25,-134 340.25,-134 302,-134 302,-134 296,-134 290,-128 290,-122 290,-122 290,-110 290,-110 290,-104 296,-98 302,-98"/>
<text xml:space="preserve" text-anchor="middle" x="299.88" y="-110.95" font-family="Times,serif" font-size="14.00"> </text>
<polyline fill="none" stroke="lightgray" points="309.75,-98 309.75,-134"/>
<text xml:space="preserve" text-anchor="middle" x="321.12" y="-110.95" font-family="Times,serif" font-size="14.00">6</text>
<polyline fill="none" stroke="lightgray" points="332.5,-98 332.5,-134"/>
<text xml:space="preserve" text-anchor="middle" x="342.38" y="-110.95" font-family="Times,serif" font-size="14.00"> </text>
</g>
<!-- 4495601552&#45;&gt;4495595056 -->
<g id="edge6" class="edge">
<title>4495601552:r&#45;&gt;4495595056:v</title>
<path fill="none" stroke="black" d="M285.75,-170.5C285.75,-152.8 307.78,-154.58 317.07,-145.11"/>
<polygon fill="black" stroke="black" points="320.28,-146.5 320.58,-135.91 313.74,-144 320.28,-146.5"/>
</g>
<!-- 4495602000&#45;&gt;4495600096 -->
<g id="edge9" class="edge">
<title>4495602000&#45;&gt;4495600096</title>
<path fill="none" stroke="green" d="M82.72,-134.03C87.28,-142.12 92.83,-151.98 97.94,-161.05"/>
<polygon fill="green" stroke="green" points="94.74,-162.5 102.7,-169.49 100.84,-159.06 94.74,-162.5"/>
</g>
<!-- 4495599312 -->
<g id="node8" class="node">
<title>4495599312</title>
<path fill="lightgray" stroke="lightgray" d="M12,-25C12,-25 50.25,-25 50.25,-25 56.25,-25 62.25,-31 62.25,-37 62.25,-37 62.25,-49 62.25,-49 62.25,-55 56.25,-61 50.25,-61 50.25,-61 12,-61 12,-61 6,-61 0,-55 0,-49 0,-49 0,-37 0,-37 0,-31 6,-25 12,-25"/>
<text xml:space="preserve" text-anchor="middle" x="9.88" y="-37.95" font-family="Times,serif" font-size="14.00"> </text>
<polyline fill="none" stroke="lightgray" points="19.75,-25 19.75,-61"/>
<text xml:space="preserve" text-anchor="middle" x="31.12" y="-37.95" font-family="Times,serif" font-size="14.00">5</text>
<polyline fill="none" stroke="lightgray" points="42.5,-25 42.5,-61"/>
<text xml:space="preserve" text-anchor="middle" x="52.38" y="-37.95" font-family="Times,serif" font-size="14.00"> </text>
</g>
<!-- 4495602000&#45;&gt;4495599312 -->
<g id="edge7" class="edge">
<title>4495602000:l&#45;&gt;4495599312:v</title>
<path fill="none" stroke="black" d="M51.88,-97.5C51.88,-83.65 40.2,-80.71 34.37,-72.32"/>
<polygon fill="black" stroke="black" points="37.78,-71.52 31.56,-62.95 31.08,-73.53 37.78,-71.52"/>
</g>
<!-- 4495598304 -->
<g id="node9" class="node">
<title>4495598304</title>
<path fill="lightgray" stroke="lightgray" d="M92.62,-25C92.62,-25 137.62,-25 137.62,-25 143.62,-25 149.62,-31 149.62,-37 149.62,-37 149.62,-49 149.62,-49 149.62,-55 143.62,-61 137.62,-61 137.62,-61 92.62,-61 92.62,-61 86.62,-61 80.62,-55 80.62,-49 80.62,-49 80.62,-37 80.62,-37 80.62,-31 86.62,-25 92.62,-25"/>
<text xml:space="preserve" text-anchor="middle" x="90.5" y="-37.95" font-family="Times,serif" font-size="14.00"> </text>
<polyline fill="none" stroke="lightgray" points="100.38,-25 100.38,-61"/>
<text xml:space="preserve" text-anchor="middle" x="115.12" y="-37.95" font-family="Times,serif" font-size="14.00">84</text>
<polyline fill="none" stroke="lightgray" points="129.88,-25 129.88,-61"/>
<text xml:space="preserve" text-anchor="middle" x="139.75" y="-37.95" font-family="Times,serif" font-size="14.00"> </text>
</g>
<!-- 4495602000&#45;&gt;4495598304 -->
<g id="edge8" class="edge">
<title>4495602000:r&#45;&gt;4495598304:v</title>
<path fill="none" stroke="black" d="M94.38,-97.5C94.38,-83.65 106.05,-80.71 111.88,-72.32"/>
<polygon fill="black" stroke="black" points="115.17,-73.53 114.69,-62.95 108.47,-71.52 115.17,-73.53"/>
</g>
</g>
</svg>
