<?xml version="1.0" encoding="UTF-8" standalone="no"?>
<!DOCTYPE svg PUBLIC "-//W3C//DTD SVG 1.1//EN"
 "http://www.w3.org/Graphics/SVG/1.1/DTD/svg11.dtd">
<!-- Generated by graphviz version 14.0.0 (20250921.2048)
 -->
<!-- Pages: 1 -->
<svg width="364pt" height="289pt"
 viewBox="0.00 0.00 364.00 289.00" xmlns="http://www.w3.org/2000/svg" xmlns:xlink="http://www.w3.org/1999/xlink">
<g id="graph0" class="graph" transform="scale(1 1) rotate(0) translate(4 284.5)">
<polygon fill="white" stroke="none" points="-4,4 -4,-284.5 359.62,-284.5 359.62,4 -4,4"/>
<text xml:space="preserve" text-anchor="middle" x="177.81" y="-7.2" font-family="Times,serif" font-size="14.00">MaxHeap [84, 22, 19, 5, 3, 17, 6, 10, 9], heapsize: 9</text>
<!-- 4495602000 -->
<g id="node1" class="node">
<title>4495602000</title>
<path fill="lightgray" stroke="lightgray" d="M168,-244C168,-244 213,-244 213,-244 219,-244 225,-250 225,-256 225,-256 225,-268 225,-268 225,-274 219,-280 213,-280 213,-280 168,-280 168,-280 162,-280 156,-274 156,-268 156,-268 156,-256 156,-256 156,-250 162,-244 168,-244"/>
<text xml:space="preserve" text-anchor="middle" x="165.88" y="-256.95" font-family="Times,serif" font-size="14.00"> </text>
<polyline fill="none" stroke="lightgray" points="175.75,-244 175.75,-280"/>
<text xml:space="preserve" text-anchor="middle" x="190.5" y="-256.95" font-family="Times,serif" font-size="14.00">84</text>
<polyline fill="none" stroke="lightgray" points="205.25,-244 205.25,-280"/>
<text xml:space="preserve" text-anchor="middle" x="215.12" y="-256.95" font-family="Times,serif" font-size="14.00"> </text>
</g>
<!-- 4495600096 -->
<g id="node2" class="node">
<title>4495600096</title>
<path fill="lightgray" stroke="green" d="M94,-171C94,-171 139,-171 139,-171 145,-171 151,-177 151,-183 151,-183 151,-195 151,-195 151,-201 145,-207 139,-207 139,-207 94,-207 94,-207 88,-207 82,-201 82,-195 82,-195 82,-183 82,-183 82,-177 88,-171 94,-171"/>
<text xml:space="preserve" text-anchor="middle" x="91.88" y="-183.95" font-family="Times,serif" font-size="14.00"> </text>
<polyline fill="none" stroke="green" points="101.75,-171 101.75,-207"/>
<text xml:space="preserve" text-anchor="middle" x="116.5" y="-183.95" font-family="Times,serif" font-size="14.00">22</text>
<polyline fill="none" stroke="green" points="131.25,-171 131.25,-207"/>
<text xml:space="preserve" text-anchor="middle" x="141.12" y="-183.95" font-family="Times,serif" font-size="14.00"> </text>
</g>
<!-- 4495602000&#45;&gt;4495600096 -->
<g id="edge1" class="edge">
<title>4495602000:l&#45;&gt;4495600096:v</title>
<path fill="none" stroke="black" d="M165.88,-243.5C165.88,-221.01 132.01,-229.71 120.37,-217.94"/>
<polygon fill="black" stroke="black" points="123.79,-217.08 117.03,-208.92 117.23,-219.51 123.79,-217.08"/>
</g>
<!-- 4495595056 -->
<g id="node3" class="node">
<title>4495595056</title>
<path fill="lightgray" stroke="lightgray" d="M242,-171C242,-171 287,-171 287,-171 293,-171 299,-177 299,-183 299,-183 299,-195 299,-195 299,-201 293,-207 287,-207 287,-207 242,-207 242,-207 236,-207 230,-201 230,-195 230,-195 230,-183 230,-183 230,-177 236,-171 242,-171"/>
<text xml:space="preserve" text-anchor="middle" x="239.88" y="-183.95" font-family="Times,serif" font-size="14.00"> </text>
<polyline fill="none" stroke="lightgray" points="249.75,-171 249.75,-207"/>
<text xml:space="preserve" text-anchor="middle" x="264.5" y="-183.95" font-family="Times,serif" font-size="14.00">19</text>
<polyline fill="none" stroke="lightgray" points="279.25,-171 279.25,-207"/>
<text xml:space="preserve" text-anchor="middle" x="289.12" y="-183.95" font-family="Times,serif" font-size="14.00"> </text>
</g>
<!-- 4495602000&#45;&gt;4495595056 -->
<g id="edge2" class="edge">
<title>4495602000:r&#45;&gt;4495595056:v</title>
<path fill="none" stroke="black" d="M215.12,-243.5C215.12,-221.01 248.99,-229.71 260.63,-217.94"/>
<polygon fill="black" stroke="black" points="263.77,-219.51 263.97,-208.92 257.21,-217.08 263.77,-219.51"/>
</g>
<!-- 4495591920 -->
<g id="node4" class="node">
<title>4495591920</title>
<path fill="lightgray" stroke="green" d="M57.38,-98C57.38,-98 95.62,-98 95.62,-98 101.62,-98 107.62,-104 107.62,-110 107.62,-110 107.62,-122 107.62,-122 107.62,-128 101.62,-134 95.62,-134 95.62,-134 57.38,-134 57.38,-134 51.38,-134 45.38,-128 45.38,-122 45.38,-122 45.38,-110 45.38,-110 45.38,-104 51.38,-98 57.38,-98"/>
<text xml:space="preserve" text-anchor="middle" x="55.25" y="-110.95" font-family="Times,serif" font-size="14.00"> </text>
<polyline fill="none" stroke="green" points="65.12,-98 65.12,-134"/>
<text xml:space="preserve" text-anchor="middle" x="76.5" y="-110.95" font-family="Times,serif" font-size="14.00">5</text>
<polyline fill="none" stroke="green" points="87.88,-98 87.88,-134"/>
<text xml:space="preserve" text-anchor="middle" x="97.75" y="-110.95" font-family="Times,serif" font-size="14.00"> </text>
</g>
<!-- 4495600096&#45;&gt;4495591920 -->
<g id="edge3" class="edge">
<title>4495600096:l&#45;&gt;4495591920:v</title>
<path fill="none" stroke="black" d="M91.88,-170.5C91.88,-157.72 83.58,-153.68 79.18,-145.54"/>
<polygon fill="black" stroke="black" points="82.61,-144.86 76.86,-135.97 75.81,-146.51 82.61,-144.86"/>
</g>
<!-- 4495598304 -->
<g id="node5" class="node">
<title>4495598304</title>
<path fill="lightgray" stroke="lightgray" d="M137.38,-98C137.38,-98 175.62,-98 175.62,-98 181.62,-98 187.62,-104 187.62,-110 187.62,-110 187.62,-122 187.62,-122 187.62,-128 181.62,-134 175.62,-134 175.62,-134 137.38,-134 137.38,-134 131.38,-134 125.38,-128 125.38,-122 125.38,-122 125.38,-110 125.38,-110 125.38,-104 131.38,-98 137.38,-98"/>
<text xml:space="preserve" text-anchor="middle" x="135.25" y="-110.95" font-family="Times,serif" font-size="14.00"> </text>
<polyline fill="none" stroke="lightgray" points="145.12,-98 145.12,-134"/>
<text xml:space="preserve" text-anchor="middle" x="156.5" y="-110.95" font-family="Times,serif" font-size="14.00">3</text>
<polyline fill="none" stroke="lightgray" points="167.88,-98 167.88,-134"/>
<text xml:space="preserve" text-anchor="middle" x="177.75" y="-110.95" font-family="Times,serif" font-size="14.00"> </text>
</g>
<!-- 4495600096&#45;&gt;4495598304 -->
<g id="edge4" class="edge">
<title>4495600096:r&#45;&gt;4495598304:v</title>
<path fill="none" stroke="black" d="M141.12,-170.5C141.12,-157.72 149.42,-153.68 153.82,-145.54"/>
<polygon fill="black" stroke="black" points="157.19,-146.51 156.14,-135.97 150.39,-144.86 157.19,-146.51"/>
</g>
<!-- 4495599312 -->
<g id="node6" class="node">
<title>4495599312</title>
<path fill="lightgray" stroke="lightgray" d="M218,-98C218,-98 263,-98 263,-98 269,-98 275,-104 275,-110 275,-110 275,-122 275,-122 275,-128 269,-134 263,-134 263,-134 218,-134 218,-134 212,-134 206,-128 206,-122 206,-122 206,-110 206,-110 206,-104 212,-98 218,-98"/>
<text xml:space="preserve" text-anchor="middle" x="215.88" y="-110.95" font-family="Times,serif" font-size="14.00"> </text>
<polyline fill="none" stroke="lightgray" points="225.75,-98 225.75,-134"/>
<text xml:space="preserve" text-anchor="middle" x="240.5" y="-110.95" font-family="Times,serif" font-size="14.00">17</text>
<polyline fill="none" stroke="lightgray" points="255.25,-98 255.25,-134"/>
<text xml:space="preserve" text-anchor="middle" x="265.12" y="-110.95" font-family="Times,serif" font-size="14.00"> </text>
</g>
<!-- 4495595056&#45;&gt;4495599312 -->
<g id="edge5" class="edge">
<title>4495595056:l&#45;&gt;4495599312:v</title>
<path fill="none" stroke="black" d="M239.88,-170.5C239.88,-159.12 240.19,-153.82 240.37,-145.95"/>
<polygon fill="black" stroke="black" points="243.87,-146.05 240.48,-136.01 236.87,-145.97 243.87,-146.05"/>
</g>
<!-- 4495593152 -->
<g id="node7" class="node">
<title>4495593152</title>
<path fill="lightgray" stroke="lightgray" d="M305.38,-98C305.38,-98 343.62,-98 343.62,-98 349.62,-98 355.62,-104 355.62,-110 355.62,-110 355.62,-122 355.62,-122 355.62,-128 349.62,-134 343.62,-134 343.62,-134 305.38,-134 305.38,-134 299.38,-134 293.38,-128 293.38,-122 293.38,-122 293.38,-110 293.38,-110 293.38,-104 299.38,-98 305.38,-98"/>
<text xml:space="preserve" text-anchor="middle" x="303.25" y="-110.95" font-family="Times,serif" font-size="14.00"> </text>
<polyline fill="none" stroke="lightgray" points="313.12,-98 313.12,-134"/>
<text xml:space="preserve" text-anchor="middle" x="324.5" y="-110.95" font-family="Times,serif" font-size="14.00">6</text>
<polyline fill="none" stroke="lightgray" points="335.88,-98 335.88,-134"/>
<text xml:space="preserve" text-anchor="middle" x="345.75" y="-110.95" font-family="Times,serif" font-size="14.00"> </text>
</g>
<!-- 4495595056&#45;&gt;4495593152 -->
<g id="edge6" class="edge">
<title>4495595056:r&#45;&gt;4495593152:v</title>
<path fill="none" stroke="black" d="M289.12,-170.5C289.12,-152.8 311.15,-154.58 320.44,-145.11"/>
<polygon fill="black" stroke="black" points="323.65,-146.5 323.96,-135.91 317.12,-144 323.65,-146.5"/>
</g>
<!-- 4495591920&#45;&gt;4495600096 -->
<g id="edge9" class="edge">
<title>4495591920&#45;&gt;4495600096</title>
<path fill="none" stroke="green" d="M86.09,-134.03C90.65,-142.12 96.21,-151.98 101.31,-161.05"/>
<polygon fill="green" stroke="green" points="98.12,-162.5 106.07,-169.49 104.22,-159.06 98.12,-162.5"/>
</g>
<!-- 4495591472 -->
<g id="node8" class="node">
<title>4495591472</title>
<path fill="lightgray" stroke="lightgray" d="M12,-25C12,-25 57,-25 57,-25 63,-25 69,-31 69,-37 69,-37 69,-49 69,-49 69,-55 63,-61 57,-61 57,-61 12,-61 12,-61 6,-61 0,-55 0,-49 0,-49 0,-37 0,-37 0,-31 6,-25 12,-25"/>
<text xml:space="preserve" text-anchor="middle" x="9.88" y="-37.95" font-family="Times,serif" font-size="14.00"> </text>
<polyline fill="none" stroke="lightgray" points="19.75,-25 19.75,-61"/>
<text xml:space="preserve" text-anchor="middle" x="34.5" y="-37.95" font-family="Times,serif" font-size="14.00">10</text>
<polyline fill="none" stroke="lightgray" points="49.25,-25 49.25,-61"/>
<text xml:space="preserve" text-anchor="middle" x="59.12" y="-37.95" font-family="Times,serif" font-size="14.00"> </text>
</g>
<!-- 4495591920&#45;&gt;4495591472 -->
<g id="edge7" class="edge">
<title>4495591920:l&#45;&gt;4495591472:v</title>
<path fill="none" stroke="black" d="M55.25,-97.5C55.25,-83.65 43.58,-80.71 37.74,-72.32"/>
<polygon fill="black" stroke="black" points="41.16,-71.52 34.93,-62.95 34.45,-73.53 41.16,-71.52"/>
</g>
<!-- 4495595504 -->
<g id="node9" class="node">
<title>4495595504</title>
<path fill="lightgray" stroke="lightgray" d="M99.38,-25C99.38,-25 137.62,-25 137.62,-25 143.62,-25 149.62,-31 149.62,-37 149.62,-37 149.62,-49 149.62,-49 149.62,-55 143.62,-61 137.62,-61 137.62,-61 99.38,-61 99.38,-61 93.38,-61 87.38,-55 87.38,-49 87.38,-49 87.38,-37 87.38,-37 87.38,-31 93.38,-25 99.38,-25"/>
<text xml:space="preserve" text-anchor="middle" x="97.25" y="-37.95" font-family="Times,serif" font-size="14.00"> </text>
<polyline fill="none" stroke="lightgray" points="107.12,-25 107.12,-61"/>
<text xml:space="preserve" text-anchor="middle" x="118.5" y="-37.95" font-family="Times,serif" font-size="14.00">9</text>
<polyline fill="none" stroke="lightgray" points="129.88,-25 129.88,-61"/>
<text xml:space="preserve" text-anchor="middle" x="139.75" y="-37.95" font-family="Times,serif" font-size="14.00"> </text>
</g>
<!-- 4495591920&#45;&gt;4495595504 -->
<g id="edge8" class="edge">
<title>4495591920:r&#45;&gt;4495595504:v</title>
<path fill="none" stroke="black" d="M97.75,-97.5C97.75,-83.65 109.42,-80.71 115.26,-72.32"/>
<polygon fill="black" stroke="black" points="118.55,-73.53 118.07,-62.95 111.84,-71.52 118.55,-73.53"/>
</g>
</g>
</svg>
