<?xml version="1.0" encoding="UTF-8" standalone="no"?>
<!DOCTYPE svg PUBLIC "-//W3C//DTD SVG 1.1//EN"
 "http://www.w3.org/Graphics/SVG/1.1/DTD/svg11.dtd">
<!-- Generated by graphviz version 14.0.0 (20250921.2048)
 -->
<!-- Pages: 1 -->
<svg width="364pt" height="289pt"
 viewBox="0.00 0.00 364.00 289.00" xmlns="http://www.w3.org/2000/svg" xmlns:xlink="http://www.w3.org/1999/xlink">
<g id="graph0" class="graph" transform="scale(1 1) rotate(0) translate(4 284.5)">
<polygon fill="white" stroke="none" points="-4,4 -4,-284.5 359.62,-284.5 359.62,4 -4,4"/>
<text xml:space="preserve" text-anchor="middle" x="177.81" y="-7.2" font-family="Times,serif" font-size="14.00">MaxHeap [84, 22, 19, 5, 3, 17, 6, 10, 9], heapsize: 9</text>
<!-- 4534522544 -->
<g id="node1" class="node">
<title>4534522544</title>
<path fill="lightgray" stroke="lightgray" d="M176,-244C176,-244 221,-244 221,-244 227,-244 233,-250 233,-256 233,-256 233,-268 233,-268 233,-274 227,-280 221,-280 221,-280 176,-280 176,-280 170,-280 164,-274 164,-268 164,-268 164,-256 164,-256 164,-250 170,-244 176,-244"/>
<text xml:space="preserve" text-anchor="middle" x="173.88" y="-256.95" font-family="Times,serif" font-size="14.00"> </text>
<polyline fill="none" stroke="lightgray" points="183.75,-244 183.75,-280"/>
<text xml:space="preserve" text-anchor="middle" x="198.5" y="-256.95" font-family="Times,serif" font-size="14.00">84</text>
<polyline fill="none" stroke="lightgray" points="213.25,-244 213.25,-280"/>
<text xml:space="preserve" text-anchor="middle" x="223.12" y="-256.95" font-family="Times,serif" font-size="14.00"> </text>
</g>
<!-- 4534521984 -->
<g id="node2" class="node">
<title>4534521984</title>
<path fill="lightgray" stroke="green" d="M110,-171C110,-171 155,-171 155,-171 161,-171 167,-177 167,-183 167,-183 167,-195 167,-195 167,-201 161,-207 155,-207 155,-207 110,-207 110,-207 104,-207 98,-201 98,-195 98,-195 98,-183 98,-183 98,-177 104,-171 110,-171"/>
<text xml:space="preserve" text-anchor="middle" x="107.88" y="-183.95" font-family="Times,serif" font-size="14.00"> </text>
<polyline fill="none" stroke="green" points="117.75,-171 117.75,-207"/>
<text xml:space="preserve" text-anchor="middle" x="132.5" y="-183.95" font-family="Times,serif" font-size="14.00">22</text>
<polyline fill="none" stroke="green" points="147.25,-171 147.25,-207"/>
<text xml:space="preserve" text-anchor="middle" x="157.12" y="-183.95" font-family="Times,serif" font-size="14.00"> </text>
</g>
<!-- 4534522544&#45;&gt;4534521984 -->
<g id="edge1" class="edge">
<title>4534522544:l&#45;&gt;4534521984:v</title>
<path fill="none" stroke="black" d="M173.88,-243.5C173.88,-223.89 147.08,-228.31 136.62,-218.09"/>
<polygon fill="black" stroke="black" points="139.94,-216.96 133.05,-208.91 133.41,-219.5 139.94,-216.96"/>
</g>
<!-- 4534529488 -->
<g id="node3" class="node">
<title>4534529488</title>
<path fill="lightgray" stroke="lightgray" d="M242,-171C242,-171 287,-171 287,-171 293,-171 299,-177 299,-183 299,-183 299,-195 299,-195 299,-201 293,-207 287,-207 287,-207 242,-207 242,-207 236,-207 230,-201 230,-195 230,-195 230,-183 230,-183 230,-177 236,-171 242,-171"/>
<text xml:space="preserve" text-anchor="middle" x="239.88" y="-183.95" font-family="Times,serif" font-size="14.00"> </text>
<polyline fill="none" stroke="lightgray" points="249.75,-171 249.75,-207"/>
<text xml:space="preserve" text-anchor="middle" x="264.5" y="-183.95" font-family="Times,serif" font-size="14.00">19</text>
<polyline fill="none" stroke="lightgray" points="279.25,-171 279.25,-207"/>
<text xml:space="preserve" text-anchor="middle" x="289.12" y="-183.95" font-family="Times,serif" font-size="14.00"> </text>
</g>
<!-- 4534522544&#45;&gt;4534529488 -->
<g id="edge2" class="edge">
<title>4534522544:r&#45;&gt;4534529488:v</title>
<path fill="none" stroke="black" d="M223.12,-243.5C223.12,-223.89 249.92,-228.31 260.38,-218.09"/>
<polygon fill="black" stroke="black" points="263.59,-219.5 263.95,-208.91 257.06,-216.96 263.59,-219.5"/>
</g>
<!-- 4534523216 -->
<g id="node4" class="node">
<title>4534523216</title>
<path fill="lightgray" stroke="green" d="M57.38,-98C57.38,-98 95.62,-98 95.62,-98 101.62,-98 107.62,-104 107.62,-110 107.62,-110 107.62,-122 107.62,-122 107.62,-128 101.62,-134 95.62,-134 95.62,-134 57.38,-134 57.38,-134 51.38,-134 45.38,-128 45.38,-122 45.38,-122 45.38,-110 45.38,-110 45.38,-104 51.38,-98 57.38,-98"/>
<text xml:space="preserve" text-anchor="middle" x="55.25" y="-110.95" font-family="Times,serif" font-size="14.00"> </text>
<polyline fill="none" stroke="green" points="65.12,-98 65.12,-134"/>
<text xml:space="preserve" text-anchor="middle" x="76.5" y="-110.95" font-family="Times,serif" font-size="14.00">5</text>
<polyline fill="none" stroke="green" points="87.88,-98 87.88,-134"/>
<text xml:space="preserve" text-anchor="middle" x="97.75" y="-110.95" font-family="Times,serif" font-size="14.00"> </text>
</g>
<!-- 4534521984&#45;&gt;4534523216 -->
<g id="edge3" class="edge">
<title>4534521984:l&#45;&gt;4534523216:v</title>
<path fill="none" stroke="black" d="M107.88,-170.5C107.88,-153.92 88.73,-154.23 80.35,-145.04"/>
<polygon fill="black" stroke="black" points="83.74,-144.11 77.02,-135.92 77.16,-146.52 83.74,-144.11"/>
</g>
<!-- 4534518624 -->
<g id="node5" class="node">
<title>4534518624</title>
<path fill="lightgray" stroke="lightgray" d="M137.38,-98C137.38,-98 175.62,-98 175.62,-98 181.62,-98 187.62,-104 187.62,-110 187.62,-110 187.62,-122 187.62,-122 187.62,-128 181.62,-134 175.62,-134 175.62,-134 137.38,-134 137.38,-134 131.38,-134 125.38,-128 125.38,-122 125.38,-122 125.38,-110 125.38,-110 125.38,-104 131.38,-98 137.38,-98"/>
<text xml:space="preserve" text-anchor="middle" x="135.25" y="-110.95" font-family="Times,serif" font-size="14.00"> </text>
<polyline fill="none" stroke="lightgray" points="145.12,-98 145.12,-134"/>
<text xml:space="preserve" text-anchor="middle" x="156.5" y="-110.95" font-family="Times,serif" font-size="14.00">3</text>
<polyline fill="none" stroke="lightgray" points="167.88,-98 167.88,-134"/>
<text xml:space="preserve" text-anchor="middle" x="177.75" y="-110.95" font-family="Times,serif" font-size="14.00"> </text>
</g>
<!-- 4534521984&#45;&gt;4534518624 -->
<g id="edge4" class="edge">
<title>4534521984:r&#45;&gt;4534518624:v</title>
<path fill="none" stroke="black" d="M157.12,-170.5C157.12,-159.12 156.81,-153.82 156.63,-145.95"/>
<polygon fill="black" stroke="black" points="160.13,-145.97 156.52,-136.01 153.13,-146.05 160.13,-145.97"/>
</g>
<!-- 4534529600 -->
<g id="node6" class="node">
<title>4534529600</title>
<path fill="lightgray" stroke="lightgray" d="M218,-98C218,-98 263,-98 263,-98 269,-98 275,-104 275,-110 275,-110 275,-122 275,-122 275,-128 269,-134 263,-134 263,-134 218,-134 218,-134 212,-134 206,-128 206,-122 206,-122 206,-110 206,-110 206,-104 212,-98 218,-98"/>
<text xml:space="preserve" text-anchor="middle" x="215.88" y="-110.95" font-family="Times,serif" font-size="14.00"> </text>
<polyline fill="none" stroke="lightgray" points="225.75,-98 225.75,-134"/>
<text xml:space="preserve" text-anchor="middle" x="240.5" y="-110.95" font-family="Times,serif" font-size="14.00">17</text>
<polyline fill="none" stroke="lightgray" points="255.25,-98 255.25,-134"/>
<text xml:space="preserve" text-anchor="middle" x="265.12" y="-110.95" font-family="Times,serif" font-size="14.00"> </text>
</g>
<!-- 4534529488&#45;&gt;4534529600 -->
<g id="edge5" class="edge">
<title>4534529488:l&#45;&gt;4534529600:v</title>
<path fill="none" stroke="black" d="M239.88,-170.5C239.88,-159.12 240.19,-153.82 240.37,-145.95"/>
<polygon fill="black" stroke="black" points="243.87,-146.05 240.48,-136.01 236.87,-145.97 243.87,-146.05"/>
</g>
<!-- 4534529264 -->
<g id="node7" class="node">
<title>4534529264</title>
<path fill="lightgray" stroke="lightgray" d="M305.38,-98C305.38,-98 343.62,-98 343.62,-98 349.62,-98 355.62,-104 355.62,-110 355.62,-110 355.62,-122 355.62,-122 355.62,-128 349.62,-134 343.62,-134 343.62,-134 305.38,-134 305.38,-134 299.38,-134 293.38,-128 293.38,-122 293.38,-122 293.38,-110 293.38,-110 293.38,-104 299.38,-98 305.38,-98"/>
<text xml:space="preserve" text-anchor="middle" x="303.25" y="-110.95" font-family="Times,serif" font-size="14.00"> </text>
<polyline fill="none" stroke="lightgray" points="313.12,-98 313.12,-134"/>
<text xml:space="preserve" text-anchor="middle" x="324.5" y="-110.95" font-family="Times,serif" font-size="14.00">6</text>
<polyline fill="none" stroke="lightgray" points="335.88,-98 335.88,-134"/>
<text xml:space="preserve" text-anchor="middle" x="345.75" y="-110.95" font-family="Times,serif" font-size="14.00"> </text>
</g>
<!-- 4534529488&#45;&gt;4534529264 -->
<g id="edge6" class="edge">
<title>4534529488:r&#45;&gt;4534529264:v</title>
<path fill="none" stroke="black" d="M289.12,-170.5C289.12,-152.8 311.15,-154.58 320.44,-145.11"/>
<polygon fill="black" stroke="black" points="323.65,-146.5 323.96,-135.91 317.12,-144 323.65,-146.5"/>
</g>
<!-- 4534528256 -->
<g id="node8" class="node">
<title>4534528256</title>
<path fill="lightgray" stroke="lightgray" d="M12,-25C12,-25 57,-25 57,-25 63,-25 69,-31 69,-37 69,-37 69,-49 69,-49 69,-55 63,-61 57,-61 57,-61 12,-61 12,-61 6,-61 0,-55 0,-49 0,-49 0,-37 0,-37 0,-31 6,-25 12,-25"/>
<text xml:space="preserve" text-anchor="middle" x="9.88" y="-37.95" font-family="Times,serif" font-size="14.00"> </text>
<polyline fill="none" stroke="lightgray" points="19.75,-25 19.75,-61"/>
<text xml:space="preserve" text-anchor="middle" x="34.5" y="-37.95" font-family="Times,serif" font-size="14.00">10</text>
<polyline fill="none" stroke="lightgray" points="49.25,-25 49.25,-61"/>
<text xml:space="preserve" text-anchor="middle" x="59.12" y="-37.95" font-family="Times,serif" font-size="14.00"> </text>
</g>
<!-- 4534523216&#45;&gt;4534528256 -->
<g id="edge7" class="edge">
<title>4534523216:l&#45;&gt;4534528256:v</title>
<path fill="none" stroke="black" d="M55.25,-97.5C55.25,-83.65 43.58,-80.71 37.74,-72.32"/>
<polygon fill="black" stroke="black" points="41.16,-71.52 34.93,-62.95 34.45,-73.53 41.16,-71.52"/>
</g>
<!-- 4534523776 -->
<g id="node9" class="node">
<title>4534523776</title>
<path fill="lightgray" stroke="lightgray" d="M99.38,-25C99.38,-25 137.62,-25 137.62,-25 143.62,-25 149.62,-31 149.62,-37 149.62,-37 149.62,-49 149.62,-49 149.62,-55 143.62,-61 137.62,-61 137.62,-61 99.38,-61 99.38,-61 93.38,-61 87.38,-55 87.38,-49 87.38,-49 87.38,-37 87.38,-37 87.38,-31 93.38,-25 99.38,-25"/>
<text xml:space="preserve" text-anchor="middle" x="97.25" y="-37.95" font-family="Times,serif" font-size="14.00"> </text>
<polyline fill="none" stroke="lightgray" points="107.12,-25 107.12,-61"/>
<text xml:space="preserve" text-anchor="middle" x="118.5" y="-37.95" font-family="Times,serif" font-size="14.00">9</text>
<polyline fill="none" stroke="lightgray" points="129.88,-25 129.88,-61"/>
<text xml:space="preserve" text-anchor="middle" x="139.75" y="-37.95" font-family="Times,serif" font-size="14.00"> </text>
</g>
<!-- 4534523216&#45;&gt;4534523776 -->
<g id="edge8" class="edge">
<title>4534523216:r&#45;&gt;4534523776:v</title>
<path fill="none" stroke="black" d="M97.75,-97.5C97.75,-83.65 109.42,-80.71 115.26,-72.32"/>
<polygon fill="black" stroke="black" points="118.55,-73.53 118.07,-62.95 111.84,-71.52 118.55,-73.53"/>
</g>
</g>
</svg>
