<?xml version="1.0" encoding="UTF-8" standalone="no"?>
<!DOCTYPE svg PUBLIC "-//W3C//DTD SVG 1.1//EN"
 "http://www.w3.org/Graphics/SVG/1.1/DTD/svg11.dtd">
<!-- Generated by graphviz version 14.0.0 (20250921.2048)
 -->
<!-- Pages: 1 -->
<svg width="397pt" height="289pt"
 viewBox="0.00 0.00 397.00 289.00" xmlns="http://www.w3.org/2000/svg" xmlns:xlink="http://www.w3.org/1999/xlink">
<g id="graph0" class="graph" transform="scale(1 1) rotate(0) translate(4 284.5)">
<polygon fill="white" stroke="none" points="-4,4 -4,-284.5 393.25,-284.5 393.25,4 -4,4"/>
<text xml:space="preserve" text-anchor="middle" x="194.62" y="-7.2" font-family="Times,serif" font-size="14.00">MaxHeap [13, 1, 9, 6, 12, 8, 7, 0, 5, 2, 1], heapsize: 10</text>
<!-- 4534525456 -->
<g id="node1" class="node">
<title>4534525456</title>
<path fill="lightgray" stroke="green" d="M213.62,-244C213.62,-244 258.62,-244 258.62,-244 264.62,-244 270.62,-250 270.62,-256 270.62,-256 270.62,-268 270.62,-268 270.62,-274 264.62,-280 258.62,-280 258.62,-280 213.62,-280 213.62,-280 207.62,-280 201.62,-274 201.62,-268 201.62,-268 201.62,-256 201.62,-256 201.62,-250 207.62,-244 213.62,-244"/>
<text xml:space="preserve" text-anchor="middle" x="211.5" y="-256.95" font-family="Times,serif" font-size="14.00"> </text>
<polyline fill="none" stroke="green" points="221.38,-244 221.38,-280"/>
<text xml:space="preserve" text-anchor="middle" x="236.12" y="-256.95" font-family="Times,serif" font-size="14.00">13</text>
<polyline fill="none" stroke="green" points="250.88,-244 250.88,-280"/>
<text xml:space="preserve" text-anchor="middle" x="260.75" y="-256.95" font-family="Times,serif" font-size="14.00"> </text>
</g>
<!-- 4534521984 -->
<g id="node2" class="node">
<title>4534521984</title>
<path fill="lightgray" stroke="green" d="M154,-171C154,-171 192.25,-171 192.25,-171 198.25,-171 204.25,-177 204.25,-183 204.25,-183 204.25,-195 204.25,-195 204.25,-201 198.25,-207 192.25,-207 192.25,-207 154,-207 154,-207 148,-207 142,-201 142,-195 142,-195 142,-183 142,-183 142,-177 148,-171 154,-171"/>
<text xml:space="preserve" text-anchor="middle" x="151.88" y="-183.95" font-family="Times,serif" font-size="14.00"> </text>
<polyline fill="none" stroke="green" points="161.75,-171 161.75,-207"/>
<text xml:space="preserve" text-anchor="middle" x="173.12" y="-183.95" font-family="Times,serif" font-size="14.00">1</text>
<polyline fill="none" stroke="green" points="184.5,-171 184.5,-207"/>
<text xml:space="preserve" text-anchor="middle" x="194.38" y="-183.95" font-family="Times,serif" font-size="14.00"> </text>
</g>
<!-- 4534525456&#45;&gt;4534521984 -->
<g id="edge1" class="edge">
<title>4534525456:l&#45;&gt;4534521984:v</title>
<path fill="none" stroke="black" d="M211.5,-243.5C211.5,-224.86 187.13,-227.92 177.23,-218.1"/>
<polygon fill="black" stroke="black" points="180.55,-216.97 173.67,-208.91 174.02,-219.5 180.55,-216.97"/>
</g>
<!-- 4534528368 -->
<g id="node3" class="node">
<title>4534528368</title>
<path fill="lightgray" stroke="lightgray" d="M280,-171C280,-171 318.25,-171 318.25,-171 324.25,-171 330.25,-177 330.25,-183 330.25,-183 330.25,-195 330.25,-195 330.25,-201 324.25,-207 318.25,-207 318.25,-207 280,-207 280,-207 274,-207 268,-201 268,-195 268,-195 268,-183 268,-183 268,-177 274,-171 280,-171"/>
<text xml:space="preserve" text-anchor="middle" x="277.88" y="-183.95" font-family="Times,serif" font-size="14.00"> </text>
<polyline fill="none" stroke="lightgray" points="287.75,-171 287.75,-207"/>
<text xml:space="preserve" text-anchor="middle" x="299.12" y="-183.95" font-family="Times,serif" font-size="14.00">9</text>
<polyline fill="none" stroke="lightgray" points="310.5,-171 310.5,-207"/>
<text xml:space="preserve" text-anchor="middle" x="320.38" y="-183.95" font-family="Times,serif" font-size="14.00"> </text>
</g>
<!-- 4534525456&#45;&gt;4534528368 -->
<g id="edge2" class="edge">
<title>4534525456:r&#45;&gt;4534528368:v</title>
<path fill="none" stroke="black" d="M260.75,-243.5C260.75,-224.86 285.12,-227.92 295.02,-218.1"/>
<polygon fill="black" stroke="black" points="298.23,-219.5 298.58,-208.91 291.7,-216.97 298.23,-219.5"/>
</g>
<!-- 4534528592 -->
<g id="node4" class="node">
<title>4534528592</title>
<path fill="lightgray" stroke="lightgray" d="M71,-98C71,-98 109.25,-98 109.25,-98 115.25,-98 121.25,-104 121.25,-110 121.25,-110 121.25,-122 121.25,-122 121.25,-128 115.25,-134 109.25,-134 109.25,-134 71,-134 71,-134 65,-134 59,-128 59,-122 59,-122 59,-110 59,-110 59,-104 65,-98 71,-98"/>
<text xml:space="preserve" text-anchor="middle" x="68.88" y="-110.95" font-family="Times,serif" font-size="14.00"> </text>
<polyline fill="none" stroke="lightgray" points="78.75,-98 78.75,-134"/>
<text xml:space="preserve" text-anchor="middle" x="90.12" y="-110.95" font-family="Times,serif" font-size="14.00">6</text>
<polyline fill="none" stroke="lightgray" points="101.5,-98 101.5,-134"/>
<text xml:space="preserve" text-anchor="middle" x="111.38" y="-110.95" font-family="Times,serif" font-size="14.00"> </text>
</g>
<!-- 4534521984&#45;&gt;4534528592 -->
<g id="edge3" class="edge">
<title>4534521984:l&#45;&gt;4534528592:v</title>
<path fill="none" stroke="black" d="M151.88,-170.5C151.88,-143.45 107.1,-159.4 93.8,-145.11"/>
<polygon fill="black" stroke="black" points="97.2,-144.23 90.62,-135.93 90.59,-146.52 97.2,-144.23"/>
</g>
<!-- 4534524000 -->
<g id="node5" class="node">
<title>4534524000</title>
<path fill="lightgray" stroke="lightgray" d="M171.62,-98C171.62,-98 216.62,-98 216.62,-98 222.62,-98 228.62,-104 228.62,-110 228.62,-110 228.62,-122 228.62,-122 228.62,-128 222.62,-134 216.62,-134 216.62,-134 171.62,-134 171.62,-134 165.62,-134 159.62,-128 159.62,-122 159.62,-122 159.62,-110 159.62,-110 159.62,-104 165.62,-98 171.62,-98"/>
<text xml:space="preserve" text-anchor="middle" x="169.5" y="-110.95" font-family="Times,serif" font-size="14.00"> </text>
<polyline fill="none" stroke="lightgray" points="179.38,-98 179.38,-134"/>
<text xml:space="preserve" text-anchor="middle" x="194.12" y="-110.95" font-family="Times,serif" font-size="14.00">12</text>
<polyline fill="none" stroke="lightgray" points="208.88,-98 208.88,-134"/>
<text xml:space="preserve" text-anchor="middle" x="218.75" y="-110.95" font-family="Times,serif" font-size="14.00"> </text>
</g>
<!-- 4534521984&#45;&gt;4534524000 -->
<g id="edge4" class="edge">
<title>4534521984:r&#45;&gt;4534524000:v</title>
<path fill="none" stroke="black" d="M194.38,-170.5C194.38,-159.12 194.25,-153.82 194.18,-145.95"/>
<polygon fill="black" stroke="black" points="197.68,-146 194.13,-136.01 190.68,-146.03 197.68,-146"/>
</g>
<!-- 4534521200 -->
<g id="node6" class="node">
<title>4534521200</title>
<path fill="lightgray" stroke="lightgray" d="M259,-98C259,-98 297.25,-98 297.25,-98 303.25,-98 309.25,-104 309.25,-110 309.25,-110 309.25,-122 309.25,-122 309.25,-128 303.25,-134 297.25,-134 297.25,-134 259,-134 259,-134 253,-134 247,-128 247,-122 247,-122 247,-110 247,-110 247,-104 253,-98 259,-98"/>
<text xml:space="preserve" text-anchor="middle" x="256.88" y="-110.95" font-family="Times,serif" font-size="14.00"> </text>
<polyline fill="none" stroke="lightgray" points="266.75,-98 266.75,-134"/>
<text xml:space="preserve" text-anchor="middle" x="278.12" y="-110.95" font-family="Times,serif" font-size="14.00">8</text>
<polyline fill="none" stroke="lightgray" points="289.5,-98 289.5,-134"/>
<text xml:space="preserve" text-anchor="middle" x="299.38" y="-110.95" font-family="Times,serif" font-size="14.00"> </text>
</g>
<!-- 4534528368&#45;&gt;4534521200 -->
<g id="edge5" class="edge">
<title>4534528368:l&#45;&gt;4534521200:v</title>
<path fill="none" stroke="black" d="M277.88,-170.5C277.88,-159.12 278,-153.82 278.07,-145.95"/>
<polygon fill="black" stroke="black" points="281.57,-146.03 278.12,-136.01 274.57,-146 281.57,-146.03"/>
</g>
<!-- 4534521760 -->
<g id="node7" class="node">
<title>4534521760</title>
<path fill="lightgray" stroke="lightgray" d="M339,-98C339,-98 377.25,-98 377.25,-98 383.25,-98 389.25,-104 389.25,-110 389.25,-110 389.25,-122 389.25,-122 389.25,-128 383.25,-134 377.25,-134 377.25,-134 339,-134 339,-134 333,-134 327,-128 327,-122 327,-122 327,-110 327,-110 327,-104 333,-98 339,-98"/>
<text xml:space="preserve" text-anchor="middle" x="336.88" y="-110.95" font-family="Times,serif" font-size="14.00"> </text>
<polyline fill="none" stroke="lightgray" points="346.75,-98 346.75,-134"/>
<text xml:space="preserve" text-anchor="middle" x="358.12" y="-110.95" font-family="Times,serif" font-size="14.00">7</text>
<polyline fill="none" stroke="lightgray" points="369.5,-98 369.5,-134"/>
<text xml:space="preserve" text-anchor="middle" x="379.38" y="-110.95" font-family="Times,serif" font-size="14.00"> </text>
</g>
<!-- 4534528368&#45;&gt;4534521760 -->
<g id="edge6" class="edge">
<title>4534528368:r&#45;&gt;4534521760:v</title>
<path fill="none" stroke="black" d="M320.38,-170.5C320.38,-152.03 344.35,-154.86 354.09,-145.04"/>
<polygon fill="black" stroke="black" points="357.27,-146.5 357.58,-135.91 350.74,-144 357.27,-146.5"/>
</g>
<!-- 4534521424 -->
<g id="node8" class="node">
<title>4534521424</title>
<path fill="lightgray" stroke="lightgray" d="M12,-25C12,-25 50.25,-25 50.25,-25 56.25,-25 62.25,-31 62.25,-37 62.25,-37 62.25,-49 62.25,-49 62.25,-55 56.25,-61 50.25,-61 50.25,-61 12,-61 12,-61 6,-61 0,-55 0,-49 0,-49 0,-37 0,-37 0,-31 6,-25 12,-25"/>
<text xml:space="preserve" text-anchor="middle" x="9.88" y="-37.95" font-family="Times,serif" font-size="14.00"> </text>
<polyline fill="none" stroke="lightgray" points="19.75,-25 19.75,-61"/>
<text xml:space="preserve" text-anchor="middle" x="31.12" y="-37.95" font-family="Times,serif" font-size="14.00">0</text>
<polyline fill="none" stroke="lightgray" points="42.5,-25 42.5,-61"/>
<text xml:space="preserve" text-anchor="middle" x="52.38" y="-37.95" font-family="Times,serif" font-size="14.00"> </text>
</g>
<!-- 4534528592&#45;&gt;4534521424 -->
<g id="edge7" class="edge">
<title>4534528592:l&#45;&gt;4534521424:v</title>
<path fill="none" stroke="black" d="M68.88,-97.5C68.88,-79.03 44.9,-81.86 35.16,-72.04"/>
<polygon fill="black" stroke="black" points="38.51,-71 31.67,-62.91 31.98,-73.5 38.51,-71"/>
</g>
<!-- 4534522880 -->
<g id="node9" class="node">
<title>4534522880</title>
<path fill="lightgray" stroke="lightgray" d="M92,-25C92,-25 130.25,-25 130.25,-25 136.25,-25 142.25,-31 142.25,-37 142.25,-37 142.25,-49 142.25,-49 142.25,-55 136.25,-61 130.25,-61 130.25,-61 92,-61 92,-61 86,-61 80,-55 80,-49 80,-49 80,-37 80,-37 80,-31 86,-25 92,-25"/>
<text xml:space="preserve" text-anchor="middle" x="89.88" y="-37.95" font-family="Times,serif" font-size="14.00"> </text>
<polyline fill="none" stroke="lightgray" points="99.75,-25 99.75,-61"/>
<text xml:space="preserve" text-anchor="middle" x="111.12" y="-37.95" font-family="Times,serif" font-size="14.00">5</text>
<polyline fill="none" stroke="lightgray" points="122.5,-25 122.5,-61"/>
<text xml:space="preserve" text-anchor="middle" x="132.38" y="-37.95" font-family="Times,serif" font-size="14.00"> </text>
</g>
<!-- 4534528592&#45;&gt;4534522880 -->
<g id="edge8" class="edge">
<title>4534528592:r&#45;&gt;4534522880:v</title>
<path fill="none" stroke="black" d="M111.38,-97.5C111.38,-86.12 111.25,-80.82 111.18,-72.95"/>
<polygon fill="black" stroke="black" points="114.68,-73 111.13,-63.01 107.68,-73.03 114.68,-73"/>
</g>
<!-- 4534524672 -->
<g id="node10" class="node">
<title>4534524672</title>
<path fill="lightgray" stroke="lightgray" d="M172,-25C172,-25 210.25,-25 210.25,-25 216.25,-25 222.25,-31 222.25,-37 222.25,-37 222.25,-49 222.25,-49 222.25,-55 216.25,-61 210.25,-61 210.25,-61 172,-61 172,-61 166,-61 160,-55 160,-49 160,-49 160,-37 160,-37 160,-31 166,-25 172,-25"/>
<text xml:space="preserve" text-anchor="middle" x="169.88" y="-37.95" font-family="Times,serif" font-size="14.00"> </text>
<polyline fill="none" stroke="lightgray" points="179.75,-25 179.75,-61"/>
<text xml:space="preserve" text-anchor="middle" x="191.12" y="-37.95" font-family="Times,serif" font-size="14.00">2</text>
<polyline fill="none" stroke="lightgray" points="202.5,-25 202.5,-61"/>
<text xml:space="preserve" text-anchor="middle" x="212.38" y="-37.95" font-family="Times,serif" font-size="14.00"> </text>
</g>
<!-- 4534524000&#45;&gt;4534524672 -->
<g id="edge9" class="edge">
<title>4534524000:l&#45;&gt;4534524672:v</title>
<path fill="none" stroke="black" d="M169.5,-97.5C169.5,-83.5 181.66,-80.75 187.75,-72.37"/>
<polygon fill="black" stroke="black" points="191.05,-73.53 190.68,-62.95 184.37,-71.46 191.05,-73.53"/>
</g>
</g>
</svg>
