<?xml version="1.0" encoding="UTF-8" standalone="no"?>
<!DOCTYPE svg PUBLIC "-//W3C//DTD SVG 1.1//EN"
 "http://www.w3.org/Graphics/SVG/1.1/DTD/svg11.dtd">
<!-- Generated by graphviz version 14.0.0 (20250921.2048)
 -->
<!-- Pages: 1 -->
<svg width="314pt" height="216pt"
 viewBox="0.00 0.00 314.00 216.00" xmlns="http://www.w3.org/2000/svg" xmlns:xlink="http://www.w3.org/1999/xlink">
<g id="graph0" class="graph" transform="scale(1 1) rotate(0) translate(4 211.5)">
<polygon fill="white" stroke="none" points="-4,4 -4,-211.5 309.5,-211.5 309.5,4 -4,4"/>
<text xml:space="preserve" text-anchor="middle" x="152.75" y="-7.2" font-family="Times,serif" font-size="14.00">MaxHeap [3, 5, 6, 9, 10, 17, 19, 22, 84], heapsize: 4</text>
<!-- 4534520864 -->
<g id="node1" class="node">
<title>4534520864</title>
<path fill="lightgray" stroke="green" d="M144.12,-171C144.12,-171 182.38,-171 182.38,-171 188.38,-171 194.38,-177 194.38,-183 194.38,-183 194.38,-195 194.38,-195 194.38,-201 188.38,-207 182.38,-207 182.38,-207 144.12,-207 144.12,-207 138.12,-207 132.12,-201 132.12,-195 132.12,-195 132.12,-183 132.12,-183 132.12,-177 138.12,-171 144.12,-171"/>
<text xml:space="preserve" text-anchor="middle" x="142" y="-183.95" font-family="Times,serif" font-size="14.00"> </text>
<polyline fill="none" stroke="green" points="151.88,-171 151.88,-207"/>
<text xml:space="preserve" text-anchor="middle" x="163.25" y="-183.95" font-family="Times,serif" font-size="14.00">3</text>
<polyline fill="none" stroke="green" points="174.62,-171 174.62,-207"/>
<text xml:space="preserve" text-anchor="middle" x="184.5" y="-183.95" font-family="Times,serif" font-size="14.00"> </text>
</g>
<!-- 4534528816 -->
<g id="node2" class="node">
<title>4534528816</title>
<path fill="lightgray" stroke="lightgray" d="M104.12,-98C104.12,-98 142.38,-98 142.38,-98 148.38,-98 154.38,-104 154.38,-110 154.38,-110 154.38,-122 154.38,-122 154.38,-128 148.38,-134 142.38,-134 142.38,-134 104.12,-134 104.12,-134 98.12,-134 92.12,-128 92.12,-122 92.12,-122 92.12,-110 92.12,-110 92.12,-104 98.12,-98 104.12,-98"/>
<text xml:space="preserve" text-anchor="middle" x="102" y="-110.95" font-family="Times,serif" font-size="14.00"> </text>
<polyline fill="none" stroke="lightgray" points="111.88,-98 111.88,-134"/>
<text xml:space="preserve" text-anchor="middle" x="123.25" y="-110.95" font-family="Times,serif" font-size="14.00">5</text>
<polyline fill="none" stroke="lightgray" points="134.62,-98 134.62,-134"/>
<text xml:space="preserve" text-anchor="middle" x="144.5" y="-110.95" font-family="Times,serif" font-size="14.00"> </text>
</g>
<!-- 4534520864&#45;&gt;4534528816 -->
<g id="edge1" class="edge">
<title>4534520864:l&#45;&gt;4534528816:v</title>
<path fill="none" stroke="black" d="M142,-170.5C142,-157.11 131.67,-153.7 126.35,-145.46"/>
<polygon fill="black" stroke="black" points="129.75,-144.63 123.66,-135.96 123.01,-146.53 129.75,-144.63"/>
</g>
<!-- 4534521424 -->
<g id="node3" class="node">
<title>4534521424</title>
<path fill="lightgray" stroke="lightgray" d="M184.12,-98C184.12,-98 222.38,-98 222.38,-98 228.38,-98 234.38,-104 234.38,-110 234.38,-110 234.38,-122 234.38,-122 234.38,-128 228.38,-134 222.38,-134 222.38,-134 184.12,-134 184.12,-134 178.12,-134 172.12,-128 172.12,-122 172.12,-122 172.12,-110 172.12,-110 172.12,-104 178.12,-98 184.12,-98"/>
<text xml:space="preserve" text-anchor="middle" x="182" y="-110.95" font-family="Times,serif" font-size="14.00"> </text>
<polyline fill="none" stroke="lightgray" points="191.88,-98 191.88,-134"/>
<text xml:space="preserve" text-anchor="middle" x="203.25" y="-110.95" font-family="Times,serif" font-size="14.00">6</text>
<polyline fill="none" stroke="lightgray" points="214.62,-98 214.62,-134"/>
<text xml:space="preserve" text-anchor="middle" x="224.5" y="-110.95" font-family="Times,serif" font-size="14.00"> </text>
</g>
<!-- 4534520864&#45;&gt;4534521424 -->
<g id="edge2" class="edge">
<title>4534520864:r&#45;&gt;4534521424:v</title>
<path fill="none" stroke="black" d="M184.5,-170.5C184.5,-157.11 194.83,-153.7 200.15,-145.46"/>
<polygon fill="black" stroke="black" points="203.49,-146.53 202.84,-135.96 196.75,-144.63 203.49,-146.53"/>
</g>
<!-- 4534522880 -->
<g id="node4" class="node">
<title>4534522880</title>
<path fill="lightgray" stroke="green" d="M83.12,-25C83.12,-25 121.38,-25 121.38,-25 127.38,-25 133.38,-31 133.38,-37 133.38,-37 133.38,-49 133.38,-49 133.38,-55 127.38,-61 121.38,-61 121.38,-61 83.12,-61 83.12,-61 77.12,-61 71.12,-55 71.12,-49 71.12,-49 71.12,-37 71.12,-37 71.12,-31 77.12,-25 83.12,-25"/>
<text xml:space="preserve" text-anchor="middle" x="81" y="-37.95" font-family="Times,serif" font-size="14.00"> </text>
<polyline fill="none" stroke="green" points="90.88,-25 90.88,-61"/>
<text xml:space="preserve" text-anchor="middle" x="102.25" y="-37.95" font-family="Times,serif" font-size="14.00">9</text>
<polyline fill="none" stroke="green" points="113.62,-25 113.62,-61"/>
<text xml:space="preserve" text-anchor="middle" x="123.5" y="-37.95" font-family="Times,serif" font-size="14.00"> </text>
</g>
<!-- 4534528816&#45;&gt;4534522880 -->
<g id="edge3" class="edge">
<title>4534528816:l&#45;&gt;4534522880:v</title>
<path fill="none" stroke="black" d="M102,-97.5C102,-86.12 102.13,-80.82 102.2,-72.95"/>
<polygon fill="black" stroke="black" points="105.7,-73.03 102.24,-63.01 98.7,-73 105.7,-73.03"/>
</g>
</g>
</svg>
