<?xml version="1.0" encoding="UTF-8" standalone="no"?>
<!DOCTYPE svg PUBLIC "-//W3C//DTD SVG 1.1//EN"
 "http://www.w3.org/Graphics/SVG/1.1/DTD/svg11.dtd">
<!-- Generated by graphviz version 14.0.0 (20250921.2048)
 -->
<!-- Pages: 1 -->
<svg width="307pt" height="216pt"
 viewBox="0.00 0.00 307.00 216.00" xmlns="http://www.w3.org/2000/svg" xmlns:xlink="http://www.w3.org/1999/xlink">
<g id="graph0" class="graph" transform="scale(1 1) rotate(0) translate(4 211.5)">
<polygon fill="white" stroke="none" points="-4,4 -4,-211.5 302.75,-211.5 302.75,4 -4,4"/>
<text xml:space="preserve" text-anchor="middle" x="149.38" y="-7.2" font-family="Times,serif" font-size="14.00">MaxHeap [4, 8, 5, 2, 7, 13, 17, 20, 25], heapsize: 6</text>
<!-- 4534521200 -->
<g id="node1" class="node">
<title>4534521200</title>
<path fill="lightgray" stroke="green" d="M156.56,-171C156.56,-171 194.81,-171 194.81,-171 200.81,-171 206.81,-177 206.81,-183 206.81,-183 206.81,-195 206.81,-195 206.81,-201 200.81,-207 194.81,-207 194.81,-207 156.56,-207 156.56,-207 150.56,-207 144.56,-201 144.56,-195 144.56,-195 144.56,-183 144.56,-183 144.56,-177 150.56,-171 156.56,-171"/>
<text xml:space="preserve" text-anchor="middle" x="154.44" y="-183.95" font-family="Times,serif" font-size="14.00"> </text>
<polyline fill="none" stroke="green" points="164.31,-171 164.31,-207"/>
<text xml:space="preserve" text-anchor="middle" x="175.69" y="-183.95" font-family="Times,serif" font-size="14.00">4</text>
<polyline fill="none" stroke="green" points="187.06,-171 187.06,-207"/>
<text xml:space="preserve" text-anchor="middle" x="196.94" y="-183.95" font-family="Times,serif" font-size="14.00"> </text>
</g>
<!-- 4534529040 -->
<g id="node2" class="node">
<title>4534529040</title>
<path fill="lightgray" stroke="lightgray" d="M105.56,-98C105.56,-98 143.81,-98 143.81,-98 149.81,-98 155.81,-104 155.81,-110 155.81,-110 155.81,-122 155.81,-122 155.81,-128 149.81,-134 143.81,-134 143.81,-134 105.56,-134 105.56,-134 99.56,-134 93.56,-128 93.56,-122 93.56,-122 93.56,-110 93.56,-110 93.56,-104 99.56,-98 105.56,-98"/>
<text xml:space="preserve" text-anchor="middle" x="103.44" y="-110.95" font-family="Times,serif" font-size="14.00"> </text>
<polyline fill="none" stroke="lightgray" points="113.31,-98 113.31,-134"/>
<text xml:space="preserve" text-anchor="middle" x="124.69" y="-110.95" font-family="Times,serif" font-size="14.00">8</text>
<polyline fill="none" stroke="lightgray" points="136.06,-98 136.06,-134"/>
<text xml:space="preserve" text-anchor="middle" x="145.94" y="-110.95" font-family="Times,serif" font-size="14.00"> </text>
</g>
<!-- 4534521200&#45;&gt;4534529040 -->
<g id="edge1" class="edge">
<title>4534521200:l&#45;&gt;4534529040:v</title>
<path fill="none" stroke="black" d="M154.44,-170.5C154.44,-154.45 136.64,-154.11 128.58,-145.17"/>
<polygon fill="black" stroke="black" points="131.92,-144.12 125.21,-135.92 125.34,-146.52 131.92,-144.12"/>
</g>
<!-- 4534521648 -->
<g id="node3" class="node">
<title>4534521648</title>
<path fill="lightgray" stroke="lightgray" d="M208.56,-98C208.56,-98 246.81,-98 246.81,-98 252.81,-98 258.81,-104 258.81,-110 258.81,-110 258.81,-122 258.81,-122 258.81,-128 252.81,-134 246.81,-134 246.81,-134 208.56,-134 208.56,-134 202.56,-134 196.56,-128 196.56,-122 196.56,-122 196.56,-110 196.56,-110 196.56,-104 202.56,-98 208.56,-98"/>
<text xml:space="preserve" text-anchor="middle" x="206.44" y="-110.95" font-family="Times,serif" font-size="14.00"> </text>
<polyline fill="none" stroke="lightgray" points="216.31,-98 216.31,-134"/>
<text xml:space="preserve" text-anchor="middle" x="227.69" y="-110.95" font-family="Times,serif" font-size="14.00">5</text>
<polyline fill="none" stroke="lightgray" points="239.06,-98 239.06,-134"/>
<text xml:space="preserve" text-anchor="middle" x="248.94" y="-110.95" font-family="Times,serif" font-size="14.00"> </text>
</g>
<!-- 4534521200&#45;&gt;4534521648 -->
<g id="edge2" class="edge">
<title>4534521200:r&#45;&gt;4534521648:v</title>
<path fill="none" stroke="black" d="M196.94,-170.5C196.94,-154.23 215.33,-154.18 223.67,-145.26"/>
<polygon fill="black" stroke="black" points="226.94,-146.51 227.16,-135.92 220.38,-144.06 226.94,-146.51"/>
</g>
<!-- 4534527584 -->
<g id="node4" class="node">
<title>4534527584</title>
<path fill="lightgray" stroke="lightgray" d="M46.56,-25C46.56,-25 84.81,-25 84.81,-25 90.81,-25 96.81,-31 96.81,-37 96.81,-37 96.81,-49 96.81,-49 96.81,-55 90.81,-61 84.81,-61 84.81,-61 46.56,-61 46.56,-61 40.56,-61 34.56,-55 34.56,-49 34.56,-49 34.56,-37 34.56,-37 34.56,-31 40.56,-25 46.56,-25"/>
<text xml:space="preserve" text-anchor="middle" x="44.44" y="-37.95" font-family="Times,serif" font-size="14.00"> </text>
<polyline fill="none" stroke="lightgray" points="54.31,-25 54.31,-61"/>
<text xml:space="preserve" text-anchor="middle" x="65.69" y="-37.95" font-family="Times,serif" font-size="14.00">2</text>
<polyline fill="none" stroke="lightgray" points="77.06,-25 77.06,-61"/>
<text xml:space="preserve" text-anchor="middle" x="86.94" y="-37.95" font-family="Times,serif" font-size="14.00"> </text>
</g>
<!-- 4534529040&#45;&gt;4534527584 -->
<g id="edge3" class="edge">
<title>4534529040:l&#45;&gt;4534527584:v</title>
<path fill="none" stroke="black" d="M103.44,-97.5C103.44,-79.03 79.47,-81.86 69.73,-72.04"/>
<polygon fill="black" stroke="black" points="73.08,-71 66.23,-62.91 66.54,-73.5 73.08,-71"/>
</g>
<!-- 4534528592 -->
<g id="node5" class="node">
<title>4534528592</title>
<path fill="lightgray" stroke="lightgray" d="M126.56,-25C126.56,-25 164.81,-25 164.81,-25 170.81,-25 176.81,-31 176.81,-37 176.81,-37 176.81,-49 176.81,-49 176.81,-55 170.81,-61 164.81,-61 164.81,-61 126.56,-61 126.56,-61 120.56,-61 114.56,-55 114.56,-49 114.56,-49 114.56,-37 114.56,-37 114.56,-31 120.56,-25 126.56,-25"/>
<text xml:space="preserve" text-anchor="middle" x="124.44" y="-37.95" font-family="Times,serif" font-size="14.00"> </text>
<polyline fill="none" stroke="lightgray" points="134.31,-25 134.31,-61"/>
<text xml:space="preserve" text-anchor="middle" x="145.69" y="-37.95" font-family="Times,serif" font-size="14.00">7</text>
<polyline fill="none" stroke="lightgray" points="157.06,-25 157.06,-61"/>
<text xml:space="preserve" text-anchor="middle" x="166.94" y="-37.95" font-family="Times,serif" font-size="14.00"> </text>
</g>
<!-- 4534529040&#45;&gt;4534528592 -->
<g id="edge4" class="edge">
<title>4534529040:r&#45;&gt;4534528592:v</title>
<path fill="none" stroke="black" d="M145.94,-97.5C145.94,-86.12 145.81,-80.82 145.74,-72.95"/>
<polygon fill="black" stroke="black" points="149.24,-73 145.69,-63.01 142.24,-73.03 149.24,-73"/>
</g>
<!-- 4534530496 -->
<g id="node6" class="node">
<title>4534530496</title>
<path fill="lightgray" stroke="green" d="M207.19,-25C207.19,-25 252.19,-25 252.19,-25 258.19,-25 264.19,-31 264.19,-37 264.19,-37 264.19,-49 264.19,-49 264.19,-55 258.19,-61 252.19,-61 252.19,-61 207.19,-61 207.19,-61 201.19,-61 195.19,-55 195.19,-49 195.19,-49 195.19,-37 195.19,-37 195.19,-31 201.19,-25 207.19,-25"/>
<text xml:space="preserve" text-anchor="middle" x="205.06" y="-37.95" font-family="Times,serif" font-size="14.00"> </text>
<polyline fill="none" stroke="green" points="214.94,-25 214.94,-61"/>
<text xml:space="preserve" text-anchor="middle" x="229.69" y="-37.95" font-family="Times,serif" font-size="14.00">13</text>
<polyline fill="none" stroke="green" points="244.44,-25 244.44,-61"/>
<text xml:space="preserve" text-anchor="middle" x="254.31" y="-37.95" font-family="Times,serif" font-size="14.00"> </text>
</g>
<!-- 4534521648&#45;&gt;4534530496 -->
<g id="edge5" class="edge">
<title>4534521648:l&#45;&gt;4534530496:v</title>
<path fill="none" stroke="black" d="M206.44,-97.5C206.44,-83.07 219.79,-80.77 226.26,-72.22"/>
<polygon fill="black" stroke="black" points="229.51,-73.53 229.23,-62.94 222.84,-71.4 229.51,-73.53"/>
</g>
</g>
</svg>
