<?xml version="1.0" encoding="UTF-8" standalone="no"?>
<!DOCTYPE svg PUBLIC "-//W3C//DTD SVG 1.1//EN"
 "http://www.w3.org/Graphics/SVG/1.1/DTD/svg11.dtd">
<!-- Generated by graphviz version 14.0.0 (20250921.2048)
 -->
<!-- Pages: 1 -->
<svg width="190pt" height="216pt"
 viewBox="0.00 0.00 190.00 216.00" xmlns="http://www.w3.org/2000/svg" xmlns:xlink="http://www.w3.org/1999/xlink">
<g id="graph0" class="graph" transform="scale(1 1) rotate(0) translate(4 211.5)">
<polygon fill="white" stroke="none" points="-4,4 -4,-211.5 186.25,-211.5 186.25,4 -4,4"/>
<text xml:space="preserve" text-anchor="middle" x="91.12" y="-7.2" font-family="Times,serif" font-size="14.00">leaves</text>
<!-- 4534527024 -->
<g id="node1" class="node">
<title>4534527024</title>
<path fill="lightgray" stroke="lightgray" d="M92,-171C92,-171 130.25,-171 130.25,-171 136.25,-171 142.25,-177 142.25,-183 142.25,-183 142.25,-195 142.25,-195 142.25,-201 136.25,-207 130.25,-207 130.25,-207 92,-207 92,-207 86,-207 80,-201 80,-195 80,-195 80,-183 80,-183 80,-177 86,-171 92,-171"/>
<text xml:space="preserve" text-anchor="middle" x="89.88" y="-183.95" font-family="Times,serif" font-size="14.00"> </text>
<polyline fill="none" stroke="lightgray" points="99.75,-171 99.75,-207"/>
<text xml:space="preserve" text-anchor="middle" x="111.12" y="-183.95" font-family="Times,serif" font-size="14.00">1</text>
<polyline fill="none" stroke="lightgray" points="122.5,-171 122.5,-207"/>
<text xml:space="preserve" text-anchor="middle" x="132.38" y="-183.95" font-family="Times,serif" font-size="14.00"> </text>
</g>
<!-- 4534524896 -->
<g id="node2" class="node">
<title>4534524896</title>
<path fill="lightgray" stroke="lightgray" d="M52,-98C52,-98 90.25,-98 90.25,-98 96.25,-98 102.25,-104 102.25,-110 102.25,-110 102.25,-122 102.25,-122 102.25,-128 96.25,-134 90.25,-134 90.25,-134 52,-134 52,-134 46,-134 40,-128 40,-122 40,-122 40,-110 40,-110 40,-104 46,-98 52,-98"/>
<text xml:space="preserve" text-anchor="middle" x="49.88" y="-110.95" font-family="Times,serif" font-size="14.00"> </text>
<polyline fill="none" stroke="lightgray" points="59.75,-98 59.75,-134"/>
<text xml:space="preserve" text-anchor="middle" x="71.12" y="-110.95" font-family="Times,serif" font-size="14.00">2</text>
<polyline fill="none" stroke="lightgray" points="82.5,-98 82.5,-134"/>
<text xml:space="preserve" text-anchor="middle" x="92.38" y="-110.95" font-family="Times,serif" font-size="14.00"> </text>
</g>
<!-- 4534527024&#45;&gt;4534524896 -->
<g id="edge1" class="edge">
<title>4534527024:l&#45;&gt;4534524896:v</title>
<path fill="none" stroke="black" d="M89.88,-170.5C89.88,-157.11 79.55,-153.7 74.22,-145.46"/>
<polygon fill="black" stroke="black" points="77.62,-144.63 71.54,-135.96 70.89,-146.53 77.62,-144.63"/>
</g>
<!-- 4534524784 -->
<g id="node3" class="node">
<title>4534524784</title>
<path fill="lightgray" stroke="green" d="M132,-98C132,-98 170.25,-98 170.25,-98 176.25,-98 182.25,-104 182.25,-110 182.25,-110 182.25,-122 182.25,-122 182.25,-128 176.25,-134 170.25,-134 170.25,-134 132,-134 132,-134 126,-134 120,-128 120,-122 120,-122 120,-110 120,-110 120,-104 126,-98 132,-98"/>
<text xml:space="preserve" text-anchor="middle" x="129.88" y="-110.95" font-family="Times,serif" font-size="14.00"> </text>
<polyline fill="none" stroke="green" points="139.75,-98 139.75,-134"/>
<text xml:space="preserve" text-anchor="middle" x="151.12" y="-110.95" font-family="Times,serif" font-size="14.00">3</text>
<polyline fill="none" stroke="green" points="162.5,-98 162.5,-134"/>
<text xml:space="preserve" text-anchor="middle" x="172.38" y="-110.95" font-family="Times,serif" font-size="14.00"> </text>
</g>
<!-- 4534527024&#45;&gt;4534524784 -->
<g id="edge2" class="edge">
<title>4534527024:r&#45;&gt;4534524784:v</title>
<path fill="none" stroke="black" d="M132.38,-170.5C132.38,-157.11 142.7,-153.7 148.03,-145.46"/>
<polygon fill="black" stroke="black" points="151.36,-146.53 150.71,-135.96 144.63,-144.63 151.36,-146.53"/>
</g>
<!-- 4534524112 -->
<g id="node4" class="node">
<title>4534524112</title>
<path fill="lightgray" stroke="green" d="M12,-25C12,-25 50.25,-25 50.25,-25 56.25,-25 62.25,-31 62.25,-37 62.25,-37 62.25,-49 62.25,-49 62.25,-55 56.25,-61 50.25,-61 50.25,-61 12,-61 12,-61 6,-61 0,-55 0,-49 0,-49 0,-37 0,-37 0,-31 6,-25 12,-25"/>
<text xml:space="preserve" text-anchor="middle" x="9.88" y="-37.95" font-family="Times,serif" font-size="14.00"> </text>
<polyline fill="none" stroke="green" points="19.75,-25 19.75,-61"/>
<text xml:space="preserve" text-anchor="middle" x="31.12" y="-37.95" font-family="Times,serif" font-size="14.00">4</text>
<polyline fill="none" stroke="green" points="42.5,-25 42.5,-61"/>
<text xml:space="preserve" text-anchor="middle" x="52.38" y="-37.95" font-family="Times,serif" font-size="14.00"> </text>
</g>
<!-- 4534524896&#45;&gt;4534524112 -->
<g id="edge3" class="edge">
<title>4534524896:l&#45;&gt;4534524112:v</title>
<path fill="none" stroke="black" d="M49.88,-97.5C49.88,-84.11 39.55,-80.7 34.22,-72.46"/>
<polygon fill="black" stroke="black" points="37.62,-71.63 31.54,-62.96 30.89,-73.53 37.62,-71.63"/>
</g>
<!-- 4534523776 -->
<g id="node5" class="node">
<title>4534523776</title>
<path fill="lightgray" stroke="green" d="M92,-25C92,-25 130.25,-25 130.25,-25 136.25,-25 142.25,-31 142.25,-37 142.25,-37 142.25,-49 142.25,-49 142.25,-55 136.25,-61 130.25,-61 130.25,-61 92,-61 92,-61 86,-61 80,-55 80,-49 80,-49 80,-37 80,-37 80,-31 86,-25 92,-25"/>
<text xml:space="preserve" text-anchor="middle" x="89.88" y="-37.95" font-family="Times,serif" font-size="14.00"> </text>
<polyline fill="none" stroke="green" points="99.75,-25 99.75,-61"/>
<text xml:space="preserve" text-anchor="middle" x="111.12" y="-37.95" font-family="Times,serif" font-size="14.00">5</text>
<polyline fill="none" stroke="green" points="122.5,-25 122.5,-61"/>
<text xml:space="preserve" text-anchor="middle" x="132.38" y="-37.95" font-family="Times,serif" font-size="14.00"> </text>
</g>
<!-- 4534524896&#45;&gt;4534523776 -->
<g id="edge4" class="edge">
<title>4534524896:r&#45;&gt;4534523776:v</title>
<path fill="none" stroke="black" d="M92.38,-97.5C92.38,-84.11 102.7,-80.7 108.03,-72.46"/>
<polygon fill="black" stroke="black" points="111.36,-73.53 110.71,-62.96 104.63,-71.63 111.36,-73.53"/>
</g>
</g>
</svg>
