<?xml version="1.0" encoding="UTF-8" standalone="no"?>
<!DOCTYPE svg PUBLIC "-//W3C//DTD SVG 1.1//EN"
 "http://www.w3.org/Graphics/SVG/1.1/DTD/svg11.dtd">
<!-- Generated by graphviz version 14.0.0 (20250921.2048)
 -->
<!-- Pages: 1 -->
<svg width="230pt" height="232pt"
 viewBox="0.00 0.00 230.00 232.00" xmlns="http://www.w3.org/2000/svg" xmlns:xlink="http://www.w3.org/1999/xlink">
<g id="graph0" class="graph" transform="scale(1 1) rotate(0) translate(4 228)">
<polygon fill="white" stroke="none" points="-4,4 -4,-228 226.25,-228 226.25,4 -4,4"/>
<text xml:space="preserve" text-anchor="middle" x="111.12" y="-23.7" font-family="Times,serif" font-size="14.00">ls.length = 6</text>
<text xml:space="preserve" text-anchor="middle" x="111.12" y="-7.2" font-family="Times,serif" font-size="14.00">first leaf = [3]</text>
<!-- 4535100208 -->
<g id="node1" class="node">
<title>4535100208</title>
<path fill="lightgray" stroke="lightgray" d="M121,-187.5C121,-187.5 159.25,-187.5 159.25,-187.5 165.25,-187.5 171.25,-193.5 171.25,-199.5 171.25,-199.5 171.25,-211.5 171.25,-211.5 171.25,-217.5 165.25,-223.5 159.25,-223.5 159.25,-223.5 121,-223.5 121,-223.5 115,-223.5 109,-217.5 109,-211.5 109,-211.5 109,-199.5 109,-199.5 109,-193.5 115,-187.5 121,-187.5"/>
<text xml:space="preserve" text-anchor="middle" x="118.88" y="-200.45" font-family="Times,serif" font-size="14.00"> </text>
<polyline fill="none" stroke="lightgray" points="128.75,-187.5 128.75,-223.5"/>
<text xml:space="preserve" text-anchor="middle" x="140.12" y="-200.45" font-family="Times,serif" font-size="14.00">0</text>
<polyline fill="none" stroke="lightgray" points="151.5,-187.5 151.5,-223.5"/>
<text xml:space="preserve" text-anchor="middle" x="161.38" y="-200.45" font-family="Times,serif" font-size="14.00"> </text>
</g>
<!-- 4535650256 -->
<g id="node2" class="node">
<title>4535650256</title>
<path fill="lightgray" stroke="lightgray" d="M71,-114.5C71,-114.5 109.25,-114.5 109.25,-114.5 115.25,-114.5 121.25,-120.5 121.25,-126.5 121.25,-126.5 121.25,-138.5 121.25,-138.5 121.25,-144.5 115.25,-150.5 109.25,-150.5 109.25,-150.5 71,-150.5 71,-150.5 65,-150.5 59,-144.5 59,-138.5 59,-138.5 59,-126.5 59,-126.5 59,-120.5 65,-114.5 71,-114.5"/>
<text xml:space="preserve" text-anchor="middle" x="68.88" y="-127.45" font-family="Times,serif" font-size="14.00"> </text>
<polyline fill="none" stroke="lightgray" points="78.75,-114.5 78.75,-150.5"/>
<text xml:space="preserve" text-anchor="middle" x="90.12" y="-127.45" font-family="Times,serif" font-size="14.00">1</text>
<polyline fill="none" stroke="lightgray" points="101.5,-114.5 101.5,-150.5"/>
<text xml:space="preserve" text-anchor="middle" x="111.38" y="-127.45" font-family="Times,serif" font-size="14.00"> </text>
</g>
<!-- 4535100208&#45;&gt;4535650256 -->
<g id="edge1" class="edge">
<title>4535100208:l&#45;&gt;4535650256:v</title>
<path fill="none" stroke="black" d="M118.88,-187C118.88,-171.16 101.68,-170.54 93.88,-161.59"/>
<polygon fill="black" stroke="black" points="97.27,-160.68 90.63,-152.43 90.68,-163.02 97.27,-160.68"/>
</g>
<!-- 4535650384 -->
<g id="node3" class="node">
<title>4535650384</title>
<path fill="lightgray" stroke="lightgray" d="M172,-114.5C172,-114.5 210.25,-114.5 210.25,-114.5 216.25,-114.5 222.25,-120.5 222.25,-126.5 222.25,-126.5 222.25,-138.5 222.25,-138.5 222.25,-144.5 216.25,-150.5 210.25,-150.5 210.25,-150.5 172,-150.5 172,-150.5 166,-150.5 160,-144.5 160,-138.5 160,-138.5 160,-126.5 160,-126.5 160,-120.5 166,-114.5 172,-114.5"/>
<text xml:space="preserve" text-anchor="middle" x="169.88" y="-127.45" font-family="Times,serif" font-size="14.00"> </text>
<polyline fill="none" stroke="lightgray" points="179.75,-114.5 179.75,-150.5"/>
<text xml:space="preserve" text-anchor="middle" x="191.12" y="-127.45" font-family="Times,serif" font-size="14.00">2</text>
<polyline fill="none" stroke="lightgray" points="202.5,-114.5 202.5,-150.5"/>
<text xml:space="preserve" text-anchor="middle" x="212.38" y="-127.45" font-family="Times,serif" font-size="14.00"> </text>
</g>
<!-- 4535100208&#45;&gt;4535650384 -->
<g id="edge2" class="edge">
<title>4535100208:r&#45;&gt;4535650384:v</title>
<path fill="none" stroke="black" d="M161.38,-187C161.38,-170.95 179.17,-170.61 187.24,-161.67"/>
<polygon fill="black" stroke="black" points="190.47,-163.02 190.61,-152.42 183.89,-160.62 190.47,-163.02"/>
</g>
<!-- 4534518736 -->
<g id="node4" class="node">
<title>4534518736</title>
<path fill="lightgray" stroke="green" d="M12,-41.5C12,-41.5 50.25,-41.5 50.25,-41.5 56.25,-41.5 62.25,-47.5 62.25,-53.5 62.25,-53.5 62.25,-65.5 62.25,-65.5 62.25,-71.5 56.25,-77.5 50.25,-77.5 50.25,-77.5 12,-77.5 12,-77.5 6,-77.5 0,-71.5 0,-65.5 0,-65.5 0,-53.5 0,-53.5 0,-47.5 6,-41.5 12,-41.5"/>
<text xml:space="preserve" text-anchor="middle" x="9.88" y="-54.45" font-family="Times,serif" font-size="14.00"> </text>
<polyline fill="none" stroke="green" points="19.75,-41.5 19.75,-77.5"/>
<text xml:space="preserve" text-anchor="middle" x="31.12" y="-54.45" font-family="Times,serif" font-size="14.00">3</text>
<polyline fill="none" stroke="green" points="42.5,-41.5 42.5,-77.5"/>
<text xml:space="preserve" text-anchor="middle" x="52.38" y="-54.45" font-family="Times,serif" font-size="14.00"> </text>
</g>
<!-- 4535650256&#45;&gt;4534518736 -->
<g id="edge3" class="edge">
<title>4535650256:l&#45;&gt;4534518736:v</title>
<path fill="none" stroke="black" d="M68.88,-114C68.88,-95.53 44.9,-98.36 35.16,-88.54"/>
<polygon fill="black" stroke="black" points="38.51,-87.5 31.67,-79.41 31.98,-90 38.51,-87.5"/>
</g>
<!-- 4534519072 -->
<g id="node5" class="node">
<title>4534519072</title>
<path fill="lightgray" stroke="green" d="M92,-41.5C92,-41.5 130.25,-41.5 130.25,-41.5 136.25,-41.5 142.25,-47.5 142.25,-53.5 142.25,-53.5 142.25,-65.5 142.25,-65.5 142.25,-71.5 136.25,-77.5 130.25,-77.5 130.25,-77.5 92,-77.5 92,-77.5 86,-77.5 80,-71.5 80,-65.5 80,-65.5 80,-53.5 80,-53.5 80,-47.5 86,-41.5 92,-41.5"/>
<text xml:space="preserve" text-anchor="middle" x="89.88" y="-54.45" font-family="Times,serif" font-size="14.00"> </text>
<polyline fill="none" stroke="green" points="99.75,-41.5 99.75,-77.5"/>
<text xml:space="preserve" text-anchor="middle" x="111.12" y="-54.45" font-family="Times,serif" font-size="14.00">4</text>
<polyline fill="none" stroke="green" points="122.5,-41.5 122.5,-77.5"/>
<text xml:space="preserve" text-anchor="middle" x="132.38" y="-54.45" font-family="Times,serif" font-size="14.00"> </text>
</g>
<!-- 4535650256&#45;&gt;4534519072 -->
<g id="edge4" class="edge">
<title>4535650256:r&#45;&gt;4534519072:v</title>
<path fill="none" stroke="black" d="M111.38,-114C111.38,-102.62 111.25,-97.32 111.18,-89.45"/>
<polygon fill="black" stroke="black" points="114.68,-89.5 111.13,-79.51 107.68,-89.53 114.68,-89.5"/>
</g>
<!-- 4534518960 -->
<g id="node6" class="node">
<title>4534518960</title>
<path fill="lightgray" stroke="green" d="M172,-41.5C172,-41.5 210.25,-41.5 210.25,-41.5 216.25,-41.5 222.25,-47.5 222.25,-53.5 222.25,-53.5 222.25,-65.5 222.25,-65.5 222.25,-71.5 216.25,-77.5 210.25,-77.5 210.25,-77.5 172,-77.5 172,-77.5 166,-77.5 160,-71.5 160,-65.5 160,-65.5 160,-53.5 160,-53.5 160,-47.5 166,-41.5 172,-41.5"/>
<text xml:space="preserve" text-anchor="middle" x="169.88" y="-54.45" font-family="Times,serif" font-size="14.00"> </text>
<polyline fill="none" stroke="green" points="179.75,-41.5 179.75,-77.5"/>
<text xml:space="preserve" text-anchor="middle" x="191.12" y="-54.45" font-family="Times,serif" font-size="14.00">5</text>
<polyline fill="none" stroke="green" points="202.5,-41.5 202.5,-77.5"/>
<text xml:space="preserve" text-anchor="middle" x="212.38" y="-54.45" font-family="Times,serif" font-size="14.00"> </text>
</g>
<!-- 4535650384&#45;&gt;4534518960 -->
<g id="edge5" class="edge">
<title>4535650384:l&#45;&gt;4534518960:v</title>
<path fill="none" stroke="black" d="M169.88,-114C169.88,-100.07 181.83,-97.23 187.8,-88.85"/>
<polygon fill="black" stroke="black" points="191.1,-90.03 190.68,-79.45 184.41,-87.99 191.1,-90.03"/>
</g>
</g>
</svg>
