<?xml version="1.0" encoding="UTF-8" standalone="no"?>
<!DOCTYPE svg PUBLIC "-//W3C//DTD SVG 1.1//EN"
 "http://www.w3.org/Graphics/SVG/1.1/DTD/svg11.dtd">
<!-- Generated by graphviz version 14.0.0 (20250921.2048)
 -->
<!-- Pages: 1 -->
<svg width="365pt" height="289pt"
 viewBox="0.00 0.00 365.00 289.00" xmlns="http://www.w3.org/2000/svg" xmlns:xlink="http://www.w3.org/1999/xlink">
<g id="graph0" class="graph" transform="scale(1 1) rotate(0) translate(4 284.5)">
<polygon fill="white" stroke="none" points="-4,4 -4,-284.5 360.62,-284.5 360.62,4 -4,4"/>
<text xml:space="preserve" text-anchor="middle" x="178.31" y="-7.2" font-family="Times,serif" font-size="14.00">MaxHeap [19, 10, 5, 9, 3, 17, 6, 22, 84], heapsize: 7</text>
<!-- 4495592256 -->
<g id="node1" class="node">
<title>4495592256</title>
<path fill="lightgray" stroke="green" d="M216,-244C216,-244 261,-244 261,-244 267,-244 273,-250 273,-256 273,-256 273,-268 273,-268 273,-274 267,-280 261,-280 261,-280 216,-280 216,-280 210,-280 204,-274 204,-268 204,-268 204,-256 204,-256 204,-250 210,-244 216,-244"/>
<text xml:space="preserve" text-anchor="middle" x="213.88" y="-256.95" font-family="Times,serif" font-size="14.00"> </text>
<polyline fill="none" stroke="green" points="223.75,-244 223.75,-280"/>
<text xml:space="preserve" text-anchor="middle" x="238.5" y="-256.95" font-family="Times,serif" font-size="14.00">19</text>
<polyline fill="none" stroke="green" points="253.25,-244 253.25,-280"/>
<text xml:space="preserve" text-anchor="middle" x="263.12" y="-256.95" font-family="Times,serif" font-size="14.00"> </text>
</g>
<!-- 4495600432 -->
<g id="node2" class="node">
<title>4495600432</title>
<path fill="lightgray" stroke="lightgray" d="M111,-171C111,-171 156,-171 156,-171 162,-171 168,-177 168,-183 168,-183 168,-195 168,-195 168,-201 162,-207 156,-207 156,-207 111,-207 111,-207 105,-207 99,-201 99,-195 99,-195 99,-183 99,-183 99,-177 105,-171 111,-171"/>
<text xml:space="preserve" text-anchor="middle" x="108.88" y="-183.95" font-family="Times,serif" font-size="14.00"> </text>
<polyline fill="none" stroke="lightgray" points="118.75,-171 118.75,-207"/>
<text xml:space="preserve" text-anchor="middle" x="133.5" y="-183.95" font-family="Times,serif" font-size="14.00">10</text>
<polyline fill="none" stroke="lightgray" points="148.25,-171 148.25,-207"/>
<text xml:space="preserve" text-anchor="middle" x="158.12" y="-183.95" font-family="Times,serif" font-size="14.00"> </text>
</g>
<!-- 4495592256&#45;&gt;4495600432 -->
<g id="edge1" class="edge">
<title>4495592256:l&#45;&gt;4495600432:v</title>
<path fill="none" stroke="black" d="M213.88,-243.5C213.88,-209.1 151.79,-237.6 136.75,-218.43"/>
<polygon fill="black" stroke="black" points="140.14,-217.54 133.93,-208.95 133.43,-219.53 140.14,-217.54"/>
</g>
<!-- 4495600656 -->
<g id="node3" class="node">
<title>4495600656</title>
<path fill="lightgray" stroke="green" d="M243.38,-171C243.38,-171 281.62,-171 281.62,-171 287.62,-171 293.62,-177 293.62,-183 293.62,-183 293.62,-195 293.62,-195 293.62,-201 287.62,-207 281.62,-207 281.62,-207 243.38,-207 243.38,-207 237.38,-207 231.38,-201 231.38,-195 231.38,-195 231.38,-183 231.38,-183 231.38,-177 237.38,-171 243.38,-171"/>
<text xml:space="preserve" text-anchor="middle" x="241.25" y="-183.95" font-family="Times,serif" font-size="14.00"> </text>
<polyline fill="none" stroke="green" points="251.12,-171 251.12,-207"/>
<text xml:space="preserve" text-anchor="middle" x="262.5" y="-183.95" font-family="Times,serif" font-size="14.00">5</text>
<polyline fill="none" stroke="green" points="273.88,-171 273.88,-207"/>
<text xml:space="preserve" text-anchor="middle" x="283.75" y="-183.95" font-family="Times,serif" font-size="14.00"> </text>
</g>
<!-- 4495592256&#45;&gt;4495600656 -->
<g id="edge2" class="edge">
<title>4495592256:r&#45;&gt;4495600656:v</title>
<path fill="none" stroke="black" d="M263.12,-243.5C263.12,-232.12 262.81,-226.82 262.63,-218.95"/>
<polygon fill="black" stroke="black" points="266.13,-218.97 262.52,-209.01 259.13,-219.05 266.13,-218.97"/>
</g>
<!-- 4495598192 -->
<g id="node4" class="node">
<title>4495598192</title>
<path fill="lightgray" stroke="lightgray" d="M58.38,-98C58.38,-98 96.62,-98 96.62,-98 102.62,-98 108.62,-104 108.62,-110 108.62,-110 108.62,-122 108.62,-122 108.62,-128 102.62,-134 96.62,-134 96.62,-134 58.38,-134 58.38,-134 52.38,-134 46.38,-128 46.38,-122 46.38,-122 46.38,-110 46.38,-110 46.38,-104 52.38,-98 58.38,-98"/>
<text xml:space="preserve" text-anchor="middle" x="56.25" y="-110.95" font-family="Times,serif" font-size="14.00"> </text>
<polyline fill="none" stroke="lightgray" points="66.12,-98 66.12,-134"/>
<text xml:space="preserve" text-anchor="middle" x="77.5" y="-110.95" font-family="Times,serif" font-size="14.00">9</text>
<polyline fill="none" stroke="lightgray" points="88.88,-98 88.88,-134"/>
<text xml:space="preserve" text-anchor="middle" x="98.75" y="-110.95" font-family="Times,serif" font-size="14.00"> </text>
</g>
<!-- 4495600432&#45;&gt;4495598192 -->
<g id="edge3" class="edge">
<title>4495600432:l&#45;&gt;4495598192:v</title>
<path fill="none" stroke="black" d="M108.88,-170.5C108.88,-153.92 89.73,-154.23 81.35,-145.04"/>
<polygon fill="black" stroke="black" points="84.74,-144.11 78.02,-135.92 78.16,-146.52 84.74,-144.11"/>
</g>
<!-- 4495599088 -->
<g id="node5" class="node">
<title>4495599088</title>
<path fill="lightgray" stroke="lightgray" d="M138.38,-98C138.38,-98 176.62,-98 176.62,-98 182.62,-98 188.62,-104 188.62,-110 188.62,-110 188.62,-122 188.62,-122 188.62,-128 182.62,-134 176.62,-134 176.62,-134 138.38,-134 138.38,-134 132.38,-134 126.38,-128 126.38,-122 126.38,-122 126.38,-110 126.38,-110 126.38,-104 132.38,-98 138.38,-98"/>
<text xml:space="preserve" text-anchor="middle" x="136.25" y="-110.95" font-family="Times,serif" font-size="14.00"> </text>
<polyline fill="none" stroke="lightgray" points="146.12,-98 146.12,-134"/>
<text xml:space="preserve" text-anchor="middle" x="157.5" y="-110.95" font-family="Times,serif" font-size="14.00">3</text>
<polyline fill="none" stroke="lightgray" points="168.88,-98 168.88,-134"/>
<text xml:space="preserve" text-anchor="middle" x="178.75" y="-110.95" font-family="Times,serif" font-size="14.00"> </text>
</g>
<!-- 4495600432&#45;&gt;4495599088 -->
<g id="edge4" class="edge">
<title>4495600432:r&#45;&gt;4495599088:v</title>
<path fill="none" stroke="black" d="M158.12,-170.5C158.12,-159.12 157.81,-153.82 157.63,-145.95"/>
<polygon fill="black" stroke="black" points="161.13,-145.97 157.52,-136.01 154.13,-146.05 161.13,-145.97"/>
</g>
<!-- 4495600656&#45;&gt;4495592256 -->
<g id="edge9" class="edge">
<title>4495600656&#45;&gt;4495592256</title>
<path fill="none" stroke="green" d="M256.74,-207.03C254.1,-214.86 250.89,-224.34 247.91,-233.17"/>
<polygon fill="green" stroke="green" points="244.68,-231.78 244.79,-242.38 251.31,-234.03 244.68,-231.78"/>
</g>
<!-- 4495593936 -->
<g id="node6" class="node">
<title>4495593936</title>
<path fill="lightgray" stroke="lightgray" d="M219,-98C219,-98 264,-98 264,-98 270,-98 276,-104 276,-110 276,-110 276,-122 276,-122 276,-128 270,-134 264,-134 264,-134 219,-134 219,-134 213,-134 207,-128 207,-122 207,-122 207,-110 207,-110 207,-104 213,-98 219,-98"/>
<text xml:space="preserve" text-anchor="middle" x="216.88" y="-110.95" font-family="Times,serif" font-size="14.00"> </text>
<polyline fill="none" stroke="lightgray" points="226.75,-98 226.75,-134"/>
<text xml:space="preserve" text-anchor="middle" x="241.5" y="-110.95" font-family="Times,serif" font-size="14.00">17</text>
<polyline fill="none" stroke="lightgray" points="256.25,-98 256.25,-134"/>
<text xml:space="preserve" text-anchor="middle" x="266.12" y="-110.95" font-family="Times,serif" font-size="14.00"> </text>
</g>
<!-- 4495600656&#45;&gt;4495593936 -->
<g id="edge5" class="edge">
<title>4495600656:l&#45;&gt;4495593936:v</title>
<path fill="none" stroke="black" d="M241.25,-170.5C241.25,-159.12 241.38,-153.82 241.45,-145.95"/>
<polygon fill="black" stroke="black" points="244.95,-146.03 241.49,-136.01 237.95,-146 244.95,-146.03"/>
</g>
<!-- 4495598080 -->
<g id="node7" class="node">
<title>4495598080</title>
<path fill="lightgray" stroke="lightgray" d="M306.38,-98C306.38,-98 344.62,-98 344.62,-98 350.62,-98 356.62,-104 356.62,-110 356.62,-110 356.62,-122 356.62,-122 356.62,-128 350.62,-134 344.62,-134 344.62,-134 306.38,-134 306.38,-134 300.38,-134 294.38,-128 294.38,-122 294.38,-122 294.38,-110 294.38,-110 294.38,-104 300.38,-98 306.38,-98"/>
<text xml:space="preserve" text-anchor="middle" x="304.25" y="-110.95" font-family="Times,serif" font-size="14.00"> </text>
<polyline fill="none" stroke="lightgray" points="314.12,-98 314.12,-134"/>
<text xml:space="preserve" text-anchor="middle" x="325.5" y="-110.95" font-family="Times,serif" font-size="14.00">6</text>
<polyline fill="none" stroke="lightgray" points="336.88,-98 336.88,-134"/>
<text xml:space="preserve" text-anchor="middle" x="346.75" y="-110.95" font-family="Times,serif" font-size="14.00"> </text>
</g>
<!-- 4495600656&#45;&gt;4495598080 -->
<g id="edge6" class="edge">
<title>4495600656:r&#45;&gt;4495598080:v</title>
<path fill="none" stroke="black" d="M283.75,-170.5C283.75,-150.78 310.78,-155.35 321.34,-145.12"/>
<polygon fill="black" stroke="black" points="324.56,-146.5 324.95,-135.91 318.05,-143.95 324.56,-146.5"/>
</g>
<!-- 4495600992 -->
<g id="node8" class="node">
<title>4495600992</title>
<path fill="lightgray" stroke="lightgray" d="M12,-25C12,-25 57,-25 57,-25 63,-25 69,-31 69,-37 69,-37 69,-49 69,-49 69,-55 63,-61 57,-61 57,-61 12,-61 12,-61 6,-61 0,-55 0,-49 0,-49 0,-37 0,-37 0,-31 6,-25 12,-25"/>
<text xml:space="preserve" text-anchor="middle" x="9.88" y="-37.95" font-family="Times,serif" font-size="14.00"> </text>
<polyline fill="none" stroke="lightgray" points="19.75,-25 19.75,-61"/>
<text xml:space="preserve" text-anchor="middle" x="34.5" y="-37.95" font-family="Times,serif" font-size="14.00">22</text>
<polyline fill="none" stroke="lightgray" points="49.25,-25 49.25,-61"/>
<text xml:space="preserve" text-anchor="middle" x="59.12" y="-37.95" font-family="Times,serif" font-size="14.00"> </text>
</g>
<!-- 4495598192&#45;&gt;4495600992 -->
<g id="edge7" class="edge">
<title>4495598192:l&#45;&gt;4495600992:v</title>
<path fill="none" stroke="black" d="M56.25,-97.5C56.25,-83.48 44.02,-80.76 37.9,-72.38"/>
<polygon fill="black" stroke="black" points="41.27,-71.45 34.95,-62.94 34.59,-73.53 41.27,-71.45"/>
</g>
<!-- 4495595280 -->
<g id="node9" class="node">
<title>4495595280</title>
<path fill="lightgray" stroke="lightgray" d="M99,-25C99,-25 144,-25 144,-25 150,-25 156,-31 156,-37 156,-37 156,-49 156,-49 156,-55 150,-61 144,-61 144,-61 99,-61 99,-61 93,-61 87,-55 87,-49 87,-49 87,-37 87,-37 87,-31 93,-25 99,-25"/>
<text xml:space="preserve" text-anchor="middle" x="96.88" y="-37.95" font-family="Times,serif" font-size="14.00"> </text>
<polyline fill="none" stroke="lightgray" points="106.75,-25 106.75,-61"/>
<text xml:space="preserve" text-anchor="middle" x="121.5" y="-37.95" font-family="Times,serif" font-size="14.00">84</text>
<polyline fill="none" stroke="lightgray" points="136.25,-25 136.25,-61"/>
<text xml:space="preserve" text-anchor="middle" x="146.12" y="-37.95" font-family="Times,serif" font-size="14.00"> </text>
</g>
<!-- 4495598192&#45;&gt;4495595280 -->
<g id="edge8" class="edge">
<title>4495598192:r&#45;&gt;4495595280:v</title>
<path fill="none" stroke="black" d="M98.75,-97.5C98.75,-83.3 111.55,-80.8 117.95,-72.45"/>
<polygon fill="black" stroke="black" points="121.27,-73.53 121.03,-62.94 114.62,-71.37 121.27,-73.53"/>
</g>
</g>
</svg>
