<?xml version="1.0" encoding="UTF-8" standalone="no"?>
<!DOCTYPE svg PUBLIC "-//W3C//DTD SVG 1.1//EN"
 "http://www.w3.org/Graphics/SVG/1.1/DTD/svg11.dtd">
<!-- Generated by graphviz version 14.0.0 (20250921.2048)
 -->
<!-- Pages: 1 -->
<svg width="318pt" height="216pt"
 viewBox="0.00 0.00 318.00 216.00" xmlns="http://www.w3.org/2000/svg" xmlns:xlink="http://www.w3.org/1999/xlink">
<g id="graph0" class="graph" transform="scale(1 1) rotate(0) translate(4 211.5)">
<polygon fill="white" stroke="none" points="-4,4 -4,-211.5 314.25,-211.5 314.25,4 -4,4"/>
<text xml:space="preserve" text-anchor="middle" x="155.12" y="-7.2" font-family="Times,serif" font-size="14.00">MaxHeap [19, 10, 5, 9, 3, 17, 6, 22, 84], heapsize: 7</text>
<!-- 4534529376 -->
<g id="node1" class="node">
<title>4534529376</title>
<path fill="lightgray" stroke="green" d="M128.62,-171C128.62,-171 173.62,-171 173.62,-171 179.62,-171 185.62,-177 185.62,-183 185.62,-183 185.62,-195 185.62,-195 185.62,-201 179.62,-207 173.62,-207 173.62,-207 128.62,-207 128.62,-207 122.62,-207 116.62,-201 116.62,-195 116.62,-195 116.62,-183 116.62,-183 116.62,-177 122.62,-171 128.62,-171"/>
<text xml:space="preserve" text-anchor="middle" x="126.5" y="-183.95" font-family="Times,serif" font-size="14.00"> </text>
<polyline fill="none" stroke="green" points="136.38,-171 136.38,-207"/>
<text xml:space="preserve" text-anchor="middle" x="151.12" y="-183.95" font-family="Times,serif" font-size="14.00">19</text>
<polyline fill="none" stroke="green" points="165.88,-171 165.88,-207"/>
<text xml:space="preserve" text-anchor="middle" x="175.75" y="-183.95" font-family="Times,serif" font-size="14.00"> </text>
</g>
<!-- 4534521088 -->
<g id="node2" class="node">
<title>4534521088</title>
<path fill="lightgray" stroke="lightgray" d="M64.62,-98C64.62,-98 109.62,-98 109.62,-98 115.62,-98 121.62,-104 121.62,-110 121.62,-110 121.62,-122 121.62,-122 121.62,-128 115.62,-134 109.62,-134 109.62,-134 64.62,-134 64.62,-134 58.62,-134 52.62,-128 52.62,-122 52.62,-122 52.62,-110 52.62,-110 52.62,-104 58.62,-98 64.62,-98"/>
<text xml:space="preserve" text-anchor="middle" x="62.5" y="-110.95" font-family="Times,serif" font-size="14.00"> </text>
<polyline fill="none" stroke="lightgray" points="72.38,-98 72.38,-134"/>
<text xml:space="preserve" text-anchor="middle" x="87.12" y="-110.95" font-family="Times,serif" font-size="14.00">10</text>
<polyline fill="none" stroke="lightgray" points="101.88,-98 101.88,-134"/>
<text xml:space="preserve" text-anchor="middle" x="111.75" y="-110.95" font-family="Times,serif" font-size="14.00"> </text>
</g>
<!-- 4534529376&#45;&gt;4534521088 -->
<g id="edge1" class="edge">
<title>4534529376:l&#45;&gt;4534521088:v</title>
<path fill="none" stroke="black" d="M126.5,-170.5C126.5,-151.6 101.5,-155.02 91.34,-145.19"/>
<polygon fill="black" stroke="black" points="94.6,-143.93 87.68,-135.91 88.09,-146.49 94.6,-143.93"/>
</g>
<!-- 4534524784 -->
<g id="node3" class="node">
<title>4534524784</title>
<path fill="lightgray" stroke="green" d="M197,-98C197,-98 235.25,-98 235.25,-98 241.25,-98 247.25,-104 247.25,-110 247.25,-110 247.25,-122 247.25,-122 247.25,-128 241.25,-134 235.25,-134 235.25,-134 197,-134 197,-134 191,-134 185,-128 185,-122 185,-122 185,-110 185,-110 185,-104 191,-98 197,-98"/>
<text xml:space="preserve" text-anchor="middle" x="194.88" y="-110.95" font-family="Times,serif" font-size="14.00"> </text>
<polyline fill="none" stroke="green" points="204.75,-98 204.75,-134"/>
<text xml:space="preserve" text-anchor="middle" x="216.12" y="-110.95" font-family="Times,serif" font-size="14.00">5</text>
<polyline fill="none" stroke="green" points="227.5,-98 227.5,-134"/>
<text xml:space="preserve" text-anchor="middle" x="237.38" y="-110.95" font-family="Times,serif" font-size="14.00"> </text>
</g>
<!-- 4534529376&#45;&gt;4534524784 -->
<g id="edge2" class="edge">
<title>4534529376:r&#45;&gt;4534524784:v</title>
<path fill="none" stroke="black" d="M175.75,-170.5C175.75,-151.15 201.89,-155.2 212.11,-144.99"/>
<polygon fill="black" stroke="black" points="215.27,-146.5 215.58,-135.91 208.74,-144 215.27,-146.5"/>
</g>
<!-- 4534530048 -->
<g id="node4" class="node">
<title>4534530048</title>
<path fill="lightgray" stroke="lightgray" d="M12,-25C12,-25 50.25,-25 50.25,-25 56.25,-25 62.25,-31 62.25,-37 62.25,-37 62.25,-49 62.25,-49 62.25,-55 56.25,-61 50.25,-61 50.25,-61 12,-61 12,-61 6,-61 0,-55 0,-49 0,-49 0,-37 0,-37 0,-31 6,-25 12,-25"/>
<text xml:space="preserve" text-anchor="middle" x="9.88" y="-37.95" font-family="Times,serif" font-size="14.00"> </text>
<polyline fill="none" stroke="lightgray" points="19.75,-25 19.75,-61"/>
<text xml:space="preserve" text-anchor="middle" x="31.12" y="-37.95" font-family="Times,serif" font-size="14.00">9</text>
<polyline fill="none" stroke="lightgray" points="42.5,-25 42.5,-61"/>
<text xml:space="preserve" text-anchor="middle" x="52.38" y="-37.95" font-family="Times,serif" font-size="14.00"> </text>
</g>
<!-- 4534521088&#45;&gt;4534530048 -->
<g id="edge3" class="edge">
<title>4534521088:l&#45;&gt;4534530048:v</title>
<path fill="none" stroke="black" d="M62.5,-97.5C62.5,-80.92 43.35,-81.23 34.97,-72.04"/>
<polygon fill="black" stroke="black" points="38.36,-71.11 31.64,-62.92 31.79,-73.52 38.36,-71.11"/>
</g>
<!-- 4534523328 -->
<g id="node5" class="node">
<title>4534523328</title>
<path fill="lightgray" stroke="lightgray" d="M92,-25C92,-25 130.25,-25 130.25,-25 136.25,-25 142.25,-31 142.25,-37 142.25,-37 142.25,-49 142.25,-49 142.25,-55 136.25,-61 130.25,-61 130.25,-61 92,-61 92,-61 86,-61 80,-55 80,-49 80,-49 80,-37 80,-37 80,-31 86,-25 92,-25"/>
<text xml:space="preserve" text-anchor="middle" x="89.88" y="-37.95" font-family="Times,serif" font-size="14.00"> </text>
<polyline fill="none" stroke="lightgray" points="99.75,-25 99.75,-61"/>
<text xml:space="preserve" text-anchor="middle" x="111.12" y="-37.95" font-family="Times,serif" font-size="14.00">3</text>
<polyline fill="none" stroke="lightgray" points="122.5,-25 122.5,-61"/>
<text xml:space="preserve" text-anchor="middle" x="132.38" y="-37.95" font-family="Times,serif" font-size="14.00"> </text>
</g>
<!-- 4534521088&#45;&gt;4534523328 -->
<g id="edge4" class="edge">
<title>4534521088:r&#45;&gt;4534523328:v</title>
<path fill="none" stroke="black" d="M111.75,-97.5C111.75,-86.12 111.43,-80.82 111.25,-72.95"/>
<polygon fill="black" stroke="black" points="114.75,-72.97 111.14,-63.01 107.75,-73.05 114.75,-72.97"/>
</g>
<!-- 4534530384 -->
<g id="node6" class="node">
<title>4534530384</title>
<path fill="lightgray" stroke="lightgray" d="M172.62,-25C172.62,-25 217.62,-25 217.62,-25 223.62,-25 229.62,-31 229.62,-37 229.62,-37 229.62,-49 229.62,-49 229.62,-55 223.62,-61 217.62,-61 217.62,-61 172.62,-61 172.62,-61 166.62,-61 160.62,-55 160.62,-49 160.62,-49 160.62,-37 160.62,-37 160.62,-31 166.62,-25 172.62,-25"/>
<text xml:space="preserve" text-anchor="middle" x="170.5" y="-37.95" font-family="Times,serif" font-size="14.00"> </text>
<polyline fill="none" stroke="lightgray" points="180.38,-25 180.38,-61"/>
<text xml:space="preserve" text-anchor="middle" x="195.12" y="-37.95" font-family="Times,serif" font-size="14.00">17</text>
<polyline fill="none" stroke="lightgray" points="209.88,-25 209.88,-61"/>
<text xml:space="preserve" text-anchor="middle" x="219.75" y="-37.95" font-family="Times,serif" font-size="14.00"> </text>
</g>
<!-- 4534524784&#45;&gt;4534530384 -->
<g id="edge5" class="edge">
<title>4534524784:l&#45;&gt;4534530384:v</title>
<path fill="none" stroke="black" d="M194.88,-97.5C194.88,-86.12 195,-80.82 195.07,-72.95"/>
<polygon fill="black" stroke="black" points="198.57,-73.03 195.12,-63.01 191.57,-73 198.57,-73.03"/>
</g>
<!-- 4534529712 -->
<g id="node7" class="node">
<title>4534529712</title>
<path fill="lightgray" stroke="lightgray" d="M260,-25C260,-25 298.25,-25 298.25,-25 304.25,-25 310.25,-31 310.25,-37 310.25,-37 310.25,-49 310.25,-49 310.25,-55 304.25,-61 298.25,-61 298.25,-61 260,-61 260,-61 254,-61 248,-55 248,-49 248,-49 248,-37 248,-37 248,-31 254,-25 260,-25"/>
<text xml:space="preserve" text-anchor="middle" x="257.88" y="-37.95" font-family="Times,serif" font-size="14.00"> </text>
<polyline fill="none" stroke="lightgray" points="267.75,-25 267.75,-61"/>
<text xml:space="preserve" text-anchor="middle" x="279.12" y="-37.95" font-family="Times,serif" font-size="14.00">6</text>
<polyline fill="none" stroke="lightgray" points="290.5,-25 290.5,-61"/>
<text xml:space="preserve" text-anchor="middle" x="300.38" y="-37.95" font-family="Times,serif" font-size="14.00"> </text>
</g>
<!-- 4534524784&#45;&gt;4534529712 -->
<g id="edge6" class="edge">
<title>4534524784:r&#45;&gt;4534529712:v</title>
<path fill="none" stroke="black" d="M237.38,-97.5C237.38,-77.78 264.41,-82.35 274.97,-72.12"/>
<polygon fill="black" stroke="black" points="278.19,-73.5 278.57,-62.91 271.67,-70.95 278.19,-73.5"/>
</g>
</g>
</svg>
