<?xml version="1.0" encoding="UTF-8" standalone="no"?>
<!DOCTYPE svg PUBLIC "-//W3C//DTD SVG 1.1//EN"
 "http://www.w3.org/Graphics/SVG/1.1/DTD/svg11.dtd">
<!-- Generated by graphviz version 14.0.0 (20250921.2048)
 -->
<!-- Pages: 1 -->
<svg width="364pt" height="289pt"
 viewBox="0.00 0.00 364.00 289.00" xmlns="http://www.w3.org/2000/svg" xmlns:xlink="http://www.w3.org/1999/xlink">
<g id="graph0" class="graph" transform="scale(1 1) rotate(0) translate(4 284.5)">
<polygon fill="white" stroke="none" points="-4,4 -4,-284.5 360,-284.5 360,4 -4,4"/>
<text xml:space="preserve" text-anchor="middle" x="178" y="-7.2" font-family="Times,serif" font-size="14.00">MaxHeap [13, 2, 5, 8, 7, 4, 17, 20, 25], heapsize: 6</text>
<!-- 4495600208 -->
<g id="node1" class="node">
<title>4495600208</title>
<path fill="lightgray" stroke="green" d="M138,-244C138,-244 183,-244 183,-244 189,-244 195,-250 195,-256 195,-256 195,-268 195,-268 195,-274 189,-280 183,-280 183,-280 138,-280 138,-280 132,-280 126,-274 126,-268 126,-268 126,-256 126,-256 126,-250 132,-244 138,-244"/>
<text xml:space="preserve" text-anchor="middle" x="135.88" y="-256.95" font-family="Times,serif" font-size="14.00"> </text>
<polyline fill="none" stroke="green" points="145.75,-244 145.75,-280"/>
<text xml:space="preserve" text-anchor="middle" x="160.5" y="-256.95" font-family="Times,serif" font-size="14.00">13</text>
<polyline fill="none" stroke="green" points="175.25,-244 175.25,-280"/>
<text xml:space="preserve" text-anchor="middle" x="185.12" y="-256.95" font-family="Times,serif" font-size="14.00"> </text>
</g>
<!-- 4495602000 -->
<g id="node2" class="node">
<title>4495602000</title>
<path fill="lightgray" stroke="green" d="M117.38,-171C117.38,-171 155.62,-171 155.62,-171 161.62,-171 167.62,-177 167.62,-183 167.62,-183 167.62,-195 167.62,-195 167.62,-201 161.62,-207 155.62,-207 155.62,-207 117.38,-207 117.38,-207 111.38,-207 105.38,-201 105.38,-195 105.38,-195 105.38,-183 105.38,-183 105.38,-177 111.38,-171 117.38,-171"/>
<text xml:space="preserve" text-anchor="middle" x="115.25" y="-183.95" font-family="Times,serif" font-size="14.00"> </text>
<polyline fill="none" stroke="green" points="125.12,-171 125.12,-207"/>
<text xml:space="preserve" text-anchor="middle" x="136.5" y="-183.95" font-family="Times,serif" font-size="14.00">2</text>
<polyline fill="none" stroke="green" points="147.88,-171 147.88,-207"/>
<text xml:space="preserve" text-anchor="middle" x="157.75" y="-183.95" font-family="Times,serif" font-size="14.00"> </text>
</g>
<!-- 4495600208&#45;&gt;4495602000 -->
<g id="edge1" class="edge">
<title>4495600208:l&#45;&gt;4495602000:v</title>
<path fill="none" stroke="black" d="M135.88,-243.5C135.88,-232.12 136.19,-226.82 136.37,-218.95"/>
<polygon fill="black" stroke="black" points="139.87,-219.05 136.48,-209.01 132.87,-218.97 139.87,-219.05"/>
</g>
<!-- 4495601776 -->
<g id="node3" class="node">
<title>4495601776</title>
<path fill="lightgray" stroke="lightgray" d="M239.38,-171C239.38,-171 277.62,-171 277.62,-171 283.62,-171 289.62,-177 289.62,-183 289.62,-183 289.62,-195 289.62,-195 289.62,-201 283.62,-207 277.62,-207 277.62,-207 239.38,-207 239.38,-207 233.38,-207 227.38,-201 227.38,-195 227.38,-195 227.38,-183 227.38,-183 227.38,-177 233.38,-171 239.38,-171"/>
<text xml:space="preserve" text-anchor="middle" x="237.25" y="-183.95" font-family="Times,serif" font-size="14.00"> </text>
<polyline fill="none" stroke="lightgray" points="247.12,-171 247.12,-207"/>
<text xml:space="preserve" text-anchor="middle" x="258.5" y="-183.95" font-family="Times,serif" font-size="14.00">5</text>
<polyline fill="none" stroke="lightgray" points="269.88,-171 269.88,-207"/>
<text xml:space="preserve" text-anchor="middle" x="279.75" y="-183.95" font-family="Times,serif" font-size="14.00"> </text>
</g>
<!-- 4495600208&#45;&gt;4495601776 -->
<g id="edge2" class="edge">
<title>4495600208:r&#45;&gt;4495601776:v</title>
<path fill="none" stroke="black" d="M185.12,-243.5C185.12,-212 240.3,-235.38 254.96,-218.45"/>
<polygon fill="black" stroke="black" points="258.29,-219.53 258.03,-208.94 251.63,-217.38 258.29,-219.53"/>
</g>
<!-- 4495602000&#45;&gt;4495600208 -->
<g id="edge9" class="edge">
<title>4495602000&#45;&gt;4495600208</title>
<path fill="none" stroke="green" d="M142.26,-207.03C144.9,-214.86 148.11,-224.34 151.09,-233.17"/>
<polygon fill="green" stroke="green" points="147.69,-234.03 154.21,-242.38 154.32,-231.78 147.69,-234.03"/>
</g>
<!-- 4495594384 -->
<g id="node4" class="node">
<title>4495594384</title>
<path fill="lightgray" stroke="lightgray" d="M58.38,-98C58.38,-98 96.62,-98 96.62,-98 102.62,-98 108.62,-104 108.62,-110 108.62,-110 108.62,-122 108.62,-122 108.62,-128 102.62,-134 96.62,-134 96.62,-134 58.38,-134 58.38,-134 52.38,-134 46.38,-128 46.38,-122 46.38,-122 46.38,-110 46.38,-110 46.38,-104 52.38,-98 58.38,-98"/>
<text xml:space="preserve" text-anchor="middle" x="56.25" y="-110.95" font-family="Times,serif" font-size="14.00"> </text>
<polyline fill="none" stroke="lightgray" points="66.12,-98 66.12,-134"/>
<text xml:space="preserve" text-anchor="middle" x="77.5" y="-110.95" font-family="Times,serif" font-size="14.00">8</text>
<polyline fill="none" stroke="lightgray" points="88.88,-98 88.88,-134"/>
<text xml:space="preserve" text-anchor="middle" x="98.75" y="-110.95" font-family="Times,serif" font-size="14.00"> </text>
</g>
<!-- 4495602000&#45;&gt;4495594384 -->
<g id="edge3" class="edge">
<title>4495602000:l&#45;&gt;4495594384:v</title>
<path fill="none" stroke="black" d="M115.25,-170.5C115.25,-152.03 91.28,-154.86 81.54,-145.04"/>
<polygon fill="black" stroke="black" points="84.89,-144 78.04,-135.91 78.35,-146.5 84.89,-144"/>
</g>
<!-- 4495598416 -->
<g id="node5" class="node">
<title>4495598416</title>
<path fill="lightgray" stroke="lightgray" d="M138.38,-98C138.38,-98 176.62,-98 176.62,-98 182.62,-98 188.62,-104 188.62,-110 188.62,-110 188.62,-122 188.62,-122 188.62,-128 182.62,-134 176.62,-134 176.62,-134 138.38,-134 138.38,-134 132.38,-134 126.38,-128 126.38,-122 126.38,-122 126.38,-110 126.38,-110 126.38,-104 132.38,-98 138.38,-98"/>
<text xml:space="preserve" text-anchor="middle" x="136.25" y="-110.95" font-family="Times,serif" font-size="14.00"> </text>
<polyline fill="none" stroke="lightgray" points="146.12,-98 146.12,-134"/>
<text xml:space="preserve" text-anchor="middle" x="157.5" y="-110.95" font-family="Times,serif" font-size="14.00">7</text>
<polyline fill="none" stroke="lightgray" points="168.88,-98 168.88,-134"/>
<text xml:space="preserve" text-anchor="middle" x="178.75" y="-110.95" font-family="Times,serif" font-size="14.00"> </text>
</g>
<!-- 4495602000&#45;&gt;4495598416 -->
<g id="edge4" class="edge">
<title>4495602000:r&#45;&gt;4495598416:v</title>
<path fill="none" stroke="black" d="M157.75,-170.5C157.75,-159.12 157.62,-153.82 157.55,-145.95"/>
<polygon fill="black" stroke="black" points="161.05,-146 157.51,-136.01 154.05,-146.03 161.05,-146"/>
</g>
<!-- 4495597520 -->
<g id="node6" class="node">
<title>4495597520</title>
<path fill="lightgray" stroke="lightgray" d="M218.38,-98C218.38,-98 256.62,-98 256.62,-98 262.62,-98 268.62,-104 268.62,-110 268.62,-110 268.62,-122 268.62,-122 268.62,-128 262.62,-134 256.62,-134 256.62,-134 218.38,-134 218.38,-134 212.38,-134 206.38,-128 206.38,-122 206.38,-122 206.38,-110 206.38,-110 206.38,-104 212.38,-98 218.38,-98"/>
<text xml:space="preserve" text-anchor="middle" x="216.25" y="-110.95" font-family="Times,serif" font-size="14.00"> </text>
<polyline fill="none" stroke="lightgray" points="226.12,-98 226.12,-134"/>
<text xml:space="preserve" text-anchor="middle" x="237.5" y="-110.95" font-family="Times,serif" font-size="14.00">4</text>
<polyline fill="none" stroke="lightgray" points="248.88,-98 248.88,-134"/>
<text xml:space="preserve" text-anchor="middle" x="258.75" y="-110.95" font-family="Times,serif" font-size="14.00"> </text>
</g>
<!-- 4495601776&#45;&gt;4495597520 -->
<g id="edge5" class="edge">
<title>4495601776:l&#45;&gt;4495597520:v</title>
<path fill="none" stroke="black" d="M237.25,-170.5C237.25,-159.12 237.38,-153.82 237.45,-145.95"/>
<polygon fill="black" stroke="black" points="240.95,-146.03 237.49,-136.01 233.95,-146 240.95,-146.03"/>
</g>
<!-- 4495598752 -->
<g id="node7" class="node">
<title>4495598752</title>
<path fill="lightgray" stroke="lightgray" d="M299,-98C299,-98 344,-98 344,-98 350,-98 356,-104 356,-110 356,-110 356,-122 356,-122 356,-128 350,-134 344,-134 344,-134 299,-134 299,-134 293,-134 287,-128 287,-122 287,-122 287,-110 287,-110 287,-104 293,-98 299,-98"/>
<text xml:space="preserve" text-anchor="middle" x="296.88" y="-110.95" font-family="Times,serif" font-size="14.00"> </text>
<polyline fill="none" stroke="lightgray" points="306.75,-98 306.75,-134"/>
<text xml:space="preserve" text-anchor="middle" x="321.5" y="-110.95" font-family="Times,serif" font-size="14.00">17</text>
<polyline fill="none" stroke="lightgray" points="336.25,-98 336.25,-134"/>
<text xml:space="preserve" text-anchor="middle" x="346.12" y="-110.95" font-family="Times,serif" font-size="14.00"> </text>
</g>
<!-- 4495601776&#45;&gt;4495598752 -->
<g id="edge6" class="edge">
<title>4495601776:r&#45;&gt;4495598752:v</title>
<path fill="none" stroke="black" d="M279.75,-170.5C279.75,-150.78 306.78,-155.35 317.34,-145.12"/>
<polygon fill="black" stroke="black" points="320.56,-146.5 320.95,-135.91 314.05,-143.95 320.56,-146.5"/>
</g>
<!-- 4495602672 -->
<g id="node8" class="node">
<title>4495602672</title>
<path fill="lightgray" stroke="lightgray" d="M12,-25C12,-25 57,-25 57,-25 63,-25 69,-31 69,-37 69,-37 69,-49 69,-49 69,-55 63,-61 57,-61 57,-61 12,-61 12,-61 6,-61 0,-55 0,-49 0,-49 0,-37 0,-37 0,-31 6,-25 12,-25"/>
<text xml:space="preserve" text-anchor="middle" x="9.88" y="-37.95" font-family="Times,serif" font-size="14.00"> </text>
<polyline fill="none" stroke="lightgray" points="19.75,-25 19.75,-61"/>
<text xml:space="preserve" text-anchor="middle" x="34.5" y="-37.95" font-family="Times,serif" font-size="14.00">20</text>
<polyline fill="none" stroke="lightgray" points="49.25,-25 49.25,-61"/>
<text xml:space="preserve" text-anchor="middle" x="59.12" y="-37.95" font-family="Times,serif" font-size="14.00"> </text>
</g>
<!-- 4495594384&#45;&gt;4495602672 -->
<g id="edge7" class="edge">
<title>4495594384:l&#45;&gt;4495602672:v</title>
<path fill="none" stroke="black" d="M56.25,-97.5C56.25,-83.48 44.02,-80.76 37.9,-72.38"/>
<polygon fill="black" stroke="black" points="41.27,-71.45 34.95,-62.94 34.59,-73.53 41.27,-71.45"/>
</g>
<!-- 4495600096 -->
<g id="node9" class="node">
<title>4495600096</title>
<path fill="lightgray" stroke="lightgray" d="M99,-25C99,-25 144,-25 144,-25 150,-25 156,-31 156,-37 156,-37 156,-49 156,-49 156,-55 150,-61 144,-61 144,-61 99,-61 99,-61 93,-61 87,-55 87,-49 87,-49 87,-37 87,-37 87,-31 93,-25 99,-25"/>
<text xml:space="preserve" text-anchor="middle" x="96.88" y="-37.95" font-family="Times,serif" font-size="14.00"> </text>
<polyline fill="none" stroke="lightgray" points="106.75,-25 106.75,-61"/>
<text xml:space="preserve" text-anchor="middle" x="121.5" y="-37.95" font-family="Times,serif" font-size="14.00">25</text>
<polyline fill="none" stroke="lightgray" points="136.25,-25 136.25,-61"/>
<text xml:space="preserve" text-anchor="middle" x="146.12" y="-37.95" font-family="Times,serif" font-size="14.00"> </text>
</g>
<!-- 4495594384&#45;&gt;4495600096 -->
<g id="edge8" class="edge">
<title>4495594384:r&#45;&gt;4495600096:v</title>
<path fill="none" stroke="black" d="M98.75,-97.5C98.75,-83.3 111.55,-80.8 117.95,-72.45"/>
<polygon fill="black" stroke="black" points="121.27,-73.53 121.03,-62.94 114.62,-71.37 121.27,-73.53"/>
</g>
</g>
</svg>
