<?xml version="1.0" encoding="UTF-8" standalone="no"?>
<!DOCTYPE svg PUBLIC "-//W3C//DTD SVG 1.1//EN"
 "http://www.w3.org/Graphics/SVG/1.1/DTD/svg11.dtd">
<!-- Generated by graphviz version 14.0.0 (20250921.2048)
 -->
<!-- Pages: 1 -->
<svg width="101pt" height="159pt"
 viewBox="0.00 0.00 101.00 159.00" xmlns="http://www.w3.org/2000/svg" xmlns:xlink="http://www.w3.org/1999/xlink">
<g id="graph0" class="graph" transform="scale(1 1) rotate(0) translate(4 155)">
<polygon fill="white" stroke="none" points="-4,4 -4,-155 97.25,-155 97.25,4 -4,4"/>
<text xml:space="preserve" text-anchor="middle" x="46.62" y="-23.7" font-family="Times,serif" font-size="14.00">ls.length = 2</text>
<text xml:space="preserve" text-anchor="middle" x="46.62" y="-7.2" font-family="Times,serif" font-size="14.00">first leaf = [1]</text>
<!-- 4534851600 -->
<g id="node1" class="node">
<title>4534851600</title>
<path fill="lightgray" stroke="lightgray" d="M38,-114.5C38,-114.5 76.25,-114.5 76.25,-114.5 82.25,-114.5 88.25,-120.5 88.25,-126.5 88.25,-126.5 88.25,-138.5 88.25,-138.5 88.25,-144.5 82.25,-150.5 76.25,-150.5 76.25,-150.5 38,-150.5 38,-150.5 32,-150.5 26,-144.5 26,-138.5 26,-138.5 26,-126.5 26,-126.5 26,-120.5 32,-114.5 38,-114.5"/>
<text xml:space="preserve" text-anchor="middle" x="35.88" y="-127.45" font-family="Times,serif" font-size="14.00"> </text>
<polyline fill="none" stroke="lightgray" points="45.75,-114.5 45.75,-150.5"/>
<text xml:space="preserve" text-anchor="middle" x="57.12" y="-127.45" font-family="Times,serif" font-size="14.00">0</text>
<polyline fill="none" stroke="lightgray" points="68.5,-114.5 68.5,-150.5"/>
<text xml:space="preserve" text-anchor="middle" x="78.38" y="-127.45" font-family="Times,serif" font-size="14.00"> </text>
</g>
<!-- 4534851904 -->
<g id="node2" class="node">
<title>4534851904</title>
<path fill="lightgray" stroke="green" d="M17,-41.5C17,-41.5 55.25,-41.5 55.25,-41.5 61.25,-41.5 67.25,-47.5 67.25,-53.5 67.25,-53.5 67.25,-65.5 67.25,-65.5 67.25,-71.5 61.25,-77.5 55.25,-77.5 55.25,-77.5 17,-77.5 17,-77.5 11,-77.5 5,-71.5 5,-65.5 5,-65.5 5,-53.5 5,-53.5 5,-47.5 11,-41.5 17,-41.5"/>
<text xml:space="preserve" text-anchor="middle" x="14.88" y="-54.45" font-family="Times,serif" font-size="14.00"> </text>
<polyline fill="none" stroke="green" points="24.75,-41.5 24.75,-77.5"/>
<text xml:space="preserve" text-anchor="middle" x="36.12" y="-54.45" font-family="Times,serif" font-size="14.00">1</text>
<polyline fill="none" stroke="green" points="47.5,-41.5 47.5,-77.5"/>
<text xml:space="preserve" text-anchor="middle" x="57.38" y="-54.45" font-family="Times,serif" font-size="14.00"> </text>
</g>
<!-- 4534851600&#45;&gt;4534851904 -->
<g id="edge1" class="edge">
<title>4534851600:l&#45;&gt;4534851904:v</title>
<path fill="none" stroke="black" d="M35.88,-114C35.88,-102.62 36,-97.32 36.07,-89.45"/>
<polygon fill="black" stroke="black" points="39.57,-89.53 36.12,-79.51 32.57,-89.5 39.57,-89.53"/>
</g>
</g>
</svg>
