<?xml version="1.0" encoding="UTF-8" standalone="no"?>
<!DOCTYPE svg PUBLIC "-//W3C//DTD SVG 1.1//EN"
 "http://www.w3.org/Graphics/SVG/1.1/DTD/svg11.dtd">
<!-- Generated by graphviz version 14.0.0 (20250921.2048)
 -->
<!-- Pages: 1 -->
<svg width="318pt" height="216pt"
 viewBox="0.00 0.00 318.00 216.00" xmlns="http://www.w3.org/2000/svg" xmlns:xlink="http://www.w3.org/1999/xlink">
<g id="graph0" class="graph" transform="scale(1 1) rotate(0) translate(4 211.5)">
<polygon fill="white" stroke="none" points="-4,4 -4,-211.5 313.62,-211.5 313.62,4 -4,4"/>
<text xml:space="preserve" text-anchor="middle" x="154.81" y="-7.2" font-family="Times,serif" font-size="14.00">MaxHeap [2, 13, 5, 8, 7, 4, 17, 20, 25], heapsize: 7</text>
<!-- 4534524896 -->
<g id="node1" class="node">
<title>4534524896</title>
<path fill="lightgray" stroke="green" d="M130,-171C130,-171 168.25,-171 168.25,-171 174.25,-171 180.25,-177 180.25,-183 180.25,-183 180.25,-195 180.25,-195 180.25,-201 174.25,-207 168.25,-207 168.25,-207 130,-207 130,-207 124,-207 118,-201 118,-195 118,-195 118,-183 118,-183 118,-177 124,-171 130,-171"/>
<text xml:space="preserve" text-anchor="middle" x="127.88" y="-183.95" font-family="Times,serif" font-size="14.00"> </text>
<polyline fill="none" stroke="green" points="137.75,-171 137.75,-207"/>
<text xml:space="preserve" text-anchor="middle" x="149.12" y="-183.95" font-family="Times,serif" font-size="14.00">2</text>
<polyline fill="none" stroke="green" points="160.5,-171 160.5,-207"/>
<text xml:space="preserve" text-anchor="middle" x="170.38" y="-183.95" font-family="Times,serif" font-size="14.00"> </text>
</g>
<!-- 4534528256 -->
<g id="node2" class="node">
<title>4534528256</title>
<path fill="lightgray" stroke="lightgray" d="M64.62,-98C64.62,-98 109.62,-98 109.62,-98 115.62,-98 121.62,-104 121.62,-110 121.62,-110 121.62,-122 121.62,-122 121.62,-128 115.62,-134 109.62,-134 109.62,-134 64.62,-134 64.62,-134 58.62,-134 52.62,-128 52.62,-122 52.62,-122 52.62,-110 52.62,-110 52.62,-104 58.62,-98 64.62,-98"/>
<text xml:space="preserve" text-anchor="middle" x="62.5" y="-110.95" font-family="Times,serif" font-size="14.00"> </text>
<polyline fill="none" stroke="lightgray" points="72.38,-98 72.38,-134"/>
<text xml:space="preserve" text-anchor="middle" x="87.12" y="-110.95" font-family="Times,serif" font-size="14.00">13</text>
<polyline fill="none" stroke="lightgray" points="101.88,-98 101.88,-134"/>
<text xml:space="preserve" text-anchor="middle" x="111.75" y="-110.95" font-family="Times,serif" font-size="14.00"> </text>
</g>
<!-- 4534524896&#45;&gt;4534528256 -->
<g id="edge1" class="edge">
<title>4534524896:l&#45;&gt;4534528256:v</title>
<path fill="none" stroke="black" d="M127.88,-170.5C127.88,-151.05 101.49,-155.24 91.18,-145.03"/>
<polygon fill="black" stroke="black" points="94.53,-143.99 87.67,-135.91 88,-146.5 94.53,-143.99"/>
</g>
<!-- 4534530272 -->
<g id="node3" class="node">
<title>4534530272</title>
<path fill="lightgray" stroke="lightgray" d="M193,-98C193,-98 231.25,-98 231.25,-98 237.25,-98 243.25,-104 243.25,-110 243.25,-110 243.25,-122 243.25,-122 243.25,-128 237.25,-134 231.25,-134 231.25,-134 193,-134 193,-134 187,-134 181,-128 181,-122 181,-122 181,-110 181,-110 181,-104 187,-98 193,-98"/>
<text xml:space="preserve" text-anchor="middle" x="190.88" y="-110.95" font-family="Times,serif" font-size="14.00"> </text>
<polyline fill="none" stroke="lightgray" points="200.75,-98 200.75,-134"/>
<text xml:space="preserve" text-anchor="middle" x="212.12" y="-110.95" font-family="Times,serif" font-size="14.00">5</text>
<polyline fill="none" stroke="lightgray" points="223.5,-98 223.5,-134"/>
<text xml:space="preserve" text-anchor="middle" x="233.38" y="-110.95" font-family="Times,serif" font-size="14.00"> </text>
</g>
<!-- 4534524896&#45;&gt;4534530272 -->
<g id="edge2" class="edge">
<title>4534524896:r&#45;&gt;4534530272:v</title>
<path fill="none" stroke="black" d="M170.38,-170.5C170.38,-150.78 197.41,-155.35 207.97,-145.12"/>
<polygon fill="black" stroke="black" points="211.19,-146.5 211.57,-135.91 204.67,-143.95 211.19,-146.5"/>
</g>
<!-- 4534530160 -->
<g id="node4" class="node">
<title>4534530160</title>
<path fill="lightgray" stroke="lightgray" d="M12,-25C12,-25 50.25,-25 50.25,-25 56.25,-25 62.25,-31 62.25,-37 62.25,-37 62.25,-49 62.25,-49 62.25,-55 56.25,-61 50.25,-61 50.25,-61 12,-61 12,-61 6,-61 0,-55 0,-49 0,-49 0,-37 0,-37 0,-31 6,-25 12,-25"/>
<text xml:space="preserve" text-anchor="middle" x="9.88" y="-37.95" font-family="Times,serif" font-size="14.00"> </text>
<polyline fill="none" stroke="lightgray" points="19.75,-25 19.75,-61"/>
<text xml:space="preserve" text-anchor="middle" x="31.12" y="-37.95" font-family="Times,serif" font-size="14.00">8</text>
<polyline fill="none" stroke="lightgray" points="42.5,-25 42.5,-61"/>
<text xml:space="preserve" text-anchor="middle" x="52.38" y="-37.95" font-family="Times,serif" font-size="14.00"> </text>
</g>
<!-- 4534528256&#45;&gt;4534530160 -->
<g id="edge3" class="edge">
<title>4534528256:l&#45;&gt;4534530160:v</title>
<path fill="none" stroke="black" d="M62.5,-97.5C62.5,-80.92 43.35,-81.23 34.97,-72.04"/>
<polygon fill="black" stroke="black" points="38.36,-71.11 31.64,-62.92 31.79,-73.52 38.36,-71.11"/>
</g>
<!-- 4534528704 -->
<g id="node5" class="node">
<title>4534528704</title>
<path fill="lightgray" stroke="lightgray" d="M92,-25C92,-25 130.25,-25 130.25,-25 136.25,-25 142.25,-31 142.25,-37 142.25,-37 142.25,-49 142.25,-49 142.25,-55 136.25,-61 130.25,-61 130.25,-61 92,-61 92,-61 86,-61 80,-55 80,-49 80,-49 80,-37 80,-37 80,-31 86,-25 92,-25"/>
<text xml:space="preserve" text-anchor="middle" x="89.88" y="-37.95" font-family="Times,serif" font-size="14.00"> </text>
<polyline fill="none" stroke="lightgray" points="99.75,-25 99.75,-61"/>
<text xml:space="preserve" text-anchor="middle" x="111.12" y="-37.95" font-family="Times,serif" font-size="14.00">7</text>
<polyline fill="none" stroke="lightgray" points="122.5,-25 122.5,-61"/>
<text xml:space="preserve" text-anchor="middle" x="132.38" y="-37.95" font-family="Times,serif" font-size="14.00"> </text>
</g>
<!-- 4534528256&#45;&gt;4534528704 -->
<g id="edge4" class="edge">
<title>4534528256:r&#45;&gt;4534528704:v</title>
<path fill="none" stroke="black" d="M111.75,-97.5C111.75,-86.12 111.43,-80.82 111.25,-72.95"/>
<polygon fill="black" stroke="black" points="114.75,-72.97 111.14,-63.01 107.75,-73.05 114.75,-72.97"/>
</g>
<!-- 4534521088 -->
<g id="node6" class="node">
<title>4534521088</title>
<path fill="lightgray" stroke="lightgray" d="M172,-25C172,-25 210.25,-25 210.25,-25 216.25,-25 222.25,-31 222.25,-37 222.25,-37 222.25,-49 222.25,-49 222.25,-55 216.25,-61 210.25,-61 210.25,-61 172,-61 172,-61 166,-61 160,-55 160,-49 160,-49 160,-37 160,-37 160,-31 166,-25 172,-25"/>
<text xml:space="preserve" text-anchor="middle" x="169.88" y="-37.95" font-family="Times,serif" font-size="14.00"> </text>
<polyline fill="none" stroke="lightgray" points="179.75,-25 179.75,-61"/>
<text xml:space="preserve" text-anchor="middle" x="191.12" y="-37.95" font-family="Times,serif" font-size="14.00">4</text>
<polyline fill="none" stroke="lightgray" points="202.5,-25 202.5,-61"/>
<text xml:space="preserve" text-anchor="middle" x="212.38" y="-37.95" font-family="Times,serif" font-size="14.00"> </text>
</g>
<!-- 4534530272&#45;&gt;4534521088 -->
<g id="edge5" class="edge">
<title>4534530272:l&#45;&gt;4534521088:v</title>
<path fill="none" stroke="black" d="M190.88,-97.5C190.88,-86.12 191,-80.82 191.07,-72.95"/>
<polygon fill="black" stroke="black" points="194.57,-73.03 191.12,-63.01 187.57,-73 194.57,-73.03"/>
</g>
<!-- 4534518736 -->
<g id="node7" class="node">
<title>4534518736</title>
<path fill="lightgray" stroke="green" d="M252.62,-25C252.62,-25 297.62,-25 297.62,-25 303.62,-25 309.62,-31 309.62,-37 309.62,-37 309.62,-49 309.62,-49 309.62,-55 303.62,-61 297.62,-61 297.62,-61 252.62,-61 252.62,-61 246.62,-61 240.62,-55 240.62,-49 240.62,-49 240.62,-37 240.62,-37 240.62,-31 246.62,-25 252.62,-25"/>
<text xml:space="preserve" text-anchor="middle" x="250.5" y="-37.95" font-family="Times,serif" font-size="14.00"> </text>
<polyline fill="none" stroke="green" points="260.38,-25 260.38,-61"/>
<text xml:space="preserve" text-anchor="middle" x="275.12" y="-37.95" font-family="Times,serif" font-size="14.00">17</text>
<polyline fill="none" stroke="green" points="289.88,-25 289.88,-61"/>
<text xml:space="preserve" text-anchor="middle" x="299.75" y="-37.95" font-family="Times,serif" font-size="14.00"> </text>
</g>
<!-- 4534530272&#45;&gt;4534518736 -->
<g id="edge6" class="edge">
<title>4534530272:r&#45;&gt;4534518736:v</title>
<path fill="none" stroke="black" d="M233.38,-97.5C233.38,-77.78 260.41,-82.35 270.97,-72.12"/>
<polygon fill="black" stroke="black" points="274.19,-73.5 274.57,-62.91 267.67,-70.95 274.19,-73.5"/>
</g>
</g>
</svg>
