<?xml version="1.0" encoding="UTF-8" standalone="no"?>
<!DOCTYPE svg PUBLIC "-//W3C//DTD SVG 1.1//EN"
 "http://www.w3.org/Graphics/SVG/1.1/DTD/svg11.dtd">
<!-- Generated by graphviz version 14.0.0 (20250921.2048)
 -->
<!-- Pages: 1 -->
<svg width="558pt" height="289pt"
 viewBox="0.00 0.00 558.00 289.00" xmlns="http://www.w3.org/2000/svg" xmlns:xlink="http://www.w3.org/1999/xlink">
<g id="graph0" class="graph" transform="scale(1 1) rotate(0) translate(4 284.5)">
<polygon fill="white" stroke="none" points="-4,4 -4,-284.5 554.25,-284.5 554.25,4 -4,4"/>
<text xml:space="preserve" text-anchor="middle" x="275.12" y="-7.2" font-family="Times,serif" font-size="14.00">MaxHeap [0, 13, 27, 10, 12, 17, 8, 9, 4, 1, 5, 16, 7, 3], heapsize: 14</text>
<!-- 4469874192 -->
<g id="node1" class="node">
<title>4469874192</title>
<path fill="lightgray" stroke="lightgray" d="M278,-244C278,-244 316.25,-244 316.25,-244 322.25,-244 328.25,-250 328.25,-256 328.25,-256 328.25,-268 328.25,-268 328.25,-274 322.25,-280 316.25,-280 316.25,-280 278,-280 278,-280 272,-280 266,-274 266,-268 266,-268 266,-256 266,-256 266,-250 272,-244 278,-244"/>
<text xml:space="preserve" text-anchor="middle" x="275.88" y="-256.95" font-family="Times,serif" font-size="14.00"> </text>
<polyline fill="none" stroke="lightgray" points="285.75,-244 285.75,-280"/>
<text xml:space="preserve" text-anchor="middle" x="297.12" y="-256.95" font-family="Times,serif" font-size="14.00">0</text>
<polyline fill="none" stroke="lightgray" points="308.5,-244 308.5,-280"/>
<text xml:space="preserve" text-anchor="middle" x="318.38" y="-256.95" font-family="Times,serif" font-size="14.00"> </text>
</g>
<!-- 4469872848 -->
<g id="node2" class="node">
<title>4469872848</title>
<path fill="lightgray" stroke="lightgray" d="M168.62,-171C168.62,-171 213.62,-171 213.62,-171 219.62,-171 225.62,-177 225.62,-183 225.62,-183 225.62,-195 225.62,-195 225.62,-201 219.62,-207 213.62,-207 213.62,-207 168.62,-207 168.62,-207 162.62,-207 156.62,-201 156.62,-195 156.62,-195 156.62,-183 156.62,-183 156.62,-177 162.62,-171 168.62,-171"/>
<text xml:space="preserve" text-anchor="middle" x="166.5" y="-183.95" font-family="Times,serif" font-size="14.00"> </text>
<polyline fill="none" stroke="lightgray" points="176.38,-171 176.38,-207"/>
<text xml:space="preserve" text-anchor="middle" x="191.12" y="-183.95" font-family="Times,serif" font-size="14.00">13</text>
<polyline fill="none" stroke="lightgray" points="205.88,-171 205.88,-207"/>
<text xml:space="preserve" text-anchor="middle" x="215.75" y="-183.95" font-family="Times,serif" font-size="14.00"> </text>
</g>
<!-- 4469874192&#45;&gt;4469872848 -->
<g id="edge1" class="edge">
<title>4469874192:l&#45;&gt;4469872848:v</title>
<path fill="none" stroke="black" d="M275.88,-243.5C275.88,-207.21 209.24,-239.15 194.14,-218.32"/>
<polygon fill="black" stroke="black" points="197.59,-217.65 191.53,-208.96 190.85,-219.53 197.59,-217.65"/>
</g>
<!-- 4469874752 -->
<g id="node3" class="node">
<title>4469874752</title>
<path fill="lightgray" stroke="lightgray" d="M398.62,-171C398.62,-171 443.62,-171 443.62,-171 449.62,-171 455.62,-177 455.62,-183 455.62,-183 455.62,-195 455.62,-195 455.62,-201 449.62,-207 443.62,-207 443.62,-207 398.62,-207 398.62,-207 392.62,-207 386.62,-201 386.62,-195 386.62,-195 386.62,-183 386.62,-183 386.62,-177 392.62,-171 398.62,-171"/>
<text xml:space="preserve" text-anchor="middle" x="396.5" y="-183.95" font-family="Times,serif" font-size="14.00"> </text>
<polyline fill="none" stroke="lightgray" points="406.38,-171 406.38,-207"/>
<text xml:space="preserve" text-anchor="middle" x="421.12" y="-183.95" font-family="Times,serif" font-size="14.00">27</text>
<polyline fill="none" stroke="lightgray" points="435.88,-171 435.88,-207"/>
<text xml:space="preserve" text-anchor="middle" x="445.75" y="-183.95" font-family="Times,serif" font-size="14.00"> </text>
</g>
<!-- 4469874192&#45;&gt;4469874752 -->
<g id="edge2" class="edge">
<title>4469874192:r&#45;&gt;4469874752:v</title>
<path fill="none" stroke="black" d="M318.38,-243.5C318.38,-199.65 402.76,-245.45 418.59,-218.41"/>
<polygon fill="black" stroke="black" points="421.92,-219.51 420.78,-208.97 415.11,-217.92 421.92,-219.51"/>
</g>
<!-- 4469872960 -->
<g id="node4" class="node">
<title>4469872960</title>
<path fill="lightgray" stroke="lightgray" d="M64.62,-98C64.62,-98 109.62,-98 109.62,-98 115.62,-98 121.62,-104 121.62,-110 121.62,-110 121.62,-122 121.62,-122 121.62,-128 115.62,-134 109.62,-134 109.62,-134 64.62,-134 64.62,-134 58.62,-134 52.62,-128 52.62,-122 52.62,-122 52.62,-110 52.62,-110 52.62,-104 58.62,-98 64.62,-98"/>
<text xml:space="preserve" text-anchor="middle" x="62.5" y="-110.95" font-family="Times,serif" font-size="14.00"> </text>
<polyline fill="none" stroke="lightgray" points="72.38,-98 72.38,-134"/>
<text xml:space="preserve" text-anchor="middle" x="87.12" y="-110.95" font-family="Times,serif" font-size="14.00">10</text>
<polyline fill="none" stroke="lightgray" points="101.88,-98 101.88,-134"/>
<text xml:space="preserve" text-anchor="middle" x="111.75" y="-110.95" font-family="Times,serif" font-size="14.00"> </text>
</g>
<!-- 4469872848&#45;&gt;4469872960 -->
<g id="edge3" class="edge">
<title>4469872848:l&#45;&gt;4469872960:v</title>
<path fill="none" stroke="black" d="M166.5,-170.5C166.5,-136.45 105.18,-164.37 90.33,-145.33"/>
<polygon fill="black" stroke="black" points="93.75,-144.54 87.56,-135.95 87.04,-146.53 93.75,-144.54"/>
</g>
<!-- 4469868704 -->
<g id="node5" class="node">
<title>4469868704</title>
<path fill="lightgray" stroke="green" d="M192.62,-98C192.62,-98 237.62,-98 237.62,-98 243.62,-98 249.62,-104 249.62,-110 249.62,-110 249.62,-122 249.62,-122 249.62,-128 243.62,-134 237.62,-134 237.62,-134 192.62,-134 192.62,-134 186.62,-134 180.62,-128 180.62,-122 180.62,-122 180.62,-110 180.62,-110 180.62,-104 186.62,-98 192.62,-98"/>
<text xml:space="preserve" text-anchor="middle" x="190.5" y="-110.95" font-family="Times,serif" font-size="14.00"> </text>
<polyline fill="none" stroke="green" points="200.38,-98 200.38,-134"/>
<text xml:space="preserve" text-anchor="middle" x="215.12" y="-110.95" font-family="Times,serif" font-size="14.00">12</text>
<polyline fill="none" stroke="green" points="229.88,-98 229.88,-134"/>
<text xml:space="preserve" text-anchor="middle" x="239.75" y="-110.95" font-family="Times,serif" font-size="14.00"> </text>
</g>
<!-- 4469872848&#45;&gt;4469868704 -->
<g id="edge4" class="edge">
<title>4469872848:r&#45;&gt;4469868704:v</title>
<path fill="none" stroke="black" d="M215.75,-170.5C215.75,-159.12 215.43,-153.82 215.25,-145.95"/>
<polygon fill="black" stroke="black" points="218.75,-145.97 215.14,-136.01 211.75,-146.05 218.75,-145.97"/>
</g>
<!-- 4469876880 -->
<g id="node6" class="node">
<title>4469876880</title>
<path fill="lightgray" stroke="lightgray" d="M374.62,-98C374.62,-98 419.62,-98 419.62,-98 425.62,-98 431.62,-104 431.62,-110 431.62,-110 431.62,-122 431.62,-122 431.62,-128 425.62,-134 419.62,-134 419.62,-134 374.62,-134 374.62,-134 368.62,-134 362.62,-128 362.62,-122 362.62,-122 362.62,-110 362.62,-110 362.62,-104 368.62,-98 374.62,-98"/>
<text xml:space="preserve" text-anchor="middle" x="372.5" y="-110.95" font-family="Times,serif" font-size="14.00"> </text>
<polyline fill="none" stroke="lightgray" points="382.38,-98 382.38,-134"/>
<text xml:space="preserve" text-anchor="middle" x="397.12" y="-110.95" font-family="Times,serif" font-size="14.00">17</text>
<polyline fill="none" stroke="lightgray" points="411.88,-98 411.88,-134"/>
<text xml:space="preserve" text-anchor="middle" x="421.75" y="-110.95" font-family="Times,serif" font-size="14.00"> </text>
</g>
<!-- 4469874752&#45;&gt;4469876880 -->
<g id="edge5" class="edge">
<title>4469874752:l&#45;&gt;4469876880:v</title>
<path fill="none" stroke="black" d="M396.5,-170.5C396.5,-159.12 396.82,-153.82 397,-145.95"/>
<polygon fill="black" stroke="black" points="400.5,-146.05 397.11,-136.01 393.5,-145.97 400.5,-146.05"/>
</g>
<!-- 4469877328 -->
<g id="node7" class="node">
<title>4469877328</title>
<path fill="lightgray" stroke="lightgray" d="M500,-98C500,-98 538.25,-98 538.25,-98 544.25,-98 550.25,-104 550.25,-110 550.25,-110 550.25,-122 550.25,-122 550.25,-128 544.25,-134 538.25,-134 538.25,-134 500,-134 500,-134 494,-134 488,-128 488,-122 488,-122 488,-110 488,-110 488,-104 494,-98 500,-98"/>
<text xml:space="preserve" text-anchor="middle" x="497.88" y="-110.95" font-family="Times,serif" font-size="14.00"> </text>
<polyline fill="none" stroke="lightgray" points="507.75,-98 507.75,-134"/>
<text xml:space="preserve" text-anchor="middle" x="519.12" y="-110.95" font-family="Times,serif" font-size="14.00">8</text>
<polyline fill="none" stroke="lightgray" points="530.5,-98 530.5,-134"/>
<text xml:space="preserve" text-anchor="middle" x="540.38" y="-110.95" font-family="Times,serif" font-size="14.00"> </text>
</g>
<!-- 4469874752&#45;&gt;4469877328 -->
<g id="edge6" class="edge">
<title>4469874752:r&#45;&gt;4469877328:v</title>
<path fill="none" stroke="black" d="M445.75,-170.5C445.75,-139 500.93,-162.38 515.59,-145.45"/>
<polygon fill="black" stroke="black" points="518.92,-146.53 518.66,-135.94 512.25,-144.38 518.92,-146.53"/>
</g>
<!-- 4469877216 -->
<g id="node8" class="node">
<title>4469877216</title>
<path fill="lightgray" stroke="lightgray" d="M12,-25C12,-25 50.25,-25 50.25,-25 56.25,-25 62.25,-31 62.25,-37 62.25,-37 62.25,-49 62.25,-49 62.25,-55 56.25,-61 50.25,-61 50.25,-61 12,-61 12,-61 6,-61 0,-55 0,-49 0,-49 0,-37 0,-37 0,-31 6,-25 12,-25"/>
<text xml:space="preserve" text-anchor="middle" x="9.88" y="-37.95" font-family="Times,serif" font-size="14.00"> </text>
<polyline fill="none" stroke="lightgray" points="19.75,-25 19.75,-61"/>
<text xml:space="preserve" text-anchor="middle" x="31.12" y="-37.95" font-family="Times,serif" font-size="14.00">9</text>
<polyline fill="none" stroke="lightgray" points="42.5,-25 42.5,-61"/>
<text xml:space="preserve" text-anchor="middle" x="52.38" y="-37.95" font-family="Times,serif" font-size="14.00"> </text>
</g>
<!-- 4469872960&#45;&gt;4469877216 -->
<g id="edge7" class="edge">
<title>4469872960:l&#45;&gt;4469877216:v</title>
<path fill="none" stroke="black" d="M62.5,-97.5C62.5,-80.92 43.35,-81.23 34.97,-72.04"/>
<polygon fill="black" stroke="black" points="38.36,-71.11 31.64,-62.92 31.79,-73.52 38.36,-71.11"/>
</g>
<!-- 4469876096 -->
<g id="node9" class="node">
<title>4469876096</title>
<path fill="lightgray" stroke="lightgray" d="M92,-25C92,-25 130.25,-25 130.25,-25 136.25,-25 142.25,-31 142.25,-37 142.25,-37 142.25,-49 142.25,-49 142.25,-55 136.25,-61 130.25,-61 130.25,-61 92,-61 92,-61 86,-61 80,-55 80,-49 80,-49 80,-37 80,-37 80,-31 86,-25 92,-25"/>
<text xml:space="preserve" text-anchor="middle" x="89.88" y="-37.95" font-family="Times,serif" font-size="14.00"> </text>
<polyline fill="none" stroke="lightgray" points="99.75,-25 99.75,-61"/>
<text xml:space="preserve" text-anchor="middle" x="111.12" y="-37.95" font-family="Times,serif" font-size="14.00">4</text>
<polyline fill="none" stroke="lightgray" points="122.5,-25 122.5,-61"/>
<text xml:space="preserve" text-anchor="middle" x="132.38" y="-37.95" font-family="Times,serif" font-size="14.00"> </text>
</g>
<!-- 4469872960&#45;&gt;4469876096 -->
<g id="edge8" class="edge">
<title>4469872960:r&#45;&gt;4469876096:v</title>
<path fill="none" stroke="black" d="M111.75,-97.5C111.75,-86.12 111.43,-80.82 111.25,-72.95"/>
<polygon fill="black" stroke="black" points="114.75,-72.97 111.14,-63.01 107.75,-73.05 114.75,-72.97"/>
</g>
<!-- 4469876432 -->
<g id="node10" class="node">
<title>4469876432</title>
<path fill="lightgray" stroke="green" d="M172,-25C172,-25 210.25,-25 210.25,-25 216.25,-25 222.25,-31 222.25,-37 222.25,-37 222.25,-49 222.25,-49 222.25,-55 216.25,-61 210.25,-61 210.25,-61 172,-61 172,-61 166,-61 160,-55 160,-49 160,-49 160,-37 160,-37 160,-31 166,-25 172,-25"/>
<text xml:space="preserve" text-anchor="middle" x="169.88" y="-37.95" font-family="Times,serif" font-size="14.00"> </text>
<polyline fill="none" stroke="green" points="179.75,-25 179.75,-61"/>
<text xml:space="preserve" text-anchor="middle" x="191.12" y="-37.95" font-family="Times,serif" font-size="14.00">1</text>
<polyline fill="none" stroke="green" points="202.5,-25 202.5,-61"/>
<text xml:space="preserve" text-anchor="middle" x="212.38" y="-37.95" font-family="Times,serif" font-size="14.00"> </text>
</g>
<!-- 4469868704&#45;&gt;4469876432 -->
<g id="edge9" class="edge">
<title>4469868704:l&#45;&gt;4469876432:v</title>
<path fill="none" stroke="black" d="M190.5,-97.5C190.5,-86.12 190.82,-80.82 191,-72.95"/>
<polygon fill="black" stroke="black" points="194.5,-73.05 191.11,-63.01 187.5,-72.97 194.5,-73.05"/>
</g>
<!-- 4469877552 -->
<g id="node11" class="node">
<title>4469877552</title>
<path fill="lightgray" stroke="lightgray" d="M252,-25C252,-25 290.25,-25 290.25,-25 296.25,-25 302.25,-31 302.25,-37 302.25,-37 302.25,-49 302.25,-49 302.25,-55 296.25,-61 290.25,-61 290.25,-61 252,-61 252,-61 246,-61 240,-55 240,-49 240,-49 240,-37 240,-37 240,-31 246,-25 252,-25"/>
<text xml:space="preserve" text-anchor="middle" x="249.88" y="-37.95" font-family="Times,serif" font-size="14.00"> </text>
<polyline fill="none" stroke="lightgray" points="259.75,-25 259.75,-61"/>
<text xml:space="preserve" text-anchor="middle" x="271.12" y="-37.95" font-family="Times,serif" font-size="14.00">5</text>
<polyline fill="none" stroke="lightgray" points="282.5,-25 282.5,-61"/>
<text xml:space="preserve" text-anchor="middle" x="292.38" y="-37.95" font-family="Times,serif" font-size="14.00"> </text>
</g>
<!-- 4469868704&#45;&gt;4469877552 -->
<g id="edge10" class="edge">
<title>4469868704:r&#45;&gt;4469877552:v</title>
<path fill="none" stroke="black" d="M239.75,-97.5C239.75,-80.92 258.9,-81.23 267.28,-72.04"/>
<polygon fill="black" stroke="black" points="270.46,-73.52 270.61,-62.92 263.89,-71.11 270.46,-73.52"/>
</g>
<!-- 4469877440 -->
<g id="node12" class="node">
<title>4469877440</title>
<path fill="lightgray" stroke="lightgray" d="M332.62,-25C332.62,-25 377.62,-25 377.62,-25 383.62,-25 389.62,-31 389.62,-37 389.62,-37 389.62,-49 389.62,-49 389.62,-55 383.62,-61 377.62,-61 377.62,-61 332.62,-61 332.62,-61 326.62,-61 320.62,-55 320.62,-49 320.62,-49 320.62,-37 320.62,-37 320.62,-31 326.62,-25 332.62,-25"/>
<text xml:space="preserve" text-anchor="middle" x="330.5" y="-37.95" font-family="Times,serif" font-size="14.00"> </text>
<polyline fill="none" stroke="lightgray" points="340.38,-25 340.38,-61"/>
<text xml:space="preserve" text-anchor="middle" x="355.12" y="-37.95" font-family="Times,serif" font-size="14.00">16</text>
<polyline fill="none" stroke="lightgray" points="369.88,-25 369.88,-61"/>
<text xml:space="preserve" text-anchor="middle" x="379.75" y="-37.95" font-family="Times,serif" font-size="14.00"> </text>
</g>
<!-- 4469876880&#45;&gt;4469877440 -->
<g id="edge11" class="edge">
<title>4469876880:l&#45;&gt;4469877440:v</title>
<path fill="none" stroke="black" d="M372.5,-97.5C372.5,-84.31 362.93,-80.66 357.99,-72.38"/>
<polygon fill="black" stroke="black" points="361.44,-71.74 355.51,-62.96 354.68,-73.53 361.44,-71.74"/>
</g>
<!-- 4469876544 -->
<g id="node13" class="node">
<title>4469876544</title>
<path fill="lightgray" stroke="lightgray" d="M420,-25C420,-25 458.25,-25 458.25,-25 464.25,-25 470.25,-31 470.25,-37 470.25,-37 470.25,-49 470.25,-49 470.25,-55 464.25,-61 458.25,-61 458.25,-61 420,-61 420,-61 414,-61 408,-55 408,-49 408,-49 408,-37 408,-37 408,-31 414,-25 420,-25"/>
<text xml:space="preserve" text-anchor="middle" x="417.88" y="-37.95" font-family="Times,serif" font-size="14.00"> </text>
<polyline fill="none" stroke="lightgray" points="427.75,-25 427.75,-61"/>
<text xml:space="preserve" text-anchor="middle" x="439.12" y="-37.95" font-family="Times,serif" font-size="14.00">7</text>
<polyline fill="none" stroke="lightgray" points="450.5,-25 450.5,-61"/>
<text xml:space="preserve" text-anchor="middle" x="460.38" y="-37.95" font-family="Times,serif" font-size="14.00"> </text>
</g>
<!-- 4469876880&#45;&gt;4469876544 -->
<g id="edge12" class="edge">
<title>4469876880:r&#45;&gt;4469876544:v</title>
<path fill="none" stroke="black" d="M421.75,-97.5C421.75,-84.31 431.32,-80.66 436.26,-72.38"/>
<polygon fill="black" stroke="black" points="439.57,-73.53 438.74,-62.96 432.81,-71.74 439.57,-73.53"/>
</g>
<!-- 4469876656 -->
<g id="node14" class="node">
<title>4469876656</title>
<path fill="lightgray" stroke="lightgray" d="M500,-25C500,-25 538.25,-25 538.25,-25 544.25,-25 550.25,-31 550.25,-37 550.25,-37 550.25,-49 550.25,-49 550.25,-55 544.25,-61 538.25,-61 538.25,-61 500,-61 500,-61 494,-61 488,-55 488,-49 488,-49 488,-37 488,-37 488,-31 494,-25 500,-25"/>
<text xml:space="preserve" text-anchor="middle" x="497.88" y="-37.95" font-family="Times,serif" font-size="14.00"> </text>
<polyline fill="none" stroke="lightgray" points="507.75,-25 507.75,-61"/>
<text xml:space="preserve" text-anchor="middle" x="519.12" y="-37.95" font-family="Times,serif" font-size="14.00">3</text>
<polyline fill="none" stroke="lightgray" points="530.5,-25 530.5,-61"/>
<text xml:space="preserve" text-anchor="middle" x="540.38" y="-37.95" font-family="Times,serif" font-size="14.00"> </text>
</g>
<!-- 4469877328&#45;&gt;4469876656 -->
<g id="edge13" class="edge">
<title>4469877328:l&#45;&gt;4469876656:v</title>
<path fill="none" stroke="black" d="M497.88,-97.5C497.88,-83.57 509.83,-80.73 515.8,-72.35"/>
<polygon fill="black" stroke="black" points="519.1,-73.53 518.68,-62.95 512.41,-71.49 519.1,-73.53"/>
</g>
<!-- 4469876432&#45;&gt;4469868704 -->
<g id="edge14" class="edge">
<title>4469876432&#45;&gt;4469868704</title>
<path fill="none" stroke="green" d="M196.88,-61.03C199.53,-68.86 202.73,-78.34 205.72,-87.17"/>
<polygon fill="green" stroke="green" points="202.31,-88.03 208.83,-96.38 208.94,-85.78 202.31,-88.03"/>
</g>
</g>
</svg>
