<?xml version="1.0" encoding="UTF-8" standalone="no"?>
<!DOCTYPE svg PUBLIC "-//W3C//DTD SVG 1.1//EN"
 "http://www.w3.org/Graphics/SVG/1.1/DTD/svg11.dtd">
<!-- Generated by graphviz version 14.0.0 (20250921.2048)
 -->
<!-- Pages: 1 -->
<svg width="591pt" height="289pt"
 viewBox="0.00 0.00 591.00 289.00" xmlns="http://www.w3.org/2000/svg" xmlns:xlink="http://www.w3.org/1999/xlink">
<g id="graph0" class="graph" transform="scale(1 1) rotate(0) translate(4 284.5)">
<polygon fill="white" stroke="none" points="-4,4 -4,-284.5 586.62,-284.5 586.62,4 -4,4"/>
<text xml:space="preserve" text-anchor="middle" x="291.31" y="-7.2" font-family="Times,serif" font-size="14.00">MaxHeap [0, 1, 3, 4, 5, 7, 27, 9, 10, 12, 13, 16, 17, 8], heapsize: 14</text>
<!-- 4534521424 -->
<g id="node1" class="node">
<title>4534521424</title>
<path fill="lightgray" stroke="lightgray" d="M291,-244C291,-244 329.25,-244 329.25,-244 335.25,-244 341.25,-250 341.25,-256 341.25,-256 341.25,-268 341.25,-268 341.25,-274 335.25,-280 329.25,-280 329.25,-280 291,-280 291,-280 285,-280 279,-274 279,-268 279,-268 279,-256 279,-256 279,-250 285,-244 291,-244"/>
<text xml:space="preserve" text-anchor="middle" x="288.88" y="-256.95" font-family="Times,serif" font-size="14.00"> </text>
<polyline fill="none" stroke="lightgray" points="298.75,-244 298.75,-280"/>
<text xml:space="preserve" text-anchor="middle" x="310.12" y="-256.95" font-family="Times,serif" font-size="14.00">0</text>
<polyline fill="none" stroke="lightgray" points="321.5,-244 321.5,-280"/>
<text xml:space="preserve" text-anchor="middle" x="331.38" y="-256.95" font-family="Times,serif" font-size="14.00"> </text>
</g>
<!-- 4534527584 -->
<g id="node2" class="node">
<title>4534527584</title>
<path fill="lightgray" stroke="lightgray" d="M206,-171C206,-171 244.25,-171 244.25,-171 250.25,-171 256.25,-177 256.25,-183 256.25,-183 256.25,-195 256.25,-195 256.25,-201 250.25,-207 244.25,-207 244.25,-207 206,-207 206,-207 200,-207 194,-201 194,-195 194,-195 194,-183 194,-183 194,-177 200,-171 206,-171"/>
<text xml:space="preserve" text-anchor="middle" x="203.88" y="-183.95" font-family="Times,serif" font-size="14.00"> </text>
<polyline fill="none" stroke="lightgray" points="213.75,-171 213.75,-207"/>
<text xml:space="preserve" text-anchor="middle" x="225.12" y="-183.95" font-family="Times,serif" font-size="14.00">1</text>
<polyline fill="none" stroke="lightgray" points="236.5,-171 236.5,-207"/>
<text xml:space="preserve" text-anchor="middle" x="246.38" y="-183.95" font-family="Times,serif" font-size="14.00"> </text>
</g>
<!-- 4534521424&#45;&gt;4534527584 -->
<g id="edge1" class="edge">
<title>4534521424:l&#45;&gt;4534527584:v</title>
<path fill="none" stroke="black" d="M288.88,-243.5C288.88,-215.79 242.65,-232.76 228.92,-218.32"/>
<polygon fill="black" stroke="black" points="232.24,-217.21 225.63,-208.93 225.63,-219.52 232.24,-217.21"/>
</g>
<!-- 4534526576 -->
<g id="node3" class="node">
<title>4534526576</title>
<path fill="lightgray" stroke="lightgray" d="M421,-171C421,-171 459.25,-171 459.25,-171 465.25,-171 471.25,-177 471.25,-183 471.25,-183 471.25,-195 471.25,-195 471.25,-201 465.25,-207 459.25,-207 459.25,-207 421,-207 421,-207 415,-207 409,-201 409,-195 409,-195 409,-183 409,-183 409,-177 415,-171 421,-171"/>
<text xml:space="preserve" text-anchor="middle" x="418.88" y="-183.95" font-family="Times,serif" font-size="14.00"> </text>
<polyline fill="none" stroke="lightgray" points="428.75,-171 428.75,-207"/>
<text xml:space="preserve" text-anchor="middle" x="440.12" y="-183.95" font-family="Times,serif" font-size="14.00">3</text>
<polyline fill="none" stroke="lightgray" points="451.5,-171 451.5,-207"/>
<text xml:space="preserve" text-anchor="middle" x="461.38" y="-183.95" font-family="Times,serif" font-size="14.00"> </text>
</g>
<!-- 4534521424&#45;&gt;4534526576 -->
<g id="edge2" class="edge">
<title>4534521424:r&#45;&gt;4534526576:v</title>
<path fill="none" stroke="black" d="M331.38,-243.5C331.38,-197.16 421.46,-247.53 437.65,-218.57"/>
<polygon fill="black" stroke="black" points="441.03,-219.5 439.79,-208.98 434.2,-217.97 441.03,-219.5"/>
</g>
<!-- 4534526912 -->
<g id="node4" class="node">
<title>4534526912</title>
<path fill="lightgray" stroke="lightgray" d="M75,-98C75,-98 113.25,-98 113.25,-98 119.25,-98 125.25,-104 125.25,-110 125.25,-110 125.25,-122 125.25,-122 125.25,-128 119.25,-134 113.25,-134 113.25,-134 75,-134 75,-134 69,-134 63,-128 63,-122 63,-122 63,-110 63,-110 63,-104 69,-98 75,-98"/>
<text xml:space="preserve" text-anchor="middle" x="72.88" y="-110.95" font-family="Times,serif" font-size="14.00"> </text>
<polyline fill="none" stroke="lightgray" points="82.75,-98 82.75,-134"/>
<text xml:space="preserve" text-anchor="middle" x="94.12" y="-110.95" font-family="Times,serif" font-size="14.00">4</text>
<polyline fill="none" stroke="lightgray" points="105.5,-98 105.5,-134"/>
<text xml:space="preserve" text-anchor="middle" x="115.38" y="-110.95" font-family="Times,serif" font-size="14.00"> </text>
</g>
<!-- 4534527584&#45;&gt;4534526912 -->
<g id="edge3" class="edge">
<title>4534527584:l&#45;&gt;4534526912:v</title>
<path fill="none" stroke="black" d="M203.88,-170.5C203.88,-123.78 112.96,-174.81 96.62,-145.65"/>
<polygon fill="black" stroke="black" points="100.06,-144.97 94.46,-135.98 93.23,-146.5 100.06,-144.97"/>
</g>
<!-- 4534527696 -->
<g id="node5" class="node">
<title>4534527696</title>
<path fill="lightgray" stroke="lightgray" d="M227,-98C227,-98 265.25,-98 265.25,-98 271.25,-98 277.25,-104 277.25,-110 277.25,-110 277.25,-122 277.25,-122 277.25,-128 271.25,-134 265.25,-134 265.25,-134 227,-134 227,-134 221,-134 215,-128 215,-122 215,-122 215,-110 215,-110 215,-104 221,-98 227,-98"/>
<text xml:space="preserve" text-anchor="middle" x="224.88" y="-110.95" font-family="Times,serif" font-size="14.00"> </text>
<polyline fill="none" stroke="lightgray" points="234.75,-98 234.75,-134"/>
<text xml:space="preserve" text-anchor="middle" x="246.12" y="-110.95" font-family="Times,serif" font-size="14.00">5</text>
<polyline fill="none" stroke="lightgray" points="257.5,-98 257.5,-134"/>
<text xml:space="preserve" text-anchor="middle" x="267.38" y="-110.95" font-family="Times,serif" font-size="14.00"> </text>
</g>
<!-- 4534527584&#45;&gt;4534527696 -->
<g id="edge4" class="edge">
<title>4534527584:r&#45;&gt;4534527696:v</title>
<path fill="none" stroke="black" d="M246.38,-170.5C246.38,-159.12 246.25,-153.82 246.18,-145.95"/>
<polygon fill="black" stroke="black" points="249.68,-146 246.13,-136.01 242.68,-146.03 249.68,-146"/>
</g>
<!-- 4534526688 -->
<g id="node6" class="node">
<title>4534526688</title>
<path fill="lightgray" stroke="lightgray" d="M400,-98C400,-98 438.25,-98 438.25,-98 444.25,-98 450.25,-104 450.25,-110 450.25,-110 450.25,-122 450.25,-122 450.25,-128 444.25,-134 438.25,-134 438.25,-134 400,-134 400,-134 394,-134 388,-128 388,-122 388,-122 388,-110 388,-110 388,-104 394,-98 400,-98"/>
<text xml:space="preserve" text-anchor="middle" x="397.88" y="-110.95" font-family="Times,serif" font-size="14.00"> </text>
<polyline fill="none" stroke="lightgray" points="407.75,-98 407.75,-134"/>
<text xml:space="preserve" text-anchor="middle" x="419.12" y="-110.95" font-family="Times,serif" font-size="14.00">7</text>
<polyline fill="none" stroke="lightgray" points="430.5,-98 430.5,-134"/>
<text xml:space="preserve" text-anchor="middle" x="440.38" y="-110.95" font-family="Times,serif" font-size="14.00"> </text>
</g>
<!-- 4534526576&#45;&gt;4534526688 -->
<g id="edge5" class="edge">
<title>4534526576:l&#45;&gt;4534526688:v</title>
<path fill="none" stroke="black" d="M418.88,-170.5C418.88,-159.12 419,-153.82 419.07,-145.95"/>
<polygon fill="black" stroke="black" points="422.57,-146.03 419.12,-136.01 415.57,-146 422.57,-146.03"/>
</g>
<!-- 4534527472 -->
<g id="node7" class="node">
<title>4534527472</title>
<path fill="lightgray" stroke="green" d="M525.62,-98C525.62,-98 570.62,-98 570.62,-98 576.62,-98 582.62,-104 582.62,-110 582.62,-110 582.62,-122 582.62,-122 582.62,-128 576.62,-134 570.62,-134 570.62,-134 525.62,-134 525.62,-134 519.62,-134 513.62,-128 513.62,-122 513.62,-122 513.62,-110 513.62,-110 513.62,-104 519.62,-98 525.62,-98"/>
<text xml:space="preserve" text-anchor="middle" x="523.5" y="-110.95" font-family="Times,serif" font-size="14.00"> </text>
<polyline fill="none" stroke="green" points="533.38,-98 533.38,-134"/>
<text xml:space="preserve" text-anchor="middle" x="548.12" y="-110.95" font-family="Times,serif" font-size="14.00">27</text>
<polyline fill="none" stroke="green" points="562.88,-98 562.88,-134"/>
<text xml:space="preserve" text-anchor="middle" x="572.75" y="-110.95" font-family="Times,serif" font-size="14.00"> </text>
</g>
<!-- 4534526576&#45;&gt;4534527472 -->
<g id="edge6" class="edge">
<title>4534526576:r&#45;&gt;4534527472:v</title>
<path fill="none" stroke="black" d="M461.38,-170.5C461.38,-133.49 529.58,-166.63 545.04,-145.51"/>
<polygon fill="black" stroke="black" points="548.39,-146.53 547.72,-135.96 541.65,-144.64 548.39,-146.53"/>
</g>
<!-- 4534524000 -->
<g id="node8" class="node">
<title>4534524000</title>
<path fill="lightgray" stroke="lightgray" d="M12,-25C12,-25 50.25,-25 50.25,-25 56.25,-25 62.25,-31 62.25,-37 62.25,-37 62.25,-49 62.25,-49 62.25,-55 56.25,-61 50.25,-61 50.25,-61 12,-61 12,-61 6,-61 0,-55 0,-49 0,-49 0,-37 0,-37 0,-31 6,-25 12,-25"/>
<text xml:space="preserve" text-anchor="middle" x="9.88" y="-37.95" font-family="Times,serif" font-size="14.00"> </text>
<polyline fill="none" stroke="lightgray" points="19.75,-25 19.75,-61"/>
<text xml:space="preserve" text-anchor="middle" x="31.12" y="-37.95" font-family="Times,serif" font-size="14.00">9</text>
<polyline fill="none" stroke="lightgray" points="42.5,-25 42.5,-61"/>
<text xml:space="preserve" text-anchor="middle" x="52.38" y="-37.95" font-family="Times,serif" font-size="14.00"> </text>
</g>
<!-- 4534526912&#45;&gt;4534524000 -->
<g id="edge7" class="edge">
<title>4534526912:l&#45;&gt;4534524000:v</title>
<path fill="none" stroke="black" d="M72.88,-97.5C72.88,-77.78 45.84,-82.35 35.28,-72.12"/>
<polygon fill="black" stroke="black" points="38.58,-70.95 31.68,-62.91 32.06,-73.5 38.58,-70.95"/>
</g>
<!-- 4534527360 -->
<g id="node9" class="node">
<title>4534527360</title>
<path fill="lightgray" stroke="lightgray" d="M92.62,-25C92.62,-25 137.62,-25 137.62,-25 143.62,-25 149.62,-31 149.62,-37 149.62,-37 149.62,-49 149.62,-49 149.62,-55 143.62,-61 137.62,-61 137.62,-61 92.62,-61 92.62,-61 86.62,-61 80.62,-55 80.62,-49 80.62,-49 80.62,-37 80.62,-37 80.62,-31 86.62,-25 92.62,-25"/>
<text xml:space="preserve" text-anchor="middle" x="90.5" y="-37.95" font-family="Times,serif" font-size="14.00"> </text>
<polyline fill="none" stroke="lightgray" points="100.38,-25 100.38,-61"/>
<text xml:space="preserve" text-anchor="middle" x="115.12" y="-37.95" font-family="Times,serif" font-size="14.00">10</text>
<polyline fill="none" stroke="lightgray" points="129.88,-25 129.88,-61"/>
<text xml:space="preserve" text-anchor="middle" x="139.75" y="-37.95" font-family="Times,serif" font-size="14.00"> </text>
</g>
<!-- 4534526912&#45;&gt;4534527360 -->
<g id="edge8" class="edge">
<title>4534526912:r&#45;&gt;4534527360:v</title>
<path fill="none" stroke="black" d="M115.38,-97.5C115.38,-86.12 115.25,-80.82 115.18,-72.95"/>
<polygon fill="black" stroke="black" points="118.68,-73 115.13,-63.01 111.68,-73.03 118.68,-73"/>
</g>
<!-- 4534527808 -->
<g id="node10" class="node">
<title>4534527808</title>
<path fill="lightgray" stroke="lightgray" d="M179.62,-25C179.62,-25 224.62,-25 224.62,-25 230.62,-25 236.62,-31 236.62,-37 236.62,-37 236.62,-49 236.62,-49 236.62,-55 230.62,-61 224.62,-61 224.62,-61 179.62,-61 179.62,-61 173.62,-61 167.62,-55 167.62,-49 167.62,-49 167.62,-37 167.62,-37 167.62,-31 173.62,-25 179.62,-25"/>
<text xml:space="preserve" text-anchor="middle" x="177.5" y="-37.95" font-family="Times,serif" font-size="14.00"> </text>
<polyline fill="none" stroke="lightgray" points="187.38,-25 187.38,-61"/>
<text xml:space="preserve" text-anchor="middle" x="202.12" y="-37.95" font-family="Times,serif" font-size="14.00">12</text>
<polyline fill="none" stroke="lightgray" points="216.88,-25 216.88,-61"/>
<text xml:space="preserve" text-anchor="middle" x="226.75" y="-37.95" font-family="Times,serif" font-size="14.00"> </text>
</g>
<!-- 4534527696&#45;&gt;4534527808 -->
<g id="edge9" class="edge">
<title>4534527696:l&#45;&gt;4534527808:v</title>
<path fill="none" stroke="black" d="M224.88,-97.5C224.88,-83.3 212.08,-80.8 205.68,-72.45"/>
<polygon fill="black" stroke="black" points="209.01,-71.37 202.59,-62.94 202.35,-73.53 209.01,-71.37"/>
</g>
<!-- 4534527920 -->
<g id="node11" class="node">
<title>4534527920</title>
<path fill="lightgray" stroke="lightgray" d="M266.62,-25C266.62,-25 311.62,-25 311.62,-25 317.62,-25 323.62,-31 323.62,-37 323.62,-37 323.62,-49 323.62,-49 323.62,-55 317.62,-61 311.62,-61 311.62,-61 266.62,-61 266.62,-61 260.62,-61 254.62,-55 254.62,-49 254.62,-49 254.62,-37 254.62,-37 254.62,-31 260.62,-25 266.62,-25"/>
<text xml:space="preserve" text-anchor="middle" x="264.5" y="-37.95" font-family="Times,serif" font-size="14.00"> </text>
<polyline fill="none" stroke="lightgray" points="274.38,-25 274.38,-61"/>
<text xml:space="preserve" text-anchor="middle" x="289.12" y="-37.95" font-family="Times,serif" font-size="14.00">13</text>
<polyline fill="none" stroke="lightgray" points="303.88,-25 303.88,-61"/>
<text xml:space="preserve" text-anchor="middle" x="313.75" y="-37.95" font-family="Times,serif" font-size="14.00"> </text>
</g>
<!-- 4534527696&#45;&gt;4534527920 -->
<g id="edge10" class="edge">
<title>4534527696:r&#45;&gt;4534527920:v</title>
<path fill="none" stroke="black" d="M267.38,-97.5C267.38,-83.48 279.61,-80.76 285.73,-72.38"/>
<polygon fill="black" stroke="black" points="289.03,-73.53 288.67,-62.94 282.35,-71.45 289.03,-73.53"/>
</g>
<!-- 4534528032 -->
<g id="node12" class="node">
<title>4534528032</title>
<path fill="lightgray" stroke="lightgray" d="M353.62,-25C353.62,-25 398.62,-25 398.62,-25 404.62,-25 410.62,-31 410.62,-37 410.62,-37 410.62,-49 410.62,-49 410.62,-55 404.62,-61 398.62,-61 398.62,-61 353.62,-61 353.62,-61 347.62,-61 341.62,-55 341.62,-49 341.62,-49 341.62,-37 341.62,-37 341.62,-31 347.62,-25 353.62,-25"/>
<text xml:space="preserve" text-anchor="middle" x="351.5" y="-37.95" font-family="Times,serif" font-size="14.00"> </text>
<polyline fill="none" stroke="lightgray" points="361.38,-25 361.38,-61"/>
<text xml:space="preserve" text-anchor="middle" x="376.12" y="-37.95" font-family="Times,serif" font-size="14.00">16</text>
<polyline fill="none" stroke="lightgray" points="390.88,-25 390.88,-61"/>
<text xml:space="preserve" text-anchor="middle" x="400.75" y="-37.95" font-family="Times,serif" font-size="14.00"> </text>
</g>
<!-- 4534526688&#45;&gt;4534528032 -->
<g id="edge11" class="edge">
<title>4534526688:l&#45;&gt;4534528032:v</title>
<path fill="none" stroke="black" d="M397.88,-97.5C397.88,-83.48 385.64,-80.76 379.52,-72.38"/>
<polygon fill="black" stroke="black" points="382.9,-71.45 376.58,-62.94 376.22,-73.53 382.9,-71.45"/>
</g>
<!-- 4534528144 -->
<g id="node13" class="node">
<title>4534528144</title>
<path fill="lightgray" stroke="lightgray" d="M440.62,-25C440.62,-25 485.62,-25 485.62,-25 491.62,-25 497.62,-31 497.62,-37 497.62,-37 497.62,-49 497.62,-49 497.62,-55 491.62,-61 485.62,-61 485.62,-61 440.62,-61 440.62,-61 434.62,-61 428.62,-55 428.62,-49 428.62,-49 428.62,-37 428.62,-37 428.62,-31 434.62,-25 440.62,-25"/>
<text xml:space="preserve" text-anchor="middle" x="438.5" y="-37.95" font-family="Times,serif" font-size="14.00"> </text>
<polyline fill="none" stroke="lightgray" points="448.38,-25 448.38,-61"/>
<text xml:space="preserve" text-anchor="middle" x="463.12" y="-37.95" font-family="Times,serif" font-size="14.00">17</text>
<polyline fill="none" stroke="lightgray" points="477.88,-25 477.88,-61"/>
<text xml:space="preserve" text-anchor="middle" x="487.75" y="-37.95" font-family="Times,serif" font-size="14.00"> </text>
</g>
<!-- 4534526688&#45;&gt;4534528144 -->
<g id="edge12" class="edge">
<title>4534526688:r&#45;&gt;4534528144:v</title>
<path fill="none" stroke="black" d="M440.38,-97.5C440.38,-83.3 453.17,-80.8 459.57,-72.45"/>
<polygon fill="black" stroke="black" points="462.9,-73.53 462.66,-62.94 456.24,-71.37 462.9,-73.53"/>
</g>
<!-- 4534528256 -->
<g id="node14" class="node">
<title>4534528256</title>
<path fill="lightgray" stroke="green" d="M528,-25C528,-25 566.25,-25 566.25,-25 572.25,-25 578.25,-31 578.25,-37 578.25,-37 578.25,-49 578.25,-49 578.25,-55 572.25,-61 566.25,-61 566.25,-61 528,-61 528,-61 522,-61 516,-55 516,-49 516,-49 516,-37 516,-37 516,-31 522,-25 528,-25"/>
<text xml:space="preserve" text-anchor="middle" x="525.88" y="-37.95" font-family="Times,serif" font-size="14.00"> </text>
<polyline fill="none" stroke="green" points="535.75,-25 535.75,-61"/>
<text xml:space="preserve" text-anchor="middle" x="547.12" y="-37.95" font-family="Times,serif" font-size="14.00">8</text>
<polyline fill="none" stroke="green" points="558.5,-25 558.5,-61"/>
<text xml:space="preserve" text-anchor="middle" x="568.38" y="-37.95" font-family="Times,serif" font-size="14.00"> </text>
</g>
<!-- 4534527472&#45;&gt;4534528256 -->
<g id="edge13" class="edge">
<title>4534527472:l&#45;&gt;4534528256:v</title>
<path fill="none" stroke="black" d="M523.5,-97.5C523.5,-83 537.07,-80.79 543.64,-72.25"/>
<polygon fill="black" stroke="black" points="546.9,-73.53 546.66,-62.94 540.24,-71.37 546.9,-73.53"/>
</g>
</g>
</svg>
