<?xml version="1.0" encoding="UTF-8" standalone="no"?>
<!DOCTYPE svg PUBLIC "-//W3C//DTD SVG 1.1//EN"
 "http://www.w3.org/Graphics/SVG/1.1/DTD/svg11.dtd">
<!-- Generated by graphviz version 14.0.0 (20250921.2048)
 -->
<!-- Pages: 1 -->
<svg width="590pt" height="289pt"
 viewBox="0.00 0.00 590.00 289.00" xmlns="http://www.w3.org/2000/svg" xmlns:xlink="http://www.w3.org/1999/xlink">
<g id="graph0" class="graph" transform="scale(1 1) rotate(0) translate(4 284.5)">
<polygon fill="white" stroke="none" points="-4,4 -4,-284.5 585.62,-284.5 585.62,4 -4,4"/>
<text xml:space="preserve" text-anchor="middle" x="290.81" y="-7.2" font-family="Times,serif" font-size="14.00">MaxHeap [0, 1, 3, 4, 5, 7, 27, 9, 10, 12, 13, 16, 17, 8], heapsize: 14</text>
<!-- 4495591920 -->
<g id="node1" class="node">
<title>4495591920</title>
<path fill="lightgray" stroke="lightgray" d="M313,-244C313,-244 351.25,-244 351.25,-244 357.25,-244 363.25,-250 363.25,-256 363.25,-256 363.25,-268 363.25,-268 363.25,-274 357.25,-280 351.25,-280 351.25,-280 313,-280 313,-280 307,-280 301,-274 301,-268 301,-268 301,-256 301,-256 301,-250 307,-244 313,-244"/>
<text xml:space="preserve" text-anchor="middle" x="310.88" y="-256.95" font-family="Times,serif" font-size="14.00"> </text>
<polyline fill="none" stroke="lightgray" points="320.75,-244 320.75,-280"/>
<text xml:space="preserve" text-anchor="middle" x="332.12" y="-256.95" font-family="Times,serif" font-size="14.00">0</text>
<polyline fill="none" stroke="lightgray" points="343.5,-244 343.5,-280"/>
<text xml:space="preserve" text-anchor="middle" x="353.38" y="-256.95" font-family="Times,serif" font-size="14.00"> </text>
</g>
<!-- 4495598976 -->
<g id="node2" class="node">
<title>4495598976</title>
<path fill="lightgray" stroke="lightgray" d="M205,-171C205,-171 243.25,-171 243.25,-171 249.25,-171 255.25,-177 255.25,-183 255.25,-183 255.25,-195 255.25,-195 255.25,-201 249.25,-207 243.25,-207 243.25,-207 205,-207 205,-207 199,-207 193,-201 193,-195 193,-195 193,-183 193,-183 193,-177 199,-171 205,-171"/>
<text xml:space="preserve" text-anchor="middle" x="202.88" y="-183.95" font-family="Times,serif" font-size="14.00"> </text>
<polyline fill="none" stroke="lightgray" points="212.75,-171 212.75,-207"/>
<text xml:space="preserve" text-anchor="middle" x="224.12" y="-183.95" font-family="Times,serif" font-size="14.00">1</text>
<polyline fill="none" stroke="lightgray" points="235.5,-171 235.5,-207"/>
<text xml:space="preserve" text-anchor="middle" x="245.38" y="-183.95" font-family="Times,serif" font-size="14.00"> </text>
</g>
<!-- 4495591920&#45;&gt;4495598976 -->
<g id="edge1" class="edge">
<title>4495591920:l&#45;&gt;4495598976:v</title>
<path fill="none" stroke="black" d="M310.88,-243.5C310.88,-206.49 242.67,-239.63 227.21,-218.51"/>
<polygon fill="black" stroke="black" points="230.6,-217.64 224.53,-208.96 223.86,-219.53 230.6,-217.64"/>
</g>
<!-- 4495599312 -->
<g id="node3" class="node">
<title>4495599312</title>
<path fill="lightgray" stroke="lightgray" d="M421,-171C421,-171 459.25,-171 459.25,-171 465.25,-171 471.25,-177 471.25,-183 471.25,-183 471.25,-195 471.25,-195 471.25,-201 465.25,-207 459.25,-207 459.25,-207 421,-207 421,-207 415,-207 409,-201 409,-195 409,-195 409,-183 409,-183 409,-177 415,-171 421,-171"/>
<text xml:space="preserve" text-anchor="middle" x="418.88" y="-183.95" font-family="Times,serif" font-size="14.00"> </text>
<polyline fill="none" stroke="lightgray" points="428.75,-171 428.75,-207"/>
<text xml:space="preserve" text-anchor="middle" x="440.12" y="-183.95" font-family="Times,serif" font-size="14.00">3</text>
<polyline fill="none" stroke="lightgray" points="451.5,-171 451.5,-207"/>
<text xml:space="preserve" text-anchor="middle" x="461.38" y="-183.95" font-family="Times,serif" font-size="14.00"> </text>
</g>
<!-- 4495591920&#45;&gt;4495599312 -->
<g id="edge2" class="edge">
<title>4495591920:r&#45;&gt;4495599312:v</title>
<path fill="none" stroke="black" d="M353.38,-243.5C353.38,-206.49 421.58,-239.63 437.04,-218.51"/>
<polygon fill="black" stroke="black" points="440.39,-219.53 439.72,-208.96 433.65,-217.64 440.39,-219.53"/>
</g>
<!-- 4495600208 -->
<g id="node4" class="node">
<title>4495600208</title>
<path fill="lightgray" stroke="lightgray" d="M75,-98C75,-98 113.25,-98 113.25,-98 119.25,-98 125.25,-104 125.25,-110 125.25,-110 125.25,-122 125.25,-122 125.25,-128 119.25,-134 113.25,-134 113.25,-134 75,-134 75,-134 69,-134 63,-128 63,-122 63,-122 63,-110 63,-110 63,-104 69,-98 75,-98"/>
<text xml:space="preserve" text-anchor="middle" x="72.88" y="-110.95" font-family="Times,serif" font-size="14.00"> </text>
<polyline fill="none" stroke="lightgray" points="82.75,-98 82.75,-134"/>
<text xml:space="preserve" text-anchor="middle" x="94.12" y="-110.95" font-family="Times,serif" font-size="14.00">4</text>
<polyline fill="none" stroke="lightgray" points="105.5,-98 105.5,-134"/>
<text xml:space="preserve" text-anchor="middle" x="115.38" y="-110.95" font-family="Times,serif" font-size="14.00"> </text>
</g>
<!-- 4495598976&#45;&gt;4495600208 -->
<g id="edge3" class="edge">
<title>4495598976:l&#45;&gt;4495600208:v</title>
<path fill="none" stroke="black" d="M202.88,-170.5C202.88,-124.16 112.79,-174.53 96.6,-145.57"/>
<polygon fill="black" stroke="black" points="100.05,-144.97 94.46,-135.98 93.22,-146.5 100.05,-144.97"/>
</g>
<!-- 4495599424 -->
<g id="node5" class="node">
<title>4495599424</title>
<path fill="lightgray" stroke="lightgray" d="M226,-98C226,-98 264.25,-98 264.25,-98 270.25,-98 276.25,-104 276.25,-110 276.25,-110 276.25,-122 276.25,-122 276.25,-128 270.25,-134 264.25,-134 264.25,-134 226,-134 226,-134 220,-134 214,-128 214,-122 214,-122 214,-110 214,-110 214,-104 220,-98 226,-98"/>
<text xml:space="preserve" text-anchor="middle" x="223.88" y="-110.95" font-family="Times,serif" font-size="14.00"> </text>
<polyline fill="none" stroke="lightgray" points="233.75,-98 233.75,-134"/>
<text xml:space="preserve" text-anchor="middle" x="245.12" y="-110.95" font-family="Times,serif" font-size="14.00">5</text>
<polyline fill="none" stroke="lightgray" points="256.5,-98 256.5,-134"/>
<text xml:space="preserve" text-anchor="middle" x="266.38" y="-110.95" font-family="Times,serif" font-size="14.00"> </text>
</g>
<!-- 4495598976&#45;&gt;4495599424 -->
<g id="edge4" class="edge">
<title>4495598976:r&#45;&gt;4495599424:v</title>
<path fill="none" stroke="black" d="M245.38,-170.5C245.38,-159.12 245.25,-153.82 245.18,-145.95"/>
<polygon fill="black" stroke="black" points="248.68,-146 245.13,-136.01 241.68,-146.03 248.68,-146"/>
</g>
<!-- 4495600096 -->
<g id="node6" class="node">
<title>4495600096</title>
<path fill="lightgray" stroke="lightgray" d="M400,-98C400,-98 438.25,-98 438.25,-98 444.25,-98 450.25,-104 450.25,-110 450.25,-110 450.25,-122 450.25,-122 450.25,-128 444.25,-134 438.25,-134 438.25,-134 400,-134 400,-134 394,-134 388,-128 388,-122 388,-122 388,-110 388,-110 388,-104 394,-98 400,-98"/>
<text xml:space="preserve" text-anchor="middle" x="397.88" y="-110.95" font-family="Times,serif" font-size="14.00"> </text>
<polyline fill="none" stroke="lightgray" points="407.75,-98 407.75,-134"/>
<text xml:space="preserve" text-anchor="middle" x="419.12" y="-110.95" font-family="Times,serif" font-size="14.00">7</text>
<polyline fill="none" stroke="lightgray" points="430.5,-98 430.5,-134"/>
<text xml:space="preserve" text-anchor="middle" x="440.38" y="-110.95" font-family="Times,serif" font-size="14.00"> </text>
</g>
<!-- 4495599312&#45;&gt;4495600096 -->
<g id="edge5" class="edge">
<title>4495599312:l&#45;&gt;4495600096:v</title>
<path fill="none" stroke="black" d="M418.88,-170.5C418.88,-159.12 419,-153.82 419.07,-145.95"/>
<polygon fill="black" stroke="black" points="422.57,-146.03 419.12,-136.01 415.57,-146 422.57,-146.03"/>
</g>
<!-- 4495599984 -->
<g id="node7" class="node">
<title>4495599984</title>
<path fill="lightgray" stroke="green" d="M524.62,-98C524.62,-98 569.62,-98 569.62,-98 575.62,-98 581.62,-104 581.62,-110 581.62,-110 581.62,-122 581.62,-122 581.62,-128 575.62,-134 569.62,-134 569.62,-134 524.62,-134 524.62,-134 518.62,-134 512.62,-128 512.62,-122 512.62,-122 512.62,-110 512.62,-110 512.62,-104 518.62,-98 524.62,-98"/>
<text xml:space="preserve" text-anchor="middle" x="522.5" y="-110.95" font-family="Times,serif" font-size="14.00"> </text>
<polyline fill="none" stroke="green" points="532.38,-98 532.38,-134"/>
<text xml:space="preserve" text-anchor="middle" x="547.12" y="-110.95" font-family="Times,serif" font-size="14.00">27</text>
<polyline fill="none" stroke="green" points="561.88,-98 561.88,-134"/>
<text xml:space="preserve" text-anchor="middle" x="571.75" y="-110.95" font-family="Times,serif" font-size="14.00"> </text>
</g>
<!-- 4495599312&#45;&gt;4495599984 -->
<g id="edge6" class="edge">
<title>4495599312:r&#45;&gt;4495599984:v</title>
<path fill="none" stroke="black" d="M461.38,-170.5C461.38,-133.85 528.8,-166.39 544.07,-145.41"/>
<polygon fill="black" stroke="black" points="547.4,-146.53 546.72,-135.96 540.65,-144.65 547.4,-146.53"/>
</g>
<!-- 4495598864 -->
<g id="node8" class="node">
<title>4495598864</title>
<path fill="lightgray" stroke="lightgray" d="M12,-25C12,-25 50.25,-25 50.25,-25 56.25,-25 62.25,-31 62.25,-37 62.25,-37 62.25,-49 62.25,-49 62.25,-55 56.25,-61 50.25,-61 50.25,-61 12,-61 12,-61 6,-61 0,-55 0,-49 0,-49 0,-37 0,-37 0,-31 6,-25 12,-25"/>
<text xml:space="preserve" text-anchor="middle" x="9.88" y="-37.95" font-family="Times,serif" font-size="14.00"> </text>
<polyline fill="none" stroke="lightgray" points="19.75,-25 19.75,-61"/>
<text xml:space="preserve" text-anchor="middle" x="31.12" y="-37.95" font-family="Times,serif" font-size="14.00">9</text>
<polyline fill="none" stroke="lightgray" points="42.5,-25 42.5,-61"/>
<text xml:space="preserve" text-anchor="middle" x="52.38" y="-37.95" font-family="Times,serif" font-size="14.00"> </text>
</g>
<!-- 4495600208&#45;&gt;4495598864 -->
<g id="edge7" class="edge">
<title>4495600208:l&#45;&gt;4495598864:v</title>
<path fill="none" stroke="black" d="M72.88,-97.5C72.88,-77.78 45.84,-82.35 35.28,-72.12"/>
<polygon fill="black" stroke="black" points="38.58,-70.95 31.68,-62.91 32.06,-73.5 38.58,-70.95"/>
</g>
<!-- 4495599200 -->
<g id="node9" class="node">
<title>4495599200</title>
<path fill="lightgray" stroke="lightgray" d="M92.62,-25C92.62,-25 137.62,-25 137.62,-25 143.62,-25 149.62,-31 149.62,-37 149.62,-37 149.62,-49 149.62,-49 149.62,-55 143.62,-61 137.62,-61 137.62,-61 92.62,-61 92.62,-61 86.62,-61 80.62,-55 80.62,-49 80.62,-49 80.62,-37 80.62,-37 80.62,-31 86.62,-25 92.62,-25"/>
<text xml:space="preserve" text-anchor="middle" x="90.5" y="-37.95" font-family="Times,serif" font-size="14.00"> </text>
<polyline fill="none" stroke="lightgray" points="100.38,-25 100.38,-61"/>
<text xml:space="preserve" text-anchor="middle" x="115.12" y="-37.95" font-family="Times,serif" font-size="14.00">10</text>
<polyline fill="none" stroke="lightgray" points="129.88,-25 129.88,-61"/>
<text xml:space="preserve" text-anchor="middle" x="139.75" y="-37.95" font-family="Times,serif" font-size="14.00"> </text>
</g>
<!-- 4495600208&#45;&gt;4495599200 -->
<g id="edge8" class="edge">
<title>4495600208:r&#45;&gt;4495599200:v</title>
<path fill="none" stroke="black" d="M115.38,-97.5C115.38,-86.12 115.25,-80.82 115.18,-72.95"/>
<polygon fill="black" stroke="black" points="118.68,-73 115.13,-63.01 111.68,-73.03 118.68,-73"/>
</g>
<!-- 4495599872 -->
<g id="node10" class="node">
<title>4495599872</title>
<path fill="lightgray" stroke="lightgray" d="M179.62,-25C179.62,-25 224.62,-25 224.62,-25 230.62,-25 236.62,-31 236.62,-37 236.62,-37 236.62,-49 236.62,-49 236.62,-55 230.62,-61 224.62,-61 224.62,-61 179.62,-61 179.62,-61 173.62,-61 167.62,-55 167.62,-49 167.62,-49 167.62,-37 167.62,-37 167.62,-31 173.62,-25 179.62,-25"/>
<text xml:space="preserve" text-anchor="middle" x="177.5" y="-37.95" font-family="Times,serif" font-size="14.00"> </text>
<polyline fill="none" stroke="lightgray" points="187.38,-25 187.38,-61"/>
<text xml:space="preserve" text-anchor="middle" x="202.12" y="-37.95" font-family="Times,serif" font-size="14.00">12</text>
<polyline fill="none" stroke="lightgray" points="216.88,-25 216.88,-61"/>
<text xml:space="preserve" text-anchor="middle" x="226.75" y="-37.95" font-family="Times,serif" font-size="14.00"> </text>
</g>
<!-- 4495599424&#45;&gt;4495599872 -->
<g id="edge9" class="edge">
<title>4495599424:l&#45;&gt;4495599872:v</title>
<path fill="none" stroke="black" d="M223.88,-97.5C223.88,-83.48 211.64,-80.76 205.52,-72.38"/>
<polygon fill="black" stroke="black" points="208.9,-71.45 202.58,-62.94 202.22,-73.53 208.9,-71.45"/>
</g>
<!-- 4495599760 -->
<g id="node11" class="node">
<title>4495599760</title>
<path fill="lightgray" stroke="lightgray" d="M266.62,-25C266.62,-25 311.62,-25 311.62,-25 317.62,-25 323.62,-31 323.62,-37 323.62,-37 323.62,-49 323.62,-49 323.62,-55 317.62,-61 311.62,-61 311.62,-61 266.62,-61 266.62,-61 260.62,-61 254.62,-55 254.62,-49 254.62,-49 254.62,-37 254.62,-37 254.62,-31 260.62,-25 266.62,-25"/>
<text xml:space="preserve" text-anchor="middle" x="264.5" y="-37.95" font-family="Times,serif" font-size="14.00"> </text>
<polyline fill="none" stroke="lightgray" points="274.38,-25 274.38,-61"/>
<text xml:space="preserve" text-anchor="middle" x="289.12" y="-37.95" font-family="Times,serif" font-size="14.00">13</text>
<polyline fill="none" stroke="lightgray" points="303.88,-25 303.88,-61"/>
<text xml:space="preserve" text-anchor="middle" x="313.75" y="-37.95" font-family="Times,serif" font-size="14.00"> </text>
</g>
<!-- 4495599424&#45;&gt;4495599760 -->
<g id="edge10" class="edge">
<title>4495599424:r&#45;&gt;4495599760:v</title>
<path fill="none" stroke="black" d="M266.38,-97.5C266.38,-83.3 279.17,-80.8 285.57,-72.45"/>
<polygon fill="black" stroke="black" points="288.9,-73.53 288.66,-62.94 282.24,-71.37 288.9,-73.53"/>
</g>
<!-- 4495599088 -->
<g id="node12" class="node">
<title>4495599088</title>
<path fill="lightgray" stroke="lightgray" d="M353.62,-25C353.62,-25 398.62,-25 398.62,-25 404.62,-25 410.62,-31 410.62,-37 410.62,-37 410.62,-49 410.62,-49 410.62,-55 404.62,-61 398.62,-61 398.62,-61 353.62,-61 353.62,-61 347.62,-61 341.62,-55 341.62,-49 341.62,-49 341.62,-37 341.62,-37 341.62,-31 347.62,-25 353.62,-25"/>
<text xml:space="preserve" text-anchor="middle" x="351.5" y="-37.95" font-family="Times,serif" font-size="14.00"> </text>
<polyline fill="none" stroke="lightgray" points="361.38,-25 361.38,-61"/>
<text xml:space="preserve" text-anchor="middle" x="376.12" y="-37.95" font-family="Times,serif" font-size="14.00">16</text>
<polyline fill="none" stroke="lightgray" points="390.88,-25 390.88,-61"/>
<text xml:space="preserve" text-anchor="middle" x="400.75" y="-37.95" font-family="Times,serif" font-size="14.00"> </text>
</g>
<!-- 4495600096&#45;&gt;4495599088 -->
<g id="edge11" class="edge">
<title>4495600096:l&#45;&gt;4495599088:v</title>
<path fill="none" stroke="black" d="M397.88,-97.5C397.88,-83.48 385.64,-80.76 379.52,-72.38"/>
<polygon fill="black" stroke="black" points="382.9,-71.45 376.58,-62.94 376.22,-73.53 382.9,-71.45"/>
</g>
<!-- 4495599536 -->
<g id="node13" class="node">
<title>4495599536</title>
<path fill="lightgray" stroke="lightgray" d="M440.62,-25C440.62,-25 485.62,-25 485.62,-25 491.62,-25 497.62,-31 497.62,-37 497.62,-37 497.62,-49 497.62,-49 497.62,-55 491.62,-61 485.62,-61 485.62,-61 440.62,-61 440.62,-61 434.62,-61 428.62,-55 428.62,-49 428.62,-49 428.62,-37 428.62,-37 428.62,-31 434.62,-25 440.62,-25"/>
<text xml:space="preserve" text-anchor="middle" x="438.5" y="-37.95" font-family="Times,serif" font-size="14.00"> </text>
<polyline fill="none" stroke="lightgray" points="448.38,-25 448.38,-61"/>
<text xml:space="preserve" text-anchor="middle" x="463.12" y="-37.95" font-family="Times,serif" font-size="14.00">17</text>
<polyline fill="none" stroke="lightgray" points="477.88,-25 477.88,-61"/>
<text xml:space="preserve" text-anchor="middle" x="487.75" y="-37.95" font-family="Times,serif" font-size="14.00"> </text>
</g>
<!-- 4495600096&#45;&gt;4495599536 -->
<g id="edge12" class="edge">
<title>4495600096:r&#45;&gt;4495599536:v</title>
<path fill="none" stroke="black" d="M440.38,-97.5C440.38,-83.3 453.17,-80.8 459.57,-72.45"/>
<polygon fill="black" stroke="black" points="462.9,-73.53 462.66,-62.94 456.24,-71.37 462.9,-73.53"/>
</g>
<!-- 4495599648 -->
<g id="node14" class="node">
<title>4495599648</title>
<path fill="lightgray" stroke="green" d="M528,-25C528,-25 566.25,-25 566.25,-25 572.25,-25 578.25,-31 578.25,-37 578.25,-37 578.25,-49 578.25,-49 578.25,-55 572.25,-61 566.25,-61 566.25,-61 528,-61 528,-61 522,-61 516,-55 516,-49 516,-49 516,-37 516,-37 516,-31 522,-25 528,-25"/>
<text xml:space="preserve" text-anchor="middle" x="525.88" y="-37.95" font-family="Times,serif" font-size="14.00"> </text>
<polyline fill="none" stroke="green" points="535.75,-25 535.75,-61"/>
<text xml:space="preserve" text-anchor="middle" x="547.12" y="-37.95" font-family="Times,serif" font-size="14.00">8</text>
<polyline fill="none" stroke="green" points="558.5,-25 558.5,-61"/>
<text xml:space="preserve" text-anchor="middle" x="568.38" y="-37.95" font-family="Times,serif" font-size="14.00"> </text>
</g>
<!-- 4495599984&#45;&gt;4495599648 -->
<g id="edge13" class="edge">
<title>4495599984:l&#45;&gt;4495599648:v</title>
<path fill="none" stroke="black" d="M522.5,-97.5C522.5,-82.81 536.64,-80.84 543.49,-72.32"/>
<polygon fill="black" stroke="black" points="546.78,-73.53 546.64,-62.93 540.14,-71.3 546.78,-73.53"/>
</g>
<!-- 4495599648&#45;&gt;4495599984 -->
<g id="edge14" class="edge">
<title>4495599648&#45;&gt;4495599984</title>
<path fill="none" stroke="green" d="M547.12,-61.03C547.12,-68.68 547.12,-77.92 547.12,-86.58"/>
<polygon fill="green" stroke="green" points="543.63,-86.3 547.13,-96.3 550.63,-86.3 543.63,-86.3"/>
</g>
</g>
</svg>
