<?xml version="1.0" encoding="UTF-8" standalone="no"?>
<!DOCTYPE svg PUBLIC "-//W3C//DTD SVG 1.1//EN"
 "http://www.w3.org/Graphics/SVG/1.1/DTD/svg11.dtd">
<!-- Generated by graphviz version 14.0.0 (20250921.2048)
 -->
<!-- Pages: 1 -->
<svg width="356pt" height="289pt"
 viewBox="0.00 0.00 356.00 289.00" xmlns="http://www.w3.org/2000/svg" xmlns:xlink="http://www.w3.org/1999/xlink">
<g id="graph0" class="graph" transform="scale(1 1) rotate(0) translate(4 284.5)">
<polygon fill="white" stroke="none" points="-4,4 -4,-284.5 351.62,-284.5 351.62,4 -4,4"/>
<text xml:space="preserve" text-anchor="middle" x="173.81" y="-7.2" font-family="Times,serif" font-size="14.00">MaxHeap [5, 3, 17, 22, 84, 19, 6, 10, 9], heapsize: 9</text>
<!-- 4469877776 -->
<g id="node1" class="node">
<title>4469877776</title>
<path fill="lightgray" stroke="lightgray" d="M171.38,-244C171.38,-244 209.62,-244 209.62,-244 215.62,-244 221.62,-250 221.62,-256 221.62,-256 221.62,-268 221.62,-268 221.62,-274 215.62,-280 209.62,-280 209.62,-280 171.38,-280 171.38,-280 165.38,-280 159.38,-274 159.38,-268 159.38,-268 159.38,-256 159.38,-256 159.38,-250 165.38,-244 171.38,-244"/>
<text xml:space="preserve" text-anchor="middle" x="169.25" y="-256.95" font-family="Times,serif" font-size="14.00"> </text>
<polyline fill="none" stroke="lightgray" points="179.12,-244 179.12,-280"/>
<text xml:space="preserve" text-anchor="middle" x="190.5" y="-256.95" font-family="Times,serif" font-size="14.00">5</text>
<polyline fill="none" stroke="lightgray" points="201.88,-244 201.88,-280"/>
<text xml:space="preserve" text-anchor="middle" x="211.75" y="-256.95" font-family="Times,serif" font-size="14.00"> </text>
</g>
<!-- 4469878000 -->
<g id="node2" class="node">
<title>4469878000</title>
<path fill="lightgray" stroke="lightgray" d="M105.38,-171C105.38,-171 143.62,-171 143.62,-171 149.62,-171 155.62,-177 155.62,-183 155.62,-183 155.62,-195 155.62,-195 155.62,-201 149.62,-207 143.62,-207 143.62,-207 105.38,-207 105.38,-207 99.38,-207 93.38,-201 93.38,-195 93.38,-195 93.38,-183 93.38,-183 93.38,-177 99.38,-171 105.38,-171"/>
<text xml:space="preserve" text-anchor="middle" x="103.25" y="-183.95" font-family="Times,serif" font-size="14.00"> </text>
<polyline fill="none" stroke="lightgray" points="113.12,-171 113.12,-207"/>
<text xml:space="preserve" text-anchor="middle" x="124.5" y="-183.95" font-family="Times,serif" font-size="14.00">3</text>
<polyline fill="none" stroke="lightgray" points="135.88,-171 135.88,-207"/>
<text xml:space="preserve" text-anchor="middle" x="145.75" y="-183.95" font-family="Times,serif" font-size="14.00"> </text>
</g>
<!-- 4469877776&#45;&gt;4469878000 -->
<g id="edge1" class="edge">
<title>4469877776:l&#45;&gt;4469878000:v</title>
<path fill="none" stroke="black" d="M169.25,-243.5C169.25,-222.76 139.71,-228.81 128.63,-218.11"/>
<polygon fill="black" stroke="black" points="131.94,-216.96 125.05,-208.91 125.41,-219.5 131.94,-216.96"/>
</g>
<!-- 4469878448 -->
<g id="node3" class="node">
<title>4469878448</title>
<path fill="lightgray" stroke="lightgray" d="M234,-171C234,-171 279,-171 279,-171 285,-171 291,-177 291,-183 291,-183 291,-195 291,-195 291,-201 285,-207 279,-207 279,-207 234,-207 234,-207 228,-207 222,-201 222,-195 222,-195 222,-183 222,-183 222,-177 228,-171 234,-171"/>
<text xml:space="preserve" text-anchor="middle" x="231.88" y="-183.95" font-family="Times,serif" font-size="14.00"> </text>
<polyline fill="none" stroke="lightgray" points="241.75,-171 241.75,-207"/>
<text xml:space="preserve" text-anchor="middle" x="256.5" y="-183.95" font-family="Times,serif" font-size="14.00">17</text>
<polyline fill="none" stroke="lightgray" points="271.25,-171 271.25,-207"/>
<text xml:space="preserve" text-anchor="middle" x="281.12" y="-183.95" font-family="Times,serif" font-size="14.00"> </text>
</g>
<!-- 4469877776&#45;&gt;4469878448 -->
<g id="edge2" class="edge">
<title>4469877776:r&#45;&gt;4469878448:v</title>
<path fill="none" stroke="black" d="M211.75,-243.5C211.75,-222.76 241.29,-228.81 252.37,-218.11"/>
<polygon fill="black" stroke="black" points="255.59,-219.5 255.95,-208.91 249.06,-216.96 255.59,-219.5"/>
</g>
<!-- 4469878336 -->
<g id="node4" class="node">
<title>4469878336</title>
<path fill="lightgray" stroke="green" d="M36,-98C36,-98 81,-98 81,-98 87,-98 93,-104 93,-110 93,-110 93,-122 93,-122 93,-128 87,-134 81,-134 81,-134 36,-134 36,-134 30,-134 24,-128 24,-122 24,-122 24,-110 24,-110 24,-104 30,-98 36,-98"/>
<text xml:space="preserve" text-anchor="middle" x="33.88" y="-110.95" font-family="Times,serif" font-size="14.00"> </text>
<polyline fill="none" stroke="green" points="43.75,-98 43.75,-134"/>
<text xml:space="preserve" text-anchor="middle" x="58.5" y="-110.95" font-family="Times,serif" font-size="14.00">22</text>
<polyline fill="none" stroke="green" points="73.25,-98 73.25,-134"/>
<text xml:space="preserve" text-anchor="middle" x="83.12" y="-110.95" font-family="Times,serif" font-size="14.00"> </text>
</g>
<!-- 4469878000&#45;&gt;4469878336 -->
<g id="edge3" class="edge">
<title>4469878000:l&#45;&gt;4469878336:v</title>
<path fill="none" stroke="black" d="M103.25,-170.5C103.25,-149.76 73.71,-155.81 62.63,-145.11"/>
<polygon fill="black" stroke="black" points="65.94,-143.96 59.05,-135.91 59.41,-146.5 65.94,-143.96"/>
</g>
<!-- 4469877888 -->
<g id="node5" class="node">
<title>4469877888</title>
<path fill="lightgray" stroke="lightgray" d="M123,-98C123,-98 168,-98 168,-98 174,-98 180,-104 180,-110 180,-110 180,-122 180,-122 180,-128 174,-134 168,-134 168,-134 123,-134 123,-134 117,-134 111,-128 111,-122 111,-122 111,-110 111,-110 111,-104 117,-98 123,-98"/>
<text xml:space="preserve" text-anchor="middle" x="120.88" y="-110.95" font-family="Times,serif" font-size="14.00"> </text>
<polyline fill="none" stroke="lightgray" points="130.75,-98 130.75,-134"/>
<text xml:space="preserve" text-anchor="middle" x="145.5" y="-110.95" font-family="Times,serif" font-size="14.00">84</text>
<polyline fill="none" stroke="lightgray" points="160.25,-98 160.25,-134"/>
<text xml:space="preserve" text-anchor="middle" x="170.12" y="-110.95" font-family="Times,serif" font-size="14.00"> </text>
</g>
<!-- 4469878000&#45;&gt;4469877888 -->
<g id="edge4" class="edge">
<title>4469878000:r&#45;&gt;4469877888:v</title>
<path fill="none" stroke="black" d="M145.75,-170.5C145.75,-159.12 145.62,-153.82 145.55,-145.95"/>
<polygon fill="black" stroke="black" points="149.05,-146 145.51,-136.01 142.05,-146.03 149.05,-146"/>
</g>
<!-- 4469878224 -->
<g id="node6" class="node">
<title>4469878224</title>
<path fill="lightgray" stroke="lightgray" d="M210,-98C210,-98 255,-98 255,-98 261,-98 267,-104 267,-110 267,-110 267,-122 267,-122 267,-128 261,-134 255,-134 255,-134 210,-134 210,-134 204,-134 198,-128 198,-122 198,-122 198,-110 198,-110 198,-104 204,-98 210,-98"/>
<text xml:space="preserve" text-anchor="middle" x="207.88" y="-110.95" font-family="Times,serif" font-size="14.00"> </text>
<polyline fill="none" stroke="lightgray" points="217.75,-98 217.75,-134"/>
<text xml:space="preserve" text-anchor="middle" x="232.5" y="-110.95" font-family="Times,serif" font-size="14.00">19</text>
<polyline fill="none" stroke="lightgray" points="247.25,-98 247.25,-134"/>
<text xml:space="preserve" text-anchor="middle" x="257.12" y="-110.95" font-family="Times,serif" font-size="14.00"> </text>
</g>
<!-- 4469878448&#45;&gt;4469878224 -->
<g id="edge5" class="edge">
<title>4469878448:l&#45;&gt;4469878224:v</title>
<path fill="none" stroke="black" d="M231.88,-170.5C231.88,-159.12 232.19,-153.82 232.37,-145.95"/>
<polygon fill="black" stroke="black" points="235.87,-146.05 232.48,-136.01 228.87,-145.97 235.87,-146.05"/>
</g>
<!-- 4469878112 -->
<g id="node7" class="node">
<title>4469878112</title>
<path fill="lightgray" stroke="lightgray" d="M297.38,-98C297.38,-98 335.62,-98 335.62,-98 341.62,-98 347.62,-104 347.62,-110 347.62,-110 347.62,-122 347.62,-122 347.62,-128 341.62,-134 335.62,-134 335.62,-134 297.38,-134 297.38,-134 291.38,-134 285.38,-128 285.38,-122 285.38,-122 285.38,-110 285.38,-110 285.38,-104 291.38,-98 297.38,-98"/>
<text xml:space="preserve" text-anchor="middle" x="295.25" y="-110.95" font-family="Times,serif" font-size="14.00"> </text>
<polyline fill="none" stroke="lightgray" points="305.12,-98 305.12,-134"/>
<text xml:space="preserve" text-anchor="middle" x="316.5" y="-110.95" font-family="Times,serif" font-size="14.00">6</text>
<polyline fill="none" stroke="lightgray" points="327.88,-98 327.88,-134"/>
<text xml:space="preserve" text-anchor="middle" x="337.75" y="-110.95" font-family="Times,serif" font-size="14.00"> </text>
</g>
<!-- 4469878448&#45;&gt;4469878112 -->
<g id="edge6" class="edge">
<title>4469878448:r&#45;&gt;4469878112:v</title>
<path fill="none" stroke="black" d="M281.12,-170.5C281.12,-152.8 303.15,-154.58 312.44,-145.11"/>
<polygon fill="black" stroke="black" points="315.65,-146.5 315.96,-135.91 309.12,-144 315.65,-146.5"/>
</g>
<!-- 4469878672 -->
<g id="node8" class="node">
<title>4469878672</title>
<path fill="lightgray" stroke="green" d="M12,-25C12,-25 57,-25 57,-25 63,-25 69,-31 69,-37 69,-37 69,-49 69,-49 69,-55 63,-61 57,-61 57,-61 12,-61 12,-61 6,-61 0,-55 0,-49 0,-49 0,-37 0,-37 0,-31 6,-25 12,-25"/>
<text xml:space="preserve" text-anchor="middle" x="9.88" y="-37.95" font-family="Times,serif" font-size="14.00"> </text>
<polyline fill="none" stroke="green" points="19.75,-25 19.75,-61"/>
<text xml:space="preserve" text-anchor="middle" x="34.5" y="-37.95" font-family="Times,serif" font-size="14.00">10</text>
<polyline fill="none" stroke="green" points="49.25,-25 49.25,-61"/>
<text xml:space="preserve" text-anchor="middle" x="59.12" y="-37.95" font-family="Times,serif" font-size="14.00"> </text>
</g>
<!-- 4469878336&#45;&gt;4469878672 -->
<g id="edge7" class="edge">
<title>4469878336:l&#45;&gt;4469878672:v</title>
<path fill="none" stroke="black" d="M33.88,-97.5C33.88,-86.12 34.19,-80.82 34.37,-72.95"/>
<polygon fill="black" stroke="black" points="37.87,-73.05 34.48,-63.01 30.87,-72.97 37.87,-73.05"/>
</g>
<!-- 4469878560 -->
<g id="node9" class="node">
<title>4469878560</title>
<path fill="lightgray" stroke="lightgray" d="M99.38,-25C99.38,-25 137.62,-25 137.62,-25 143.62,-25 149.62,-31 149.62,-37 149.62,-37 149.62,-49 149.62,-49 149.62,-55 143.62,-61 137.62,-61 137.62,-61 99.38,-61 99.38,-61 93.38,-61 87.38,-55 87.38,-49 87.38,-49 87.38,-37 87.38,-37 87.38,-31 93.38,-25 99.38,-25"/>
<text xml:space="preserve" text-anchor="middle" x="97.25" y="-37.95" font-family="Times,serif" font-size="14.00"> </text>
<polyline fill="none" stroke="lightgray" points="107.12,-25 107.12,-61"/>
<text xml:space="preserve" text-anchor="middle" x="118.5" y="-37.95" font-family="Times,serif" font-size="14.00">9</text>
<polyline fill="none" stroke="lightgray" points="129.88,-25 129.88,-61"/>
<text xml:space="preserve" text-anchor="middle" x="139.75" y="-37.95" font-family="Times,serif" font-size="14.00"> </text>
</g>
<!-- 4469878336&#45;&gt;4469878560 -->
<g id="edge8" class="edge">
<title>4469878336:r&#45;&gt;4469878560:v</title>
<path fill="none" stroke="black" d="M83.12,-97.5C83.12,-79.8 105.15,-81.58 114.44,-72.11"/>
<polygon fill="black" stroke="black" points="117.65,-73.5 117.96,-62.91 111.12,-71 117.65,-73.5"/>
</g>
<!-- 4469878672&#45;&gt;4469878336 -->
<g id="edge9" class="edge">
<title>4469878672&#45;&gt;4469878336</title>
<path fill="none" stroke="green" d="M40.26,-61.03C42.9,-68.86 46.11,-78.34 49.09,-87.17"/>
<polygon fill="green" stroke="green" points="45.69,-88.03 52.21,-96.38 52.32,-85.78 45.69,-88.03"/>
</g>
</g>
</svg>
