<?xml version="1.0" encoding="UTF-8" standalone="no"?>
<!DOCTYPE svg PUBLIC "-//W3C//DTD SVG 1.1//EN"
 "http://www.w3.org/Graphics/SVG/1.1/DTD/svg11.dtd">
<!-- Generated by graphviz version 14.0.0 (20250921.2048)
 -->
<!-- Pages: 1 -->
<svg width="310pt" height="232pt"
 viewBox="0.00 0.00 310.00 232.00" xmlns="http://www.w3.org/2000/svg" xmlns:xlink="http://www.w3.org/1999/xlink">
<g id="graph0" class="graph" transform="scale(1 1) rotate(0) translate(4 228)">
<polygon fill="white" stroke="none" points="-4,4 -4,-228 306.25,-228 306.25,4 -4,4"/>
<text xml:space="preserve" text-anchor="middle" x="151.12" y="-23.7" font-family="Times,serif" font-size="14.00">ls.length = 7</text>
<text xml:space="preserve" text-anchor="middle" x="151.12" y="-7.2" font-family="Times,serif" font-size="14.00">first leaf = [3]</text>
<!-- 4534519184 -->
<g id="node1" class="node">
<title>4534519184</title>
<path fill="lightgray" stroke="lightgray" d="M132,-187.5C132,-187.5 170.25,-187.5 170.25,-187.5 176.25,-187.5 182.25,-193.5 182.25,-199.5 182.25,-199.5 182.25,-211.5 182.25,-211.5 182.25,-217.5 176.25,-223.5 170.25,-223.5 170.25,-223.5 132,-223.5 132,-223.5 126,-223.5 120,-217.5 120,-211.5 120,-211.5 120,-199.5 120,-199.5 120,-193.5 126,-187.5 132,-187.5"/>
<text xml:space="preserve" text-anchor="middle" x="129.88" y="-200.45" font-family="Times,serif" font-size="14.00"> </text>
<polyline fill="none" stroke="lightgray" points="139.75,-187.5 139.75,-223.5"/>
<text xml:space="preserve" text-anchor="middle" x="151.12" y="-200.45" font-family="Times,serif" font-size="14.00">0</text>
<polyline fill="none" stroke="lightgray" points="162.5,-187.5 162.5,-223.5"/>
<text xml:space="preserve" text-anchor="middle" x="172.38" y="-200.45" font-family="Times,serif" font-size="14.00"> </text>
</g>
<!-- 4534518512 -->
<g id="node2" class="node">
<title>4534518512</title>
<path fill="lightgray" stroke="lightgray" d="M71,-114.5C71,-114.5 109.25,-114.5 109.25,-114.5 115.25,-114.5 121.25,-120.5 121.25,-126.5 121.25,-126.5 121.25,-138.5 121.25,-138.5 121.25,-144.5 115.25,-150.5 109.25,-150.5 109.25,-150.5 71,-150.5 71,-150.5 65,-150.5 59,-144.5 59,-138.5 59,-138.5 59,-126.5 59,-126.5 59,-120.5 65,-114.5 71,-114.5"/>
<text xml:space="preserve" text-anchor="middle" x="68.88" y="-127.45" font-family="Times,serif" font-size="14.00"> </text>
<polyline fill="none" stroke="lightgray" points="78.75,-114.5 78.75,-150.5"/>
<text xml:space="preserve" text-anchor="middle" x="90.12" y="-127.45" font-family="Times,serif" font-size="14.00">1</text>
<polyline fill="none" stroke="lightgray" points="101.5,-114.5 101.5,-150.5"/>
<text xml:space="preserve" text-anchor="middle" x="111.38" y="-127.45" font-family="Times,serif" font-size="14.00"> </text>
</g>
<!-- 4534519184&#45;&gt;4534518512 -->
<g id="edge1" class="edge">
<title>4534519184:l&#45;&gt;4534518512:v</title>
<path fill="none" stroke="black" d="M129.88,-187C129.88,-167.82 104.14,-171.63 94.08,-161.43"/>
<polygon fill="black" stroke="black" points="97.48,-160.52 90.66,-152.42 90.94,-163.01 97.48,-160.52"/>
</g>
<!-- 4534519632 -->
<g id="node3" class="node">
<title>4534519632</title>
<path fill="lightgray" stroke="lightgray" d="M193,-114.5C193,-114.5 231.25,-114.5 231.25,-114.5 237.25,-114.5 243.25,-120.5 243.25,-126.5 243.25,-126.5 243.25,-138.5 243.25,-138.5 243.25,-144.5 237.25,-150.5 231.25,-150.5 231.25,-150.5 193,-150.5 193,-150.5 187,-150.5 181,-144.5 181,-138.5 181,-138.5 181,-126.5 181,-126.5 181,-120.5 187,-114.5 193,-114.5"/>
<text xml:space="preserve" text-anchor="middle" x="190.88" y="-127.45" font-family="Times,serif" font-size="14.00"> </text>
<polyline fill="none" stroke="lightgray" points="200.75,-114.5 200.75,-150.5"/>
<text xml:space="preserve" text-anchor="middle" x="212.12" y="-127.45" font-family="Times,serif" font-size="14.00">2</text>
<polyline fill="none" stroke="lightgray" points="223.5,-114.5 223.5,-150.5"/>
<text xml:space="preserve" text-anchor="middle" x="233.38" y="-127.45" font-family="Times,serif" font-size="14.00"> </text>
</g>
<!-- 4534519184&#45;&gt;4534519632 -->
<g id="edge2" class="edge">
<title>4534519184:r&#45;&gt;4534519632:v</title>
<path fill="none" stroke="black" d="M172.38,-187C172.38,-167.82 198.11,-171.63 208.17,-161.43"/>
<polygon fill="black" stroke="black" points="211.31,-163.01 211.59,-152.42 204.77,-160.52 211.31,-163.01"/>
</g>
<!-- 4534518624 -->
<g id="node4" class="node">
<title>4534518624</title>
<path fill="lightgray" stroke="green" d="M12,-41.5C12,-41.5 50.25,-41.5 50.25,-41.5 56.25,-41.5 62.25,-47.5 62.25,-53.5 62.25,-53.5 62.25,-65.5 62.25,-65.5 62.25,-71.5 56.25,-77.5 50.25,-77.5 50.25,-77.5 12,-77.5 12,-77.5 6,-77.5 0,-71.5 0,-65.5 0,-65.5 0,-53.5 0,-53.5 0,-47.5 6,-41.5 12,-41.5"/>
<text xml:space="preserve" text-anchor="middle" x="9.88" y="-54.45" font-family="Times,serif" font-size="14.00"> </text>
<polyline fill="none" stroke="green" points="19.75,-41.5 19.75,-77.5"/>
<text xml:space="preserve" text-anchor="middle" x="31.12" y="-54.45" font-family="Times,serif" font-size="14.00">3</text>
<polyline fill="none" stroke="green" points="42.5,-41.5 42.5,-77.5"/>
<text xml:space="preserve" text-anchor="middle" x="52.38" y="-54.45" font-family="Times,serif" font-size="14.00"> </text>
</g>
<!-- 4534518512&#45;&gt;4534518624 -->
<g id="edge3" class="edge">
<title>4534518512:l&#45;&gt;4534518624:v</title>
<path fill="none" stroke="black" d="M68.88,-114C68.88,-95.53 44.9,-98.36 35.16,-88.54"/>
<polygon fill="black" stroke="black" points="38.51,-87.5 31.67,-79.41 31.98,-90 38.51,-87.5"/>
</g>
<!-- 4534519296 -->
<g id="node5" class="node">
<title>4534519296</title>
<path fill="lightgray" stroke="green" d="M92,-41.5C92,-41.5 130.25,-41.5 130.25,-41.5 136.25,-41.5 142.25,-47.5 142.25,-53.5 142.25,-53.5 142.25,-65.5 142.25,-65.5 142.25,-71.5 136.25,-77.5 130.25,-77.5 130.25,-77.5 92,-77.5 92,-77.5 86,-77.5 80,-71.5 80,-65.5 80,-65.5 80,-53.5 80,-53.5 80,-47.5 86,-41.5 92,-41.5"/>
<text xml:space="preserve" text-anchor="middle" x="89.88" y="-54.45" font-family="Times,serif" font-size="14.00"> </text>
<polyline fill="none" stroke="green" points="99.75,-41.5 99.75,-77.5"/>
<text xml:space="preserve" text-anchor="middle" x="111.12" y="-54.45" font-family="Times,serif" font-size="14.00">4</text>
<polyline fill="none" stroke="green" points="122.5,-41.5 122.5,-77.5"/>
<text xml:space="preserve" text-anchor="middle" x="132.38" y="-54.45" font-family="Times,serif" font-size="14.00"> </text>
</g>
<!-- 4534518512&#45;&gt;4534519296 -->
<g id="edge4" class="edge">
<title>4534518512:r&#45;&gt;4534519296:v</title>
<path fill="none" stroke="black" d="M111.38,-114C111.38,-102.62 111.25,-97.32 111.18,-89.45"/>
<polygon fill="black" stroke="black" points="114.68,-89.5 111.13,-79.51 107.68,-89.53 114.68,-89.5"/>
</g>
<!-- 4534518400 -->
<g id="node6" class="node">
<title>4534518400</title>
<path fill="lightgray" stroke="green" d="M172,-41.5C172,-41.5 210.25,-41.5 210.25,-41.5 216.25,-41.5 222.25,-47.5 222.25,-53.5 222.25,-53.5 222.25,-65.5 222.25,-65.5 222.25,-71.5 216.25,-77.5 210.25,-77.5 210.25,-77.5 172,-77.5 172,-77.5 166,-77.5 160,-71.5 160,-65.5 160,-65.5 160,-53.5 160,-53.5 160,-47.5 166,-41.5 172,-41.5"/>
<text xml:space="preserve" text-anchor="middle" x="169.88" y="-54.45" font-family="Times,serif" font-size="14.00"> </text>
<polyline fill="none" stroke="green" points="179.75,-41.5 179.75,-77.5"/>
<text xml:space="preserve" text-anchor="middle" x="191.12" y="-54.45" font-family="Times,serif" font-size="14.00">5</text>
<polyline fill="none" stroke="green" points="202.5,-41.5 202.5,-77.5"/>
<text xml:space="preserve" text-anchor="middle" x="212.38" y="-54.45" font-family="Times,serif" font-size="14.00"> </text>
</g>
<!-- 4534519632&#45;&gt;4534518400 -->
<g id="edge5" class="edge">
<title>4534519632:l&#45;&gt;4534518400:v</title>
<path fill="none" stroke="black" d="M190.88,-114C190.88,-102.62 191,-97.32 191.07,-89.45"/>
<polygon fill="black" stroke="black" points="194.57,-89.53 191.12,-79.51 187.57,-89.5 194.57,-89.53"/>
</g>
<!-- 4534518848 -->
<g id="node7" class="node">
<title>4534518848</title>
<path fill="lightgray" stroke="green" d="M252,-41.5C252,-41.5 290.25,-41.5 290.25,-41.5 296.25,-41.5 302.25,-47.5 302.25,-53.5 302.25,-53.5 302.25,-65.5 302.25,-65.5 302.25,-71.5 296.25,-77.5 290.25,-77.5 290.25,-77.5 252,-77.5 252,-77.5 246,-77.5 240,-71.5 240,-65.5 240,-65.5 240,-53.5 240,-53.5 240,-47.5 246,-41.5 252,-41.5"/>
<text xml:space="preserve" text-anchor="middle" x="249.88" y="-54.45" font-family="Times,serif" font-size="14.00"> </text>
<polyline fill="none" stroke="green" points="259.75,-41.5 259.75,-77.5"/>
<text xml:space="preserve" text-anchor="middle" x="271.12" y="-54.45" font-family="Times,serif" font-size="14.00">6</text>
<polyline fill="none" stroke="green" points="282.5,-41.5 282.5,-77.5"/>
<text xml:space="preserve" text-anchor="middle" x="292.38" y="-54.45" font-family="Times,serif" font-size="14.00"> </text>
</g>
<!-- 4534519632&#45;&gt;4534518848 -->
<g id="edge6" class="edge">
<title>4534519632:r&#45;&gt;4534518848:v</title>
<path fill="none" stroke="black" d="M233.38,-114C233.38,-95.53 257.35,-98.36 267.09,-88.54"/>
<polygon fill="black" stroke="black" points="270.27,-90 270.58,-79.41 263.74,-87.5 270.27,-90"/>
</g>
</g>
</svg>
