<?xml version="1.0" encoding="UTF-8" standalone="no"?>
<!DOCTYPE svg PUBLIC "-//W3C//DTD SVG 1.1//EN"
 "http://www.w3.org/Graphics/SVG/1.1/DTD/svg11.dtd">
<!-- Generated by graphviz version 14.0.0 (20250921.2048)
 -->
<!-- Pages: 1 -->
<svg width="360pt" height="289pt"
 viewBox="0.00 0.00 360.00 289.00" xmlns="http://www.w3.org/2000/svg" xmlns:xlink="http://www.w3.org/1999/xlink">
<g id="graph0" class="graph" transform="scale(1 1) rotate(0) translate(4 284.5)">
<polygon fill="white" stroke="none" points="-4,4 -4,-284.5 356.25,-284.5 356.25,4 -4,4"/>
<text xml:space="preserve" text-anchor="middle" x="176.12" y="-7.2" font-family="Times,serif" font-size="14.00">MaxHeap [20, 13, 4, 8, 7, 17, 2, 5, 25], heapsize: 8</text>
<!-- 4495595504 -->
<g id="node1" class="node">
<title>4495595504</title>
<path fill="lightgray" stroke="green" d="M211.62,-244C211.62,-244 256.62,-244 256.62,-244 262.62,-244 268.62,-250 268.62,-256 268.62,-256 268.62,-268 268.62,-268 268.62,-274 262.62,-280 256.62,-280 256.62,-280 211.62,-280 211.62,-280 205.62,-280 199.62,-274 199.62,-268 199.62,-268 199.62,-256 199.62,-256 199.62,-250 205.62,-244 211.62,-244"/>
<text xml:space="preserve" text-anchor="middle" x="209.5" y="-256.95" font-family="Times,serif" font-size="14.00"> </text>
<polyline fill="none" stroke="green" points="219.38,-244 219.38,-280"/>
<text xml:space="preserve" text-anchor="middle" x="234.12" y="-256.95" font-family="Times,serif" font-size="14.00">20</text>
<polyline fill="none" stroke="green" points="248.88,-244 248.88,-280"/>
<text xml:space="preserve" text-anchor="middle" x="258.75" y="-256.95" font-family="Times,serif" font-size="14.00"> </text>
</g>
<!-- 4495601664 -->
<g id="node2" class="node">
<title>4495601664</title>
<path fill="lightgray" stroke="lightgray" d="M106.62,-171C106.62,-171 151.62,-171 151.62,-171 157.62,-171 163.62,-177 163.62,-183 163.62,-183 163.62,-195 163.62,-195 163.62,-201 157.62,-207 151.62,-207 151.62,-207 106.62,-207 106.62,-207 100.62,-207 94.62,-201 94.62,-195 94.62,-195 94.62,-183 94.62,-183 94.62,-177 100.62,-171 106.62,-171"/>
<text xml:space="preserve" text-anchor="middle" x="104.5" y="-183.95" font-family="Times,serif" font-size="14.00"> </text>
<polyline fill="none" stroke="lightgray" points="114.38,-171 114.38,-207"/>
<text xml:space="preserve" text-anchor="middle" x="129.12" y="-183.95" font-family="Times,serif" font-size="14.00">13</text>
<polyline fill="none" stroke="lightgray" points="143.88,-171 143.88,-207"/>
<text xml:space="preserve" text-anchor="middle" x="153.75" y="-183.95" font-family="Times,serif" font-size="14.00"> </text>
</g>
<!-- 4495595504&#45;&gt;4495601664 -->
<g id="edge1" class="edge">
<title>4495595504:l&#45;&gt;4495601664:v</title>
<path fill="none" stroke="black" d="M209.5,-243.5C209.5,-209.1 147.41,-237.6 132.38,-218.43"/>
<polygon fill="black" stroke="black" points="135.76,-217.54 129.56,-208.95 129.05,-219.53 135.76,-217.54"/>
</g>
<!-- 4495601888 -->
<g id="node3" class="node">
<title>4495601888</title>
<path fill="lightgray" stroke="green" d="M239,-171C239,-171 277.25,-171 277.25,-171 283.25,-171 289.25,-177 289.25,-183 289.25,-183 289.25,-195 289.25,-195 289.25,-201 283.25,-207 277.25,-207 277.25,-207 239,-207 239,-207 233,-207 227,-201 227,-195 227,-195 227,-183 227,-183 227,-177 233,-171 239,-171"/>
<text xml:space="preserve" text-anchor="middle" x="236.88" y="-183.95" font-family="Times,serif" font-size="14.00"> </text>
<polyline fill="none" stroke="green" points="246.75,-171 246.75,-207"/>
<text xml:space="preserve" text-anchor="middle" x="258.12" y="-183.95" font-family="Times,serif" font-size="14.00">4</text>
<polyline fill="none" stroke="green" points="269.5,-171 269.5,-207"/>
<text xml:space="preserve" text-anchor="middle" x="279.38" y="-183.95" font-family="Times,serif" font-size="14.00"> </text>
</g>
<!-- 4495595504&#45;&gt;4495601888 -->
<g id="edge2" class="edge">
<title>4495595504:r&#45;&gt;4495601888:v</title>
<path fill="none" stroke="black" d="M258.75,-243.5C258.75,-232.12 258.43,-226.82 258.25,-218.95"/>
<polygon fill="black" stroke="black" points="261.75,-218.97 258.14,-209.01 254.75,-219.05 261.75,-218.97"/>
</g>
<!-- 4495599088 -->
<g id="node4" class="node">
<title>4495599088</title>
<path fill="lightgray" stroke="lightgray" d="M54,-98C54,-98 92.25,-98 92.25,-98 98.25,-98 104.25,-104 104.25,-110 104.25,-110 104.25,-122 104.25,-122 104.25,-128 98.25,-134 92.25,-134 92.25,-134 54,-134 54,-134 48,-134 42,-128 42,-122 42,-122 42,-110 42,-110 42,-104 48,-98 54,-98"/>
<text xml:space="preserve" text-anchor="middle" x="51.88" y="-110.95" font-family="Times,serif" font-size="14.00"> </text>
<polyline fill="none" stroke="lightgray" points="61.75,-98 61.75,-134"/>
<text xml:space="preserve" text-anchor="middle" x="73.12" y="-110.95" font-family="Times,serif" font-size="14.00">8</text>
<polyline fill="none" stroke="lightgray" points="84.5,-98 84.5,-134"/>
<text xml:space="preserve" text-anchor="middle" x="94.38" y="-110.95" font-family="Times,serif" font-size="14.00"> </text>
</g>
<!-- 4495601664&#45;&gt;4495599088 -->
<g id="edge3" class="edge">
<title>4495601664:l&#45;&gt;4495599088:v</title>
<path fill="none" stroke="black" d="M104.5,-170.5C104.5,-153.92 85.35,-154.23 76.97,-145.04"/>
<polygon fill="black" stroke="black" points="80.36,-144.11 73.64,-135.92 73.79,-146.52 80.36,-144.11"/>
</g>
<!-- 4495598192 -->
<g id="node5" class="node">
<title>4495598192</title>
<path fill="lightgray" stroke="lightgray" d="M134,-98C134,-98 172.25,-98 172.25,-98 178.25,-98 184.25,-104 184.25,-110 184.25,-110 184.25,-122 184.25,-122 184.25,-128 178.25,-134 172.25,-134 172.25,-134 134,-134 134,-134 128,-134 122,-128 122,-122 122,-122 122,-110 122,-110 122,-104 128,-98 134,-98"/>
<text xml:space="preserve" text-anchor="middle" x="131.88" y="-110.95" font-family="Times,serif" font-size="14.00"> </text>
<polyline fill="none" stroke="lightgray" points="141.75,-98 141.75,-134"/>
<text xml:space="preserve" text-anchor="middle" x="153.12" y="-110.95" font-family="Times,serif" font-size="14.00">7</text>
<polyline fill="none" stroke="lightgray" points="164.5,-98 164.5,-134"/>
<text xml:space="preserve" text-anchor="middle" x="174.38" y="-110.95" font-family="Times,serif" font-size="14.00"> </text>
</g>
<!-- 4495601664&#45;&gt;4495598192 -->
<g id="edge4" class="edge">
<title>4495601664:r&#45;&gt;4495598192:v</title>
<path fill="none" stroke="black" d="M153.75,-170.5C153.75,-159.12 153.43,-153.82 153.25,-145.95"/>
<polygon fill="black" stroke="black" points="156.75,-145.97 153.14,-136.01 149.75,-146.05 156.75,-145.97"/>
</g>
<!-- 4495601888&#45;&gt;4495595504 -->
<g id="edge9" class="edge">
<title>4495601888&#45;&gt;4495595504</title>
<path fill="none" stroke="green" d="M252.37,-207.03C249.72,-214.86 246.52,-224.34 243.53,-233.17"/>
<polygon fill="green" stroke="green" points="240.31,-231.78 240.42,-242.38 246.94,-234.03 240.31,-231.78"/>
</g>
<!-- 4495602336 -->
<g id="node6" class="node">
<title>4495602336</title>
<path fill="lightgray" stroke="lightgray" d="M214.62,-98C214.62,-98 259.62,-98 259.62,-98 265.62,-98 271.62,-104 271.62,-110 271.62,-110 271.62,-122 271.62,-122 271.62,-128 265.62,-134 259.62,-134 259.62,-134 214.62,-134 214.62,-134 208.62,-134 202.62,-128 202.62,-122 202.62,-122 202.62,-110 202.62,-110 202.62,-104 208.62,-98 214.62,-98"/>
<text xml:space="preserve" text-anchor="middle" x="212.5" y="-110.95" font-family="Times,serif" font-size="14.00"> </text>
<polyline fill="none" stroke="lightgray" points="222.38,-98 222.38,-134"/>
<text xml:space="preserve" text-anchor="middle" x="237.12" y="-110.95" font-family="Times,serif" font-size="14.00">17</text>
<polyline fill="none" stroke="lightgray" points="251.88,-98 251.88,-134"/>
<text xml:space="preserve" text-anchor="middle" x="261.75" y="-110.95" font-family="Times,serif" font-size="14.00"> </text>
</g>
<!-- 4495601888&#45;&gt;4495602336 -->
<g id="edge5" class="edge">
<title>4495601888:l&#45;&gt;4495602336:v</title>
<path fill="none" stroke="black" d="M236.88,-170.5C236.88,-159.12 237,-153.82 237.07,-145.95"/>
<polygon fill="black" stroke="black" points="240.57,-146.03 237.12,-136.01 233.57,-146 240.57,-146.03"/>
</g>
<!-- 4495597856 -->
<g id="node7" class="node">
<title>4495597856</title>
<path fill="lightgray" stroke="lightgray" d="M302,-98C302,-98 340.25,-98 340.25,-98 346.25,-98 352.25,-104 352.25,-110 352.25,-110 352.25,-122 352.25,-122 352.25,-128 346.25,-134 340.25,-134 340.25,-134 302,-134 302,-134 296,-134 290,-128 290,-122 290,-122 290,-110 290,-110 290,-104 296,-98 302,-98"/>
<text xml:space="preserve" text-anchor="middle" x="299.88" y="-110.95" font-family="Times,serif" font-size="14.00"> </text>
<polyline fill="none" stroke="lightgray" points="309.75,-98 309.75,-134"/>
<text xml:space="preserve" text-anchor="middle" x="321.12" y="-110.95" font-family="Times,serif" font-size="14.00">2</text>
<polyline fill="none" stroke="lightgray" points="332.5,-98 332.5,-134"/>
<text xml:space="preserve" text-anchor="middle" x="342.38" y="-110.95" font-family="Times,serif" font-size="14.00"> </text>
</g>
<!-- 4495601888&#45;&gt;4495597856 -->
<g id="edge6" class="edge">
<title>4495601888:r&#45;&gt;4495597856:v</title>
<path fill="none" stroke="black" d="M279.38,-170.5C279.38,-150.78 306.41,-155.35 316.97,-145.12"/>
<polygon fill="black" stroke="black" points="320.19,-146.5 320.57,-135.91 313.67,-143.95 320.19,-146.5"/>
</g>
<!-- 4495602896 -->
<g id="node8" class="node">
<title>4495602896</title>
<path fill="lightgray" stroke="lightgray" d="M12,-25C12,-25 50.25,-25 50.25,-25 56.25,-25 62.25,-31 62.25,-37 62.25,-37 62.25,-49 62.25,-49 62.25,-55 56.25,-61 50.25,-61 50.25,-61 12,-61 12,-61 6,-61 0,-55 0,-49 0,-49 0,-37 0,-37 0,-31 6,-25 12,-25"/>
<text xml:space="preserve" text-anchor="middle" x="9.88" y="-37.95" font-family="Times,serif" font-size="14.00"> </text>
<polyline fill="none" stroke="lightgray" points="19.75,-25 19.75,-61"/>
<text xml:space="preserve" text-anchor="middle" x="31.12" y="-37.95" font-family="Times,serif" font-size="14.00">5</text>
<polyline fill="none" stroke="lightgray" points="42.5,-25 42.5,-61"/>
<text xml:space="preserve" text-anchor="middle" x="52.38" y="-37.95" font-family="Times,serif" font-size="14.00"> </text>
</g>
<!-- 4495599088&#45;&gt;4495602896 -->
<g id="edge7" class="edge">
<title>4495599088:l&#45;&gt;4495602896:v</title>
<path fill="none" stroke="black" d="M51.88,-97.5C51.88,-83.65 40.2,-80.71 34.37,-72.32"/>
<polygon fill="black" stroke="black" points="37.78,-71.52 31.56,-62.95 31.08,-73.53 37.78,-71.52"/>
</g>
<!-- 4495602784 -->
<g id="node9" class="node">
<title>4495602784</title>
<path fill="lightgray" stroke="lightgray" d="M92.62,-25C92.62,-25 137.62,-25 137.62,-25 143.62,-25 149.62,-31 149.62,-37 149.62,-37 149.62,-49 149.62,-49 149.62,-55 143.62,-61 137.62,-61 137.62,-61 92.62,-61 92.62,-61 86.62,-61 80.62,-55 80.62,-49 80.62,-49 80.62,-37 80.62,-37 80.62,-31 86.62,-25 92.62,-25"/>
<text xml:space="preserve" text-anchor="middle" x="90.5" y="-37.95" font-family="Times,serif" font-size="14.00"> </text>
<polyline fill="none" stroke="lightgray" points="100.38,-25 100.38,-61"/>
<text xml:space="preserve" text-anchor="middle" x="115.12" y="-37.95" font-family="Times,serif" font-size="14.00">25</text>
<polyline fill="none" stroke="lightgray" points="129.88,-25 129.88,-61"/>
<text xml:space="preserve" text-anchor="middle" x="139.75" y="-37.95" font-family="Times,serif" font-size="14.00"> </text>
</g>
<!-- 4495599088&#45;&gt;4495602784 -->
<g id="edge8" class="edge">
<title>4495599088:r&#45;&gt;4495602784:v</title>
<path fill="none" stroke="black" d="M94.38,-97.5C94.38,-83.65 106.05,-80.71 111.88,-72.32"/>
<polygon fill="black" stroke="black" points="115.17,-73.53 114.69,-62.95 108.47,-71.52 115.17,-73.53"/>
</g>
</g>
</svg>
