<?xml version="1.0" encoding="UTF-8" standalone="no"?>
<!DOCTYPE svg PUBLIC "-//W3C//DTD SVG 1.1//EN"
 "http://www.w3.org/Graphics/SVG/1.1/DTD/svg11.dtd">
<!-- Generated by graphviz version 14.0.0 (20250921.2048)
 -->
<!-- Pages: 1 -->
<svg width="339pt" height="289pt"
 viewBox="0.00 0.00 339.00 289.00" xmlns="http://www.w3.org/2000/svg" xmlns:xlink="http://www.w3.org/1999/xlink">
<g id="graph0" class="graph" transform="scale(1 1) rotate(0) translate(4 284.5)">
<polygon fill="white" stroke="none" points="-4,4 -4,-284.5 335.25,-284.5 335.25,4 -4,4"/>
<text xml:space="preserve" text-anchor="middle" x="165.62" y="-7.2" font-family="Times,serif" font-size="14.00">MaxHeap [20, 13, 4, 8, 7, 17, 2, 5, 25], heapsize: 8</text>
<!-- 4534530720 -->
<g id="node1" class="node">
<title>4534530720</title>
<path fill="lightgray" stroke="green" d="M149.62,-244C149.62,-244 194.62,-244 194.62,-244 200.62,-244 206.62,-250 206.62,-256 206.62,-256 206.62,-268 206.62,-268 206.62,-274 200.62,-280 194.62,-280 194.62,-280 149.62,-280 149.62,-280 143.62,-280 137.62,-274 137.62,-268 137.62,-268 137.62,-256 137.62,-256 137.62,-250 143.62,-244 149.62,-244"/>
<text xml:space="preserve" text-anchor="middle" x="147.5" y="-256.95" font-family="Times,serif" font-size="14.00"> </text>
<polyline fill="none" stroke="green" points="157.38,-244 157.38,-280"/>
<text xml:space="preserve" text-anchor="middle" x="172.12" y="-256.95" font-family="Times,serif" font-size="14.00">20</text>
<polyline fill="none" stroke="green" points="186.88,-244 186.88,-280"/>
<text xml:space="preserve" text-anchor="middle" x="196.75" y="-256.95" font-family="Times,serif" font-size="14.00"> </text>
</g>
<!-- 4534530496 -->
<g id="node2" class="node">
<title>4534530496</title>
<path fill="lightgray" stroke="lightgray" d="M85.62,-171C85.62,-171 130.62,-171 130.62,-171 136.62,-171 142.62,-177 142.62,-183 142.62,-183 142.62,-195 142.62,-195 142.62,-201 136.62,-207 130.62,-207 130.62,-207 85.62,-207 85.62,-207 79.62,-207 73.62,-201 73.62,-195 73.62,-195 73.62,-183 73.62,-183 73.62,-177 79.62,-171 85.62,-171"/>
<text xml:space="preserve" text-anchor="middle" x="83.5" y="-183.95" font-family="Times,serif" font-size="14.00"> </text>
<polyline fill="none" stroke="lightgray" points="93.38,-171 93.38,-207"/>
<text xml:space="preserve" text-anchor="middle" x="108.12" y="-183.95" font-family="Times,serif" font-size="14.00">13</text>
<polyline fill="none" stroke="lightgray" points="122.88,-171 122.88,-207"/>
<text xml:space="preserve" text-anchor="middle" x="132.75" y="-183.95" font-family="Times,serif" font-size="14.00"> </text>
</g>
<!-- 4534530720&#45;&gt;4534530496 -->
<g id="edge1" class="edge">
<title>4534530720:l&#45;&gt;4534530496:v</title>
<path fill="none" stroke="black" d="M147.5,-243.5C147.5,-224.6 122.5,-228.02 112.34,-218.19"/>
<polygon fill="black" stroke="black" points="115.6,-216.93 108.68,-208.91 109.09,-219.49 115.6,-216.93"/>
</g>
<!-- 4534529040 -->
<g id="node3" class="node">
<title>4534529040</title>
<path fill="lightgray" stroke="green" d="M218,-171C218,-171 256.25,-171 256.25,-171 262.25,-171 268.25,-177 268.25,-183 268.25,-183 268.25,-195 268.25,-195 268.25,-201 262.25,-207 256.25,-207 256.25,-207 218,-207 218,-207 212,-207 206,-201 206,-195 206,-195 206,-183 206,-183 206,-177 212,-171 218,-171"/>
<text xml:space="preserve" text-anchor="middle" x="215.88" y="-183.95" font-family="Times,serif" font-size="14.00"> </text>
<polyline fill="none" stroke="green" points="225.75,-171 225.75,-207"/>
<text xml:space="preserve" text-anchor="middle" x="237.12" y="-183.95" font-family="Times,serif" font-size="14.00">4</text>
<polyline fill="none" stroke="green" points="248.5,-171 248.5,-207"/>
<text xml:space="preserve" text-anchor="middle" x="258.38" y="-183.95" font-family="Times,serif" font-size="14.00"> </text>
</g>
<!-- 4534530720&#45;&gt;4534529040 -->
<g id="edge2" class="edge">
<title>4534530720:r&#45;&gt;4534529040:v</title>
<path fill="none" stroke="black" d="M196.75,-243.5C196.75,-224.15 222.89,-228.2 233.11,-217.99"/>
<polygon fill="black" stroke="black" points="236.27,-219.5 236.58,-208.91 229.74,-217 236.27,-219.5"/>
</g>
<!-- 4534528592 -->
<g id="node4" class="node">
<title>4534528592</title>
<path fill="lightgray" stroke="lightgray" d="M33,-98C33,-98 71.25,-98 71.25,-98 77.25,-98 83.25,-104 83.25,-110 83.25,-110 83.25,-122 83.25,-122 83.25,-128 77.25,-134 71.25,-134 71.25,-134 33,-134 33,-134 27,-134 21,-128 21,-122 21,-122 21,-110 21,-110 21,-104 27,-98 33,-98"/>
<text xml:space="preserve" text-anchor="middle" x="30.88" y="-110.95" font-family="Times,serif" font-size="14.00"> </text>
<polyline fill="none" stroke="lightgray" points="40.75,-98 40.75,-134"/>
<text xml:space="preserve" text-anchor="middle" x="52.12" y="-110.95" font-family="Times,serif" font-size="14.00">8</text>
<polyline fill="none" stroke="lightgray" points="63.5,-98 63.5,-134"/>
<text xml:space="preserve" text-anchor="middle" x="73.38" y="-110.95" font-family="Times,serif" font-size="14.00"> </text>
</g>
<!-- 4534530496&#45;&gt;4534528592 -->
<g id="edge3" class="edge">
<title>4534530496:l&#45;&gt;4534528592:v</title>
<path fill="none" stroke="black" d="M83.5,-170.5C83.5,-153.92 64.35,-154.23 55.97,-145.04"/>
<polygon fill="black" stroke="black" points="59.36,-144.11 52.64,-135.92 52.79,-146.52 59.36,-144.11"/>
</g>
<!-- 4534527584 -->
<g id="node5" class="node">
<title>4534527584</title>
<path fill="lightgray" stroke="lightgray" d="M113,-98C113,-98 151.25,-98 151.25,-98 157.25,-98 163.25,-104 163.25,-110 163.25,-110 163.25,-122 163.25,-122 163.25,-128 157.25,-134 151.25,-134 151.25,-134 113,-134 113,-134 107,-134 101,-128 101,-122 101,-122 101,-110 101,-110 101,-104 107,-98 113,-98"/>
<text xml:space="preserve" text-anchor="middle" x="110.88" y="-110.95" font-family="Times,serif" font-size="14.00"> </text>
<polyline fill="none" stroke="lightgray" points="120.75,-98 120.75,-134"/>
<text xml:space="preserve" text-anchor="middle" x="132.12" y="-110.95" font-family="Times,serif" font-size="14.00">7</text>
<polyline fill="none" stroke="lightgray" points="143.5,-98 143.5,-134"/>
<text xml:space="preserve" text-anchor="middle" x="153.38" y="-110.95" font-family="Times,serif" font-size="14.00"> </text>
</g>
<!-- 4534530496&#45;&gt;4534527584 -->
<g id="edge4" class="edge">
<title>4534530496:r&#45;&gt;4534527584:v</title>
<path fill="none" stroke="black" d="M132.75,-170.5C132.75,-159.12 132.43,-153.82 132.25,-145.95"/>
<polygon fill="black" stroke="black" points="135.75,-145.97 132.14,-136.01 128.75,-146.05 135.75,-145.97"/>
</g>
<!-- 4534518512 -->
<g id="node6" class="node">
<title>4534518512</title>
<path fill="lightgray" stroke="lightgray" d="M193.62,-98C193.62,-98 238.62,-98 238.62,-98 244.62,-98 250.62,-104 250.62,-110 250.62,-110 250.62,-122 250.62,-122 250.62,-128 244.62,-134 238.62,-134 238.62,-134 193.62,-134 193.62,-134 187.62,-134 181.62,-128 181.62,-122 181.62,-122 181.62,-110 181.62,-110 181.62,-104 187.62,-98 193.62,-98"/>
<text xml:space="preserve" text-anchor="middle" x="191.5" y="-110.95" font-family="Times,serif" font-size="14.00"> </text>
<polyline fill="none" stroke="lightgray" points="201.38,-98 201.38,-134"/>
<text xml:space="preserve" text-anchor="middle" x="216.12" y="-110.95" font-family="Times,serif" font-size="14.00">17</text>
<polyline fill="none" stroke="lightgray" points="230.88,-98 230.88,-134"/>
<text xml:space="preserve" text-anchor="middle" x="240.75" y="-110.95" font-family="Times,serif" font-size="14.00"> </text>
</g>
<!-- 4534529040&#45;&gt;4534518512 -->
<g id="edge5" class="edge">
<title>4534529040:l&#45;&gt;4534518512:v</title>
<path fill="none" stroke="black" d="M215.88,-170.5C215.88,-159.12 216,-153.82 216.07,-145.95"/>
<polygon fill="black" stroke="black" points="219.57,-146.03 216.12,-136.01 212.57,-146 219.57,-146.03"/>
</g>
<!-- 4534525568 -->
<g id="node7" class="node">
<title>4534525568</title>
<path fill="lightgray" stroke="lightgray" d="M281,-98C281,-98 319.25,-98 319.25,-98 325.25,-98 331.25,-104 331.25,-110 331.25,-110 331.25,-122 331.25,-122 331.25,-128 325.25,-134 319.25,-134 319.25,-134 281,-134 281,-134 275,-134 269,-128 269,-122 269,-122 269,-110 269,-110 269,-104 275,-98 281,-98"/>
<text xml:space="preserve" text-anchor="middle" x="278.88" y="-110.95" font-family="Times,serif" font-size="14.00"> </text>
<polyline fill="none" stroke="lightgray" points="288.75,-98 288.75,-134"/>
<text xml:space="preserve" text-anchor="middle" x="300.12" y="-110.95" font-family="Times,serif" font-size="14.00">2</text>
<polyline fill="none" stroke="lightgray" points="311.5,-98 311.5,-134"/>
<text xml:space="preserve" text-anchor="middle" x="321.38" y="-110.95" font-family="Times,serif" font-size="14.00"> </text>
</g>
<!-- 4534529040&#45;&gt;4534525568 -->
<g id="edge6" class="edge">
<title>4534529040:r&#45;&gt;4534525568:v</title>
<path fill="none" stroke="black" d="M258.38,-170.5C258.38,-150.78 285.41,-155.35 295.97,-145.12"/>
<polygon fill="black" stroke="black" points="299.19,-146.5 299.57,-135.91 292.67,-143.95 299.19,-146.5"/>
</g>
<!-- 4534521872 -->
<g id="node8" class="node">
<title>4534521872</title>
<path fill="lightgray" stroke="lightgray" d="M12,-25C12,-25 50.25,-25 50.25,-25 56.25,-25 62.25,-31 62.25,-37 62.25,-37 62.25,-49 62.25,-49 62.25,-55 56.25,-61 50.25,-61 50.25,-61 12,-61 12,-61 6,-61 0,-55 0,-49 0,-49 0,-37 0,-37 0,-31 6,-25 12,-25"/>
<text xml:space="preserve" text-anchor="middle" x="9.88" y="-37.95" font-family="Times,serif" font-size="14.00"> </text>
<polyline fill="none" stroke="lightgray" points="19.75,-25 19.75,-61"/>
<text xml:space="preserve" text-anchor="middle" x="31.12" y="-37.95" font-family="Times,serif" font-size="14.00">5</text>
<polyline fill="none" stroke="lightgray" points="42.5,-25 42.5,-61"/>
<text xml:space="preserve" text-anchor="middle" x="52.38" y="-37.95" font-family="Times,serif" font-size="14.00"> </text>
</g>
<!-- 4534528592&#45;&gt;4534521872 -->
<g id="edge7" class="edge">
<title>4534528592:l&#45;&gt;4534521872:v</title>
<path fill="none" stroke="black" d="M30.88,-97.5C30.88,-86.12 31,-80.82 31.07,-72.95"/>
<polygon fill="black" stroke="black" points="34.57,-73.03 31.12,-63.01 27.57,-73 34.57,-73.03"/>
</g>
</g>
</svg>
