<?xml version="1.0" encoding="UTF-8" standalone="no"?>
<!DOCTYPE svg PUBLIC "-//W3C//DTD SVG 1.1//EN"
 "http://www.w3.org/Graphics/SVG/1.1/DTD/svg11.dtd">
<!-- Generated by graphviz version 14.0.0 (20250921.2048)
 -->
<!-- Pages: 1 -->
<svg width="307pt" height="143pt"
 viewBox="0.00 0.00 307.00 143.00" xmlns="http://www.w3.org/2000/svg" xmlns:xlink="http://www.w3.org/1999/xlink">
<g id="graph0" class="graph" transform="scale(1 1) rotate(0) translate(4 138.5)">
<polygon fill="white" stroke="none" points="-4,4 -4,-138.5 302.75,-138.5 302.75,4 -4,4"/>
<text xml:space="preserve" text-anchor="middle" x="149.38" y="-7.2" font-family="Times,serif" font-size="14.00">MaxHeap [2, 4, 5, 7, 8, 13, 17, 20, 25], heapsize: 2</text>
<!-- 4534523776 -->
<g id="node1" class="node">
<title>4534523776</title>
<path fill="lightgray" stroke="green" d="M140.75,-98C140.75,-98 179,-98 179,-98 185,-98 191,-104 191,-110 191,-110 191,-122 191,-122 191,-128 185,-134 179,-134 179,-134 140.75,-134 140.75,-134 134.75,-134 128.75,-128 128.75,-122 128.75,-122 128.75,-110 128.75,-110 128.75,-104 134.75,-98 140.75,-98"/>
<text xml:space="preserve" text-anchor="middle" x="138.62" y="-110.95" font-family="Times,serif" font-size="14.00"> </text>
<polyline fill="none" stroke="green" points="148.5,-98 148.5,-134"/>
<text xml:space="preserve" text-anchor="middle" x="159.88" y="-110.95" font-family="Times,serif" font-size="14.00">2</text>
<polyline fill="none" stroke="green" points="171.25,-98 171.25,-134"/>
<text xml:space="preserve" text-anchor="middle" x="181.12" y="-110.95" font-family="Times,serif" font-size="14.00"> </text>
</g>
<!-- 4534530944 -->
<g id="node2" class="node">
<title>4534530944</title>
<path fill="lightgray" stroke="green" d="M119.75,-25C119.75,-25 158,-25 158,-25 164,-25 170,-31 170,-37 170,-37 170,-49 170,-49 170,-55 164,-61 158,-61 158,-61 119.75,-61 119.75,-61 113.75,-61 107.75,-55 107.75,-49 107.75,-49 107.75,-37 107.75,-37 107.75,-31 113.75,-25 119.75,-25"/>
<text xml:space="preserve" text-anchor="middle" x="117.62" y="-37.95" font-family="Times,serif" font-size="14.00"> </text>
<polyline fill="none" stroke="green" points="127.5,-25 127.5,-61"/>
<text xml:space="preserve" text-anchor="middle" x="138.88" y="-37.95" font-family="Times,serif" font-size="14.00">4</text>
<polyline fill="none" stroke="green" points="150.25,-25 150.25,-61"/>
<text xml:space="preserve" text-anchor="middle" x="160.12" y="-37.95" font-family="Times,serif" font-size="14.00"> </text>
</g>
<!-- 4534523776&#45;&gt;4534530944 -->
<g id="edge1" class="edge">
<title>4534523776:l&#45;&gt;4534530944:v</title>
<path fill="none" stroke="black" d="M138.62,-97.5C138.62,-86.12 138.75,-80.82 138.82,-72.95"/>
<polygon fill="black" stroke="black" points="142.32,-73.03 138.87,-63.01 135.32,-73 142.32,-73.03"/>
</g>
</g>
</svg>
