<?xml version="1.0" encoding="UTF-8" standalone="no"?>
<!DOCTYPE svg PUBLIC "-//W3C//DTD SVG 1.1//EN"
 "http://www.w3.org/Graphics/SVG/1.1/DTD/svg11.dtd">
<!-- Generated by graphviz version 14.0.0 (20250921.2048)
 -->
<!-- Pages: 1 -->
<svg width="418pt" height="289pt"
 viewBox="0.00 0.00 418.00 289.00" xmlns="http://www.w3.org/2000/svg" xmlns:xlink="http://www.w3.org/1999/xlink">
<g id="graph0" class="graph" transform="scale(1 1) rotate(0) translate(4 284.5)">
<polygon fill="white" stroke="none" points="-4,4 -4,-284.5 414.25,-284.5 414.25,4 -4,4"/>
<text xml:space="preserve" text-anchor="middle" x="205.12" y="-7.2" font-family="Times,serif" font-size="14.00">MaxHeap [15, 13, 9, 6, 12, 8, 7, 0, 5, 2, 1], heapsize: 11</text>
<!-- 4534531728 -->
<g id="node1" class="node">
<title>4534531728</title>
<path fill="lightgray" stroke="lightgray" d="M232.62,-244C232.62,-244 277.62,-244 277.62,-244 283.62,-244 289.62,-250 289.62,-256 289.62,-256 289.62,-268 289.62,-268 289.62,-274 283.62,-280 277.62,-280 277.62,-280 232.62,-280 232.62,-280 226.62,-280 220.62,-274 220.62,-268 220.62,-268 220.62,-256 220.62,-256 220.62,-250 226.62,-244 232.62,-244"/>
<text xml:space="preserve" text-anchor="middle" x="230.5" y="-256.95" font-family="Times,serif" font-size="14.00"> </text>
<polyline fill="none" stroke="lightgray" points="240.38,-244 240.38,-280"/>
<text xml:space="preserve" text-anchor="middle" x="255.12" y="-256.95" font-family="Times,serif" font-size="14.00">15</text>
<polyline fill="none" stroke="lightgray" points="269.88,-244 269.88,-280"/>
<text xml:space="preserve" text-anchor="middle" x="279.75" y="-256.95" font-family="Times,serif" font-size="14.00"> </text>
</g>
<!-- 4534531840 -->
<g id="node2" class="node">
<title>4534531840</title>
<path fill="lightgray" stroke="lightgray" d="M168.62,-171C168.62,-171 213.62,-171 213.62,-171 219.62,-171 225.62,-177 225.62,-183 225.62,-183 225.62,-195 225.62,-195 225.62,-201 219.62,-207 213.62,-207 213.62,-207 168.62,-207 168.62,-207 162.62,-207 156.62,-201 156.62,-195 156.62,-195 156.62,-183 156.62,-183 156.62,-177 162.62,-171 168.62,-171"/>
<text xml:space="preserve" text-anchor="middle" x="166.5" y="-183.95" font-family="Times,serif" font-size="14.00"> </text>
<polyline fill="none" stroke="lightgray" points="176.38,-171 176.38,-207"/>
<text xml:space="preserve" text-anchor="middle" x="191.12" y="-183.95" font-family="Times,serif" font-size="14.00">13</text>
<polyline fill="none" stroke="lightgray" points="205.88,-171 205.88,-207"/>
<text xml:space="preserve" text-anchor="middle" x="215.75" y="-183.95" font-family="Times,serif" font-size="14.00"> </text>
</g>
<!-- 4534531728&#45;&gt;4534531840 -->
<g id="edge1" class="edge">
<title>4534531728:l&#45;&gt;4534531840:v</title>
<path fill="none" stroke="black" d="M230.5,-243.5C230.5,-224.6 205.5,-228.02 195.34,-218.19"/>
<polygon fill="black" stroke="black" points="198.6,-216.93 191.68,-208.91 192.09,-219.49 198.6,-216.93"/>
</g>
<!-- 4534531392 -->
<g id="node3" class="node">
<title>4534531392</title>
<path fill="lightgray" stroke="lightgray" d="M301,-171C301,-171 339.25,-171 339.25,-171 345.25,-171 351.25,-177 351.25,-183 351.25,-183 351.25,-195 351.25,-195 351.25,-201 345.25,-207 339.25,-207 339.25,-207 301,-207 301,-207 295,-207 289,-201 289,-195 289,-195 289,-183 289,-183 289,-177 295,-171 301,-171"/>
<text xml:space="preserve" text-anchor="middle" x="298.88" y="-183.95" font-family="Times,serif" font-size="14.00"> </text>
<polyline fill="none" stroke="lightgray" points="308.75,-171 308.75,-207"/>
<text xml:space="preserve" text-anchor="middle" x="320.12" y="-183.95" font-family="Times,serif" font-size="14.00">9</text>
<polyline fill="none" stroke="lightgray" points="331.5,-171 331.5,-207"/>
<text xml:space="preserve" text-anchor="middle" x="341.38" y="-183.95" font-family="Times,serif" font-size="14.00"> </text>
</g>
<!-- 4534531728&#45;&gt;4534531392 -->
<g id="edge2" class="edge">
<title>4534531728:r&#45;&gt;4534531392:v</title>
<path fill="none" stroke="black" d="M279.75,-243.5C279.75,-224.15 305.89,-228.2 316.11,-217.99"/>
<polygon fill="black" stroke="black" points="319.27,-219.5 319.58,-208.91 312.74,-217 319.27,-219.5"/>
</g>
<!-- 4534520864 -->
<g id="node4" class="node">
<title>4534520864</title>
<path fill="lightgray" stroke="green" d="M71,-98C71,-98 109.25,-98 109.25,-98 115.25,-98 121.25,-104 121.25,-110 121.25,-110 121.25,-122 121.25,-122 121.25,-128 115.25,-134 109.25,-134 109.25,-134 71,-134 71,-134 65,-134 59,-128 59,-122 59,-122 59,-110 59,-110 59,-104 65,-98 71,-98"/>
<text xml:space="preserve" text-anchor="middle" x="68.88" y="-110.95" font-family="Times,serif" font-size="14.00"> </text>
<polyline fill="none" stroke="green" points="78.75,-98 78.75,-134"/>
<text xml:space="preserve" text-anchor="middle" x="90.12" y="-110.95" font-family="Times,serif" font-size="14.00">6</text>
<polyline fill="none" stroke="green" points="101.5,-98 101.5,-134"/>
<text xml:space="preserve" text-anchor="middle" x="111.38" y="-110.95" font-family="Times,serif" font-size="14.00"> </text>
</g>
<!-- 4534531840&#45;&gt;4534520864 -->
<g id="edge3" class="edge">
<title>4534531840:l&#45;&gt;4534520864:v</title>
<path fill="none" stroke="black" d="M166.5,-170.5C166.5,-137.66 108.03,-163.46 93.41,-145.28"/>
<polygon fill="black" stroke="black" points="96.83,-144.5 90.57,-135.95 90.13,-146.53 96.83,-144.5"/>
</g>
<!-- 4534518848 -->
<g id="node5" class="node">
<title>4534518848</title>
<path fill="lightgray" stroke="lightgray" d="M192.62,-98C192.62,-98 237.62,-98 237.62,-98 243.62,-98 249.62,-104 249.62,-110 249.62,-110 249.62,-122 249.62,-122 249.62,-128 243.62,-134 237.62,-134 237.62,-134 192.62,-134 192.62,-134 186.62,-134 180.62,-128 180.62,-122 180.62,-122 180.62,-110 180.62,-110 180.62,-104 186.62,-98 192.62,-98"/>
<text xml:space="preserve" text-anchor="middle" x="190.5" y="-110.95" font-family="Times,serif" font-size="14.00"> </text>
<polyline fill="none" stroke="lightgray" points="200.38,-98 200.38,-134"/>
<text xml:space="preserve" text-anchor="middle" x="215.12" y="-110.95" font-family="Times,serif" font-size="14.00">12</text>
<polyline fill="none" stroke="lightgray" points="229.88,-98 229.88,-134"/>
<text xml:space="preserve" text-anchor="middle" x="239.75" y="-110.95" font-family="Times,serif" font-size="14.00"> </text>
</g>
<!-- 4534531840&#45;&gt;4534518848 -->
<g id="edge4" class="edge">
<title>4534531840:r&#45;&gt;4534518848:v</title>
<path fill="none" stroke="black" d="M215.75,-170.5C215.75,-159.12 215.43,-153.82 215.25,-145.95"/>
<polygon fill="black" stroke="black" points="218.75,-145.97 215.14,-136.01 211.75,-146.05 218.75,-145.97"/>
</g>
<!-- 4534525344 -->
<g id="node6" class="node">
<title>4534525344</title>
<path fill="lightgray" stroke="lightgray" d="M280,-98C280,-98 318.25,-98 318.25,-98 324.25,-98 330.25,-104 330.25,-110 330.25,-110 330.25,-122 330.25,-122 330.25,-128 324.25,-134 318.25,-134 318.25,-134 280,-134 280,-134 274,-134 268,-128 268,-122 268,-122 268,-110 268,-110 268,-104 274,-98 280,-98"/>
<text xml:space="preserve" text-anchor="middle" x="277.88" y="-110.95" font-family="Times,serif" font-size="14.00"> </text>
<polyline fill="none" stroke="lightgray" points="287.75,-98 287.75,-134"/>
<text xml:space="preserve" text-anchor="middle" x="299.12" y="-110.95" font-family="Times,serif" font-size="14.00">8</text>
<polyline fill="none" stroke="lightgray" points="310.5,-98 310.5,-134"/>
<text xml:space="preserve" text-anchor="middle" x="320.38" y="-110.95" font-family="Times,serif" font-size="14.00"> </text>
</g>
<!-- 4534531392&#45;&gt;4534525344 -->
<g id="edge5" class="edge">
<title>4534531392:l&#45;&gt;4534525344:v</title>
<path fill="none" stroke="black" d="M298.88,-170.5C298.88,-159.12 299,-153.82 299.07,-145.95"/>
<polygon fill="black" stroke="black" points="302.57,-146.03 299.12,-136.01 295.57,-146 302.57,-146.03"/>
</g>
<!-- 4534522544 -->
<g id="node7" class="node">
<title>4534522544</title>
<path fill="lightgray" stroke="lightgray" d="M360,-98C360,-98 398.25,-98 398.25,-98 404.25,-98 410.25,-104 410.25,-110 410.25,-110 410.25,-122 410.25,-122 410.25,-128 404.25,-134 398.25,-134 398.25,-134 360,-134 360,-134 354,-134 348,-128 348,-122 348,-122 348,-110 348,-110 348,-104 354,-98 360,-98"/>
<text xml:space="preserve" text-anchor="middle" x="357.88" y="-110.95" font-family="Times,serif" font-size="14.00"> </text>
<polyline fill="none" stroke="lightgray" points="367.75,-98 367.75,-134"/>
<text xml:space="preserve" text-anchor="middle" x="379.12" y="-110.95" font-family="Times,serif" font-size="14.00">7</text>
<polyline fill="none" stroke="lightgray" points="390.5,-98 390.5,-134"/>
<text xml:space="preserve" text-anchor="middle" x="400.38" y="-110.95" font-family="Times,serif" font-size="14.00"> </text>
</g>
<!-- 4534531392&#45;&gt;4534522544 -->
<g id="edge6" class="edge">
<title>4534531392:r&#45;&gt;4534522544:v</title>
<path fill="none" stroke="black" d="M341.38,-170.5C341.38,-152.03 365.35,-154.86 375.09,-145.04"/>
<polygon fill="black" stroke="black" points="378.27,-146.5 378.58,-135.91 371.74,-144 378.27,-146.5"/>
</g>
<!-- 4534518512 -->
<g id="node8" class="node">
<title>4534518512</title>
<path fill="lightgray" stroke="lightgray" d="M12,-25C12,-25 50.25,-25 50.25,-25 56.25,-25 62.25,-31 62.25,-37 62.25,-37 62.25,-49 62.25,-49 62.25,-55 56.25,-61 50.25,-61 50.25,-61 12,-61 12,-61 6,-61 0,-55 0,-49 0,-49 0,-37 0,-37 0,-31 6,-25 12,-25"/>
<text xml:space="preserve" text-anchor="middle" x="9.88" y="-37.95" font-family="Times,serif" font-size="14.00"> </text>
<polyline fill="none" stroke="lightgray" points="19.75,-25 19.75,-61"/>
<text xml:space="preserve" text-anchor="middle" x="31.12" y="-37.95" font-family="Times,serif" font-size="14.00">0</text>
<polyline fill="none" stroke="lightgray" points="42.5,-25 42.5,-61"/>
<text xml:space="preserve" text-anchor="middle" x="52.38" y="-37.95" font-family="Times,serif" font-size="14.00"> </text>
</g>
<!-- 4534520864&#45;&gt;4534518512 -->
<g id="edge7" class="edge">
<title>4534520864:l&#45;&gt;4534518512:v</title>
<path fill="none" stroke="black" d="M68.88,-97.5C68.88,-79.03 44.9,-81.86 35.16,-72.04"/>
<polygon fill="black" stroke="black" points="38.51,-71 31.67,-62.91 31.98,-73.5 38.51,-71"/>
</g>
<!-- 4534529488 -->
<g id="node9" class="node">
<title>4534529488</title>
<path fill="lightgray" stroke="green" d="M92,-25C92,-25 130.25,-25 130.25,-25 136.25,-25 142.25,-31 142.25,-37 142.25,-37 142.25,-49 142.25,-49 142.25,-55 136.25,-61 130.25,-61 130.25,-61 92,-61 92,-61 86,-61 80,-55 80,-49 80,-49 80,-37 80,-37 80,-31 86,-25 92,-25"/>
<text xml:space="preserve" text-anchor="middle" x="89.88" y="-37.95" font-family="Times,serif" font-size="14.00"> </text>
<polyline fill="none" stroke="green" points="99.75,-25 99.75,-61"/>
<text xml:space="preserve" text-anchor="middle" x="111.12" y="-37.95" font-family="Times,serif" font-size="14.00">5</text>
<polyline fill="none" stroke="green" points="122.5,-25 122.5,-61"/>
<text xml:space="preserve" text-anchor="middle" x="132.38" y="-37.95" font-family="Times,serif" font-size="14.00"> </text>
</g>
<!-- 4534520864&#45;&gt;4534529488 -->
<g id="edge8" class="edge">
<title>4534520864:r&#45;&gt;4534529488:v</title>
<path fill="none" stroke="black" d="M111.38,-97.5C111.38,-86.12 111.25,-80.82 111.18,-72.95"/>
<polygon fill="black" stroke="black" points="114.68,-73 111.13,-63.01 107.68,-73.03 114.68,-73"/>
</g>
<!-- 4534527920 -->
<g id="node10" class="node">
<title>4534527920</title>
<path fill="lightgray" stroke="lightgray" d="M172,-25C172,-25 210.25,-25 210.25,-25 216.25,-25 222.25,-31 222.25,-37 222.25,-37 222.25,-49 222.25,-49 222.25,-55 216.25,-61 210.25,-61 210.25,-61 172,-61 172,-61 166,-61 160,-55 160,-49 160,-49 160,-37 160,-37 160,-31 166,-25 172,-25"/>
<text xml:space="preserve" text-anchor="middle" x="169.88" y="-37.95" font-family="Times,serif" font-size="14.00"> </text>
<polyline fill="none" stroke="lightgray" points="179.75,-25 179.75,-61"/>
<text xml:space="preserve" text-anchor="middle" x="191.12" y="-37.95" font-family="Times,serif" font-size="14.00">2</text>
<polyline fill="none" stroke="lightgray" points="202.5,-25 202.5,-61"/>
<text xml:space="preserve" text-anchor="middle" x="212.38" y="-37.95" font-family="Times,serif" font-size="14.00"> </text>
</g>
<!-- 4534518848&#45;&gt;4534527920 -->
<g id="edge9" class="edge">
<title>4534518848:l&#45;&gt;4534527920:v</title>
<path fill="none" stroke="black" d="M190.5,-97.5C190.5,-86.12 190.82,-80.82 191,-72.95"/>
<polygon fill="black" stroke="black" points="194.5,-73.05 191.11,-63.01 187.5,-72.97 194.5,-73.05"/>
</g>
<!-- 4534523328 -->
<g id="node11" class="node">
<title>4534523328</title>
<path fill="lightgray" stroke="lightgray" d="M252,-25C252,-25 290.25,-25 290.25,-25 296.25,-25 302.25,-31 302.25,-37 302.25,-37 302.25,-49 302.25,-49 302.25,-55 296.25,-61 290.25,-61 290.25,-61 252,-61 252,-61 246,-61 240,-55 240,-49 240,-49 240,-37 240,-37 240,-31 246,-25 252,-25"/>
<text xml:space="preserve" text-anchor="middle" x="249.88" y="-37.95" font-family="Times,serif" font-size="14.00"> </text>
<polyline fill="none" stroke="lightgray" points="259.75,-25 259.75,-61"/>
<text xml:space="preserve" text-anchor="middle" x="271.12" y="-37.95" font-family="Times,serif" font-size="14.00">1</text>
<polyline fill="none" stroke="lightgray" points="282.5,-25 282.5,-61"/>
<text xml:space="preserve" text-anchor="middle" x="292.38" y="-37.95" font-family="Times,serif" font-size="14.00"> </text>
</g>
<!-- 4534518848&#45;&gt;4534523328 -->
<g id="edge10" class="edge">
<title>4534518848:r&#45;&gt;4534523328:v</title>
<path fill="none" stroke="black" d="M239.75,-97.5C239.75,-80.92 258.9,-81.23 267.28,-72.04"/>
<polygon fill="black" stroke="black" points="270.46,-73.52 270.61,-62.92 263.89,-71.11 270.46,-73.52"/>
</g>
</g>
</svg>
