<?xml version="1.0" encoding="UTF-8" standalone="no"?>
<!DOCTYPE svg PUBLIC "-//W3C//DTD SVG 1.1//EN"
 "http://www.w3.org/Graphics/SVG/1.1/DTD/svg11.dtd">
<!-- Generated by graphviz version 14.0.0 (20250921.2048)
 -->
<!-- Pages: 1 -->
<svg width="418pt" height="289pt"
 viewBox="0.00 0.00 418.00 289.00" xmlns="http://www.w3.org/2000/svg" xmlns:xlink="http://www.w3.org/1999/xlink">
<g id="graph0" class="graph" transform="scale(1 1) rotate(0) translate(4 284.5)">
<polygon fill="white" stroke="none" points="-4,4 -4,-284.5 414.25,-284.5 414.25,4 -4,4"/>
<text xml:space="preserve" text-anchor="middle" x="205.12" y="-7.2" font-family="Times,serif" font-size="14.00">MaxHeap [15, 13, 9, 6, 12, 8, 7, 0, 5, 2, 1], heapsize: 11</text>
<!-- 4472372960 -->
<g id="node1" class="node">
<title>4472372960</title>
<path fill="lightgray" stroke="lightgray" d="M232.62,-244C232.62,-244 277.62,-244 277.62,-244 283.62,-244 289.62,-250 289.62,-256 289.62,-256 289.62,-268 289.62,-268 289.62,-274 283.62,-280 277.62,-280 277.62,-280 232.62,-280 232.62,-280 226.62,-280 220.62,-274 220.62,-268 220.62,-268 220.62,-256 220.62,-256 220.62,-250 226.62,-244 232.62,-244"/>
<text xml:space="preserve" text-anchor="middle" x="230.5" y="-256.95" font-family="Times,serif" font-size="14.00"> </text>
<polyline fill="none" stroke="lightgray" points="240.38,-244 240.38,-280"/>
<text xml:space="preserve" text-anchor="middle" x="255.12" y="-256.95" font-family="Times,serif" font-size="14.00">15</text>
<polyline fill="none" stroke="lightgray" points="269.88,-244 269.88,-280"/>
<text xml:space="preserve" text-anchor="middle" x="279.75" y="-256.95" font-family="Times,serif" font-size="14.00"> </text>
</g>
<!-- 4495592256 -->
<g id="node2" class="node">
<title>4495592256</title>
<path fill="lightgray" stroke="lightgray" d="M168.62,-171C168.62,-171 213.62,-171 213.62,-171 219.62,-171 225.62,-177 225.62,-183 225.62,-183 225.62,-195 225.62,-195 225.62,-201 219.62,-207 213.62,-207 213.62,-207 168.62,-207 168.62,-207 162.62,-207 156.62,-201 156.62,-195 156.62,-195 156.62,-183 156.62,-183 156.62,-177 162.62,-171 168.62,-171"/>
<text xml:space="preserve" text-anchor="middle" x="166.5" y="-183.95" font-family="Times,serif" font-size="14.00"> </text>
<polyline fill="none" stroke="lightgray" points="176.38,-171 176.38,-207"/>
<text xml:space="preserve" text-anchor="middle" x="191.12" y="-183.95" font-family="Times,serif" font-size="14.00">13</text>
<polyline fill="none" stroke="lightgray" points="205.88,-171 205.88,-207"/>
<text xml:space="preserve" text-anchor="middle" x="215.75" y="-183.95" font-family="Times,serif" font-size="14.00"> </text>
</g>
<!-- 4472372960&#45;&gt;4495592256 -->
<g id="edge1" class="edge">
<title>4472372960:l&#45;&gt;4495592256:v</title>
<path fill="none" stroke="black" d="M230.5,-243.5C230.5,-224.6 205.5,-228.02 195.34,-218.19"/>
<polygon fill="black" stroke="black" points="198.6,-216.93 191.68,-208.91 192.09,-219.49 198.6,-216.93"/>
</g>
<!-- 4495595056 -->
<g id="node3" class="node">
<title>4495595056</title>
<path fill="lightgray" stroke="lightgray" d="M301,-171C301,-171 339.25,-171 339.25,-171 345.25,-171 351.25,-177 351.25,-183 351.25,-183 351.25,-195 351.25,-195 351.25,-201 345.25,-207 339.25,-207 339.25,-207 301,-207 301,-207 295,-207 289,-201 289,-195 289,-195 289,-183 289,-183 289,-177 295,-171 301,-171"/>
<text xml:space="preserve" text-anchor="middle" x="298.88" y="-183.95" font-family="Times,serif" font-size="14.00"> </text>
<polyline fill="none" stroke="lightgray" points="308.75,-171 308.75,-207"/>
<text xml:space="preserve" text-anchor="middle" x="320.12" y="-183.95" font-family="Times,serif" font-size="14.00">9</text>
<polyline fill="none" stroke="lightgray" points="331.5,-171 331.5,-207"/>
<text xml:space="preserve" text-anchor="middle" x="341.38" y="-183.95" font-family="Times,serif" font-size="14.00"> </text>
</g>
<!-- 4472372960&#45;&gt;4495595056 -->
<g id="edge2" class="edge">
<title>4472372960:r&#45;&gt;4495595056:v</title>
<path fill="none" stroke="black" d="M279.75,-243.5C279.75,-224.15 305.89,-228.2 316.11,-217.99"/>
<polygon fill="black" stroke="black" points="319.27,-219.5 319.58,-208.91 312.74,-217 319.27,-219.5"/>
</g>
<!-- 4495599312 -->
<g id="node4" class="node">
<title>4495599312</title>
<path fill="lightgray" stroke="green" d="M81,-98C81,-98 119.25,-98 119.25,-98 125.25,-98 131.25,-104 131.25,-110 131.25,-110 131.25,-122 131.25,-122 131.25,-128 125.25,-134 119.25,-134 119.25,-134 81,-134 81,-134 75,-134 69,-128 69,-122 69,-122 69,-110 69,-110 69,-104 75,-98 81,-98"/>
<text xml:space="preserve" text-anchor="middle" x="78.88" y="-110.95" font-family="Times,serif" font-size="14.00"> </text>
<polyline fill="none" stroke="green" points="88.75,-98 88.75,-134"/>
<text xml:space="preserve" text-anchor="middle" x="100.12" y="-110.95" font-family="Times,serif" font-size="14.00">6</text>
<polyline fill="none" stroke="green" points="111.5,-98 111.5,-134"/>
<text xml:space="preserve" text-anchor="middle" x="121.38" y="-110.95" font-family="Times,serif" font-size="14.00"> </text>
</g>
<!-- 4495592256&#45;&gt;4495599312 -->
<g id="edge3" class="edge">
<title>4495592256:l&#45;&gt;4495599312:v</title>
<path fill="none" stroke="black" d="M166.5,-170.5C166.5,-141.66 117.48,-160.59 103.69,-145.18"/>
<polygon fill="black" stroke="black" points="107.09,-144.31 100.6,-135.94 100.45,-146.53 107.09,-144.31"/>
</g>
<!-- 4495596288 -->
<g id="node5" class="node">
<title>4495596288</title>
<path fill="lightgray" stroke="lightgray" d="M192.62,-98C192.62,-98 237.62,-98 237.62,-98 243.62,-98 249.62,-104 249.62,-110 249.62,-110 249.62,-122 249.62,-122 249.62,-128 243.62,-134 237.62,-134 237.62,-134 192.62,-134 192.62,-134 186.62,-134 180.62,-128 180.62,-122 180.62,-122 180.62,-110 180.62,-110 180.62,-104 186.62,-98 192.62,-98"/>
<text xml:space="preserve" text-anchor="middle" x="190.5" y="-110.95" font-family="Times,serif" font-size="14.00"> </text>
<polyline fill="none" stroke="lightgray" points="200.38,-98 200.38,-134"/>
<text xml:space="preserve" text-anchor="middle" x="215.12" y="-110.95" font-family="Times,serif" font-size="14.00">12</text>
<polyline fill="none" stroke="lightgray" points="229.88,-98 229.88,-134"/>
<text xml:space="preserve" text-anchor="middle" x="239.75" y="-110.95" font-family="Times,serif" font-size="14.00"> </text>
</g>
<!-- 4495592256&#45;&gt;4495596288 -->
<g id="edge4" class="edge">
<title>4495592256:r&#45;&gt;4495596288:v</title>
<path fill="none" stroke="black" d="M215.75,-170.5C215.75,-159.12 215.43,-153.82 215.25,-145.95"/>
<polygon fill="black" stroke="black" points="218.75,-145.97 215.14,-136.01 211.75,-146.05 218.75,-145.97"/>
</g>
<!-- 4495598304 -->
<g id="node6" class="node">
<title>4495598304</title>
<path fill="lightgray" stroke="lightgray" d="M280,-98C280,-98 318.25,-98 318.25,-98 324.25,-98 330.25,-104 330.25,-110 330.25,-110 330.25,-122 330.25,-122 330.25,-128 324.25,-134 318.25,-134 318.25,-134 280,-134 280,-134 274,-134 268,-128 268,-122 268,-122 268,-110 268,-110 268,-104 274,-98 280,-98"/>
<text xml:space="preserve" text-anchor="middle" x="277.88" y="-110.95" font-family="Times,serif" font-size="14.00"> </text>
<polyline fill="none" stroke="lightgray" points="287.75,-98 287.75,-134"/>
<text xml:space="preserve" text-anchor="middle" x="299.12" y="-110.95" font-family="Times,serif" font-size="14.00">8</text>
<polyline fill="none" stroke="lightgray" points="310.5,-98 310.5,-134"/>
<text xml:space="preserve" text-anchor="middle" x="320.38" y="-110.95" font-family="Times,serif" font-size="14.00"> </text>
</g>
<!-- 4495595056&#45;&gt;4495598304 -->
<g id="edge5" class="edge">
<title>4495595056:l&#45;&gt;4495598304:v</title>
<path fill="none" stroke="black" d="M298.88,-170.5C298.88,-159.12 299,-153.82 299.07,-145.95"/>
<polygon fill="black" stroke="black" points="302.57,-146.03 299.12,-136.01 295.57,-146 302.57,-146.03"/>
</g>
<!-- 4495600656 -->
<g id="node7" class="node">
<title>4495600656</title>
<path fill="lightgray" stroke="lightgray" d="M360,-98C360,-98 398.25,-98 398.25,-98 404.25,-98 410.25,-104 410.25,-110 410.25,-110 410.25,-122 410.25,-122 410.25,-128 404.25,-134 398.25,-134 398.25,-134 360,-134 360,-134 354,-134 348,-128 348,-122 348,-122 348,-110 348,-110 348,-104 354,-98 360,-98"/>
<text xml:space="preserve" text-anchor="middle" x="357.88" y="-110.95" font-family="Times,serif" font-size="14.00"> </text>
<polyline fill="none" stroke="lightgray" points="367.75,-98 367.75,-134"/>
<text xml:space="preserve" text-anchor="middle" x="379.12" y="-110.95" font-family="Times,serif" font-size="14.00">7</text>
<polyline fill="none" stroke="lightgray" points="390.5,-98 390.5,-134"/>
<text xml:space="preserve" text-anchor="middle" x="400.38" y="-110.95" font-family="Times,serif" font-size="14.00"> </text>
</g>
<!-- 4495595056&#45;&gt;4495600656 -->
<g id="edge6" class="edge">
<title>4495595056:r&#45;&gt;4495600656:v</title>
<path fill="none" stroke="black" d="M341.38,-170.5C341.38,-152.03 365.35,-154.86 375.09,-145.04"/>
<polygon fill="black" stroke="black" points="378.27,-146.5 378.58,-135.91 371.74,-144 378.27,-146.5"/>
</g>
<!-- 4495592816 -->
<g id="node8" class="node">
<title>4495592816</title>
<path fill="lightgray" stroke="lightgray" d="M12,-25C12,-25 50.25,-25 50.25,-25 56.25,-25 62.25,-31 62.25,-37 62.25,-37 62.25,-49 62.25,-49 62.25,-55 56.25,-61 50.25,-61 50.25,-61 12,-61 12,-61 6,-61 0,-55 0,-49 0,-49 0,-37 0,-37 0,-31 6,-25 12,-25"/>
<text xml:space="preserve" text-anchor="middle" x="9.88" y="-37.95" font-family="Times,serif" font-size="14.00"> </text>
<polyline fill="none" stroke="lightgray" points="19.75,-25 19.75,-61"/>
<text xml:space="preserve" text-anchor="middle" x="31.12" y="-37.95" font-family="Times,serif" font-size="14.00">0</text>
<polyline fill="none" stroke="lightgray" points="42.5,-25 42.5,-61"/>
<text xml:space="preserve" text-anchor="middle" x="52.38" y="-37.95" font-family="Times,serif" font-size="14.00"> </text>
</g>
<!-- 4495599312&#45;&gt;4495592816 -->
<g id="edge7" class="edge">
<title>4495599312:l&#45;&gt;4495592816:v</title>
<path fill="none" stroke="black" d="M78.88,-97.5C78.88,-75.7 46.74,-83.32 35.2,-72.1"/>
<polygon fill="black" stroke="black" points="38.52,-70.99 31.67,-62.91 31.99,-73.5 38.52,-70.99"/>
</g>
<!-- 4495599760 -->
<g id="node9" class="node">
<title>4495599760</title>
<path fill="lightgray" stroke="green" d="M92,-25C92,-25 130.25,-25 130.25,-25 136.25,-25 142.25,-31 142.25,-37 142.25,-37 142.25,-49 142.25,-49 142.25,-55 136.25,-61 130.25,-61 130.25,-61 92,-61 92,-61 86,-61 80,-55 80,-49 80,-49 80,-37 80,-37 80,-31 86,-25 92,-25"/>
<text xml:space="preserve" text-anchor="middle" x="89.88" y="-37.95" font-family="Times,serif" font-size="14.00"> </text>
<polyline fill="none" stroke="green" points="99.75,-25 99.75,-61"/>
<text xml:space="preserve" text-anchor="middle" x="111.12" y="-37.95" font-family="Times,serif" font-size="14.00">5</text>
<polyline fill="none" stroke="green" points="122.5,-25 122.5,-61"/>
<text xml:space="preserve" text-anchor="middle" x="132.38" y="-37.95" font-family="Times,serif" font-size="14.00"> </text>
</g>
<!-- 4495599312&#45;&gt;4495599760 -->
<g id="edge8" class="edge">
<title>4495599312:r&#45;&gt;4495599760:v</title>
<path fill="none" stroke="black" d="M121.38,-97.5C121.38,-85.41 115.96,-80.67 113.01,-72.6"/>
<polygon fill="black" stroke="black" points="116.5,-72.27 111.38,-62.99 109.6,-73.44 116.5,-72.27"/>
</g>
<!-- 4495603344 -->
<g id="node10" class="node">
<title>4495603344</title>
<path fill="lightgray" stroke="lightgray" d="M172,-25C172,-25 210.25,-25 210.25,-25 216.25,-25 222.25,-31 222.25,-37 222.25,-37 222.25,-49 222.25,-49 222.25,-55 216.25,-61 210.25,-61 210.25,-61 172,-61 172,-61 166,-61 160,-55 160,-49 160,-49 160,-37 160,-37 160,-31 166,-25 172,-25"/>
<text xml:space="preserve" text-anchor="middle" x="169.88" y="-37.95" font-family="Times,serif" font-size="14.00"> </text>
<polyline fill="none" stroke="lightgray" points="179.75,-25 179.75,-61"/>
<text xml:space="preserve" text-anchor="middle" x="191.12" y="-37.95" font-family="Times,serif" font-size="14.00">2</text>
<polyline fill="none" stroke="lightgray" points="202.5,-25 202.5,-61"/>
<text xml:space="preserve" text-anchor="middle" x="212.38" y="-37.95" font-family="Times,serif" font-size="14.00"> </text>
</g>
<!-- 4495596288&#45;&gt;4495603344 -->
<g id="edge9" class="edge">
<title>4495596288:l&#45;&gt;4495603344:v</title>
<path fill="none" stroke="black" d="M190.5,-97.5C190.5,-86.12 190.82,-80.82 191,-72.95"/>
<polygon fill="black" stroke="black" points="194.5,-73.05 191.11,-63.01 187.5,-72.97 194.5,-73.05"/>
</g>
<!-- 4495603680 -->
<g id="node11" class="node">
<title>4495603680</title>
<path fill="lightgray" stroke="lightgray" d="M252,-25C252,-25 290.25,-25 290.25,-25 296.25,-25 302.25,-31 302.25,-37 302.25,-37 302.25,-49 302.25,-49 302.25,-55 296.25,-61 290.25,-61 290.25,-61 252,-61 252,-61 246,-61 240,-55 240,-49 240,-49 240,-37 240,-37 240,-31 246,-25 252,-25"/>
<text xml:space="preserve" text-anchor="middle" x="249.88" y="-37.95" font-family="Times,serif" font-size="14.00"> </text>
<polyline fill="none" stroke="lightgray" points="259.75,-25 259.75,-61"/>
<text xml:space="preserve" text-anchor="middle" x="271.12" y="-37.95" font-family="Times,serif" font-size="14.00">1</text>
<polyline fill="none" stroke="lightgray" points="282.5,-25 282.5,-61"/>
<text xml:space="preserve" text-anchor="middle" x="292.38" y="-37.95" font-family="Times,serif" font-size="14.00"> </text>
</g>
<!-- 4495596288&#45;&gt;4495603680 -->
<g id="edge10" class="edge">
<title>4495596288:r&#45;&gt;4495603680:v</title>
<path fill="none" stroke="black" d="M239.75,-97.5C239.75,-80.92 258.9,-81.23 267.28,-72.04"/>
<polygon fill="black" stroke="black" points="270.46,-73.52 270.61,-62.92 263.89,-71.11 270.46,-73.52"/>
</g>
<!-- 4495599760&#45;&gt;4495599312 -->
<g id="edge11" class="edge">
<title>4495599760&#45;&gt;4495599312</title>
<path fill="none" stroke="green" d="M108.49,-61.03C107.3,-68.68 105.87,-77.92 104.53,-86.58"/>
<polygon fill="green" stroke="green" points="101.09,-85.9 103.02,-96.32 108.01,-86.97 101.09,-85.9"/>
</g>
</g>
</svg>
