<?xml version="1.0" encoding="UTF-8" standalone="no"?>
<!DOCTYPE svg PUBLIC "-//W3C//DTD SVG 1.1//EN"
 "http://www.w3.org/Graphics/SVG/1.1/DTD/svg11.dtd">
<!-- Generated by graphviz version 14.0.0 (20250921.2048)
 -->
<!-- Pages: 1 -->
<svg width="362pt" height="289pt"
 viewBox="0.00 0.00 362.00 289.00" xmlns="http://www.w3.org/2000/svg" xmlns:xlink="http://www.w3.org/1999/xlink">
<g id="graph0" class="graph" transform="scale(1 1) rotate(0) translate(4 284.5)">
<polygon fill="white" stroke="none" points="-4,4 -4,-284.5 358.25,-284.5 358.25,4 -4,4"/>
<text xml:space="preserve" text-anchor="middle" x="177.12" y="-7.2" font-family="Times,serif" font-size="14.00">MaxHeap [5, 13, 20, 25, 7, 17, 2, 8, 4], heapsize: 9</text>
<!-- 4469870272 -->
<g id="node1" class="node">
<title>4469870272</title>
<path fill="lightgray" stroke="lightgray" d="M178,-244C178,-244 216.25,-244 216.25,-244 222.25,-244 228.25,-250 228.25,-256 228.25,-256 228.25,-268 228.25,-268 228.25,-274 222.25,-280 216.25,-280 216.25,-280 178,-280 178,-280 172,-280 166,-274 166,-268 166,-268 166,-256 166,-256 166,-250 172,-244 178,-244"/>
<text xml:space="preserve" text-anchor="middle" x="175.88" y="-256.95" font-family="Times,serif" font-size="14.00"> </text>
<polyline fill="none" stroke="lightgray" points="185.75,-244 185.75,-280"/>
<text xml:space="preserve" text-anchor="middle" x="197.12" y="-256.95" font-family="Times,serif" font-size="14.00">5</text>
<polyline fill="none" stroke="lightgray" points="208.5,-244 208.5,-280"/>
<text xml:space="preserve" text-anchor="middle" x="218.38" y="-256.95" font-family="Times,serif" font-size="14.00"> </text>
</g>
<!-- 4469869824 -->
<g id="node2" class="node">
<title>4469869824</title>
<path fill="lightgray" stroke="lightgray" d="M108.62,-171C108.62,-171 153.62,-171 153.62,-171 159.62,-171 165.62,-177 165.62,-183 165.62,-183 165.62,-195 165.62,-195 165.62,-201 159.62,-207 153.62,-207 153.62,-207 108.62,-207 108.62,-207 102.62,-207 96.62,-201 96.62,-195 96.62,-195 96.62,-183 96.62,-183 96.62,-177 102.62,-171 108.62,-171"/>
<text xml:space="preserve" text-anchor="middle" x="106.5" y="-183.95" font-family="Times,serif" font-size="14.00"> </text>
<polyline fill="none" stroke="lightgray" points="116.38,-171 116.38,-207"/>
<text xml:space="preserve" text-anchor="middle" x="131.12" y="-183.95" font-family="Times,serif" font-size="14.00">13</text>
<polyline fill="none" stroke="lightgray" points="145.88,-171 145.88,-207"/>
<text xml:space="preserve" text-anchor="middle" x="155.75" y="-183.95" font-family="Times,serif" font-size="14.00"> </text>
</g>
<!-- 4469870272&#45;&gt;4469869824 -->
<g id="edge1" class="edge">
<title>4469870272:l&#45;&gt;4469869824:v</title>
<path fill="none" stroke="black" d="M175.88,-243.5C175.88,-222.76 146.33,-228.81 135.25,-218.11"/>
<polygon fill="black" stroke="black" points="138.56,-216.96 131.67,-208.91 132.04,-219.5 138.56,-216.96"/>
</g>
<!-- 4469877104 -->
<g id="node3" class="node">
<title>4469877104</title>
<path fill="lightgray" stroke="green" d="M258.62,-171C258.62,-171 303.62,-171 303.62,-171 309.62,-171 315.62,-177 315.62,-183 315.62,-183 315.62,-195 315.62,-195 315.62,-201 309.62,-207 303.62,-207 303.62,-207 258.62,-207 258.62,-207 252.62,-207 246.62,-201 246.62,-195 246.62,-195 246.62,-183 246.62,-183 246.62,-177 252.62,-171 258.62,-171"/>
<text xml:space="preserve" text-anchor="middle" x="256.5" y="-183.95" font-family="Times,serif" font-size="14.00"> </text>
<polyline fill="none" stroke="green" points="266.38,-171 266.38,-207"/>
<text xml:space="preserve" text-anchor="middle" x="281.12" y="-183.95" font-family="Times,serif" font-size="14.00">20</text>
<polyline fill="none" stroke="green" points="295.88,-171 295.88,-207"/>
<text xml:space="preserve" text-anchor="middle" x="305.75" y="-183.95" font-family="Times,serif" font-size="14.00"> </text>
</g>
<!-- 4469870272&#45;&gt;4469877104 -->
<g id="edge2" class="edge">
<title>4469870272:r&#45;&gt;4469877104:v</title>
<path fill="none" stroke="black" d="M218.38,-243.5C218.38,-216.12 263.88,-232.58 277.39,-218.22"/>
<polygon fill="black" stroke="black" points="280.64,-219.52 280.63,-208.93 274.03,-217.22 280.64,-219.52"/>
</g>
<!-- 4469875200 -->
<g id="node4" class="node">
<title>4469875200</title>
<path fill="lightgray" stroke="lightgray" d="M48.62,-98C48.62,-98 93.62,-98 93.62,-98 99.62,-98 105.62,-104 105.62,-110 105.62,-110 105.62,-122 105.62,-122 105.62,-128 99.62,-134 93.62,-134 93.62,-134 48.62,-134 48.62,-134 42.62,-134 36.62,-128 36.62,-122 36.62,-122 36.62,-110 36.62,-110 36.62,-104 42.62,-98 48.62,-98"/>
<text xml:space="preserve" text-anchor="middle" x="46.5" y="-110.95" font-family="Times,serif" font-size="14.00"> </text>
<polyline fill="none" stroke="lightgray" points="56.38,-98 56.38,-134"/>
<text xml:space="preserve" text-anchor="middle" x="71.12" y="-110.95" font-family="Times,serif" font-size="14.00">25</text>
<polyline fill="none" stroke="lightgray" points="85.88,-98 85.88,-134"/>
<text xml:space="preserve" text-anchor="middle" x="95.75" y="-110.95" font-family="Times,serif" font-size="14.00"> </text>
</g>
<!-- 4469869824&#45;&gt;4469875200 -->
<g id="edge3" class="edge">
<title>4469869824:l&#45;&gt;4469875200:v</title>
<path fill="none" stroke="black" d="M106.5,-170.5C106.5,-152.8 84.47,-154.58 75.18,-145.11"/>
<polygon fill="black" stroke="black" points="78.51,-144 71.67,-135.91 71.97,-146.5 78.51,-144"/>
</g>
<!-- 4469874528 -->
<g id="node5" class="node">
<title>4469874528</title>
<path fill="lightgray" stroke="lightgray" d="M136,-98C136,-98 174.25,-98 174.25,-98 180.25,-98 186.25,-104 186.25,-110 186.25,-110 186.25,-122 186.25,-122 186.25,-128 180.25,-134 174.25,-134 174.25,-134 136,-134 136,-134 130,-134 124,-128 124,-122 124,-122 124,-110 124,-110 124,-104 130,-98 136,-98"/>
<text xml:space="preserve" text-anchor="middle" x="133.88" y="-110.95" font-family="Times,serif" font-size="14.00"> </text>
<polyline fill="none" stroke="lightgray" points="143.75,-98 143.75,-134"/>
<text xml:space="preserve" text-anchor="middle" x="155.12" y="-110.95" font-family="Times,serif" font-size="14.00">7</text>
<polyline fill="none" stroke="lightgray" points="166.5,-98 166.5,-134"/>
<text xml:space="preserve" text-anchor="middle" x="176.38" y="-110.95" font-family="Times,serif" font-size="14.00"> </text>
</g>
<!-- 4469869824&#45;&gt;4469874528 -->
<g id="edge4" class="edge">
<title>4469869824:r&#45;&gt;4469874528:v</title>
<path fill="none" stroke="black" d="M155.75,-170.5C155.75,-159.12 155.43,-153.82 155.25,-145.95"/>
<polygon fill="black" stroke="black" points="158.75,-145.97 155.14,-136.01 151.75,-146.05 158.75,-145.97"/>
</g>
<!-- 4469873856 -->
<g id="node6" class="node">
<title>4469873856</title>
<path fill="lightgray" stroke="lightgray" d="M216.62,-98C216.62,-98 261.62,-98 261.62,-98 267.62,-98 273.62,-104 273.62,-110 273.62,-110 273.62,-122 273.62,-122 273.62,-128 267.62,-134 261.62,-134 261.62,-134 216.62,-134 216.62,-134 210.62,-134 204.62,-128 204.62,-122 204.62,-122 204.62,-110 204.62,-110 204.62,-104 210.62,-98 216.62,-98"/>
<text xml:space="preserve" text-anchor="middle" x="214.5" y="-110.95" font-family="Times,serif" font-size="14.00"> </text>
<polyline fill="none" stroke="lightgray" points="224.38,-98 224.38,-134"/>
<text xml:space="preserve" text-anchor="middle" x="239.12" y="-110.95" font-family="Times,serif" font-size="14.00">17</text>
<polyline fill="none" stroke="lightgray" points="253.88,-98 253.88,-134"/>
<text xml:space="preserve" text-anchor="middle" x="263.75" y="-110.95" font-family="Times,serif" font-size="14.00"> </text>
</g>
<!-- 4469877104&#45;&gt;4469873856 -->
<g id="edge5" class="edge">
<title>4469877104:l&#45;&gt;4469873856:v</title>
<path fill="none" stroke="black" d="M256.5,-170.5C256.5,-157.31 246.93,-153.66 241.99,-145.38"/>
<polygon fill="black" stroke="black" points="245.44,-144.74 239.51,-135.96 238.68,-146.53 245.44,-144.74"/>
</g>
<!-- 4469873072 -->
<g id="node7" class="node">
<title>4469873072</title>
<path fill="lightgray" stroke="green" d="M304,-98C304,-98 342.25,-98 342.25,-98 348.25,-98 354.25,-104 354.25,-110 354.25,-110 354.25,-122 354.25,-122 354.25,-128 348.25,-134 342.25,-134 342.25,-134 304,-134 304,-134 298,-134 292,-128 292,-122 292,-122 292,-110 292,-110 292,-104 298,-98 304,-98"/>
<text xml:space="preserve" text-anchor="middle" x="301.88" y="-110.95" font-family="Times,serif" font-size="14.00"> </text>
<polyline fill="none" stroke="green" points="311.75,-98 311.75,-134"/>
<text xml:space="preserve" text-anchor="middle" x="323.12" y="-110.95" font-family="Times,serif" font-size="14.00">2</text>
<polyline fill="none" stroke="green" points="334.5,-98 334.5,-134"/>
<text xml:space="preserve" text-anchor="middle" x="344.38" y="-110.95" font-family="Times,serif" font-size="14.00"> </text>
</g>
<!-- 4469877104&#45;&gt;4469873072 -->
<g id="edge6" class="edge">
<title>4469877104:r&#45;&gt;4469873072:v</title>
<path fill="none" stroke="black" d="M305.75,-170.5C305.75,-157.31 315.32,-153.66 320.26,-145.38"/>
<polygon fill="black" stroke="black" points="323.57,-146.53 322.74,-135.96 316.81,-144.74 323.57,-146.53"/>
</g>
<!-- 4469877776 -->
<g id="node8" class="node">
<title>4469877776</title>
<path fill="lightgray" stroke="lightgray" d="M12,-25C12,-25 50.25,-25 50.25,-25 56.25,-25 62.25,-31 62.25,-37 62.25,-37 62.25,-49 62.25,-49 62.25,-55 56.25,-61 50.25,-61 50.25,-61 12,-61 12,-61 6,-61 0,-55 0,-49 0,-49 0,-37 0,-37 0,-31 6,-25 12,-25"/>
<text xml:space="preserve" text-anchor="middle" x="9.88" y="-37.95" font-family="Times,serif" font-size="14.00"> </text>
<polyline fill="none" stroke="lightgray" points="19.75,-25 19.75,-61"/>
<text xml:space="preserve" text-anchor="middle" x="31.12" y="-37.95" font-family="Times,serif" font-size="14.00">8</text>
<polyline fill="none" stroke="lightgray" points="42.5,-25 42.5,-61"/>
<text xml:space="preserve" text-anchor="middle" x="52.38" y="-37.95" font-family="Times,serif" font-size="14.00"> </text>
</g>
<!-- 4469875200&#45;&gt;4469877776 -->
<g id="edge7" class="edge">
<title>4469875200:l&#45;&gt;4469877776:v</title>
<path fill="none" stroke="black" d="M46.5,-97.5C46.5,-84.72 38.21,-80.68 33.8,-72.54"/>
<polygon fill="black" stroke="black" points="37.24,-71.86 31.48,-62.97 30.44,-73.51 37.24,-71.86"/>
</g>
<!-- 4469876208 -->
<g id="node9" class="node">
<title>4469876208</title>
<path fill="lightgray" stroke="lightgray" d="M92,-25C92,-25 130.25,-25 130.25,-25 136.25,-25 142.25,-31 142.25,-37 142.25,-37 142.25,-49 142.25,-49 142.25,-55 136.25,-61 130.25,-61 130.25,-61 92,-61 92,-61 86,-61 80,-55 80,-49 80,-49 80,-37 80,-37 80,-31 86,-25 92,-25"/>
<text xml:space="preserve" text-anchor="middle" x="89.88" y="-37.95" font-family="Times,serif" font-size="14.00"> </text>
<polyline fill="none" stroke="lightgray" points="99.75,-25 99.75,-61"/>
<text xml:space="preserve" text-anchor="middle" x="111.12" y="-37.95" font-family="Times,serif" font-size="14.00">4</text>
<polyline fill="none" stroke="lightgray" points="122.5,-25 122.5,-61"/>
<text xml:space="preserve" text-anchor="middle" x="132.38" y="-37.95" font-family="Times,serif" font-size="14.00"> </text>
</g>
<!-- 4469875200&#45;&gt;4469876208 -->
<g id="edge8" class="edge">
<title>4469875200:r&#45;&gt;4469876208:v</title>
<path fill="none" stroke="black" d="M95.75,-97.5C95.75,-84.72 104.04,-80.68 108.45,-72.54"/>
<polygon fill="black" stroke="black" points="111.81,-73.51 110.77,-62.97 105.01,-71.86 111.81,-73.51"/>
</g>
<!-- 4469873072&#45;&gt;4469877104 -->
<g id="edge9" class="edge">
<title>4469873072&#45;&gt;4469877104</title>
<path fill="none" stroke="green" d="M313.05,-134.03C308.27,-142.12 302.43,-151.98 297.07,-161.05"/>
<polygon fill="green" stroke="green" points="294.14,-159.12 292.06,-169.51 300.17,-162.69 294.14,-159.12"/>
</g>
</g>
</svg>
