<?xml version="1.0" encoding="UTF-8" standalone="no"?>
<!DOCTYPE svg PUBLIC "-//W3C//DTD SVG 1.1//EN"
 "http://www.w3.org/Graphics/SVG/1.1/DTD/svg11.dtd">
<!-- Generated by graphviz version 14.0.0 (20250921.2048)
 -->
<!-- Pages: 1 -->
<svg width="307pt" height="216pt"
 viewBox="0.00 0.00 307.00 216.00" xmlns="http://www.w3.org/2000/svg" xmlns:xlink="http://www.w3.org/1999/xlink">
<g id="graph0" class="graph" transform="scale(1 1) rotate(0) translate(4 211.5)">
<polygon fill="white" stroke="none" points="-4,4 -4,-211.5 302.75,-211.5 302.75,4 -4,4"/>
<text xml:space="preserve" text-anchor="middle" x="149.38" y="-7.2" font-family="Times,serif" font-size="14.00">MaxHeap [8, 4, 5, 2, 7, 13, 17, 20, 25], heapsize: 5</text>
<!-- 4534518512 -->
<g id="node1" class="node">
<title>4534518512</title>
<path fill="lightgray" stroke="green" d="M150.25,-171C150.25,-171 188.5,-171 188.5,-171 194.5,-171 200.5,-177 200.5,-183 200.5,-183 200.5,-195 200.5,-195 200.5,-201 194.5,-207 188.5,-207 188.5,-207 150.25,-207 150.25,-207 144.25,-207 138.25,-201 138.25,-195 138.25,-195 138.25,-183 138.25,-183 138.25,-177 144.25,-171 150.25,-171"/>
<text xml:space="preserve" text-anchor="middle" x="148.12" y="-183.95" font-family="Times,serif" font-size="14.00"> </text>
<polyline fill="none" stroke="green" points="158,-171 158,-207"/>
<text xml:space="preserve" text-anchor="middle" x="169.38" y="-183.95" font-family="Times,serif" font-size="14.00">8</text>
<polyline fill="none" stroke="green" points="180.75,-171 180.75,-207"/>
<text xml:space="preserve" text-anchor="middle" x="190.62" y="-183.95" font-family="Times,serif" font-size="14.00"> </text>
</g>
<!-- 4534523328 -->
<g id="node2" class="node">
<title>4534523328</title>
<path fill="lightgray" stroke="green" d="M110.25,-98C110.25,-98 148.5,-98 148.5,-98 154.5,-98 160.5,-104 160.5,-110 160.5,-110 160.5,-122 160.5,-122 160.5,-128 154.5,-134 148.5,-134 148.5,-134 110.25,-134 110.25,-134 104.25,-134 98.25,-128 98.25,-122 98.25,-122 98.25,-110 98.25,-110 98.25,-104 104.25,-98 110.25,-98"/>
<text xml:space="preserve" text-anchor="middle" x="108.12" y="-110.95" font-family="Times,serif" font-size="14.00"> </text>
<polyline fill="none" stroke="green" points="118,-98 118,-134"/>
<text xml:space="preserve" text-anchor="middle" x="129.38" y="-110.95" font-family="Times,serif" font-size="14.00">4</text>
<polyline fill="none" stroke="green" points="140.75,-98 140.75,-134"/>
<text xml:space="preserve" text-anchor="middle" x="150.62" y="-110.95" font-family="Times,serif" font-size="14.00"> </text>
</g>
<!-- 4534518512&#45;&gt;4534523328 -->
<g id="edge1" class="edge">
<title>4534518512:l&#45;&gt;4534523328:v</title>
<path fill="none" stroke="black" d="M148.12,-170.5C148.12,-157.11 137.8,-153.7 132.47,-145.46"/>
<polygon fill="black" stroke="black" points="135.87,-144.63 129.79,-135.96 129.14,-146.53 135.87,-144.63"/>
</g>
<!-- 4534527920 -->
<g id="node3" class="node">
<title>4534527920</title>
<path fill="lightgray" stroke="lightgray" d="M190.25,-98C190.25,-98 228.5,-98 228.5,-98 234.5,-98 240.5,-104 240.5,-110 240.5,-110 240.5,-122 240.5,-122 240.5,-128 234.5,-134 228.5,-134 228.5,-134 190.25,-134 190.25,-134 184.25,-134 178.25,-128 178.25,-122 178.25,-122 178.25,-110 178.25,-110 178.25,-104 184.25,-98 190.25,-98"/>
<text xml:space="preserve" text-anchor="middle" x="188.12" y="-110.95" font-family="Times,serif" font-size="14.00"> </text>
<polyline fill="none" stroke="lightgray" points="198,-98 198,-134"/>
<text xml:space="preserve" text-anchor="middle" x="209.38" y="-110.95" font-family="Times,serif" font-size="14.00">5</text>
<polyline fill="none" stroke="lightgray" points="220.75,-98 220.75,-134"/>
<text xml:space="preserve" text-anchor="middle" x="230.62" y="-110.95" font-family="Times,serif" font-size="14.00"> </text>
</g>
<!-- 4534518512&#45;&gt;4534527920 -->
<g id="edge2" class="edge">
<title>4534518512:r&#45;&gt;4534527920:v</title>
<path fill="none" stroke="black" d="M190.62,-170.5C190.62,-157.11 200.95,-153.7 206.28,-145.46"/>
<polygon fill="black" stroke="black" points="209.61,-146.53 208.96,-135.96 202.88,-144.63 209.61,-146.53"/>
</g>
<!-- 4534529488 -->
<g id="node4" class="node">
<title>4534529488</title>
<path fill="lightgray" stroke="lightgray" d="M70.25,-25C70.25,-25 108.5,-25 108.5,-25 114.5,-25 120.5,-31 120.5,-37 120.5,-37 120.5,-49 120.5,-49 120.5,-55 114.5,-61 108.5,-61 108.5,-61 70.25,-61 70.25,-61 64.25,-61 58.25,-55 58.25,-49 58.25,-49 58.25,-37 58.25,-37 58.25,-31 64.25,-25 70.25,-25"/>
<text xml:space="preserve" text-anchor="middle" x="68.12" y="-37.95" font-family="Times,serif" font-size="14.00"> </text>
<polyline fill="none" stroke="lightgray" points="78,-25 78,-61"/>
<text xml:space="preserve" text-anchor="middle" x="89.38" y="-37.95" font-family="Times,serif" font-size="14.00">2</text>
<polyline fill="none" stroke="lightgray" points="100.75,-25 100.75,-61"/>
<text xml:space="preserve" text-anchor="middle" x="110.62" y="-37.95" font-family="Times,serif" font-size="14.00"> </text>
</g>
<!-- 4534523328&#45;&gt;4534529488 -->
<g id="edge3" class="edge">
<title>4534523328:l&#45;&gt;4534529488:v</title>
<path fill="none" stroke="black" d="M108.12,-97.5C108.12,-84.11 97.8,-80.7 92.47,-72.46"/>
<polygon fill="black" stroke="black" points="95.87,-71.63 89.79,-62.96 89.14,-73.53 95.87,-71.63"/>
</g>
<!-- 4534530832 -->
<g id="node5" class="node">
<title>4534530832</title>
<path fill="lightgray" stroke="lightgray" d="M150.25,-25C150.25,-25 188.5,-25 188.5,-25 194.5,-25 200.5,-31 200.5,-37 200.5,-37 200.5,-49 200.5,-49 200.5,-55 194.5,-61 188.5,-61 188.5,-61 150.25,-61 150.25,-61 144.25,-61 138.25,-55 138.25,-49 138.25,-49 138.25,-37 138.25,-37 138.25,-31 144.25,-25 150.25,-25"/>
<text xml:space="preserve" text-anchor="middle" x="148.12" y="-37.95" font-family="Times,serif" font-size="14.00"> </text>
<polyline fill="none" stroke="lightgray" points="158,-25 158,-61"/>
<text xml:space="preserve" text-anchor="middle" x="169.38" y="-37.95" font-family="Times,serif" font-size="14.00">7</text>
<polyline fill="none" stroke="lightgray" points="180.75,-25 180.75,-61"/>
<text xml:space="preserve" text-anchor="middle" x="190.62" y="-37.95" font-family="Times,serif" font-size="14.00"> </text>
</g>
<!-- 4534523328&#45;&gt;4534530832 -->
<g id="edge4" class="edge">
<title>4534523328:r&#45;&gt;4534530832:v</title>
<path fill="none" stroke="black" d="M150.62,-97.5C150.62,-84.11 160.95,-80.7 166.28,-72.46"/>
<polygon fill="black" stroke="black" points="169.61,-73.53 168.96,-62.96 162.88,-71.63 169.61,-73.53"/>
</g>
</g>
</svg>
