<?xml version="1.0" encoding="UTF-8" standalone="no"?>
<!DOCTYPE svg PUBLIC "-//W3C//DTD SVG 1.1//EN"
 "http://www.w3.org/Graphics/SVG/1.1/DTD/svg11.dtd">
<!-- Generated by graphviz version 14.0.0 (20250921.2048)
 -->
<!-- Pages: 1 -->
<svg width="171pt" height="232pt"
 viewBox="0.00 0.00 171.00 232.00" xmlns="http://www.w3.org/2000/svg" xmlns:xlink="http://www.w3.org/1999/xlink">
<g id="graph0" class="graph" transform="scale(1 1) rotate(0) translate(4 228)">
<polygon fill="white" stroke="none" points="-4,4 -4,-228 167.25,-228 167.25,4 -4,4"/>
<text xml:space="preserve" text-anchor="middle" x="81.62" y="-23.7" font-family="Times,serif" font-size="14.00">ls.length = 4</text>
<text xml:space="preserve" text-anchor="middle" x="81.62" y="-7.2" font-family="Times,serif" font-size="14.00">first leaf = [2]</text>
<!-- 4458631232 -->
<g id="node1" class="node">
<title>4458631232</title>
<path fill="lightgray" stroke="lightgray" d="M73,-187.5C73,-187.5 111.25,-187.5 111.25,-187.5 117.25,-187.5 123.25,-193.5 123.25,-199.5 123.25,-199.5 123.25,-211.5 123.25,-211.5 123.25,-217.5 117.25,-223.5 111.25,-223.5 111.25,-223.5 73,-223.5 73,-223.5 67,-223.5 61,-217.5 61,-211.5 61,-211.5 61,-199.5 61,-199.5 61,-193.5 67,-187.5 73,-187.5"/>
<text xml:space="preserve" text-anchor="middle" x="70.88" y="-200.45" font-family="Times,serif" font-size="14.00"> </text>
<polyline fill="none" stroke="lightgray" points="80.75,-187.5 80.75,-223.5"/>
<text xml:space="preserve" text-anchor="middle" x="92.12" y="-200.45" font-family="Times,serif" font-size="14.00">0</text>
<polyline fill="none" stroke="lightgray" points="103.5,-187.5 103.5,-223.5"/>
<text xml:space="preserve" text-anchor="middle" x="113.38" y="-200.45" font-family="Times,serif" font-size="14.00"> </text>
</g>
<!-- 4458630992 -->
<g id="node2" class="node">
<title>4458630992</title>
<path fill="lightgray" stroke="lightgray" d="M33,-114.5C33,-114.5 71.25,-114.5 71.25,-114.5 77.25,-114.5 83.25,-120.5 83.25,-126.5 83.25,-126.5 83.25,-138.5 83.25,-138.5 83.25,-144.5 77.25,-150.5 71.25,-150.5 71.25,-150.5 33,-150.5 33,-150.5 27,-150.5 21,-144.5 21,-138.5 21,-138.5 21,-126.5 21,-126.5 21,-120.5 27,-114.5 33,-114.5"/>
<text xml:space="preserve" text-anchor="middle" x="30.88" y="-127.45" font-family="Times,serif" font-size="14.00"> </text>
<polyline fill="none" stroke="lightgray" points="40.75,-114.5 40.75,-150.5"/>
<text xml:space="preserve" text-anchor="middle" x="52.12" y="-127.45" font-family="Times,serif" font-size="14.00">1</text>
<polyline fill="none" stroke="lightgray" points="63.5,-114.5 63.5,-150.5"/>
<text xml:space="preserve" text-anchor="middle" x="73.38" y="-127.45" font-family="Times,serif" font-size="14.00"> </text>
</g>
<!-- 4458631232&#45;&gt;4458630992 -->
<g id="edge1" class="edge">
<title>4458631232:l&#45;&gt;4458630992:v</title>
<path fill="none" stroke="black" d="M70.88,-187C70.88,-173.61 60.55,-170.2 55.22,-161.96"/>
<polygon fill="black" stroke="black" points="58.62,-161.13 52.54,-152.46 51.89,-163.03 58.62,-161.13"/>
</g>
<!-- 4468179920 -->
<g id="node3" class="node">
<title>4468179920</title>
<path fill="lightgray" stroke="green" d="M113,-114.5C113,-114.5 151.25,-114.5 151.25,-114.5 157.25,-114.5 163.25,-120.5 163.25,-126.5 163.25,-126.5 163.25,-138.5 163.25,-138.5 163.25,-144.5 157.25,-150.5 151.25,-150.5 151.25,-150.5 113,-150.5 113,-150.5 107,-150.5 101,-144.5 101,-138.5 101,-138.5 101,-126.5 101,-126.5 101,-120.5 107,-114.5 113,-114.5"/>
<text xml:space="preserve" text-anchor="middle" x="110.88" y="-127.45" font-family="Times,serif" font-size="14.00"> </text>
<polyline fill="none" stroke="green" points="120.75,-114.5 120.75,-150.5"/>
<text xml:space="preserve" text-anchor="middle" x="132.12" y="-127.45" font-family="Times,serif" font-size="14.00">2</text>
<polyline fill="none" stroke="green" points="143.5,-114.5 143.5,-150.5"/>
<text xml:space="preserve" text-anchor="middle" x="153.38" y="-127.45" font-family="Times,serif" font-size="14.00"> </text>
</g>
<!-- 4458631232&#45;&gt;4468179920 -->
<g id="edge2" class="edge">
<title>4458631232:r&#45;&gt;4468179920:v</title>
<path fill="none" stroke="black" d="M113.38,-187C113.38,-173.61 123.7,-170.2 129.03,-161.96"/>
<polygon fill="black" stroke="black" points="132.36,-163.03 131.71,-152.46 125.63,-161.13 132.36,-163.03"/>
</g>
<!-- 4468181488 -->
<g id="node4" class="node">
<title>4468181488</title>
<path fill="lightgray" stroke="green" d="M12,-41.5C12,-41.5 50.25,-41.5 50.25,-41.5 56.25,-41.5 62.25,-47.5 62.25,-53.5 62.25,-53.5 62.25,-65.5 62.25,-65.5 62.25,-71.5 56.25,-77.5 50.25,-77.5 50.25,-77.5 12,-77.5 12,-77.5 6,-77.5 0,-71.5 0,-65.5 0,-65.5 0,-53.5 0,-53.5 0,-47.5 6,-41.5 12,-41.5"/>
<text xml:space="preserve" text-anchor="middle" x="9.88" y="-54.45" font-family="Times,serif" font-size="14.00"> </text>
<polyline fill="none" stroke="green" points="19.75,-41.5 19.75,-77.5"/>
<text xml:space="preserve" text-anchor="middle" x="31.12" y="-54.45" font-family="Times,serif" font-size="14.00">3</text>
<polyline fill="none" stroke="green" points="42.5,-41.5 42.5,-77.5"/>
<text xml:space="preserve" text-anchor="middle" x="52.38" y="-54.45" font-family="Times,serif" font-size="14.00"> </text>
</g>
<!-- 4458630992&#45;&gt;4468181488 -->
<g id="edge3" class="edge">
<title>4458630992:l&#45;&gt;4468181488:v</title>
<path fill="none" stroke="black" d="M30.88,-114C30.88,-102.62 31,-97.32 31.07,-89.45"/>
<polygon fill="black" stroke="black" points="34.57,-89.53 31.12,-79.51 27.57,-89.5 34.57,-89.53"/>
</g>
</g>
</svg>
