<?xml version="1.0" encoding="UTF-8" standalone="no"?>
<!DOCTYPE svg PUBLIC "-//W3C//DTD SVG 1.1//EN"
 "http://www.w3.org/Graphics/SVG/1.1/DTD/svg11.dtd">
<!-- Generated by graphviz version 14.0.0 (20250921.2048)
 -->
<!-- Pages: 1 -->
<svg width="314pt" height="216pt"
 viewBox="0.00 0.00 314.00 216.00" xmlns="http://www.w3.org/2000/svg" xmlns:xlink="http://www.w3.org/1999/xlink">
<g id="graph0" class="graph" transform="scale(1 1) rotate(0) translate(4 211.5)">
<polygon fill="white" stroke="none" points="-4,4 -4,-211.5 309.5,-211.5 309.5,4 -4,4"/>
<text xml:space="preserve" text-anchor="middle" x="152.75" y="-7.2" font-family="Times,serif" font-size="14.00">MaxHeap [19, 10, 17, 9, 3, 5, 6, 22, 84], heapsize: 7</text>
<!-- 4534529488 -->
<g id="node1" class="node">
<title>4534529488</title>
<path fill="lightgray" stroke="lightgray" d="M130.25,-171C130.25,-171 175.25,-171 175.25,-171 181.25,-171 187.25,-177 187.25,-183 187.25,-183 187.25,-195 187.25,-195 187.25,-201 181.25,-207 175.25,-207 175.25,-207 130.25,-207 130.25,-207 124.25,-207 118.25,-201 118.25,-195 118.25,-195 118.25,-183 118.25,-183 118.25,-177 124.25,-171 130.25,-171"/>
<text xml:space="preserve" text-anchor="middle" x="128.12" y="-183.95" font-family="Times,serif" font-size="14.00"> </text>
<polyline fill="none" stroke="lightgray" points="138,-171 138,-207"/>
<text xml:space="preserve" text-anchor="middle" x="152.75" y="-183.95" font-family="Times,serif" font-size="14.00">19</text>
<polyline fill="none" stroke="lightgray" points="167.5,-171 167.5,-207"/>
<text xml:space="preserve" text-anchor="middle" x="177.38" y="-183.95" font-family="Times,serif" font-size="14.00"> </text>
</g>
<!-- 4534521424 -->
<g id="node2" class="node">
<title>4534521424</title>
<path fill="lightgray" stroke="lightgray" d="M66.25,-98C66.25,-98 111.25,-98 111.25,-98 117.25,-98 123.25,-104 123.25,-110 123.25,-110 123.25,-122 123.25,-122 123.25,-128 117.25,-134 111.25,-134 111.25,-134 66.25,-134 66.25,-134 60.25,-134 54.25,-128 54.25,-122 54.25,-122 54.25,-110 54.25,-110 54.25,-104 60.25,-98 66.25,-98"/>
<text xml:space="preserve" text-anchor="middle" x="64.12" y="-110.95" font-family="Times,serif" font-size="14.00"> </text>
<polyline fill="none" stroke="lightgray" points="74,-98 74,-134"/>
<text xml:space="preserve" text-anchor="middle" x="88.75" y="-110.95" font-family="Times,serif" font-size="14.00">10</text>
<polyline fill="none" stroke="lightgray" points="103.5,-98 103.5,-134"/>
<text xml:space="preserve" text-anchor="middle" x="113.38" y="-110.95" font-family="Times,serif" font-size="14.00"> </text>
</g>
<!-- 4534529488&#45;&gt;4534521424 -->
<g id="edge1" class="edge">
<title>4534529488:l&#45;&gt;4534521424:v</title>
<path fill="none" stroke="black" d="M128.12,-170.5C128.12,-151.6 103.12,-155.02 92.96,-145.19"/>
<polygon fill="black" stroke="black" points="96.23,-143.93 89.31,-135.91 89.72,-146.49 96.23,-143.93"/>
</g>
<!-- 4534525344 -->
<g id="node3" class="node">
<title>4534525344</title>
<path fill="lightgray" stroke="green" d="M194.25,-98C194.25,-98 239.25,-98 239.25,-98 245.25,-98 251.25,-104 251.25,-110 251.25,-110 251.25,-122 251.25,-122 251.25,-128 245.25,-134 239.25,-134 239.25,-134 194.25,-134 194.25,-134 188.25,-134 182.25,-128 182.25,-122 182.25,-122 182.25,-110 182.25,-110 182.25,-104 188.25,-98 194.25,-98"/>
<text xml:space="preserve" text-anchor="middle" x="192.12" y="-110.95" font-family="Times,serif" font-size="14.00"> </text>
<polyline fill="none" stroke="green" points="202,-98 202,-134"/>
<text xml:space="preserve" text-anchor="middle" x="216.75" y="-110.95" font-family="Times,serif" font-size="14.00">17</text>
<polyline fill="none" stroke="green" points="231.5,-98 231.5,-134"/>
<text xml:space="preserve" text-anchor="middle" x="241.38" y="-110.95" font-family="Times,serif" font-size="14.00"> </text>
</g>
<!-- 4534529488&#45;&gt;4534525344 -->
<g id="edge2" class="edge">
<title>4534529488:r&#45;&gt;4534525344:v</title>
<path fill="none" stroke="black" d="M177.38,-170.5C177.38,-151.6 202.38,-155.02 212.54,-145.19"/>
<polygon fill="black" stroke="black" points="215.78,-146.49 216.19,-135.91 209.27,-143.93 215.78,-146.49"/>
</g>
<!-- 4534530272 -->
<g id="node4" class="node">
<title>4534530272</title>
<path fill="lightgray" stroke="lightgray" d="M13.62,-25C13.62,-25 51.88,-25 51.88,-25 57.88,-25 63.88,-31 63.88,-37 63.88,-37 63.88,-49 63.88,-49 63.88,-55 57.88,-61 51.88,-61 51.88,-61 13.62,-61 13.62,-61 7.62,-61 1.62,-55 1.62,-49 1.62,-49 1.62,-37 1.62,-37 1.62,-31 7.62,-25 13.62,-25"/>
<text xml:space="preserve" text-anchor="middle" x="11.5" y="-37.95" font-family="Times,serif" font-size="14.00"> </text>
<polyline fill="none" stroke="lightgray" points="21.38,-25 21.38,-61"/>
<text xml:space="preserve" text-anchor="middle" x="32.75" y="-37.95" font-family="Times,serif" font-size="14.00">9</text>
<polyline fill="none" stroke="lightgray" points="44.12,-25 44.12,-61"/>
<text xml:space="preserve" text-anchor="middle" x="54" y="-37.95" font-family="Times,serif" font-size="14.00"> </text>
</g>
<!-- 4534521424&#45;&gt;4534530272 -->
<g id="edge3" class="edge">
<title>4534521424:l&#45;&gt;4534530272:v</title>
<path fill="none" stroke="black" d="M64.12,-97.5C64.12,-80.92 44.98,-81.23 36.6,-72.04"/>
<polygon fill="black" stroke="black" points="39.99,-71.11 33.27,-62.92 33.41,-73.52 39.99,-71.11"/>
</g>
<!-- 4534520976 -->
<g id="node5" class="node">
<title>4534520976</title>
<path fill="lightgray" stroke="lightgray" d="M93.62,-25C93.62,-25 131.88,-25 131.88,-25 137.88,-25 143.88,-31 143.88,-37 143.88,-37 143.88,-49 143.88,-49 143.88,-55 137.88,-61 131.88,-61 131.88,-61 93.62,-61 93.62,-61 87.62,-61 81.62,-55 81.62,-49 81.62,-49 81.62,-37 81.62,-37 81.62,-31 87.62,-25 93.62,-25"/>
<text xml:space="preserve" text-anchor="middle" x="91.5" y="-37.95" font-family="Times,serif" font-size="14.00"> </text>
<polyline fill="none" stroke="lightgray" points="101.38,-25 101.38,-61"/>
<text xml:space="preserve" text-anchor="middle" x="112.75" y="-37.95" font-family="Times,serif" font-size="14.00">3</text>
<polyline fill="none" stroke="lightgray" points="124.12,-25 124.12,-61"/>
<text xml:space="preserve" text-anchor="middle" x="134" y="-37.95" font-family="Times,serif" font-size="14.00"> </text>
</g>
<!-- 4534521424&#45;&gt;4534520976 -->
<g id="edge4" class="edge">
<title>4534521424:r&#45;&gt;4534520976:v</title>
<path fill="none" stroke="black" d="M113.38,-97.5C113.38,-86.12 113.06,-80.82 112.88,-72.95"/>
<polygon fill="black" stroke="black" points="116.38,-72.97 112.77,-63.01 109.38,-73.05 116.38,-72.97"/>
</g>
<!-- 4534518512 -->
<g id="node6" class="node">
<title>4534518512</title>
<path fill="lightgray" stroke="green" d="M173.62,-25C173.62,-25 211.88,-25 211.88,-25 217.88,-25 223.88,-31 223.88,-37 223.88,-37 223.88,-49 223.88,-49 223.88,-55 217.88,-61 211.88,-61 211.88,-61 173.62,-61 173.62,-61 167.62,-61 161.62,-55 161.62,-49 161.62,-49 161.62,-37 161.62,-37 161.62,-31 167.62,-25 173.62,-25"/>
<text xml:space="preserve" text-anchor="middle" x="171.5" y="-37.95" font-family="Times,serif" font-size="14.00"> </text>
<polyline fill="none" stroke="green" points="181.38,-25 181.38,-61"/>
<text xml:space="preserve" text-anchor="middle" x="192.75" y="-37.95" font-family="Times,serif" font-size="14.00">5</text>
<polyline fill="none" stroke="green" points="204.12,-25 204.12,-61"/>
<text xml:space="preserve" text-anchor="middle" x="214" y="-37.95" font-family="Times,serif" font-size="14.00"> </text>
</g>
<!-- 4534525344&#45;&gt;4534518512 -->
<g id="edge5" class="edge">
<title>4534525344:l&#45;&gt;4534518512:v</title>
<path fill="none" stroke="black" d="M192.12,-97.5C192.12,-86.12 192.44,-80.82 192.62,-72.95"/>
<polygon fill="black" stroke="black" points="196.12,-73.05 192.73,-63.01 189.12,-72.97 196.12,-73.05"/>
</g>
<!-- 4534524672 -->
<g id="node7" class="node">
<title>4534524672</title>
<path fill="lightgray" stroke="lightgray" d="M253.62,-25C253.62,-25 291.88,-25 291.88,-25 297.88,-25 303.88,-31 303.88,-37 303.88,-37 303.88,-49 303.88,-49 303.88,-55 297.88,-61 291.88,-61 291.88,-61 253.62,-61 253.62,-61 247.62,-61 241.62,-55 241.62,-49 241.62,-49 241.62,-37 241.62,-37 241.62,-31 247.62,-25 253.62,-25"/>
<text xml:space="preserve" text-anchor="middle" x="251.5" y="-37.95" font-family="Times,serif" font-size="14.00"> </text>
<polyline fill="none" stroke="lightgray" points="261.38,-25 261.38,-61"/>
<text xml:space="preserve" text-anchor="middle" x="272.75" y="-37.95" font-family="Times,serif" font-size="14.00">6</text>
<polyline fill="none" stroke="lightgray" points="284.12,-25 284.12,-61"/>
<text xml:space="preserve" text-anchor="middle" x="294" y="-37.95" font-family="Times,serif" font-size="14.00"> </text>
</g>
<!-- 4534525344&#45;&gt;4534524672 -->
<g id="edge6" class="edge">
<title>4534525344:r&#45;&gt;4534524672:v</title>
<path fill="none" stroke="black" d="M241.38,-97.5C241.38,-80.92 260.52,-81.23 268.9,-72.04"/>
<polygon fill="black" stroke="black" points="272.09,-73.52 272.23,-62.92 265.51,-71.11 272.09,-73.52"/>
</g>
</g>
</svg>
