<?xml version="1.0" encoding="UTF-8" standalone="no"?>
<!DOCTYPE svg PUBLIC "-//W3C//DTD SVG 1.1//EN"
 "http://www.w3.org/Graphics/SVG/1.1/DTD/svg11.dtd">
<!-- Generated by graphviz version 14.0.0 (20250921.2048)
 -->
<!-- Pages: 1 -->
<svg width="314pt" height="216pt"
 viewBox="0.00 0.00 314.00 216.00" xmlns="http://www.w3.org/2000/svg" xmlns:xlink="http://www.w3.org/1999/xlink">
<g id="graph0" class="graph" transform="scale(1 1) rotate(0) translate(4 211.5)">
<polygon fill="white" stroke="none" points="-4,4 -4,-211.5 309.5,-211.5 309.5,4 -4,4"/>
<text xml:space="preserve" text-anchor="middle" x="152.75" y="-7.2" font-family="Times,serif" font-size="14.00">MaxHeap [3, 9, 6, 5, 10, 17, 19, 22, 84], heapsize: 5</text>
<!-- 4534525568 -->
<g id="node1" class="node">
<title>4534525568</title>
<path fill="lightgray" stroke="green" d="M154.62,-171C154.62,-171 192.88,-171 192.88,-171 198.88,-171 204.88,-177 204.88,-183 204.88,-183 204.88,-195 204.88,-195 204.88,-201 198.88,-207 192.88,-207 192.88,-207 154.62,-207 154.62,-207 148.62,-207 142.62,-201 142.62,-195 142.62,-195 142.62,-183 142.62,-183 142.62,-177 148.62,-171 154.62,-171"/>
<text xml:space="preserve" text-anchor="middle" x="152.5" y="-183.95" font-family="Times,serif" font-size="14.00"> </text>
<polyline fill="none" stroke="green" points="162.38,-171 162.38,-207"/>
<text xml:space="preserve" text-anchor="middle" x="173.75" y="-183.95" font-family="Times,serif" font-size="14.00">3</text>
<polyline fill="none" stroke="green" points="185.12,-171 185.12,-207"/>
<text xml:space="preserve" text-anchor="middle" x="195" y="-183.95" font-family="Times,serif" font-size="14.00"> </text>
</g>
<!-- 4534530160 -->
<g id="node2" class="node">
<title>4534530160</title>
<path fill="lightgray" stroke="lightgray" d="M114.62,-98C114.62,-98 152.88,-98 152.88,-98 158.88,-98 164.88,-104 164.88,-110 164.88,-110 164.88,-122 164.88,-122 164.88,-128 158.88,-134 152.88,-134 152.88,-134 114.62,-134 114.62,-134 108.62,-134 102.62,-128 102.62,-122 102.62,-122 102.62,-110 102.62,-110 102.62,-104 108.62,-98 114.62,-98"/>
<text xml:space="preserve" text-anchor="middle" x="112.5" y="-110.95" font-family="Times,serif" font-size="14.00"> </text>
<polyline fill="none" stroke="lightgray" points="122.38,-98 122.38,-134"/>
<text xml:space="preserve" text-anchor="middle" x="133.75" y="-110.95" font-family="Times,serif" font-size="14.00">9</text>
<polyline fill="none" stroke="lightgray" points="145.12,-98 145.12,-134"/>
<text xml:space="preserve" text-anchor="middle" x="155" y="-110.95" font-family="Times,serif" font-size="14.00"> </text>
</g>
<!-- 4534525568&#45;&gt;4534530160 -->
<g id="edge1" class="edge">
<title>4534525568:l&#45;&gt;4534530160:v</title>
<path fill="none" stroke="black" d="M152.5,-170.5C152.5,-157.11 142.17,-153.7 136.85,-145.46"/>
<polygon fill="black" stroke="black" points="140.25,-144.63 134.16,-135.96 133.51,-146.53 140.25,-144.63"/>
</g>
<!-- 4534527808 -->
<g id="node3" class="node">
<title>4534527808</title>
<path fill="lightgray" stroke="lightgray" d="M194.62,-98C194.62,-98 232.88,-98 232.88,-98 238.88,-98 244.88,-104 244.88,-110 244.88,-110 244.88,-122 244.88,-122 244.88,-128 238.88,-134 232.88,-134 232.88,-134 194.62,-134 194.62,-134 188.62,-134 182.62,-128 182.62,-122 182.62,-122 182.62,-110 182.62,-110 182.62,-104 188.62,-98 194.62,-98"/>
<text xml:space="preserve" text-anchor="middle" x="192.5" y="-110.95" font-family="Times,serif" font-size="14.00"> </text>
<polyline fill="none" stroke="lightgray" points="202.38,-98 202.38,-134"/>
<text xml:space="preserve" text-anchor="middle" x="213.75" y="-110.95" font-family="Times,serif" font-size="14.00">6</text>
<polyline fill="none" stroke="lightgray" points="225.12,-98 225.12,-134"/>
<text xml:space="preserve" text-anchor="middle" x="235" y="-110.95" font-family="Times,serif" font-size="14.00"> </text>
</g>
<!-- 4534525568&#45;&gt;4534527808 -->
<g id="edge2" class="edge">
<title>4534525568:r&#45;&gt;4534527808:v</title>
<path fill="none" stroke="black" d="M195,-170.5C195,-157.11 205.33,-153.7 210.65,-145.46"/>
<polygon fill="black" stroke="black" points="213.99,-146.53 213.34,-135.96 207.25,-144.63 213.99,-146.53"/>
</g>
<!-- 4534519184 -->
<g id="node4" class="node">
<title>4534519184</title>
<path fill="lightgray" stroke="lightgray" d="M72.62,-25C72.62,-25 110.88,-25 110.88,-25 116.88,-25 122.88,-31 122.88,-37 122.88,-37 122.88,-49 122.88,-49 122.88,-55 116.88,-61 110.88,-61 110.88,-61 72.62,-61 72.62,-61 66.62,-61 60.62,-55 60.62,-49 60.62,-49 60.62,-37 60.62,-37 60.62,-31 66.62,-25 72.62,-25"/>
<text xml:space="preserve" text-anchor="middle" x="70.5" y="-37.95" font-family="Times,serif" font-size="14.00"> </text>
<polyline fill="none" stroke="lightgray" points="80.38,-25 80.38,-61"/>
<text xml:space="preserve" text-anchor="middle" x="91.75" y="-37.95" font-family="Times,serif" font-size="14.00">5</text>
<polyline fill="none" stroke="lightgray" points="103.12,-25 103.12,-61"/>
<text xml:space="preserve" text-anchor="middle" x="113" y="-37.95" font-family="Times,serif" font-size="14.00"> </text>
</g>
<!-- 4534530160&#45;&gt;4534519184 -->
<g id="edge3" class="edge">
<title>4534530160:l&#45;&gt;4534519184:v</title>
<path fill="none" stroke="black" d="M112.5,-97.5C112.5,-83.65 100.83,-80.71 94.99,-72.32"/>
<polygon fill="black" stroke="black" points="98.41,-71.52 92.18,-62.95 91.7,-73.53 98.41,-71.52"/>
</g>
<!-- 4534530048 -->
<g id="node5" class="node">
<title>4534530048</title>
<path fill="lightgray" stroke="green" d="M153.25,-25C153.25,-25 198.25,-25 198.25,-25 204.25,-25 210.25,-31 210.25,-37 210.25,-37 210.25,-49 210.25,-49 210.25,-55 204.25,-61 198.25,-61 198.25,-61 153.25,-61 153.25,-61 147.25,-61 141.25,-55 141.25,-49 141.25,-49 141.25,-37 141.25,-37 141.25,-31 147.25,-25 153.25,-25"/>
<text xml:space="preserve" text-anchor="middle" x="151.12" y="-37.95" font-family="Times,serif" font-size="14.00"> </text>
<polyline fill="none" stroke="green" points="161,-25 161,-61"/>
<text xml:space="preserve" text-anchor="middle" x="175.75" y="-37.95" font-family="Times,serif" font-size="14.00">10</text>
<polyline fill="none" stroke="green" points="190.5,-25 190.5,-61"/>
<text xml:space="preserve" text-anchor="middle" x="200.38" y="-37.95" font-family="Times,serif" font-size="14.00"> </text>
</g>
<!-- 4534530160&#45;&gt;4534530048 -->
<g id="edge4" class="edge">
<title>4534530160:r&#45;&gt;4534530048:v</title>
<path fill="none" stroke="black" d="M155,-97.5C155,-83.65 166.67,-80.71 172.51,-72.32"/>
<polygon fill="black" stroke="black" points="175.8,-73.53 175.32,-62.95 169.09,-71.52 175.8,-73.53"/>
</g>
</g>
</svg>
