<?xml version="1.0" encoding="UTF-8" standalone="no"?>
<!DOCTYPE svg PUBLIC "-//W3C//DTD SVG 1.1//EN"
 "http://www.w3.org/Graphics/SVG/1.1/DTD/svg11.dtd">
<!-- Generated by graphviz version 14.0.0 (20250921.2048)
 -->
<!-- Pages: 1 -->
<svg width="371pt" height="289pt"
 viewBox="0.00 0.00 371.00 289.00" xmlns="http://www.w3.org/2000/svg" xmlns:xlink="http://www.w3.org/1999/xlink">
<g id="graph0" class="graph" transform="scale(1 1) rotate(0) translate(4 284.5)">
<polygon fill="white" stroke="none" points="-4,4 -4,-284.5 367,-284.5 367,4 -4,4"/>
<text xml:space="preserve" text-anchor="middle" x="181.5" y="-7.2" font-family="Times,serif" font-size="14.00">MaxHeap [10, 5, 6, 9, 3, 17, 19, 22, 84], heapsize: 5</text>
<!-- 4469870608 -->
<g id="node1" class="node">
<title>4469870608</title>
<path fill="lightgray" stroke="green" d="M138,-244C138,-244 183,-244 183,-244 189,-244 195,-250 195,-256 195,-256 195,-268 195,-268 195,-274 189,-280 183,-280 183,-280 138,-280 138,-280 132,-280 126,-274 126,-268 126,-268 126,-256 126,-256 126,-250 132,-244 138,-244"/>
<text xml:space="preserve" text-anchor="middle" x="135.88" y="-256.95" font-family="Times,serif" font-size="14.00"> </text>
<polyline fill="none" stroke="green" points="145.75,-244 145.75,-280"/>
<text xml:space="preserve" text-anchor="middle" x="160.5" y="-256.95" font-family="Times,serif" font-size="14.00">10</text>
<polyline fill="none" stroke="green" points="175.25,-244 175.25,-280"/>
<text xml:space="preserve" text-anchor="middle" x="185.12" y="-256.95" font-family="Times,serif" font-size="14.00"> </text>
</g>
<!-- 4469868816 -->
<g id="node2" class="node">
<title>4469868816</title>
<path fill="lightgray" stroke="green" d="M117.38,-171C117.38,-171 155.62,-171 155.62,-171 161.62,-171 167.62,-177 167.62,-183 167.62,-183 167.62,-195 167.62,-195 167.62,-201 161.62,-207 155.62,-207 155.62,-207 117.38,-207 117.38,-207 111.38,-207 105.38,-201 105.38,-195 105.38,-195 105.38,-183 105.38,-183 105.38,-177 111.38,-171 117.38,-171"/>
<text xml:space="preserve" text-anchor="middle" x="115.25" y="-183.95" font-family="Times,serif" font-size="14.00"> </text>
<polyline fill="none" stroke="green" points="125.12,-171 125.12,-207"/>
<text xml:space="preserve" text-anchor="middle" x="136.5" y="-183.95" font-family="Times,serif" font-size="14.00">5</text>
<polyline fill="none" stroke="green" points="147.88,-171 147.88,-207"/>
<text xml:space="preserve" text-anchor="middle" x="157.75" y="-183.95" font-family="Times,serif" font-size="14.00"> </text>
</g>
<!-- 4469870608&#45;&gt;4469868816 -->
<g id="edge1" class="edge">
<title>4469870608:l&#45;&gt;4469868816:v</title>
<path fill="none" stroke="black" d="M135.88,-243.5C135.88,-232.12 136.19,-226.82 136.37,-218.95"/>
<polygon fill="black" stroke="black" points="139.87,-219.05 136.48,-209.01 132.87,-218.97 139.87,-219.05"/>
</g>
<!-- 4469869488 -->
<g id="node3" class="node">
<title>4469869488</title>
<path fill="lightgray" stroke="lightgray" d="M243.38,-171C243.38,-171 281.62,-171 281.62,-171 287.62,-171 293.62,-177 293.62,-183 293.62,-183 293.62,-195 293.62,-195 293.62,-201 287.62,-207 281.62,-207 281.62,-207 243.38,-207 243.38,-207 237.38,-207 231.38,-201 231.38,-195 231.38,-195 231.38,-183 231.38,-183 231.38,-177 237.38,-171 243.38,-171"/>
<text xml:space="preserve" text-anchor="middle" x="241.25" y="-183.95" font-family="Times,serif" font-size="14.00"> </text>
<polyline fill="none" stroke="lightgray" points="251.12,-171 251.12,-207"/>
<text xml:space="preserve" text-anchor="middle" x="262.5" y="-183.95" font-family="Times,serif" font-size="14.00">6</text>
<polyline fill="none" stroke="lightgray" points="273.88,-171 273.88,-207"/>
<text xml:space="preserve" text-anchor="middle" x="283.75" y="-183.95" font-family="Times,serif" font-size="14.00"> </text>
</g>
<!-- 4469870608&#45;&gt;4469869488 -->
<g id="edge2" class="edge">
<title>4469870608:r&#45;&gt;4469869488:v</title>
<path fill="none" stroke="black" d="M185.12,-243.5C185.12,-210.31 244.37,-236.68 259.18,-218.38"/>
<polygon fill="black" stroke="black" points="262.48,-219.53 262.06,-208.95 255.79,-217.49 262.48,-219.53"/>
</g>
<!-- 4469868816&#45;&gt;4469870608 -->
<g id="edge9" class="edge">
<title>4469868816&#45;&gt;4469870608</title>
<path fill="none" stroke="green" d="M142.26,-207.03C144.9,-214.86 148.11,-224.34 151.09,-233.17"/>
<polygon fill="green" stroke="green" points="147.69,-234.03 154.21,-242.38 154.32,-231.78 147.69,-234.03"/>
</g>
<!-- 4469877104 -->
<g id="node4" class="node">
<title>4469877104</title>
<path fill="lightgray" stroke="lightgray" d="M58.38,-98C58.38,-98 96.62,-98 96.62,-98 102.62,-98 108.62,-104 108.62,-110 108.62,-110 108.62,-122 108.62,-122 108.62,-128 102.62,-134 96.62,-134 96.62,-134 58.38,-134 58.38,-134 52.38,-134 46.38,-128 46.38,-122 46.38,-122 46.38,-110 46.38,-110 46.38,-104 52.38,-98 58.38,-98"/>
<text xml:space="preserve" text-anchor="middle" x="56.25" y="-110.95" font-family="Times,serif" font-size="14.00"> </text>
<polyline fill="none" stroke="lightgray" points="66.12,-98 66.12,-134"/>
<text xml:space="preserve" text-anchor="middle" x="77.5" y="-110.95" font-family="Times,serif" font-size="14.00">9</text>
<polyline fill="none" stroke="lightgray" points="88.88,-98 88.88,-134"/>
<text xml:space="preserve" text-anchor="middle" x="98.75" y="-110.95" font-family="Times,serif" font-size="14.00"> </text>
</g>
<!-- 4469868816&#45;&gt;4469877104 -->
<g id="edge3" class="edge">
<title>4469868816:l&#45;&gt;4469877104:v</title>
<path fill="none" stroke="black" d="M115.25,-170.5C115.25,-152.03 91.28,-154.86 81.54,-145.04"/>
<polygon fill="black" stroke="black" points="84.89,-144 78.04,-135.91 78.35,-146.5 84.89,-144"/>
</g>
<!-- 4469877776 -->
<g id="node5" class="node">
<title>4469877776</title>
<path fill="lightgray" stroke="lightgray" d="M138.38,-98C138.38,-98 176.62,-98 176.62,-98 182.62,-98 188.62,-104 188.62,-110 188.62,-110 188.62,-122 188.62,-122 188.62,-128 182.62,-134 176.62,-134 176.62,-134 138.38,-134 138.38,-134 132.38,-134 126.38,-128 126.38,-122 126.38,-122 126.38,-110 126.38,-110 126.38,-104 132.38,-98 138.38,-98"/>
<text xml:space="preserve" text-anchor="middle" x="136.25" y="-110.95" font-family="Times,serif" font-size="14.00"> </text>
<polyline fill="none" stroke="lightgray" points="146.12,-98 146.12,-134"/>
<text xml:space="preserve" text-anchor="middle" x="157.5" y="-110.95" font-family="Times,serif" font-size="14.00">3</text>
<polyline fill="none" stroke="lightgray" points="168.88,-98 168.88,-134"/>
<text xml:space="preserve" text-anchor="middle" x="178.75" y="-110.95" font-family="Times,serif" font-size="14.00"> </text>
</g>
<!-- 4469868816&#45;&gt;4469877776 -->
<g id="edge4" class="edge">
<title>4469868816:r&#45;&gt;4469877776:v</title>
<path fill="none" stroke="black" d="M157.75,-170.5C157.75,-159.12 157.62,-153.82 157.55,-145.95"/>
<polygon fill="black" stroke="black" points="161.05,-146 157.51,-136.01 154.05,-146.03 161.05,-146"/>
</g>
<!-- 4469878672 -->
<g id="node6" class="node">
<title>4469878672</title>
<path fill="lightgray" stroke="lightgray" d="M219,-98C219,-98 264,-98 264,-98 270,-98 276,-104 276,-110 276,-110 276,-122 276,-122 276,-128 270,-134 264,-134 264,-134 219,-134 219,-134 213,-134 207,-128 207,-122 207,-122 207,-110 207,-110 207,-104 213,-98 219,-98"/>
<text xml:space="preserve" text-anchor="middle" x="216.88" y="-110.95" font-family="Times,serif" font-size="14.00"> </text>
<polyline fill="none" stroke="lightgray" points="226.75,-98 226.75,-134"/>
<text xml:space="preserve" text-anchor="middle" x="241.5" y="-110.95" font-family="Times,serif" font-size="14.00">17</text>
<polyline fill="none" stroke="lightgray" points="256.25,-98 256.25,-134"/>
<text xml:space="preserve" text-anchor="middle" x="266.12" y="-110.95" font-family="Times,serif" font-size="14.00"> </text>
</g>
<!-- 4469869488&#45;&gt;4469878672 -->
<g id="edge5" class="edge">
<title>4469869488:l&#45;&gt;4469878672:v</title>
<path fill="none" stroke="black" d="M241.25,-170.5C241.25,-159.12 241.38,-153.82 241.45,-145.95"/>
<polygon fill="black" stroke="black" points="244.95,-146.03 241.49,-136.01 237.95,-146 244.95,-146.03"/>
</g>
<!-- 4469876656 -->
<g id="node7" class="node">
<title>4469876656</title>
<path fill="lightgray" stroke="lightgray" d="M306,-98C306,-98 351,-98 351,-98 357,-98 363,-104 363,-110 363,-110 363,-122 363,-122 363,-128 357,-134 351,-134 351,-134 306,-134 306,-134 300,-134 294,-128 294,-122 294,-122 294,-110 294,-110 294,-104 300,-98 306,-98"/>
<text xml:space="preserve" text-anchor="middle" x="303.88" y="-110.95" font-family="Times,serif" font-size="14.00"> </text>
<polyline fill="none" stroke="lightgray" points="313.75,-98 313.75,-134"/>
<text xml:space="preserve" text-anchor="middle" x="328.5" y="-110.95" font-family="Times,serif" font-size="14.00">19</text>
<polyline fill="none" stroke="lightgray" points="343.25,-98 343.25,-134"/>
<text xml:space="preserve" text-anchor="middle" x="353.12" y="-110.95" font-family="Times,serif" font-size="14.00"> </text>
</g>
<!-- 4469869488&#45;&gt;4469876656 -->
<g id="edge6" class="edge">
<title>4469869488:r&#45;&gt;4469876656:v</title>
<path fill="none" stroke="black" d="M283.75,-170.5C283.75,-149.76 313.29,-155.81 324.37,-145.11"/>
<polygon fill="black" stroke="black" points="327.59,-146.5 327.95,-135.91 321.06,-143.96 327.59,-146.5"/>
</g>
<!-- 4469868704 -->
<g id="node8" class="node">
<title>4469868704</title>
<path fill="lightgray" stroke="lightgray" d="M12,-25C12,-25 57,-25 57,-25 63,-25 69,-31 69,-37 69,-37 69,-49 69,-49 69,-55 63,-61 57,-61 57,-61 12,-61 12,-61 6,-61 0,-55 0,-49 0,-49 0,-37 0,-37 0,-31 6,-25 12,-25"/>
<text xml:space="preserve" text-anchor="middle" x="9.88" y="-37.95" font-family="Times,serif" font-size="14.00"> </text>
<polyline fill="none" stroke="lightgray" points="19.75,-25 19.75,-61"/>
<text xml:space="preserve" text-anchor="middle" x="34.5" y="-37.95" font-family="Times,serif" font-size="14.00">22</text>
<polyline fill="none" stroke="lightgray" points="49.25,-25 49.25,-61"/>
<text xml:space="preserve" text-anchor="middle" x="59.12" y="-37.95" font-family="Times,serif" font-size="14.00"> </text>
</g>
<!-- 4469877104&#45;&gt;4469868704 -->
<g id="edge7" class="edge">
<title>4469877104:l&#45;&gt;4469868704:v</title>
<path fill="none" stroke="black" d="M56.25,-97.5C56.25,-83.48 44.02,-80.76 37.9,-72.38"/>
<polygon fill="black" stroke="black" points="41.27,-71.45 34.95,-62.94 34.59,-73.53 41.27,-71.45"/>
</g>
<!-- 4469878112 -->
<g id="node9" class="node">
<title>4469878112</title>
<path fill="lightgray" stroke="lightgray" d="M99,-25C99,-25 144,-25 144,-25 150,-25 156,-31 156,-37 156,-37 156,-49 156,-49 156,-55 150,-61 144,-61 144,-61 99,-61 99,-61 93,-61 87,-55 87,-49 87,-49 87,-37 87,-37 87,-31 93,-25 99,-25"/>
<text xml:space="preserve" text-anchor="middle" x="96.88" y="-37.95" font-family="Times,serif" font-size="14.00"> </text>
<polyline fill="none" stroke="lightgray" points="106.75,-25 106.75,-61"/>
<text xml:space="preserve" text-anchor="middle" x="121.5" y="-37.95" font-family="Times,serif" font-size="14.00">84</text>
<polyline fill="none" stroke="lightgray" points="136.25,-25 136.25,-61"/>
<text xml:space="preserve" text-anchor="middle" x="146.12" y="-37.95" font-family="Times,serif" font-size="14.00"> </text>
</g>
<!-- 4469877104&#45;&gt;4469878112 -->
<g id="edge8" class="edge">
<title>4469877104:r&#45;&gt;4469878112:v</title>
<path fill="none" stroke="black" d="M98.75,-97.5C98.75,-83.3 111.55,-80.8 117.95,-72.45"/>
<polygon fill="black" stroke="black" points="121.27,-73.53 121.03,-62.94 114.62,-71.37 121.27,-73.53"/>
</g>
</g>
</svg>
