<?xml version="1.0" encoding="UTF-8" standalone="no"?>
<!DOCTYPE svg PUBLIC "-//W3C//DTD SVG 1.1//EN"
 "http://www.w3.org/Graphics/SVG/1.1/DTD/svg11.dtd">
<!-- Generated by graphviz version 14.0.0 (20250921.2048)
 -->
<!-- Pages: 1 -->
<svg width="558pt" height="289pt"
 viewBox="0.00 0.00 558.00 289.00" xmlns="http://www.w3.org/2000/svg" xmlns:xlink="http://www.w3.org/1999/xlink">
<g id="graph0" class="graph" transform="scale(1 1) rotate(0) translate(4 284.5)">
<polygon fill="white" stroke="none" points="-4,4 -4,-284.5 554.25,-284.5 554.25,4 -4,4"/>
<text xml:space="preserve" text-anchor="middle" x="275.12" y="-7.2" font-family="Times,serif" font-size="14.00">MaxHeap [27, 13, 0, 10, 12, 17, 8, 9, 4, 1, 5, 16, 7, 3], heapsize: 14</text>
<!-- 4534529264 -->
<g id="node1" class="node">
<title>4534529264</title>
<path fill="lightgray" stroke="green" d="M272.62,-244C272.62,-244 317.62,-244 317.62,-244 323.62,-244 329.62,-250 329.62,-256 329.62,-256 329.62,-268 329.62,-268 329.62,-274 323.62,-280 317.62,-280 317.62,-280 272.62,-280 272.62,-280 266.62,-280 260.62,-274 260.62,-268 260.62,-268 260.62,-256 260.62,-256 260.62,-250 266.62,-244 272.62,-244"/>
<text xml:space="preserve" text-anchor="middle" x="270.5" y="-256.95" font-family="Times,serif" font-size="14.00"> </text>
<polyline fill="none" stroke="green" points="280.38,-244 280.38,-280"/>
<text xml:space="preserve" text-anchor="middle" x="295.12" y="-256.95" font-family="Times,serif" font-size="14.00">27</text>
<polyline fill="none" stroke="green" points="309.88,-244 309.88,-280"/>
<text xml:space="preserve" text-anchor="middle" x="319.75" y="-256.95" font-family="Times,serif" font-size="14.00"> </text>
</g>
<!-- 4534525344 -->
<g id="node2" class="node">
<title>4534525344</title>
<path fill="lightgray" stroke="lightgray" d="M184.62,-171C184.62,-171 229.62,-171 229.62,-171 235.62,-171 241.62,-177 241.62,-183 241.62,-183 241.62,-195 241.62,-195 241.62,-201 235.62,-207 229.62,-207 229.62,-207 184.62,-207 184.62,-207 178.62,-207 172.62,-201 172.62,-195 172.62,-195 172.62,-183 172.62,-183 172.62,-177 178.62,-171 184.62,-171"/>
<text xml:space="preserve" text-anchor="middle" x="182.5" y="-183.95" font-family="Times,serif" font-size="14.00"> </text>
<polyline fill="none" stroke="lightgray" points="192.38,-171 192.38,-207"/>
<text xml:space="preserve" text-anchor="middle" x="207.12" y="-183.95" font-family="Times,serif" font-size="14.00">13</text>
<polyline fill="none" stroke="lightgray" points="221.88,-171 221.88,-207"/>
<text xml:space="preserve" text-anchor="middle" x="231.75" y="-183.95" font-family="Times,serif" font-size="14.00"> </text>
</g>
<!-- 4534529264&#45;&gt;4534525344 -->
<g id="edge1" class="edge">
<title>4534529264:l&#45;&gt;4534525344:v</title>
<path fill="none" stroke="black" d="M270.5,-243.5C270.5,-215.91 224.54,-232.7 210.9,-218.28"/>
<polygon fill="black" stroke="black" points="214.23,-217.21 207.63,-208.93 207.63,-219.52 214.23,-217.21"/>
</g>
<!-- 4534520976 -->
<g id="node3" class="node">
<title>4534520976</title>
<path fill="lightgray" stroke="green" d="M399,-171C399,-171 437.25,-171 437.25,-171 443.25,-171 449.25,-177 449.25,-183 449.25,-183 449.25,-195 449.25,-195 449.25,-201 443.25,-207 437.25,-207 437.25,-207 399,-207 399,-207 393,-207 387,-201 387,-195 387,-195 387,-183 387,-183 387,-177 393,-171 399,-171"/>
<text xml:space="preserve" text-anchor="middle" x="396.88" y="-183.95" font-family="Times,serif" font-size="14.00"> </text>
<polyline fill="none" stroke="green" points="406.75,-171 406.75,-207"/>
<text xml:space="preserve" text-anchor="middle" x="418.12" y="-183.95" font-family="Times,serif" font-size="14.00">0</text>
<polyline fill="none" stroke="green" points="429.5,-171 429.5,-207"/>
<text xml:space="preserve" text-anchor="middle" x="439.38" y="-183.95" font-family="Times,serif" font-size="14.00"> </text>
</g>
<!-- 4534529264&#45;&gt;4534520976 -->
<g id="edge2" class="edge">
<title>4534529264:r&#45;&gt;4534520976:v</title>
<path fill="none" stroke="black" d="M319.75,-243.5C319.75,-201.49 399.85,-243.89 415.49,-218.37"/>
<polygon fill="black" stroke="black" points="418.82,-219.51 417.77,-208.97 412.01,-217.87 418.82,-219.51"/>
</g>
<!-- 4534521536 -->
<g id="node4" class="node">
<title>4534521536</title>
<path fill="lightgray" stroke="lightgray" d="M64.62,-98C64.62,-98 109.62,-98 109.62,-98 115.62,-98 121.62,-104 121.62,-110 121.62,-110 121.62,-122 121.62,-122 121.62,-128 115.62,-134 109.62,-134 109.62,-134 64.62,-134 64.62,-134 58.62,-134 52.62,-128 52.62,-122 52.62,-122 52.62,-110 52.62,-110 52.62,-104 58.62,-98 64.62,-98"/>
<text xml:space="preserve" text-anchor="middle" x="62.5" y="-110.95" font-family="Times,serif" font-size="14.00"> </text>
<polyline fill="none" stroke="lightgray" points="72.38,-98 72.38,-134"/>
<text xml:space="preserve" text-anchor="middle" x="87.12" y="-110.95" font-family="Times,serif" font-size="14.00">10</text>
<polyline fill="none" stroke="lightgray" points="101.88,-98 101.88,-134"/>
<text xml:space="preserve" text-anchor="middle" x="111.75" y="-110.95" font-family="Times,serif" font-size="14.00"> </text>
</g>
<!-- 4534525344&#45;&gt;4534521536 -->
<g id="edge3" class="edge">
<title>4534525344:l&#45;&gt;4534521536:v</title>
<path fill="none" stroke="black" d="M182.5,-170.5C182.5,-129.79 105.51,-169.74 89.88,-145.42"/>
<polygon fill="black" stroke="black" points="93.33,-144.81 87.49,-135.97 86.54,-146.52 93.33,-144.81"/>
</g>
<!-- 4534521648 -->
<g id="node5" class="node">
<title>4534521648</title>
<path fill="lightgray" stroke="lightgray" d="M208.62,-98C208.62,-98 253.62,-98 253.62,-98 259.62,-98 265.62,-104 265.62,-110 265.62,-110 265.62,-122 265.62,-122 265.62,-128 259.62,-134 253.62,-134 253.62,-134 208.62,-134 208.62,-134 202.62,-134 196.62,-128 196.62,-122 196.62,-122 196.62,-110 196.62,-110 196.62,-104 202.62,-98 208.62,-98"/>
<text xml:space="preserve" text-anchor="middle" x="206.5" y="-110.95" font-family="Times,serif" font-size="14.00"> </text>
<polyline fill="none" stroke="lightgray" points="216.38,-98 216.38,-134"/>
<text xml:space="preserve" text-anchor="middle" x="231.12" y="-110.95" font-family="Times,serif" font-size="14.00">12</text>
<polyline fill="none" stroke="lightgray" points="245.88,-98 245.88,-134"/>
<text xml:space="preserve" text-anchor="middle" x="255.75" y="-110.95" font-family="Times,serif" font-size="14.00"> </text>
</g>
<!-- 4534525344&#45;&gt;4534521648 -->
<g id="edge4" class="edge">
<title>4534525344:r&#45;&gt;4534521648:v</title>
<path fill="none" stroke="black" d="M231.75,-170.5C231.75,-159.12 231.43,-153.82 231.25,-145.95"/>
<polygon fill="black" stroke="black" points="234.75,-145.97 231.14,-136.01 227.75,-146.05 234.75,-145.97"/>
</g>
<!-- 4534521760 -->
<g id="node6" class="node">
<title>4534521760</title>
<path fill="lightgray" stroke="lightgray" d="M374.62,-98C374.62,-98 419.62,-98 419.62,-98 425.62,-98 431.62,-104 431.62,-110 431.62,-110 431.62,-122 431.62,-122 431.62,-128 425.62,-134 419.62,-134 419.62,-134 374.62,-134 374.62,-134 368.62,-134 362.62,-128 362.62,-122 362.62,-122 362.62,-110 362.62,-110 362.62,-104 368.62,-98 374.62,-98"/>
<text xml:space="preserve" text-anchor="middle" x="372.5" y="-110.95" font-family="Times,serif" font-size="14.00"> </text>
<polyline fill="none" stroke="lightgray" points="382.38,-98 382.38,-134"/>
<text xml:space="preserve" text-anchor="middle" x="397.12" y="-110.95" font-family="Times,serif" font-size="14.00">17</text>
<polyline fill="none" stroke="lightgray" points="411.88,-98 411.88,-134"/>
<text xml:space="preserve" text-anchor="middle" x="421.75" y="-110.95" font-family="Times,serif" font-size="14.00"> </text>
</g>
<!-- 4534520976&#45;&gt;4534521760 -->
<g id="edge5" class="edge">
<title>4534520976:l&#45;&gt;4534521760:v</title>
<path fill="none" stroke="black" d="M396.88,-170.5C396.88,-159.12 397,-153.82 397.07,-145.95"/>
<polygon fill="black" stroke="black" points="400.57,-146.03 397.12,-136.01 393.57,-146 400.57,-146.03"/>
</g>
<!-- 4534518512 -->
<g id="node7" class="node">
<title>4534518512</title>
<path fill="lightgray" stroke="lightgray" d="M500,-98C500,-98 538.25,-98 538.25,-98 544.25,-98 550.25,-104 550.25,-110 550.25,-110 550.25,-122 550.25,-122 550.25,-128 544.25,-134 538.25,-134 538.25,-134 500,-134 500,-134 494,-134 488,-128 488,-122 488,-122 488,-110 488,-110 488,-104 494,-98 500,-98"/>
<text xml:space="preserve" text-anchor="middle" x="497.88" y="-110.95" font-family="Times,serif" font-size="14.00"> </text>
<polyline fill="none" stroke="lightgray" points="507.75,-98 507.75,-134"/>
<text xml:space="preserve" text-anchor="middle" x="519.12" y="-110.95" font-family="Times,serif" font-size="14.00">8</text>
<polyline fill="none" stroke="lightgray" points="530.5,-98 530.5,-134"/>
<text xml:space="preserve" text-anchor="middle" x="540.38" y="-110.95" font-family="Times,serif" font-size="14.00"> </text>
</g>
<!-- 4534520976&#45;&gt;4534518512 -->
<g id="edge6" class="edge">
<title>4534520976:r&#45;&gt;4534518512:v</title>
<path fill="none" stroke="black" d="M439.38,-170.5C439.38,-136.32 500.98,-164.45 515.9,-145.37"/>
<polygon fill="black" stroke="black" points="519.2,-146.53 518.69,-135.95 512.49,-144.54 519.2,-146.53"/>
</g>
<!-- 4534518624 -->
<g id="node8" class="node">
<title>4534518624</title>
<path fill="lightgray" stroke="lightgray" d="M12,-25C12,-25 50.25,-25 50.25,-25 56.25,-25 62.25,-31 62.25,-37 62.25,-37 62.25,-49 62.25,-49 62.25,-55 56.25,-61 50.25,-61 50.25,-61 12,-61 12,-61 6,-61 0,-55 0,-49 0,-49 0,-37 0,-37 0,-31 6,-25 12,-25"/>
<text xml:space="preserve" text-anchor="middle" x="9.88" y="-37.95" font-family="Times,serif" font-size="14.00"> </text>
<polyline fill="none" stroke="lightgray" points="19.75,-25 19.75,-61"/>
<text xml:space="preserve" text-anchor="middle" x="31.12" y="-37.95" font-family="Times,serif" font-size="14.00">9</text>
<polyline fill="none" stroke="lightgray" points="42.5,-25 42.5,-61"/>
<text xml:space="preserve" text-anchor="middle" x="52.38" y="-37.95" font-family="Times,serif" font-size="14.00"> </text>
</g>
<!-- 4534521536&#45;&gt;4534518624 -->
<g id="edge7" class="edge">
<title>4534521536:l&#45;&gt;4534518624:v</title>
<path fill="none" stroke="black" d="M62.5,-97.5C62.5,-80.92 43.35,-81.23 34.97,-72.04"/>
<polygon fill="black" stroke="black" points="38.36,-71.11 31.64,-62.92 31.79,-73.52 38.36,-71.11"/>
</g>
<!-- 4534522320 -->
<g id="node9" class="node">
<title>4534522320</title>
<path fill="lightgray" stroke="lightgray" d="M92,-25C92,-25 130.25,-25 130.25,-25 136.25,-25 142.25,-31 142.25,-37 142.25,-37 142.25,-49 142.25,-49 142.25,-55 136.25,-61 130.25,-61 130.25,-61 92,-61 92,-61 86,-61 80,-55 80,-49 80,-49 80,-37 80,-37 80,-31 86,-25 92,-25"/>
<text xml:space="preserve" text-anchor="middle" x="89.88" y="-37.95" font-family="Times,serif" font-size="14.00"> </text>
<polyline fill="none" stroke="lightgray" points="99.75,-25 99.75,-61"/>
<text xml:space="preserve" text-anchor="middle" x="111.12" y="-37.95" font-family="Times,serif" font-size="14.00">4</text>
<polyline fill="none" stroke="lightgray" points="122.5,-25 122.5,-61"/>
<text xml:space="preserve" text-anchor="middle" x="132.38" y="-37.95" font-family="Times,serif" font-size="14.00"> </text>
</g>
<!-- 4534521536&#45;&gt;4534522320 -->
<g id="edge8" class="edge">
<title>4534521536:r&#45;&gt;4534522320:v</title>
<path fill="none" stroke="black" d="M111.75,-97.5C111.75,-86.12 111.43,-80.82 111.25,-72.95"/>
<polygon fill="black" stroke="black" points="114.75,-72.97 111.14,-63.01 107.75,-73.05 114.75,-72.97"/>
</g>
<!-- 4534521984 -->
<g id="node10" class="node">
<title>4534521984</title>
<path fill="lightgray" stroke="lightgray" d="M172,-25C172,-25 210.25,-25 210.25,-25 216.25,-25 222.25,-31 222.25,-37 222.25,-37 222.25,-49 222.25,-49 222.25,-55 216.25,-61 210.25,-61 210.25,-61 172,-61 172,-61 166,-61 160,-55 160,-49 160,-49 160,-37 160,-37 160,-31 166,-25 172,-25"/>
<text xml:space="preserve" text-anchor="middle" x="169.88" y="-37.95" font-family="Times,serif" font-size="14.00"> </text>
<polyline fill="none" stroke="lightgray" points="179.75,-25 179.75,-61"/>
<text xml:space="preserve" text-anchor="middle" x="191.12" y="-37.95" font-family="Times,serif" font-size="14.00">1</text>
<polyline fill="none" stroke="lightgray" points="202.5,-25 202.5,-61"/>
<text xml:space="preserve" text-anchor="middle" x="212.38" y="-37.95" font-family="Times,serif" font-size="14.00"> </text>
</g>
<!-- 4534521648&#45;&gt;4534521984 -->
<g id="edge9" class="edge">
<title>4534521648:l&#45;&gt;4534521984:v</title>
<path fill="none" stroke="black" d="M206.5,-97.5C206.5,-84.72 198.21,-80.68 193.8,-72.54"/>
<polygon fill="black" stroke="black" points="197.24,-71.86 191.48,-62.97 190.44,-73.51 197.24,-71.86"/>
</g>
<!-- 4534524560 -->
<g id="node11" class="node">
<title>4534524560</title>
<path fill="lightgray" stroke="lightgray" d="M252,-25C252,-25 290.25,-25 290.25,-25 296.25,-25 302.25,-31 302.25,-37 302.25,-37 302.25,-49 302.25,-49 302.25,-55 296.25,-61 290.25,-61 290.25,-61 252,-61 252,-61 246,-61 240,-55 240,-49 240,-49 240,-37 240,-37 240,-31 246,-25 252,-25"/>
<text xml:space="preserve" text-anchor="middle" x="249.88" y="-37.95" font-family="Times,serif" font-size="14.00"> </text>
<polyline fill="none" stroke="lightgray" points="259.75,-25 259.75,-61"/>
<text xml:space="preserve" text-anchor="middle" x="271.12" y="-37.95" font-family="Times,serif" font-size="14.00">5</text>
<polyline fill="none" stroke="lightgray" points="282.5,-25 282.5,-61"/>
<text xml:space="preserve" text-anchor="middle" x="292.38" y="-37.95" font-family="Times,serif" font-size="14.00"> </text>
</g>
<!-- 4534521648&#45;&gt;4534524560 -->
<g id="edge10" class="edge">
<title>4534521648:r&#45;&gt;4534524560:v</title>
<path fill="none" stroke="black" d="M255.75,-97.5C255.75,-84.72 264.04,-80.68 268.45,-72.54"/>
<polygon fill="black" stroke="black" points="271.81,-73.51 270.77,-62.97 265.01,-71.86 271.81,-73.51"/>
</g>
<!-- 4534521312 -->
<g id="node12" class="node">
<title>4534521312</title>
<path fill="lightgray" stroke="lightgray" d="M332.62,-25C332.62,-25 377.62,-25 377.62,-25 383.62,-25 389.62,-31 389.62,-37 389.62,-37 389.62,-49 389.62,-49 389.62,-55 383.62,-61 377.62,-61 377.62,-61 332.62,-61 332.62,-61 326.62,-61 320.62,-55 320.62,-49 320.62,-49 320.62,-37 320.62,-37 320.62,-31 326.62,-25 332.62,-25"/>
<text xml:space="preserve" text-anchor="middle" x="330.5" y="-37.95" font-family="Times,serif" font-size="14.00"> </text>
<polyline fill="none" stroke="lightgray" points="340.38,-25 340.38,-61"/>
<text xml:space="preserve" text-anchor="middle" x="355.12" y="-37.95" font-family="Times,serif" font-size="14.00">16</text>
<polyline fill="none" stroke="lightgray" points="369.88,-25 369.88,-61"/>
<text xml:space="preserve" text-anchor="middle" x="379.75" y="-37.95" font-family="Times,serif" font-size="14.00"> </text>
</g>
<!-- 4534521760&#45;&gt;4534521312 -->
<g id="edge11" class="edge">
<title>4534521760:l&#45;&gt;4534521312:v</title>
<path fill="none" stroke="black" d="M372.5,-97.5C372.5,-84.31 362.93,-80.66 357.99,-72.38"/>
<polygon fill="black" stroke="black" points="361.44,-71.74 355.51,-62.96 354.68,-73.53 361.44,-71.74"/>
</g>
<!-- 4534520752 -->
<g id="node13" class="node">
<title>4534520752</title>
<path fill="lightgray" stroke="lightgray" d="M420,-25C420,-25 458.25,-25 458.25,-25 464.25,-25 470.25,-31 470.25,-37 470.25,-37 470.25,-49 470.25,-49 470.25,-55 464.25,-61 458.25,-61 458.25,-61 420,-61 420,-61 414,-61 408,-55 408,-49 408,-49 408,-37 408,-37 408,-31 414,-25 420,-25"/>
<text xml:space="preserve" text-anchor="middle" x="417.88" y="-37.95" font-family="Times,serif" font-size="14.00"> </text>
<polyline fill="none" stroke="lightgray" points="427.75,-25 427.75,-61"/>
<text xml:space="preserve" text-anchor="middle" x="439.12" y="-37.95" font-family="Times,serif" font-size="14.00">7</text>
<polyline fill="none" stroke="lightgray" points="450.5,-25 450.5,-61"/>
<text xml:space="preserve" text-anchor="middle" x="460.38" y="-37.95" font-family="Times,serif" font-size="14.00"> </text>
</g>
<!-- 4534521760&#45;&gt;4534520752 -->
<g id="edge12" class="edge">
<title>4534521760:r&#45;&gt;4534520752:v</title>
<path fill="none" stroke="black" d="M421.75,-97.5C421.75,-84.31 431.32,-80.66 436.26,-72.38"/>
<polygon fill="black" stroke="black" points="439.57,-73.53 438.74,-62.96 432.81,-71.74 439.57,-73.53"/>
</g>
<!-- 4534529824 -->
<g id="node14" class="node">
<title>4534529824</title>
<path fill="lightgray" stroke="lightgray" d="M500,-25C500,-25 538.25,-25 538.25,-25 544.25,-25 550.25,-31 550.25,-37 550.25,-37 550.25,-49 550.25,-49 550.25,-55 544.25,-61 538.25,-61 538.25,-61 500,-61 500,-61 494,-61 488,-55 488,-49 488,-49 488,-37 488,-37 488,-31 494,-25 500,-25"/>
<text xml:space="preserve" text-anchor="middle" x="497.88" y="-37.95" font-family="Times,serif" font-size="14.00"> </text>
<polyline fill="none" stroke="lightgray" points="507.75,-25 507.75,-61"/>
<text xml:space="preserve" text-anchor="middle" x="519.12" y="-37.95" font-family="Times,serif" font-size="14.00">3</text>
<polyline fill="none" stroke="lightgray" points="530.5,-25 530.5,-61"/>
<text xml:space="preserve" text-anchor="middle" x="540.38" y="-37.95" font-family="Times,serif" font-size="14.00"> </text>
</g>
<!-- 4534518512&#45;&gt;4534529824 -->
<g id="edge13" class="edge">
<title>4534518512:l&#45;&gt;4534529824:v</title>
<path fill="none" stroke="black" d="M497.88,-97.5C497.88,-83.57 509.83,-80.73 515.8,-72.35"/>
<polygon fill="black" stroke="black" points="519.1,-73.53 518.68,-62.95 512.41,-71.49 519.1,-73.53"/>
</g>
</g>
</svg>
