<?xml version="1.0" encoding="UTF-8" standalone="no"?>
<!DOCTYPE svg PUBLIC "-//W3C//DTD SVG 1.1//EN"
 "http://www.w3.org/Graphics/SVG/1.1/DTD/svg11.dtd">
<!-- Generated by graphviz version 14.0.0 (20250921.2048)
 -->
<!-- Pages: 1 -->
<svg width="364pt" height="289pt"
 viewBox="0.00 0.00 364.00 289.00" xmlns="http://www.w3.org/2000/svg" xmlns:xlink="http://www.w3.org/1999/xlink">
<g id="graph0" class="graph" transform="scale(1 1) rotate(0) translate(4 284.5)">
<polygon fill="white" stroke="none" points="-4,4 -4,-284.5 360,-284.5 360,4 -4,4"/>
<text xml:space="preserve" text-anchor="middle" x="178" y="-7.2" font-family="Times,serif" font-size="14.00">MaxHeap [17, 10, 6, 9, 3, 5, 19, 22, 84], heapsize: 6</text>
<!-- 4469874752 -->
<g id="node1" class="node">
<title>4469874752</title>
<path fill="lightgray" stroke="green" d="M212,-244C212,-244 257,-244 257,-244 263,-244 269,-250 269,-256 269,-256 269,-268 269,-268 269,-274 263,-280 257,-280 257,-280 212,-280 212,-280 206,-280 200,-274 200,-268 200,-268 200,-256 200,-256 200,-250 206,-244 212,-244"/>
<text xml:space="preserve" text-anchor="middle" x="209.88" y="-256.95" font-family="Times,serif" font-size="14.00"> </text>
<polyline fill="none" stroke="green" points="219.75,-244 219.75,-280"/>
<text xml:space="preserve" text-anchor="middle" x="234.5" y="-256.95" font-family="Times,serif" font-size="14.00">17</text>
<polyline fill="none" stroke="green" points="249.25,-244 249.25,-280"/>
<text xml:space="preserve" text-anchor="middle" x="259.12" y="-256.95" font-family="Times,serif" font-size="14.00"> </text>
</g>
<!-- 4469875648 -->
<g id="node2" class="node">
<title>4469875648</title>
<path fill="lightgray" stroke="lightgray" d="M111,-171C111,-171 156,-171 156,-171 162,-171 168,-177 168,-183 168,-183 168,-195 168,-195 168,-201 162,-207 156,-207 156,-207 111,-207 111,-207 105,-207 99,-201 99,-195 99,-195 99,-183 99,-183 99,-177 105,-171 111,-171"/>
<text xml:space="preserve" text-anchor="middle" x="108.88" y="-183.95" font-family="Times,serif" font-size="14.00"> </text>
<polyline fill="none" stroke="lightgray" points="118.75,-171 118.75,-207"/>
<text xml:space="preserve" text-anchor="middle" x="133.5" y="-183.95" font-family="Times,serif" font-size="14.00">10</text>
<polyline fill="none" stroke="lightgray" points="148.25,-171 148.25,-207"/>
<text xml:space="preserve" text-anchor="middle" x="158.12" y="-183.95" font-family="Times,serif" font-size="14.00"> </text>
</g>
<!-- 4469874752&#45;&gt;4469875648 -->
<g id="edge1" class="edge">
<title>4469874752:l&#45;&gt;4469875648:v</title>
<path fill="none" stroke="black" d="M209.88,-243.5C209.88,-210.66 151.4,-236.46 136.78,-218.28"/>
<polygon fill="black" stroke="black" points="140.2,-217.5 133.94,-208.95 133.5,-219.53 140.2,-217.5"/>
</g>
<!-- 4469877216 -->
<g id="node3" class="node">
<title>4469877216</title>
<path fill="lightgray" stroke="green" d="M239.38,-171C239.38,-171 277.62,-171 277.62,-171 283.62,-171 289.62,-177 289.62,-183 289.62,-183 289.62,-195 289.62,-195 289.62,-201 283.62,-207 277.62,-207 277.62,-207 239.38,-207 239.38,-207 233.38,-207 227.38,-201 227.38,-195 227.38,-195 227.38,-183 227.38,-183 227.38,-177 233.38,-171 239.38,-171"/>
<text xml:space="preserve" text-anchor="middle" x="237.25" y="-183.95" font-family="Times,serif" font-size="14.00"> </text>
<polyline fill="none" stroke="green" points="247.12,-171 247.12,-207"/>
<text xml:space="preserve" text-anchor="middle" x="258.5" y="-183.95" font-family="Times,serif" font-size="14.00">6</text>
<polyline fill="none" stroke="green" points="269.88,-171 269.88,-207"/>
<text xml:space="preserve" text-anchor="middle" x="279.75" y="-183.95" font-family="Times,serif" font-size="14.00"> </text>
</g>
<!-- 4469874752&#45;&gt;4469877216 -->
<g id="edge2" class="edge">
<title>4469874752:r&#45;&gt;4469877216:v</title>
<path fill="none" stroke="black" d="M259.12,-243.5C259.12,-232.12 258.81,-226.82 258.63,-218.95"/>
<polygon fill="black" stroke="black" points="262.13,-218.97 258.52,-209.01 255.13,-219.05 262.13,-218.97"/>
</g>
<!-- 4469877440 -->
<g id="node4" class="node">
<title>4469877440</title>
<path fill="lightgray" stroke="lightgray" d="M58.38,-98C58.38,-98 96.62,-98 96.62,-98 102.62,-98 108.62,-104 108.62,-110 108.62,-110 108.62,-122 108.62,-122 108.62,-128 102.62,-134 96.62,-134 96.62,-134 58.38,-134 58.38,-134 52.38,-134 46.38,-128 46.38,-122 46.38,-122 46.38,-110 46.38,-110 46.38,-104 52.38,-98 58.38,-98"/>
<text xml:space="preserve" text-anchor="middle" x="56.25" y="-110.95" font-family="Times,serif" font-size="14.00"> </text>
<polyline fill="none" stroke="lightgray" points="66.12,-98 66.12,-134"/>
<text xml:space="preserve" text-anchor="middle" x="77.5" y="-110.95" font-family="Times,serif" font-size="14.00">9</text>
<polyline fill="none" stroke="lightgray" points="88.88,-98 88.88,-134"/>
<text xml:space="preserve" text-anchor="middle" x="98.75" y="-110.95" font-family="Times,serif" font-size="14.00"> </text>
</g>
<!-- 4469875648&#45;&gt;4469877440 -->
<g id="edge3" class="edge">
<title>4469875648:l&#45;&gt;4469877440:v</title>
<path fill="none" stroke="black" d="M108.88,-170.5C108.88,-153.92 89.73,-154.23 81.35,-145.04"/>
<polygon fill="black" stroke="black" points="84.74,-144.11 78.02,-135.92 78.16,-146.52 84.74,-144.11"/>
</g>
<!-- 4469875872 -->
<g id="node5" class="node">
<title>4469875872</title>
<path fill="lightgray" stroke="lightgray" d="M138.38,-98C138.38,-98 176.62,-98 176.62,-98 182.62,-98 188.62,-104 188.62,-110 188.62,-110 188.62,-122 188.62,-122 188.62,-128 182.62,-134 176.62,-134 176.62,-134 138.38,-134 138.38,-134 132.38,-134 126.38,-128 126.38,-122 126.38,-122 126.38,-110 126.38,-110 126.38,-104 132.38,-98 138.38,-98"/>
<text xml:space="preserve" text-anchor="middle" x="136.25" y="-110.95" font-family="Times,serif" font-size="14.00"> </text>
<polyline fill="none" stroke="lightgray" points="146.12,-98 146.12,-134"/>
<text xml:space="preserve" text-anchor="middle" x="157.5" y="-110.95" font-family="Times,serif" font-size="14.00">3</text>
<polyline fill="none" stroke="lightgray" points="168.88,-98 168.88,-134"/>
<text xml:space="preserve" text-anchor="middle" x="178.75" y="-110.95" font-family="Times,serif" font-size="14.00"> </text>
</g>
<!-- 4469875648&#45;&gt;4469875872 -->
<g id="edge4" class="edge">
<title>4469875648:r&#45;&gt;4469875872:v</title>
<path fill="none" stroke="black" d="M158.12,-170.5C158.12,-159.12 157.81,-153.82 157.63,-145.95"/>
<polygon fill="black" stroke="black" points="161.13,-145.97 157.52,-136.01 154.13,-146.05 161.13,-145.97"/>
</g>
<!-- 4469877216&#45;&gt;4469874752 -->
<g id="edge9" class="edge">
<title>4469877216&#45;&gt;4469874752</title>
<path fill="none" stroke="green" d="M252.74,-207.03C250.1,-214.86 246.89,-224.34 243.91,-233.17"/>
<polygon fill="green" stroke="green" points="240.68,-231.78 240.79,-242.38 247.31,-234.03 240.68,-231.78"/>
</g>
<!-- 4469870832 -->
<g id="node6" class="node">
<title>4469870832</title>
<path fill="lightgray" stroke="lightgray" d="M218.38,-98C218.38,-98 256.62,-98 256.62,-98 262.62,-98 268.62,-104 268.62,-110 268.62,-110 268.62,-122 268.62,-122 268.62,-128 262.62,-134 256.62,-134 256.62,-134 218.38,-134 218.38,-134 212.38,-134 206.38,-128 206.38,-122 206.38,-122 206.38,-110 206.38,-110 206.38,-104 212.38,-98 218.38,-98"/>
<text xml:space="preserve" text-anchor="middle" x="216.25" y="-110.95" font-family="Times,serif" font-size="14.00"> </text>
<polyline fill="none" stroke="lightgray" points="226.12,-98 226.12,-134"/>
<text xml:space="preserve" text-anchor="middle" x="237.5" y="-110.95" font-family="Times,serif" font-size="14.00">5</text>
<polyline fill="none" stroke="lightgray" points="248.88,-98 248.88,-134"/>
<text xml:space="preserve" text-anchor="middle" x="258.75" y="-110.95" font-family="Times,serif" font-size="14.00"> </text>
</g>
<!-- 4469877216&#45;&gt;4469870832 -->
<g id="edge5" class="edge">
<title>4469877216:l&#45;&gt;4469870832:v</title>
<path fill="none" stroke="black" d="M237.25,-170.5C237.25,-159.12 237.38,-153.82 237.45,-145.95"/>
<polygon fill="black" stroke="black" points="240.95,-146.03 237.49,-136.01 233.95,-146 240.95,-146.03"/>
</g>
<!-- 4469875312 -->
<g id="node7" class="node">
<title>4469875312</title>
<path fill="lightgray" stroke="lightgray" d="M299,-98C299,-98 344,-98 344,-98 350,-98 356,-104 356,-110 356,-110 356,-122 356,-122 356,-128 350,-134 344,-134 344,-134 299,-134 299,-134 293,-134 287,-128 287,-122 287,-122 287,-110 287,-110 287,-104 293,-98 299,-98"/>
<text xml:space="preserve" text-anchor="middle" x="296.88" y="-110.95" font-family="Times,serif" font-size="14.00"> </text>
<polyline fill="none" stroke="lightgray" points="306.75,-98 306.75,-134"/>
<text xml:space="preserve" text-anchor="middle" x="321.5" y="-110.95" font-family="Times,serif" font-size="14.00">19</text>
<polyline fill="none" stroke="lightgray" points="336.25,-98 336.25,-134"/>
<text xml:space="preserve" text-anchor="middle" x="346.12" y="-110.95" font-family="Times,serif" font-size="14.00"> </text>
</g>
<!-- 4469877216&#45;&gt;4469875312 -->
<g id="edge6" class="edge">
<title>4469877216:r&#45;&gt;4469875312:v</title>
<path fill="none" stroke="black" d="M279.75,-170.5C279.75,-150.78 306.78,-155.35 317.34,-145.12"/>
<polygon fill="black" stroke="black" points="320.56,-146.5 320.95,-135.91 314.05,-143.95 320.56,-146.5"/>
</g>
<!-- 4469876544 -->
<g id="node8" class="node">
<title>4469876544</title>
<path fill="lightgray" stroke="lightgray" d="M12,-25C12,-25 57,-25 57,-25 63,-25 69,-31 69,-37 69,-37 69,-49 69,-49 69,-55 63,-61 57,-61 57,-61 12,-61 12,-61 6,-61 0,-55 0,-49 0,-49 0,-37 0,-37 0,-31 6,-25 12,-25"/>
<text xml:space="preserve" text-anchor="middle" x="9.88" y="-37.95" font-family="Times,serif" font-size="14.00"> </text>
<polyline fill="none" stroke="lightgray" points="19.75,-25 19.75,-61"/>
<text xml:space="preserve" text-anchor="middle" x="34.5" y="-37.95" font-family="Times,serif" font-size="14.00">22</text>
<polyline fill="none" stroke="lightgray" points="49.25,-25 49.25,-61"/>
<text xml:space="preserve" text-anchor="middle" x="59.12" y="-37.95" font-family="Times,serif" font-size="14.00"> </text>
</g>
<!-- 4469877440&#45;&gt;4469876544 -->
<g id="edge7" class="edge">
<title>4469877440:l&#45;&gt;4469876544:v</title>
<path fill="none" stroke="black" d="M56.25,-97.5C56.25,-83.48 44.02,-80.76 37.9,-72.38"/>
<polygon fill="black" stroke="black" points="41.27,-71.45 34.95,-62.94 34.59,-73.53 41.27,-71.45"/>
</g>
<!-- 4469875424 -->
<g id="node9" class="node">
<title>4469875424</title>
<path fill="lightgray" stroke="lightgray" d="M99,-25C99,-25 144,-25 144,-25 150,-25 156,-31 156,-37 156,-37 156,-49 156,-49 156,-55 150,-61 144,-61 144,-61 99,-61 99,-61 93,-61 87,-55 87,-49 87,-49 87,-37 87,-37 87,-31 93,-25 99,-25"/>
<text xml:space="preserve" text-anchor="middle" x="96.88" y="-37.95" font-family="Times,serif" font-size="14.00"> </text>
<polyline fill="none" stroke="lightgray" points="106.75,-25 106.75,-61"/>
<text xml:space="preserve" text-anchor="middle" x="121.5" y="-37.95" font-family="Times,serif" font-size="14.00">84</text>
<polyline fill="none" stroke="lightgray" points="136.25,-25 136.25,-61"/>
<text xml:space="preserve" text-anchor="middle" x="146.12" y="-37.95" font-family="Times,serif" font-size="14.00"> </text>
</g>
<!-- 4469877440&#45;&gt;4469875424 -->
<g id="edge8" class="edge">
<title>4469877440:r&#45;&gt;4469875424:v</title>
<path fill="none" stroke="black" d="M98.75,-97.5C98.75,-83.3 111.55,-80.8 117.95,-72.45"/>
<polygon fill="black" stroke="black" points="121.27,-73.53 121.03,-62.94 114.62,-71.37 121.27,-73.53"/>
</g>
</g>
</svg>
