<?xml version="1.0" encoding="UTF-8" standalone="no"?>
<!DOCTYPE svg PUBLIC "-//W3C//DTD SVG 1.1//EN"
 "http://www.w3.org/Graphics/SVG/1.1/DTD/svg11.dtd">
<!-- Generated by graphviz version 14.0.0 (20250921.2048)
 -->
<!-- Pages: 1 -->
<svg width="314pt" height="216pt"
 viewBox="0.00 0.00 314.00 216.00" xmlns="http://www.w3.org/2000/svg" xmlns:xlink="http://www.w3.org/1999/xlink">
<g id="graph0" class="graph" transform="scale(1 1) rotate(0) translate(4 211.5)">
<polygon fill="white" stroke="none" points="-4,4 -4,-211.5 309.5,-211.5 309.5,4 -4,4"/>
<text xml:space="preserve" text-anchor="middle" x="152.75" y="-7.2" font-family="Times,serif" font-size="14.00">MaxHeap [17, 10, 6, 9, 3, 5, 19, 22, 84], heapsize: 6</text>
<!-- 4512496816 -->
<g id="node1" class="node">
<title>4512496816</title>
<path fill="lightgray" stroke="green" d="M158.25,-171C158.25,-171 203.25,-171 203.25,-171 209.25,-171 215.25,-177 215.25,-183 215.25,-183 215.25,-195 215.25,-195 215.25,-201 209.25,-207 203.25,-207 203.25,-207 158.25,-207 158.25,-207 152.25,-207 146.25,-201 146.25,-195 146.25,-195 146.25,-183 146.25,-183 146.25,-177 152.25,-171 158.25,-171"/>
<text xml:space="preserve" text-anchor="middle" x="156.12" y="-183.95" font-family="Times,serif" font-size="14.00"> </text>
<polyline fill="none" stroke="green" points="166,-171 166,-207"/>
<text xml:space="preserve" text-anchor="middle" x="180.75" y="-183.95" font-family="Times,serif" font-size="14.00">17</text>
<polyline fill="none" stroke="green" points="195.5,-171 195.5,-207"/>
<text xml:space="preserve" text-anchor="middle" x="205.38" y="-183.95" font-family="Times,serif" font-size="14.00"> </text>
</g>
<!-- 4534528368 -->
<g id="node2" class="node">
<title>4534528368</title>
<path fill="lightgray" stroke="lightgray" d="M106.25,-98C106.25,-98 151.25,-98 151.25,-98 157.25,-98 163.25,-104 163.25,-110 163.25,-110 163.25,-122 163.25,-122 163.25,-128 157.25,-134 151.25,-134 151.25,-134 106.25,-134 106.25,-134 100.25,-134 94.25,-128 94.25,-122 94.25,-122 94.25,-110 94.25,-110 94.25,-104 100.25,-98 106.25,-98"/>
<text xml:space="preserve" text-anchor="middle" x="104.12" y="-110.95" font-family="Times,serif" font-size="14.00"> </text>
<polyline fill="none" stroke="lightgray" points="114,-98 114,-134"/>
<text xml:space="preserve" text-anchor="middle" x="128.75" y="-110.95" font-family="Times,serif" font-size="14.00">10</text>
<polyline fill="none" stroke="lightgray" points="143.5,-98 143.5,-134"/>
<text xml:space="preserve" text-anchor="middle" x="153.38" y="-110.95" font-family="Times,serif" font-size="14.00"> </text>
</g>
<!-- 4512496816&#45;&gt;4534528368 -->
<g id="edge1" class="edge">
<title>4512496816:l&#45;&gt;4534528368:v</title>
<path fill="none" stroke="black" d="M156.12,-170.5C156.12,-155.11 140.08,-153.97 132.56,-145.25"/>
<polygon fill="black" stroke="black" points="135.89,-144.19 129.26,-135.93 129.29,-146.52 135.89,-144.19"/>
</g>
<!-- 4534521872 -->
<g id="node3" class="node">
<title>4534521872</title>
<path fill="lightgray" stroke="green" d="M213.62,-98C213.62,-98 251.88,-98 251.88,-98 257.88,-98 263.88,-104 263.88,-110 263.88,-110 263.88,-122 263.88,-122 263.88,-128 257.88,-134 251.88,-134 251.88,-134 213.62,-134 213.62,-134 207.62,-134 201.62,-128 201.62,-122 201.62,-122 201.62,-110 201.62,-110 201.62,-104 207.62,-98 213.62,-98"/>
<text xml:space="preserve" text-anchor="middle" x="211.5" y="-110.95" font-family="Times,serif" font-size="14.00"> </text>
<polyline fill="none" stroke="green" points="221.38,-98 221.38,-134"/>
<text xml:space="preserve" text-anchor="middle" x="232.75" y="-110.95" font-family="Times,serif" font-size="14.00">6</text>
<polyline fill="none" stroke="green" points="244.12,-98 244.12,-134"/>
<text xml:space="preserve" text-anchor="middle" x="254" y="-110.95" font-family="Times,serif" font-size="14.00"> </text>
</g>
<!-- 4512496816&#45;&gt;4534521872 -->
<g id="edge2" class="edge">
<title>4512496816:r&#45;&gt;4534521872:v</title>
<path fill="none" stroke="black" d="M205.38,-170.5C205.38,-155.11 221.42,-153.97 228.94,-145.25"/>
<polygon fill="black" stroke="black" points="232.21,-146.52 232.24,-135.93 225.61,-144.19 232.21,-146.52"/>
</g>
<!-- 4534522432 -->
<g id="node4" class="node">
<title>4534522432</title>
<path fill="lightgray" stroke="lightgray" d="M53.62,-25C53.62,-25 91.88,-25 91.88,-25 97.88,-25 103.88,-31 103.88,-37 103.88,-37 103.88,-49 103.88,-49 103.88,-55 97.88,-61 91.88,-61 91.88,-61 53.62,-61 53.62,-61 47.62,-61 41.62,-55 41.62,-49 41.62,-49 41.62,-37 41.62,-37 41.62,-31 47.62,-25 53.62,-25"/>
<text xml:space="preserve" text-anchor="middle" x="51.5" y="-37.95" font-family="Times,serif" font-size="14.00"> </text>
<polyline fill="none" stroke="lightgray" points="61.38,-25 61.38,-61"/>
<text xml:space="preserve" text-anchor="middle" x="72.75" y="-37.95" font-family="Times,serif" font-size="14.00">9</text>
<polyline fill="none" stroke="lightgray" points="84.12,-25 84.12,-61"/>
<text xml:space="preserve" text-anchor="middle" x="94" y="-37.95" font-family="Times,serif" font-size="14.00"> </text>
</g>
<!-- 4534528368&#45;&gt;4534522432 -->
<g id="edge3" class="edge">
<title>4534528368:l&#45;&gt;4534522432:v</title>
<path fill="none" stroke="black" d="M104.12,-97.5C104.12,-80.92 84.98,-81.23 76.6,-72.04"/>
<polygon fill="black" stroke="black" points="79.99,-71.11 73.27,-62.92 73.41,-73.52 79.99,-71.11"/>
</g>
<!-- 4534527360 -->
<g id="node5" class="node">
<title>4534527360</title>
<path fill="lightgray" stroke="lightgray" d="M133.62,-25C133.62,-25 171.88,-25 171.88,-25 177.88,-25 183.88,-31 183.88,-37 183.88,-37 183.88,-49 183.88,-49 183.88,-55 177.88,-61 171.88,-61 171.88,-61 133.62,-61 133.62,-61 127.62,-61 121.62,-55 121.62,-49 121.62,-49 121.62,-37 121.62,-37 121.62,-31 127.62,-25 133.62,-25"/>
<text xml:space="preserve" text-anchor="middle" x="131.5" y="-37.95" font-family="Times,serif" font-size="14.00"> </text>
<polyline fill="none" stroke="lightgray" points="141.38,-25 141.38,-61"/>
<text xml:space="preserve" text-anchor="middle" x="152.75" y="-37.95" font-family="Times,serif" font-size="14.00">3</text>
<polyline fill="none" stroke="lightgray" points="164.12,-25 164.12,-61"/>
<text xml:space="preserve" text-anchor="middle" x="174" y="-37.95" font-family="Times,serif" font-size="14.00"> </text>
</g>
<!-- 4534528368&#45;&gt;4534527360 -->
<g id="edge4" class="edge">
<title>4534528368:r&#45;&gt;4534527360:v</title>
<path fill="none" stroke="black" d="M153.38,-97.5C153.38,-86.12 153.06,-80.82 152.88,-72.95"/>
<polygon fill="black" stroke="black" points="156.38,-72.97 152.77,-63.01 149.38,-73.05 156.38,-72.97"/>
</g>
<!-- 4534528144 -->
<g id="node6" class="node">
<title>4534528144</title>
<path fill="lightgray" stroke="lightgray" d="M213.62,-25C213.62,-25 251.88,-25 251.88,-25 257.88,-25 263.88,-31 263.88,-37 263.88,-37 263.88,-49 263.88,-49 263.88,-55 257.88,-61 251.88,-61 251.88,-61 213.62,-61 213.62,-61 207.62,-61 201.62,-55 201.62,-49 201.62,-49 201.62,-37 201.62,-37 201.62,-31 207.62,-25 213.62,-25"/>
<text xml:space="preserve" text-anchor="middle" x="211.5" y="-37.95" font-family="Times,serif" font-size="14.00"> </text>
<polyline fill="none" stroke="lightgray" points="221.38,-25 221.38,-61"/>
<text xml:space="preserve" text-anchor="middle" x="232.75" y="-37.95" font-family="Times,serif" font-size="14.00">5</text>
<polyline fill="none" stroke="lightgray" points="244.12,-25 244.12,-61"/>
<text xml:space="preserve" text-anchor="middle" x="254" y="-37.95" font-family="Times,serif" font-size="14.00"> </text>
</g>
<!-- 4534521872&#45;&gt;4534528144 -->
<g id="edge5" class="edge">
<title>4534521872:l&#45;&gt;4534528144:v</title>
<path fill="none" stroke="black" d="M211.5,-97.5C211.5,-83.57 223.45,-80.73 229.43,-72.35"/>
<polygon fill="black" stroke="black" points="232.73,-73.53 232.31,-62.95 226.03,-71.49 232.73,-73.53"/>
</g>
</g>
</svg>
