<?xml version="1.0" encoding="UTF-8" standalone="no"?>
<!DOCTYPE svg PUBLIC "-//W3C//DTD SVG 1.1//EN"
 "http://www.w3.org/Graphics/SVG/1.1/DTD/svg11.dtd">
<!-- Generated by graphviz version 14.0.0 (20250921.2048)
 -->
<!-- Pages: 1 -->
<svg width="190pt" height="232pt"
 viewBox="0.00 0.00 190.00 232.00" xmlns="http://www.w3.org/2000/svg" xmlns:xlink="http://www.w3.org/1999/xlink">
<g id="graph0" class="graph" transform="scale(1 1) rotate(0) translate(4 228)">
<polygon fill="white" stroke="none" points="-4,4 -4,-228 186.25,-228 186.25,4 -4,4"/>
<text xml:space="preserve" text-anchor="middle" x="91.12" y="-23.7" font-family="Times,serif" font-size="14.00">ls.length = 5</text>
<text xml:space="preserve" text-anchor="middle" x="91.12" y="-7.2" font-family="Times,serif" font-size="14.00">first leaf = [2]</text>
<!-- 4495475344 -->
<g id="node1" class="node">
<title>4495475344</title>
<path fill="lightgray" stroke="lightgray" d="M92,-187.5C92,-187.5 130.25,-187.5 130.25,-187.5 136.25,-187.5 142.25,-193.5 142.25,-199.5 142.25,-199.5 142.25,-211.5 142.25,-211.5 142.25,-217.5 136.25,-223.5 130.25,-223.5 130.25,-223.5 92,-223.5 92,-223.5 86,-223.5 80,-217.5 80,-211.5 80,-211.5 80,-199.5 80,-199.5 80,-193.5 86,-187.5 92,-187.5"/>
<text xml:space="preserve" text-anchor="middle" x="89.88" y="-200.45" font-family="Times,serif" font-size="14.00"> </text>
<polyline fill="none" stroke="lightgray" points="99.75,-187.5 99.75,-223.5"/>
<text xml:space="preserve" text-anchor="middle" x="111.12" y="-200.45" font-family="Times,serif" font-size="14.00">0</text>
<polyline fill="none" stroke="lightgray" points="122.5,-187.5 122.5,-223.5"/>
<text xml:space="preserve" text-anchor="middle" x="132.38" y="-200.45" font-family="Times,serif" font-size="14.00"> </text>
</g>
<!-- 4495475536 -->
<g id="node2" class="node">
<title>4495475536</title>
<path fill="lightgray" stroke="lightgray" d="M52,-114.5C52,-114.5 90.25,-114.5 90.25,-114.5 96.25,-114.5 102.25,-120.5 102.25,-126.5 102.25,-126.5 102.25,-138.5 102.25,-138.5 102.25,-144.5 96.25,-150.5 90.25,-150.5 90.25,-150.5 52,-150.5 52,-150.5 46,-150.5 40,-144.5 40,-138.5 40,-138.5 40,-126.5 40,-126.5 40,-120.5 46,-114.5 52,-114.5"/>
<text xml:space="preserve" text-anchor="middle" x="49.88" y="-127.45" font-family="Times,serif" font-size="14.00"> </text>
<polyline fill="none" stroke="lightgray" points="59.75,-114.5 59.75,-150.5"/>
<text xml:space="preserve" text-anchor="middle" x="71.12" y="-127.45" font-family="Times,serif" font-size="14.00">1</text>
<polyline fill="none" stroke="lightgray" points="82.5,-114.5 82.5,-150.5"/>
<text xml:space="preserve" text-anchor="middle" x="92.38" y="-127.45" font-family="Times,serif" font-size="14.00"> </text>
</g>
<!-- 4495475344&#45;&gt;4495475536 -->
<g id="edge1" class="edge">
<title>4495475344:l&#45;&gt;4495475536:v</title>
<path fill="none" stroke="black" d="M89.88,-187C89.88,-173.61 79.55,-170.2 74.22,-161.96"/>
<polygon fill="black" stroke="black" points="77.62,-161.13 71.54,-152.46 70.89,-163.03 77.62,-161.13"/>
</g>
<!-- 4488024096 -->
<g id="node3" class="node">
<title>4488024096</title>
<path fill="lightgray" stroke="green" d="M132,-114.5C132,-114.5 170.25,-114.5 170.25,-114.5 176.25,-114.5 182.25,-120.5 182.25,-126.5 182.25,-126.5 182.25,-138.5 182.25,-138.5 182.25,-144.5 176.25,-150.5 170.25,-150.5 170.25,-150.5 132,-150.5 132,-150.5 126,-150.5 120,-144.5 120,-138.5 120,-138.5 120,-126.5 120,-126.5 120,-120.5 126,-114.5 132,-114.5"/>
<text xml:space="preserve" text-anchor="middle" x="129.88" y="-127.45" font-family="Times,serif" font-size="14.00"> </text>
<polyline fill="none" stroke="green" points="139.75,-114.5 139.75,-150.5"/>
<text xml:space="preserve" text-anchor="middle" x="151.12" y="-127.45" font-family="Times,serif" font-size="14.00">2</text>
<polyline fill="none" stroke="green" points="162.5,-114.5 162.5,-150.5"/>
<text xml:space="preserve" text-anchor="middle" x="172.38" y="-127.45" font-family="Times,serif" font-size="14.00"> </text>
</g>
<!-- 4495475344&#45;&gt;4488024096 -->
<g id="edge2" class="edge">
<title>4495475344:r&#45;&gt;4488024096:v</title>
<path fill="none" stroke="black" d="M132.38,-187C132.38,-173.61 142.7,-170.2 148.03,-161.96"/>
<polygon fill="black" stroke="black" points="151.36,-163.03 150.71,-152.46 144.63,-161.13 151.36,-163.03"/>
</g>
<!-- 4488024448 -->
<g id="node4" class="node">
<title>4488024448</title>
<path fill="lightgray" stroke="green" d="M12,-41.5C12,-41.5 50.25,-41.5 50.25,-41.5 56.25,-41.5 62.25,-47.5 62.25,-53.5 62.25,-53.5 62.25,-65.5 62.25,-65.5 62.25,-71.5 56.25,-77.5 50.25,-77.5 50.25,-77.5 12,-77.5 12,-77.5 6,-77.5 0,-71.5 0,-65.5 0,-65.5 0,-53.5 0,-53.5 0,-47.5 6,-41.5 12,-41.5"/>
<text xml:space="preserve" text-anchor="middle" x="9.88" y="-54.45" font-family="Times,serif" font-size="14.00"> </text>
<polyline fill="none" stroke="green" points="19.75,-41.5 19.75,-77.5"/>
<text xml:space="preserve" text-anchor="middle" x="31.12" y="-54.45" font-family="Times,serif" font-size="14.00">3</text>
<polyline fill="none" stroke="green" points="42.5,-41.5 42.5,-77.5"/>
<text xml:space="preserve" text-anchor="middle" x="52.38" y="-54.45" font-family="Times,serif" font-size="14.00"> </text>
</g>
<!-- 4495475536&#45;&gt;4488024448 -->
<g id="edge3" class="edge">
<title>4495475536:l&#45;&gt;4488024448:v</title>
<path fill="none" stroke="black" d="M49.88,-114C49.88,-100.61 39.55,-97.2 34.22,-88.96"/>
<polygon fill="black" stroke="black" points="37.62,-88.13 31.54,-79.46 30.89,-90.03 37.62,-88.13"/>
</g>
<!-- 4486881648 -->
<g id="node5" class="node">
<title>4486881648</title>
<path fill="lightgray" stroke="green" d="M92,-41.5C92,-41.5 130.25,-41.5 130.25,-41.5 136.25,-41.5 142.25,-47.5 142.25,-53.5 142.25,-53.5 142.25,-65.5 142.25,-65.5 142.25,-71.5 136.25,-77.5 130.25,-77.5 130.25,-77.5 92,-77.5 92,-77.5 86,-77.5 80,-71.5 80,-65.5 80,-65.5 80,-53.5 80,-53.5 80,-47.5 86,-41.5 92,-41.5"/>
<text xml:space="preserve" text-anchor="middle" x="89.88" y="-54.45" font-family="Times,serif" font-size="14.00"> </text>
<polyline fill="none" stroke="green" points="99.75,-41.5 99.75,-77.5"/>
<text xml:space="preserve" text-anchor="middle" x="111.12" y="-54.45" font-family="Times,serif" font-size="14.00">4</text>
<polyline fill="none" stroke="green" points="122.5,-41.5 122.5,-77.5"/>
<text xml:space="preserve" text-anchor="middle" x="132.38" y="-54.45" font-family="Times,serif" font-size="14.00"> </text>
</g>
<!-- 4495475536&#45;&gt;4486881648 -->
<g id="edge4" class="edge">
<title>4495475536:r&#45;&gt;4486881648:v</title>
<path fill="none" stroke="black" d="M92.38,-114C92.38,-100.61 102.7,-97.2 108.03,-88.96"/>
<polygon fill="black" stroke="black" points="111.36,-90.03 110.71,-79.46 104.63,-88.13 111.36,-90.03"/>
</g>
</g>
</svg>
