<?xml version="1.0" encoding="UTF-8" standalone="no"?>
<!DOCTYPE svg PUBLIC "-//W3C//DTD SVG 1.1//EN"
 "http://www.w3.org/Graphics/SVG/1.1/DTD/svg11.dtd">
<!-- Generated by graphviz version 14.0.0 (20250921.2048)
 -->
<!-- Pages: 1 -->
<svg width="498pt" height="289pt"
 viewBox="0.00 0.00 498.00 289.00" xmlns="http://www.w3.org/2000/svg" xmlns:xlink="http://www.w3.org/1999/xlink">
<g id="graph0" class="graph" transform="scale(1 1) rotate(0) translate(4 284.5)">
<polygon fill="white" stroke="none" points="-4,4 -4,-284.5 494.25,-284.5 494.25,4 -4,4"/>
<text xml:space="preserve" text-anchor="middle" x="245.12" y="-7.2" font-family="Times,serif" font-size="14.00">MaxHeap [15, 13, 9, 5, 12, 10, 7, 4, 0, 6, 2, 1, 8], heapsize: 13</text>
<!-- 4534527360 -->
<g id="node1" class="node">
<title>4534527360</title>
<path fill="lightgray" stroke="lightgray" d="M286.62,-244C286.62,-244 331.62,-244 331.62,-244 337.62,-244 343.62,-250 343.62,-256 343.62,-256 343.62,-268 343.62,-268 343.62,-274 337.62,-280 331.62,-280 331.62,-280 286.62,-280 286.62,-280 280.62,-280 274.62,-274 274.62,-268 274.62,-268 274.62,-256 274.62,-256 274.62,-250 280.62,-244 286.62,-244"/>
<text xml:space="preserve" text-anchor="middle" x="284.5" y="-256.95" font-family="Times,serif" font-size="14.00"> </text>
<polyline fill="none" stroke="lightgray" points="294.38,-244 294.38,-280"/>
<text xml:space="preserve" text-anchor="middle" x="309.12" y="-256.95" font-family="Times,serif" font-size="14.00">15</text>
<polyline fill="none" stroke="lightgray" points="323.88,-244 323.88,-280"/>
<text xml:space="preserve" text-anchor="middle" x="333.75" y="-256.95" font-family="Times,serif" font-size="14.00"> </text>
</g>
<!-- 4534520976 -->
<g id="node2" class="node">
<title>4534520976</title>
<path fill="lightgray" stroke="lightgray" d="M184.62,-171C184.62,-171 229.62,-171 229.62,-171 235.62,-171 241.62,-177 241.62,-183 241.62,-183 241.62,-195 241.62,-195 241.62,-201 235.62,-207 229.62,-207 229.62,-207 184.62,-207 184.62,-207 178.62,-207 172.62,-201 172.62,-195 172.62,-195 172.62,-183 172.62,-183 172.62,-177 178.62,-171 184.62,-171"/>
<text xml:space="preserve" text-anchor="middle" x="182.5" y="-183.95" font-family="Times,serif" font-size="14.00"> </text>
<polyline fill="none" stroke="lightgray" points="192.38,-171 192.38,-207"/>
<text xml:space="preserve" text-anchor="middle" x="207.12" y="-183.95" font-family="Times,serif" font-size="14.00">13</text>
<polyline fill="none" stroke="lightgray" points="221.88,-171 221.88,-207"/>
<text xml:space="preserve" text-anchor="middle" x="231.75" y="-183.95" font-family="Times,serif" font-size="14.00"> </text>
</g>
<!-- 4534527360&#45;&gt;4534520976 -->
<g id="edge1" class="edge">
<title>4534527360:l&#45;&gt;4534520976:v</title>
<path fill="none" stroke="black" d="M284.5,-243.5C284.5,-210.31 225.26,-236.68 210.45,-218.38"/>
<polygon fill="black" stroke="black" points="213.84,-217.49 207.57,-208.95 207.14,-219.53 213.84,-217.49"/>
</g>
<!-- 4534528144 -->
<g id="node3" class="node">
<title>4534528144</title>
<path fill="lightgray" stroke="lightgray" d="M377,-171C377,-171 415.25,-171 415.25,-171 421.25,-171 427.25,-177 427.25,-183 427.25,-183 427.25,-195 427.25,-195 427.25,-201 421.25,-207 415.25,-207 415.25,-207 377,-207 377,-207 371,-207 365,-201 365,-195 365,-195 365,-183 365,-183 365,-177 371,-171 377,-171"/>
<text xml:space="preserve" text-anchor="middle" x="374.88" y="-183.95" font-family="Times,serif" font-size="14.00"> </text>
<polyline fill="none" stroke="lightgray" points="384.75,-171 384.75,-207"/>
<text xml:space="preserve" text-anchor="middle" x="396.12" y="-183.95" font-family="Times,serif" font-size="14.00">9</text>
<polyline fill="none" stroke="lightgray" points="407.5,-171 407.5,-207"/>
<text xml:space="preserve" text-anchor="middle" x="417.38" y="-183.95" font-family="Times,serif" font-size="14.00"> </text>
</g>
<!-- 4534527360&#45;&gt;4534528144 -->
<g id="edge2" class="edge">
<title>4534527360:r&#45;&gt;4534528144:v</title>
<path fill="none" stroke="black" d="M333.75,-243.5C333.75,-216.24 378.98,-232.51 392.41,-218.18"/>
<polygon fill="black" stroke="black" points="395.65,-219.52 395.63,-208.93 389.04,-217.22 395.65,-219.52"/>
</g>
<!-- 4534528704 -->
<g id="node4" class="node">
<title>4534528704</title>
<path fill="lightgray" stroke="lightgray" d="M71,-98C71,-98 109.25,-98 109.25,-98 115.25,-98 121.25,-104 121.25,-110 121.25,-110 121.25,-122 121.25,-122 121.25,-128 115.25,-134 109.25,-134 109.25,-134 71,-134 71,-134 65,-134 59,-128 59,-122 59,-122 59,-110 59,-110 59,-104 65,-98 71,-98"/>
<text xml:space="preserve" text-anchor="middle" x="68.88" y="-110.95" font-family="Times,serif" font-size="14.00"> </text>
<polyline fill="none" stroke="lightgray" points="78.75,-98 78.75,-134"/>
<text xml:space="preserve" text-anchor="middle" x="90.12" y="-110.95" font-family="Times,serif" font-size="14.00">5</text>
<polyline fill="none" stroke="lightgray" points="101.5,-98 101.5,-134"/>
<text xml:space="preserve" text-anchor="middle" x="111.38" y="-110.95" font-family="Times,serif" font-size="14.00"> </text>
</g>
<!-- 4534520976&#45;&gt;4534528704 -->
<g id="edge3" class="edge">
<title>4534520976:l&#45;&gt;4534528704:v</title>
<path fill="none" stroke="black" d="M182.5,-170.5C182.5,-131.08 108.58,-168.64 92.99,-145.46"/>
<polygon fill="black" stroke="black" points="96.42,-144.75 90.51,-135.96 89.65,-146.52 96.42,-144.75"/>
</g>
<!-- 4534523328 -->
<g id="node5" class="node">
<title>4534523328</title>
<path fill="lightgray" stroke="lightgray" d="M208.62,-98C208.62,-98 253.62,-98 253.62,-98 259.62,-98 265.62,-104 265.62,-110 265.62,-110 265.62,-122 265.62,-122 265.62,-128 259.62,-134 253.62,-134 253.62,-134 208.62,-134 208.62,-134 202.62,-134 196.62,-128 196.62,-122 196.62,-122 196.62,-110 196.62,-110 196.62,-104 202.62,-98 208.62,-98"/>
<text xml:space="preserve" text-anchor="middle" x="206.5" y="-110.95" font-family="Times,serif" font-size="14.00"> </text>
<polyline fill="none" stroke="lightgray" points="216.38,-98 216.38,-134"/>
<text xml:space="preserve" text-anchor="middle" x="231.12" y="-110.95" font-family="Times,serif" font-size="14.00">12</text>
<polyline fill="none" stroke="lightgray" points="245.88,-98 245.88,-134"/>
<text xml:space="preserve" text-anchor="middle" x="255.75" y="-110.95" font-family="Times,serif" font-size="14.00"> </text>
</g>
<!-- 4534520976&#45;&gt;4534523328 -->
<g id="edge4" class="edge">
<title>4534520976:r&#45;&gt;4534523328:v</title>
<path fill="none" stroke="black" d="M231.75,-170.5C231.75,-159.12 231.43,-153.82 231.25,-145.95"/>
<polygon fill="black" stroke="black" points="234.75,-145.97 231.14,-136.01 227.75,-146.05 234.75,-145.97"/>
</g>
<!-- 4534531616 -->
<g id="node6" class="node">
<title>4534531616</title>
<path fill="lightgray" stroke="green" d="M352.62,-98C352.62,-98 397.62,-98 397.62,-98 403.62,-98 409.62,-104 409.62,-110 409.62,-110 409.62,-122 409.62,-122 409.62,-128 403.62,-134 397.62,-134 397.62,-134 352.62,-134 352.62,-134 346.62,-134 340.62,-128 340.62,-122 340.62,-122 340.62,-110 340.62,-110 340.62,-104 346.62,-98 352.62,-98"/>
<text xml:space="preserve" text-anchor="middle" x="350.5" y="-110.95" font-family="Times,serif" font-size="14.00"> </text>
<polyline fill="none" stroke="green" points="360.38,-98 360.38,-134"/>
<text xml:space="preserve" text-anchor="middle" x="375.12" y="-110.95" font-family="Times,serif" font-size="14.00">10</text>
<polyline fill="none" stroke="green" points="389.88,-98 389.88,-134"/>
<text xml:space="preserve" text-anchor="middle" x="399.75" y="-110.95" font-family="Times,serif" font-size="14.00"> </text>
</g>
<!-- 4534528144&#45;&gt;4534531616 -->
<g id="edge5" class="edge">
<title>4534528144:l&#45;&gt;4534531616:v</title>
<path fill="none" stroke="black" d="M374.88,-170.5C374.88,-159.12 375,-153.82 375.07,-145.95"/>
<polygon fill="black" stroke="black" points="378.57,-146.03 375.12,-136.01 371.57,-146 378.57,-146.03"/>
</g>
<!-- 4534521872 -->
<g id="node7" class="node">
<title>4534521872</title>
<path fill="lightgray" stroke="lightgray" d="M440,-98C440,-98 478.25,-98 478.25,-98 484.25,-98 490.25,-104 490.25,-110 490.25,-110 490.25,-122 490.25,-122 490.25,-128 484.25,-134 478.25,-134 478.25,-134 440,-134 440,-134 434,-134 428,-128 428,-122 428,-122 428,-110 428,-110 428,-104 434,-98 440,-98"/>
<text xml:space="preserve" text-anchor="middle" x="437.88" y="-110.95" font-family="Times,serif" font-size="14.00"> </text>
<polyline fill="none" stroke="lightgray" points="447.75,-98 447.75,-134"/>
<text xml:space="preserve" text-anchor="middle" x="459.12" y="-110.95" font-family="Times,serif" font-size="14.00">7</text>
<polyline fill="none" stroke="lightgray" points="470.5,-98 470.5,-134"/>
<text xml:space="preserve" text-anchor="middle" x="480.38" y="-110.95" font-family="Times,serif" font-size="14.00"> </text>
</g>
<!-- 4534528144&#45;&gt;4534521872 -->
<g id="edge6" class="edge">
<title>4534528144:r&#45;&gt;4534521872:v</title>
<path fill="none" stroke="black" d="M417.38,-170.5C417.38,-150.78 444.41,-155.35 454.97,-145.12"/>
<polygon fill="black" stroke="black" points="458.19,-146.5 458.57,-135.91 451.67,-143.95 458.19,-146.5"/>
</g>
<!-- 4534527808 -->
<g id="node8" class="node">
<title>4534527808</title>
<path fill="lightgray" stroke="lightgray" d="M12,-25C12,-25 50.25,-25 50.25,-25 56.25,-25 62.25,-31 62.25,-37 62.25,-37 62.25,-49 62.25,-49 62.25,-55 56.25,-61 50.25,-61 50.25,-61 12,-61 12,-61 6,-61 0,-55 0,-49 0,-49 0,-37 0,-37 0,-31 6,-25 12,-25"/>
<text xml:space="preserve" text-anchor="middle" x="9.88" y="-37.95" font-family="Times,serif" font-size="14.00"> </text>
<polyline fill="none" stroke="lightgray" points="19.75,-25 19.75,-61"/>
<text xml:space="preserve" text-anchor="middle" x="31.12" y="-37.95" font-family="Times,serif" font-size="14.00">4</text>
<polyline fill="none" stroke="lightgray" points="42.5,-25 42.5,-61"/>
<text xml:space="preserve" text-anchor="middle" x="52.38" y="-37.95" font-family="Times,serif" font-size="14.00"> </text>
</g>
<!-- 4534528704&#45;&gt;4534527808 -->
<g id="edge7" class="edge">
<title>4534528704:l&#45;&gt;4534527808:v</title>
<path fill="none" stroke="black" d="M68.88,-97.5C68.88,-79.03 44.9,-81.86 35.16,-72.04"/>
<polygon fill="black" stroke="black" points="38.51,-71 31.67,-62.91 31.98,-73.5 38.51,-71"/>
</g>
<!-- 4534519856 -->
<g id="node9" class="node">
<title>4534519856</title>
<path fill="lightgray" stroke="lightgray" d="M92,-25C92,-25 130.25,-25 130.25,-25 136.25,-25 142.25,-31 142.25,-37 142.25,-37 142.25,-49 142.25,-49 142.25,-55 136.25,-61 130.25,-61 130.25,-61 92,-61 92,-61 86,-61 80,-55 80,-49 80,-49 80,-37 80,-37 80,-31 86,-25 92,-25"/>
<text xml:space="preserve" text-anchor="middle" x="89.88" y="-37.95" font-family="Times,serif" font-size="14.00"> </text>
<polyline fill="none" stroke="lightgray" points="99.75,-25 99.75,-61"/>
<text xml:space="preserve" text-anchor="middle" x="111.12" y="-37.95" font-family="Times,serif" font-size="14.00">0</text>
<polyline fill="none" stroke="lightgray" points="122.5,-25 122.5,-61"/>
<text xml:space="preserve" text-anchor="middle" x="132.38" y="-37.95" font-family="Times,serif" font-size="14.00"> </text>
</g>
<!-- 4534528704&#45;&gt;4534519856 -->
<g id="edge8" class="edge">
<title>4534528704:r&#45;&gt;4534519856:v</title>
<path fill="none" stroke="black" d="M111.38,-97.5C111.38,-86.12 111.25,-80.82 111.18,-72.95"/>
<polygon fill="black" stroke="black" points="114.68,-73 111.13,-63.01 107.68,-73.03 114.68,-73"/>
</g>
<!-- 4534531280 -->
<g id="node10" class="node">
<title>4534531280</title>
<path fill="lightgray" stroke="lightgray" d="M172,-25C172,-25 210.25,-25 210.25,-25 216.25,-25 222.25,-31 222.25,-37 222.25,-37 222.25,-49 222.25,-49 222.25,-55 216.25,-61 210.25,-61 210.25,-61 172,-61 172,-61 166,-61 160,-55 160,-49 160,-49 160,-37 160,-37 160,-31 166,-25 172,-25"/>
<text xml:space="preserve" text-anchor="middle" x="169.88" y="-37.95" font-family="Times,serif" font-size="14.00"> </text>
<polyline fill="none" stroke="lightgray" points="179.75,-25 179.75,-61"/>
<text xml:space="preserve" text-anchor="middle" x="191.12" y="-37.95" font-family="Times,serif" font-size="14.00">6</text>
<polyline fill="none" stroke="lightgray" points="202.5,-25 202.5,-61"/>
<text xml:space="preserve" text-anchor="middle" x="212.38" y="-37.95" font-family="Times,serif" font-size="14.00"> </text>
</g>
<!-- 4534523328&#45;&gt;4534531280 -->
<g id="edge9" class="edge">
<title>4534523328:l&#45;&gt;4534531280:v</title>
<path fill="none" stroke="black" d="M206.5,-97.5C206.5,-84.72 198.21,-80.68 193.8,-72.54"/>
<polygon fill="black" stroke="black" points="197.24,-71.86 191.48,-62.97 190.44,-73.51 197.24,-71.86"/>
</g>
<!-- 4534529712 -->
<g id="node11" class="node">
<title>4534529712</title>
<path fill="lightgray" stroke="lightgray" d="M252,-25C252,-25 290.25,-25 290.25,-25 296.25,-25 302.25,-31 302.25,-37 302.25,-37 302.25,-49 302.25,-49 302.25,-55 296.25,-61 290.25,-61 290.25,-61 252,-61 252,-61 246,-61 240,-55 240,-49 240,-49 240,-37 240,-37 240,-31 246,-25 252,-25"/>
<text xml:space="preserve" text-anchor="middle" x="249.88" y="-37.95" font-family="Times,serif" font-size="14.00"> </text>
<polyline fill="none" stroke="lightgray" points="259.75,-25 259.75,-61"/>
<text xml:space="preserve" text-anchor="middle" x="271.12" y="-37.95" font-family="Times,serif" font-size="14.00">2</text>
<polyline fill="none" stroke="lightgray" points="282.5,-25 282.5,-61"/>
<text xml:space="preserve" text-anchor="middle" x="292.38" y="-37.95" font-family="Times,serif" font-size="14.00"> </text>
</g>
<!-- 4534523328&#45;&gt;4534529712 -->
<g id="edge10" class="edge">
<title>4534523328:r&#45;&gt;4534529712:v</title>
<path fill="none" stroke="black" d="M255.75,-97.5C255.75,-84.72 264.04,-80.68 268.45,-72.54"/>
<polygon fill="black" stroke="black" points="271.81,-73.51 270.77,-62.97 265.01,-71.86 271.81,-73.51"/>
</g>
<!-- 4534531952 -->
<g id="node12" class="node">
<title>4534531952</title>
<path fill="lightgray" stroke="lightgray" d="M332,-25C332,-25 370.25,-25 370.25,-25 376.25,-25 382.25,-31 382.25,-37 382.25,-37 382.25,-49 382.25,-49 382.25,-55 376.25,-61 370.25,-61 370.25,-61 332,-61 332,-61 326,-61 320,-55 320,-49 320,-49 320,-37 320,-37 320,-31 326,-25 332,-25"/>
<text xml:space="preserve" text-anchor="middle" x="329.88" y="-37.95" font-family="Times,serif" font-size="14.00"> </text>
<polyline fill="none" stroke="lightgray" points="339.75,-25 339.75,-61"/>
<text xml:space="preserve" text-anchor="middle" x="351.12" y="-37.95" font-family="Times,serif" font-size="14.00">1</text>
<polyline fill="none" stroke="lightgray" points="362.5,-25 362.5,-61"/>
<text xml:space="preserve" text-anchor="middle" x="372.38" y="-37.95" font-family="Times,serif" font-size="14.00"> </text>
</g>
<!-- 4534531616&#45;&gt;4534531952 -->
<g id="edge11" class="edge">
<title>4534531616:l&#45;&gt;4534531952:v</title>
<path fill="none" stroke="black" d="M350.5,-97.5C350.5,-86.12 350.82,-80.82 351,-72.95"/>
<polygon fill="black" stroke="black" points="354.5,-73.05 351.11,-63.01 347.5,-72.97 354.5,-73.05"/>
</g>
<!-- 4534532064 -->
<g id="node13" class="node">
<title>4534532064</title>
<path fill="lightgray" stroke="green" d="M412,-25C412,-25 450.25,-25 450.25,-25 456.25,-25 462.25,-31 462.25,-37 462.25,-37 462.25,-49 462.25,-49 462.25,-55 456.25,-61 450.25,-61 450.25,-61 412,-61 412,-61 406,-61 400,-55 400,-49 400,-49 400,-37 400,-37 400,-31 406,-25 412,-25"/>
<text xml:space="preserve" text-anchor="middle" x="409.88" y="-37.95" font-family="Times,serif" font-size="14.00"> </text>
<polyline fill="none" stroke="green" points="419.75,-25 419.75,-61"/>
<text xml:space="preserve" text-anchor="middle" x="431.12" y="-37.95" font-family="Times,serif" font-size="14.00">8</text>
<polyline fill="none" stroke="green" points="442.5,-25 442.5,-61"/>
<text xml:space="preserve" text-anchor="middle" x="452.38" y="-37.95" font-family="Times,serif" font-size="14.00"> </text>
</g>
<!-- 4534531616&#45;&gt;4534532064 -->
<g id="edge12" class="edge">
<title>4534531616:r&#45;&gt;4534532064:v</title>
<path fill="none" stroke="black" d="M399.75,-97.5C399.75,-80.92 418.9,-81.23 427.28,-72.04"/>
<polygon fill="black" stroke="black" points="430.46,-73.52 430.61,-62.92 423.89,-71.11 430.46,-73.52"/>
</g>
</g>
</svg>
