<?xml version="1.0" encoding="UTF-8" standalone="no"?>
<!DOCTYPE svg PUBLIC "-//W3C//DTD SVG 1.1//EN"
 "http://www.w3.org/Graphics/SVG/1.1/DTD/svg11.dtd">
<!-- Generated by graphviz version 14.0.0 (20250921.2048)
 -->
<!-- Pages: 1 -->
<svg width="514pt" height="289pt"
 viewBox="0.00 0.00 514.00 289.00" xmlns="http://www.w3.org/2000/svg" xmlns:xlink="http://www.w3.org/1999/xlink">
<g id="graph0" class="graph" transform="scale(1 1) rotate(0) translate(4 284.5)">
<polygon fill="white" stroke="none" points="-4,4 -4,-284.5 510.25,-284.5 510.25,4 -4,4"/>
<text xml:space="preserve" text-anchor="middle" x="253.12" y="-7.2" font-family="Times,serif" font-size="14.00">MaxHeap [15, 13, 9, 5, 12, 10, 7, 4, 0, 6, 2, 1, 8], heapsize: 13</text>
<!-- 4469875424 -->
<g id="node1" class="node">
<title>4469875424</title>
<path fill="lightgray" stroke="lightgray" d="M270.62,-244C270.62,-244 315.62,-244 315.62,-244 321.62,-244 327.62,-250 327.62,-256 327.62,-256 327.62,-268 327.62,-268 327.62,-274 321.62,-280 315.62,-280 315.62,-280 270.62,-280 270.62,-280 264.62,-280 258.62,-274 258.62,-268 258.62,-268 258.62,-256 258.62,-256 258.62,-250 264.62,-244 270.62,-244"/>
<text xml:space="preserve" text-anchor="middle" x="268.5" y="-256.95" font-family="Times,serif" font-size="14.00"> </text>
<polyline fill="none" stroke="lightgray" points="278.38,-244 278.38,-280"/>
<text xml:space="preserve" text-anchor="middle" x="293.12" y="-256.95" font-family="Times,serif" font-size="14.00">15</text>
<polyline fill="none" stroke="lightgray" points="307.88,-244 307.88,-280"/>
<text xml:space="preserve" text-anchor="middle" x="317.75" y="-256.95" font-family="Times,serif" font-size="14.00"> </text>
</g>
<!-- 4469878448 -->
<g id="node2" class="node">
<title>4469878448</title>
<path fill="lightgray" stroke="lightgray" d="M184.62,-171C184.62,-171 229.62,-171 229.62,-171 235.62,-171 241.62,-177 241.62,-183 241.62,-183 241.62,-195 241.62,-195 241.62,-201 235.62,-207 229.62,-207 229.62,-207 184.62,-207 184.62,-207 178.62,-207 172.62,-201 172.62,-195 172.62,-195 172.62,-183 172.62,-183 172.62,-177 178.62,-171 184.62,-171"/>
<text xml:space="preserve" text-anchor="middle" x="182.5" y="-183.95" font-family="Times,serif" font-size="14.00"> </text>
<polyline fill="none" stroke="lightgray" points="192.38,-171 192.38,-207"/>
<text xml:space="preserve" text-anchor="middle" x="207.12" y="-183.95" font-family="Times,serif" font-size="14.00">13</text>
<polyline fill="none" stroke="lightgray" points="221.88,-171 221.88,-207"/>
<text xml:space="preserve" text-anchor="middle" x="231.75" y="-183.95" font-family="Times,serif" font-size="14.00"> </text>
</g>
<!-- 4469875424&#45;&gt;4469878448 -->
<g id="edge1" class="edge">
<title>4469875424:l&#45;&gt;4469878448:v</title>
<path fill="none" stroke="black" d="M268.5,-243.5C268.5,-216.57 223.99,-232.33 210.78,-218.08"/>
<polygon fill="black" stroke="black" points="214.19,-217.24 207.62,-208.93 207.58,-219.53 214.19,-217.24"/>
</g>
<!-- 4469874976 -->
<g id="node3" class="node">
<title>4469874976</title>
<path fill="lightgray" stroke="lightgray" d="M393,-171C393,-171 431.25,-171 431.25,-171 437.25,-171 443.25,-177 443.25,-183 443.25,-183 443.25,-195 443.25,-195 443.25,-201 437.25,-207 431.25,-207 431.25,-207 393,-207 393,-207 387,-207 381,-201 381,-195 381,-195 381,-183 381,-183 381,-177 387,-171 393,-171"/>
<text xml:space="preserve" text-anchor="middle" x="390.88" y="-183.95" font-family="Times,serif" font-size="14.00"> </text>
<polyline fill="none" stroke="lightgray" points="400.75,-171 400.75,-207"/>
<text xml:space="preserve" text-anchor="middle" x="412.12" y="-183.95" font-family="Times,serif" font-size="14.00">9</text>
<polyline fill="none" stroke="lightgray" points="423.5,-171 423.5,-207"/>
<text xml:space="preserve" text-anchor="middle" x="433.38" y="-183.95" font-family="Times,serif" font-size="14.00"> </text>
</g>
<!-- 4469875424&#45;&gt;4469874976 -->
<g id="edge2" class="edge">
<title>4469875424:r&#45;&gt;4469874976:v</title>
<path fill="none" stroke="black" d="M317.75,-243.5C317.75,-203.17 393.93,-242.49 409.4,-218.33"/>
<polygon fill="black" stroke="black" points="412.71,-219.52 411.76,-208.97 405.92,-217.81 412.71,-219.52"/>
</g>
<!-- 4469878000 -->
<g id="node4" class="node">
<title>4469878000</title>
<path fill="lightgray" stroke="lightgray" d="M71,-98C71,-98 109.25,-98 109.25,-98 115.25,-98 121.25,-104 121.25,-110 121.25,-110 121.25,-122 121.25,-122 121.25,-128 115.25,-134 109.25,-134 109.25,-134 71,-134 71,-134 65,-134 59,-128 59,-122 59,-122 59,-110 59,-110 59,-104 65,-98 71,-98"/>
<text xml:space="preserve" text-anchor="middle" x="68.88" y="-110.95" font-family="Times,serif" font-size="14.00"> </text>
<polyline fill="none" stroke="lightgray" points="78.75,-98 78.75,-134"/>
<text xml:space="preserve" text-anchor="middle" x="90.12" y="-110.95" font-family="Times,serif" font-size="14.00">5</text>
<polyline fill="none" stroke="lightgray" points="101.5,-98 101.5,-134"/>
<text xml:space="preserve" text-anchor="middle" x="111.38" y="-110.95" font-family="Times,serif" font-size="14.00"> </text>
</g>
<!-- 4469878448&#45;&gt;4469878000 -->
<g id="edge3" class="edge">
<title>4469878448:l&#45;&gt;4469878000:v</title>
<path fill="none" stroke="black" d="M182.5,-170.5C182.5,-131.08 108.58,-168.64 92.99,-145.46"/>
<polygon fill="black" stroke="black" points="96.42,-144.75 90.51,-135.96 89.65,-146.52 96.42,-144.75"/>
</g>
<!-- 4469877440 -->
<g id="node5" class="node">
<title>4469877440</title>
<path fill="lightgray" stroke="lightgray" d="M208.62,-98C208.62,-98 253.62,-98 253.62,-98 259.62,-98 265.62,-104 265.62,-110 265.62,-110 265.62,-122 265.62,-122 265.62,-128 259.62,-134 253.62,-134 253.62,-134 208.62,-134 208.62,-134 202.62,-134 196.62,-128 196.62,-122 196.62,-122 196.62,-110 196.62,-110 196.62,-104 202.62,-98 208.62,-98"/>
<text xml:space="preserve" text-anchor="middle" x="206.5" y="-110.95" font-family="Times,serif" font-size="14.00"> </text>
<polyline fill="none" stroke="lightgray" points="216.38,-98 216.38,-134"/>
<text xml:space="preserve" text-anchor="middle" x="231.12" y="-110.95" font-family="Times,serif" font-size="14.00">12</text>
<polyline fill="none" stroke="lightgray" points="245.88,-98 245.88,-134"/>
<text xml:space="preserve" text-anchor="middle" x="255.75" y="-110.95" font-family="Times,serif" font-size="14.00"> </text>
</g>
<!-- 4469878448&#45;&gt;4469877440 -->
<g id="edge4" class="edge">
<title>4469878448:r&#45;&gt;4469877440:v</title>
<path fill="none" stroke="black" d="M231.75,-170.5C231.75,-159.12 231.43,-153.82 231.25,-145.95"/>
<polygon fill="black" stroke="black" points="234.75,-145.97 231.14,-136.01 227.75,-146.05 234.75,-145.97"/>
</g>
<!-- 4469873296 -->
<g id="node6" class="node">
<title>4469873296</title>
<path fill="lightgray" stroke="green" d="M368.62,-98C368.62,-98 413.62,-98 413.62,-98 419.62,-98 425.62,-104 425.62,-110 425.62,-110 425.62,-122 425.62,-122 425.62,-128 419.62,-134 413.62,-134 413.62,-134 368.62,-134 368.62,-134 362.62,-134 356.62,-128 356.62,-122 356.62,-122 356.62,-110 356.62,-110 356.62,-104 362.62,-98 368.62,-98"/>
<text xml:space="preserve" text-anchor="middle" x="366.5" y="-110.95" font-family="Times,serif" font-size="14.00"> </text>
<polyline fill="none" stroke="green" points="376.38,-98 376.38,-134"/>
<text xml:space="preserve" text-anchor="middle" x="391.12" y="-110.95" font-family="Times,serif" font-size="14.00">10</text>
<polyline fill="none" stroke="green" points="405.88,-98 405.88,-134"/>
<text xml:space="preserve" text-anchor="middle" x="415.75" y="-110.95" font-family="Times,serif" font-size="14.00"> </text>
</g>
<!-- 4469874976&#45;&gt;4469873296 -->
<g id="edge5" class="edge">
<title>4469874976:l&#45;&gt;4469873296:v</title>
<path fill="none" stroke="black" d="M390.88,-170.5C390.88,-159.12 391,-153.82 391.07,-145.95"/>
<polygon fill="black" stroke="black" points="394.57,-146.03 391.12,-136.01 387.57,-146 394.57,-146.03"/>
</g>
<!-- 4469875872 -->
<g id="node7" class="node">
<title>4469875872</title>
<path fill="lightgray" stroke="lightgray" d="M456,-98C456,-98 494.25,-98 494.25,-98 500.25,-98 506.25,-104 506.25,-110 506.25,-110 506.25,-122 506.25,-122 506.25,-128 500.25,-134 494.25,-134 494.25,-134 456,-134 456,-134 450,-134 444,-128 444,-122 444,-122 444,-110 444,-110 444,-104 450,-98 456,-98"/>
<text xml:space="preserve" text-anchor="middle" x="453.88" y="-110.95" font-family="Times,serif" font-size="14.00"> </text>
<polyline fill="none" stroke="lightgray" points="463.75,-98 463.75,-134"/>
<text xml:space="preserve" text-anchor="middle" x="475.12" y="-110.95" font-family="Times,serif" font-size="14.00">7</text>
<polyline fill="none" stroke="lightgray" points="486.5,-98 486.5,-134"/>
<text xml:space="preserve" text-anchor="middle" x="496.38" y="-110.95" font-family="Times,serif" font-size="14.00"> </text>
</g>
<!-- 4469874976&#45;&gt;4469875872 -->
<g id="edge6" class="edge">
<title>4469874976:r&#45;&gt;4469875872:v</title>
<path fill="none" stroke="black" d="M433.38,-170.5C433.38,-150.78 460.41,-155.35 470.97,-145.12"/>
<polygon fill="black" stroke="black" points="474.19,-146.5 474.57,-135.91 467.67,-143.95 474.19,-146.5"/>
</g>
<!-- 4469875312 -->
<g id="node8" class="node">
<title>4469875312</title>
<path fill="lightgray" stroke="lightgray" d="M12,-25C12,-25 50.25,-25 50.25,-25 56.25,-25 62.25,-31 62.25,-37 62.25,-37 62.25,-49 62.25,-49 62.25,-55 56.25,-61 50.25,-61 50.25,-61 12,-61 12,-61 6,-61 0,-55 0,-49 0,-49 0,-37 0,-37 0,-31 6,-25 12,-25"/>
<text xml:space="preserve" text-anchor="middle" x="9.88" y="-37.95" font-family="Times,serif" font-size="14.00"> </text>
<polyline fill="none" stroke="lightgray" points="19.75,-25 19.75,-61"/>
<text xml:space="preserve" text-anchor="middle" x="31.12" y="-37.95" font-family="Times,serif" font-size="14.00">4</text>
<polyline fill="none" stroke="lightgray" points="42.5,-25 42.5,-61"/>
<text xml:space="preserve" text-anchor="middle" x="52.38" y="-37.95" font-family="Times,serif" font-size="14.00"> </text>
</g>
<!-- 4469878000&#45;&gt;4469875312 -->
<g id="edge7" class="edge">
<title>4469878000:l&#45;&gt;4469875312:v</title>
<path fill="none" stroke="black" d="M68.88,-97.5C68.88,-79.03 44.9,-81.86 35.16,-72.04"/>
<polygon fill="black" stroke="black" points="38.51,-71 31.67,-62.91 31.98,-73.5 38.51,-71"/>
</g>
<!-- 4469870608 -->
<g id="node9" class="node">
<title>4469870608</title>
<path fill="lightgray" stroke="lightgray" d="M92,-25C92,-25 130.25,-25 130.25,-25 136.25,-25 142.25,-31 142.25,-37 142.25,-37 142.25,-49 142.25,-49 142.25,-55 136.25,-61 130.25,-61 130.25,-61 92,-61 92,-61 86,-61 80,-55 80,-49 80,-49 80,-37 80,-37 80,-31 86,-25 92,-25"/>
<text xml:space="preserve" text-anchor="middle" x="89.88" y="-37.95" font-family="Times,serif" font-size="14.00"> </text>
<polyline fill="none" stroke="lightgray" points="99.75,-25 99.75,-61"/>
<text xml:space="preserve" text-anchor="middle" x="111.12" y="-37.95" font-family="Times,serif" font-size="14.00">0</text>
<polyline fill="none" stroke="lightgray" points="122.5,-25 122.5,-61"/>
<text xml:space="preserve" text-anchor="middle" x="132.38" y="-37.95" font-family="Times,serif" font-size="14.00"> </text>
</g>
<!-- 4469878000&#45;&gt;4469870608 -->
<g id="edge8" class="edge">
<title>4469878000:r&#45;&gt;4469870608:v</title>
<path fill="none" stroke="black" d="M111.38,-97.5C111.38,-86.12 111.25,-80.82 111.18,-72.95"/>
<polygon fill="black" stroke="black" points="114.68,-73 111.13,-63.01 107.68,-73.03 114.68,-73"/>
</g>
<!-- 4469874192 -->
<g id="node10" class="node">
<title>4469874192</title>
<path fill="lightgray" stroke="lightgray" d="M172,-25C172,-25 210.25,-25 210.25,-25 216.25,-25 222.25,-31 222.25,-37 222.25,-37 222.25,-49 222.25,-49 222.25,-55 216.25,-61 210.25,-61 210.25,-61 172,-61 172,-61 166,-61 160,-55 160,-49 160,-49 160,-37 160,-37 160,-31 166,-25 172,-25"/>
<text xml:space="preserve" text-anchor="middle" x="169.88" y="-37.95" font-family="Times,serif" font-size="14.00"> </text>
<polyline fill="none" stroke="lightgray" points="179.75,-25 179.75,-61"/>
<text xml:space="preserve" text-anchor="middle" x="191.12" y="-37.95" font-family="Times,serif" font-size="14.00">6</text>
<polyline fill="none" stroke="lightgray" points="202.5,-25 202.5,-61"/>
<text xml:space="preserve" text-anchor="middle" x="212.38" y="-37.95" font-family="Times,serif" font-size="14.00"> </text>
</g>
<!-- 4469877440&#45;&gt;4469874192 -->
<g id="edge9" class="edge">
<title>4469877440:l&#45;&gt;4469874192:v</title>
<path fill="none" stroke="black" d="M206.5,-97.5C206.5,-84.72 198.21,-80.68 193.8,-72.54"/>
<polygon fill="black" stroke="black" points="197.24,-71.86 191.48,-62.97 190.44,-73.51 197.24,-71.86"/>
</g>
<!-- 4469869488 -->
<g id="node11" class="node">
<title>4469869488</title>
<path fill="lightgray" stroke="lightgray" d="M252,-25C252,-25 290.25,-25 290.25,-25 296.25,-25 302.25,-31 302.25,-37 302.25,-37 302.25,-49 302.25,-49 302.25,-55 296.25,-61 290.25,-61 290.25,-61 252,-61 252,-61 246,-61 240,-55 240,-49 240,-49 240,-37 240,-37 240,-31 246,-25 252,-25"/>
<text xml:space="preserve" text-anchor="middle" x="249.88" y="-37.95" font-family="Times,serif" font-size="14.00"> </text>
<polyline fill="none" stroke="lightgray" points="259.75,-25 259.75,-61"/>
<text xml:space="preserve" text-anchor="middle" x="271.12" y="-37.95" font-family="Times,serif" font-size="14.00">2</text>
<polyline fill="none" stroke="lightgray" points="282.5,-25 282.5,-61"/>
<text xml:space="preserve" text-anchor="middle" x="292.38" y="-37.95" font-family="Times,serif" font-size="14.00"> </text>
</g>
<!-- 4469877440&#45;&gt;4469869488 -->
<g id="edge10" class="edge">
<title>4469877440:r&#45;&gt;4469869488:v</title>
<path fill="none" stroke="black" d="M255.75,-97.5C255.75,-84.72 264.04,-80.68 268.45,-72.54"/>
<polygon fill="black" stroke="black" points="271.81,-73.51 270.77,-62.97 265.01,-71.86 271.81,-73.51"/>
</g>
<!-- 4469878336 -->
<g id="node12" class="node">
<title>4469878336</title>
<path fill="lightgray" stroke="lightgray" d="M332,-25C332,-25 370.25,-25 370.25,-25 376.25,-25 382.25,-31 382.25,-37 382.25,-37 382.25,-49 382.25,-49 382.25,-55 376.25,-61 370.25,-61 370.25,-61 332,-61 332,-61 326,-61 320,-55 320,-49 320,-49 320,-37 320,-37 320,-31 326,-25 332,-25"/>
<text xml:space="preserve" text-anchor="middle" x="329.88" y="-37.95" font-family="Times,serif" font-size="14.00"> </text>
<polyline fill="none" stroke="lightgray" points="339.75,-25 339.75,-61"/>
<text xml:space="preserve" text-anchor="middle" x="351.12" y="-37.95" font-family="Times,serif" font-size="14.00">1</text>
<polyline fill="none" stroke="lightgray" points="362.5,-25 362.5,-61"/>
<text xml:space="preserve" text-anchor="middle" x="372.38" y="-37.95" font-family="Times,serif" font-size="14.00"> </text>
</g>
<!-- 4469873296&#45;&gt;4469878336 -->
<g id="edge11" class="edge">
<title>4469873296:l&#45;&gt;4469878336:v</title>
<path fill="none" stroke="black" d="M366.5,-97.5C366.5,-84.72 358.21,-80.68 353.8,-72.54"/>
<polygon fill="black" stroke="black" points="357.24,-71.86 351.48,-62.97 350.44,-73.51 357.24,-71.86"/>
</g>
<!-- 4469870048 -->
<g id="node13" class="node">
<title>4469870048</title>
<path fill="lightgray" stroke="green" d="M412,-25C412,-25 450.25,-25 450.25,-25 456.25,-25 462.25,-31 462.25,-37 462.25,-37 462.25,-49 462.25,-49 462.25,-55 456.25,-61 450.25,-61 450.25,-61 412,-61 412,-61 406,-61 400,-55 400,-49 400,-49 400,-37 400,-37 400,-31 406,-25 412,-25"/>
<text xml:space="preserve" text-anchor="middle" x="409.88" y="-37.95" font-family="Times,serif" font-size="14.00"> </text>
<polyline fill="none" stroke="green" points="419.75,-25 419.75,-61"/>
<text xml:space="preserve" text-anchor="middle" x="431.12" y="-37.95" font-family="Times,serif" font-size="14.00">8</text>
<polyline fill="none" stroke="green" points="442.5,-25 442.5,-61"/>
<text xml:space="preserve" text-anchor="middle" x="452.38" y="-37.95" font-family="Times,serif" font-size="14.00"> </text>
</g>
<!-- 4469873296&#45;&gt;4469870048 -->
<g id="edge12" class="edge">
<title>4469873296:r&#45;&gt;4469870048:v</title>
<path fill="none" stroke="black" d="M415.75,-97.5C415.75,-84.72 424.04,-80.68 428.45,-72.54"/>
<polygon fill="black" stroke="black" points="431.81,-73.51 430.77,-62.97 425.01,-71.86 431.81,-73.51"/>
</g>
<!-- 4469873296&#45;&gt;4469870048 -->
<g id="edge13" class="edge">
<title>4469873296&#45;&gt;4469870048</title>
<path fill="none" stroke="green" d="M400.81,-97.81C405.38,-89.7 410.94,-79.84 416.04,-70.78"/>
<polygon fill="green" stroke="green" points="418.93,-72.78 420.79,-62.35 412.83,-69.34 418.93,-72.78"/>
</g>
</g>
</svg>
