<?xml version="1.0" encoding="UTF-8" standalone="no"?>
<!DOCTYPE svg PUBLIC "-//W3C//DTD SVG 1.1//EN"
 "http://www.w3.org/Graphics/SVG/1.1/DTD/svg11.dtd">
<!-- Generated by graphviz version 14.0.0 (20250921.2048)
 -->
<!-- Pages: 1 -->
<svg width="558pt" height="289pt"
 viewBox="0.00 0.00 558.00 289.00" xmlns="http://www.w3.org/2000/svg" xmlns:xlink="http://www.w3.org/1999/xlink">
<g id="graph0" class="graph" transform="scale(1 1) rotate(0) translate(4 284.5)">
<polygon fill="white" stroke="none" points="-4,4 -4,-284.5 554.25,-284.5 554.25,4 -4,4"/>
<text xml:space="preserve" text-anchor="middle" x="275.12" y="-7.2" font-family="Times,serif" font-size="14.00">MaxHeap [27, 17, 10, 16, 13, 3, 1, 5, 7, 12, 4, 8, 9, 0], heapsize: 1</text>
<!-- 4495592816 -->
<g id="node1" class="node">
<title>4495592816</title>
<path fill="lightgray" stroke="lightgray" d="M282.62,-244C282.62,-244 327.62,-244 327.62,-244 333.62,-244 339.62,-250 339.62,-256 339.62,-256 339.62,-268 339.62,-268 339.62,-274 333.62,-280 327.62,-280 327.62,-280 282.62,-280 282.62,-280 276.62,-280 270.62,-274 270.62,-268 270.62,-268 270.62,-256 270.62,-256 270.62,-250 276.62,-244 282.62,-244"/>
<text xml:space="preserve" text-anchor="middle" x="280.5" y="-256.95" font-family="Times,serif" font-size="14.00"> </text>
<polyline fill="none" stroke="lightgray" points="290.38,-244 290.38,-280"/>
<text xml:space="preserve" text-anchor="middle" x="305.12" y="-256.95" font-family="Times,serif" font-size="14.00">27</text>
<polyline fill="none" stroke="lightgray" points="319.88,-244 319.88,-280"/>
<text xml:space="preserve" text-anchor="middle" x="329.75" y="-256.95" font-family="Times,serif" font-size="14.00"> </text>
</g>
<!-- 4495594272 -->
<g id="node2" class="node">
<title>4495594272</title>
<path fill="lightgray" stroke="lightgray" d="M190.62,-171C190.62,-171 235.62,-171 235.62,-171 241.62,-171 247.62,-177 247.62,-183 247.62,-183 247.62,-195 247.62,-195 247.62,-201 241.62,-207 235.62,-207 235.62,-207 190.62,-207 190.62,-207 184.62,-207 178.62,-201 178.62,-195 178.62,-195 178.62,-183 178.62,-183 178.62,-177 184.62,-171 190.62,-171"/>
<text xml:space="preserve" text-anchor="middle" x="188.5" y="-183.95" font-family="Times,serif" font-size="14.00"> </text>
<polyline fill="none" stroke="lightgray" points="198.38,-171 198.38,-207"/>
<text xml:space="preserve" text-anchor="middle" x="213.12" y="-183.95" font-family="Times,serif" font-size="14.00">17</text>
<polyline fill="none" stroke="lightgray" points="227.88,-171 227.88,-207"/>
<text xml:space="preserve" text-anchor="middle" x="237.75" y="-183.95" font-family="Times,serif" font-size="14.00"> </text>
</g>
<!-- 4495592816&#45;&gt;4495594272 -->
<g id="edge1" class="edge">
<title>4495592816:l&#45;&gt;4495594272:v</title>
<path fill="none" stroke="black" d="M280.5,-243.5C280.5,-214.32 230.74,-233.78 216.75,-218.28"/>
<polygon fill="black" stroke="black" points="220.11,-217.3 213.61,-208.93 213.47,-219.53 220.11,-217.3"/>
</g>
<!-- 4495594384 -->
<g id="node3" class="node">
<title>4495594384</title>
<path fill="lightgray" stroke="green" d="M388.62,-171C388.62,-171 433.62,-171 433.62,-171 439.62,-171 445.62,-177 445.62,-183 445.62,-183 445.62,-195 445.62,-195 445.62,-201 439.62,-207 433.62,-207 433.62,-207 388.62,-207 388.62,-207 382.62,-207 376.62,-201 376.62,-195 376.62,-195 376.62,-183 376.62,-183 376.62,-177 382.62,-171 388.62,-171"/>
<text xml:space="preserve" text-anchor="middle" x="386.5" y="-183.95" font-family="Times,serif" font-size="14.00"> </text>
<polyline fill="none" stroke="green" points="396.38,-171 396.38,-207"/>
<text xml:space="preserve" text-anchor="middle" x="411.12" y="-183.95" font-family="Times,serif" font-size="14.00">10</text>
<polyline fill="none" stroke="green" points="425.88,-171 425.88,-207"/>
<text xml:space="preserve" text-anchor="middle" x="435.75" y="-183.95" font-family="Times,serif" font-size="14.00"> </text>
</g>
<!-- 4495592816&#45;&gt;4495594384 -->
<g id="edge2" class="edge">
<title>4495592816:r&#45;&gt;4495594384:v</title>
<path fill="none" stroke="black" d="M329.75,-243.5C329.75,-208.74 392.61,-237.82 407.83,-218.52"/>
<polygon fill="black" stroke="black" points="411.19,-219.53 410.69,-208.95 404.48,-217.53 411.19,-219.53"/>
</g>
<!-- 4495594496 -->
<g id="node4" class="node">
<title>4495594496</title>
<path fill="lightgray" stroke="lightgray" d="M64.62,-98C64.62,-98 109.62,-98 109.62,-98 115.62,-98 121.62,-104 121.62,-110 121.62,-110 121.62,-122 121.62,-122 121.62,-128 115.62,-134 109.62,-134 109.62,-134 64.62,-134 64.62,-134 58.62,-134 52.62,-128 52.62,-122 52.62,-122 52.62,-110 52.62,-110 52.62,-104 58.62,-98 64.62,-98"/>
<text xml:space="preserve" text-anchor="middle" x="62.5" y="-110.95" font-family="Times,serif" font-size="14.00"> </text>
<polyline fill="none" stroke="lightgray" points="72.38,-98 72.38,-134"/>
<text xml:space="preserve" text-anchor="middle" x="87.12" y="-110.95" font-family="Times,serif" font-size="14.00">16</text>
<polyline fill="none" stroke="lightgray" points="101.88,-98 101.88,-134"/>
<text xml:space="preserve" text-anchor="middle" x="111.75" y="-110.95" font-family="Times,serif" font-size="14.00"> </text>
</g>
<!-- 4495594272&#45;&gt;4495594496 -->
<g id="edge3" class="edge">
<title>4495594272:l&#45;&gt;4495594496:v</title>
<path fill="none" stroke="black" d="M188.5,-170.5C188.5,-127.36 105.96,-171.69 89.84,-145.63"/>
<polygon fill="black" stroke="black" points="93.25,-144.86 87.48,-135.97 86.45,-146.51 93.25,-144.86"/>
</g>
<!-- 4495594608 -->
<g id="node5" class="node">
<title>4495594608</title>
<path fill="lightgray" stroke="lightgray" d="M214.62,-98C214.62,-98 259.62,-98 259.62,-98 265.62,-98 271.62,-104 271.62,-110 271.62,-110 271.62,-122 271.62,-122 271.62,-128 265.62,-134 259.62,-134 259.62,-134 214.62,-134 214.62,-134 208.62,-134 202.62,-128 202.62,-122 202.62,-122 202.62,-110 202.62,-110 202.62,-104 208.62,-98 214.62,-98"/>
<text xml:space="preserve" text-anchor="middle" x="212.5" y="-110.95" font-family="Times,serif" font-size="14.00"> </text>
<polyline fill="none" stroke="lightgray" points="222.38,-98 222.38,-134"/>
<text xml:space="preserve" text-anchor="middle" x="237.12" y="-110.95" font-family="Times,serif" font-size="14.00">13</text>
<polyline fill="none" stroke="lightgray" points="251.88,-98 251.88,-134"/>
<text xml:space="preserve" text-anchor="middle" x="261.75" y="-110.95" font-family="Times,serif" font-size="14.00"> </text>
</g>
<!-- 4495594272&#45;&gt;4495594608 -->
<g id="edge4" class="edge">
<title>4495594272:r&#45;&gt;4495594608:v</title>
<path fill="none" stroke="black" d="M237.75,-170.5C237.75,-159.12 237.43,-153.82 237.25,-145.95"/>
<polygon fill="black" stroke="black" points="240.75,-145.97 237.14,-136.01 233.75,-146.05 240.75,-145.97"/>
</g>
<!-- 4495594720 -->
<g id="node6" class="node">
<title>4495594720</title>
<path fill="lightgray" stroke="green" d="M380,-98C380,-98 418.25,-98 418.25,-98 424.25,-98 430.25,-104 430.25,-110 430.25,-110 430.25,-122 430.25,-122 430.25,-128 424.25,-134 418.25,-134 418.25,-134 380,-134 380,-134 374,-134 368,-128 368,-122 368,-122 368,-110 368,-110 368,-104 374,-98 380,-98"/>
<text xml:space="preserve" text-anchor="middle" x="377.88" y="-110.95" font-family="Times,serif" font-size="14.00"> </text>
<polyline fill="none" stroke="green" points="387.75,-98 387.75,-134"/>
<text xml:space="preserve" text-anchor="middle" x="399.12" y="-110.95" font-family="Times,serif" font-size="14.00">3</text>
<polyline fill="none" stroke="green" points="410.5,-98 410.5,-134"/>
<text xml:space="preserve" text-anchor="middle" x="420.38" y="-110.95" font-family="Times,serif" font-size="14.00"> </text>
</g>
<!-- 4495594384&#45;&gt;4495594720 -->
<g id="edge5" class="edge">
<title>4495594384:l&#45;&gt;4495594720:v</title>
<path fill="none" stroke="black" d="M386.5,-170.5C386.5,-158.18 393.16,-153.71 396.81,-145.68"/>
<polygon fill="black" stroke="black" points="400.22,-146.48 398.82,-135.98 393.36,-145.06 400.22,-146.48"/>
</g>
<!-- 4495594832 -->
<g id="node7" class="node">
<title>4495594832</title>
<path fill="lightgray" stroke="lightgray" d="M500,-98C500,-98 538.25,-98 538.25,-98 544.25,-98 550.25,-104 550.25,-110 550.25,-110 550.25,-122 550.25,-122 550.25,-128 544.25,-134 538.25,-134 538.25,-134 500,-134 500,-134 494,-134 488,-128 488,-122 488,-122 488,-110 488,-110 488,-104 494,-98 500,-98"/>
<text xml:space="preserve" text-anchor="middle" x="497.88" y="-110.95" font-family="Times,serif" font-size="14.00"> </text>
<polyline fill="none" stroke="lightgray" points="507.75,-98 507.75,-134"/>
<text xml:space="preserve" text-anchor="middle" x="519.12" y="-110.95" font-family="Times,serif" font-size="14.00">1</text>
<polyline fill="none" stroke="lightgray" points="530.5,-98 530.5,-134"/>
<text xml:space="preserve" text-anchor="middle" x="540.38" y="-110.95" font-family="Times,serif" font-size="14.00"> </text>
</g>
<!-- 4495594384&#45;&gt;4495594832 -->
<g id="edge6" class="edge">
<title>4495594384:r&#45;&gt;4495594832:v</title>
<path fill="none" stroke="black" d="M435.75,-170.5C435.75,-134.87 500.73,-165.55 515.96,-145.46"/>
<polygon fill="black" stroke="black" points="519.29,-146.53 518.7,-135.95 512.57,-144.59 519.29,-146.53"/>
</g>
<!-- 4495594944 -->
<g id="node8" class="node">
<title>4495594944</title>
<path fill="lightgray" stroke="lightgray" d="M12,-25C12,-25 50.25,-25 50.25,-25 56.25,-25 62.25,-31 62.25,-37 62.25,-37 62.25,-49 62.25,-49 62.25,-55 56.25,-61 50.25,-61 50.25,-61 12,-61 12,-61 6,-61 0,-55 0,-49 0,-49 0,-37 0,-37 0,-31 6,-25 12,-25"/>
<text xml:space="preserve" text-anchor="middle" x="9.88" y="-37.95" font-family="Times,serif" font-size="14.00"> </text>
<polyline fill="none" stroke="lightgray" points="19.75,-25 19.75,-61"/>
<text xml:space="preserve" text-anchor="middle" x="31.12" y="-37.95" font-family="Times,serif" font-size="14.00">5</text>
<polyline fill="none" stroke="lightgray" points="42.5,-25 42.5,-61"/>
<text xml:space="preserve" text-anchor="middle" x="52.38" y="-37.95" font-family="Times,serif" font-size="14.00"> </text>
</g>
<!-- 4495594496&#45;&gt;4495594944 -->
<g id="edge7" class="edge">
<title>4495594496:l&#45;&gt;4495594944:v</title>
<path fill="none" stroke="black" d="M62.5,-97.5C62.5,-80.92 43.35,-81.23 34.97,-72.04"/>
<polygon fill="black" stroke="black" points="38.36,-71.11 31.64,-62.92 31.79,-73.52 38.36,-71.11"/>
</g>
<!-- 4495595056 -->
<g id="node9" class="node">
<title>4495595056</title>
<path fill="lightgray" stroke="lightgray" d="M92,-25C92,-25 130.25,-25 130.25,-25 136.25,-25 142.25,-31 142.25,-37 142.25,-37 142.25,-49 142.25,-49 142.25,-55 136.25,-61 130.25,-61 130.25,-61 92,-61 92,-61 86,-61 80,-55 80,-49 80,-49 80,-37 80,-37 80,-31 86,-25 92,-25"/>
<text xml:space="preserve" text-anchor="middle" x="89.88" y="-37.95" font-family="Times,serif" font-size="14.00"> </text>
<polyline fill="none" stroke="lightgray" points="99.75,-25 99.75,-61"/>
<text xml:space="preserve" text-anchor="middle" x="111.12" y="-37.95" font-family="Times,serif" font-size="14.00">7</text>
<polyline fill="none" stroke="lightgray" points="122.5,-25 122.5,-61"/>
<text xml:space="preserve" text-anchor="middle" x="132.38" y="-37.95" font-family="Times,serif" font-size="14.00"> </text>
</g>
<!-- 4495594496&#45;&gt;4495595056 -->
<g id="edge8" class="edge">
<title>4495594496:r&#45;&gt;4495595056:v</title>
<path fill="none" stroke="black" d="M111.75,-97.5C111.75,-86.12 111.43,-80.82 111.25,-72.95"/>
<polygon fill="black" stroke="black" points="114.75,-72.97 111.14,-63.01 107.75,-73.05 114.75,-72.97"/>
</g>
<!-- 4495595168 -->
<g id="node10" class="node">
<title>4495595168</title>
<path fill="lightgray" stroke="lightgray" d="M172.62,-25C172.62,-25 217.62,-25 217.62,-25 223.62,-25 229.62,-31 229.62,-37 229.62,-37 229.62,-49 229.62,-49 229.62,-55 223.62,-61 217.62,-61 217.62,-61 172.62,-61 172.62,-61 166.62,-61 160.62,-55 160.62,-49 160.62,-49 160.62,-37 160.62,-37 160.62,-31 166.62,-25 172.62,-25"/>
<text xml:space="preserve" text-anchor="middle" x="170.5" y="-37.95" font-family="Times,serif" font-size="14.00"> </text>
<polyline fill="none" stroke="lightgray" points="180.38,-25 180.38,-61"/>
<text xml:space="preserve" text-anchor="middle" x="195.12" y="-37.95" font-family="Times,serif" font-size="14.00">12</text>
<polyline fill="none" stroke="lightgray" points="209.88,-25 209.88,-61"/>
<text xml:space="preserve" text-anchor="middle" x="219.75" y="-37.95" font-family="Times,serif" font-size="14.00"> </text>
</g>
<!-- 4495594608&#45;&gt;4495595168 -->
<g id="edge9" class="edge">
<title>4495594608:l&#45;&gt;4495595168:v</title>
<path fill="none" stroke="black" d="M212.5,-97.5C212.5,-84.31 202.93,-80.66 197.99,-72.38"/>
<polygon fill="black" stroke="black" points="201.44,-71.74 195.51,-62.96 194.68,-73.53 201.44,-71.74"/>
</g>
<!-- 4495595280 -->
<g id="node11" class="node">
<title>4495595280</title>
<path fill="lightgray" stroke="lightgray" d="M260,-25C260,-25 298.25,-25 298.25,-25 304.25,-25 310.25,-31 310.25,-37 310.25,-37 310.25,-49 310.25,-49 310.25,-55 304.25,-61 298.25,-61 298.25,-61 260,-61 260,-61 254,-61 248,-55 248,-49 248,-49 248,-37 248,-37 248,-31 254,-25 260,-25"/>
<text xml:space="preserve" text-anchor="middle" x="257.88" y="-37.95" font-family="Times,serif" font-size="14.00"> </text>
<polyline fill="none" stroke="lightgray" points="267.75,-25 267.75,-61"/>
<text xml:space="preserve" text-anchor="middle" x="279.12" y="-37.95" font-family="Times,serif" font-size="14.00">4</text>
<polyline fill="none" stroke="lightgray" points="290.5,-25 290.5,-61"/>
<text xml:space="preserve" text-anchor="middle" x="300.38" y="-37.95" font-family="Times,serif" font-size="14.00"> </text>
</g>
<!-- 4495594608&#45;&gt;4495595280 -->
<g id="edge10" class="edge">
<title>4495594608:r&#45;&gt;4495595280:v</title>
<path fill="none" stroke="black" d="M261.75,-97.5C261.75,-84.31 271.32,-80.66 276.26,-72.38"/>
<polygon fill="black" stroke="black" points="279.57,-73.53 278.74,-62.96 272.81,-71.74 279.57,-73.53"/>
</g>
<!-- 4495594720&#45;&gt;4495594384 -->
<g id="edge14" class="edge">
<title>4495594720&#45;&gt;4495594384</title>
<path fill="none" stroke="green" d="M402,-134.03C403.3,-141.68 404.86,-150.92 406.32,-159.58"/>
<polygon fill="green" stroke="green" points="402.85,-160.04 407.97,-169.32 409.75,-158.88 402.85,-160.04"/>
</g>
<!-- 4495595392 -->
<g id="node12" class="node">
<title>4495595392</title>
<path fill="lightgray" stroke="lightgray" d="M340,-25C340,-25 378.25,-25 378.25,-25 384.25,-25 390.25,-31 390.25,-37 390.25,-37 390.25,-49 390.25,-49 390.25,-55 384.25,-61 378.25,-61 378.25,-61 340,-61 340,-61 334,-61 328,-55 328,-49 328,-49 328,-37 328,-37 328,-31 334,-25 340,-25"/>
<text xml:space="preserve" text-anchor="middle" x="337.88" y="-37.95" font-family="Times,serif" font-size="14.00"> </text>
<polyline fill="none" stroke="lightgray" points="347.75,-25 347.75,-61"/>
<text xml:space="preserve" text-anchor="middle" x="359.12" y="-37.95" font-family="Times,serif" font-size="14.00">8</text>
<polyline fill="none" stroke="lightgray" points="370.5,-25 370.5,-61"/>
<text xml:space="preserve" text-anchor="middle" x="380.38" y="-37.95" font-family="Times,serif" font-size="14.00"> </text>
</g>
<!-- 4495594720&#45;&gt;4495595392 -->
<g id="edge11" class="edge">
<title>4495594720:l&#45;&gt;4495595392:v</title>
<path fill="none" stroke="black" d="M377.88,-97.5C377.88,-84.11 367.55,-80.7 362.22,-72.46"/>
<polygon fill="black" stroke="black" points="365.62,-71.63 359.54,-62.96 358.89,-73.53 365.62,-71.63"/>
</g>
<!-- 4495595504 -->
<g id="node13" class="node">
<title>4495595504</title>
<path fill="lightgray" stroke="lightgray" d="M420,-25C420,-25 458.25,-25 458.25,-25 464.25,-25 470.25,-31 470.25,-37 470.25,-37 470.25,-49 470.25,-49 470.25,-55 464.25,-61 458.25,-61 458.25,-61 420,-61 420,-61 414,-61 408,-55 408,-49 408,-49 408,-37 408,-37 408,-31 414,-25 420,-25"/>
<text xml:space="preserve" text-anchor="middle" x="417.88" y="-37.95" font-family="Times,serif" font-size="14.00"> </text>
<polyline fill="none" stroke="lightgray" points="427.75,-25 427.75,-61"/>
<text xml:space="preserve" text-anchor="middle" x="439.12" y="-37.95" font-family="Times,serif" font-size="14.00">9</text>
<polyline fill="none" stroke="lightgray" points="450.5,-25 450.5,-61"/>
<text xml:space="preserve" text-anchor="middle" x="460.38" y="-37.95" font-family="Times,serif" font-size="14.00"> </text>
</g>
<!-- 4495594720&#45;&gt;4495595504 -->
<g id="edge12" class="edge">
<title>4495594720:r&#45;&gt;4495595504:v</title>
<path fill="none" stroke="black" d="M420.38,-97.5C420.38,-84.11 430.7,-80.7 436.03,-72.46"/>
<polygon fill="black" stroke="black" points="439.36,-73.53 438.71,-62.96 432.63,-71.63 439.36,-73.53"/>
</g>
<!-- 4495595616 -->
<g id="node14" class="node">
<title>4495595616</title>
<path fill="lightgray" stroke="lightgray" d="M500,-25C500,-25 538.25,-25 538.25,-25 544.25,-25 550.25,-31 550.25,-37 550.25,-37 550.25,-49 550.25,-49 550.25,-55 544.25,-61 538.25,-61 538.25,-61 500,-61 500,-61 494,-61 488,-55 488,-49 488,-49 488,-37 488,-37 488,-31 494,-25 500,-25"/>
<text xml:space="preserve" text-anchor="middle" x="497.88" y="-37.95" font-family="Times,serif" font-size="14.00"> </text>
<polyline fill="none" stroke="lightgray" points="507.75,-25 507.75,-61"/>
<text xml:space="preserve" text-anchor="middle" x="519.12" y="-37.95" font-family="Times,serif" font-size="14.00">0</text>
<polyline fill="none" stroke="lightgray" points="530.5,-25 530.5,-61"/>
<text xml:space="preserve" text-anchor="middle" x="540.38" y="-37.95" font-family="Times,serif" font-size="14.00"> </text>
</g>
<!-- 4495594832&#45;&gt;4495595616 -->
<g id="edge13" class="edge">
<title>4495594832:l&#45;&gt;4495595616:v</title>
<path fill="none" stroke="black" d="M497.88,-97.5C497.88,-83.57 509.83,-80.73 515.8,-72.35"/>
<polygon fill="black" stroke="black" points="519.1,-73.53 518.68,-62.95 512.41,-71.49 519.1,-73.53"/>
</g>
</g>
</svg>
