<?xml version="1.0" encoding="UTF-8" standalone="no"?>
<!DOCTYPE svg PUBLIC "-//W3C//DTD SVG 1.1//EN"
 "http://www.w3.org/Graphics/SVG/1.1/DTD/svg11.dtd">
<!-- Generated by graphviz version 14.0.0 (20250921.2048)
 -->
<!-- Pages: 1 -->
<svg width="580pt" height="289pt"
 viewBox="0.00 0.00 580.00 289.00" xmlns="http://www.w3.org/2000/svg" xmlns:xlink="http://www.w3.org/1999/xlink">
<g id="graph0" class="graph" transform="scale(1 1) rotate(0) translate(4 284.5)">
<polygon fill="white" stroke="none" points="-4,4 -4,-284.5 575.62,-284.5 575.62,4 -4,4"/>
<text xml:space="preserve" text-anchor="middle" x="285.81" y="-7.2" font-family="Times,serif" font-size="14.00">MaxHeap [0, 1, 3, 4, 13, 17, 27, 9, 10, 12, 5, 16, 7, 8], heapsize: 14</text>
<!-- 4534527584 -->
<g id="node1" class="node">
<title>4534527584</title>
<path fill="lightgray" stroke="lightgray" d="M291,-244C291,-244 329.25,-244 329.25,-244 335.25,-244 341.25,-250 341.25,-256 341.25,-256 341.25,-268 341.25,-268 341.25,-274 335.25,-280 329.25,-280 329.25,-280 291,-280 291,-280 285,-280 279,-274 279,-268 279,-268 279,-256 279,-256 279,-250 285,-244 291,-244"/>
<text xml:space="preserve" text-anchor="middle" x="288.88" y="-256.95" font-family="Times,serif" font-size="14.00"> </text>
<polyline fill="none" stroke="lightgray" points="298.75,-244 298.75,-280"/>
<text xml:space="preserve" text-anchor="middle" x="310.12" y="-256.95" font-family="Times,serif" font-size="14.00">0</text>
<polyline fill="none" stroke="lightgray" points="321.5,-244 321.5,-280"/>
<text xml:space="preserve" text-anchor="middle" x="331.38" y="-256.95" font-family="Times,serif" font-size="14.00"> </text>
</g>
<!-- 4534519184 -->
<g id="node2" class="node">
<title>4534519184</title>
<path fill="lightgray" stroke="lightgray" d="M204,-171C204,-171 242.25,-171 242.25,-171 248.25,-171 254.25,-177 254.25,-183 254.25,-183 254.25,-195 254.25,-195 254.25,-201 248.25,-207 242.25,-207 242.25,-207 204,-207 204,-207 198,-207 192,-201 192,-195 192,-195 192,-183 192,-183 192,-177 198,-171 204,-171"/>
<text xml:space="preserve" text-anchor="middle" x="201.88" y="-183.95" font-family="Times,serif" font-size="14.00"> </text>
<polyline fill="none" stroke="lightgray" points="211.75,-171 211.75,-207"/>
<text xml:space="preserve" text-anchor="middle" x="223.12" y="-183.95" font-family="Times,serif" font-size="14.00">1</text>
<polyline fill="none" stroke="lightgray" points="234.5,-171 234.5,-207"/>
<text xml:space="preserve" text-anchor="middle" x="244.38" y="-183.95" font-family="Times,serif" font-size="14.00"> </text>
</g>
<!-- 4534527584&#45;&gt;4534519184 -->
<g id="edge1" class="edge">
<title>4534527584:l&#45;&gt;4534519184:v</title>
<path fill="none" stroke="black" d="M288.88,-243.5C288.88,-214.87 240.32,-233.47 226.66,-218.12"/>
<polygon fill="black" stroke="black" points="230.08,-217.32 223.6,-208.94 223.44,-219.53 230.08,-217.32"/>
</g>
<!-- 4534524336 -->
<g id="node3" class="node">
<title>4534524336</title>
<path fill="lightgray" stroke="lightgray" d="M414,-171C414,-171 452.25,-171 452.25,-171 458.25,-171 464.25,-177 464.25,-183 464.25,-183 464.25,-195 464.25,-195 464.25,-201 458.25,-207 452.25,-207 452.25,-207 414,-207 414,-207 408,-207 402,-201 402,-195 402,-195 402,-183 402,-183 402,-177 408,-171 414,-171"/>
<text xml:space="preserve" text-anchor="middle" x="411.88" y="-183.95" font-family="Times,serif" font-size="14.00"> </text>
<polyline fill="none" stroke="lightgray" points="421.75,-171 421.75,-207"/>
<text xml:space="preserve" text-anchor="middle" x="433.12" y="-183.95" font-family="Times,serif" font-size="14.00">3</text>
<polyline fill="none" stroke="lightgray" points="444.5,-171 444.5,-207"/>
<text xml:space="preserve" text-anchor="middle" x="454.38" y="-183.95" font-family="Times,serif" font-size="14.00"> </text>
</g>
<!-- 4534527584&#45;&gt;4534524336 -->
<g id="edge2" class="edge">
<title>4534527584:r&#45;&gt;4534524336:v</title>
<path fill="none" stroke="black" d="M331.38,-243.5C331.38,-200.22 414.22,-244.79 430.4,-218.67"/>
<polygon fill="black" stroke="black" points="433.8,-219.51 432.77,-208.97 427,-217.86 433.8,-219.51"/>
</g>
<!-- 4534528368 -->
<g id="node4" class="node">
<title>4534528368</title>
<path fill="lightgray" stroke="lightgray" d="M75,-98C75,-98 113.25,-98 113.25,-98 119.25,-98 125.25,-104 125.25,-110 125.25,-110 125.25,-122 125.25,-122 125.25,-128 119.25,-134 113.25,-134 113.25,-134 75,-134 75,-134 69,-134 63,-128 63,-122 63,-122 63,-110 63,-110 63,-104 69,-98 75,-98"/>
<text xml:space="preserve" text-anchor="middle" x="72.88" y="-110.95" font-family="Times,serif" font-size="14.00"> </text>
<polyline fill="none" stroke="lightgray" points="82.75,-98 82.75,-134"/>
<text xml:space="preserve" text-anchor="middle" x="94.12" y="-110.95" font-family="Times,serif" font-size="14.00">4</text>
<polyline fill="none" stroke="lightgray" points="105.5,-98 105.5,-134"/>
<text xml:space="preserve" text-anchor="middle" x="115.38" y="-110.95" font-family="Times,serif" font-size="14.00"> </text>
</g>
<!-- 4534519184&#45;&gt;4534528368 -->
<g id="edge3" class="edge">
<title>4534519184:l&#45;&gt;4534528368:v</title>
<path fill="none" stroke="black" d="M201.88,-170.5C201.88,-124.55 112.62,-174.25 96.58,-145.48"/>
<polygon fill="black" stroke="black" points="100.05,-144.97 94.46,-135.98 93.22,-146.5 100.05,-144.97"/>
</g>
<!-- 4534528480 -->
<g id="node5" class="node">
<title>4534528480</title>
<path fill="lightgray" stroke="green" d="M221.62,-98C221.62,-98 266.62,-98 266.62,-98 272.62,-98 278.62,-104 278.62,-110 278.62,-110 278.62,-122 278.62,-122 278.62,-128 272.62,-134 266.62,-134 266.62,-134 221.62,-134 221.62,-134 215.62,-134 209.62,-128 209.62,-122 209.62,-122 209.62,-110 209.62,-110 209.62,-104 215.62,-98 221.62,-98"/>
<text xml:space="preserve" text-anchor="middle" x="219.5" y="-110.95" font-family="Times,serif" font-size="14.00"> </text>
<polyline fill="none" stroke="green" points="229.38,-98 229.38,-134"/>
<text xml:space="preserve" text-anchor="middle" x="244.12" y="-110.95" font-family="Times,serif" font-size="14.00">13</text>
<polyline fill="none" stroke="green" points="258.88,-98 258.88,-134"/>
<text xml:space="preserve" text-anchor="middle" x="268.75" y="-110.95" font-family="Times,serif" font-size="14.00"> </text>
</g>
<!-- 4534519184&#45;&gt;4534528480 -->
<g id="edge4" class="edge">
<title>4534519184:r&#45;&gt;4534528480:v</title>
<path fill="none" stroke="black" d="M244.38,-170.5C244.38,-159.12 244.25,-153.82 244.18,-145.95"/>
<polygon fill="black" stroke="black" points="247.68,-146 244.13,-136.01 240.68,-146.03 247.68,-146"/>
</g>
<!-- 4534528592 -->
<g id="node6" class="node">
<title>4534528592</title>
<path fill="lightgray" stroke="lightgray" d="M389.62,-98C389.62,-98 434.62,-98 434.62,-98 440.62,-98 446.62,-104 446.62,-110 446.62,-110 446.62,-122 446.62,-122 446.62,-128 440.62,-134 434.62,-134 434.62,-134 389.62,-134 389.62,-134 383.62,-134 377.62,-128 377.62,-122 377.62,-122 377.62,-110 377.62,-110 377.62,-104 383.62,-98 389.62,-98"/>
<text xml:space="preserve" text-anchor="middle" x="387.5" y="-110.95" font-family="Times,serif" font-size="14.00"> </text>
<polyline fill="none" stroke="lightgray" points="397.38,-98 397.38,-134"/>
<text xml:space="preserve" text-anchor="middle" x="412.12" y="-110.95" font-family="Times,serif" font-size="14.00">17</text>
<polyline fill="none" stroke="lightgray" points="426.88,-98 426.88,-134"/>
<text xml:space="preserve" text-anchor="middle" x="436.75" y="-110.95" font-family="Times,serif" font-size="14.00"> </text>
</g>
<!-- 4534524336&#45;&gt;4534528592 -->
<g id="edge5" class="edge">
<title>4534524336:l&#45;&gt;4534528592:v</title>
<path fill="none" stroke="black" d="M411.88,-170.5C411.88,-159.12 412,-153.82 412.07,-145.95"/>
<polygon fill="black" stroke="black" points="415.57,-146.03 412.12,-136.01 408.57,-146 415.57,-146.03"/>
</g>
<!-- 4534528704 -->
<g id="node7" class="node">
<title>4534528704</title>
<path fill="lightgray" stroke="lightgray" d="M514.62,-98C514.62,-98 559.62,-98 559.62,-98 565.62,-98 571.62,-104 571.62,-110 571.62,-110 571.62,-122 571.62,-122 571.62,-128 565.62,-134 559.62,-134 559.62,-134 514.62,-134 514.62,-134 508.62,-134 502.62,-128 502.62,-122 502.62,-122 502.62,-110 502.62,-110 502.62,-104 508.62,-98 514.62,-98"/>
<text xml:space="preserve" text-anchor="middle" x="512.5" y="-110.95" font-family="Times,serif" font-size="14.00"> </text>
<polyline fill="none" stroke="lightgray" points="522.38,-98 522.38,-134"/>
<text xml:space="preserve" text-anchor="middle" x="537.12" y="-110.95" font-family="Times,serif" font-size="14.00">27</text>
<polyline fill="none" stroke="lightgray" points="551.88,-98 551.88,-134"/>
<text xml:space="preserve" text-anchor="middle" x="561.75" y="-110.95" font-family="Times,serif" font-size="14.00"> </text>
</g>
<!-- 4534524336&#45;&gt;4534528704 -->
<g id="edge6" class="edge">
<title>4534524336:r&#45;&gt;4534528704:v</title>
<path fill="none" stroke="black" d="M454.38,-170.5C454.38,-135.09 518.87,-165.4 533.98,-145.4"/>
<polygon fill="black" stroke="black" points="537.3,-146.53 536.71,-135.95 530.57,-144.59 537.3,-146.53"/>
</g>
<!-- 4534528816 -->
<g id="node8" class="node">
<title>4534528816</title>
<path fill="lightgray" stroke="lightgray" d="M12,-25C12,-25 50.25,-25 50.25,-25 56.25,-25 62.25,-31 62.25,-37 62.25,-37 62.25,-49 62.25,-49 62.25,-55 56.25,-61 50.25,-61 50.25,-61 12,-61 12,-61 6,-61 0,-55 0,-49 0,-49 0,-37 0,-37 0,-31 6,-25 12,-25"/>
<text xml:space="preserve" text-anchor="middle" x="9.88" y="-37.95" font-family="Times,serif" font-size="14.00"> </text>
<polyline fill="none" stroke="lightgray" points="19.75,-25 19.75,-61"/>
<text xml:space="preserve" text-anchor="middle" x="31.12" y="-37.95" font-family="Times,serif" font-size="14.00">9</text>
<polyline fill="none" stroke="lightgray" points="42.5,-25 42.5,-61"/>
<text xml:space="preserve" text-anchor="middle" x="52.38" y="-37.95" font-family="Times,serif" font-size="14.00"> </text>
</g>
<!-- 4534528368&#45;&gt;4534528816 -->
<g id="edge7" class="edge">
<title>4534528368:l&#45;&gt;4534528816:v</title>
<path fill="none" stroke="black" d="M72.88,-97.5C72.88,-77.78 45.84,-82.35 35.28,-72.12"/>
<polygon fill="black" stroke="black" points="38.58,-70.95 31.68,-62.91 32.06,-73.5 38.58,-70.95"/>
</g>
<!-- 4534528928 -->
<g id="node9" class="node">
<title>4534528928</title>
<path fill="lightgray" stroke="lightgray" d="M92.62,-25C92.62,-25 137.62,-25 137.62,-25 143.62,-25 149.62,-31 149.62,-37 149.62,-37 149.62,-49 149.62,-49 149.62,-55 143.62,-61 137.62,-61 137.62,-61 92.62,-61 92.62,-61 86.62,-61 80.62,-55 80.62,-49 80.62,-49 80.62,-37 80.62,-37 80.62,-31 86.62,-25 92.62,-25"/>
<text xml:space="preserve" text-anchor="middle" x="90.5" y="-37.95" font-family="Times,serif" font-size="14.00"> </text>
<polyline fill="none" stroke="lightgray" points="100.38,-25 100.38,-61"/>
<text xml:space="preserve" text-anchor="middle" x="115.12" y="-37.95" font-family="Times,serif" font-size="14.00">10</text>
<polyline fill="none" stroke="lightgray" points="129.88,-25 129.88,-61"/>
<text xml:space="preserve" text-anchor="middle" x="139.75" y="-37.95" font-family="Times,serif" font-size="14.00"> </text>
</g>
<!-- 4534528368&#45;&gt;4534528928 -->
<g id="edge8" class="edge">
<title>4534528368:r&#45;&gt;4534528928:v</title>
<path fill="none" stroke="black" d="M115.38,-97.5C115.38,-86.12 115.25,-80.82 115.18,-72.95"/>
<polygon fill="black" stroke="black" points="118.68,-73 115.13,-63.01 111.68,-73.03 118.68,-73"/>
</g>
<!-- 4534529040 -->
<g id="node10" class="node">
<title>4534529040</title>
<path fill="lightgray" stroke="lightgray" d="M179.62,-25C179.62,-25 224.62,-25 224.62,-25 230.62,-25 236.62,-31 236.62,-37 236.62,-37 236.62,-49 236.62,-49 236.62,-55 230.62,-61 224.62,-61 224.62,-61 179.62,-61 179.62,-61 173.62,-61 167.62,-55 167.62,-49 167.62,-49 167.62,-37 167.62,-37 167.62,-31 173.62,-25 179.62,-25"/>
<text xml:space="preserve" text-anchor="middle" x="177.5" y="-37.95" font-family="Times,serif" font-size="14.00"> </text>
<polyline fill="none" stroke="lightgray" points="187.38,-25 187.38,-61"/>
<text xml:space="preserve" text-anchor="middle" x="202.12" y="-37.95" font-family="Times,serif" font-size="14.00">12</text>
<polyline fill="none" stroke="lightgray" points="216.88,-25 216.88,-61"/>
<text xml:space="preserve" text-anchor="middle" x="226.75" y="-37.95" font-family="Times,serif" font-size="14.00"> </text>
</g>
<!-- 4534528480&#45;&gt;4534529040 -->
<g id="edge9" class="edge">
<title>4534528480:l&#45;&gt;4534529040:v</title>
<path fill="none" stroke="black" d="M219.5,-97.5C219.5,-84.31 209.93,-80.66 204.99,-72.38"/>
<polygon fill="black" stroke="black" points="208.44,-71.74 202.51,-62.96 201.68,-73.53 208.44,-71.74"/>
</g>
<!-- 4534529152 -->
<g id="node11" class="node">
<title>4534529152</title>
<path fill="lightgray" stroke="green" d="M267,-25C267,-25 305.25,-25 305.25,-25 311.25,-25 317.25,-31 317.25,-37 317.25,-37 317.25,-49 317.25,-49 317.25,-55 311.25,-61 305.25,-61 305.25,-61 267,-61 267,-61 261,-61 255,-55 255,-49 255,-49 255,-37 255,-37 255,-31 261,-25 267,-25"/>
<text xml:space="preserve" text-anchor="middle" x="264.88" y="-37.95" font-family="Times,serif" font-size="14.00"> </text>
<polyline fill="none" stroke="green" points="274.75,-25 274.75,-61"/>
<text xml:space="preserve" text-anchor="middle" x="286.12" y="-37.95" font-family="Times,serif" font-size="14.00">5</text>
<polyline fill="none" stroke="green" points="297.5,-25 297.5,-61"/>
<text xml:space="preserve" text-anchor="middle" x="307.38" y="-37.95" font-family="Times,serif" font-size="14.00"> </text>
</g>
<!-- 4534528480&#45;&gt;4534529152 -->
<g id="edge10" class="edge">
<title>4534528480:r&#45;&gt;4534529152:v</title>
<path fill="none" stroke="black" d="M268.75,-97.5C268.75,-84.31 278.32,-80.66 283.26,-72.38"/>
<polygon fill="black" stroke="black" points="286.57,-73.53 285.74,-62.96 279.81,-71.74 286.57,-73.53"/>
</g>
<!-- 4534529264 -->
<g id="node12" class="node">
<title>4534529264</title>
<path fill="lightgray" stroke="lightgray" d="M347.62,-25C347.62,-25 392.62,-25 392.62,-25 398.62,-25 404.62,-31 404.62,-37 404.62,-37 404.62,-49 404.62,-49 404.62,-55 398.62,-61 392.62,-61 392.62,-61 347.62,-61 347.62,-61 341.62,-61 335.62,-55 335.62,-49 335.62,-49 335.62,-37 335.62,-37 335.62,-31 341.62,-25 347.62,-25"/>
<text xml:space="preserve" text-anchor="middle" x="345.5" y="-37.95" font-family="Times,serif" font-size="14.00"> </text>
<polyline fill="none" stroke="lightgray" points="355.38,-25 355.38,-61"/>
<text xml:space="preserve" text-anchor="middle" x="370.12" y="-37.95" font-family="Times,serif" font-size="14.00">16</text>
<polyline fill="none" stroke="lightgray" points="384.88,-25 384.88,-61"/>
<text xml:space="preserve" text-anchor="middle" x="394.75" y="-37.95" font-family="Times,serif" font-size="14.00"> </text>
</g>
<!-- 4534528592&#45;&gt;4534529264 -->
<g id="edge11" class="edge">
<title>4534528592:l&#45;&gt;4534529264:v</title>
<path fill="none" stroke="black" d="M387.5,-97.5C387.5,-84.31 377.93,-80.66 372.99,-72.38"/>
<polygon fill="black" stroke="black" points="376.44,-71.74 370.51,-62.96 369.68,-73.53 376.44,-71.74"/>
</g>
<!-- 4534529376 -->
<g id="node13" class="node">
<title>4534529376</title>
<path fill="lightgray" stroke="lightgray" d="M435,-25C435,-25 473.25,-25 473.25,-25 479.25,-25 485.25,-31 485.25,-37 485.25,-37 485.25,-49 485.25,-49 485.25,-55 479.25,-61 473.25,-61 473.25,-61 435,-61 435,-61 429,-61 423,-55 423,-49 423,-49 423,-37 423,-37 423,-31 429,-25 435,-25"/>
<text xml:space="preserve" text-anchor="middle" x="432.88" y="-37.95" font-family="Times,serif" font-size="14.00"> </text>
<polyline fill="none" stroke="lightgray" points="442.75,-25 442.75,-61"/>
<text xml:space="preserve" text-anchor="middle" x="454.12" y="-37.95" font-family="Times,serif" font-size="14.00">7</text>
<polyline fill="none" stroke="lightgray" points="465.5,-25 465.5,-61"/>
<text xml:space="preserve" text-anchor="middle" x="475.38" y="-37.95" font-family="Times,serif" font-size="14.00"> </text>
</g>
<!-- 4534528592&#45;&gt;4534529376 -->
<g id="edge12" class="edge">
<title>4534528592:r&#45;&gt;4534529376:v</title>
<path fill="none" stroke="black" d="M436.75,-97.5C436.75,-84.31 446.32,-80.66 451.26,-72.38"/>
<polygon fill="black" stroke="black" points="454.57,-73.53 453.74,-62.96 447.81,-71.74 454.57,-73.53"/>
</g>
<!-- 4534529488 -->
<g id="node14" class="node">
<title>4534529488</title>
<path fill="lightgray" stroke="lightgray" d="M515,-25C515,-25 553.25,-25 553.25,-25 559.25,-25 565.25,-31 565.25,-37 565.25,-37 565.25,-49 565.25,-49 565.25,-55 559.25,-61 553.25,-61 553.25,-61 515,-61 515,-61 509,-61 503,-55 503,-49 503,-49 503,-37 503,-37 503,-31 509,-25 515,-25"/>
<text xml:space="preserve" text-anchor="middle" x="512.88" y="-37.95" font-family="Times,serif" font-size="14.00"> </text>
<polyline fill="none" stroke="lightgray" points="522.75,-25 522.75,-61"/>
<text xml:space="preserve" text-anchor="middle" x="534.12" y="-37.95" font-family="Times,serif" font-size="14.00">8</text>
<polyline fill="none" stroke="lightgray" points="545.5,-25 545.5,-61"/>
<text xml:space="preserve" text-anchor="middle" x="555.38" y="-37.95" font-family="Times,serif" font-size="14.00"> </text>
</g>
<!-- 4534528704&#45;&gt;4534529488 -->
<g id="edge13" class="edge">
<title>4534528704:l&#45;&gt;4534529488:v</title>
<path fill="none" stroke="black" d="M512.5,-97.5C512.5,-83.5 524.66,-80.75 530.75,-72.37"/>
<polygon fill="black" stroke="black" points="534.05,-73.53 533.68,-62.95 527.37,-71.46 534.05,-73.53"/>
</g>
</g>
</svg>
