<?xml version="1.0" encoding="UTF-8" standalone="no"?>
<!DOCTYPE svg PUBLIC "-//W3C//DTD SVG 1.1//EN"
 "http://www.w3.org/Graphics/SVG/1.1/DTD/svg11.dtd">
<!-- Generated by graphviz version 14.0.0 (20250921.2048)
 -->
<!-- Pages: 1 -->
<svg width="580pt" height="289pt"
 viewBox="0.00 0.00 580.00 289.00" xmlns="http://www.w3.org/2000/svg" xmlns:xlink="http://www.w3.org/1999/xlink">
<g id="graph0" class="graph" transform="scale(1 1) rotate(0) translate(4 284.5)">
<polygon fill="white" stroke="none" points="-4,4 -4,-284.5 575.62,-284.5 575.62,4 -4,4"/>
<text xml:space="preserve" text-anchor="middle" x="285.81" y="-7.2" font-family="Times,serif" font-size="14.00">MaxHeap [0, 1, 3, 4, 13, 17, 27, 9, 10, 12, 5, 16, 7, 8], heapsize: 14</text>
<!-- 4472371728 -->
<g id="node1" class="node">
<title>4472371728</title>
<path fill="lightgray" stroke="lightgray" d="M309,-244C309,-244 347.25,-244 347.25,-244 353.25,-244 359.25,-250 359.25,-256 359.25,-256 359.25,-268 359.25,-268 359.25,-274 353.25,-280 347.25,-280 347.25,-280 309,-280 309,-280 303,-280 297,-274 297,-268 297,-268 297,-256 297,-256 297,-250 303,-244 309,-244"/>
<text xml:space="preserve" text-anchor="middle" x="306.88" y="-256.95" font-family="Times,serif" font-size="14.00"> </text>
<polyline fill="none" stroke="lightgray" points="316.75,-244 316.75,-280"/>
<text xml:space="preserve" text-anchor="middle" x="328.12" y="-256.95" font-family="Times,serif" font-size="14.00">0</text>
<polyline fill="none" stroke="lightgray" points="339.5,-244 339.5,-280"/>
<text xml:space="preserve" text-anchor="middle" x="349.38" y="-256.95" font-family="Times,serif" font-size="14.00"> </text>
</g>
<!-- 4495592368 -->
<g id="node2" class="node">
<title>4495592368</title>
<path fill="lightgray" stroke="lightgray" d="M222,-171C222,-171 260.25,-171 260.25,-171 266.25,-171 272.25,-177 272.25,-183 272.25,-183 272.25,-195 272.25,-195 272.25,-201 266.25,-207 260.25,-207 260.25,-207 222,-207 222,-207 216,-207 210,-201 210,-195 210,-195 210,-183 210,-183 210,-177 216,-171 222,-171"/>
<text xml:space="preserve" text-anchor="middle" x="219.88" y="-183.95" font-family="Times,serif" font-size="14.00"> </text>
<polyline fill="none" stroke="lightgray" points="229.75,-171 229.75,-207"/>
<text xml:space="preserve" text-anchor="middle" x="241.12" y="-183.95" font-family="Times,serif" font-size="14.00">1</text>
<polyline fill="none" stroke="lightgray" points="252.5,-171 252.5,-207"/>
<text xml:space="preserve" text-anchor="middle" x="262.38" y="-183.95" font-family="Times,serif" font-size="14.00"> </text>
</g>
<!-- 4472371728&#45;&gt;4495592368 -->
<g id="edge1" class="edge">
<title>4472371728:l&#45;&gt;4495592368:v</title>
<path fill="none" stroke="black" d="M306.88,-243.5C306.88,-214.87 258.32,-233.47 244.66,-218.12"/>
<polygon fill="black" stroke="black" points="248.08,-217.32 241.6,-208.94 241.44,-219.53 248.08,-217.32"/>
</g>
<!-- 4495592704 -->
<g id="node3" class="node">
<title>4495592704</title>
<path fill="lightgray" stroke="lightgray" d="M414,-171C414,-171 452.25,-171 452.25,-171 458.25,-171 464.25,-177 464.25,-183 464.25,-183 464.25,-195 464.25,-195 464.25,-201 458.25,-207 452.25,-207 452.25,-207 414,-207 414,-207 408,-207 402,-201 402,-195 402,-195 402,-183 402,-183 402,-177 408,-171 414,-171"/>
<text xml:space="preserve" text-anchor="middle" x="411.88" y="-183.95" font-family="Times,serif" font-size="14.00"> </text>
<polyline fill="none" stroke="lightgray" points="421.75,-171 421.75,-207"/>
<text xml:space="preserve" text-anchor="middle" x="433.12" y="-183.95" font-family="Times,serif" font-size="14.00">3</text>
<polyline fill="none" stroke="lightgray" points="444.5,-171 444.5,-207"/>
<text xml:space="preserve" text-anchor="middle" x="454.38" y="-183.95" font-family="Times,serif" font-size="14.00"> </text>
</g>
<!-- 4472371728&#45;&gt;4495592704 -->
<g id="edge2" class="edge">
<title>4472371728:r&#45;&gt;4495592704:v</title>
<path fill="none" stroke="black" d="M349.38,-243.5C349.38,-207.73 414.65,-238.64 429.94,-218.49"/>
<polygon fill="black" stroke="black" points="433.29,-219.53 432.7,-208.95 426.56,-217.59 433.29,-219.53"/>
</g>
<!-- 4495594384 -->
<g id="node4" class="node">
<title>4495594384</title>
<path fill="lightgray" stroke="lightgray" d="M75,-98C75,-98 113.25,-98 113.25,-98 119.25,-98 125.25,-104 125.25,-110 125.25,-110 125.25,-122 125.25,-122 125.25,-128 119.25,-134 113.25,-134 113.25,-134 75,-134 75,-134 69,-134 63,-128 63,-122 63,-122 63,-110 63,-110 63,-104 69,-98 75,-98"/>
<text xml:space="preserve" text-anchor="middle" x="72.88" y="-110.95" font-family="Times,serif" font-size="14.00"> </text>
<polyline fill="none" stroke="lightgray" points="82.75,-98 82.75,-134"/>
<text xml:space="preserve" text-anchor="middle" x="94.12" y="-110.95" font-family="Times,serif" font-size="14.00">4</text>
<polyline fill="none" stroke="lightgray" points="105.5,-98 105.5,-134"/>
<text xml:space="preserve" text-anchor="middle" x="115.38" y="-110.95" font-family="Times,serif" font-size="14.00"> </text>
</g>
<!-- 4495592368&#45;&gt;4495594384 -->
<g id="edge3" class="edge">
<title>4495592368:l&#45;&gt;4495594384:v</title>
<path fill="none" stroke="black" d="M209,-189C184.39,-189 115.49,-169.09 98.13,-145.27"/>
<polygon fill="black" stroke="black" points="101.42,-144.07 94.65,-135.92 94.86,-146.51 101.42,-144.07"/>
</g>
<!-- 4495593152 -->
<g id="node5" class="node">
<title>4495593152</title>
<path fill="lightgray" stroke="green" d="M239.62,-98C239.62,-98 284.62,-98 284.62,-98 290.62,-98 296.62,-104 296.62,-110 296.62,-110 296.62,-122 296.62,-122 296.62,-128 290.62,-134 284.62,-134 284.62,-134 239.62,-134 239.62,-134 233.62,-134 227.62,-128 227.62,-122 227.62,-122 227.62,-110 227.62,-110 227.62,-104 233.62,-98 239.62,-98"/>
<text xml:space="preserve" text-anchor="middle" x="237.5" y="-110.95" font-family="Times,serif" font-size="14.00"> </text>
<polyline fill="none" stroke="green" points="247.38,-98 247.38,-134"/>
<text xml:space="preserve" text-anchor="middle" x="262.12" y="-110.95" font-family="Times,serif" font-size="14.00">13</text>
<polyline fill="none" stroke="green" points="276.88,-98 276.88,-134"/>
<text xml:space="preserve" text-anchor="middle" x="286.75" y="-110.95" font-family="Times,serif" font-size="14.00"> </text>
</g>
<!-- 4495592368&#45;&gt;4495593152 -->
<g id="edge4" class="edge">
<title>4495592368:r&#45;&gt;4495593152:v</title>
<path fill="none" stroke="black" d="M262.38,-170.5C262.38,-159.12 262.25,-153.82 262.18,-145.95"/>
<polygon fill="black" stroke="black" points="265.68,-146 262.13,-136.01 258.68,-146.03 265.68,-146"/>
</g>
<!-- 4495600432 -->
<g id="node6" class="node">
<title>4495600432</title>
<path fill="lightgray" stroke="lightgray" d="M389.62,-98C389.62,-98 434.62,-98 434.62,-98 440.62,-98 446.62,-104 446.62,-110 446.62,-110 446.62,-122 446.62,-122 446.62,-128 440.62,-134 434.62,-134 434.62,-134 389.62,-134 389.62,-134 383.62,-134 377.62,-128 377.62,-122 377.62,-122 377.62,-110 377.62,-110 377.62,-104 383.62,-98 389.62,-98"/>
<text xml:space="preserve" text-anchor="middle" x="387.5" y="-110.95" font-family="Times,serif" font-size="14.00"> </text>
<polyline fill="none" stroke="lightgray" points="397.38,-98 397.38,-134"/>
<text xml:space="preserve" text-anchor="middle" x="412.12" y="-110.95" font-family="Times,serif" font-size="14.00">17</text>
<polyline fill="none" stroke="lightgray" points="426.88,-98 426.88,-134"/>
<text xml:space="preserve" text-anchor="middle" x="436.75" y="-110.95" font-family="Times,serif" font-size="14.00"> </text>
</g>
<!-- 4495592704&#45;&gt;4495600432 -->
<g id="edge5" class="edge">
<title>4495592704:l&#45;&gt;4495600432:v</title>
<path fill="none" stroke="black" d="M411.88,-170.5C411.88,-159.12 412,-153.82 412.07,-145.95"/>
<polygon fill="black" stroke="black" points="415.57,-146.03 412.12,-136.01 408.57,-146 415.57,-146.03"/>
</g>
<!-- 4495597184 -->
<g id="node7" class="node">
<title>4495597184</title>
<path fill="lightgray" stroke="lightgray" d="M514.62,-98C514.62,-98 559.62,-98 559.62,-98 565.62,-98 571.62,-104 571.62,-110 571.62,-110 571.62,-122 571.62,-122 571.62,-128 565.62,-134 559.62,-134 559.62,-134 514.62,-134 514.62,-134 508.62,-134 502.62,-128 502.62,-122 502.62,-122 502.62,-110 502.62,-110 502.62,-104 508.62,-98 514.62,-98"/>
<text xml:space="preserve" text-anchor="middle" x="512.5" y="-110.95" font-family="Times,serif" font-size="14.00"> </text>
<polyline fill="none" stroke="lightgray" points="522.38,-98 522.38,-134"/>
<text xml:space="preserve" text-anchor="middle" x="537.12" y="-110.95" font-family="Times,serif" font-size="14.00">27</text>
<polyline fill="none" stroke="lightgray" points="551.88,-98 551.88,-134"/>
<text xml:space="preserve" text-anchor="middle" x="561.75" y="-110.95" font-family="Times,serif" font-size="14.00"> </text>
</g>
<!-- 4495592704&#45;&gt;4495597184 -->
<g id="edge6" class="edge">
<title>4495592704:r&#45;&gt;4495597184:v</title>
<path fill="none" stroke="black" d="M454.38,-170.5C454.38,-135.09 518.87,-165.4 533.98,-145.4"/>
<polygon fill="black" stroke="black" points="537.3,-146.53 536.71,-135.95 530.57,-144.59 537.3,-146.53"/>
</g>
<!-- 4495592928 -->
<g id="node8" class="node">
<title>4495592928</title>
<path fill="lightgray" stroke="lightgray" d="M12,-25C12,-25 50.25,-25 50.25,-25 56.25,-25 62.25,-31 62.25,-37 62.25,-37 62.25,-49 62.25,-49 62.25,-55 56.25,-61 50.25,-61 50.25,-61 12,-61 12,-61 6,-61 0,-55 0,-49 0,-49 0,-37 0,-37 0,-31 6,-25 12,-25"/>
<text xml:space="preserve" text-anchor="middle" x="9.88" y="-37.95" font-family="Times,serif" font-size="14.00"> </text>
<polyline fill="none" stroke="lightgray" points="19.75,-25 19.75,-61"/>
<text xml:space="preserve" text-anchor="middle" x="31.12" y="-37.95" font-family="Times,serif" font-size="14.00">9</text>
<polyline fill="none" stroke="lightgray" points="42.5,-25 42.5,-61"/>
<text xml:space="preserve" text-anchor="middle" x="52.38" y="-37.95" font-family="Times,serif" font-size="14.00"> </text>
</g>
<!-- 4495594384&#45;&gt;4495592928 -->
<g id="edge7" class="edge">
<title>4495594384:l&#45;&gt;4495592928:v</title>
<path fill="none" stroke="black" d="M72.88,-97.5C72.88,-77.78 45.84,-82.35 35.28,-72.12"/>
<polygon fill="black" stroke="black" points="38.58,-70.95 31.68,-62.91 32.06,-73.5 38.58,-70.95"/>
</g>
<!-- 4495598752 -->
<g id="node9" class="node">
<title>4495598752</title>
<path fill="lightgray" stroke="lightgray" d="M92.62,-25C92.62,-25 137.62,-25 137.62,-25 143.62,-25 149.62,-31 149.62,-37 149.62,-37 149.62,-49 149.62,-49 149.62,-55 143.62,-61 137.62,-61 137.62,-61 92.62,-61 92.62,-61 86.62,-61 80.62,-55 80.62,-49 80.62,-49 80.62,-37 80.62,-37 80.62,-31 86.62,-25 92.62,-25"/>
<text xml:space="preserve" text-anchor="middle" x="90.5" y="-37.95" font-family="Times,serif" font-size="14.00"> </text>
<polyline fill="none" stroke="lightgray" points="100.38,-25 100.38,-61"/>
<text xml:space="preserve" text-anchor="middle" x="115.12" y="-37.95" font-family="Times,serif" font-size="14.00">10</text>
<polyline fill="none" stroke="lightgray" points="129.88,-25 129.88,-61"/>
<text xml:space="preserve" text-anchor="middle" x="139.75" y="-37.95" font-family="Times,serif" font-size="14.00"> </text>
</g>
<!-- 4495594384&#45;&gt;4495598752 -->
<g id="edge8" class="edge">
<title>4495594384:r&#45;&gt;4495598752:v</title>
<path fill="none" stroke="black" d="M115.38,-97.5C115.38,-86.12 115.25,-80.82 115.18,-72.95"/>
<polygon fill="black" stroke="black" points="118.68,-73 115.13,-63.01 111.68,-73.03 118.68,-73"/>
</g>
<!-- 4495600320 -->
<g id="node10" class="node">
<title>4495600320</title>
<path fill="lightgray" stroke="lightgray" d="M179.62,-25C179.62,-25 224.62,-25 224.62,-25 230.62,-25 236.62,-31 236.62,-37 236.62,-37 236.62,-49 236.62,-49 236.62,-55 230.62,-61 224.62,-61 224.62,-61 179.62,-61 179.62,-61 173.62,-61 167.62,-55 167.62,-49 167.62,-49 167.62,-37 167.62,-37 167.62,-31 173.62,-25 179.62,-25"/>
<text xml:space="preserve" text-anchor="middle" x="177.5" y="-37.95" font-family="Times,serif" font-size="14.00"> </text>
<polyline fill="none" stroke="lightgray" points="187.38,-25 187.38,-61"/>
<text xml:space="preserve" text-anchor="middle" x="202.12" y="-37.95" font-family="Times,serif" font-size="14.00">12</text>
<polyline fill="none" stroke="lightgray" points="216.88,-25 216.88,-61"/>
<text xml:space="preserve" text-anchor="middle" x="226.75" y="-37.95" font-family="Times,serif" font-size="14.00"> </text>
</g>
<!-- 4495593152&#45;&gt;4495600320 -->
<g id="edge9" class="edge">
<title>4495593152:l&#45;&gt;4495600320:v</title>
<path fill="none" stroke="black" d="M237.5,-97.5C237.5,-79.8 215.47,-81.58 206.18,-72.11"/>
<polygon fill="black" stroke="black" points="209.51,-71 202.67,-62.91 202.97,-73.5 209.51,-71"/>
</g>
<!-- 4495598080 -->
<g id="node11" class="node">
<title>4495598080</title>
<path fill="lightgray" stroke="green" d="M267,-25C267,-25 305.25,-25 305.25,-25 311.25,-25 317.25,-31 317.25,-37 317.25,-37 317.25,-49 317.25,-49 317.25,-55 311.25,-61 305.25,-61 305.25,-61 267,-61 267,-61 261,-61 255,-55 255,-49 255,-49 255,-37 255,-37 255,-31 261,-25 267,-25"/>
<text xml:space="preserve" text-anchor="middle" x="264.88" y="-37.95" font-family="Times,serif" font-size="14.00"> </text>
<polyline fill="none" stroke="green" points="274.75,-25 274.75,-61"/>
<text xml:space="preserve" text-anchor="middle" x="286.12" y="-37.95" font-family="Times,serif" font-size="14.00">5</text>
<polyline fill="none" stroke="green" points="297.5,-25 297.5,-61"/>
<text xml:space="preserve" text-anchor="middle" x="307.38" y="-37.95" font-family="Times,serif" font-size="14.00"> </text>
</g>
<!-- 4495593152&#45;&gt;4495598080 -->
<g id="edge10" class="edge">
<title>4495593152:r&#45;&gt;4495598080:v</title>
<path fill="none" stroke="black" d="M286.75,-97.5C286.75,-86.12 286.43,-80.82 286.25,-72.95"/>
<polygon fill="black" stroke="black" points="289.75,-72.97 286.14,-63.01 282.75,-73.05 289.75,-72.97"/>
</g>
<!-- 4495595504 -->
<g id="node12" class="node">
<title>4495595504</title>
<path fill="lightgray" stroke="lightgray" d="M347.62,-25C347.62,-25 392.62,-25 392.62,-25 398.62,-25 404.62,-31 404.62,-37 404.62,-37 404.62,-49 404.62,-49 404.62,-55 398.62,-61 392.62,-61 392.62,-61 347.62,-61 347.62,-61 341.62,-61 335.62,-55 335.62,-49 335.62,-49 335.62,-37 335.62,-37 335.62,-31 341.62,-25 347.62,-25"/>
<text xml:space="preserve" text-anchor="middle" x="345.5" y="-37.95" font-family="Times,serif" font-size="14.00"> </text>
<polyline fill="none" stroke="lightgray" points="355.38,-25 355.38,-61"/>
<text xml:space="preserve" text-anchor="middle" x="370.12" y="-37.95" font-family="Times,serif" font-size="14.00">16</text>
<polyline fill="none" stroke="lightgray" points="384.88,-25 384.88,-61"/>
<text xml:space="preserve" text-anchor="middle" x="394.75" y="-37.95" font-family="Times,serif" font-size="14.00"> </text>
</g>
<!-- 4495600432&#45;&gt;4495595504 -->
<g id="edge11" class="edge">
<title>4495600432:l&#45;&gt;4495595504:v</title>
<path fill="none" stroke="black" d="M387.5,-97.5C387.5,-84.31 377.93,-80.66 372.99,-72.38"/>
<polygon fill="black" stroke="black" points="376.44,-71.74 370.51,-62.96 369.68,-73.53 376.44,-71.74"/>
</g>
<!-- 4495596624 -->
<g id="node13" class="node">
<title>4495596624</title>
<path fill="lightgray" stroke="lightgray" d="M435,-25C435,-25 473.25,-25 473.25,-25 479.25,-25 485.25,-31 485.25,-37 485.25,-37 485.25,-49 485.25,-49 485.25,-55 479.25,-61 473.25,-61 473.25,-61 435,-61 435,-61 429,-61 423,-55 423,-49 423,-49 423,-37 423,-37 423,-31 429,-25 435,-25"/>
<text xml:space="preserve" text-anchor="middle" x="432.88" y="-37.95" font-family="Times,serif" font-size="14.00"> </text>
<polyline fill="none" stroke="lightgray" points="442.75,-25 442.75,-61"/>
<text xml:space="preserve" text-anchor="middle" x="454.12" y="-37.95" font-family="Times,serif" font-size="14.00">7</text>
<polyline fill="none" stroke="lightgray" points="465.5,-25 465.5,-61"/>
<text xml:space="preserve" text-anchor="middle" x="475.38" y="-37.95" font-family="Times,serif" font-size="14.00"> </text>
</g>
<!-- 4495600432&#45;&gt;4495596624 -->
<g id="edge12" class="edge">
<title>4495600432:r&#45;&gt;4495596624:v</title>
<path fill="none" stroke="black" d="M436.75,-97.5C436.75,-84.31 446.32,-80.66 451.26,-72.38"/>
<polygon fill="black" stroke="black" points="454.57,-73.53 453.74,-62.96 447.81,-71.74 454.57,-73.53"/>
</g>
<!-- 4495591472 -->
<g id="node14" class="node">
<title>4495591472</title>
<path fill="lightgray" stroke="lightgray" d="M515,-25C515,-25 553.25,-25 553.25,-25 559.25,-25 565.25,-31 565.25,-37 565.25,-37 565.25,-49 565.25,-49 565.25,-55 559.25,-61 553.25,-61 553.25,-61 515,-61 515,-61 509,-61 503,-55 503,-49 503,-49 503,-37 503,-37 503,-31 509,-25 515,-25"/>
<text xml:space="preserve" text-anchor="middle" x="512.88" y="-37.95" font-family="Times,serif" font-size="14.00"> </text>
<polyline fill="none" stroke="lightgray" points="522.75,-25 522.75,-61"/>
<text xml:space="preserve" text-anchor="middle" x="534.12" y="-37.95" font-family="Times,serif" font-size="14.00">8</text>
<polyline fill="none" stroke="lightgray" points="545.5,-25 545.5,-61"/>
<text xml:space="preserve" text-anchor="middle" x="555.38" y="-37.95" font-family="Times,serif" font-size="14.00"> </text>
</g>
<!-- 4495597184&#45;&gt;4495591472 -->
<g id="edge13" class="edge">
<title>4495597184:l&#45;&gt;4495591472:v</title>
<path fill="none" stroke="black" d="M512.5,-97.5C512.5,-83.5 524.66,-80.75 530.75,-72.37"/>
<polygon fill="black" stroke="black" points="534.05,-73.53 533.68,-62.95 527.37,-71.46 534.05,-73.53"/>
</g>
<!-- 4495598080&#45;&gt;4495593152 -->
<g id="edge14" class="edge">
<title>4495598080&#45;&gt;4495593152</title>
<path fill="none" stroke="green" d="M280.37,-61.03C277.72,-68.86 274.52,-78.34 271.53,-87.17"/>
<polygon fill="green" stroke="green" points="268.31,-85.78 268.42,-96.38 274.94,-88.03 268.31,-85.78"/>
</g>
</g>
</svg>
