<?xml version="1.0" encoding="UTF-8" standalone="no"?>
<!DOCTYPE svg PUBLIC "-//W3C//DTD SVG 1.1//EN"
 "http://www.w3.org/Graphics/SVG/1.1/DTD/svg11.dtd">
<!-- Generated by graphviz version 14.0.0 (20250921.2048)
 -->
<!-- Pages: 1 -->
<svg width="364pt" height="289pt"
 viewBox="0.00 0.00 364.00 289.00" xmlns="http://www.w3.org/2000/svg" xmlns:xlink="http://www.w3.org/1999/xlink">
<g id="graph0" class="graph" transform="scale(1 1) rotate(0) translate(4 284.5)">
<polygon fill="white" stroke="none" points="-4,4 -4,-284.5 360.25,-284.5 360.25,4 -4,4"/>
<text xml:space="preserve" text-anchor="middle" x="178.12" y="-7.2" font-family="Times,serif" font-size="14.00">MaxHeap [9, 22, 19, 10, 3, 17, 6, 5, 84], heapsize: 9</text>
<!-- 4512495920 -->
<g id="node1" class="node">
<title>4512495920</title>
<path fill="lightgray" stroke="green" d="M180,-244C180,-244 218.25,-244 218.25,-244 224.25,-244 230.25,-250 230.25,-256 230.25,-256 230.25,-268 230.25,-268 230.25,-274 224.25,-280 218.25,-280 218.25,-280 180,-280 180,-280 174,-280 168,-274 168,-268 168,-268 168,-256 168,-256 168,-250 174,-244 180,-244"/>
<text xml:space="preserve" text-anchor="middle" x="177.88" y="-256.95" font-family="Times,serif" font-size="14.00"> </text>
<polyline fill="none" stroke="green" points="187.75,-244 187.75,-280"/>
<text xml:space="preserve" text-anchor="middle" x="199.12" y="-256.95" font-family="Times,serif" font-size="14.00">9</text>
<polyline fill="none" stroke="green" points="210.5,-244 210.5,-280"/>
<text xml:space="preserve" text-anchor="middle" x="220.38" y="-256.95" font-family="Times,serif" font-size="14.00"> </text>
</g>
<!-- 4512496816 -->
<g id="node2" class="node">
<title>4512496816</title>
<path fill="lightgray" stroke="lightgray" d="M110.62,-171C110.62,-171 155.62,-171 155.62,-171 161.62,-171 167.62,-177 167.62,-183 167.62,-183 167.62,-195 167.62,-195 167.62,-201 161.62,-207 155.62,-207 155.62,-207 110.62,-207 110.62,-207 104.62,-207 98.62,-201 98.62,-195 98.62,-195 98.62,-183 98.62,-183 98.62,-177 104.62,-171 110.62,-171"/>
<text xml:space="preserve" text-anchor="middle" x="108.5" y="-183.95" font-family="Times,serif" font-size="14.00"> </text>
<polyline fill="none" stroke="lightgray" points="118.38,-171 118.38,-207"/>
<text xml:space="preserve" text-anchor="middle" x="133.12" y="-183.95" font-family="Times,serif" font-size="14.00">22</text>
<polyline fill="none" stroke="lightgray" points="147.88,-171 147.88,-207"/>
<text xml:space="preserve" text-anchor="middle" x="157.75" y="-183.95" font-family="Times,serif" font-size="14.00"> </text>
</g>
<!-- 4512495920&#45;&gt;4512496816 -->
<g id="edge1" class="edge">
<title>4512495920:l&#45;&gt;4512496816:v</title>
<path fill="none" stroke="black" d="M177.88,-243.5C177.88,-222.76 148.33,-228.81 137.25,-218.11"/>
<polygon fill="black" stroke="black" points="140.56,-216.96 133.67,-208.91 134.04,-219.5 140.56,-216.96"/>
</g>
<!-- 4534530496 -->
<g id="node3" class="node">
<title>4534530496</title>
<path fill="lightgray" stroke="lightgray" d="M242.62,-171C242.62,-171 287.62,-171 287.62,-171 293.62,-171 299.62,-177 299.62,-183 299.62,-183 299.62,-195 299.62,-195 299.62,-201 293.62,-207 287.62,-207 287.62,-207 242.62,-207 242.62,-207 236.62,-207 230.62,-201 230.62,-195 230.62,-195 230.62,-183 230.62,-183 230.62,-177 236.62,-171 242.62,-171"/>
<text xml:space="preserve" text-anchor="middle" x="240.5" y="-183.95" font-family="Times,serif" font-size="14.00"> </text>
<polyline fill="none" stroke="lightgray" points="250.38,-171 250.38,-207"/>
<text xml:space="preserve" text-anchor="middle" x="265.12" y="-183.95" font-family="Times,serif" font-size="14.00">19</text>
<polyline fill="none" stroke="lightgray" points="279.88,-171 279.88,-207"/>
<text xml:space="preserve" text-anchor="middle" x="289.75" y="-183.95" font-family="Times,serif" font-size="14.00"> </text>
</g>
<!-- 4512495920&#45;&gt;4534530496 -->
<g id="edge2" class="edge">
<title>4512495920:r&#45;&gt;4534530496:v</title>
<path fill="none" stroke="black" d="M220.38,-243.5C220.38,-222.76 249.92,-228.81 261,-218.11"/>
<polygon fill="black" stroke="black" points="264.21,-219.5 264.58,-208.91 257.69,-216.96 264.21,-219.5"/>
</g>
<!-- 4534522544 -->
<g id="node4" class="node">
<title>4534522544</title>
<path fill="lightgray" stroke="lightgray" d="M50.62,-98C50.62,-98 95.62,-98 95.62,-98 101.62,-98 107.62,-104 107.62,-110 107.62,-110 107.62,-122 107.62,-122 107.62,-128 101.62,-134 95.62,-134 95.62,-134 50.62,-134 50.62,-134 44.62,-134 38.62,-128 38.62,-122 38.62,-122 38.62,-110 38.62,-110 38.62,-104 44.62,-98 50.62,-98"/>
<text xml:space="preserve" text-anchor="middle" x="48.5" y="-110.95" font-family="Times,serif" font-size="14.00"> </text>
<polyline fill="none" stroke="lightgray" points="58.38,-98 58.38,-134"/>
<text xml:space="preserve" text-anchor="middle" x="73.12" y="-110.95" font-family="Times,serif" font-size="14.00">10</text>
<polyline fill="none" stroke="lightgray" points="87.88,-98 87.88,-134"/>
<text xml:space="preserve" text-anchor="middle" x="97.75" y="-110.95" font-family="Times,serif" font-size="14.00"> </text>
</g>
<!-- 4512496816&#45;&gt;4534522544 -->
<g id="edge3" class="edge">
<title>4512496816:l&#45;&gt;4534522544:v</title>
<path fill="none" stroke="black" d="M108.5,-170.5C108.5,-152.8 86.47,-154.58 77.18,-145.11"/>
<polygon fill="black" stroke="black" points="80.51,-144 73.67,-135.91 73.97,-146.5 80.51,-144"/>
</g>
<!-- 4534529264 -->
<g id="node5" class="node">
<title>4534529264</title>
<path fill="lightgray" stroke="lightgray" d="M138,-98C138,-98 176.25,-98 176.25,-98 182.25,-98 188.25,-104 188.25,-110 188.25,-110 188.25,-122 188.25,-122 188.25,-128 182.25,-134 176.25,-134 176.25,-134 138,-134 138,-134 132,-134 126,-128 126,-122 126,-122 126,-110 126,-110 126,-104 132,-98 138,-98"/>
<text xml:space="preserve" text-anchor="middle" x="135.88" y="-110.95" font-family="Times,serif" font-size="14.00"> </text>
<polyline fill="none" stroke="lightgray" points="145.75,-98 145.75,-134"/>
<text xml:space="preserve" text-anchor="middle" x="157.12" y="-110.95" font-family="Times,serif" font-size="14.00">3</text>
<polyline fill="none" stroke="lightgray" points="168.5,-98 168.5,-134"/>
<text xml:space="preserve" text-anchor="middle" x="178.38" y="-110.95" font-family="Times,serif" font-size="14.00"> </text>
</g>
<!-- 4512496816&#45;&gt;4534529264 -->
<g id="edge4" class="edge">
<title>4512496816:r&#45;&gt;4534529264:v</title>
<path fill="none" stroke="black" d="M157.75,-170.5C157.75,-159.12 157.43,-153.82 157.25,-145.95"/>
<polygon fill="black" stroke="black" points="160.75,-145.97 157.14,-136.01 153.75,-146.05 160.75,-145.97"/>
</g>
<!-- 4534523216 -->
<g id="node6" class="node">
<title>4534523216</title>
<path fill="lightgray" stroke="lightgray" d="M218.62,-98C218.62,-98 263.62,-98 263.62,-98 269.62,-98 275.62,-104 275.62,-110 275.62,-110 275.62,-122 275.62,-122 275.62,-128 269.62,-134 263.62,-134 263.62,-134 218.62,-134 218.62,-134 212.62,-134 206.62,-128 206.62,-122 206.62,-122 206.62,-110 206.62,-110 206.62,-104 212.62,-98 218.62,-98"/>
<text xml:space="preserve" text-anchor="middle" x="216.5" y="-110.95" font-family="Times,serif" font-size="14.00"> </text>
<polyline fill="none" stroke="lightgray" points="226.38,-98 226.38,-134"/>
<text xml:space="preserve" text-anchor="middle" x="241.12" y="-110.95" font-family="Times,serif" font-size="14.00">17</text>
<polyline fill="none" stroke="lightgray" points="255.88,-98 255.88,-134"/>
<text xml:space="preserve" text-anchor="middle" x="265.75" y="-110.95" font-family="Times,serif" font-size="14.00"> </text>
</g>
<!-- 4534530496&#45;&gt;4534523216 -->
<g id="edge5" class="edge">
<title>4534530496:l&#45;&gt;4534523216:v</title>
<path fill="none" stroke="black" d="M240.5,-170.5C240.5,-159.12 240.82,-153.82 241,-145.95"/>
<polygon fill="black" stroke="black" points="244.5,-146.05 241.11,-136.01 237.5,-145.97 244.5,-146.05"/>
</g>
<!-- 4534518624 -->
<g id="node7" class="node">
<title>4534518624</title>
<path fill="lightgray" stroke="lightgray" d="M306,-98C306,-98 344.25,-98 344.25,-98 350.25,-98 356.25,-104 356.25,-110 356.25,-110 356.25,-122 356.25,-122 356.25,-128 350.25,-134 344.25,-134 344.25,-134 306,-134 306,-134 300,-134 294,-128 294,-122 294,-122 294,-110 294,-110 294,-104 300,-98 306,-98"/>
<text xml:space="preserve" text-anchor="middle" x="303.88" y="-110.95" font-family="Times,serif" font-size="14.00"> </text>
<polyline fill="none" stroke="lightgray" points="313.75,-98 313.75,-134"/>
<text xml:space="preserve" text-anchor="middle" x="325.12" y="-110.95" font-family="Times,serif" font-size="14.00">6</text>
<polyline fill="none" stroke="lightgray" points="336.5,-98 336.5,-134"/>
<text xml:space="preserve" text-anchor="middle" x="346.38" y="-110.95" font-family="Times,serif" font-size="14.00"> </text>
</g>
<!-- 4534530496&#45;&gt;4534518624 -->
<g id="edge6" class="edge">
<title>4534530496:r&#45;&gt;4534518624:v</title>
<path fill="none" stroke="black" d="M289.75,-170.5C289.75,-152.8 311.78,-154.58 321.07,-145.11"/>
<polygon fill="black" stroke="black" points="324.28,-146.5 324.58,-135.91 317.74,-144 324.28,-146.5"/>
</g>
<!-- 4534529488 -->
<g id="node8" class="node">
<title>4534529488</title>
<path fill="lightgray" stroke="lightgray" d="M12,-25C12,-25 50.25,-25 50.25,-25 56.25,-25 62.25,-31 62.25,-37 62.25,-37 62.25,-49 62.25,-49 62.25,-55 56.25,-61 50.25,-61 50.25,-61 12,-61 12,-61 6,-61 0,-55 0,-49 0,-49 0,-37 0,-37 0,-31 6,-25 12,-25"/>
<text xml:space="preserve" text-anchor="middle" x="9.88" y="-37.95" font-family="Times,serif" font-size="14.00"> </text>
<polyline fill="none" stroke="lightgray" points="19.75,-25 19.75,-61"/>
<text xml:space="preserve" text-anchor="middle" x="31.12" y="-37.95" font-family="Times,serif" font-size="14.00">5</text>
<polyline fill="none" stroke="lightgray" points="42.5,-25 42.5,-61"/>
<text xml:space="preserve" text-anchor="middle" x="52.38" y="-37.95" font-family="Times,serif" font-size="14.00"> </text>
</g>
<!-- 4534522544&#45;&gt;4534529488 -->
<g id="edge7" class="edge">
<title>4534522544:l&#45;&gt;4534529488:v</title>
<path fill="none" stroke="black" d="M48.5,-97.5C48.5,-84.31 38.93,-80.66 33.99,-72.38"/>
<polygon fill="black" stroke="black" points="37.44,-71.74 31.51,-62.96 30.68,-73.53 37.44,-71.74"/>
</g>
<!-- 4534521984 -->
<g id="node9" class="node">
<title>4534521984</title>
<path fill="lightgray" stroke="green" d="M92.62,-25C92.62,-25 137.62,-25 137.62,-25 143.62,-25 149.62,-31 149.62,-37 149.62,-37 149.62,-49 149.62,-49 149.62,-55 143.62,-61 137.62,-61 137.62,-61 92.62,-61 92.62,-61 86.62,-61 80.62,-55 80.62,-49 80.62,-49 80.62,-37 80.62,-37 80.62,-31 86.62,-25 92.62,-25"/>
<text xml:space="preserve" text-anchor="middle" x="90.5" y="-37.95" font-family="Times,serif" font-size="14.00"> </text>
<polyline fill="none" stroke="green" points="100.38,-25 100.38,-61"/>
<text xml:space="preserve" text-anchor="middle" x="115.12" y="-37.95" font-family="Times,serif" font-size="14.00">84</text>
<polyline fill="none" stroke="green" points="129.88,-25 129.88,-61"/>
<text xml:space="preserve" text-anchor="middle" x="139.75" y="-37.95" font-family="Times,serif" font-size="14.00"> </text>
</g>
<!-- 4534522544&#45;&gt;4534521984 -->
<g id="edge8" class="edge">
<title>4534522544:r&#45;&gt;4534521984:v</title>
<path fill="none" stroke="black" d="M97.75,-97.5C97.75,-84.31 107.32,-80.66 112.26,-72.38"/>
<polygon fill="black" stroke="black" points="115.57,-73.53 114.74,-62.96 108.81,-71.74 115.57,-73.53"/>
</g>
</g>
</svg>
