<?xml version="1.0" encoding="UTF-8" standalone="no"?>
<!DOCTYPE svg PUBLIC "-//W3C//DTD SVG 1.1//EN"
 "http://www.w3.org/Graphics/SVG/1.1/DTD/svg11.dtd">
<!-- Generated by graphviz version 14.0.0 (20250921.2048)
 -->
<!-- Pages: 1 -->
<svg width="307pt" height="216pt"
 viewBox="0.00 0.00 307.00 216.00" xmlns="http://www.w3.org/2000/svg" xmlns:xlink="http://www.w3.org/1999/xlink">
<g id="graph0" class="graph" transform="scale(1 1) rotate(0) translate(4 211.5)">
<polygon fill="white" stroke="none" points="-4,4 -4,-211.5 302.75,-211.5 302.75,4 -4,4"/>
<text xml:space="preserve" text-anchor="middle" x="149.38" y="-7.2" font-family="Times,serif" font-size="14.00">MaxHeap [2, 4, 5, 7, 8, 13, 17, 20, 25], heapsize: 4</text>
<!-- 4534528256 -->
<g id="node1" class="node">
<title>4534528256</title>
<path fill="lightgray" stroke="green" d="M140.75,-171C140.75,-171 179,-171 179,-171 185,-171 191,-177 191,-183 191,-183 191,-195 191,-195 191,-201 185,-207 179,-207 179,-207 140.75,-207 140.75,-207 134.75,-207 128.75,-201 128.75,-195 128.75,-195 128.75,-183 128.75,-183 128.75,-177 134.75,-171 140.75,-171"/>
<text xml:space="preserve" text-anchor="middle" x="138.62" y="-183.95" font-family="Times,serif" font-size="14.00"> </text>
<polyline fill="none" stroke="green" points="148.5,-171 148.5,-207"/>
<text xml:space="preserve" text-anchor="middle" x="159.88" y="-183.95" font-family="Times,serif" font-size="14.00">2</text>
<polyline fill="none" stroke="green" points="171.25,-171 171.25,-207"/>
<text xml:space="preserve" text-anchor="middle" x="181.12" y="-183.95" font-family="Times,serif" font-size="14.00"> </text>
</g>
<!-- 4534518512 -->
<g id="node2" class="node">
<title>4534518512</title>
<path fill="lightgray" stroke="lightgray" d="M100.75,-98C100.75,-98 139,-98 139,-98 145,-98 151,-104 151,-110 151,-110 151,-122 151,-122 151,-128 145,-134 139,-134 139,-134 100.75,-134 100.75,-134 94.75,-134 88.75,-128 88.75,-122 88.75,-122 88.75,-110 88.75,-110 88.75,-104 94.75,-98 100.75,-98"/>
<text xml:space="preserve" text-anchor="middle" x="98.62" y="-110.95" font-family="Times,serif" font-size="14.00"> </text>
<polyline fill="none" stroke="lightgray" points="108.5,-98 108.5,-134"/>
<text xml:space="preserve" text-anchor="middle" x="119.88" y="-110.95" font-family="Times,serif" font-size="14.00">4</text>
<polyline fill="none" stroke="lightgray" points="131.25,-98 131.25,-134"/>
<text xml:space="preserve" text-anchor="middle" x="141.12" y="-110.95" font-family="Times,serif" font-size="14.00"> </text>
</g>
<!-- 4534528256&#45;&gt;4534518512 -->
<g id="edge1" class="edge">
<title>4534528256:l&#45;&gt;4534518512:v</title>
<path fill="none" stroke="black" d="M138.62,-170.5C138.62,-157.11 128.3,-153.7 122.97,-145.46"/>
<polygon fill="black" stroke="black" points="126.37,-144.63 120.29,-135.96 119.64,-146.53 126.37,-144.63"/>
</g>
<!-- 4534523328 -->
<g id="node3" class="node">
<title>4534523328</title>
<path fill="lightgray" stroke="lightgray" d="M180.75,-98C180.75,-98 219,-98 219,-98 225,-98 231,-104 231,-110 231,-110 231,-122 231,-122 231,-128 225,-134 219,-134 219,-134 180.75,-134 180.75,-134 174.75,-134 168.75,-128 168.75,-122 168.75,-122 168.75,-110 168.75,-110 168.75,-104 174.75,-98 180.75,-98"/>
<text xml:space="preserve" text-anchor="middle" x="178.62" y="-110.95" font-family="Times,serif" font-size="14.00"> </text>
<polyline fill="none" stroke="lightgray" points="188.5,-98 188.5,-134"/>
<text xml:space="preserve" text-anchor="middle" x="199.88" y="-110.95" font-family="Times,serif" font-size="14.00">5</text>
<polyline fill="none" stroke="lightgray" points="211.25,-98 211.25,-134"/>
<text xml:space="preserve" text-anchor="middle" x="221.12" y="-110.95" font-family="Times,serif" font-size="14.00"> </text>
</g>
<!-- 4534528256&#45;&gt;4534523328 -->
<g id="edge2" class="edge">
<title>4534528256:r&#45;&gt;4534523328:v</title>
<path fill="none" stroke="black" d="M181.12,-170.5C181.12,-157.11 191.45,-153.7 196.78,-145.46"/>
<polygon fill="black" stroke="black" points="200.11,-146.53 199.46,-135.96 193.38,-144.63 200.11,-146.53"/>
</g>
<!-- 4534525344 -->
<g id="node4" class="node">
<title>4534525344</title>
<path fill="lightgray" stroke="green" d="M79.75,-25C79.75,-25 118,-25 118,-25 124,-25 130,-31 130,-37 130,-37 130,-49 130,-49 130,-55 124,-61 118,-61 118,-61 79.75,-61 79.75,-61 73.75,-61 67.75,-55 67.75,-49 67.75,-49 67.75,-37 67.75,-37 67.75,-31 73.75,-25 79.75,-25"/>
<text xml:space="preserve" text-anchor="middle" x="77.62" y="-37.95" font-family="Times,serif" font-size="14.00"> </text>
<polyline fill="none" stroke="green" points="87.5,-25 87.5,-61"/>
<text xml:space="preserve" text-anchor="middle" x="98.88" y="-37.95" font-family="Times,serif" font-size="14.00">7</text>
<polyline fill="none" stroke="green" points="110.25,-25 110.25,-61"/>
<text xml:space="preserve" text-anchor="middle" x="120.12" y="-37.95" font-family="Times,serif" font-size="14.00"> </text>
</g>
<!-- 4534518512&#45;&gt;4534525344 -->
<g id="edge3" class="edge">
<title>4534518512:l&#45;&gt;4534525344:v</title>
<path fill="none" stroke="black" d="M98.62,-97.5C98.62,-86.12 98.75,-80.82 98.82,-72.95"/>
<polygon fill="black" stroke="black" points="102.32,-73.03 98.87,-63.01 95.32,-73 102.32,-73.03"/>
</g>
</g>
</svg>
