<?xml version="1.0" encoding="UTF-8" standalone="no"?>
<!DOCTYPE svg PUBLIC "-//W3C//DTD SVG 1.1//EN"
 "http://www.w3.org/Graphics/SVG/1.1/DTD/svg11.dtd">
<!-- Generated by graphviz version 14.0.0 (20250921.2048)
 -->
<!-- Pages: 1 -->
<svg width="400pt" height="289pt"
 viewBox="0.00 0.00 400.00 289.00" xmlns="http://www.w3.org/2000/svg" xmlns:xlink="http://www.w3.org/1999/xlink">
<g id="graph0" class="graph" transform="scale(1 1) rotate(0) translate(4 284.5)">
<polygon fill="white" stroke="none" points="-4,4 -4,-284.5 396.25,-284.5 396.25,4 -4,4"/>
<text xml:space="preserve" text-anchor="middle" x="196.12" y="-7.2" font-family="Times,serif" font-size="14.00">MaxHeap [13, 12, 9, 6, 2, 8, 7, 0, 5, 1, 1], heapsize: 10</text>
<!-- 4495597520 -->
<g id="node1" class="node">
<title>4495597520</title>
<path fill="lightgray" stroke="lightgray" d="M216.62,-244C216.62,-244 261.62,-244 261.62,-244 267.62,-244 273.62,-250 273.62,-256 273.62,-256 273.62,-268 273.62,-268 273.62,-274 267.62,-280 261.62,-280 261.62,-280 216.62,-280 216.62,-280 210.62,-280 204.62,-274 204.62,-268 204.62,-268 204.62,-256 204.62,-256 204.62,-250 210.62,-244 216.62,-244"/>
<text xml:space="preserve" text-anchor="middle" x="214.5" y="-256.95" font-family="Times,serif" font-size="14.00"> </text>
<polyline fill="none" stroke="lightgray" points="224.38,-244 224.38,-280"/>
<text xml:space="preserve" text-anchor="middle" x="239.12" y="-256.95" font-family="Times,serif" font-size="14.00">13</text>
<polyline fill="none" stroke="lightgray" points="253.88,-244 253.88,-280"/>
<text xml:space="preserve" text-anchor="middle" x="263.75" y="-256.95" font-family="Times,serif" font-size="14.00"> </text>
</g>
<!-- 4495603792 -->
<g id="node2" class="node">
<title>4495603792</title>
<path fill="lightgray" stroke="lightgray" d="M154.62,-171C154.62,-171 199.62,-171 199.62,-171 205.62,-171 211.62,-177 211.62,-183 211.62,-183 211.62,-195 211.62,-195 211.62,-201 205.62,-207 199.62,-207 199.62,-207 154.62,-207 154.62,-207 148.62,-207 142.62,-201 142.62,-195 142.62,-195 142.62,-183 142.62,-183 142.62,-177 148.62,-171 154.62,-171"/>
<text xml:space="preserve" text-anchor="middle" x="152.5" y="-183.95" font-family="Times,serif" font-size="14.00"> </text>
<polyline fill="none" stroke="lightgray" points="162.38,-171 162.38,-207"/>
<text xml:space="preserve" text-anchor="middle" x="177.12" y="-183.95" font-family="Times,serif" font-size="14.00">12</text>
<polyline fill="none" stroke="lightgray" points="191.88,-171 191.88,-207"/>
<text xml:space="preserve" text-anchor="middle" x="201.75" y="-183.95" font-family="Times,serif" font-size="14.00"> </text>
</g>
<!-- 4495597520&#45;&gt;4495603792 -->
<g id="edge1" class="edge">
<title>4495597520:l&#45;&gt;4495603792:v</title>
<path fill="none" stroke="black" d="M214.5,-243.5C214.5,-225.12 190.77,-227.82 181.12,-218"/>
<polygon fill="black" stroke="black" points="184.49,-217.01 177.66,-208.91 177.95,-219.51 184.49,-217.01"/>
</g>
<!-- 4495601888 -->
<g id="node3" class="node">
<title>4495601888</title>
<path fill="lightgray" stroke="lightgray" d="M283,-171C283,-171 321.25,-171 321.25,-171 327.25,-171 333.25,-177 333.25,-183 333.25,-183 333.25,-195 333.25,-195 333.25,-201 327.25,-207 321.25,-207 321.25,-207 283,-207 283,-207 277,-207 271,-201 271,-195 271,-195 271,-183 271,-183 271,-177 277,-171 283,-171"/>
<text xml:space="preserve" text-anchor="middle" x="280.88" y="-183.95" font-family="Times,serif" font-size="14.00"> </text>
<polyline fill="none" stroke="lightgray" points="290.75,-171 290.75,-207"/>
<text xml:space="preserve" text-anchor="middle" x="302.12" y="-183.95" font-family="Times,serif" font-size="14.00">9</text>
<polyline fill="none" stroke="lightgray" points="313.5,-171 313.5,-207"/>
<text xml:space="preserve" text-anchor="middle" x="323.38" y="-183.95" font-family="Times,serif" font-size="14.00"> </text>
</g>
<!-- 4495597520&#45;&gt;4495601888 -->
<g id="edge2" class="edge">
<title>4495597520:r&#45;&gt;4495601888:v</title>
<path fill="none" stroke="black" d="M263.75,-243.5C263.75,-224.86 288.12,-227.92 298.02,-218.1"/>
<polygon fill="black" stroke="black" points="301.23,-219.5 301.58,-208.91 294.7,-216.97 301.23,-219.5"/>
</g>
<!-- 4495596624 -->
<g id="node4" class="node">
<title>4495596624</title>
<path fill="lightgray" stroke="lightgray" d="M71,-98C71,-98 109.25,-98 109.25,-98 115.25,-98 121.25,-104 121.25,-110 121.25,-110 121.25,-122 121.25,-122 121.25,-128 115.25,-134 109.25,-134 109.25,-134 71,-134 71,-134 65,-134 59,-128 59,-122 59,-122 59,-110 59,-110 59,-104 65,-98 71,-98"/>
<text xml:space="preserve" text-anchor="middle" x="68.88" y="-110.95" font-family="Times,serif" font-size="14.00"> </text>
<polyline fill="none" stroke="lightgray" points="78.75,-98 78.75,-134"/>
<text xml:space="preserve" text-anchor="middle" x="90.12" y="-110.95" font-family="Times,serif" font-size="14.00">6</text>
<polyline fill="none" stroke="lightgray" points="101.5,-98 101.5,-134"/>
<text xml:space="preserve" text-anchor="middle" x="111.38" y="-110.95" font-family="Times,serif" font-size="14.00"> </text>
</g>
<!-- 4495603792&#45;&gt;4495596624 -->
<g id="edge3" class="edge">
<title>4495603792:l&#45;&gt;4495596624:v</title>
<path fill="none" stroke="black" d="M152.5,-170.5C152.5,-143.24 107.27,-159.51 93.84,-145.18"/>
<polygon fill="black" stroke="black" points="97.21,-144.22 90.62,-135.93 90.6,-146.52 97.21,-144.22"/>
</g>
<!-- 4495595168 -->
<g id="node5" class="node">
<title>4495595168</title>
<path fill="lightgray" stroke="green" d="M182,-98C182,-98 220.25,-98 220.25,-98 226.25,-98 232.25,-104 232.25,-110 232.25,-110 232.25,-122 232.25,-122 232.25,-128 226.25,-134 220.25,-134 220.25,-134 182,-134 182,-134 176,-134 170,-128 170,-122 170,-122 170,-110 170,-110 170,-104 176,-98 182,-98"/>
<text xml:space="preserve" text-anchor="middle" x="179.88" y="-110.95" font-family="Times,serif" font-size="14.00"> </text>
<polyline fill="none" stroke="green" points="189.75,-98 189.75,-134"/>
<text xml:space="preserve" text-anchor="middle" x="201.12" y="-110.95" font-family="Times,serif" font-size="14.00">2</text>
<polyline fill="none" stroke="green" points="212.5,-98 212.5,-134"/>
<text xml:space="preserve" text-anchor="middle" x="222.38" y="-110.95" font-family="Times,serif" font-size="14.00"> </text>
</g>
<!-- 4495603792&#45;&gt;4495595168 -->
<g id="edge4" class="edge">
<title>4495603792:r&#45;&gt;4495595168:v</title>
<path fill="none" stroke="black" d="M201.75,-170.5C201.75,-159.12 201.43,-153.82 201.25,-145.95"/>
<polygon fill="black" stroke="black" points="204.75,-145.97 201.14,-136.01 197.75,-146.05 204.75,-145.97"/>
</g>
<!-- 4495600768 -->
<g id="node6" class="node">
<title>4495600768</title>
<path fill="lightgray" stroke="lightgray" d="M262,-98C262,-98 300.25,-98 300.25,-98 306.25,-98 312.25,-104 312.25,-110 312.25,-110 312.25,-122 312.25,-122 312.25,-128 306.25,-134 300.25,-134 300.25,-134 262,-134 262,-134 256,-134 250,-128 250,-122 250,-122 250,-110 250,-110 250,-104 256,-98 262,-98"/>
<text xml:space="preserve" text-anchor="middle" x="259.88" y="-110.95" font-family="Times,serif" font-size="14.00"> </text>
<polyline fill="none" stroke="lightgray" points="269.75,-98 269.75,-134"/>
<text xml:space="preserve" text-anchor="middle" x="281.12" y="-110.95" font-family="Times,serif" font-size="14.00">8</text>
<polyline fill="none" stroke="lightgray" points="292.5,-98 292.5,-134"/>
<text xml:space="preserve" text-anchor="middle" x="302.38" y="-110.95" font-family="Times,serif" font-size="14.00"> </text>
</g>
<!-- 4495601888&#45;&gt;4495600768 -->
<g id="edge5" class="edge">
<title>4495601888:l&#45;&gt;4495600768:v</title>
<path fill="none" stroke="black" d="M280.88,-170.5C280.88,-159.12 281,-153.82 281.07,-145.95"/>
<polygon fill="black" stroke="black" points="284.57,-146.03 281.12,-136.01 277.57,-146 284.57,-146.03"/>
</g>
<!-- 4495601664 -->
<g id="node7" class="node">
<title>4495601664</title>
<path fill="lightgray" stroke="lightgray" d="M342,-98C342,-98 380.25,-98 380.25,-98 386.25,-98 392.25,-104 392.25,-110 392.25,-110 392.25,-122 392.25,-122 392.25,-128 386.25,-134 380.25,-134 380.25,-134 342,-134 342,-134 336,-134 330,-128 330,-122 330,-122 330,-110 330,-110 330,-104 336,-98 342,-98"/>
<text xml:space="preserve" text-anchor="middle" x="339.88" y="-110.95" font-family="Times,serif" font-size="14.00"> </text>
<polyline fill="none" stroke="lightgray" points="349.75,-98 349.75,-134"/>
<text xml:space="preserve" text-anchor="middle" x="361.12" y="-110.95" font-family="Times,serif" font-size="14.00">7</text>
<polyline fill="none" stroke="lightgray" points="372.5,-98 372.5,-134"/>
<text xml:space="preserve" text-anchor="middle" x="382.38" y="-110.95" font-family="Times,serif" font-size="14.00"> </text>
</g>
<!-- 4495601888&#45;&gt;4495601664 -->
<g id="edge6" class="edge">
<title>4495601888:r&#45;&gt;4495601664:v</title>
<path fill="none" stroke="black" d="M323.38,-170.5C323.38,-152.03 347.35,-154.86 357.09,-145.04"/>
<polygon fill="black" stroke="black" points="360.27,-146.5 360.58,-135.91 353.74,-144 360.27,-146.5"/>
</g>
<!-- 4495591472 -->
<g id="node8" class="node">
<title>4495591472</title>
<path fill="lightgray" stroke="lightgray" d="M12,-25C12,-25 50.25,-25 50.25,-25 56.25,-25 62.25,-31 62.25,-37 62.25,-37 62.25,-49 62.25,-49 62.25,-55 56.25,-61 50.25,-61 50.25,-61 12,-61 12,-61 6,-61 0,-55 0,-49 0,-49 0,-37 0,-37 0,-31 6,-25 12,-25"/>
<text xml:space="preserve" text-anchor="middle" x="9.88" y="-37.95" font-family="Times,serif" font-size="14.00"> </text>
<polyline fill="none" stroke="lightgray" points="19.75,-25 19.75,-61"/>
<text xml:space="preserve" text-anchor="middle" x="31.12" y="-37.95" font-family="Times,serif" font-size="14.00">0</text>
<polyline fill="none" stroke="lightgray" points="42.5,-25 42.5,-61"/>
<text xml:space="preserve" text-anchor="middle" x="52.38" y="-37.95" font-family="Times,serif" font-size="14.00"> </text>
</g>
<!-- 4495596624&#45;&gt;4495591472 -->
<g id="edge7" class="edge">
<title>4495596624:l&#45;&gt;4495591472:v</title>
<path fill="none" stroke="black" d="M68.88,-97.5C68.88,-79.03 44.9,-81.86 35.16,-72.04"/>
<polygon fill="black" stroke="black" points="38.51,-71 31.67,-62.91 31.98,-73.5 38.51,-71"/>
</g>
<!-- 4495603456 -->
<g id="node9" class="node">
<title>4495603456</title>
<path fill="lightgray" stroke="lightgray" d="M92,-25C92,-25 130.25,-25 130.25,-25 136.25,-25 142.25,-31 142.25,-37 142.25,-37 142.25,-49 142.25,-49 142.25,-55 136.25,-61 130.25,-61 130.25,-61 92,-61 92,-61 86,-61 80,-55 80,-49 80,-49 80,-37 80,-37 80,-31 86,-25 92,-25"/>
<text xml:space="preserve" text-anchor="middle" x="89.88" y="-37.95" font-family="Times,serif" font-size="14.00"> </text>
<polyline fill="none" stroke="lightgray" points="99.75,-25 99.75,-61"/>
<text xml:space="preserve" text-anchor="middle" x="111.12" y="-37.95" font-family="Times,serif" font-size="14.00">5</text>
<polyline fill="none" stroke="lightgray" points="122.5,-25 122.5,-61"/>
<text xml:space="preserve" text-anchor="middle" x="132.38" y="-37.95" font-family="Times,serif" font-size="14.00"> </text>
</g>
<!-- 4495596624&#45;&gt;4495603456 -->
<g id="edge8" class="edge">
<title>4495596624:r&#45;&gt;4495603456:v</title>
<path fill="none" stroke="black" d="M111.38,-97.5C111.38,-86.12 111.25,-80.82 111.18,-72.95"/>
<polygon fill="black" stroke="black" points="114.68,-73 111.13,-63.01 107.68,-73.03 114.68,-73"/>
</g>
<!-- 4495600432 -->
<g id="node10" class="node">
<title>4495600432</title>
<path fill="lightgray" stroke="green" d="M172,-25C172,-25 210.25,-25 210.25,-25 216.25,-25 222.25,-31 222.25,-37 222.25,-37 222.25,-49 222.25,-49 222.25,-55 216.25,-61 210.25,-61 210.25,-61 172,-61 172,-61 166,-61 160,-55 160,-49 160,-49 160,-37 160,-37 160,-31 166,-25 172,-25"/>
<text xml:space="preserve" text-anchor="middle" x="169.88" y="-37.95" font-family="Times,serif" font-size="14.00"> </text>
<polyline fill="none" stroke="green" points="179.75,-25 179.75,-61"/>
<text xml:space="preserve" text-anchor="middle" x="191.12" y="-37.95" font-family="Times,serif" font-size="14.00">1</text>
<polyline fill="none" stroke="green" points="202.5,-25 202.5,-61"/>
<text xml:space="preserve" text-anchor="middle" x="212.38" y="-37.95" font-family="Times,serif" font-size="14.00"> </text>
</g>
<!-- 4495595168&#45;&gt;4495600432 -->
<g id="edge9" class="edge">
<title>4495595168:l&#45;&gt;4495600432:v</title>
<path fill="none" stroke="black" d="M179.88,-97.5C179.88,-85.32 185.81,-80.68 189.06,-72.63"/>
<polygon fill="black" stroke="black" points="192.47,-73.46 190.85,-62.99 185.58,-72.18 192.47,-73.46"/>
</g>
<!-- 4495594272 -->
<g id="node11" class="node">
<title>4495594272</title>
<path fill="lightgray" stroke="green" d="M252,-25C252,-25 290.25,-25 290.25,-25 296.25,-25 302.25,-31 302.25,-37 302.25,-37 302.25,-49 302.25,-49 302.25,-55 296.25,-61 290.25,-61 290.25,-61 252,-61 252,-61 246,-61 240,-55 240,-49 240,-49 240,-37 240,-37 240,-31 246,-25 252,-25"/>
<text xml:space="preserve" text-anchor="middle" x="249.88" y="-37.95" font-family="Times,serif" font-size="14.00"> </text>
<polyline fill="none" stroke="green" points="259.75,-25 259.75,-61"/>
<text xml:space="preserve" text-anchor="middle" x="271.12" y="-37.95" font-family="Times,serif" font-size="14.00">1</text>
<polyline fill="none" stroke="green" points="282.5,-25 282.5,-61"/>
<text xml:space="preserve" text-anchor="middle" x="292.38" y="-37.95" font-family="Times,serif" font-size="14.00"> </text>
</g>
<!-- 4495595168&#45;&gt;4495594272 -->
<g id="edge10" class="edge">
<title>4495595168:r&#45;&gt;4495594272:v</title>
<path fill="none" stroke="black" d="M222.38,-97.5C222.38,-75.41 255.18,-83.46 266.97,-72.2"/>
<polygon fill="black" stroke="black" points="270.22,-73.5 270.58,-62.91 263.69,-70.96 270.22,-73.5"/>
</g>
<!-- 4495600432&#45;&gt;4495595168 -->
<g id="edge11" class="edge">
<title>4495600432&#45;&gt;4495595168</title>
<path fill="none" stroke="green" d="M193.52,-61.03C194.6,-68.68 195.9,-77.92 197.12,-86.58"/>
<polygon fill="green" stroke="green" points="193.63,-86.9 198.49,-96.31 200.56,-85.92 193.63,-86.9"/>
</g>
</g>
</svg>
