<?xml version="1.0" encoding="UTF-8" standalone="no"?>
<!DOCTYPE svg PUBLIC "-//W3C//DTD SVG 1.1//EN"
 "http://www.w3.org/Graphics/SVG/1.1/DTD/svg11.dtd">
<!-- Generated by graphviz version 14.0.0 (20250921.2048)
 -->
<!-- Pages: 1 -->
<svg width="470pt" height="264pt"
 viewBox="0.00 0.00 470.00 264.00" xmlns="http://www.w3.org/2000/svg" xmlns:xlink="http://www.w3.org/1999/xlink">
<g id="graph0" class="graph" transform="scale(1 1) rotate(0) translate(4 260)">
<polygon fill="white" stroke="none" points="-4,4 -4,-260 466.25,-260 466.25,4 -4,4"/>
<!-- 4469875424 -->
<g id="node1" class="node">
<title>4469875424</title>
<path fill="lightgray" stroke="lightgray" d="M266.62,-219.5C266.62,-219.5 311.62,-219.5 311.62,-219.5 317.62,-219.5 323.62,-225.5 323.62,-231.5 323.62,-231.5 323.62,-243.5 323.62,-243.5 323.62,-249.5 317.62,-255.5 311.62,-255.5 311.62,-255.5 266.62,-255.5 266.62,-255.5 260.62,-255.5 254.62,-249.5 254.62,-243.5 254.62,-243.5 254.62,-231.5 254.62,-231.5 254.62,-225.5 260.62,-219.5 266.62,-219.5"/>
<text xml:space="preserve" text-anchor="middle" x="264.5" y="-232.45" font-family="Times,serif" font-size="14.00"> </text>
<polyline fill="none" stroke="lightgray" points="274.38,-219.5 274.38,-255.5"/>
<text xml:space="preserve" text-anchor="middle" x="289.12" y="-232.45" font-family="Times,serif" font-size="14.00">15</text>
<polyline fill="none" stroke="lightgray" points="303.88,-219.5 303.88,-255.5"/>
<text xml:space="preserve" text-anchor="middle" x="313.75" y="-232.45" font-family="Times,serif" font-size="14.00"> </text>
</g>
<!-- 4469874192 -->
<g id="node2" class="node">
<title>4469874192</title>
<path fill="lightgray" stroke="lightgray" d="M184.62,-146.5C184.62,-146.5 229.62,-146.5 229.62,-146.5 235.62,-146.5 241.62,-152.5 241.62,-158.5 241.62,-158.5 241.62,-170.5 241.62,-170.5 241.62,-176.5 235.62,-182.5 229.62,-182.5 229.62,-182.5 184.62,-182.5 184.62,-182.5 178.62,-182.5 172.62,-176.5 172.62,-170.5 172.62,-170.5 172.62,-158.5 172.62,-158.5 172.62,-152.5 178.62,-146.5 184.62,-146.5"/>
<text xml:space="preserve" text-anchor="middle" x="182.5" y="-159.45" font-family="Times,serif" font-size="14.00"> </text>
<polyline fill="none" stroke="lightgray" points="192.38,-146.5 192.38,-182.5"/>
<text xml:space="preserve" text-anchor="middle" x="207.12" y="-159.45" font-family="Times,serif" font-size="14.00">13</text>
<polyline fill="none" stroke="lightgray" points="221.88,-146.5 221.88,-182.5"/>
<text xml:space="preserve" text-anchor="middle" x="231.75" y="-159.45" font-family="Times,serif" font-size="14.00"> </text>
</g>
<!-- 4469875424&#45;&gt;4469874192 -->
<g id="edge1" class="edge">
<title>4469875424:l&#45;&gt;4469874192:v</title>
<path fill="none" stroke="black" d="M264.5,-219C264.5,-193.6 223.65,-206.86 210.89,-193.55"/>
<polygon fill="black" stroke="black" points="214.29,-192.67 207.63,-184.43 207.7,-195.02 214.29,-192.67"/>
</g>
<!-- 4469870048 -->
<g id="node3" class="node">
<title>4469870048</title>
<path fill="lightgray" stroke="lightgray" d="M353,-146.5C353,-146.5 391.25,-146.5 391.25,-146.5 397.25,-146.5 403.25,-152.5 403.25,-158.5 403.25,-158.5 403.25,-170.5 403.25,-170.5 403.25,-176.5 397.25,-182.5 391.25,-182.5 391.25,-182.5 353,-182.5 353,-182.5 347,-182.5 341,-176.5 341,-170.5 341,-170.5 341,-158.5 341,-158.5 341,-152.5 347,-146.5 353,-146.5"/>
<text xml:space="preserve" text-anchor="middle" x="350.88" y="-159.45" font-family="Times,serif" font-size="14.00"> </text>
<polyline fill="none" stroke="lightgray" points="360.75,-146.5 360.75,-182.5"/>
<text xml:space="preserve" text-anchor="middle" x="372.12" y="-159.45" font-family="Times,serif" font-size="14.00">9</text>
<polyline fill="none" stroke="lightgray" points="383.5,-146.5 383.5,-182.5"/>
<text xml:space="preserve" text-anchor="middle" x="393.38" y="-159.45" font-family="Times,serif" font-size="14.00"> </text>
</g>
<!-- 4469875424&#45;&gt;4469870048 -->
<g id="edge2" class="edge">
<title>4469875424:r&#45;&gt;4469870048:v</title>
<path fill="none" stroke="black" d="M313.75,-219C313.75,-193.28 355.31,-207.03 368.29,-193.65"/>
<polygon fill="black" stroke="black" points="371.52,-195.02 371.61,-184.42 364.94,-192.65 371.52,-195.02"/>
</g>
<!-- 4469869488 -->
<g id="node4" class="node">
<title>4469869488</title>
<path fill="lightgray" stroke="lightgray" d="M71,-73.5C71,-73.5 109.25,-73.5 109.25,-73.5 115.25,-73.5 121.25,-79.5 121.25,-85.5 121.25,-85.5 121.25,-97.5 121.25,-97.5 121.25,-103.5 115.25,-109.5 109.25,-109.5 109.25,-109.5 71,-109.5 71,-109.5 65,-109.5 59,-103.5 59,-97.5 59,-97.5 59,-85.5 59,-85.5 59,-79.5 65,-73.5 71,-73.5"/>
<text xml:space="preserve" text-anchor="middle" x="68.88" y="-86.45" font-family="Times,serif" font-size="14.00"> </text>
<polyline fill="none" stroke="lightgray" points="78.75,-73.5 78.75,-109.5"/>
<text xml:space="preserve" text-anchor="middle" x="90.12" y="-86.45" font-family="Times,serif" font-size="14.00">5</text>
<polyline fill="none" stroke="lightgray" points="101.5,-73.5 101.5,-109.5"/>
<text xml:space="preserve" text-anchor="middle" x="111.38" y="-86.45" font-family="Times,serif" font-size="14.00"> </text>
</g>
<!-- 4469874192&#45;&gt;4469869488 -->
<g id="edge3" class="edge">
<title>4469874192:l&#45;&gt;4469869488:v</title>
<path fill="none" stroke="black" d="M182.5,-146C182.5,-106.58 108.58,-144.14 92.99,-120.96"/>
<polygon fill="black" stroke="black" points="96.42,-120.25 90.51,-111.46 89.65,-122.02 96.42,-120.25"/>
</g>
<!-- 4469875200 -->
<g id="node5" class="node">
<title>4469875200</title>
<path fill="lightgray" stroke="lightgray" d="M208.62,-73.5C208.62,-73.5 253.62,-73.5 253.62,-73.5 259.62,-73.5 265.62,-79.5 265.62,-85.5 265.62,-85.5 265.62,-97.5 265.62,-97.5 265.62,-103.5 259.62,-109.5 253.62,-109.5 253.62,-109.5 208.62,-109.5 208.62,-109.5 202.62,-109.5 196.62,-103.5 196.62,-97.5 196.62,-97.5 196.62,-85.5 196.62,-85.5 196.62,-79.5 202.62,-73.5 208.62,-73.5"/>
<text xml:space="preserve" text-anchor="middle" x="206.5" y="-86.45" font-family="Times,serif" font-size="14.00"> </text>
<polyline fill="none" stroke="lightgray" points="216.38,-73.5 216.38,-109.5"/>
<text xml:space="preserve" text-anchor="middle" x="231.12" y="-86.45" font-family="Times,serif" font-size="14.00">12</text>
<polyline fill="none" stroke="lightgray" points="245.88,-73.5 245.88,-109.5"/>
<text xml:space="preserve" text-anchor="middle" x="255.75" y="-86.45" font-family="Times,serif" font-size="14.00"> </text>
</g>
<!-- 4469874192&#45;&gt;4469875200 -->
<g id="edge4" class="edge">
<title>4469874192:r&#45;&gt;4469875200:v</title>
<path fill="none" stroke="black" d="M231.75,-146C231.75,-134.62 231.43,-129.32 231.25,-121.45"/>
<polygon fill="black" stroke="black" points="234.75,-121.47 231.14,-111.51 227.75,-121.55 234.75,-121.47"/>
</g>
<!-- 4469877440 -->
<g id="node6" class="node">
<title>4469877440</title>
<path fill="lightgray" stroke="lightgray" d="M332,-73.5C332,-73.5 370.25,-73.5 370.25,-73.5 376.25,-73.5 382.25,-79.5 382.25,-85.5 382.25,-85.5 382.25,-97.5 382.25,-97.5 382.25,-103.5 376.25,-109.5 370.25,-109.5 370.25,-109.5 332,-109.5 332,-109.5 326,-109.5 320,-103.5 320,-97.5 320,-97.5 320,-85.5 320,-85.5 320,-79.5 326,-73.5 332,-73.5"/>
<text xml:space="preserve" text-anchor="middle" x="329.88" y="-86.45" font-family="Times,serif" font-size="14.00"> </text>
<polyline fill="none" stroke="lightgray" points="339.75,-73.5 339.75,-109.5"/>
<text xml:space="preserve" text-anchor="middle" x="351.12" y="-86.45" font-family="Times,serif" font-size="14.00">8</text>
<polyline fill="none" stroke="lightgray" points="362.5,-73.5 362.5,-109.5"/>
<text xml:space="preserve" text-anchor="middle" x="372.38" y="-86.45" font-family="Times,serif" font-size="14.00"> </text>
</g>
<!-- 4469870048&#45;&gt;4469877440 -->
<g id="edge5" class="edge">
<title>4469870048:l&#45;&gt;4469877440:v</title>
<path fill="none" stroke="black" d="M350.88,-146C350.88,-134.62 351,-129.32 351.07,-121.45"/>
<polygon fill="black" stroke="black" points="354.57,-121.53 351.12,-111.51 347.57,-121.5 354.57,-121.53"/>
</g>
<!-- 4469878448 -->
<g id="node7" class="node">
<title>4469878448</title>
<path fill="lightgray" stroke="lightgray" d="M412,-73.5C412,-73.5 450.25,-73.5 450.25,-73.5 456.25,-73.5 462.25,-79.5 462.25,-85.5 462.25,-85.5 462.25,-97.5 462.25,-97.5 462.25,-103.5 456.25,-109.5 450.25,-109.5 450.25,-109.5 412,-109.5 412,-109.5 406,-109.5 400,-103.5 400,-97.5 400,-97.5 400,-85.5 400,-85.5 400,-79.5 406,-73.5 412,-73.5"/>
<text xml:space="preserve" text-anchor="middle" x="409.88" y="-86.45" font-family="Times,serif" font-size="14.00"> </text>
<polyline fill="none" stroke="lightgray" points="419.75,-73.5 419.75,-109.5"/>
<text xml:space="preserve" text-anchor="middle" x="431.12" y="-86.45" font-family="Times,serif" font-size="14.00">7</text>
<polyline fill="none" stroke="lightgray" points="442.5,-73.5 442.5,-109.5"/>
<text xml:space="preserve" text-anchor="middle" x="452.38" y="-86.45" font-family="Times,serif" font-size="14.00"> </text>
</g>
<!-- 4469870048&#45;&gt;4469878448 -->
<g id="edge6" class="edge">
<title>4469870048:r&#45;&gt;4469878448:v</title>
<path fill="none" stroke="black" d="M393.38,-146C393.38,-127.53 417.35,-130.36 427.09,-120.54"/>
<polygon fill="black" stroke="black" points="430.27,-122 430.58,-111.41 423.74,-119.5 430.27,-122"/>
</g>
<!-- 4469875312 -->
<g id="node8" class="node">
<title>4469875312</title>
<path fill="lightgray" stroke="lightgray" d="M12,-0.5C12,-0.5 50.25,-0.5 50.25,-0.5 56.25,-0.5 62.25,-6.5 62.25,-12.5 62.25,-12.5 62.25,-24.5 62.25,-24.5 62.25,-30.5 56.25,-36.5 50.25,-36.5 50.25,-36.5 12,-36.5 12,-36.5 6,-36.5 0,-30.5 0,-24.5 0,-24.5 0,-12.5 0,-12.5 0,-6.5 6,-0.5 12,-0.5"/>
<text xml:space="preserve" text-anchor="middle" x="9.88" y="-13.45" font-family="Times,serif" font-size="14.00"> </text>
<polyline fill="none" stroke="lightgray" points="19.75,-0.5 19.75,-36.5"/>
<text xml:space="preserve" text-anchor="middle" x="31.12" y="-13.45" font-family="Times,serif" font-size="14.00">4</text>
<polyline fill="none" stroke="lightgray" points="42.5,-0.5 42.5,-36.5"/>
<text xml:space="preserve" text-anchor="middle" x="52.38" y="-13.45" font-family="Times,serif" font-size="14.00"> </text>
</g>
<!-- 4469869488&#45;&gt;4469875312 -->
<g id="edge7" class="edge">
<title>4469869488:l&#45;&gt;4469875312:v</title>
<path fill="none" stroke="black" d="M68.88,-73C68.88,-54.53 44.9,-57.36 35.16,-47.54"/>
<polygon fill="black" stroke="black" points="38.51,-46.5 31.67,-38.41 31.98,-49 38.51,-46.5"/>
</g>
<!-- 4469876768 -->
<g id="node9" class="node">
<title>4469876768</title>
<path fill="lightgray" stroke="lightgray" d="M92,-0.5C92,-0.5 130.25,-0.5 130.25,-0.5 136.25,-0.5 142.25,-6.5 142.25,-12.5 142.25,-12.5 142.25,-24.5 142.25,-24.5 142.25,-30.5 136.25,-36.5 130.25,-36.5 130.25,-36.5 92,-36.5 92,-36.5 86,-36.5 80,-30.5 80,-24.5 80,-24.5 80,-12.5 80,-12.5 80,-6.5 86,-0.5 92,-0.5"/>
<text xml:space="preserve" text-anchor="middle" x="89.88" y="-13.45" font-family="Times,serif" font-size="14.00"> </text>
<polyline fill="none" stroke="lightgray" points="99.75,-0.5 99.75,-36.5"/>
<text xml:space="preserve" text-anchor="middle" x="111.12" y="-13.45" font-family="Times,serif" font-size="14.00">0</text>
<polyline fill="none" stroke="lightgray" points="122.5,-0.5 122.5,-36.5"/>
<text xml:space="preserve" text-anchor="middle" x="132.38" y="-13.45" font-family="Times,serif" font-size="14.00"> </text>
</g>
<!-- 4469869488&#45;&gt;4469876768 -->
<g id="edge8" class="edge">
<title>4469869488:r&#45;&gt;4469876768:v</title>
<path fill="none" stroke="black" d="M111.38,-73C111.38,-61.62 111.25,-56.32 111.18,-48.45"/>
<polygon fill="black" stroke="black" points="114.68,-48.5 111.13,-38.51 107.68,-48.53 114.68,-48.5"/>
</g>
<!-- 4469880576 -->
<g id="node10" class="node">
<title>4469880576</title>
<path fill="lightgray" stroke="lightgray" d="M172,-0.5C172,-0.5 210.25,-0.5 210.25,-0.5 216.25,-0.5 222.25,-6.5 222.25,-12.5 222.25,-12.5 222.25,-24.5 222.25,-24.5 222.25,-30.5 216.25,-36.5 210.25,-36.5 210.25,-36.5 172,-36.5 172,-36.5 166,-36.5 160,-30.5 160,-24.5 160,-24.5 160,-12.5 160,-12.5 160,-6.5 166,-0.5 172,-0.5"/>
<text xml:space="preserve" text-anchor="middle" x="169.88" y="-13.45" font-family="Times,serif" font-size="14.00"> </text>
<polyline fill="none" stroke="lightgray" points="179.75,-0.5 179.75,-36.5"/>
<text xml:space="preserve" text-anchor="middle" x="191.12" y="-13.45" font-family="Times,serif" font-size="14.00">6</text>
<polyline fill="none" stroke="lightgray" points="202.5,-0.5 202.5,-36.5"/>
<text xml:space="preserve" text-anchor="middle" x="212.38" y="-13.45" font-family="Times,serif" font-size="14.00"> </text>
</g>
<!-- 4469875200&#45;&gt;4469880576 -->
<g id="edge9" class="edge">
<title>4469875200:l&#45;&gt;4469880576:v</title>
<path fill="none" stroke="black" d="M206.5,-73C206.5,-60.22 198.21,-56.18 193.8,-48.04"/>
<polygon fill="black" stroke="black" points="197.24,-47.36 191.48,-38.47 190.44,-49.01 197.24,-47.36"/>
</g>
<!-- 4469880800 -->
<g id="node11" class="node">
<title>4469880800</title>
<path fill="lightgray" stroke="lightgray" d="M252,-0.5C252,-0.5 290.25,-0.5 290.25,-0.5 296.25,-0.5 302.25,-6.5 302.25,-12.5 302.25,-12.5 302.25,-24.5 302.25,-24.5 302.25,-30.5 296.25,-36.5 290.25,-36.5 290.25,-36.5 252,-36.5 252,-36.5 246,-36.5 240,-30.5 240,-24.5 240,-24.5 240,-12.5 240,-12.5 240,-6.5 246,-0.5 252,-0.5"/>
<text xml:space="preserve" text-anchor="middle" x="249.88" y="-13.45" font-family="Times,serif" font-size="14.00"> </text>
<polyline fill="none" stroke="lightgray" points="259.75,-0.5 259.75,-36.5"/>
<text xml:space="preserve" text-anchor="middle" x="271.12" y="-13.45" font-family="Times,serif" font-size="14.00">2</text>
<polyline fill="none" stroke="lightgray" points="282.5,-0.5 282.5,-36.5"/>
<text xml:space="preserve" text-anchor="middle" x="292.38" y="-13.45" font-family="Times,serif" font-size="14.00"> </text>
</g>
<!-- 4469875200&#45;&gt;4469880800 -->
<g id="edge10" class="edge">
<title>4469875200:r&#45;&gt;4469880800:v</title>
<path fill="none" stroke="black" d="M255.75,-73C255.75,-60.22 264.04,-56.18 268.45,-48.04"/>
<polygon fill="black" stroke="black" points="271.81,-49.01 270.77,-38.47 265.01,-47.36 271.81,-49.01"/>
</g>
<!-- 4469881024 -->
<g id="node12" class="node">
<title>4469881024</title>
<path fill="lightgray" stroke="lightgray" d="M332,-0.5C332,-0.5 370.25,-0.5 370.25,-0.5 376.25,-0.5 382.25,-6.5 382.25,-12.5 382.25,-12.5 382.25,-24.5 382.25,-24.5 382.25,-30.5 376.25,-36.5 370.25,-36.5 370.25,-36.5 332,-36.5 332,-36.5 326,-36.5 320,-30.5 320,-24.5 320,-24.5 320,-12.5 320,-12.5 320,-6.5 326,-0.5 332,-0.5"/>
<text xml:space="preserve" text-anchor="middle" x="329.88" y="-13.45" font-family="Times,serif" font-size="14.00"> </text>
<polyline fill="none" stroke="lightgray" points="339.75,-0.5 339.75,-36.5"/>
<text xml:space="preserve" text-anchor="middle" x="351.12" y="-13.45" font-family="Times,serif" font-size="14.00">1</text>
<polyline fill="none" stroke="lightgray" points="362.5,-0.5 362.5,-36.5"/>
<text xml:space="preserve" text-anchor="middle" x="372.38" y="-13.45" font-family="Times,serif" font-size="14.00"> </text>
</g>
<!-- 4469877440&#45;&gt;4469881024 -->
<g id="edge11" class="edge">
<title>4469877440:l&#45;&gt;4469881024:v</title>
<path fill="none" stroke="black" d="M329.88,-73C329.88,-59.07 341.83,-56.23 347.8,-47.85"/>
<polygon fill="black" stroke="black" points="351.1,-49.03 350.68,-38.45 344.41,-46.99 351.1,-49.03"/>
</g>
</g>
</svg>
