<?xml version="1.0" encoding="UTF-8" standalone="no"?>
<!DOCTYPE svg PUBLIC "-//W3C//DTD SVG 1.1//EN"
 "http://www.w3.org/Graphics/SVG/1.1/DTD/svg11.dtd">
<!-- Generated by graphviz version 14.0.0 (20250921.2048)
 -->
<!-- Pages: 1 -->
<svg width="378pt" height="289pt"
 viewBox="0.00 0.00 378.00 289.00" xmlns="http://www.w3.org/2000/svg" xmlns:xlink="http://www.w3.org/1999/xlink">
<g id="graph0" class="graph" transform="scale(1 1) rotate(0) translate(4 284.5)">
<polygon fill="white" stroke="none" points="-4,4 -4,-284.5 374,-284.5 374,4 -4,4"/>
<text xml:space="preserve" text-anchor="middle" x="185" y="-7.2" font-family="Times,serif" font-size="14.00">MaxHeap [9, 5, 6, 3, 10, 17, 19, 22, 84], heapsize: 4</text>
<!-- 4469876208 -->
<g id="node1" class="node">
<title>4469876208</title>
<path fill="lightgray" stroke="lightgray" d="M175.38,-244C175.38,-244 213.62,-244 213.62,-244 219.62,-244 225.62,-250 225.62,-256 225.62,-256 225.62,-268 225.62,-268 225.62,-274 219.62,-280 213.62,-280 213.62,-280 175.38,-280 175.38,-280 169.38,-280 163.38,-274 163.38,-268 163.38,-268 163.38,-256 163.38,-256 163.38,-250 169.38,-244 175.38,-244"/>
<text xml:space="preserve" text-anchor="middle" x="173.25" y="-256.95" font-family="Times,serif" font-size="14.00"> </text>
<polyline fill="none" stroke="lightgray" points="183.12,-244 183.12,-280"/>
<text xml:space="preserve" text-anchor="middle" x="194.5" y="-256.95" font-family="Times,serif" font-size="14.00">9</text>
<polyline fill="none" stroke="lightgray" points="205.88,-244 205.88,-280"/>
<text xml:space="preserve" text-anchor="middle" x="215.75" y="-256.95" font-family="Times,serif" font-size="14.00"> </text>
</g>
<!-- 4469873520 -->
<g id="node2" class="node">
<title>4469873520</title>
<path fill="lightgray" stroke="green" d="M100.38,-171C100.38,-171 138.62,-171 138.62,-171 144.62,-171 150.62,-177 150.62,-183 150.62,-183 150.62,-195 150.62,-195 150.62,-201 144.62,-207 138.62,-207 138.62,-207 100.38,-207 100.38,-207 94.38,-207 88.38,-201 88.38,-195 88.38,-195 88.38,-183 88.38,-183 88.38,-177 94.38,-171 100.38,-171"/>
<text xml:space="preserve" text-anchor="middle" x="98.25" y="-183.95" font-family="Times,serif" font-size="14.00"> </text>
<polyline fill="none" stroke="green" points="108.12,-171 108.12,-207"/>
<text xml:space="preserve" text-anchor="middle" x="119.5" y="-183.95" font-family="Times,serif" font-size="14.00">5</text>
<polyline fill="none" stroke="green" points="130.88,-171 130.88,-207"/>
<text xml:space="preserve" text-anchor="middle" x="140.75" y="-183.95" font-family="Times,serif" font-size="14.00"> </text>
</g>
<!-- 4469876208&#45;&gt;4469873520 -->
<g id="edge1" class="edge">
<title>4469876208:l&#45;&gt;4469873520:v</title>
<path fill="none" stroke="black" d="M173.25,-243.5C173.25,-219.47 135.69,-230.55 123.37,-218.04"/>
<polygon fill="black" stroke="black" points="126.75,-217.1 120.02,-208.92 120.18,-219.51 126.75,-217.1"/>
</g>
<!-- 4469877440 -->
<g id="node3" class="node">
<title>4469877440</title>
<path fill="lightgray" stroke="lightgray" d="M250.38,-171C250.38,-171 288.62,-171 288.62,-171 294.62,-171 300.62,-177 300.62,-183 300.62,-183 300.62,-195 300.62,-195 300.62,-201 294.62,-207 288.62,-207 288.62,-207 250.38,-207 250.38,-207 244.38,-207 238.38,-201 238.38,-195 238.38,-195 238.38,-183 238.38,-183 238.38,-177 244.38,-171 250.38,-171"/>
<text xml:space="preserve" text-anchor="middle" x="248.25" y="-183.95" font-family="Times,serif" font-size="14.00"> </text>
<polyline fill="none" stroke="lightgray" points="258.12,-171 258.12,-207"/>
<text xml:space="preserve" text-anchor="middle" x="269.5" y="-183.95" font-family="Times,serif" font-size="14.00">6</text>
<polyline fill="none" stroke="lightgray" points="280.88,-171 280.88,-207"/>
<text xml:space="preserve" text-anchor="middle" x="290.75" y="-183.95" font-family="Times,serif" font-size="14.00"> </text>
</g>
<!-- 4469876208&#45;&gt;4469877440 -->
<g id="edge2" class="edge">
<title>4469876208:r&#45;&gt;4469877440:v</title>
<path fill="none" stroke="black" d="M215.75,-243.5C215.75,-219.47 253.31,-230.55 265.63,-218.04"/>
<polygon fill="black" stroke="black" points="268.82,-219.51 268.98,-208.92 262.25,-217.1 268.82,-219.51"/>
</g>
<!-- 4469869712 -->
<g id="node4" class="node">
<title>4469869712</title>
<path fill="lightgray" stroke="green" d="M58.38,-98C58.38,-98 96.62,-98 96.62,-98 102.62,-98 108.62,-104 108.62,-110 108.62,-110 108.62,-122 108.62,-122 108.62,-128 102.62,-134 96.62,-134 96.62,-134 58.38,-134 58.38,-134 52.38,-134 46.38,-128 46.38,-122 46.38,-122 46.38,-110 46.38,-110 46.38,-104 52.38,-98 58.38,-98"/>
<text xml:space="preserve" text-anchor="middle" x="56.25" y="-110.95" font-family="Times,serif" font-size="14.00"> </text>
<polyline fill="none" stroke="green" points="66.12,-98 66.12,-134"/>
<text xml:space="preserve" text-anchor="middle" x="77.5" y="-110.95" font-family="Times,serif" font-size="14.00">3</text>
<polyline fill="none" stroke="green" points="88.88,-98 88.88,-134"/>
<text xml:space="preserve" text-anchor="middle" x="98.75" y="-110.95" font-family="Times,serif" font-size="14.00"> </text>
</g>
<!-- 4469873520&#45;&gt;4469869712 -->
<g id="edge3" class="edge">
<title>4469873520:l&#45;&gt;4469869712:v</title>
<path fill="none" stroke="black" d="M98.25,-170.5C98.25,-156.65 86.58,-153.71 80.74,-145.32"/>
<polygon fill="black" stroke="black" points="84.16,-144.52 77.93,-135.95 77.45,-146.53 84.16,-144.52"/>
</g>
<!-- 4469877216 -->
<g id="node5" class="node">
<title>4469877216</title>
<path fill="lightgray" stroke="lightgray" d="M139,-98C139,-98 184,-98 184,-98 190,-98 196,-104 196,-110 196,-110 196,-122 196,-122 196,-128 190,-134 184,-134 184,-134 139,-134 139,-134 133,-134 127,-128 127,-122 127,-122 127,-110 127,-110 127,-104 133,-98 139,-98"/>
<text xml:space="preserve" text-anchor="middle" x="136.88" y="-110.95" font-family="Times,serif" font-size="14.00"> </text>
<polyline fill="none" stroke="lightgray" points="146.75,-98 146.75,-134"/>
<text xml:space="preserve" text-anchor="middle" x="161.5" y="-110.95" font-family="Times,serif" font-size="14.00">10</text>
<polyline fill="none" stroke="lightgray" points="176.25,-98 176.25,-134"/>
<text xml:space="preserve" text-anchor="middle" x="186.12" y="-110.95" font-family="Times,serif" font-size="14.00"> </text>
</g>
<!-- 4469873520&#45;&gt;4469877216 -->
<g id="edge4" class="edge">
<title>4469873520:r&#45;&gt;4469877216:v</title>
<path fill="none" stroke="black" d="M140.75,-170.5C140.75,-156.65 152.42,-153.71 158.26,-145.32"/>
<polygon fill="black" stroke="black" points="161.55,-146.53 161.07,-135.95 154.84,-144.52 161.55,-146.53"/>
</g>
<!-- 4469870160 -->
<g id="node6" class="node">
<title>4469870160</title>
<path fill="lightgray" stroke="lightgray" d="M226,-98C226,-98 271,-98 271,-98 277,-98 283,-104 283,-110 283,-110 283,-122 283,-122 283,-128 277,-134 271,-134 271,-134 226,-134 226,-134 220,-134 214,-128 214,-122 214,-122 214,-110 214,-110 214,-104 220,-98 226,-98"/>
<text xml:space="preserve" text-anchor="middle" x="223.88" y="-110.95" font-family="Times,serif" font-size="14.00"> </text>
<polyline fill="none" stroke="lightgray" points="233.75,-98 233.75,-134"/>
<text xml:space="preserve" text-anchor="middle" x="248.5" y="-110.95" font-family="Times,serif" font-size="14.00">17</text>
<polyline fill="none" stroke="lightgray" points="263.25,-98 263.25,-134"/>
<text xml:space="preserve" text-anchor="middle" x="273.12" y="-110.95" font-family="Times,serif" font-size="14.00"> </text>
</g>
<!-- 4469877440&#45;&gt;4469870160 -->
<g id="edge5" class="edge">
<title>4469877440:l&#45;&gt;4469870160:v</title>
<path fill="none" stroke="black" d="M248.25,-170.5C248.25,-159.12 248.38,-153.82 248.45,-145.95"/>
<polygon fill="black" stroke="black" points="251.95,-146.03 248.49,-136.01 244.95,-146 251.95,-146.03"/>
</g>
<!-- 4469869936 -->
<g id="node7" class="node">
<title>4469869936</title>
<path fill="lightgray" stroke="lightgray" d="M313,-98C313,-98 358,-98 358,-98 364,-98 370,-104 370,-110 370,-110 370,-122 370,-122 370,-128 364,-134 358,-134 358,-134 313,-134 313,-134 307,-134 301,-128 301,-122 301,-122 301,-110 301,-110 301,-104 307,-98 313,-98"/>
<text xml:space="preserve" text-anchor="middle" x="310.88" y="-110.95" font-family="Times,serif" font-size="14.00"> </text>
<polyline fill="none" stroke="lightgray" points="320.75,-98 320.75,-134"/>
<text xml:space="preserve" text-anchor="middle" x="335.5" y="-110.95" font-family="Times,serif" font-size="14.00">19</text>
<polyline fill="none" stroke="lightgray" points="350.25,-98 350.25,-134"/>
<text xml:space="preserve" text-anchor="middle" x="360.12" y="-110.95" font-family="Times,serif" font-size="14.00"> </text>
</g>
<!-- 4469877440&#45;&gt;4469869936 -->
<g id="edge6" class="edge">
<title>4469877440:r&#45;&gt;4469869936:v</title>
<path fill="none" stroke="black" d="M290.75,-170.5C290.75,-149.76 320.29,-155.81 331.37,-145.11"/>
<polygon fill="black" stroke="black" points="334.59,-146.5 334.95,-135.91 328.06,-143.96 334.59,-146.5"/>
</g>
<!-- 4469869712&#45;&gt;4469873520 -->
<g id="edge9" class="edge">
<title>4469869712&#45;&gt;4469873520</title>
<path fill="none" stroke="green" d="M87.57,-134.03C92.36,-142.12 98.19,-151.98 103.56,-161.05"/>
<polygon fill="green" stroke="green" points="100.46,-162.69 108.56,-169.51 106.48,-159.12 100.46,-162.69"/>
</g>
<!-- 4469873632 -->
<g id="node8" class="node">
<title>4469873632</title>
<path fill="lightgray" stroke="lightgray" d="M12,-25C12,-25 57,-25 57,-25 63,-25 69,-31 69,-37 69,-37 69,-49 69,-49 69,-55 63,-61 57,-61 57,-61 12,-61 12,-61 6,-61 0,-55 0,-49 0,-49 0,-37 0,-37 0,-31 6,-25 12,-25"/>
<text xml:space="preserve" text-anchor="middle" x="9.88" y="-37.95" font-family="Times,serif" font-size="14.00"> </text>
<polyline fill="none" stroke="lightgray" points="19.75,-25 19.75,-61"/>
<text xml:space="preserve" text-anchor="middle" x="34.5" y="-37.95" font-family="Times,serif" font-size="14.00">22</text>
<polyline fill="none" stroke="lightgray" points="49.25,-25 49.25,-61"/>
<text xml:space="preserve" text-anchor="middle" x="59.12" y="-37.95" font-family="Times,serif" font-size="14.00"> </text>
</g>
<!-- 4469869712&#45;&gt;4469873632 -->
<g id="edge7" class="edge">
<title>4469869712:l&#45;&gt;4469873632:v</title>
<path fill="none" stroke="black" d="M56.25,-97.5C56.25,-83.48 44.02,-80.76 37.9,-72.38"/>
<polygon fill="black" stroke="black" points="41.27,-71.45 34.95,-62.94 34.59,-73.53 41.27,-71.45"/>
</g>
<!-- 4469872960 -->
<g id="node9" class="node">
<title>4469872960</title>
<path fill="lightgray" stroke="lightgray" d="M99,-25C99,-25 144,-25 144,-25 150,-25 156,-31 156,-37 156,-37 156,-49 156,-49 156,-55 150,-61 144,-61 144,-61 99,-61 99,-61 93,-61 87,-55 87,-49 87,-49 87,-37 87,-37 87,-31 93,-25 99,-25"/>
<text xml:space="preserve" text-anchor="middle" x="96.88" y="-37.95" font-family="Times,serif" font-size="14.00"> </text>
<polyline fill="none" stroke="lightgray" points="106.75,-25 106.75,-61"/>
<text xml:space="preserve" text-anchor="middle" x="121.5" y="-37.95" font-family="Times,serif" font-size="14.00">84</text>
<polyline fill="none" stroke="lightgray" points="136.25,-25 136.25,-61"/>
<text xml:space="preserve" text-anchor="middle" x="146.12" y="-37.95" font-family="Times,serif" font-size="14.00"> </text>
</g>
<!-- 4469869712&#45;&gt;4469872960 -->
<g id="edge8" class="edge">
<title>4469869712:r&#45;&gt;4469872960:v</title>
<path fill="none" stroke="black" d="M98.75,-97.5C98.75,-83.3 111.55,-80.8 117.95,-72.45"/>
<polygon fill="black" stroke="black" points="121.27,-73.53 121.03,-62.94 114.62,-71.37 121.27,-73.53"/>
</g>
</g>
</svg>
