<?xml version="1.0" encoding="UTF-8" standalone="no"?>
<!DOCTYPE svg PUBLIC "-//W3C//DTD SVG 1.1//EN"
 "http://www.w3.org/Graphics/SVG/1.1/DTD/svg11.dtd">
<!-- Generated by graphviz version 14.0.0 (20250921.2048)
 -->
<!-- Pages: 1 -->
<svg width="314pt" height="216pt"
 viewBox="0.00 0.00 314.00 216.00" xmlns="http://www.w3.org/2000/svg" xmlns:xlink="http://www.w3.org/1999/xlink">
<g id="graph0" class="graph" transform="scale(1 1) rotate(0) translate(4 211.5)">
<polygon fill="white" stroke="none" points="-4,4 -4,-211.5 309.5,-211.5 309.5,4 -4,4"/>
<text xml:space="preserve" text-anchor="middle" x="152.75" y="-7.2" font-family="Times,serif" font-size="14.00">MaxHeap [5, 10, 6, 9, 3, 17, 19, 22, 84], heapsize: 6</text>
<!-- 4534530496 -->
<g id="node1" class="node">
<title>4534530496</title>
<path fill="lightgray" stroke="green" d="M158.94,-171C158.94,-171 197.19,-171 197.19,-171 203.19,-171 209.19,-177 209.19,-183 209.19,-183 209.19,-195 209.19,-195 209.19,-201 203.19,-207 197.19,-207 197.19,-207 158.94,-207 158.94,-207 152.94,-207 146.94,-201 146.94,-195 146.94,-195 146.94,-183 146.94,-183 146.94,-177 152.94,-171 158.94,-171"/>
<text xml:space="preserve" text-anchor="middle" x="156.81" y="-183.95" font-family="Times,serif" font-size="14.00"> </text>
<polyline fill="none" stroke="green" points="166.69,-171 166.69,-207"/>
<text xml:space="preserve" text-anchor="middle" x="178.06" y="-183.95" font-family="Times,serif" font-size="14.00">5</text>
<polyline fill="none" stroke="green" points="189.44,-171 189.44,-207"/>
<text xml:space="preserve" text-anchor="middle" x="199.31" y="-183.95" font-family="Times,serif" font-size="14.00"> </text>
</g>
<!-- 4534528256 -->
<g id="node2" class="node">
<title>4534528256</title>
<path fill="lightgray" stroke="lightgray" d="M102.56,-98C102.56,-98 147.56,-98 147.56,-98 153.56,-98 159.56,-104 159.56,-110 159.56,-110 159.56,-122 159.56,-122 159.56,-128 153.56,-134 147.56,-134 147.56,-134 102.56,-134 102.56,-134 96.56,-134 90.56,-128 90.56,-122 90.56,-122 90.56,-110 90.56,-110 90.56,-104 96.56,-98 102.56,-98"/>
<text xml:space="preserve" text-anchor="middle" x="100.44" y="-110.95" font-family="Times,serif" font-size="14.00"> </text>
<polyline fill="none" stroke="lightgray" points="110.31,-98 110.31,-134"/>
<text xml:space="preserve" text-anchor="middle" x="125.06" y="-110.95" font-family="Times,serif" font-size="14.00">10</text>
<polyline fill="none" stroke="lightgray" points="139.81,-98 139.81,-134"/>
<text xml:space="preserve" text-anchor="middle" x="149.69" y="-110.95" font-family="Times,serif" font-size="14.00"> </text>
</g>
<!-- 4534530496&#45;&gt;4534528256 -->
<g id="edge1" class="edge">
<title>4534530496:l&#45;&gt;4534528256:v</title>
<path fill="none" stroke="black" d="M156.81,-170.5C156.81,-153.83 137.43,-154.26 128.96,-145.07"/>
<polygon fill="black" stroke="black" points="132.33,-144.09 125.59,-135.92 125.76,-146.51 132.33,-144.09"/>
</g>
<!-- 4534518624 -->
<g id="node3" class="node">
<title>4534518624</title>
<path fill="lightgray" stroke="lightgray" d="M211.94,-98C211.94,-98 250.19,-98 250.19,-98 256.19,-98 262.19,-104 262.19,-110 262.19,-110 262.19,-122 262.19,-122 262.19,-128 256.19,-134 250.19,-134 250.19,-134 211.94,-134 211.94,-134 205.94,-134 199.94,-128 199.94,-122 199.94,-122 199.94,-110 199.94,-110 199.94,-104 205.94,-98 211.94,-98"/>
<text xml:space="preserve" text-anchor="middle" x="209.81" y="-110.95" font-family="Times,serif" font-size="14.00"> </text>
<polyline fill="none" stroke="lightgray" points="219.69,-98 219.69,-134"/>
<text xml:space="preserve" text-anchor="middle" x="231.06" y="-110.95" font-family="Times,serif" font-size="14.00">6</text>
<polyline fill="none" stroke="lightgray" points="242.44,-98 242.44,-134"/>
<text xml:space="preserve" text-anchor="middle" x="252.31" y="-110.95" font-family="Times,serif" font-size="14.00"> </text>
</g>
<!-- 4534530496&#45;&gt;4534518624 -->
<g id="edge2" class="edge">
<title>4534530496:r&#45;&gt;4534518624:v</title>
<path fill="none" stroke="black" d="M199.31,-170.5C199.31,-153.83 218.69,-154.26 227.17,-145.07"/>
<polygon fill="black" stroke="black" points="230.37,-146.51 230.54,-135.92 223.8,-144.09 230.37,-146.51"/>
</g>
<!-- 4534522096 -->
<g id="node4" class="node">
<title>4534522096</title>
<path fill="lightgray" stroke="lightgray" d="M49.94,-25C49.94,-25 88.19,-25 88.19,-25 94.19,-25 100.19,-31 100.19,-37 100.19,-37 100.19,-49 100.19,-49 100.19,-55 94.19,-61 88.19,-61 88.19,-61 49.94,-61 49.94,-61 43.94,-61 37.94,-55 37.94,-49 37.94,-49 37.94,-37 37.94,-37 37.94,-31 43.94,-25 49.94,-25"/>
<text xml:space="preserve" text-anchor="middle" x="47.81" y="-37.95" font-family="Times,serif" font-size="14.00"> </text>
<polyline fill="none" stroke="lightgray" points="57.69,-25 57.69,-61"/>
<text xml:space="preserve" text-anchor="middle" x="69.06" y="-37.95" font-family="Times,serif" font-size="14.00">9</text>
<polyline fill="none" stroke="lightgray" points="80.44,-25 80.44,-61"/>
<text xml:space="preserve" text-anchor="middle" x="90.31" y="-37.95" font-family="Times,serif" font-size="14.00"> </text>
</g>
<!-- 4534528256&#45;&gt;4534522096 -->
<g id="edge3" class="edge">
<title>4534528256:l&#45;&gt;4534522096:v</title>
<path fill="none" stroke="black" d="M100.44,-97.5C100.44,-80.92 81.29,-81.23 72.91,-72.04"/>
<polygon fill="black" stroke="black" points="76.3,-71.11 69.58,-62.92 69.72,-73.52 76.3,-71.11"/>
</g>
<!-- 4534521536 -->
<g id="node5" class="node">
<title>4534521536</title>
<path fill="lightgray" stroke="lightgray" d="M129.94,-25C129.94,-25 168.19,-25 168.19,-25 174.19,-25 180.19,-31 180.19,-37 180.19,-37 180.19,-49 180.19,-49 180.19,-55 174.19,-61 168.19,-61 168.19,-61 129.94,-61 129.94,-61 123.94,-61 117.94,-55 117.94,-49 117.94,-49 117.94,-37 117.94,-37 117.94,-31 123.94,-25 129.94,-25"/>
<text xml:space="preserve" text-anchor="middle" x="127.81" y="-37.95" font-family="Times,serif" font-size="14.00"> </text>
<polyline fill="none" stroke="lightgray" points="137.69,-25 137.69,-61"/>
<text xml:space="preserve" text-anchor="middle" x="149.06" y="-37.95" font-family="Times,serif" font-size="14.00">3</text>
<polyline fill="none" stroke="lightgray" points="160.44,-25 160.44,-61"/>
<text xml:space="preserve" text-anchor="middle" x="170.31" y="-37.95" font-family="Times,serif" font-size="14.00"> </text>
</g>
<!-- 4534528256&#45;&gt;4534521536 -->
<g id="edge4" class="edge">
<title>4534528256:r&#45;&gt;4534521536:v</title>
<path fill="none" stroke="black" d="M149.69,-97.5C149.69,-86.12 149.37,-80.82 149.19,-72.95"/>
<polygon fill="black" stroke="black" points="152.69,-72.97 149.08,-63.01 145.69,-73.05 152.69,-72.97"/>
</g>
<!-- 4534529600 -->
<g id="node6" class="node">
<title>4534529600</title>
<path fill="lightgray" stroke="green" d="M210.56,-25C210.56,-25 255.56,-25 255.56,-25 261.56,-25 267.56,-31 267.56,-37 267.56,-37 267.56,-49 267.56,-49 267.56,-55 261.56,-61 255.56,-61 255.56,-61 210.56,-61 210.56,-61 204.56,-61 198.56,-55 198.56,-49 198.56,-49 198.56,-37 198.56,-37 198.56,-31 204.56,-25 210.56,-25"/>
<text xml:space="preserve" text-anchor="middle" x="208.44" y="-37.95" font-family="Times,serif" font-size="14.00"> </text>
<polyline fill="none" stroke="green" points="218.31,-25 218.31,-61"/>
<text xml:space="preserve" text-anchor="middle" x="233.06" y="-37.95" font-family="Times,serif" font-size="14.00">17</text>
<polyline fill="none" stroke="green" points="247.81,-25 247.81,-61"/>
<text xml:space="preserve" text-anchor="middle" x="257.69" y="-37.95" font-family="Times,serif" font-size="14.00"> </text>
</g>
<!-- 4534518624&#45;&gt;4534529600 -->
<g id="edge5" class="edge">
<title>4534518624:l&#45;&gt;4534529600:v</title>
<path fill="none" stroke="black" d="M209.81,-97.5C209.81,-83.07 223.16,-80.77 229.63,-72.22"/>
<polygon fill="black" stroke="black" points="232.89,-73.53 232.6,-62.94 226.22,-71.4 232.89,-73.53"/>
</g>
</g>
</svg>
