<?xml version="1.0" encoding="UTF-8" standalone="no"?>
<!DOCTYPE svg PUBLIC "-//W3C//DTD SVG 1.1//EN"
 "http://www.w3.org/Graphics/SVG/1.1/DTD/svg11.dtd">
<!-- Generated by graphviz version 14.0.0 (20250921.2048)
 -->
<!-- Pages: 1 -->
<svg width="782pt" height="44pt"
 viewBox="0.00 0.00 782.00 44.00" xmlns="http://www.w3.org/2000/svg" xmlns:xlink="http://www.w3.org/1999/xlink">
<g id="graph0" class="graph" transform="scale(1 1) rotate(0) translate(4 40)">
<polygon fill="white" stroke="none" points="-4,4 -4,-40 778,-40 778,4 -4,4"/>
<!-- 3 -->
<g id="node1" class="node">
<title>3</title>
<ellipse fill="none" stroke="black" cx="27" cy="-18" rx="27" ry="18"/>
<text xml:space="preserve" text-anchor="middle" x="27" y="-12.95" font-family="Times,serif" font-size="14.00">3</text>
</g>
<!-- 5 -->
<g id="node2" class="node">
<title>5</title>
<ellipse fill="none" stroke="black" cx="117" cy="-18" rx="27" ry="18"/>
<text xml:space="preserve" text-anchor="middle" x="117" y="-12.95" font-family="Times,serif" font-size="14.00">5</text>
</g>
<!-- 5&#45;&gt;3 -->
<g id="edge1" class="edge">
<title>5&#45;&gt;3</title>
<path fill="none" stroke="black" d="M89.6,-18C82.11,-18 73.82,-18 65.8,-18"/>
<polygon fill="black" stroke="black" points="65.9,-14.5 55.9,-18 65.9,-21.5 65.9,-14.5"/>
</g>
<!-- 6 -->
<g id="node3" class="node">
<title>6</title>
<ellipse fill="none" stroke="black" cx="207" cy="-18" rx="27" ry="18"/>
<text xml:space="preserve" text-anchor="middle" x="207" y="-12.95" font-family="Times,serif" font-size="14.00">6</text>
</g>
<!-- 6&#45;&gt;5 -->
<g id="edge2" class="edge">
<title>6&#45;&gt;5</title>
<path fill="none" stroke="black" d="M179.6,-18C172.11,-18 163.82,-18 155.8,-18"/>
<polygon fill="black" stroke="black" points="155.9,-14.5 145.9,-18 155.9,-21.5 155.9,-14.5"/>
</g>
<!-- 9 -->
<g id="node4" class="node">
<title>9</title>
<ellipse fill="none" stroke="black" cx="297" cy="-18" rx="27" ry="18"/>
<text xml:space="preserve" text-anchor="middle" x="297" y="-12.95" font-family="Times,serif" font-size="14.00">9</text>
</g>
<!-- 9&#45;&gt;6 -->
<g id="edge3" class="edge">
<title>9&#45;&gt;6</title>
<path fill="none" stroke="black" d="M269.6,-18C262.11,-18 253.82,-18 245.8,-18"/>
<polygon fill="black" stroke="black" points="245.9,-14.5 235.9,-18 245.9,-21.5 245.9,-14.5"/>
</g>
<!-- 10 -->
<g id="node5" class="node">
<title>10</title>
<ellipse fill="none" stroke="black" cx="387" cy="-18" rx="27" ry="18"/>
<text xml:space="preserve" text-anchor="middle" x="387" y="-12.95" font-family="Times,serif" font-size="14.00">10</text>
</g>
<!-- 10&#45;&gt;9 -->
<g id="edge4" class="edge">
<title>10&#45;&gt;9</title>
<path fill="none" stroke="black" d="M359.6,-18C352.11,-18 343.82,-18 335.8,-18"/>
<polygon fill="black" stroke="black" points="335.9,-14.5 325.9,-18 335.9,-21.5 335.9,-14.5"/>
</g>
<!-- 17 -->
<g id="node6" class="node">
<title>17</title>
<ellipse fill="none" stroke="black" cx="477" cy="-18" rx="27" ry="18"/>
<text xml:space="preserve" text-anchor="middle" x="477" y="-12.95" font-family="Times,serif" font-size="14.00">17</text>
</g>
<!-- 17&#45;&gt;10 -->
<g id="edge5" class="edge">
<title>17&#45;&gt;10</title>
<path fill="none" stroke="black" d="M449.6,-18C442.11,-18 433.82,-18 425.8,-18"/>
<polygon fill="black" stroke="black" points="425.9,-14.5 415.9,-18 425.9,-21.5 425.9,-14.5"/>
</g>
<!-- 19 -->
<g id="node7" class="node">
<title>19</title>
<ellipse fill="none" stroke="black" cx="567" cy="-18" rx="27" ry="18"/>
<text xml:space="preserve" text-anchor="middle" x="567" y="-12.95" font-family="Times,serif" font-size="14.00">19</text>
</g>
<!-- 19&#45;&gt;17 -->
<g id="edge6" class="edge">
<title>19&#45;&gt;17</title>
<path fill="none" stroke="black" d="M539.6,-18C532.11,-18 523.82,-18 515.8,-18"/>
<polygon fill="black" stroke="black" points="515.9,-14.5 505.9,-18 515.9,-21.5 515.9,-14.5"/>
</g>
<!-- 22 -->
<g id="node8" class="node">
<title>22</title>
<ellipse fill="none" stroke="black" cx="657" cy="-18" rx="27" ry="18"/>
<text xml:space="preserve" text-anchor="middle" x="657" y="-12.95" font-family="Times,serif" font-size="14.00">22</text>
</g>
<!-- 22&#45;&gt;19 -->
<g id="edge7" class="edge">
<title>22&#45;&gt;19</title>
<path fill="none" stroke="black" d="M629.6,-18C622.11,-18 613.82,-18 605.8,-18"/>
<polygon fill="black" stroke="black" points="605.9,-14.5 595.9,-18 605.9,-21.5 605.9,-14.5"/>
</g>
<!-- 84 -->
<g id="node9" class="node">
<title>84</title>
<ellipse fill="none" stroke="black" cx="747" cy="-18" rx="27" ry="18"/>
<text xml:space="preserve" text-anchor="middle" x="747" y="-12.95" font-family="Times,serif" font-size="14.00">84</text>
</g>
<!-- 84&#45;&gt;22 -->
<g id="edge8" class="edge">
<title>84&#45;&gt;22</title>
<path fill="none" stroke="black" d="M719.6,-18C712.11,-18 703.82,-18 695.8,-18"/>
<polygon fill="black" stroke="black" points="695.9,-14.5 685.9,-18 695.9,-21.5 695.9,-14.5"/>
</g>
</g>
</svg>
