<?xml version="1.0" encoding="UTF-8" standalone="no"?>
<!DOCTYPE svg PUBLIC "-//W3C//DTD SVG 1.1//EN"
 "http://www.w3.org/Graphics/SVG/1.1/DTD/svg11.dtd">
<!-- Generated by graphviz version 14.0.0 (20250921.2048)
 -->
<!-- Pages: 1 -->
<svg width="390pt" height="289pt"
 viewBox="0.00 0.00 390.00 289.00" xmlns="http://www.w3.org/2000/svg" xmlns:xlink="http://www.w3.org/1999/xlink">
<g id="graph0" class="graph" transform="scale(1 1) rotate(0) translate(4 284.5)">
<polygon fill="white" stroke="none" points="-4,4 -4,-284.5 386.25,-284.5 386.25,4 -4,4"/>
<text xml:space="preserve" text-anchor="middle" x="191.12" y="-7.2" font-family="Times,serif" font-size="14.00">MaxHeap [13, 12, 9, 6, 1, 8, 7, 0, 5, 2, 1], heapsize: 10</text>
<!-- 4534518848 -->
<g id="node1" class="node">
<title>4534518848</title>
<path fill="lightgray" stroke="lightgray" d="M206.62,-244C206.62,-244 251.62,-244 251.62,-244 257.62,-244 263.62,-250 263.62,-256 263.62,-256 263.62,-268 263.62,-268 263.62,-274 257.62,-280 251.62,-280 251.62,-280 206.62,-280 206.62,-280 200.62,-280 194.62,-274 194.62,-268 194.62,-268 194.62,-256 194.62,-256 194.62,-250 200.62,-244 206.62,-244"/>
<text xml:space="preserve" text-anchor="middle" x="204.5" y="-256.95" font-family="Times,serif" font-size="14.00"> </text>
<polyline fill="none" stroke="lightgray" points="214.38,-244 214.38,-280"/>
<text xml:space="preserve" text-anchor="middle" x="229.12" y="-256.95" font-family="Times,serif" font-size="14.00">13</text>
<polyline fill="none" stroke="lightgray" points="243.88,-244 243.88,-280"/>
<text xml:space="preserve" text-anchor="middle" x="253.75" y="-256.95" font-family="Times,serif" font-size="14.00"> </text>
</g>
<!-- 4534531392 -->
<g id="node2" class="node">
<title>4534531392</title>
<path fill="lightgray" stroke="green" d="M144.62,-171C144.62,-171 189.62,-171 189.62,-171 195.62,-171 201.62,-177 201.62,-183 201.62,-183 201.62,-195 201.62,-195 201.62,-201 195.62,-207 189.62,-207 189.62,-207 144.62,-207 144.62,-207 138.62,-207 132.62,-201 132.62,-195 132.62,-195 132.62,-183 132.62,-183 132.62,-177 138.62,-171 144.62,-171"/>
<text xml:space="preserve" text-anchor="middle" x="142.5" y="-183.95" font-family="Times,serif" font-size="14.00"> </text>
<polyline fill="none" stroke="green" points="152.38,-171 152.38,-207"/>
<text xml:space="preserve" text-anchor="middle" x="167.12" y="-183.95" font-family="Times,serif" font-size="14.00">12</text>
<polyline fill="none" stroke="green" points="181.88,-171 181.88,-207"/>
<text xml:space="preserve" text-anchor="middle" x="191.75" y="-183.95" font-family="Times,serif" font-size="14.00"> </text>
</g>
<!-- 4534518848&#45;&gt;4534531392 -->
<g id="edge1" class="edge">
<title>4534518848:l&#45;&gt;4534531392:v</title>
<path fill="none" stroke="black" d="M204.5,-243.5C204.5,-225.12 180.77,-227.82 171.12,-218"/>
<polygon fill="black" stroke="black" points="174.49,-217.01 167.66,-208.91 167.95,-219.51 174.49,-217.01"/>
</g>
<!-- 4534531840 -->
<g id="node3" class="node">
<title>4534531840</title>
<path fill="lightgray" stroke="lightgray" d="M273,-171C273,-171 311.25,-171 311.25,-171 317.25,-171 323.25,-177 323.25,-183 323.25,-183 323.25,-195 323.25,-195 323.25,-201 317.25,-207 311.25,-207 311.25,-207 273,-207 273,-207 267,-207 261,-201 261,-195 261,-195 261,-183 261,-183 261,-177 267,-171 273,-171"/>
<text xml:space="preserve" text-anchor="middle" x="270.88" y="-183.95" font-family="Times,serif" font-size="14.00"> </text>
<polyline fill="none" stroke="lightgray" points="280.75,-171 280.75,-207"/>
<text xml:space="preserve" text-anchor="middle" x="292.12" y="-183.95" font-family="Times,serif" font-size="14.00">9</text>
<polyline fill="none" stroke="lightgray" points="303.5,-171 303.5,-207"/>
<text xml:space="preserve" text-anchor="middle" x="313.38" y="-183.95" font-family="Times,serif" font-size="14.00"> </text>
</g>
<!-- 4534518848&#45;&gt;4534531840 -->
<g id="edge2" class="edge">
<title>4534518848:r&#45;&gt;4534531840:v</title>
<path fill="none" stroke="black" d="M253.75,-243.5C253.75,-224.86 278.12,-227.92 288.02,-218.1"/>
<polygon fill="black" stroke="black" points="291.23,-219.5 291.58,-208.91 284.7,-216.97 291.23,-219.5"/>
</g>
<!-- 4534518512 -->
<g id="node4" class="node">
<title>4534518512</title>
<path fill="lightgray" stroke="lightgray" d="M71,-98C71,-98 109.25,-98 109.25,-98 115.25,-98 121.25,-104 121.25,-110 121.25,-110 121.25,-122 121.25,-122 121.25,-128 115.25,-134 109.25,-134 109.25,-134 71,-134 71,-134 65,-134 59,-128 59,-122 59,-122 59,-110 59,-110 59,-104 65,-98 71,-98"/>
<text xml:space="preserve" text-anchor="middle" x="68.88" y="-110.95" font-family="Times,serif" font-size="14.00"> </text>
<polyline fill="none" stroke="lightgray" points="78.75,-98 78.75,-134"/>
<text xml:space="preserve" text-anchor="middle" x="90.12" y="-110.95" font-family="Times,serif" font-size="14.00">6</text>
<polyline fill="none" stroke="lightgray" points="101.5,-98 101.5,-134"/>
<text xml:space="preserve" text-anchor="middle" x="111.38" y="-110.95" font-family="Times,serif" font-size="14.00"> </text>
</g>
<!-- 4534531392&#45;&gt;4534518512 -->
<g id="edge3" class="edge">
<title>4534531392:l&#45;&gt;4534518512:v</title>
<path fill="none" stroke="black" d="M142.5,-170.5C142.5,-147.11 106.58,-157.14 94.23,-145.24"/>
<polygon fill="black" stroke="black" points="97.51,-144 90.67,-135.91 90.97,-146.5 97.51,-144"/>
</g>
<!-- 4534529488 -->
<g id="node5" class="node">
<title>4534529488</title>
<path fill="lightgray" stroke="green" d="M172,-98C172,-98 210.25,-98 210.25,-98 216.25,-98 222.25,-104 222.25,-110 222.25,-110 222.25,-122 222.25,-122 222.25,-128 216.25,-134 210.25,-134 210.25,-134 172,-134 172,-134 166,-134 160,-128 160,-122 160,-122 160,-110 160,-110 160,-104 166,-98 172,-98"/>
<text xml:space="preserve" text-anchor="middle" x="169.88" y="-110.95" font-family="Times,serif" font-size="14.00"> </text>
<polyline fill="none" stroke="green" points="179.75,-98 179.75,-134"/>
<text xml:space="preserve" text-anchor="middle" x="191.12" y="-110.95" font-family="Times,serif" font-size="14.00">1</text>
<polyline fill="none" stroke="green" points="202.5,-98 202.5,-134"/>
<text xml:space="preserve" text-anchor="middle" x="212.38" y="-110.95" font-family="Times,serif" font-size="14.00"> </text>
</g>
<!-- 4534531392&#45;&gt;4534529488 -->
<g id="edge4" class="edge">
<title>4534531392:r&#45;&gt;4534529488:v</title>
<path fill="none" stroke="black" d="M191.75,-170.5C191.75,-159.12 191.43,-153.82 191.25,-145.95"/>
<polygon fill="black" stroke="black" points="194.75,-145.97 191.14,-136.01 187.75,-146.05 194.75,-145.97"/>
</g>
<!-- 4534525344 -->
<g id="node6" class="node">
<title>4534525344</title>
<path fill="lightgray" stroke="lightgray" d="M252,-98C252,-98 290.25,-98 290.25,-98 296.25,-98 302.25,-104 302.25,-110 302.25,-110 302.25,-122 302.25,-122 302.25,-128 296.25,-134 290.25,-134 290.25,-134 252,-134 252,-134 246,-134 240,-128 240,-122 240,-122 240,-110 240,-110 240,-104 246,-98 252,-98"/>
<text xml:space="preserve" text-anchor="middle" x="249.88" y="-110.95" font-family="Times,serif" font-size="14.00"> </text>
<polyline fill="none" stroke="lightgray" points="259.75,-98 259.75,-134"/>
<text xml:space="preserve" text-anchor="middle" x="271.12" y="-110.95" font-family="Times,serif" font-size="14.00">8</text>
<polyline fill="none" stroke="lightgray" points="282.5,-98 282.5,-134"/>
<text xml:space="preserve" text-anchor="middle" x="292.38" y="-110.95" font-family="Times,serif" font-size="14.00"> </text>
</g>
<!-- 4534531840&#45;&gt;4534525344 -->
<g id="edge5" class="edge">
<title>4534531840:l&#45;&gt;4534525344:v</title>
<path fill="none" stroke="black" d="M270.88,-170.5C270.88,-159.12 271,-153.82 271.07,-145.95"/>
<polygon fill="black" stroke="black" points="274.57,-146.03 271.12,-136.01 267.57,-146 274.57,-146.03"/>
</g>
<!-- 4534520864 -->
<g id="node7" class="node">
<title>4534520864</title>
<path fill="lightgray" stroke="lightgray" d="M332,-98C332,-98 370.25,-98 370.25,-98 376.25,-98 382.25,-104 382.25,-110 382.25,-110 382.25,-122 382.25,-122 382.25,-128 376.25,-134 370.25,-134 370.25,-134 332,-134 332,-134 326,-134 320,-128 320,-122 320,-122 320,-110 320,-110 320,-104 326,-98 332,-98"/>
<text xml:space="preserve" text-anchor="middle" x="329.88" y="-110.95" font-family="Times,serif" font-size="14.00"> </text>
<polyline fill="none" stroke="lightgray" points="339.75,-98 339.75,-134"/>
<text xml:space="preserve" text-anchor="middle" x="351.12" y="-110.95" font-family="Times,serif" font-size="14.00">7</text>
<polyline fill="none" stroke="lightgray" points="362.5,-98 362.5,-134"/>
<text xml:space="preserve" text-anchor="middle" x="372.38" y="-110.95" font-family="Times,serif" font-size="14.00"> </text>
</g>
<!-- 4534531840&#45;&gt;4534520864 -->
<g id="edge6" class="edge">
<title>4534531840:r&#45;&gt;4534520864:v</title>
<path fill="none" stroke="black" d="M313.38,-170.5C313.38,-152.03 337.35,-154.86 347.09,-145.04"/>
<polygon fill="black" stroke="black" points="350.27,-146.5 350.58,-135.91 343.74,-144 350.27,-146.5"/>
</g>
<!-- 4534527920 -->
<g id="node8" class="node">
<title>4534527920</title>
<path fill="lightgray" stroke="lightgray" d="M12,-25C12,-25 50.25,-25 50.25,-25 56.25,-25 62.25,-31 62.25,-37 62.25,-37 62.25,-49 62.25,-49 62.25,-55 56.25,-61 50.25,-61 50.25,-61 12,-61 12,-61 6,-61 0,-55 0,-49 0,-49 0,-37 0,-37 0,-31 6,-25 12,-25"/>
<text xml:space="preserve" text-anchor="middle" x="9.88" y="-37.95" font-family="Times,serif" font-size="14.00"> </text>
<polyline fill="none" stroke="lightgray" points="19.75,-25 19.75,-61"/>
<text xml:space="preserve" text-anchor="middle" x="31.12" y="-37.95" font-family="Times,serif" font-size="14.00">0</text>
<polyline fill="none" stroke="lightgray" points="42.5,-25 42.5,-61"/>
<text xml:space="preserve" text-anchor="middle" x="52.38" y="-37.95" font-family="Times,serif" font-size="14.00"> </text>
</g>
<!-- 4534518512&#45;&gt;4534527920 -->
<g id="edge7" class="edge">
<title>4534518512:l&#45;&gt;4534527920:v</title>
<path fill="none" stroke="black" d="M68.88,-97.5C68.88,-79.03 44.9,-81.86 35.16,-72.04"/>
<polygon fill="black" stroke="black" points="38.51,-71 31.67,-62.91 31.98,-73.5 38.51,-71"/>
</g>
<!-- 4534530160 -->
<g id="node9" class="node">
<title>4534530160</title>
<path fill="lightgray" stroke="lightgray" d="M92,-25C92,-25 130.25,-25 130.25,-25 136.25,-25 142.25,-31 142.25,-37 142.25,-37 142.25,-49 142.25,-49 142.25,-55 136.25,-61 130.25,-61 130.25,-61 92,-61 92,-61 86,-61 80,-55 80,-49 80,-49 80,-37 80,-37 80,-31 86,-25 92,-25"/>
<text xml:space="preserve" text-anchor="middle" x="89.88" y="-37.95" font-family="Times,serif" font-size="14.00"> </text>
<polyline fill="none" stroke="lightgray" points="99.75,-25 99.75,-61"/>
<text xml:space="preserve" text-anchor="middle" x="111.12" y="-37.95" font-family="Times,serif" font-size="14.00">5</text>
<polyline fill="none" stroke="lightgray" points="122.5,-25 122.5,-61"/>
<text xml:space="preserve" text-anchor="middle" x="132.38" y="-37.95" font-family="Times,serif" font-size="14.00"> </text>
</g>
<!-- 4534518512&#45;&gt;4534530160 -->
<g id="edge8" class="edge">
<title>4534518512:r&#45;&gt;4534530160:v</title>
<path fill="none" stroke="black" d="M111.38,-97.5C111.38,-86.12 111.25,-80.82 111.18,-72.95"/>
<polygon fill="black" stroke="black" points="114.68,-73 111.13,-63.01 107.68,-73.03 114.68,-73"/>
</g>
<!-- 4534530272 -->
<g id="node10" class="node">
<title>4534530272</title>
<path fill="lightgray" stroke="lightgray" d="M172,-25C172,-25 210.25,-25 210.25,-25 216.25,-25 222.25,-31 222.25,-37 222.25,-37 222.25,-49 222.25,-49 222.25,-55 216.25,-61 210.25,-61 210.25,-61 172,-61 172,-61 166,-61 160,-55 160,-49 160,-49 160,-37 160,-37 160,-31 166,-25 172,-25"/>
<text xml:space="preserve" text-anchor="middle" x="169.88" y="-37.95" font-family="Times,serif" font-size="14.00"> </text>
<polyline fill="none" stroke="lightgray" points="179.75,-25 179.75,-61"/>
<text xml:space="preserve" text-anchor="middle" x="191.12" y="-37.95" font-family="Times,serif" font-size="14.00">2</text>
<polyline fill="none" stroke="lightgray" points="202.5,-25 202.5,-61"/>
<text xml:space="preserve" text-anchor="middle" x="212.38" y="-37.95" font-family="Times,serif" font-size="14.00"> </text>
</g>
<!-- 4534529488&#45;&gt;4534530272 -->
<g id="edge9" class="edge">
<title>4534529488:l&#45;&gt;4534530272:v</title>
<path fill="none" stroke="black" d="M169.88,-97.5C169.88,-83.57 181.83,-80.73 187.8,-72.35"/>
<polygon fill="black" stroke="black" points="191.1,-73.53 190.68,-62.95 184.41,-71.49 191.1,-73.53"/>
</g>
</g>
</svg>
