<?xml version="1.0" encoding="UTF-8" standalone="no"?>
<!DOCTYPE svg PUBLIC "-//W3C//DTD SVG 1.1//EN"
 "http://www.w3.org/Graphics/SVG/1.1/DTD/svg11.dtd">
<!-- Generated by graphviz version 14.0.0 (20250921.2048)
 -->
<!-- Pages: 1 -->
<svg width="411pt" height="289pt"
 viewBox="0.00 0.00 411.00 289.00" xmlns="http://www.w3.org/2000/svg" xmlns:xlink="http://www.w3.org/1999/xlink">
<g id="graph0" class="graph" transform="scale(1 1) rotate(0) translate(4 284.5)">
<polygon fill="white" stroke="none" points="-4,4 -4,-284.5 407.25,-284.5 407.25,4 -4,4"/>
<text xml:space="preserve" text-anchor="middle" x="201.62" y="-7.2" font-family="Times,serif" font-size="14.00">MaxHeap [13, 12, 9, 6, 1, 8, 7, 0, 5, 2, 1], heapsize: 10</text>
<!-- 4495600544 -->
<g id="node1" class="node">
<title>4495600544</title>
<path fill="lightgray" stroke="lightgray" d="M239.62,-244C239.62,-244 284.62,-244 284.62,-244 290.62,-244 296.62,-250 296.62,-256 296.62,-256 296.62,-268 296.62,-268 296.62,-274 290.62,-280 284.62,-280 284.62,-280 239.62,-280 239.62,-280 233.62,-280 227.62,-274 227.62,-268 227.62,-268 227.62,-256 227.62,-256 227.62,-250 233.62,-244 239.62,-244"/>
<text xml:space="preserve" text-anchor="middle" x="237.5" y="-256.95" font-family="Times,serif" font-size="14.00"> </text>
<polyline fill="none" stroke="lightgray" points="247.38,-244 247.38,-280"/>
<text xml:space="preserve" text-anchor="middle" x="262.12" y="-256.95" font-family="Times,serif" font-size="14.00">13</text>
<polyline fill="none" stroke="lightgray" points="276.88,-244 276.88,-280"/>
<text xml:space="preserve" text-anchor="middle" x="286.75" y="-256.95" font-family="Times,serif" font-size="14.00"> </text>
</g>
<!-- 4495595056 -->
<g id="node2" class="node">
<title>4495595056</title>
<path fill="lightgray" stroke="green" d="M177.62,-171C177.62,-171 222.62,-171 222.62,-171 228.62,-171 234.62,-177 234.62,-183 234.62,-183 234.62,-195 234.62,-195 234.62,-201 228.62,-207 222.62,-207 222.62,-207 177.62,-207 177.62,-207 171.62,-207 165.62,-201 165.62,-195 165.62,-195 165.62,-183 165.62,-183 165.62,-177 171.62,-171 177.62,-171"/>
<text xml:space="preserve" text-anchor="middle" x="175.5" y="-183.95" font-family="Times,serif" font-size="14.00"> </text>
<polyline fill="none" stroke="green" points="185.38,-171 185.38,-207"/>
<text xml:space="preserve" text-anchor="middle" x="200.12" y="-183.95" font-family="Times,serif" font-size="14.00">12</text>
<polyline fill="none" stroke="green" points="214.88,-171 214.88,-207"/>
<text xml:space="preserve" text-anchor="middle" x="224.75" y="-183.95" font-family="Times,serif" font-size="14.00"> </text>
</g>
<!-- 4495600544&#45;&gt;4495595056 -->
<g id="edge1" class="edge">
<title>4495600544:l&#45;&gt;4495595056:v</title>
<path fill="none" stroke="black" d="M237.5,-243.5C237.5,-225.12 213.77,-227.82 204.12,-218"/>
<polygon fill="black" stroke="black" points="207.49,-217.01 200.66,-208.91 200.95,-219.51 207.49,-217.01"/>
</g>
<!-- 4495596288 -->
<g id="node3" class="node">
<title>4495596288</title>
<path fill="lightgray" stroke="lightgray" d="M294,-171C294,-171 332.25,-171 332.25,-171 338.25,-171 344.25,-177 344.25,-183 344.25,-183 344.25,-195 344.25,-195 344.25,-201 338.25,-207 332.25,-207 332.25,-207 294,-207 294,-207 288,-207 282,-201 282,-195 282,-195 282,-183 282,-183 282,-177 288,-171 294,-171"/>
<text xml:space="preserve" text-anchor="middle" x="291.88" y="-183.95" font-family="Times,serif" font-size="14.00"> </text>
<polyline fill="none" stroke="lightgray" points="301.75,-171 301.75,-207"/>
<text xml:space="preserve" text-anchor="middle" x="313.12" y="-183.95" font-family="Times,serif" font-size="14.00">9</text>
<polyline fill="none" stroke="lightgray" points="324.5,-171 324.5,-207"/>
<text xml:space="preserve" text-anchor="middle" x="334.38" y="-183.95" font-family="Times,serif" font-size="14.00"> </text>
</g>
<!-- 4495600544&#45;&gt;4495596288 -->
<g id="edge2" class="edge">
<title>4495600544:r&#45;&gt;4495596288:v</title>
<path fill="none" stroke="black" d="M286.75,-243.5C286.75,-228.31 302.21,-226.91 309.46,-218.18"/>
<polygon fill="black" stroke="black" points="312.7,-219.53 312.63,-208.93 306.07,-217.25 312.7,-219.53"/>
</g>
<!-- 4495592256 -->
<g id="node4" class="node">
<title>4495592256</title>
<path fill="lightgray" stroke="lightgray" d="M71,-98C71,-98 109.25,-98 109.25,-98 115.25,-98 121.25,-104 121.25,-110 121.25,-110 121.25,-122 121.25,-122 121.25,-128 115.25,-134 109.25,-134 109.25,-134 71,-134 71,-134 65,-134 59,-128 59,-122 59,-122 59,-110 59,-110 59,-104 65,-98 71,-98"/>
<text xml:space="preserve" text-anchor="middle" x="68.88" y="-110.95" font-family="Times,serif" font-size="14.00"> </text>
<polyline fill="none" stroke="lightgray" points="78.75,-98 78.75,-134"/>
<text xml:space="preserve" text-anchor="middle" x="90.12" y="-110.95" font-family="Times,serif" font-size="14.00">6</text>
<polyline fill="none" stroke="lightgray" points="101.5,-98 101.5,-134"/>
<text xml:space="preserve" text-anchor="middle" x="111.38" y="-110.95" font-family="Times,serif" font-size="14.00"> </text>
</g>
<!-- 4495595056&#45;&gt;4495592256 -->
<g id="edge3" class="edge">
<title>4495595056:l&#45;&gt;4495592256:v</title>
<path fill="none" stroke="black" d="M175.5,-170.5C175.5,-133.99 108.37,-166.3 93.16,-145.38"/>
<polygon fill="black" stroke="black" points="96.59,-144.65 90.53,-135.96 89.85,-146.53 96.59,-144.65"/>
</g>
<!-- 4495602896 -->
<g id="node5" class="node">
<title>4495602896</title>
<path fill="lightgray" stroke="green" d="M193,-98C193,-98 231.25,-98 231.25,-98 237.25,-98 243.25,-104 243.25,-110 243.25,-110 243.25,-122 243.25,-122 243.25,-128 237.25,-134 231.25,-134 231.25,-134 193,-134 193,-134 187,-134 181,-128 181,-122 181,-122 181,-110 181,-110 181,-104 187,-98 193,-98"/>
<text xml:space="preserve" text-anchor="middle" x="190.88" y="-110.95" font-family="Times,serif" font-size="14.00"> </text>
<polyline fill="none" stroke="green" points="200.75,-98 200.75,-134"/>
<text xml:space="preserve" text-anchor="middle" x="212.12" y="-110.95" font-family="Times,serif" font-size="14.00">1</text>
<polyline fill="none" stroke="green" points="223.5,-98 223.5,-134"/>
<text xml:space="preserve" text-anchor="middle" x="233.38" y="-110.95" font-family="Times,serif" font-size="14.00"> </text>
</g>
<!-- 4495595056&#45;&gt;4495602896 -->
<g id="edge4" class="edge">
<title>4495595056:r&#45;&gt;4495602896:v</title>
<path fill="none" stroke="black" d="M224.75,-170.5C224.75,-158.18 218.09,-153.71 214.44,-145.68"/>
<polygon fill="black" stroke="black" points="217.89,-145.06 212.43,-135.98 211.03,-146.48 217.89,-145.06"/>
</g>
<!-- 4495598304 -->
<g id="node6" class="node">
<title>4495598304</title>
<path fill="lightgray" stroke="lightgray" d="M273,-98C273,-98 311.25,-98 311.25,-98 317.25,-98 323.25,-104 323.25,-110 323.25,-110 323.25,-122 323.25,-122 323.25,-128 317.25,-134 311.25,-134 311.25,-134 273,-134 273,-134 267,-134 261,-128 261,-122 261,-122 261,-110 261,-110 261,-104 267,-98 273,-98"/>
<text xml:space="preserve" text-anchor="middle" x="270.88" y="-110.95" font-family="Times,serif" font-size="14.00"> </text>
<polyline fill="none" stroke="lightgray" points="280.75,-98 280.75,-134"/>
<text xml:space="preserve" text-anchor="middle" x="292.12" y="-110.95" font-family="Times,serif" font-size="14.00">8</text>
<polyline fill="none" stroke="lightgray" points="303.5,-98 303.5,-134"/>
<text xml:space="preserve" text-anchor="middle" x="313.38" y="-110.95" font-family="Times,serif" font-size="14.00"> </text>
</g>
<!-- 4495596288&#45;&gt;4495598304 -->
<g id="edge5" class="edge">
<title>4495596288:l&#45;&gt;4495598304:v</title>
<path fill="none" stroke="black" d="M291.88,-170.5C291.88,-159.12 292,-153.82 292.07,-145.95"/>
<polygon fill="black" stroke="black" points="295.57,-146.03 292.12,-136.01 288.57,-146 295.57,-146.03"/>
</g>
<!-- 4495599312 -->
<g id="node7" class="node">
<title>4495599312</title>
<path fill="lightgray" stroke="lightgray" d="M353,-98C353,-98 391.25,-98 391.25,-98 397.25,-98 403.25,-104 403.25,-110 403.25,-110 403.25,-122 403.25,-122 403.25,-128 397.25,-134 391.25,-134 391.25,-134 353,-134 353,-134 347,-134 341,-128 341,-122 341,-122 341,-110 341,-110 341,-104 347,-98 353,-98"/>
<text xml:space="preserve" text-anchor="middle" x="350.88" y="-110.95" font-family="Times,serif" font-size="14.00"> </text>
<polyline fill="none" stroke="lightgray" points="360.75,-98 360.75,-134"/>
<text xml:space="preserve" text-anchor="middle" x="372.12" y="-110.95" font-family="Times,serif" font-size="14.00">7</text>
<polyline fill="none" stroke="lightgray" points="383.5,-98 383.5,-134"/>
<text xml:space="preserve" text-anchor="middle" x="393.38" y="-110.95" font-family="Times,serif" font-size="14.00"> </text>
</g>
<!-- 4495596288&#45;&gt;4495599312 -->
<g id="edge6" class="edge">
<title>4495596288:r&#45;&gt;4495599312:v</title>
<path fill="none" stroke="black" d="M334.38,-170.5C334.38,-152.03 358.35,-154.86 368.09,-145.04"/>
<polygon fill="black" stroke="black" points="371.27,-146.5 371.58,-135.91 364.74,-144 371.27,-146.5"/>
</g>
<!-- 4495600656 -->
<g id="node8" class="node">
<title>4495600656</title>
<path fill="lightgray" stroke="lightgray" d="M12,-25C12,-25 50.25,-25 50.25,-25 56.25,-25 62.25,-31 62.25,-37 62.25,-37 62.25,-49 62.25,-49 62.25,-55 56.25,-61 50.25,-61 50.25,-61 12,-61 12,-61 6,-61 0,-55 0,-49 0,-49 0,-37 0,-37 0,-31 6,-25 12,-25"/>
<text xml:space="preserve" text-anchor="middle" x="9.88" y="-37.95" font-family="Times,serif" font-size="14.00"> </text>
<polyline fill="none" stroke="lightgray" points="19.75,-25 19.75,-61"/>
<text xml:space="preserve" text-anchor="middle" x="31.12" y="-37.95" font-family="Times,serif" font-size="14.00">0</text>
<polyline fill="none" stroke="lightgray" points="42.5,-25 42.5,-61"/>
<text xml:space="preserve" text-anchor="middle" x="52.38" y="-37.95" font-family="Times,serif" font-size="14.00"> </text>
</g>
<!-- 4495592256&#45;&gt;4495600656 -->
<g id="edge7" class="edge">
<title>4495592256:l&#45;&gt;4495600656:v</title>
<path fill="none" stroke="black" d="M68.88,-97.5C68.88,-79.03 44.9,-81.86 35.16,-72.04"/>
<polygon fill="black" stroke="black" points="38.51,-71 31.67,-62.91 31.98,-73.5 38.51,-71"/>
</g>
<!-- 4495603344 -->
<g id="node9" class="node">
<title>4495603344</title>
<path fill="lightgray" stroke="lightgray" d="M92,-25C92,-25 130.25,-25 130.25,-25 136.25,-25 142.25,-31 142.25,-37 142.25,-37 142.25,-49 142.25,-49 142.25,-55 136.25,-61 130.25,-61 130.25,-61 92,-61 92,-61 86,-61 80,-55 80,-49 80,-49 80,-37 80,-37 80,-31 86,-25 92,-25"/>
<text xml:space="preserve" text-anchor="middle" x="89.88" y="-37.95" font-family="Times,serif" font-size="14.00"> </text>
<polyline fill="none" stroke="lightgray" points="99.75,-25 99.75,-61"/>
<text xml:space="preserve" text-anchor="middle" x="111.12" y="-37.95" font-family="Times,serif" font-size="14.00">5</text>
<polyline fill="none" stroke="lightgray" points="122.5,-25 122.5,-61"/>
<text xml:space="preserve" text-anchor="middle" x="132.38" y="-37.95" font-family="Times,serif" font-size="14.00"> </text>
</g>
<!-- 4495592256&#45;&gt;4495603344 -->
<g id="edge8" class="edge">
<title>4495592256:r&#45;&gt;4495603344:v</title>
<path fill="none" stroke="black" d="M111.38,-97.5C111.38,-86.12 111.25,-80.82 111.18,-72.95"/>
<polygon fill="black" stroke="black" points="114.68,-73 111.13,-63.01 107.68,-73.03 114.68,-73"/>
</g>
<!-- 4495602896&#45;&gt;4495595056 -->
<g id="edge11" class="edge">
<title>4495602896&#45;&gt;4495595056</title>
<path fill="none" stroke="green" d="M209.25,-134.03C207.95,-141.68 206.39,-150.92 204.93,-159.58"/>
<polygon fill="green" stroke="green" points="201.5,-158.88 203.28,-169.32 208.4,-160.04 201.5,-158.88"/>
</g>
<!-- 4495603680 -->
<g id="node10" class="node">
<title>4495603680</title>
<path fill="lightgray" stroke="lightgray" d="M172,-25C172,-25 210.25,-25 210.25,-25 216.25,-25 222.25,-31 222.25,-37 222.25,-37 222.25,-49 222.25,-49 222.25,-55 216.25,-61 210.25,-61 210.25,-61 172,-61 172,-61 166,-61 160,-55 160,-49 160,-49 160,-37 160,-37 160,-31 166,-25 172,-25"/>
<text xml:space="preserve" text-anchor="middle" x="169.88" y="-37.95" font-family="Times,serif" font-size="14.00"> </text>
<polyline fill="none" stroke="lightgray" points="179.75,-25 179.75,-61"/>
<text xml:space="preserve" text-anchor="middle" x="191.12" y="-37.95" font-family="Times,serif" font-size="14.00">2</text>
<polyline fill="none" stroke="lightgray" points="202.5,-25 202.5,-61"/>
<text xml:space="preserve" text-anchor="middle" x="212.38" y="-37.95" font-family="Times,serif" font-size="14.00"> </text>
</g>
<!-- 4495602896&#45;&gt;4495603680 -->
<g id="edge9" class="edge">
<title>4495602896:l&#45;&gt;4495603680:v</title>
<path fill="none" stroke="black" d="M190.88,-97.5C190.88,-86.12 191,-80.82 191.07,-72.95"/>
<polygon fill="black" stroke="black" points="194.57,-73.03 191.12,-63.01 187.57,-73 194.57,-73.03"/>
</g>
<!-- 4495599760 -->
<g id="node11" class="node">
<title>4495599760</title>
<path fill="lightgray" stroke="green" d="M252,-25C252,-25 290.25,-25 290.25,-25 296.25,-25 302.25,-31 302.25,-37 302.25,-37 302.25,-49 302.25,-49 302.25,-55 296.25,-61 290.25,-61 290.25,-61 252,-61 252,-61 246,-61 240,-55 240,-49 240,-49 240,-37 240,-37 240,-31 246,-25 252,-25"/>
<text xml:space="preserve" text-anchor="middle" x="249.88" y="-37.95" font-family="Times,serif" font-size="14.00"> </text>
<polyline fill="none" stroke="green" points="259.75,-25 259.75,-61"/>
<text xml:space="preserve" text-anchor="middle" x="271.12" y="-37.95" font-family="Times,serif" font-size="14.00">1</text>
<polyline fill="none" stroke="green" points="282.5,-25 282.5,-61"/>
<text xml:space="preserve" text-anchor="middle" x="292.38" y="-37.95" font-family="Times,serif" font-size="14.00"> </text>
</g>
<!-- 4495602896&#45;&gt;4495599760 -->
<g id="edge10" class="edge">
<title>4495602896:r&#45;&gt;4495599760:v</title>
<path fill="none" stroke="black" d="M233.38,-97.5C233.38,-79.03 257.35,-81.86 267.09,-72.04"/>
<polygon fill="black" stroke="black" points="270.27,-73.5 270.58,-62.91 263.74,-71 270.27,-73.5"/>
</g>
</g>
</svg>
