<?xml version="1.0" encoding="UTF-8" standalone="no"?>
<!DOCTYPE svg PUBLIC "-//W3C//DTD SVG 1.1//EN"
 "http://www.w3.org/Graphics/SVG/1.1/DTD/svg11.dtd">
<!-- Generated by graphviz version 14.0.0 (20250921.2048)
 -->
<!-- Pages: 1 -->
<svg width="371pt" height="289pt"
 viewBox="0.00 0.00 371.00 289.00" xmlns="http://www.w3.org/2000/svg" xmlns:xlink="http://www.w3.org/1999/xlink">
<g id="graph0" class="graph" transform="scale(1 1) rotate(0) translate(4 284.5)">
<polygon fill="white" stroke="none" points="-4,4 -4,-284.5 367,-284.5 367,4 -4,4"/>
<text xml:space="preserve" text-anchor="middle" x="181.5" y="-7.2" font-family="Times,serif" font-size="14.00">MaxHeap [8, 7, 5, 2, 4, 13, 17, 20, 25], heapsize: 5</text>
<!-- 4469870832 -->
<g id="node1" class="node">
<title>4469870832</title>
<path fill="lightgray" stroke="lightgray" d="M190.38,-244C190.38,-244 228.62,-244 228.62,-244 234.62,-244 240.62,-250 240.62,-256 240.62,-256 240.62,-268 240.62,-268 240.62,-274 234.62,-280 228.62,-280 228.62,-280 190.38,-280 190.38,-280 184.38,-280 178.38,-274 178.38,-268 178.38,-268 178.38,-256 178.38,-256 178.38,-250 184.38,-244 190.38,-244"/>
<text xml:space="preserve" text-anchor="middle" x="188.25" y="-256.95" font-family="Times,serif" font-size="14.00"> </text>
<polyline fill="none" stroke="lightgray" points="198.12,-244 198.12,-280"/>
<text xml:space="preserve" text-anchor="middle" x="209.5" y="-256.95" font-family="Times,serif" font-size="14.00">8</text>
<polyline fill="none" stroke="lightgray" points="220.88,-244 220.88,-280"/>
<text xml:space="preserve" text-anchor="middle" x="230.75" y="-256.95" font-family="Times,serif" font-size="14.00"> </text>
</g>
<!-- 4469870384 -->
<g id="node2" class="node">
<title>4469870384</title>
<path fill="lightgray" stroke="green" d="M127.38,-171C127.38,-171 165.62,-171 165.62,-171 171.62,-171 177.62,-177 177.62,-183 177.62,-183 177.62,-195 177.62,-195 177.62,-201 171.62,-207 165.62,-207 165.62,-207 127.38,-207 127.38,-207 121.38,-207 115.38,-201 115.38,-195 115.38,-195 115.38,-183 115.38,-183 115.38,-177 121.38,-171 127.38,-171"/>
<text xml:space="preserve" text-anchor="middle" x="125.25" y="-183.95" font-family="Times,serif" font-size="14.00"> </text>
<polyline fill="none" stroke="green" points="135.12,-171 135.12,-207"/>
<text xml:space="preserve" text-anchor="middle" x="146.5" y="-183.95" font-family="Times,serif" font-size="14.00">7</text>
<polyline fill="none" stroke="green" points="157.88,-171 157.88,-207"/>
<text xml:space="preserve" text-anchor="middle" x="167.75" y="-183.95" font-family="Times,serif" font-size="14.00"> </text>
</g>
<!-- 4469870832&#45;&gt;4469870384 -->
<g id="edge1" class="edge">
<title>4469870832:l&#45;&gt;4469870384:v</title>
<path fill="none" stroke="black" d="M188.25,-243.5C188.25,-223.78 161.22,-228.35 150.66,-218.12"/>
<polygon fill="black" stroke="black" points="153.95,-216.95 147.05,-208.91 147.44,-219.5 153.95,-216.95"/>
</g>
<!-- 4469870496 -->
<g id="node3" class="node">
<title>4469870496</title>
<path fill="lightgray" stroke="lightgray" d="M243.38,-171C243.38,-171 281.62,-171 281.62,-171 287.62,-171 293.62,-177 293.62,-183 293.62,-183 293.62,-195 293.62,-195 293.62,-201 287.62,-207 281.62,-207 281.62,-207 243.38,-207 243.38,-207 237.38,-207 231.38,-201 231.38,-195 231.38,-195 231.38,-183 231.38,-183 231.38,-177 237.38,-171 243.38,-171"/>
<text xml:space="preserve" text-anchor="middle" x="241.25" y="-183.95" font-family="Times,serif" font-size="14.00"> </text>
<polyline fill="none" stroke="lightgray" points="251.12,-171 251.12,-207"/>
<text xml:space="preserve" text-anchor="middle" x="262.5" y="-183.95" font-family="Times,serif" font-size="14.00">5</text>
<polyline fill="none" stroke="lightgray" points="273.88,-171 273.88,-207"/>
<text xml:space="preserve" text-anchor="middle" x="283.75" y="-183.95" font-family="Times,serif" font-size="14.00"> </text>
</g>
<!-- 4469870832&#45;&gt;4469870496 -->
<g id="edge2" class="edge">
<title>4469870832:r&#45;&gt;4469870496:v</title>
<path fill="none" stroke="black" d="M230.75,-243.5C230.75,-226.83 250.13,-227.26 258.61,-218.07"/>
<polygon fill="black" stroke="black" points="261.8,-219.51 261.98,-208.92 255.24,-217.09 261.8,-219.51"/>
</g>
<!-- 4469875872 -->
<g id="node4" class="node">
<title>4469875872</title>
<path fill="lightgray" stroke="lightgray" d="M58.38,-98C58.38,-98 96.62,-98 96.62,-98 102.62,-98 108.62,-104 108.62,-110 108.62,-110 108.62,-122 108.62,-122 108.62,-128 102.62,-134 96.62,-134 96.62,-134 58.38,-134 58.38,-134 52.38,-134 46.38,-128 46.38,-122 46.38,-122 46.38,-110 46.38,-110 46.38,-104 52.38,-98 58.38,-98"/>
<text xml:space="preserve" text-anchor="middle" x="56.25" y="-110.95" font-family="Times,serif" font-size="14.00"> </text>
<polyline fill="none" stroke="lightgray" points="66.12,-98 66.12,-134"/>
<text xml:space="preserve" text-anchor="middle" x="77.5" y="-110.95" font-family="Times,serif" font-size="14.00">2</text>
<polyline fill="none" stroke="lightgray" points="88.88,-98 88.88,-134"/>
<text xml:space="preserve" text-anchor="middle" x="98.75" y="-110.95" font-family="Times,serif" font-size="14.00"> </text>
</g>
<!-- 4469870384&#45;&gt;4469875872 -->
<g id="edge3" class="edge">
<title>4469870384:l&#45;&gt;4469875872:v</title>
<path fill="none" stroke="black" d="M125.25,-170.5C125.25,-148.7 93.12,-156.32 81.57,-145.1"/>
<polygon fill="black" stroke="black" points="84.9,-143.99 78.04,-135.91 78.36,-146.5 84.9,-143.99"/>
</g>
<!-- 4469874640 -->
<g id="node5" class="node">
<title>4469874640</title>
<path fill="lightgray" stroke="green" d="M138.38,-98C138.38,-98 176.62,-98 176.62,-98 182.62,-98 188.62,-104 188.62,-110 188.62,-110 188.62,-122 188.62,-122 188.62,-128 182.62,-134 176.62,-134 176.62,-134 138.38,-134 138.38,-134 132.38,-134 126.38,-128 126.38,-122 126.38,-122 126.38,-110 126.38,-110 126.38,-104 132.38,-98 138.38,-98"/>
<text xml:space="preserve" text-anchor="middle" x="136.25" y="-110.95" font-family="Times,serif" font-size="14.00"> </text>
<polyline fill="none" stroke="green" points="146.12,-98 146.12,-134"/>
<text xml:space="preserve" text-anchor="middle" x="157.5" y="-110.95" font-family="Times,serif" font-size="14.00">4</text>
<polyline fill="none" stroke="green" points="168.88,-98 168.88,-134"/>
<text xml:space="preserve" text-anchor="middle" x="178.75" y="-110.95" font-family="Times,serif" font-size="14.00"> </text>
</g>
<!-- 4469870384&#45;&gt;4469874640 -->
<g id="edge4" class="edge">
<title>4469870384:r&#45;&gt;4469874640:v</title>
<path fill="none" stroke="black" d="M167.75,-170.5C167.75,-158.41 162.34,-153.67 159.38,-145.6"/>
<polygon fill="black" stroke="black" points="162.87,-145.27 157.75,-135.99 155.97,-146.44 162.87,-145.27"/>
</g>
<!-- 4469874752 -->
<g id="node6" class="node">
<title>4469874752</title>
<path fill="lightgray" stroke="lightgray" d="M219,-98C219,-98 264,-98 264,-98 270,-98 276,-104 276,-110 276,-110 276,-122 276,-122 276,-128 270,-134 264,-134 264,-134 219,-134 219,-134 213,-134 207,-128 207,-122 207,-122 207,-110 207,-110 207,-104 213,-98 219,-98"/>
<text xml:space="preserve" text-anchor="middle" x="216.88" y="-110.95" font-family="Times,serif" font-size="14.00"> </text>
<polyline fill="none" stroke="lightgray" points="226.75,-98 226.75,-134"/>
<text xml:space="preserve" text-anchor="middle" x="241.5" y="-110.95" font-family="Times,serif" font-size="14.00">13</text>
<polyline fill="none" stroke="lightgray" points="256.25,-98 256.25,-134"/>
<text xml:space="preserve" text-anchor="middle" x="266.12" y="-110.95" font-family="Times,serif" font-size="14.00"> </text>
</g>
<!-- 4469870496&#45;&gt;4469874752 -->
<g id="edge5" class="edge">
<title>4469870496:l&#45;&gt;4469874752:v</title>
<path fill="none" stroke="black" d="M241.25,-170.5C241.25,-159.12 241.38,-153.82 241.45,-145.95"/>
<polygon fill="black" stroke="black" points="244.95,-146.03 241.49,-136.01 237.95,-146 244.95,-146.03"/>
</g>
<!-- 4469873632 -->
<g id="node7" class="node">
<title>4469873632</title>
<path fill="lightgray" stroke="lightgray" d="M306,-98C306,-98 351,-98 351,-98 357,-98 363,-104 363,-110 363,-110 363,-122 363,-122 363,-128 357,-134 351,-134 351,-134 306,-134 306,-134 300,-134 294,-128 294,-122 294,-122 294,-110 294,-110 294,-104 300,-98 306,-98"/>
<text xml:space="preserve" text-anchor="middle" x="303.88" y="-110.95" font-family="Times,serif" font-size="14.00"> </text>
<polyline fill="none" stroke="lightgray" points="313.75,-98 313.75,-134"/>
<text xml:space="preserve" text-anchor="middle" x="328.5" y="-110.95" font-family="Times,serif" font-size="14.00">17</text>
<polyline fill="none" stroke="lightgray" points="343.25,-98 343.25,-134"/>
<text xml:space="preserve" text-anchor="middle" x="353.12" y="-110.95" font-family="Times,serif" font-size="14.00"> </text>
</g>
<!-- 4469870496&#45;&gt;4469873632 -->
<g id="edge6" class="edge">
<title>4469870496:r&#45;&gt;4469873632:v</title>
<path fill="none" stroke="black" d="M283.75,-170.5C283.75,-149.76 313.29,-155.81 324.37,-145.11"/>
<polygon fill="black" stroke="black" points="327.59,-146.5 327.95,-135.91 321.06,-143.96 327.59,-146.5"/>
</g>
<!-- 4469877664 -->
<g id="node8" class="node">
<title>4469877664</title>
<path fill="lightgray" stroke="lightgray" d="M12,-25C12,-25 57,-25 57,-25 63,-25 69,-31 69,-37 69,-37 69,-49 69,-49 69,-55 63,-61 57,-61 57,-61 12,-61 12,-61 6,-61 0,-55 0,-49 0,-49 0,-37 0,-37 0,-31 6,-25 12,-25"/>
<text xml:space="preserve" text-anchor="middle" x="9.88" y="-37.95" font-family="Times,serif" font-size="14.00"> </text>
<polyline fill="none" stroke="lightgray" points="19.75,-25 19.75,-61"/>
<text xml:space="preserve" text-anchor="middle" x="34.5" y="-37.95" font-family="Times,serif" font-size="14.00">20</text>
<polyline fill="none" stroke="lightgray" points="49.25,-25 49.25,-61"/>
<text xml:space="preserve" text-anchor="middle" x="59.12" y="-37.95" font-family="Times,serif" font-size="14.00"> </text>
</g>
<!-- 4469875872&#45;&gt;4469877664 -->
<g id="edge7" class="edge">
<title>4469875872:l&#45;&gt;4469877664:v</title>
<path fill="none" stroke="black" d="M56.25,-97.5C56.25,-83.48 44.02,-80.76 37.9,-72.38"/>
<polygon fill="black" stroke="black" points="41.27,-71.45 34.95,-62.94 34.59,-73.53 41.27,-71.45"/>
</g>
<!-- 4469878112 -->
<g id="node9" class="node">
<title>4469878112</title>
<path fill="lightgray" stroke="lightgray" d="M99,-25C99,-25 144,-25 144,-25 150,-25 156,-31 156,-37 156,-37 156,-49 156,-49 156,-55 150,-61 144,-61 144,-61 99,-61 99,-61 93,-61 87,-55 87,-49 87,-49 87,-37 87,-37 87,-31 93,-25 99,-25"/>
<text xml:space="preserve" text-anchor="middle" x="96.88" y="-37.95" font-family="Times,serif" font-size="14.00"> </text>
<polyline fill="none" stroke="lightgray" points="106.75,-25 106.75,-61"/>
<text xml:space="preserve" text-anchor="middle" x="121.5" y="-37.95" font-family="Times,serif" font-size="14.00">25</text>
<polyline fill="none" stroke="lightgray" points="136.25,-25 136.25,-61"/>
<text xml:space="preserve" text-anchor="middle" x="146.12" y="-37.95" font-family="Times,serif" font-size="14.00"> </text>
</g>
<!-- 4469875872&#45;&gt;4469878112 -->
<g id="edge8" class="edge">
<title>4469875872:r&#45;&gt;4469878112:v</title>
<path fill="none" stroke="black" d="M98.75,-97.5C98.75,-83.3 111.55,-80.8 117.95,-72.45"/>
<polygon fill="black" stroke="black" points="121.27,-73.53 121.03,-62.94 114.62,-71.37 121.27,-73.53"/>
</g>
<!-- 4469874640&#45;&gt;4469870384 -->
<g id="edge9" class="edge">
<title>4469874640&#45;&gt;4469870384</title>
<path fill="none" stroke="green" d="M154.86,-134.03C153.68,-141.68 152.24,-150.92 150.9,-159.58"/>
<polygon fill="green" stroke="green" points="147.47,-158.9 149.39,-169.32 154.38,-159.97 147.47,-158.9"/>
</g>
</g>
</svg>
