<?xml version="1.0" encoding="UTF-8" standalone="no"?>
<!DOCTYPE svg PUBLIC "-//W3C//DTD SVG 1.1//EN"
 "http://www.w3.org/Graphics/SVG/1.1/DTD/svg11.dtd">
<!-- Generated by graphviz version 14.0.0 (20250921.2048)
 -->
<!-- Pages: 1 -->
<svg width="550pt" height="289pt"
 viewBox="0.00 0.00 550.00 289.00" xmlns="http://www.w3.org/2000/svg" xmlns:xlink="http://www.w3.org/1999/xlink">
<g id="graph0" class="graph" transform="scale(1 1) rotate(0) translate(4 284.5)">
<polygon fill="white" stroke="none" points="-4,4 -4,-284.5 546.25,-284.5 546.25,4 -4,4"/>
<text xml:space="preserve" text-anchor="middle" x="271.12" y="-7.2" font-family="Times,serif" font-size="14.00">MaxHeap [27, 13, 17, 10, 12, 16, 8, 9, 4, 1, 5, 0, 7, 3], heapsize: 14</text>
<!-- 4469875760 -->
<g id="node1" class="node">
<title>4469875760</title>
<path fill="lightgray" stroke="lightgray" d="M288.62,-244C288.62,-244 333.62,-244 333.62,-244 339.62,-244 345.62,-250 345.62,-256 345.62,-256 345.62,-268 345.62,-268 345.62,-274 339.62,-280 333.62,-280 333.62,-280 288.62,-280 288.62,-280 282.62,-280 276.62,-274 276.62,-268 276.62,-268 276.62,-256 276.62,-256 276.62,-250 282.62,-244 288.62,-244"/>
<text xml:space="preserve" text-anchor="middle" x="286.5" y="-256.95" font-family="Times,serif" font-size="14.00"> </text>
<polyline fill="none" stroke="lightgray" points="296.38,-244 296.38,-280"/>
<text xml:space="preserve" text-anchor="middle" x="311.12" y="-256.95" font-family="Times,serif" font-size="14.00">27</text>
<polyline fill="none" stroke="lightgray" points="325.88,-244 325.88,-280"/>
<text xml:space="preserve" text-anchor="middle" x="335.75" y="-256.95" font-family="Times,serif" font-size="14.00"> </text>
</g>
<!-- 4469877104 -->
<g id="node2" class="node">
<title>4469877104</title>
<path fill="lightgray" stroke="lightgray" d="M184.62,-171C184.62,-171 229.62,-171 229.62,-171 235.62,-171 241.62,-177 241.62,-183 241.62,-183 241.62,-195 241.62,-195 241.62,-201 235.62,-207 229.62,-207 229.62,-207 184.62,-207 184.62,-207 178.62,-207 172.62,-201 172.62,-195 172.62,-195 172.62,-183 172.62,-183 172.62,-177 178.62,-171 184.62,-171"/>
<text xml:space="preserve" text-anchor="middle" x="182.5" y="-183.95" font-family="Times,serif" font-size="14.00"> </text>
<polyline fill="none" stroke="lightgray" points="192.38,-171 192.38,-207"/>
<text xml:space="preserve" text-anchor="middle" x="207.12" y="-183.95" font-family="Times,serif" font-size="14.00">13</text>
<polyline fill="none" stroke="lightgray" points="221.88,-171 221.88,-207"/>
<text xml:space="preserve" text-anchor="middle" x="231.75" y="-183.95" font-family="Times,serif" font-size="14.00"> </text>
</g>
<!-- 4469875760&#45;&gt;4469877104 -->
<g id="edge1" class="edge">
<title>4469875760:l&#45;&gt;4469877104:v</title>
<path fill="none" stroke="black" d="M286.5,-243.5C286.5,-209.45 225.18,-237.37 210.33,-218.33"/>
<polygon fill="black" stroke="black" points="213.75,-217.54 207.56,-208.95 207.04,-219.53 213.75,-217.54"/>
</g>
<!-- 4469875424 -->
<g id="node3" class="node">
<title>4469875424</title>
<path fill="lightgray" stroke="lightgray" d="M376.62,-171C376.62,-171 421.62,-171 421.62,-171 427.62,-171 433.62,-177 433.62,-183 433.62,-183 433.62,-195 433.62,-195 433.62,-201 427.62,-207 421.62,-207 421.62,-207 376.62,-207 376.62,-207 370.62,-207 364.62,-201 364.62,-195 364.62,-195 364.62,-183 364.62,-183 364.62,-177 370.62,-171 376.62,-171"/>
<text xml:space="preserve" text-anchor="middle" x="374.5" y="-183.95" font-family="Times,serif" font-size="14.00"> </text>
<polyline fill="none" stroke="lightgray" points="384.38,-171 384.38,-207"/>
<text xml:space="preserve" text-anchor="middle" x="399.12" y="-183.95" font-family="Times,serif" font-size="14.00">17</text>
<polyline fill="none" stroke="lightgray" points="413.88,-171 413.88,-207"/>
<text xml:space="preserve" text-anchor="middle" x="423.75" y="-183.95" font-family="Times,serif" font-size="14.00"> </text>
</g>
<!-- 4469875760&#45;&gt;4469875424 -->
<g id="edge2" class="edge">
<title>4469875760:r&#45;&gt;4469875424:v</title>
<path fill="none" stroke="black" d="M335.75,-243.5C335.75,-215.91 381.71,-232.7 395.35,-218.28"/>
<polygon fill="black" stroke="black" points="398.62,-219.52 398.62,-208.93 392.02,-217.21 398.62,-219.52"/>
</g>
<!-- 4469874416 -->
<g id="node4" class="node">
<title>4469874416</title>
<path fill="lightgray" stroke="lightgray" d="M64.62,-98C64.62,-98 109.62,-98 109.62,-98 115.62,-98 121.62,-104 121.62,-110 121.62,-110 121.62,-122 121.62,-122 121.62,-128 115.62,-134 109.62,-134 109.62,-134 64.62,-134 64.62,-134 58.62,-134 52.62,-128 52.62,-122 52.62,-122 52.62,-110 52.62,-110 52.62,-104 58.62,-98 64.62,-98"/>
<text xml:space="preserve" text-anchor="middle" x="62.5" y="-110.95" font-family="Times,serif" font-size="14.00"> </text>
<polyline fill="none" stroke="lightgray" points="72.38,-98 72.38,-134"/>
<text xml:space="preserve" text-anchor="middle" x="87.12" y="-110.95" font-family="Times,serif" font-size="14.00">10</text>
<polyline fill="none" stroke="lightgray" points="101.88,-98 101.88,-134"/>
<text xml:space="preserve" text-anchor="middle" x="111.75" y="-110.95" font-family="Times,serif" font-size="14.00"> </text>
</g>
<!-- 4469877104&#45;&gt;4469874416 -->
<g id="edge3" class="edge">
<title>4469877104:l&#45;&gt;4469874416:v</title>
<path fill="none" stroke="black" d="M182.5,-170.5C182.5,-129.79 105.51,-169.74 89.88,-145.42"/>
<polygon fill="black" stroke="black" points="93.33,-144.81 87.49,-135.97 86.54,-146.52 93.33,-144.81"/>
</g>
<!-- 4469875984 -->
<g id="node5" class="node">
<title>4469875984</title>
<path fill="lightgray" stroke="lightgray" d="M208.62,-98C208.62,-98 253.62,-98 253.62,-98 259.62,-98 265.62,-104 265.62,-110 265.62,-110 265.62,-122 265.62,-122 265.62,-128 259.62,-134 253.62,-134 253.62,-134 208.62,-134 208.62,-134 202.62,-134 196.62,-128 196.62,-122 196.62,-122 196.62,-110 196.62,-110 196.62,-104 202.62,-98 208.62,-98"/>
<text xml:space="preserve" text-anchor="middle" x="206.5" y="-110.95" font-family="Times,serif" font-size="14.00"> </text>
<polyline fill="none" stroke="lightgray" points="216.38,-98 216.38,-134"/>
<text xml:space="preserve" text-anchor="middle" x="231.12" y="-110.95" font-family="Times,serif" font-size="14.00">12</text>
<polyline fill="none" stroke="lightgray" points="245.88,-98 245.88,-134"/>
<text xml:space="preserve" text-anchor="middle" x="255.75" y="-110.95" font-family="Times,serif" font-size="14.00"> </text>
</g>
<!-- 4469877104&#45;&gt;4469875984 -->
<g id="edge4" class="edge">
<title>4469877104:r&#45;&gt;4469875984:v</title>
<path fill="none" stroke="black" d="M231.75,-170.5C231.75,-159.12 231.43,-153.82 231.25,-145.95"/>
<polygon fill="black" stroke="black" points="234.75,-145.97 231.14,-136.01 227.75,-146.05 234.75,-145.97"/>
</g>
<!-- 4469870272 -->
<g id="node6" class="node">
<title>4469870272</title>
<path fill="lightgray" stroke="green" d="M352.62,-98C352.62,-98 397.62,-98 397.62,-98 403.62,-98 409.62,-104 409.62,-110 409.62,-110 409.62,-122 409.62,-122 409.62,-128 403.62,-134 397.62,-134 397.62,-134 352.62,-134 352.62,-134 346.62,-134 340.62,-128 340.62,-122 340.62,-122 340.62,-110 340.62,-110 340.62,-104 346.62,-98 352.62,-98"/>
<text xml:space="preserve" text-anchor="middle" x="350.5" y="-110.95" font-family="Times,serif" font-size="14.00"> </text>
<polyline fill="none" stroke="green" points="360.38,-98 360.38,-134"/>
<text xml:space="preserve" text-anchor="middle" x="375.12" y="-110.95" font-family="Times,serif" font-size="14.00">16</text>
<polyline fill="none" stroke="green" points="389.88,-98 389.88,-134"/>
<text xml:space="preserve" text-anchor="middle" x="399.75" y="-110.95" font-family="Times,serif" font-size="14.00"> </text>
</g>
<!-- 4469875424&#45;&gt;4469870272 -->
<g id="edge5" class="edge">
<title>4469875424:l&#45;&gt;4469870272:v</title>
<path fill="none" stroke="black" d="M374.5,-170.5C374.5,-159.12 374.82,-153.82 375,-145.95"/>
<polygon fill="black" stroke="black" points="378.5,-146.05 375.11,-136.01 371.5,-145.97 378.5,-146.05"/>
</g>
<!-- 4469868256 -->
<g id="node7" class="node">
<title>4469868256</title>
<path fill="lightgray" stroke="lightgray" d="M476,-98C476,-98 514.25,-98 514.25,-98 520.25,-98 526.25,-104 526.25,-110 526.25,-110 526.25,-122 526.25,-122 526.25,-128 520.25,-134 514.25,-134 514.25,-134 476,-134 476,-134 470,-134 464,-128 464,-122 464,-122 464,-110 464,-110 464,-104 470,-98 476,-98"/>
<text xml:space="preserve" text-anchor="middle" x="473.88" y="-110.95" font-family="Times,serif" font-size="14.00"> </text>
<polyline fill="none" stroke="lightgray" points="483.75,-98 483.75,-134"/>
<text xml:space="preserve" text-anchor="middle" x="495.12" y="-110.95" font-family="Times,serif" font-size="14.00">8</text>
<polyline fill="none" stroke="lightgray" points="506.5,-98 506.5,-134"/>
<text xml:space="preserve" text-anchor="middle" x="516.38" y="-110.95" font-family="Times,serif" font-size="14.00"> </text>
</g>
<!-- 4469875424&#45;&gt;4469868256 -->
<g id="edge6" class="edge">
<title>4469875424:r&#45;&gt;4469868256:v</title>
<path fill="none" stroke="black" d="M423.75,-170.5C423.75,-139.69 477.43,-161.96 491.68,-145.25"/>
<polygon fill="black" stroke="black" points="494.95,-146.53 494.66,-135.94 488.28,-144.4 494.95,-146.53"/>
</g>
<!-- 4469869712 -->
<g id="node8" class="node">
<title>4469869712</title>
<path fill="lightgray" stroke="lightgray" d="M12,-25C12,-25 50.25,-25 50.25,-25 56.25,-25 62.25,-31 62.25,-37 62.25,-37 62.25,-49 62.25,-49 62.25,-55 56.25,-61 50.25,-61 50.25,-61 12,-61 12,-61 6,-61 0,-55 0,-49 0,-49 0,-37 0,-37 0,-31 6,-25 12,-25"/>
<text xml:space="preserve" text-anchor="middle" x="9.88" y="-37.95" font-family="Times,serif" font-size="14.00"> </text>
<polyline fill="none" stroke="lightgray" points="19.75,-25 19.75,-61"/>
<text xml:space="preserve" text-anchor="middle" x="31.12" y="-37.95" font-family="Times,serif" font-size="14.00">9</text>
<polyline fill="none" stroke="lightgray" points="42.5,-25 42.5,-61"/>
<text xml:space="preserve" text-anchor="middle" x="52.38" y="-37.95" font-family="Times,serif" font-size="14.00"> </text>
</g>
<!-- 4469874416&#45;&gt;4469869712 -->
<g id="edge7" class="edge">
<title>4469874416:l&#45;&gt;4469869712:v</title>
<path fill="none" stroke="black" d="M62.5,-97.5C62.5,-80.92 43.35,-81.23 34.97,-72.04"/>
<polygon fill="black" stroke="black" points="38.36,-71.11 31.64,-62.92 31.79,-73.52 38.36,-71.11"/>
</g>
<!-- 4469869936 -->
<g id="node9" class="node">
<title>4469869936</title>
<path fill="lightgray" stroke="lightgray" d="M92,-25C92,-25 130.25,-25 130.25,-25 136.25,-25 142.25,-31 142.25,-37 142.25,-37 142.25,-49 142.25,-49 142.25,-55 136.25,-61 130.25,-61 130.25,-61 92,-61 92,-61 86,-61 80,-55 80,-49 80,-49 80,-37 80,-37 80,-31 86,-25 92,-25"/>
<text xml:space="preserve" text-anchor="middle" x="89.88" y="-37.95" font-family="Times,serif" font-size="14.00"> </text>
<polyline fill="none" stroke="lightgray" points="99.75,-25 99.75,-61"/>
<text xml:space="preserve" text-anchor="middle" x="111.12" y="-37.95" font-family="Times,serif" font-size="14.00">4</text>
<polyline fill="none" stroke="lightgray" points="122.5,-25 122.5,-61"/>
<text xml:space="preserve" text-anchor="middle" x="132.38" y="-37.95" font-family="Times,serif" font-size="14.00"> </text>
</g>
<!-- 4469874416&#45;&gt;4469869936 -->
<g id="edge8" class="edge">
<title>4469874416:r&#45;&gt;4469869936:v</title>
<path fill="none" stroke="black" d="M111.75,-97.5C111.75,-86.12 111.43,-80.82 111.25,-72.95"/>
<polygon fill="black" stroke="black" points="114.75,-72.97 111.14,-63.01 107.75,-73.05 114.75,-72.97"/>
</g>
<!-- 4469870608 -->
<g id="node10" class="node">
<title>4469870608</title>
<path fill="lightgray" stroke="lightgray" d="M172,-25C172,-25 210.25,-25 210.25,-25 216.25,-25 222.25,-31 222.25,-37 222.25,-37 222.25,-49 222.25,-49 222.25,-55 216.25,-61 210.25,-61 210.25,-61 172,-61 172,-61 166,-61 160,-55 160,-49 160,-49 160,-37 160,-37 160,-31 166,-25 172,-25"/>
<text xml:space="preserve" text-anchor="middle" x="169.88" y="-37.95" font-family="Times,serif" font-size="14.00"> </text>
<polyline fill="none" stroke="lightgray" points="179.75,-25 179.75,-61"/>
<text xml:space="preserve" text-anchor="middle" x="191.12" y="-37.95" font-family="Times,serif" font-size="14.00">1</text>
<polyline fill="none" stroke="lightgray" points="202.5,-25 202.5,-61"/>
<text xml:space="preserve" text-anchor="middle" x="212.38" y="-37.95" font-family="Times,serif" font-size="14.00"> </text>
</g>
<!-- 4469875984&#45;&gt;4469870608 -->
<g id="edge9" class="edge">
<title>4469875984:l&#45;&gt;4469870608:v</title>
<path fill="none" stroke="black" d="M206.5,-97.5C206.5,-84.72 198.21,-80.68 193.8,-72.54"/>
<polygon fill="black" stroke="black" points="197.24,-71.86 191.48,-62.97 190.44,-73.51 197.24,-71.86"/>
</g>
<!-- 4469876208 -->
<g id="node11" class="node">
<title>4469876208</title>
<path fill="lightgray" stroke="lightgray" d="M252,-25C252,-25 290.25,-25 290.25,-25 296.25,-25 302.25,-31 302.25,-37 302.25,-37 302.25,-49 302.25,-49 302.25,-55 296.25,-61 290.25,-61 290.25,-61 252,-61 252,-61 246,-61 240,-55 240,-49 240,-49 240,-37 240,-37 240,-31 246,-25 252,-25"/>
<text xml:space="preserve" text-anchor="middle" x="249.88" y="-37.95" font-family="Times,serif" font-size="14.00"> </text>
<polyline fill="none" stroke="lightgray" points="259.75,-25 259.75,-61"/>
<text xml:space="preserve" text-anchor="middle" x="271.12" y="-37.95" font-family="Times,serif" font-size="14.00">5</text>
<polyline fill="none" stroke="lightgray" points="282.5,-25 282.5,-61"/>
<text xml:space="preserve" text-anchor="middle" x="292.38" y="-37.95" font-family="Times,serif" font-size="14.00"> </text>
</g>
<!-- 4469875984&#45;&gt;4469876208 -->
<g id="edge10" class="edge">
<title>4469875984:r&#45;&gt;4469876208:v</title>
<path fill="none" stroke="black" d="M255.75,-97.5C255.75,-84.72 264.04,-80.68 268.45,-72.54"/>
<polygon fill="black" stroke="black" points="271.81,-73.51 270.77,-62.97 265.01,-71.86 271.81,-73.51"/>
</g>
<!-- 4469873856 -->
<g id="node12" class="node">
<title>4469873856</title>
<path fill="lightgray" stroke="green" d="M332,-25C332,-25 370.25,-25 370.25,-25 376.25,-25 382.25,-31 382.25,-37 382.25,-37 382.25,-49 382.25,-49 382.25,-55 376.25,-61 370.25,-61 370.25,-61 332,-61 332,-61 326,-61 320,-55 320,-49 320,-49 320,-37 320,-37 320,-31 326,-25 332,-25"/>
<text xml:space="preserve" text-anchor="middle" x="329.88" y="-37.95" font-family="Times,serif" font-size="14.00"> </text>
<polyline fill="none" stroke="green" points="339.75,-25 339.75,-61"/>
<text xml:space="preserve" text-anchor="middle" x="351.12" y="-37.95" font-family="Times,serif" font-size="14.00">0</text>
<polyline fill="none" stroke="green" points="362.5,-25 362.5,-61"/>
<text xml:space="preserve" text-anchor="middle" x="372.38" y="-37.95" font-family="Times,serif" font-size="14.00"> </text>
</g>
<!-- 4469870272&#45;&gt;4469873856 -->
<g id="edge11" class="edge">
<title>4469870272:l&#45;&gt;4469873856:v</title>
<path fill="none" stroke="black" d="M350.5,-97.5C350.5,-86.12 350.82,-80.82 351,-72.95"/>
<polygon fill="black" stroke="black" points="354.5,-73.05 351.11,-63.01 347.5,-72.97 354.5,-73.05"/>
</g>
<!-- 4469873184 -->
<g id="node13" class="node">
<title>4469873184</title>
<path fill="lightgray" stroke="lightgray" d="M412,-25C412,-25 450.25,-25 450.25,-25 456.25,-25 462.25,-31 462.25,-37 462.25,-37 462.25,-49 462.25,-49 462.25,-55 456.25,-61 450.25,-61 450.25,-61 412,-61 412,-61 406,-61 400,-55 400,-49 400,-49 400,-37 400,-37 400,-31 406,-25 412,-25"/>
<text xml:space="preserve" text-anchor="middle" x="409.88" y="-37.95" font-family="Times,serif" font-size="14.00"> </text>
<polyline fill="none" stroke="lightgray" points="419.75,-25 419.75,-61"/>
<text xml:space="preserve" text-anchor="middle" x="431.12" y="-37.95" font-family="Times,serif" font-size="14.00">7</text>
<polyline fill="none" stroke="lightgray" points="442.5,-25 442.5,-61"/>
<text xml:space="preserve" text-anchor="middle" x="452.38" y="-37.95" font-family="Times,serif" font-size="14.00"> </text>
</g>
<!-- 4469870272&#45;&gt;4469873184 -->
<g id="edge12" class="edge">
<title>4469870272:r&#45;&gt;4469873184:v</title>
<path fill="none" stroke="black" d="M399.75,-97.5C399.75,-80.92 418.9,-81.23 427.28,-72.04"/>
<polygon fill="black" stroke="black" points="430.46,-73.52 430.61,-62.92 423.89,-71.11 430.46,-73.52"/>
</g>
<!-- 4469873968 -->
<g id="node14" class="node">
<title>4469873968</title>
<path fill="lightgray" stroke="lightgray" d="M492,-25C492,-25 530.25,-25 530.25,-25 536.25,-25 542.25,-31 542.25,-37 542.25,-37 542.25,-49 542.25,-49 542.25,-55 536.25,-61 530.25,-61 530.25,-61 492,-61 492,-61 486,-61 480,-55 480,-49 480,-49 480,-37 480,-37 480,-31 486,-25 492,-25"/>
<text xml:space="preserve" text-anchor="middle" x="489.88" y="-37.95" font-family="Times,serif" font-size="14.00"> </text>
<polyline fill="none" stroke="lightgray" points="499.75,-25 499.75,-61"/>
<text xml:space="preserve" text-anchor="middle" x="511.12" y="-37.95" font-family="Times,serif" font-size="14.00">3</text>
<polyline fill="none" stroke="lightgray" points="522.5,-25 522.5,-61"/>
<text xml:space="preserve" text-anchor="middle" x="532.38" y="-37.95" font-family="Times,serif" font-size="14.00"> </text>
</g>
<!-- 4469868256&#45;&gt;4469873968 -->
<g id="edge13" class="edge">
<title>4469868256:l&#45;&gt;4469873968:v</title>
<path fill="none" stroke="black" d="M473.88,-97.5C473.88,-79.15 497.53,-81.81 507.14,-71.99"/>
<polygon fill="black" stroke="black" points="510.31,-73.51 510.59,-62.91 503.76,-71.02 510.31,-73.51"/>
</g>
<!-- 4469873856&#45;&gt;4469870272 -->
<g id="edge14" class="edge">
<title>4469873856&#45;&gt;4469870272</title>
<path fill="none" stroke="green" d="M356.88,-61.03C359.53,-68.86 362.73,-78.34 365.72,-87.17"/>
<polygon fill="green" stroke="green" points="362.31,-88.03 368.83,-96.38 368.94,-85.78 362.31,-88.03"/>
</g>
</g>
</svg>
