<?xml version="1.0" encoding="UTF-8" standalone="no"?>
<!DOCTYPE svg PUBLIC "-//W3C//DTD SVG 1.1//EN"
 "http://www.w3.org/Graphics/SVG/1.1/DTD/svg11.dtd">
<!-- Generated by graphviz version 14.0.0 (20250921.2048)
 -->
<!-- Pages: 1 -->
<svg width="343pt" height="289pt"
 viewBox="0.00 0.00 343.00 289.00" xmlns="http://www.w3.org/2000/svg" xmlns:xlink="http://www.w3.org/1999/xlink">
<g id="graph0" class="graph" transform="scale(1 1) rotate(0) translate(4 284.5)">
<polygon fill="white" stroke="none" points="-4,4 -4,-284.5 338.62,-284.5 338.62,4 -4,4"/>
<text xml:space="preserve" text-anchor="middle" x="167.31" y="-7.2" font-family="Times,serif" font-size="14.00">MaxHeap [5, 10, 19, 9, 3, 17, 6, 22, 84], heapsize: 8</text>
<!-- 4534518736 -->
<g id="node1" class="node">
<title>4534518736</title>
<path fill="lightgray" stroke="green" d="M158.38,-244C158.38,-244 196.62,-244 196.62,-244 202.62,-244 208.62,-250 208.62,-256 208.62,-256 208.62,-268 208.62,-268 208.62,-274 202.62,-280 196.62,-280 196.62,-280 158.38,-280 158.38,-280 152.38,-280 146.38,-274 146.38,-268 146.38,-268 146.38,-256 146.38,-256 146.38,-250 152.38,-244 158.38,-244"/>
<text xml:space="preserve" text-anchor="middle" x="156.25" y="-256.95" font-family="Times,serif" font-size="14.00"> </text>
<polyline fill="none" stroke="green" points="166.12,-244 166.12,-280"/>
<text xml:space="preserve" text-anchor="middle" x="177.5" y="-256.95" font-family="Times,serif" font-size="14.00">5</text>
<polyline fill="none" stroke="green" points="188.88,-244 188.88,-280"/>
<text xml:space="preserve" text-anchor="middle" x="198.75" y="-256.95" font-family="Times,serif" font-size="14.00"> </text>
</g>
<!-- 4534528256 -->
<g id="node2" class="node">
<title>4534528256</title>
<path fill="lightgray" stroke="lightgray" d="M89,-171C89,-171 134,-171 134,-171 140,-171 146,-177 146,-183 146,-183 146,-195 146,-195 146,-201 140,-207 134,-207 134,-207 89,-207 89,-207 83,-207 77,-201 77,-195 77,-195 77,-183 77,-183 77,-177 83,-171 89,-171"/>
<text xml:space="preserve" text-anchor="middle" x="86.88" y="-183.95" font-family="Times,serif" font-size="14.00"> </text>
<polyline fill="none" stroke="lightgray" points="96.75,-171 96.75,-207"/>
<text xml:space="preserve" text-anchor="middle" x="111.5" y="-183.95" font-family="Times,serif" font-size="14.00">10</text>
<polyline fill="none" stroke="lightgray" points="126.25,-171 126.25,-207"/>
<text xml:space="preserve" text-anchor="middle" x="136.12" y="-183.95" font-family="Times,serif" font-size="14.00"> </text>
</g>
<!-- 4534518736&#45;&gt;4534528256 -->
<g id="edge1" class="edge">
<title>4534518736:l&#45;&gt;4534528256:v</title>
<path fill="none" stroke="black" d="M156.25,-243.5C156.25,-222.76 126.71,-228.81 115.63,-218.11"/>
<polygon fill="black" stroke="black" points="118.94,-216.96 112.05,-208.91 112.41,-219.5 118.94,-216.96"/>
</g>
<!-- 4534530496 -->
<g id="node3" class="node">
<title>4534530496</title>
<path fill="lightgray" stroke="lightgray" d="M221,-171C221,-171 266,-171 266,-171 272,-171 278,-177 278,-183 278,-183 278,-195 278,-195 278,-201 272,-207 266,-207 266,-207 221,-207 221,-207 215,-207 209,-201 209,-195 209,-195 209,-183 209,-183 209,-177 215,-171 221,-171"/>
<text xml:space="preserve" text-anchor="middle" x="218.88" y="-183.95" font-family="Times,serif" font-size="14.00"> </text>
<polyline fill="none" stroke="lightgray" points="228.75,-171 228.75,-207"/>
<text xml:space="preserve" text-anchor="middle" x="243.5" y="-183.95" font-family="Times,serif" font-size="14.00">19</text>
<polyline fill="none" stroke="lightgray" points="258.25,-171 258.25,-207"/>
<text xml:space="preserve" text-anchor="middle" x="268.12" y="-183.95" font-family="Times,serif" font-size="14.00"> </text>
</g>
<!-- 4534518736&#45;&gt;4534530496 -->
<g id="edge2" class="edge">
<title>4534518736:r&#45;&gt;4534530496:v</title>
<path fill="none" stroke="black" d="M198.75,-243.5C198.75,-222.76 228.29,-228.81 239.37,-218.11"/>
<polygon fill="black" stroke="black" points="242.59,-219.5 242.95,-208.91 236.06,-216.96 242.59,-219.5"/>
</g>
<!-- 4534522544 -->
<g id="node4" class="node">
<title>4534522544</title>
<path fill="lightgray" stroke="lightgray" d="M36.38,-98C36.38,-98 74.62,-98 74.62,-98 80.62,-98 86.62,-104 86.62,-110 86.62,-110 86.62,-122 86.62,-122 86.62,-128 80.62,-134 74.62,-134 74.62,-134 36.38,-134 36.38,-134 30.38,-134 24.38,-128 24.38,-122 24.38,-122 24.38,-110 24.38,-110 24.38,-104 30.38,-98 36.38,-98"/>
<text xml:space="preserve" text-anchor="middle" x="34.25" y="-110.95" font-family="Times,serif" font-size="14.00"> </text>
<polyline fill="none" stroke="lightgray" points="44.12,-98 44.12,-134"/>
<text xml:space="preserve" text-anchor="middle" x="55.5" y="-110.95" font-family="Times,serif" font-size="14.00">9</text>
<polyline fill="none" stroke="lightgray" points="66.88,-98 66.88,-134"/>
<text xml:space="preserve" text-anchor="middle" x="76.75" y="-110.95" font-family="Times,serif" font-size="14.00"> </text>
</g>
<!-- 4534528256&#45;&gt;4534522544 -->
<g id="edge3" class="edge">
<title>4534528256:l&#45;&gt;4534522544:v</title>
<path fill="none" stroke="black" d="M86.88,-170.5C86.88,-153.92 67.73,-154.23 59.35,-145.04"/>
<polygon fill="black" stroke="black" points="62.74,-144.11 56.02,-135.92 56.16,-146.52 62.74,-144.11"/>
</g>
<!-- 4534529264 -->
<g id="node5" class="node">
<title>4534529264</title>
<path fill="lightgray" stroke="lightgray" d="M116.38,-98C116.38,-98 154.62,-98 154.62,-98 160.62,-98 166.62,-104 166.62,-110 166.62,-110 166.62,-122 166.62,-122 166.62,-128 160.62,-134 154.62,-134 154.62,-134 116.38,-134 116.38,-134 110.38,-134 104.38,-128 104.38,-122 104.38,-122 104.38,-110 104.38,-110 104.38,-104 110.38,-98 116.38,-98"/>
<text xml:space="preserve" text-anchor="middle" x="114.25" y="-110.95" font-family="Times,serif" font-size="14.00"> </text>
<polyline fill="none" stroke="lightgray" points="124.12,-98 124.12,-134"/>
<text xml:space="preserve" text-anchor="middle" x="135.5" y="-110.95" font-family="Times,serif" font-size="14.00">3</text>
<polyline fill="none" stroke="lightgray" points="146.88,-98 146.88,-134"/>
<text xml:space="preserve" text-anchor="middle" x="156.75" y="-110.95" font-family="Times,serif" font-size="14.00"> </text>
</g>
<!-- 4534528256&#45;&gt;4534529264 -->
<g id="edge4" class="edge">
<title>4534528256:r&#45;&gt;4534529264:v</title>
<path fill="none" stroke="black" d="M136.12,-170.5C136.12,-159.12 135.81,-153.82 135.63,-145.95"/>
<polygon fill="black" stroke="black" points="139.13,-145.97 135.52,-136.01 132.13,-146.05 139.13,-145.97"/>
</g>
<!-- 4534523216 -->
<g id="node6" class="node">
<title>4534523216</title>
<path fill="lightgray" stroke="lightgray" d="M197,-98C197,-98 242,-98 242,-98 248,-98 254,-104 254,-110 254,-110 254,-122 254,-122 254,-128 248,-134 242,-134 242,-134 197,-134 197,-134 191,-134 185,-128 185,-122 185,-122 185,-110 185,-110 185,-104 191,-98 197,-98"/>
<text xml:space="preserve" text-anchor="middle" x="194.88" y="-110.95" font-family="Times,serif" font-size="14.00"> </text>
<polyline fill="none" stroke="lightgray" points="204.75,-98 204.75,-134"/>
<text xml:space="preserve" text-anchor="middle" x="219.5" y="-110.95" font-family="Times,serif" font-size="14.00">17</text>
<polyline fill="none" stroke="lightgray" points="234.25,-98 234.25,-134"/>
<text xml:space="preserve" text-anchor="middle" x="244.12" y="-110.95" font-family="Times,serif" font-size="14.00"> </text>
</g>
<!-- 4534530496&#45;&gt;4534523216 -->
<g id="edge5" class="edge">
<title>4534530496:l&#45;&gt;4534523216:v</title>
<path fill="none" stroke="black" d="M218.88,-170.5C218.88,-159.12 219.19,-153.82 219.37,-145.95"/>
<polygon fill="black" stroke="black" points="222.87,-146.05 219.48,-136.01 215.87,-145.97 222.87,-146.05"/>
</g>
<!-- 4534518624 -->
<g id="node7" class="node">
<title>4534518624</title>
<path fill="lightgray" stroke="lightgray" d="M284.38,-98C284.38,-98 322.62,-98 322.62,-98 328.62,-98 334.62,-104 334.62,-110 334.62,-110 334.62,-122 334.62,-122 334.62,-128 328.62,-134 322.62,-134 322.62,-134 284.38,-134 284.38,-134 278.38,-134 272.38,-128 272.38,-122 272.38,-122 272.38,-110 272.38,-110 272.38,-104 278.38,-98 284.38,-98"/>
<text xml:space="preserve" text-anchor="middle" x="282.25" y="-110.95" font-family="Times,serif" font-size="14.00"> </text>
<polyline fill="none" stroke="lightgray" points="292.12,-98 292.12,-134"/>
<text xml:space="preserve" text-anchor="middle" x="303.5" y="-110.95" font-family="Times,serif" font-size="14.00">6</text>
<polyline fill="none" stroke="lightgray" points="314.88,-98 314.88,-134"/>
<text xml:space="preserve" text-anchor="middle" x="324.75" y="-110.95" font-family="Times,serif" font-size="14.00"> </text>
</g>
<!-- 4534530496&#45;&gt;4534518624 -->
<g id="edge6" class="edge">
<title>4534530496:r&#45;&gt;4534518624:v</title>
<path fill="none" stroke="black" d="M268.12,-170.5C268.12,-152.8 290.15,-154.58 299.44,-145.11"/>
<polygon fill="black" stroke="black" points="302.65,-146.5 302.96,-135.91 296.12,-144 302.65,-146.5"/>
</g>
<!-- 4534529488 -->
<g id="node8" class="node">
<title>4534529488</title>
<path fill="lightgray" stroke="green" d="M12,-25C12,-25 57,-25 57,-25 63,-25 69,-31 69,-37 69,-37 69,-49 69,-49 69,-55 63,-61 57,-61 57,-61 12,-61 12,-61 6,-61 0,-55 0,-49 0,-49 0,-37 0,-37 0,-31 6,-25 12,-25"/>
<text xml:space="preserve" text-anchor="middle" x="9.88" y="-37.95" font-family="Times,serif" font-size="14.00"> </text>
<polyline fill="none" stroke="green" points="19.75,-25 19.75,-61"/>
<text xml:space="preserve" text-anchor="middle" x="34.5" y="-37.95" font-family="Times,serif" font-size="14.00">22</text>
<polyline fill="none" stroke="green" points="49.25,-25 49.25,-61"/>
<text xml:space="preserve" text-anchor="middle" x="59.12" y="-37.95" font-family="Times,serif" font-size="14.00"> </text>
</g>
<!-- 4534522544&#45;&gt;4534529488 -->
<g id="edge7" class="edge">
<title>4534522544:l&#45;&gt;4534529488:v</title>
<path fill="none" stroke="black" d="M34.25,-97.5C34.25,-86.12 34.38,-80.82 34.45,-72.95"/>
<polygon fill="black" stroke="black" points="37.95,-73.03 34.49,-63.01 30.95,-73 37.95,-73.03"/>
</g>
</g>
</svg>
