<?xml version="1.0" encoding="UTF-8" standalone="no"?>
<!DOCTYPE svg PUBLIC "-//W3C//DTD SVG 1.1//EN"
 "http://www.w3.org/Graphics/SVG/1.1/DTD/svg11.dtd">
<!-- Generated by graphviz version 14.0.0 (20250921.2048)
 -->
<!-- Pages: 1 -->
<svg width="381pt" height="289pt"
 viewBox="0.00 0.00 381.00 289.00" xmlns="http://www.w3.org/2000/svg" xmlns:xlink="http://www.w3.org/1999/xlink">
<g id="graph0" class="graph" transform="scale(1 1) rotate(0) translate(4 284.5)">
<polygon fill="white" stroke="none" points="-4,4 -4,-284.5 376.62,-284.5 376.62,4 -4,4"/>
<text xml:space="preserve" text-anchor="middle" x="186.31" y="-7.2" font-family="Times,serif" font-size="14.00">MaxHeap [5, 10, 19, 9, 3, 17, 6, 22, 84], heapsize: 8</text>
<!-- 4469870608 -->
<g id="node1" class="node">
<title>4469870608</title>
<path fill="lightgray" stroke="green" d="M135.38,-244C135.38,-244 173.62,-244 173.62,-244 179.62,-244 185.62,-250 185.62,-256 185.62,-256 185.62,-268 185.62,-268 185.62,-274 179.62,-280 173.62,-280 173.62,-280 135.38,-280 135.38,-280 129.38,-280 123.38,-274 123.38,-268 123.38,-268 123.38,-256 123.38,-256 123.38,-250 129.38,-244 135.38,-244"/>
<text xml:space="preserve" text-anchor="middle" x="133.25" y="-256.95" font-family="Times,serif" font-size="14.00"> </text>
<polyline fill="none" stroke="green" points="143.12,-244 143.12,-280"/>
<text xml:space="preserve" text-anchor="middle" x="154.5" y="-256.95" font-family="Times,serif" font-size="14.00">5</text>
<polyline fill="none" stroke="green" points="165.88,-244 165.88,-280"/>
<text xml:space="preserve" text-anchor="middle" x="175.75" y="-256.95" font-family="Times,serif" font-size="14.00"> </text>
</g>
<!-- 4469873072 -->
<g id="node2" class="node">
<title>4469873072</title>
<path fill="lightgray" stroke="lightgray" d="M111,-171C111,-171 156,-171 156,-171 162,-171 168,-177 168,-183 168,-183 168,-195 168,-195 168,-201 162,-207 156,-207 156,-207 111,-207 111,-207 105,-207 99,-201 99,-195 99,-195 99,-183 99,-183 99,-177 105,-171 111,-171"/>
<text xml:space="preserve" text-anchor="middle" x="108.88" y="-183.95" font-family="Times,serif" font-size="14.00"> </text>
<polyline fill="none" stroke="lightgray" points="118.75,-171 118.75,-207"/>
<text xml:space="preserve" text-anchor="middle" x="133.5" y="-183.95" font-family="Times,serif" font-size="14.00">10</text>
<polyline fill="none" stroke="lightgray" points="148.25,-171 148.25,-207"/>
<text xml:space="preserve" text-anchor="middle" x="158.12" y="-183.95" font-family="Times,serif" font-size="14.00"> </text>
</g>
<!-- 4469870608&#45;&gt;4469873072 -->
<g id="edge1" class="edge">
<title>4469870608:l&#45;&gt;4469873072:v</title>
<path fill="none" stroke="black" d="M133.25,-243.5C133.25,-232.12 133.38,-226.82 133.45,-218.95"/>
<polygon fill="black" stroke="black" points="136.95,-219.03 133.49,-209.01 129.95,-219 136.95,-219.03"/>
</g>
<!-- 4469876768 -->
<g id="node3" class="node">
<title>4469876768</title>
<path fill="lightgray" stroke="lightgray" d="M259,-171C259,-171 304,-171 304,-171 310,-171 316,-177 316,-183 316,-183 316,-195 316,-195 316,-201 310,-207 304,-207 304,-207 259,-207 259,-207 253,-207 247,-201 247,-195 247,-195 247,-183 247,-183 247,-177 253,-171 259,-171"/>
<text xml:space="preserve" text-anchor="middle" x="256.88" y="-183.95" font-family="Times,serif" font-size="14.00"> </text>
<polyline fill="none" stroke="lightgray" points="266.75,-171 266.75,-207"/>
<text xml:space="preserve" text-anchor="middle" x="281.5" y="-183.95" font-family="Times,serif" font-size="14.00">19</text>
<polyline fill="none" stroke="lightgray" points="296.25,-171 296.25,-207"/>
<text xml:space="preserve" text-anchor="middle" x="306.12" y="-183.95" font-family="Times,serif" font-size="14.00"> </text>
</g>
<!-- 4469870608&#45;&gt;4469876768 -->
<g id="edge2" class="edge">
<title>4469870608:r&#45;&gt;4469876768:v</title>
<path fill="none" stroke="black" d="M175.75,-243.5C175.75,-198.51 262.6,-246.27 278.89,-218.67"/>
<polygon fill="black" stroke="black" points="282.28,-219.51 281.16,-208.97 275.47,-217.91 282.28,-219.51"/>
</g>
<!-- 4469873856 -->
<g id="node4" class="node">
<title>4469873856</title>
<path fill="lightgray" stroke="lightgray" d="M74.38,-98C74.38,-98 112.62,-98 112.62,-98 118.62,-98 124.62,-104 124.62,-110 124.62,-110 124.62,-122 124.62,-122 124.62,-128 118.62,-134 112.62,-134 112.62,-134 74.38,-134 74.38,-134 68.38,-134 62.38,-128 62.38,-122 62.38,-122 62.38,-110 62.38,-110 62.38,-104 68.38,-98 74.38,-98"/>
<text xml:space="preserve" text-anchor="middle" x="72.25" y="-110.95" font-family="Times,serif" font-size="14.00"> </text>
<polyline fill="none" stroke="lightgray" points="82.12,-98 82.12,-134"/>
<text xml:space="preserve" text-anchor="middle" x="93.5" y="-110.95" font-family="Times,serif" font-size="14.00">9</text>
<polyline fill="none" stroke="lightgray" points="104.88,-98 104.88,-134"/>
<text xml:space="preserve" text-anchor="middle" x="114.75" y="-110.95" font-family="Times,serif" font-size="14.00"> </text>
</g>
<!-- 4469873072&#45;&gt;4469873856 -->
<g id="edge3" class="edge">
<title>4469873072:l&#45;&gt;4469873856:v</title>
<path fill="none" stroke="black" d="M108.88,-170.5C108.88,-157.72 100.58,-153.68 96.18,-145.54"/>
<polygon fill="black" stroke="black" points="99.61,-144.86 93.86,-135.97 92.81,-146.51 99.61,-144.86"/>
</g>
<!-- 4469874528 -->
<g id="node5" class="node">
<title>4469874528</title>
<path fill="lightgray" stroke="lightgray" d="M154.38,-98C154.38,-98 192.62,-98 192.62,-98 198.62,-98 204.62,-104 204.62,-110 204.62,-110 204.62,-122 204.62,-122 204.62,-128 198.62,-134 192.62,-134 192.62,-134 154.38,-134 154.38,-134 148.38,-134 142.38,-128 142.38,-122 142.38,-122 142.38,-110 142.38,-110 142.38,-104 148.38,-98 154.38,-98"/>
<text xml:space="preserve" text-anchor="middle" x="152.25" y="-110.95" font-family="Times,serif" font-size="14.00"> </text>
<polyline fill="none" stroke="lightgray" points="162.12,-98 162.12,-134"/>
<text xml:space="preserve" text-anchor="middle" x="173.5" y="-110.95" font-family="Times,serif" font-size="14.00">3</text>
<polyline fill="none" stroke="lightgray" points="184.88,-98 184.88,-134"/>
<text xml:space="preserve" text-anchor="middle" x="194.75" y="-110.95" font-family="Times,serif" font-size="14.00"> </text>
</g>
<!-- 4469873072&#45;&gt;4469874528 -->
<g id="edge4" class="edge">
<title>4469873072:r&#45;&gt;4469874528:v</title>
<path fill="none" stroke="black" d="M158.12,-170.5C158.12,-157.72 166.42,-153.68 170.82,-145.54"/>
<polygon fill="black" stroke="black" points="174.19,-146.51 173.14,-135.97 167.39,-144.86 174.19,-146.51"/>
</g>
<!-- 4469875536 -->
<g id="node6" class="node">
<title>4469875536</title>
<path fill="lightgray" stroke="lightgray" d="M235,-98C235,-98 280,-98 280,-98 286,-98 292,-104 292,-110 292,-110 292,-122 292,-122 292,-128 286,-134 280,-134 280,-134 235,-134 235,-134 229,-134 223,-128 223,-122 223,-122 223,-110 223,-110 223,-104 229,-98 235,-98"/>
<text xml:space="preserve" text-anchor="middle" x="232.88" y="-110.95" font-family="Times,serif" font-size="14.00"> </text>
<polyline fill="none" stroke="lightgray" points="242.75,-98 242.75,-134"/>
<text xml:space="preserve" text-anchor="middle" x="257.5" y="-110.95" font-family="Times,serif" font-size="14.00">17</text>
<polyline fill="none" stroke="lightgray" points="272.25,-98 272.25,-134"/>
<text xml:space="preserve" text-anchor="middle" x="282.12" y="-110.95" font-family="Times,serif" font-size="14.00"> </text>
</g>
<!-- 4469876768&#45;&gt;4469875536 -->
<g id="edge5" class="edge">
<title>4469876768:l&#45;&gt;4469875536:v</title>
<path fill="none" stroke="black" d="M256.88,-170.5C256.88,-159.12 257.19,-153.82 257.37,-145.95"/>
<polygon fill="black" stroke="black" points="260.87,-146.05 257.48,-136.01 253.87,-145.97 260.87,-146.05"/>
</g>
<!-- 4469870272 -->
<g id="node7" class="node">
<title>4469870272</title>
<path fill="lightgray" stroke="lightgray" d="M322.38,-98C322.38,-98 360.62,-98 360.62,-98 366.62,-98 372.62,-104 372.62,-110 372.62,-110 372.62,-122 372.62,-122 372.62,-128 366.62,-134 360.62,-134 360.62,-134 322.38,-134 322.38,-134 316.38,-134 310.38,-128 310.38,-122 310.38,-122 310.38,-110 310.38,-110 310.38,-104 316.38,-98 322.38,-98"/>
<text xml:space="preserve" text-anchor="middle" x="320.25" y="-110.95" font-family="Times,serif" font-size="14.00"> </text>
<polyline fill="none" stroke="lightgray" points="330.12,-98 330.12,-134"/>
<text xml:space="preserve" text-anchor="middle" x="341.5" y="-110.95" font-family="Times,serif" font-size="14.00">6</text>
<polyline fill="none" stroke="lightgray" points="352.88,-98 352.88,-134"/>
<text xml:space="preserve" text-anchor="middle" x="362.75" y="-110.95" font-family="Times,serif" font-size="14.00"> </text>
</g>
<!-- 4469876768&#45;&gt;4469870272 -->
<g id="edge6" class="edge">
<title>4469876768:r&#45;&gt;4469870272:v</title>
<path fill="none" stroke="black" d="M306.12,-170.5C306.12,-152.8 328.15,-154.58 337.44,-145.11"/>
<polygon fill="black" stroke="black" points="340.65,-146.5 340.96,-135.91 334.12,-144 340.65,-146.5"/>
</g>
<!-- 4469875200 -->
<g id="node8" class="node">
<title>4469875200</title>
<path fill="lightgray" stroke="green" d="M12,-25C12,-25 57,-25 57,-25 63,-25 69,-31 69,-37 69,-37 69,-49 69,-49 69,-55 63,-61 57,-61 57,-61 12,-61 12,-61 6,-61 0,-55 0,-49 0,-49 0,-37 0,-37 0,-31 6,-25 12,-25"/>
<text xml:space="preserve" text-anchor="middle" x="9.88" y="-37.95" font-family="Times,serif" font-size="14.00"> </text>
<polyline fill="none" stroke="green" points="19.75,-25 19.75,-61"/>
<text xml:space="preserve" text-anchor="middle" x="34.5" y="-37.95" font-family="Times,serif" font-size="14.00">22</text>
<polyline fill="none" stroke="green" points="49.25,-25 49.25,-61"/>
<text xml:space="preserve" text-anchor="middle" x="59.12" y="-37.95" font-family="Times,serif" font-size="14.00"> </text>
</g>
<!-- 4469873856&#45;&gt;4469875200 -->
<g id="edge7" class="edge">
<title>4469873856:l&#45;&gt;4469875200:v</title>
<path fill="none" stroke="black" d="M72.25,-97.5C72.25,-79.03 48.28,-81.86 38.54,-72.04"/>
<polygon fill="black" stroke="black" points="41.89,-71 35.04,-62.91 35.35,-73.5 41.89,-71"/>
</g>
<!-- 4469869824 -->
<g id="node9" class="node">
<title>4469869824</title>
<path fill="lightgray" stroke="lightgray" d="M99,-25C99,-25 144,-25 144,-25 150,-25 156,-31 156,-37 156,-37 156,-49 156,-49 156,-55 150,-61 144,-61 144,-61 99,-61 99,-61 93,-61 87,-55 87,-49 87,-49 87,-37 87,-37 87,-31 93,-25 99,-25"/>
<text xml:space="preserve" text-anchor="middle" x="96.88" y="-37.95" font-family="Times,serif" font-size="14.00"> </text>
<polyline fill="none" stroke="lightgray" points="106.75,-25 106.75,-61"/>
<text xml:space="preserve" text-anchor="middle" x="121.5" y="-37.95" font-family="Times,serif" font-size="14.00">84</text>
<polyline fill="none" stroke="lightgray" points="136.25,-25 136.25,-61"/>
<text xml:space="preserve" text-anchor="middle" x="146.12" y="-37.95" font-family="Times,serif" font-size="14.00"> </text>
</g>
<!-- 4469873856&#45;&gt;4469869824 -->
<g id="edge8" class="edge">
<title>4469873856:r&#45;&gt;4469869824:v</title>
<path fill="none" stroke="black" d="M114.75,-97.5C114.75,-85.8 118.24,-80.73 120.2,-72.76"/>
<polygon fill="black" stroke="black" points="123.65,-73.34 121.33,-63 116.7,-72.54 123.65,-73.34"/>
</g>
<!-- 4469875200&#45;&gt;4469870608 -->
<g id="edge9" class="edge">
<title>4469875200&#45;&gt;4469870608</title>
<path fill="none" stroke="green" d="M36.43,-61.35C40.77,-93.36 53.88,-162.55 89.5,-207.5 98,-218.22 108.97,-228.25 119.47,-236.67"/>
<polygon fill="green" stroke="green" points="117.24,-239.37 127.3,-242.7 121.51,-233.82 117.24,-239.37"/>
</g>
</g>
</svg>
