<?xml version="1.0" encoding="UTF-8" standalone="no"?>
<!DOCTYPE svg PUBLIC "-//W3C//DTD SVG 1.1//EN"
 "http://www.w3.org/Graphics/SVG/1.1/DTD/svg11.dtd">
<!-- Generated by graphviz version 14.0.0 (20250921.2048)
 -->
<!-- Pages: 1 -->
<svg width="593pt" height="264pt"
 viewBox="0.00 0.00 593.00 264.00" xmlns="http://www.w3.org/2000/svg" xmlns:xlink="http://www.w3.org/1999/xlink">
<g id="graph0" class="graph" transform="scale(1 1) rotate(0) translate(4 260)">
<polygon fill="white" stroke="none" points="-4,4 -4,-260 588.62,-260 588.62,4 -4,4"/>
<!-- 4534521200 -->
<g id="node1" class="node">
<title>4534521200</title>
<path fill="lightgray" stroke="lightgray" d="M291,-219.5C291,-219.5 329.25,-219.5 329.25,-219.5 335.25,-219.5 341.25,-225.5 341.25,-231.5 341.25,-231.5 341.25,-243.5 341.25,-243.5 341.25,-249.5 335.25,-255.5 329.25,-255.5 329.25,-255.5 291,-255.5 291,-255.5 285,-255.5 279,-249.5 279,-243.5 279,-243.5 279,-231.5 279,-231.5 279,-225.5 285,-219.5 291,-219.5"/>
<text xml:space="preserve" text-anchor="middle" x="288.88" y="-232.45" font-family="Times,serif" font-size="14.00"> </text>
<polyline fill="none" stroke="lightgray" points="298.75,-219.5 298.75,-255.5"/>
<text xml:space="preserve" text-anchor="middle" x="310.12" y="-232.45" font-family="Times,serif" font-size="14.00">0</text>
<polyline fill="none" stroke="lightgray" points="321.5,-219.5 321.5,-255.5"/>
<text xml:space="preserve" text-anchor="middle" x="331.38" y="-232.45" font-family="Times,serif" font-size="14.00"> </text>
</g>
<!-- 4534521984 -->
<g id="node2" class="node">
<title>4534521984</title>
<path fill="lightgray" stroke="lightgray" d="M206,-146.5C206,-146.5 244.25,-146.5 244.25,-146.5 250.25,-146.5 256.25,-152.5 256.25,-158.5 256.25,-158.5 256.25,-170.5 256.25,-170.5 256.25,-176.5 250.25,-182.5 244.25,-182.5 244.25,-182.5 206,-182.5 206,-182.5 200,-182.5 194,-176.5 194,-170.5 194,-170.5 194,-158.5 194,-158.5 194,-152.5 200,-146.5 206,-146.5"/>
<text xml:space="preserve" text-anchor="middle" x="203.88" y="-159.45" font-family="Times,serif" font-size="14.00"> </text>
<polyline fill="none" stroke="lightgray" points="213.75,-146.5 213.75,-182.5"/>
<text xml:space="preserve" text-anchor="middle" x="225.12" y="-159.45" font-family="Times,serif" font-size="14.00">1</text>
<polyline fill="none" stroke="lightgray" points="236.5,-146.5 236.5,-182.5"/>
<text xml:space="preserve" text-anchor="middle" x="246.38" y="-159.45" font-family="Times,serif" font-size="14.00"> </text>
</g>
<!-- 4534521200&#45;&gt;4534521984 -->
<g id="edge1" class="edge">
<title>4534521200:l&#45;&gt;4534521984:v</title>
<path fill="none" stroke="black" d="M288.88,-219C288.88,-191.29 242.65,-208.26 228.92,-193.82"/>
<polygon fill="black" stroke="black" points="232.24,-192.71 225.63,-184.43 225.63,-195.02 232.24,-192.71"/>
</g>
<!-- 4534521872 -->
<g id="node3" class="node">
<title>4534521872</title>
<path fill="lightgray" stroke="lightgray" d="M421,-146.5C421,-146.5 459.25,-146.5 459.25,-146.5 465.25,-146.5 471.25,-152.5 471.25,-158.5 471.25,-158.5 471.25,-170.5 471.25,-170.5 471.25,-176.5 465.25,-182.5 459.25,-182.5 459.25,-182.5 421,-182.5 421,-182.5 415,-182.5 409,-176.5 409,-170.5 409,-170.5 409,-158.5 409,-158.5 409,-152.5 415,-146.5 421,-146.5"/>
<text xml:space="preserve" text-anchor="middle" x="418.88" y="-159.45" font-family="Times,serif" font-size="14.00"> </text>
<polyline fill="none" stroke="lightgray" points="428.75,-146.5 428.75,-182.5"/>
<text xml:space="preserve" text-anchor="middle" x="440.12" y="-159.45" font-family="Times,serif" font-size="14.00">3</text>
<polyline fill="none" stroke="lightgray" points="451.5,-146.5 451.5,-182.5"/>
<text xml:space="preserve" text-anchor="middle" x="461.38" y="-159.45" font-family="Times,serif" font-size="14.00"> </text>
</g>
<!-- 4534521200&#45;&gt;4534521872 -->
<g id="edge2" class="edge">
<title>4534521200:r&#45;&gt;4534521872:v</title>
<path fill="none" stroke="black" d="M331.38,-219C331.38,-172.66 421.46,-223.03 437.65,-194.07"/>
<polygon fill="black" stroke="black" points="441.03,-195 439.79,-184.48 434.2,-193.47 441.03,-195"/>
</g>
<!-- 4534522320 -->
<g id="node4" class="node">
<title>4534522320</title>
<path fill="lightgray" stroke="lightgray" d="M75,-73.5C75,-73.5 113.25,-73.5 113.25,-73.5 119.25,-73.5 125.25,-79.5 125.25,-85.5 125.25,-85.5 125.25,-97.5 125.25,-97.5 125.25,-103.5 119.25,-109.5 113.25,-109.5 113.25,-109.5 75,-109.5 75,-109.5 69,-109.5 63,-103.5 63,-97.5 63,-97.5 63,-85.5 63,-85.5 63,-79.5 69,-73.5 75,-73.5"/>
<text xml:space="preserve" text-anchor="middle" x="72.88" y="-86.45" font-family="Times,serif" font-size="14.00"> </text>
<polyline fill="none" stroke="lightgray" points="82.75,-73.5 82.75,-109.5"/>
<text xml:space="preserve" text-anchor="middle" x="94.12" y="-86.45" font-family="Times,serif" font-size="14.00">4</text>
<polyline fill="none" stroke="lightgray" points="105.5,-73.5 105.5,-109.5"/>
<text xml:space="preserve" text-anchor="middle" x="115.38" y="-86.45" font-family="Times,serif" font-size="14.00"> </text>
</g>
<!-- 4534521984&#45;&gt;4534522320 -->
<g id="edge3" class="edge">
<title>4534521984:l&#45;&gt;4534522320:v</title>
<path fill="none" stroke="black" d="M203.88,-146C203.88,-99.28 112.96,-150.31 96.62,-121.15"/>
<polygon fill="black" stroke="black" points="100.06,-120.47 94.46,-111.48 93.23,-122 100.06,-120.47"/>
</g>
<!-- 4534524560 -->
<g id="node5" class="node">
<title>4534524560</title>
<path fill="lightgray" stroke="lightgray" d="M227,-73.5C227,-73.5 265.25,-73.5 265.25,-73.5 271.25,-73.5 277.25,-79.5 277.25,-85.5 277.25,-85.5 277.25,-97.5 277.25,-97.5 277.25,-103.5 271.25,-109.5 265.25,-109.5 265.25,-109.5 227,-109.5 227,-109.5 221,-109.5 215,-103.5 215,-97.5 215,-97.5 215,-85.5 215,-85.5 215,-79.5 221,-73.5 227,-73.5"/>
<text xml:space="preserve" text-anchor="middle" x="224.88" y="-86.45" font-family="Times,serif" font-size="14.00"> </text>
<polyline fill="none" stroke="lightgray" points="234.75,-73.5 234.75,-109.5"/>
<text xml:space="preserve" text-anchor="middle" x="246.12" y="-86.45" font-family="Times,serif" font-size="14.00">5</text>
<polyline fill="none" stroke="lightgray" points="257.5,-73.5 257.5,-109.5"/>
<text xml:space="preserve" text-anchor="middle" x="267.38" y="-86.45" font-family="Times,serif" font-size="14.00"> </text>
</g>
<!-- 4534521984&#45;&gt;4534524560 -->
<g id="edge4" class="edge">
<title>4534521984:r&#45;&gt;4534524560:v</title>
<path fill="none" stroke="black" d="M246.38,-146C246.38,-134.62 246.25,-129.32 246.18,-121.45"/>
<polygon fill="black" stroke="black" points="249.68,-121.5 246.13,-111.51 242.68,-121.53 249.68,-121.5"/>
</g>
<!-- 4534520864 -->
<g id="node6" class="node">
<title>4534520864</title>
<path fill="lightgray" stroke="lightgray" d="M400,-73.5C400,-73.5 438.25,-73.5 438.25,-73.5 444.25,-73.5 450.25,-79.5 450.25,-85.5 450.25,-85.5 450.25,-97.5 450.25,-97.5 450.25,-103.5 444.25,-109.5 438.25,-109.5 438.25,-109.5 400,-109.5 400,-109.5 394,-109.5 388,-103.5 388,-97.5 388,-97.5 388,-85.5 388,-85.5 388,-79.5 394,-73.5 400,-73.5"/>
<text xml:space="preserve" text-anchor="middle" x="397.88" y="-86.45" font-family="Times,serif" font-size="14.00"> </text>
<polyline fill="none" stroke="lightgray" points="407.75,-73.5 407.75,-109.5"/>
<text xml:space="preserve" text-anchor="middle" x="419.12" y="-86.45" font-family="Times,serif" font-size="14.00">7</text>
<polyline fill="none" stroke="lightgray" points="430.5,-73.5 430.5,-109.5"/>
<text xml:space="preserve" text-anchor="middle" x="440.38" y="-86.45" font-family="Times,serif" font-size="14.00"> </text>
</g>
<!-- 4534521872&#45;&gt;4534520864 -->
<g id="edge5" class="edge">
<title>4534521872:l&#45;&gt;4534520864:v</title>
<path fill="none" stroke="black" d="M418.88,-146C418.88,-134.62 419,-129.32 419.07,-121.45"/>
<polygon fill="black" stroke="black" points="422.57,-121.53 419.12,-111.51 415.57,-121.5 422.57,-121.53"/>
</g>
<!-- 4534518624 -->
<g id="node7" class="node">
<title>4534518624</title>
<path fill="lightgray" stroke="lightgray" d="M527,-73.5C527,-73.5 565.25,-73.5 565.25,-73.5 571.25,-73.5 577.25,-79.5 577.25,-85.5 577.25,-85.5 577.25,-97.5 577.25,-97.5 577.25,-103.5 571.25,-109.5 565.25,-109.5 565.25,-109.5 527,-109.5 527,-109.5 521,-109.5 515,-103.5 515,-97.5 515,-97.5 515,-85.5 515,-85.5 515,-79.5 521,-73.5 527,-73.5"/>
<text xml:space="preserve" text-anchor="middle" x="524.88" y="-86.45" font-family="Times,serif" font-size="14.00"> </text>
<polyline fill="none" stroke="lightgray" points="534.75,-73.5 534.75,-109.5"/>
<text xml:space="preserve" text-anchor="middle" x="546.12" y="-86.45" font-family="Times,serif" font-size="14.00">8</text>
<polyline fill="none" stroke="lightgray" points="557.5,-73.5 557.5,-109.5"/>
<text xml:space="preserve" text-anchor="middle" x="567.38" y="-86.45" font-family="Times,serif" font-size="14.00"> </text>
</g>
<!-- 4534521872&#45;&gt;4534518624 -->
<g id="edge6" class="edge">
<title>4534521872:r&#45;&gt;4534518624:v</title>
<path fill="none" stroke="black" d="M461.38,-146C461.38,-109.71 528.01,-141.65 543.11,-120.82"/>
<polygon fill="black" stroke="black" points="546.4,-122.03 545.72,-111.46 539.66,-120.15 546.4,-122.03"/>
</g>
<!-- 4534522096 -->
<g id="node8" class="node">
<title>4534522096</title>
<path fill="lightgray" stroke="lightgray" d="M12,-0.5C12,-0.5 50.25,-0.5 50.25,-0.5 56.25,-0.5 62.25,-6.5 62.25,-12.5 62.25,-12.5 62.25,-24.5 62.25,-24.5 62.25,-30.5 56.25,-36.5 50.25,-36.5 50.25,-36.5 12,-36.5 12,-36.5 6,-36.5 0,-30.5 0,-24.5 0,-24.5 0,-12.5 0,-12.5 0,-6.5 6,-0.5 12,-0.5"/>
<text xml:space="preserve" text-anchor="middle" x="9.88" y="-13.45" font-family="Times,serif" font-size="14.00"> </text>
<polyline fill="none" stroke="lightgray" points="19.75,-0.5 19.75,-36.5"/>
<text xml:space="preserve" text-anchor="middle" x="31.12" y="-13.45" font-family="Times,serif" font-size="14.00">9</text>
<polyline fill="none" stroke="lightgray" points="42.5,-0.5 42.5,-36.5"/>
<text xml:space="preserve" text-anchor="middle" x="52.38" y="-13.45" font-family="Times,serif" font-size="14.00"> </text>
</g>
<!-- 4534522320&#45;&gt;4534522096 -->
<g id="edge7" class="edge">
<title>4534522320:l&#45;&gt;4534522096:v</title>
<path fill="none" stroke="black" d="M72.88,-73C72.88,-53.28 45.84,-57.85 35.28,-47.62"/>
<polygon fill="black" stroke="black" points="38.58,-46.45 31.68,-38.41 32.06,-49 38.58,-46.45"/>
</g>
<!-- 4534520752 -->
<g id="node9" class="node">
<title>4534520752</title>
<path fill="lightgray" stroke="lightgray" d="M92.62,-0.5C92.62,-0.5 137.62,-0.5 137.62,-0.5 143.62,-0.5 149.62,-6.5 149.62,-12.5 149.62,-12.5 149.62,-24.5 149.62,-24.5 149.62,-30.5 143.62,-36.5 137.62,-36.5 137.62,-36.5 92.62,-36.5 92.62,-36.5 86.62,-36.5 80.62,-30.5 80.62,-24.5 80.62,-24.5 80.62,-12.5 80.62,-12.5 80.62,-6.5 86.62,-0.5 92.62,-0.5"/>
<text xml:space="preserve" text-anchor="middle" x="90.5" y="-13.45" font-family="Times,serif" font-size="14.00"> </text>
<polyline fill="none" stroke="lightgray" points="100.38,-0.5 100.38,-36.5"/>
<text xml:space="preserve" text-anchor="middle" x="115.12" y="-13.45" font-family="Times,serif" font-size="14.00">10</text>
<polyline fill="none" stroke="lightgray" points="129.88,-0.5 129.88,-36.5"/>
<text xml:space="preserve" text-anchor="middle" x="139.75" y="-13.45" font-family="Times,serif" font-size="14.00"> </text>
</g>
<!-- 4534522320&#45;&gt;4534520752 -->
<g id="edge8" class="edge">
<title>4534522320:r&#45;&gt;4534520752:v</title>
<path fill="none" stroke="black" d="M115.38,-73C115.38,-61.62 115.25,-56.32 115.18,-48.45"/>
<polygon fill="black" stroke="black" points="118.68,-48.5 115.13,-38.51 111.68,-48.53 118.68,-48.5"/>
</g>
<!-- 4534521088 -->
<g id="node10" class="node">
<title>4534521088</title>
<path fill="lightgray" stroke="lightgray" d="M179.62,-0.5C179.62,-0.5 224.62,-0.5 224.62,-0.5 230.62,-0.5 236.62,-6.5 236.62,-12.5 236.62,-12.5 236.62,-24.5 236.62,-24.5 236.62,-30.5 230.62,-36.5 224.62,-36.5 224.62,-36.5 179.62,-36.5 179.62,-36.5 173.62,-36.5 167.62,-30.5 167.62,-24.5 167.62,-24.5 167.62,-12.5 167.62,-12.5 167.62,-6.5 173.62,-0.5 179.62,-0.5"/>
<text xml:space="preserve" text-anchor="middle" x="177.5" y="-13.45" font-family="Times,serif" font-size="14.00"> </text>
<polyline fill="none" stroke="lightgray" points="187.38,-0.5 187.38,-36.5"/>
<text xml:space="preserve" text-anchor="middle" x="202.12" y="-13.45" font-family="Times,serif" font-size="14.00">12</text>
<polyline fill="none" stroke="lightgray" points="216.88,-0.5 216.88,-36.5"/>
<text xml:space="preserve" text-anchor="middle" x="226.75" y="-13.45" font-family="Times,serif" font-size="14.00"> </text>
</g>
<!-- 4534524560&#45;&gt;4534521088 -->
<g id="edge9" class="edge">
<title>4534524560:l&#45;&gt;4534521088:v</title>
<path fill="none" stroke="black" d="M224.88,-73C224.88,-58.8 212.08,-56.3 205.68,-47.95"/>
<polygon fill="black" stroke="black" points="209.01,-46.87 202.59,-38.44 202.35,-49.03 209.01,-46.87"/>
</g>
<!-- 4534521760 -->
<g id="node11" class="node">
<title>4534521760</title>
<path fill="lightgray" stroke="lightgray" d="M266.62,-0.5C266.62,-0.5 311.62,-0.5 311.62,-0.5 317.62,-0.5 323.62,-6.5 323.62,-12.5 323.62,-12.5 323.62,-24.5 323.62,-24.5 323.62,-30.5 317.62,-36.5 311.62,-36.5 311.62,-36.5 266.62,-36.5 266.62,-36.5 260.62,-36.5 254.62,-30.5 254.62,-24.5 254.62,-24.5 254.62,-12.5 254.62,-12.5 254.62,-6.5 260.62,-0.5 266.62,-0.5"/>
<text xml:space="preserve" text-anchor="middle" x="264.5" y="-13.45" font-family="Times,serif" font-size="14.00"> </text>
<polyline fill="none" stroke="lightgray" points="274.38,-0.5 274.38,-36.5"/>
<text xml:space="preserve" text-anchor="middle" x="289.12" y="-13.45" font-family="Times,serif" font-size="14.00">13</text>
<polyline fill="none" stroke="lightgray" points="303.88,-0.5 303.88,-36.5"/>
<text xml:space="preserve" text-anchor="middle" x="313.75" y="-13.45" font-family="Times,serif" font-size="14.00"> </text>
</g>
<!-- 4534524560&#45;&gt;4534521760 -->
<g id="edge10" class="edge">
<title>4534524560:r&#45;&gt;4534521760:v</title>
<path fill="none" stroke="black" d="M267.38,-73C267.38,-58.98 279.61,-56.26 285.73,-47.88"/>
<polygon fill="black" stroke="black" points="289.03,-49.03 288.67,-38.44 282.35,-46.95 289.03,-49.03"/>
</g>
<!-- 4534521648 -->
<g id="node12" class="node">
<title>4534521648</title>
<path fill="lightgray" stroke="lightgray" d="M353.62,-0.5C353.62,-0.5 398.62,-0.5 398.62,-0.5 404.62,-0.5 410.62,-6.5 410.62,-12.5 410.62,-12.5 410.62,-24.5 410.62,-24.5 410.62,-30.5 404.62,-36.5 398.62,-36.5 398.62,-36.5 353.62,-36.5 353.62,-36.5 347.62,-36.5 341.62,-30.5 341.62,-24.5 341.62,-24.5 341.62,-12.5 341.62,-12.5 341.62,-6.5 347.62,-0.5 353.62,-0.5"/>
<text xml:space="preserve" text-anchor="middle" x="351.5" y="-13.45" font-family="Times,serif" font-size="14.00"> </text>
<polyline fill="none" stroke="lightgray" points="361.38,-0.5 361.38,-36.5"/>
<text xml:space="preserve" text-anchor="middle" x="376.12" y="-13.45" font-family="Times,serif" font-size="14.00">16</text>
<polyline fill="none" stroke="lightgray" points="390.88,-0.5 390.88,-36.5"/>
<text xml:space="preserve" text-anchor="middle" x="400.75" y="-13.45" font-family="Times,serif" font-size="14.00"> </text>
</g>
<!-- 4534520864&#45;&gt;4534521648 -->
<g id="edge11" class="edge">
<title>4534520864:l&#45;&gt;4534521648:v</title>
<path fill="none" stroke="black" d="M397.88,-73C397.88,-58.98 385.64,-56.26 379.52,-47.88"/>
<polygon fill="black" stroke="black" points="382.9,-46.95 376.58,-38.44 376.22,-49.03 382.9,-46.95"/>
</g>
<!-- 4534520976 -->
<g id="node13" class="node">
<title>4534520976</title>
<path fill="lightgray" stroke="lightgray" d="M440.62,-0.5C440.62,-0.5 485.62,-0.5 485.62,-0.5 491.62,-0.5 497.62,-6.5 497.62,-12.5 497.62,-12.5 497.62,-24.5 497.62,-24.5 497.62,-30.5 491.62,-36.5 485.62,-36.5 485.62,-36.5 440.62,-36.5 440.62,-36.5 434.62,-36.5 428.62,-30.5 428.62,-24.5 428.62,-24.5 428.62,-12.5 428.62,-12.5 428.62,-6.5 434.62,-0.5 440.62,-0.5"/>
<text xml:space="preserve" text-anchor="middle" x="438.5" y="-13.45" font-family="Times,serif" font-size="14.00"> </text>
<polyline fill="none" stroke="lightgray" points="448.38,-0.5 448.38,-36.5"/>
<text xml:space="preserve" text-anchor="middle" x="463.12" y="-13.45" font-family="Times,serif" font-size="14.00">17</text>
<polyline fill="none" stroke="lightgray" points="477.88,-0.5 477.88,-36.5"/>
<text xml:space="preserve" text-anchor="middle" x="487.75" y="-13.45" font-family="Times,serif" font-size="14.00"> </text>
</g>
<!-- 4534520864&#45;&gt;4534520976 -->
<g id="edge12" class="edge">
<title>4534520864:r&#45;&gt;4534520976:v</title>
<path fill="none" stroke="black" d="M440.38,-73C440.38,-58.8 453.17,-56.3 459.57,-47.95"/>
<polygon fill="black" stroke="black" points="462.9,-49.03 462.66,-38.44 456.24,-46.87 462.9,-49.03"/>
</g>
<!-- 4534521536 -->
<g id="node14" class="node">
<title>4534521536</title>
<path fill="lightgray" stroke="lightgray" d="M527.62,-0.5C527.62,-0.5 572.62,-0.5 572.62,-0.5 578.62,-0.5 584.62,-6.5 584.62,-12.5 584.62,-12.5 584.62,-24.5 584.62,-24.5 584.62,-30.5 578.62,-36.5 572.62,-36.5 572.62,-36.5 527.62,-36.5 527.62,-36.5 521.62,-36.5 515.62,-30.5 515.62,-24.5 515.62,-24.5 515.62,-12.5 515.62,-12.5 515.62,-6.5 521.62,-0.5 527.62,-0.5"/>
<text xml:space="preserve" text-anchor="middle" x="525.5" y="-13.45" font-family="Times,serif" font-size="14.00"> </text>
<polyline fill="none" stroke="lightgray" points="535.38,-0.5 535.38,-36.5"/>
<text xml:space="preserve" text-anchor="middle" x="550.12" y="-13.45" font-family="Times,serif" font-size="14.00">27</text>
<polyline fill="none" stroke="lightgray" points="564.88,-0.5 564.88,-36.5"/>
<text xml:space="preserve" text-anchor="middle" x="574.75" y="-13.45" font-family="Times,serif" font-size="14.00"> </text>
</g>
<!-- 4534518624&#45;&gt;4534521536 -->
<g id="edge13" class="edge">
<title>4534518624:l&#45;&gt;4534521536:v</title>
<path fill="none" stroke="black" d="M524.88,-73C524.88,-58.19 539.38,-56.38 546.4,-47.86"/>
<polygon fill="black" stroke="black" points="549.7,-49.03 549.63,-38.43 543.08,-46.75 549.7,-49.03"/>
</g>
</g>
</svg>
