<?xml version="1.0" encoding="UTF-8" standalone="no"?>
<!DOCTYPE svg PUBLIC "-//W3C//DTD SVG 1.1//EN"
 "http://www.w3.org/Graphics/SVG/1.1/DTD/svg11.dtd">
<!-- Generated by graphviz version 14.0.0 (20250921.2048)
 -->
<!-- Pages: 1 -->
<svg width="550pt" height="289pt"
 viewBox="0.00 0.00 550.00 289.00" xmlns="http://www.w3.org/2000/svg" xmlns:xlink="http://www.w3.org/1999/xlink">
<g id="graph0" class="graph" transform="scale(1 1) rotate(0) translate(4 284.5)">
<polygon fill="white" stroke="none" points="-4,4 -4,-284.5 546.25,-284.5 546.25,4 -4,4"/>
<text xml:space="preserve" text-anchor="middle" x="271.12" y="-7.2" font-family="Times,serif" font-size="14.00">heap</text>
<!-- 4469876096 -->
<g id="node1" class="node">
<title>4469876096</title>
<path fill="lightgray" stroke="lightgray" d="M272.62,-244C272.62,-244 317.62,-244 317.62,-244 323.62,-244 329.62,-250 329.62,-256 329.62,-256 329.62,-268 329.62,-268 329.62,-274 323.62,-280 317.62,-280 317.62,-280 272.62,-280 272.62,-280 266.62,-280 260.62,-274 260.62,-268 260.62,-268 260.62,-256 260.62,-256 260.62,-250 266.62,-244 272.62,-244"/>
<text xml:space="preserve" text-anchor="middle" x="270.5" y="-256.95" font-family="Times,serif" font-size="14.00"> </text>
<polyline fill="none" stroke="lightgray" points="280.38,-244 280.38,-280"/>
<text xml:space="preserve" text-anchor="middle" x="295.12" y="-256.95" font-family="Times,serif" font-size="14.00">27</text>
<polyline fill="none" stroke="lightgray" points="309.88,-244 309.88,-280"/>
<text xml:space="preserve" text-anchor="middle" x="319.75" y="-256.95" font-family="Times,serif" font-size="14.00"> </text>
</g>
<!-- 4469877328 -->
<g id="node2" class="node">
<title>4469877328</title>
<path fill="lightgray" stroke="lightgray" d="M184.62,-171C184.62,-171 229.62,-171 229.62,-171 235.62,-171 241.62,-177 241.62,-183 241.62,-183 241.62,-195 241.62,-195 241.62,-201 235.62,-207 229.62,-207 229.62,-207 184.62,-207 184.62,-207 178.62,-207 172.62,-201 172.62,-195 172.62,-195 172.62,-183 172.62,-183 172.62,-177 178.62,-171 184.62,-171"/>
<text xml:space="preserve" text-anchor="middle" x="182.5" y="-183.95" font-family="Times,serif" font-size="14.00"> </text>
<polyline fill="none" stroke="lightgray" points="192.38,-171 192.38,-207"/>
<text xml:space="preserve" text-anchor="middle" x="207.12" y="-183.95" font-family="Times,serif" font-size="14.00">13</text>
<polyline fill="none" stroke="lightgray" points="221.88,-171 221.88,-207"/>
<text xml:space="preserve" text-anchor="middle" x="231.75" y="-183.95" font-family="Times,serif" font-size="14.00"> </text>
</g>
<!-- 4469876096&#45;&gt;4469877328 -->
<g id="edge1" class="edge">
<title>4469876096:l&#45;&gt;4469877328:v</title>
<path fill="none" stroke="black" d="M270.5,-243.5C270.5,-215.91 224.54,-232.7 210.9,-218.28"/>
<polygon fill="black" stroke="black" points="214.23,-217.21 207.63,-208.93 207.63,-219.52 214.23,-217.21"/>
</g>
<!-- 4469874080 -->
<g id="node3" class="node">
<title>4469874080</title>
<path fill="lightgray" stroke="lightgray" d="M392.62,-171C392.62,-171 437.62,-171 437.62,-171 443.62,-171 449.62,-177 449.62,-183 449.62,-183 449.62,-195 449.62,-195 449.62,-201 443.62,-207 437.62,-207 437.62,-207 392.62,-207 392.62,-207 386.62,-207 380.62,-201 380.62,-195 380.62,-195 380.62,-183 380.62,-183 380.62,-177 386.62,-171 392.62,-171"/>
<text xml:space="preserve" text-anchor="middle" x="390.5" y="-183.95" font-family="Times,serif" font-size="14.00"> </text>
<polyline fill="none" stroke="lightgray" points="400.38,-171 400.38,-207"/>
<text xml:space="preserve" text-anchor="middle" x="415.12" y="-183.95" font-family="Times,serif" font-size="14.00">17</text>
<polyline fill="none" stroke="lightgray" points="429.88,-171 429.88,-207"/>
<text xml:space="preserve" text-anchor="middle" x="439.75" y="-183.95" font-family="Times,serif" font-size="14.00"> </text>
</g>
<!-- 4469876096&#45;&gt;4469874080 -->
<g id="edge2" class="edge">
<title>4469876096:r&#45;&gt;4469874080:v</title>
<path fill="none" stroke="black" d="M319.75,-243.5C319.75,-202.79 396.74,-242.74 412.37,-218.42"/>
<polygon fill="black" stroke="black" points="415.71,-219.52 414.76,-208.97 408.92,-217.81 415.71,-219.52"/>
</g>
<!-- 4469868704 -->
<g id="node4" class="node">
<title>4469868704</title>
<path fill="lightgray" stroke="lightgray" d="M64.62,-98C64.62,-98 109.62,-98 109.62,-98 115.62,-98 121.62,-104 121.62,-110 121.62,-110 121.62,-122 121.62,-122 121.62,-128 115.62,-134 109.62,-134 109.62,-134 64.62,-134 64.62,-134 58.62,-134 52.62,-128 52.62,-122 52.62,-122 52.62,-110 52.62,-110 52.62,-104 58.62,-98 64.62,-98"/>
<text xml:space="preserve" text-anchor="middle" x="62.5" y="-110.95" font-family="Times,serif" font-size="14.00"> </text>
<polyline fill="none" stroke="lightgray" points="72.38,-98 72.38,-134"/>
<text xml:space="preserve" text-anchor="middle" x="87.12" y="-110.95" font-family="Times,serif" font-size="14.00">10</text>
<polyline fill="none" stroke="lightgray" points="101.88,-98 101.88,-134"/>
<text xml:space="preserve" text-anchor="middle" x="111.75" y="-110.95" font-family="Times,serif" font-size="14.00"> </text>
</g>
<!-- 4469877328&#45;&gt;4469868704 -->
<g id="edge3" class="edge">
<title>4469877328:l&#45;&gt;4469868704:v</title>
<path fill="none" stroke="black" d="M182.5,-170.5C182.5,-129.79 105.51,-169.74 89.88,-145.42"/>
<polygon fill="black" stroke="black" points="93.33,-144.81 87.49,-135.97 86.54,-146.52 93.33,-144.81"/>
</g>
<!-- 4469876992 -->
<g id="node5" class="node">
<title>4469876992</title>
<path fill="lightgray" stroke="lightgray" d="M208.62,-98C208.62,-98 253.62,-98 253.62,-98 259.62,-98 265.62,-104 265.62,-110 265.62,-110 265.62,-122 265.62,-122 265.62,-128 259.62,-134 253.62,-134 253.62,-134 208.62,-134 208.62,-134 202.62,-134 196.62,-128 196.62,-122 196.62,-122 196.62,-110 196.62,-110 196.62,-104 202.62,-98 208.62,-98"/>
<text xml:space="preserve" text-anchor="middle" x="206.5" y="-110.95" font-family="Times,serif" font-size="14.00"> </text>
<polyline fill="none" stroke="lightgray" points="216.38,-98 216.38,-134"/>
<text xml:space="preserve" text-anchor="middle" x="231.12" y="-110.95" font-family="Times,serif" font-size="14.00">12</text>
<polyline fill="none" stroke="lightgray" points="245.88,-98 245.88,-134"/>
<text xml:space="preserve" text-anchor="middle" x="255.75" y="-110.95" font-family="Times,serif" font-size="14.00"> </text>
</g>
<!-- 4469877328&#45;&gt;4469876992 -->
<g id="edge4" class="edge">
<title>4469877328:r&#45;&gt;4469876992:v</title>
<path fill="none" stroke="black" d="M231.75,-170.5C231.75,-159.12 231.43,-153.82 231.25,-145.95"/>
<polygon fill="black" stroke="black" points="234.75,-145.97 231.14,-136.01 227.75,-146.05 234.75,-145.97"/>
</g>
<!-- 4469874304 -->
<g id="node6" class="node">
<title>4469874304</title>
<path fill="lightgray" stroke="lightgray" d="M368.62,-98C368.62,-98 413.62,-98 413.62,-98 419.62,-98 425.62,-104 425.62,-110 425.62,-110 425.62,-122 425.62,-122 425.62,-128 419.62,-134 413.62,-134 413.62,-134 368.62,-134 368.62,-134 362.62,-134 356.62,-128 356.62,-122 356.62,-122 356.62,-110 356.62,-110 356.62,-104 362.62,-98 368.62,-98"/>
<text xml:space="preserve" text-anchor="middle" x="366.5" y="-110.95" font-family="Times,serif" font-size="14.00"> </text>
<polyline fill="none" stroke="lightgray" points="376.38,-98 376.38,-134"/>
<text xml:space="preserve" text-anchor="middle" x="391.12" y="-110.95" font-family="Times,serif" font-size="14.00">16</text>
<polyline fill="none" stroke="lightgray" points="405.88,-98 405.88,-134"/>
<text xml:space="preserve" text-anchor="middle" x="415.75" y="-110.95" font-family="Times,serif" font-size="14.00"> </text>
</g>
<!-- 4469874080&#45;&gt;4469874304 -->
<g id="edge5" class="edge">
<title>4469874080:l&#45;&gt;4469874304:v</title>
<path fill="none" stroke="black" d="M390.5,-170.5C390.5,-159.12 390.82,-153.82 391,-145.95"/>
<polygon fill="black" stroke="black" points="394.5,-146.05 391.11,-136.01 387.5,-145.97 394.5,-146.05"/>
</g>
<!-- 4469876656 -->
<g id="node7" class="node">
<title>4469876656</title>
<path fill="lightgray" stroke="lightgray" d="M492,-98C492,-98 530.25,-98 530.25,-98 536.25,-98 542.25,-104 542.25,-110 542.25,-110 542.25,-122 542.25,-122 542.25,-128 536.25,-134 530.25,-134 530.25,-134 492,-134 492,-134 486,-134 480,-128 480,-122 480,-122 480,-110 480,-110 480,-104 486,-98 492,-98"/>
<text xml:space="preserve" text-anchor="middle" x="489.88" y="-110.95" font-family="Times,serif" font-size="14.00"> </text>
<polyline fill="none" stroke="lightgray" points="499.75,-98 499.75,-134"/>
<text xml:space="preserve" text-anchor="middle" x="511.12" y="-110.95" font-family="Times,serif" font-size="14.00">8</text>
<polyline fill="none" stroke="lightgray" points="522.5,-98 522.5,-134"/>
<text xml:space="preserve" text-anchor="middle" x="532.38" y="-110.95" font-family="Times,serif" font-size="14.00"> </text>
</g>
<!-- 4469874080&#45;&gt;4469876656 -->
<g id="edge6" class="edge">
<title>4469874080:r&#45;&gt;4469876656:v</title>
<path fill="none" stroke="black" d="M439.75,-170.5C439.75,-139.69 493.43,-161.96 507.68,-145.25"/>
<polygon fill="black" stroke="black" points="510.95,-146.53 510.66,-135.94 504.28,-144.4 510.95,-146.53"/>
</g>
<!-- 4469877216 -->
<g id="node8" class="node">
<title>4469877216</title>
<path fill="lightgray" stroke="lightgray" d="M12,-25C12,-25 50.25,-25 50.25,-25 56.25,-25 62.25,-31 62.25,-37 62.25,-37 62.25,-49 62.25,-49 62.25,-55 56.25,-61 50.25,-61 50.25,-61 12,-61 12,-61 6,-61 0,-55 0,-49 0,-49 0,-37 0,-37 0,-31 6,-25 12,-25"/>
<text xml:space="preserve" text-anchor="middle" x="9.88" y="-37.95" font-family="Times,serif" font-size="14.00"> </text>
<polyline fill="none" stroke="lightgray" points="19.75,-25 19.75,-61"/>
<text xml:space="preserve" text-anchor="middle" x="31.12" y="-37.95" font-family="Times,serif" font-size="14.00">9</text>
<polyline fill="none" stroke="lightgray" points="42.5,-25 42.5,-61"/>
<text xml:space="preserve" text-anchor="middle" x="52.38" y="-37.95" font-family="Times,serif" font-size="14.00"> </text>
</g>
<!-- 4469868704&#45;&gt;4469877216 -->
<g id="edge7" class="edge">
<title>4469868704:l&#45;&gt;4469877216:v</title>
<path fill="none" stroke="black" d="M62.5,-97.5C62.5,-80.92 43.35,-81.23 34.97,-72.04"/>
<polygon fill="black" stroke="black" points="38.36,-71.11 31.64,-62.92 31.79,-73.52 38.36,-71.11"/>
</g>
<!-- 4469874752 -->
<g id="node9" class="node">
<title>4469874752</title>
<path fill="lightgray" stroke="lightgray" d="M92,-25C92,-25 130.25,-25 130.25,-25 136.25,-25 142.25,-31 142.25,-37 142.25,-37 142.25,-49 142.25,-49 142.25,-55 136.25,-61 130.25,-61 130.25,-61 92,-61 92,-61 86,-61 80,-55 80,-49 80,-49 80,-37 80,-37 80,-31 86,-25 92,-25"/>
<text xml:space="preserve" text-anchor="middle" x="89.88" y="-37.95" font-family="Times,serif" font-size="14.00"> </text>
<polyline fill="none" stroke="lightgray" points="99.75,-25 99.75,-61"/>
<text xml:space="preserve" text-anchor="middle" x="111.12" y="-37.95" font-family="Times,serif" font-size="14.00">4</text>
<polyline fill="none" stroke="lightgray" points="122.5,-25 122.5,-61"/>
<text xml:space="preserve" text-anchor="middle" x="132.38" y="-37.95" font-family="Times,serif" font-size="14.00"> </text>
</g>
<!-- 4469868704&#45;&gt;4469874752 -->
<g id="edge8" class="edge">
<title>4469868704:r&#45;&gt;4469874752:v</title>
<path fill="none" stroke="black" d="M111.75,-97.5C111.75,-86.12 111.43,-80.82 111.25,-72.95"/>
<polygon fill="black" stroke="black" points="114.75,-72.97 111.14,-63.01 107.75,-73.05 114.75,-72.97"/>
</g>
<!-- 4469872960 -->
<g id="node10" class="node">
<title>4469872960</title>
<path fill="lightgray" stroke="lightgray" d="M172,-25C172,-25 210.25,-25 210.25,-25 216.25,-25 222.25,-31 222.25,-37 222.25,-37 222.25,-49 222.25,-49 222.25,-55 216.25,-61 210.25,-61 210.25,-61 172,-61 172,-61 166,-61 160,-55 160,-49 160,-49 160,-37 160,-37 160,-31 166,-25 172,-25"/>
<text xml:space="preserve" text-anchor="middle" x="169.88" y="-37.95" font-family="Times,serif" font-size="14.00"> </text>
<polyline fill="none" stroke="lightgray" points="179.75,-25 179.75,-61"/>
<text xml:space="preserve" text-anchor="middle" x="191.12" y="-37.95" font-family="Times,serif" font-size="14.00">1</text>
<polyline fill="none" stroke="lightgray" points="202.5,-25 202.5,-61"/>
<text xml:space="preserve" text-anchor="middle" x="212.38" y="-37.95" font-family="Times,serif" font-size="14.00"> </text>
</g>
<!-- 4469876992&#45;&gt;4469872960 -->
<g id="edge9" class="edge">
<title>4469876992:l&#45;&gt;4469872960:v</title>
<path fill="none" stroke="black" d="M206.5,-97.5C206.5,-84.72 198.21,-80.68 193.8,-72.54"/>
<polygon fill="black" stroke="black" points="197.24,-71.86 191.48,-62.97 190.44,-73.51 197.24,-71.86"/>
</g>
<!-- 4469874192 -->
<g id="node11" class="node">
<title>4469874192</title>
<path fill="lightgray" stroke="lightgray" d="M252,-25C252,-25 290.25,-25 290.25,-25 296.25,-25 302.25,-31 302.25,-37 302.25,-37 302.25,-49 302.25,-49 302.25,-55 296.25,-61 290.25,-61 290.25,-61 252,-61 252,-61 246,-61 240,-55 240,-49 240,-49 240,-37 240,-37 240,-31 246,-25 252,-25"/>
<text xml:space="preserve" text-anchor="middle" x="249.88" y="-37.95" font-family="Times,serif" font-size="14.00"> </text>
<polyline fill="none" stroke="lightgray" points="259.75,-25 259.75,-61"/>
<text xml:space="preserve" text-anchor="middle" x="271.12" y="-37.95" font-family="Times,serif" font-size="14.00">5</text>
<polyline fill="none" stroke="lightgray" points="282.5,-25 282.5,-61"/>
<text xml:space="preserve" text-anchor="middle" x="292.38" y="-37.95" font-family="Times,serif" font-size="14.00"> </text>
</g>
<!-- 4469876992&#45;&gt;4469874192 -->
<g id="edge10" class="edge">
<title>4469876992:r&#45;&gt;4469874192:v</title>
<path fill="none" stroke="black" d="M255.75,-97.5C255.75,-84.72 264.04,-80.68 268.45,-72.54"/>
<polygon fill="black" stroke="black" points="271.81,-73.51 270.77,-62.97 265.01,-71.86 271.81,-73.51"/>
</g>
<!-- 4469876432 -->
<g id="node12" class="node">
<title>4469876432</title>
<path fill="lightgray" stroke="lightgray" d="M332,-25C332,-25 370.25,-25 370.25,-25 376.25,-25 382.25,-31 382.25,-37 382.25,-37 382.25,-49 382.25,-49 382.25,-55 376.25,-61 370.25,-61 370.25,-61 332,-61 332,-61 326,-61 320,-55 320,-49 320,-49 320,-37 320,-37 320,-31 326,-25 332,-25"/>
<text xml:space="preserve" text-anchor="middle" x="329.88" y="-37.95" font-family="Times,serif" font-size="14.00"> </text>
<polyline fill="none" stroke="lightgray" points="339.75,-25 339.75,-61"/>
<text xml:space="preserve" text-anchor="middle" x="351.12" y="-37.95" font-family="Times,serif" font-size="14.00">0</text>
<polyline fill="none" stroke="lightgray" points="362.5,-25 362.5,-61"/>
<text xml:space="preserve" text-anchor="middle" x="372.38" y="-37.95" font-family="Times,serif" font-size="14.00"> </text>
</g>
<!-- 4469874304&#45;&gt;4469876432 -->
<g id="edge11" class="edge">
<title>4469874304:l&#45;&gt;4469876432:v</title>
<path fill="none" stroke="black" d="M366.5,-97.5C366.5,-84.72 358.21,-80.68 353.8,-72.54"/>
<polygon fill="black" stroke="black" points="357.24,-71.86 351.48,-62.97 350.44,-73.51 357.24,-71.86"/>
</g>
<!-- 4469877440 -->
<g id="node13" class="node">
<title>4469877440</title>
<path fill="lightgray" stroke="lightgray" d="M412,-25C412,-25 450.25,-25 450.25,-25 456.25,-25 462.25,-31 462.25,-37 462.25,-37 462.25,-49 462.25,-49 462.25,-55 456.25,-61 450.25,-61 450.25,-61 412,-61 412,-61 406,-61 400,-55 400,-49 400,-49 400,-37 400,-37 400,-31 406,-25 412,-25"/>
<text xml:space="preserve" text-anchor="middle" x="409.88" y="-37.95" font-family="Times,serif" font-size="14.00"> </text>
<polyline fill="none" stroke="lightgray" points="419.75,-25 419.75,-61"/>
<text xml:space="preserve" text-anchor="middle" x="431.12" y="-37.95" font-family="Times,serif" font-size="14.00">7</text>
<polyline fill="none" stroke="lightgray" points="442.5,-25 442.5,-61"/>
<text xml:space="preserve" text-anchor="middle" x="452.38" y="-37.95" font-family="Times,serif" font-size="14.00"> </text>
</g>
<!-- 4469874304&#45;&gt;4469877440 -->
<g id="edge12" class="edge">
<title>4469874304:r&#45;&gt;4469877440:v</title>
<path fill="none" stroke="black" d="M415.75,-97.5C415.75,-84.72 424.04,-80.68 428.45,-72.54"/>
<polygon fill="black" stroke="black" points="431.81,-73.51 430.77,-62.97 425.01,-71.86 431.81,-73.51"/>
</g>
<!-- 4469867696 -->
<g id="node14" class="node">
<title>4469867696</title>
<path fill="lightgray" stroke="lightgray" d="M492,-25C492,-25 530.25,-25 530.25,-25 536.25,-25 542.25,-31 542.25,-37 542.25,-37 542.25,-49 542.25,-49 542.25,-55 536.25,-61 530.25,-61 530.25,-61 492,-61 492,-61 486,-61 480,-55 480,-49 480,-49 480,-37 480,-37 480,-31 486,-25 492,-25"/>
<text xml:space="preserve" text-anchor="middle" x="489.88" y="-37.95" font-family="Times,serif" font-size="14.00"> </text>
<polyline fill="none" stroke="lightgray" points="499.75,-25 499.75,-61"/>
<text xml:space="preserve" text-anchor="middle" x="511.12" y="-37.95" font-family="Times,serif" font-size="14.00">3</text>
<polyline fill="none" stroke="lightgray" points="522.5,-25 522.5,-61"/>
<text xml:space="preserve" text-anchor="middle" x="532.38" y="-37.95" font-family="Times,serif" font-size="14.00"> </text>
</g>
<!-- 4469876656&#45;&gt;4469867696 -->
<g id="edge13" class="edge">
<title>4469876656:l&#45;&gt;4469867696:v</title>
<path fill="none" stroke="black" d="M489.88,-97.5C489.88,-83.57 501.83,-80.73 507.8,-72.35"/>
<polygon fill="black" stroke="black" points="511.1,-73.53 510.68,-62.95 504.41,-71.49 511.1,-73.53"/>
</g>
</g>
</svg>
