<?xml version="1.0" encoding="UTF-8" standalone="no"?>
<!DOCTYPE svg PUBLIC "-//W3C//DTD SVG 1.1//EN"
 "http://www.w3.org/Graphics/SVG/1.1/DTD/svg11.dtd">
<!-- Generated by graphviz version 14.0.0 (20250921.2048)
 -->
<!-- Pages: 1 -->
<svg width="101pt" height="86pt"
 viewBox="0.00 0.00 101.00 86.00" xmlns="http://www.w3.org/2000/svg" xmlns:xlink="http://www.w3.org/1999/xlink">
<g id="graph0" class="graph" transform="scale(1 1) rotate(0) translate(4 82)">
<polygon fill="white" stroke="none" points="-4,4 -4,-82 97.25,-82 97.25,4 -4,4"/>
<text xml:space="preserve" text-anchor="middle" x="46.62" y="-23.7" font-family="Times,serif" font-size="14.00">ls.length = 1</text>
<text xml:space="preserve" text-anchor="middle" x="46.62" y="-7.2" font-family="Times,serif" font-size="14.00">first leaf = [0]</text>
<!-- 4442661392 -->
<g id="node1" class="node">
<title>4442661392</title>
<path fill="lightgray" stroke="green" d="M27.5,-41.5C27.5,-41.5 65.75,-41.5 65.75,-41.5 71.75,-41.5 77.75,-47.5 77.75,-53.5 77.75,-53.5 77.75,-65.5 77.75,-65.5 77.75,-71.5 71.75,-77.5 65.75,-77.5 65.75,-77.5 27.5,-77.5 27.5,-77.5 21.5,-77.5 15.5,-71.5 15.5,-65.5 15.5,-65.5 15.5,-53.5 15.5,-53.5 15.5,-47.5 21.5,-41.5 27.5,-41.5"/>
<text xml:space="preserve" text-anchor="middle" x="25.38" y="-54.45" font-family="Times,serif" font-size="14.00"> </text>
<polyline fill="none" stroke="green" points="35.25,-41.5 35.25,-77.5"/>
<text xml:space="preserve" text-anchor="middle" x="46.62" y="-54.45" font-family="Times,serif" font-size="14.00">0</text>
<polyline fill="none" stroke="green" points="58,-41.5 58,-77.5"/>
<text xml:space="preserve" text-anchor="middle" x="67.88" y="-54.45" font-family="Times,serif" font-size="14.00"> </text>
</g>
</g>
</svg>
