<?xml version="1.0" encoding="UTF-8" standalone="no"?>
<!DOCTYPE svg PUBLIC "-//W3C//DTD SVG 1.1//EN"
 "http://www.w3.org/Graphics/SVG/1.1/DTD/svg11.dtd">
<!-- Generated by graphviz version 14.0.0 (20250921.2048)
 -->
<!-- Pages: 1 -->
<svg width="314pt" height="143pt"
 viewBox="0.00 0.00 314.00 143.00" xmlns="http://www.w3.org/2000/svg" xmlns:xlink="http://www.w3.org/1999/xlink">
<g id="graph0" class="graph" transform="scale(1 1) rotate(0) translate(4 138.5)">
<polygon fill="white" stroke="none" points="-4,4 -4,-138.5 309.5,-138.5 309.5,4 -4,4"/>
<text xml:space="preserve" text-anchor="middle" x="152.75" y="-7.2" font-family="Times,serif" font-size="14.00">MaxHeap [3, 5, 6, 9, 10, 17, 19, 22, 84], heapsize: 2</text>
<!-- 4512495808 -->
<g id="node1" class="node">
<title>4512495808</title>
<path fill="lightgray" stroke="green" d="M144.12,-98C144.12,-98 182.38,-98 182.38,-98 188.38,-98 194.38,-104 194.38,-110 194.38,-110 194.38,-122 194.38,-122 194.38,-128 188.38,-134 182.38,-134 182.38,-134 144.12,-134 144.12,-134 138.12,-134 132.12,-128 132.12,-122 132.12,-122 132.12,-110 132.12,-110 132.12,-104 138.12,-98 144.12,-98"/>
<text xml:space="preserve" text-anchor="middle" x="142" y="-110.95" font-family="Times,serif" font-size="14.00"> </text>
<polyline fill="none" stroke="green" points="151.88,-98 151.88,-134"/>
<text xml:space="preserve" text-anchor="middle" x="163.25" y="-110.95" font-family="Times,serif" font-size="14.00">3</text>
<polyline fill="none" stroke="green" points="174.62,-98 174.62,-134"/>
<text xml:space="preserve" text-anchor="middle" x="184.5" y="-110.95" font-family="Times,serif" font-size="14.00"> </text>
</g>
<!-- 4512496816 -->
<g id="node2" class="node">
<title>4512496816</title>
<path fill="lightgray" stroke="green" d="M123.12,-25C123.12,-25 161.38,-25 161.38,-25 167.38,-25 173.38,-31 173.38,-37 173.38,-37 173.38,-49 173.38,-49 173.38,-55 167.38,-61 161.38,-61 161.38,-61 123.12,-61 123.12,-61 117.12,-61 111.12,-55 111.12,-49 111.12,-49 111.12,-37 111.12,-37 111.12,-31 117.12,-25 123.12,-25"/>
<text xml:space="preserve" text-anchor="middle" x="121" y="-37.95" font-family="Times,serif" font-size="14.00"> </text>
<polyline fill="none" stroke="green" points="130.88,-25 130.88,-61"/>
<text xml:space="preserve" text-anchor="middle" x="142.25" y="-37.95" font-family="Times,serif" font-size="14.00">5</text>
<polyline fill="none" stroke="green" points="153.62,-25 153.62,-61"/>
<text xml:space="preserve" text-anchor="middle" x="163.5" y="-37.95" font-family="Times,serif" font-size="14.00"> </text>
</g>
<!-- 4512495808&#45;&gt;4512496816 -->
<g id="edge1" class="edge">
<title>4512495808:l&#45;&gt;4512496816:v</title>
<path fill="none" stroke="black" d="M142,-97.5C142,-86.12 142.13,-80.82 142.2,-72.95"/>
<polygon fill="black" stroke="black" points="145.7,-73.03 142.24,-63.01 138.7,-73 145.7,-73.03"/>
</g>
</g>
</svg>
