<?xml version="1.0" encoding="UTF-8" standalone="no"?>
<!DOCTYPE svg PUBLIC "-//W3C//DTD SVG 1.1//EN"
 "http://www.w3.org/Graphics/SVG/1.1/DTD/svg11.dtd">
<!-- Generated by graphviz version 14.0.0 (20250921.2048)
 -->
<!-- Pages: 1 -->
<svg width="230pt" height="216pt"
 viewBox="0.00 0.00 230.00 216.00" xmlns="http://www.w3.org/2000/svg" xmlns:xlink="http://www.w3.org/1999/xlink">
<g id="graph0" class="graph" transform="scale(1 1) rotate(0) translate(4 211.5)">
<polygon fill="white" stroke="none" points="-4,4 -4,-211.5 226.25,-211.5 226.25,4 -4,4"/>
<text xml:space="preserve" text-anchor="middle" x="111.12" y="-7.2" font-family="Times,serif" font-size="14.00">parents</text>
<!-- 4534527024 -->
<g id="node1" class="node">
<title>4534527024</title>
<path fill="lightgray" stroke="green" d="M121,-171C121,-171 159.25,-171 159.25,-171 165.25,-171 171.25,-177 171.25,-183 171.25,-183 171.25,-195 171.25,-195 171.25,-201 165.25,-207 159.25,-207 159.25,-207 121,-207 121,-207 115,-207 109,-201 109,-195 109,-195 109,-183 109,-183 109,-177 115,-171 121,-171"/>
<text xml:space="preserve" text-anchor="middle" x="118.88" y="-183.95" font-family="Times,serif" font-size="14.00"> </text>
<polyline fill="none" stroke="green" points="128.75,-171 128.75,-207"/>
<text xml:space="preserve" text-anchor="middle" x="140.12" y="-183.95" font-family="Times,serif" font-size="14.00">1</text>
<polyline fill="none" stroke="green" points="151.5,-171 151.5,-207"/>
<text xml:space="preserve" text-anchor="middle" x="161.38" y="-183.95" font-family="Times,serif" font-size="14.00"> </text>
</g>
<!-- 4534524112 -->
<g id="node2" class="node">
<title>4534524112</title>
<path fill="lightgray" stroke="green" d="M71,-98C71,-98 109.25,-98 109.25,-98 115.25,-98 121.25,-104 121.25,-110 121.25,-110 121.25,-122 121.25,-122 121.25,-128 115.25,-134 109.25,-134 109.25,-134 71,-134 71,-134 65,-134 59,-128 59,-122 59,-122 59,-110 59,-110 59,-104 65,-98 71,-98"/>
<text xml:space="preserve" text-anchor="middle" x="68.88" y="-110.95" font-family="Times,serif" font-size="14.00"> </text>
<polyline fill="none" stroke="green" points="78.75,-98 78.75,-134"/>
<text xml:space="preserve" text-anchor="middle" x="90.12" y="-110.95" font-family="Times,serif" font-size="14.00">2</text>
<polyline fill="none" stroke="green" points="101.5,-98 101.5,-134"/>
<text xml:space="preserve" text-anchor="middle" x="111.38" y="-110.95" font-family="Times,serif" font-size="14.00"> </text>
</g>
<!-- 4534527024&#45;&gt;4534524112 -->
<g id="edge1" class="edge">
<title>4534527024:l&#45;&gt;4534524112:v</title>
<path fill="none" stroke="black" d="M118.88,-170.5C118.88,-154.66 101.68,-154.04 93.88,-145.09"/>
<polygon fill="black" stroke="black" points="97.27,-144.18 90.63,-135.93 90.68,-146.52 97.27,-144.18"/>
</g>
<!-- 4534524448 -->
<g id="node3" class="node">
<title>4534524448</title>
<path fill="lightgray" stroke="green" d="M172,-98C172,-98 210.25,-98 210.25,-98 216.25,-98 222.25,-104 222.25,-110 222.25,-110 222.25,-122 222.25,-122 222.25,-128 216.25,-134 210.25,-134 210.25,-134 172,-134 172,-134 166,-134 160,-128 160,-122 160,-122 160,-110 160,-110 160,-104 166,-98 172,-98"/>
<text xml:space="preserve" text-anchor="middle" x="169.88" y="-110.95" font-family="Times,serif" font-size="14.00"> </text>
<polyline fill="none" stroke="green" points="179.75,-98 179.75,-134"/>
<text xml:space="preserve" text-anchor="middle" x="191.12" y="-110.95" font-family="Times,serif" font-size="14.00">3</text>
<polyline fill="none" stroke="green" points="202.5,-98 202.5,-134"/>
<text xml:space="preserve" text-anchor="middle" x="212.38" y="-110.95" font-family="Times,serif" font-size="14.00"> </text>
</g>
<!-- 4534527024&#45;&gt;4534524448 -->
<g id="edge2" class="edge">
<title>4534527024:r&#45;&gt;4534524448:v</title>
<path fill="none" stroke="black" d="M161.38,-170.5C161.38,-154.45 179.17,-154.11 187.24,-145.17"/>
<polygon fill="black" stroke="black" points="190.47,-146.52 190.61,-135.92 183.89,-144.12 190.47,-146.52"/>
</g>
<!-- 4534524336 -->
<g id="node4" class="node">
<title>4534524336</title>
<path fill="lightgray" stroke="lightgray" d="M12,-25C12,-25 50.25,-25 50.25,-25 56.25,-25 62.25,-31 62.25,-37 62.25,-37 62.25,-49 62.25,-49 62.25,-55 56.25,-61 50.25,-61 50.25,-61 12,-61 12,-61 6,-61 0,-55 0,-49 0,-49 0,-37 0,-37 0,-31 6,-25 12,-25"/>
<text xml:space="preserve" text-anchor="middle" x="9.88" y="-37.95" font-family="Times,serif" font-size="14.00"> </text>
<polyline fill="none" stroke="lightgray" points="19.75,-25 19.75,-61"/>
<text xml:space="preserve" text-anchor="middle" x="31.12" y="-37.95" font-family="Times,serif" font-size="14.00">4</text>
<polyline fill="none" stroke="lightgray" points="42.5,-25 42.5,-61"/>
<text xml:space="preserve" text-anchor="middle" x="52.38" y="-37.95" font-family="Times,serif" font-size="14.00"> </text>
</g>
<!-- 4534524112&#45;&gt;4534524336 -->
<g id="edge3" class="edge">
<title>4534524112:l&#45;&gt;4534524336:v</title>
<path fill="none" stroke="black" d="M68.88,-97.5C68.88,-79.03 44.9,-81.86 35.16,-72.04"/>
<polygon fill="black" stroke="black" points="38.51,-71 31.67,-62.91 31.98,-73.5 38.51,-71"/>
</g>
<!-- 4534526464 -->
<g id="node5" class="node">
<title>4534526464</title>
<path fill="lightgray" stroke="lightgray" d="M92,-25C92,-25 130.25,-25 130.25,-25 136.25,-25 142.25,-31 142.25,-37 142.25,-37 142.25,-49 142.25,-49 142.25,-55 136.25,-61 130.25,-61 130.25,-61 92,-61 92,-61 86,-61 80,-55 80,-49 80,-49 80,-37 80,-37 80,-31 86,-25 92,-25"/>
<text xml:space="preserve" text-anchor="middle" x="89.88" y="-37.95" font-family="Times,serif" font-size="14.00"> </text>
<polyline fill="none" stroke="lightgray" points="99.75,-25 99.75,-61"/>
<text xml:space="preserve" text-anchor="middle" x="111.12" y="-37.95" font-family="Times,serif" font-size="14.00">5</text>
<polyline fill="none" stroke="lightgray" points="122.5,-25 122.5,-61"/>
<text xml:space="preserve" text-anchor="middle" x="132.38" y="-37.95" font-family="Times,serif" font-size="14.00"> </text>
</g>
<!-- 4534524112&#45;&gt;4534526464 -->
<g id="edge4" class="edge">
<title>4534524112:r&#45;&gt;4534526464:v</title>
<path fill="none" stroke="black" d="M111.38,-97.5C111.38,-86.12 111.25,-80.82 111.18,-72.95"/>
<polygon fill="black" stroke="black" points="114.68,-73 111.13,-63.01 107.68,-73.03 114.68,-73"/>
</g>
<!-- 4534519072 -->
<g id="node6" class="node">
<title>4534519072</title>
<path fill="lightgray" stroke="lightgray" d="M172,-25C172,-25 210.25,-25 210.25,-25 216.25,-25 222.25,-31 222.25,-37 222.25,-37 222.25,-49 222.25,-49 222.25,-55 216.25,-61 210.25,-61 210.25,-61 172,-61 172,-61 166,-61 160,-55 160,-49 160,-49 160,-37 160,-37 160,-31 166,-25 172,-25"/>
<text xml:space="preserve" text-anchor="middle" x="169.88" y="-37.95" font-family="Times,serif" font-size="14.00"> </text>
<polyline fill="none" stroke="lightgray" points="179.75,-25 179.75,-61"/>
<text xml:space="preserve" text-anchor="middle" x="191.12" y="-37.95" font-family="Times,serif" font-size="14.00">6</text>
<polyline fill="none" stroke="lightgray" points="202.5,-25 202.5,-61"/>
<text xml:space="preserve" text-anchor="middle" x="212.38" y="-37.95" font-family="Times,serif" font-size="14.00"> </text>
</g>
<!-- 4534524448&#45;&gt;4534519072 -->
<g id="edge5" class="edge">
<title>4534524448:l&#45;&gt;4534519072:v</title>
<path fill="none" stroke="black" d="M169.88,-97.5C169.88,-83.57 181.83,-80.73 187.8,-72.35"/>
<polygon fill="black" stroke="black" points="191.1,-73.53 190.68,-62.95 184.41,-71.49 191.1,-73.53"/>
</g>
</g>
</svg>
