<?xml version="1.0" encoding="UTF-8" standalone="no"?>
<!DOCTYPE svg PUBLIC "-//W3C//DTD SVG 1.1//EN"
 "http://www.w3.org/Graphics/SVG/1.1/DTD/svg11.dtd">
<!-- Generated by graphviz version 14.0.0 (20250921.2048)
 -->
<!-- Pages: 1 -->
<svg width="566pt" height="289pt"
 viewBox="0.00 0.00 566.00 289.00" xmlns="http://www.w3.org/2000/svg" xmlns:xlink="http://www.w3.org/1999/xlink">
<g id="graph0" class="graph" transform="scale(1 1) rotate(0) translate(4 284.5)">
<polygon fill="white" stroke="none" points="-4,4 -4,-284.5 562.25,-284.5 562.25,4 -4,4"/>
<text xml:space="preserve" text-anchor="middle" x="279.12" y="-7.2" font-family="Times,serif" font-size="14.00">MaxHeap [0, 1, 27, 10, 13, 17, 3, 9, 4, 12, 5, 16, 7, 8], heapsize: 14</text>
<!-- 4469869936 -->
<g id="node1" class="node">
<title>4469869936</title>
<path fill="lightgray" stroke="lightgray" d="M303,-244C303,-244 341.25,-244 341.25,-244 347.25,-244 353.25,-250 353.25,-256 353.25,-256 353.25,-268 353.25,-268 353.25,-274 347.25,-280 341.25,-280 341.25,-280 303,-280 303,-280 297,-280 291,-274 291,-268 291,-268 291,-256 291,-256 291,-250 297,-244 303,-244"/>
<text xml:space="preserve" text-anchor="middle" x="300.88" y="-256.95" font-family="Times,serif" font-size="14.00"> </text>
<polyline fill="none" stroke="lightgray" points="310.75,-244 310.75,-280"/>
<text xml:space="preserve" text-anchor="middle" x="322.12" y="-256.95" font-family="Times,serif" font-size="14.00">0</text>
<polyline fill="none" stroke="lightgray" points="333.5,-244 333.5,-280"/>
<text xml:space="preserve" text-anchor="middle" x="343.38" y="-256.95" font-family="Times,serif" font-size="14.00"> </text>
</g>
<!-- 4469873296 -->
<g id="node2" class="node">
<title>4469873296</title>
<path fill="lightgray" stroke="lightgray" d="M197,-171C197,-171 235.25,-171 235.25,-171 241.25,-171 247.25,-177 247.25,-183 247.25,-183 247.25,-195 247.25,-195 247.25,-201 241.25,-207 235.25,-207 235.25,-207 197,-207 197,-207 191,-207 185,-201 185,-195 185,-195 185,-183 185,-183 185,-177 191,-171 197,-171"/>
<text xml:space="preserve" text-anchor="middle" x="194.88" y="-183.95" font-family="Times,serif" font-size="14.00"> </text>
<polyline fill="none" stroke="lightgray" points="204.75,-171 204.75,-207"/>
<text xml:space="preserve" text-anchor="middle" x="216.12" y="-183.95" font-family="Times,serif" font-size="14.00">1</text>
<polyline fill="none" stroke="lightgray" points="227.5,-171 227.5,-207"/>
<text xml:space="preserve" text-anchor="middle" x="237.38" y="-183.95" font-family="Times,serif" font-size="14.00"> </text>
</g>
<!-- 4469869936&#45;&gt;4469873296 -->
<g id="edge1" class="edge">
<title>4469869936:l&#45;&gt;4469873296:v</title>
<path fill="none" stroke="black" d="M300.88,-243.5C300.88,-207.21 234.24,-239.15 219.14,-218.32"/>
<polygon fill="black" stroke="black" points="222.59,-217.65 216.53,-208.96 215.85,-219.53 222.59,-217.65"/>
</g>
<!-- 4469875760 -->
<g id="node3" class="node">
<title>4469875760</title>
<path fill="lightgray" stroke="green" d="M424.62,-171C424.62,-171 469.62,-171 469.62,-171 475.62,-171 481.62,-177 481.62,-183 481.62,-183 481.62,-195 481.62,-195 481.62,-201 475.62,-207 469.62,-207 469.62,-207 424.62,-207 424.62,-207 418.62,-207 412.62,-201 412.62,-195 412.62,-195 412.62,-183 412.62,-183 412.62,-177 418.62,-171 424.62,-171"/>
<text xml:space="preserve" text-anchor="middle" x="422.5" y="-183.95" font-family="Times,serif" font-size="14.00"> </text>
<polyline fill="none" stroke="green" points="432.38,-171 432.38,-207"/>
<text xml:space="preserve" text-anchor="middle" x="447.12" y="-183.95" font-family="Times,serif" font-size="14.00">27</text>
<polyline fill="none" stroke="green" points="461.88,-171 461.88,-207"/>
<text xml:space="preserve" text-anchor="middle" x="471.75" y="-183.95" font-family="Times,serif" font-size="14.00"> </text>
</g>
<!-- 4469869936&#45;&gt;4469875760 -->
<g id="edge2" class="edge">
<title>4469869936:r&#45;&gt;4469875760:v</title>
<path fill="none" stroke="black" d="M343.38,-243.5C343.38,-199.27 428.58,-245.73 444.56,-218.5"/>
<polygon fill="black" stroke="black" points="447.92,-219.51 446.78,-208.97 441.1,-217.92 447.92,-219.51"/>
</g>
<!-- 4469876208 -->
<g id="node4" class="node">
<title>4469876208</title>
<path fill="lightgray" stroke="lightgray" d="M64.62,-98C64.62,-98 109.62,-98 109.62,-98 115.62,-98 121.62,-104 121.62,-110 121.62,-110 121.62,-122 121.62,-122 121.62,-128 115.62,-134 109.62,-134 109.62,-134 64.62,-134 64.62,-134 58.62,-134 52.62,-128 52.62,-122 52.62,-122 52.62,-110 52.62,-110 52.62,-104 58.62,-98 64.62,-98"/>
<text xml:space="preserve" text-anchor="middle" x="62.5" y="-110.95" font-family="Times,serif" font-size="14.00"> </text>
<polyline fill="none" stroke="lightgray" points="72.38,-98 72.38,-134"/>
<text xml:space="preserve" text-anchor="middle" x="87.12" y="-110.95" font-family="Times,serif" font-size="14.00">10</text>
<polyline fill="none" stroke="lightgray" points="101.88,-98 101.88,-134"/>
<text xml:space="preserve" text-anchor="middle" x="111.75" y="-110.95" font-family="Times,serif" font-size="14.00"> </text>
</g>
<!-- 4469873296&#45;&gt;4469876208 -->
<g id="edge3" class="edge">
<title>4469873296:l&#45;&gt;4469876208:v</title>
<path fill="none" stroke="black" d="M194.88,-170.5C194.88,-124.55 105.62,-174.25 89.58,-145.48"/>
<polygon fill="black" stroke="black" points="93.05,-144.97 87.46,-135.98 86.22,-146.5 93.05,-144.97"/>
</g>
<!-- 4469873968 -->
<g id="node5" class="node">
<title>4469873968</title>
<path fill="lightgray" stroke="lightgray" d="M214.62,-98C214.62,-98 259.62,-98 259.62,-98 265.62,-98 271.62,-104 271.62,-110 271.62,-110 271.62,-122 271.62,-122 271.62,-128 265.62,-134 259.62,-134 259.62,-134 214.62,-134 214.62,-134 208.62,-134 202.62,-128 202.62,-122 202.62,-122 202.62,-110 202.62,-110 202.62,-104 208.62,-98 214.62,-98"/>
<text xml:space="preserve" text-anchor="middle" x="212.5" y="-110.95" font-family="Times,serif" font-size="14.00"> </text>
<polyline fill="none" stroke="lightgray" points="222.38,-98 222.38,-134"/>
<text xml:space="preserve" text-anchor="middle" x="237.12" y="-110.95" font-family="Times,serif" font-size="14.00">13</text>
<polyline fill="none" stroke="lightgray" points="251.88,-98 251.88,-134"/>
<text xml:space="preserve" text-anchor="middle" x="261.75" y="-110.95" font-family="Times,serif" font-size="14.00"> </text>
</g>
<!-- 4469873296&#45;&gt;4469873968 -->
<g id="edge4" class="edge">
<title>4469873296:r&#45;&gt;4469873968:v</title>
<path fill="none" stroke="black" d="M237.38,-170.5C237.38,-159.12 237.25,-153.82 237.18,-145.95"/>
<polygon fill="black" stroke="black" points="240.68,-146 237.13,-136.01 233.68,-146.03 240.68,-146"/>
</g>
<!-- 4469870272 -->
<g id="node6" class="node">
<title>4469870272</title>
<path fill="lightgray" stroke="lightgray" d="M382.62,-98C382.62,-98 427.62,-98 427.62,-98 433.62,-98 439.62,-104 439.62,-110 439.62,-110 439.62,-122 439.62,-122 439.62,-128 433.62,-134 427.62,-134 427.62,-134 382.62,-134 382.62,-134 376.62,-134 370.62,-128 370.62,-122 370.62,-122 370.62,-110 370.62,-110 370.62,-104 376.62,-98 382.62,-98"/>
<text xml:space="preserve" text-anchor="middle" x="380.5" y="-110.95" font-family="Times,serif" font-size="14.00"> </text>
<polyline fill="none" stroke="lightgray" points="390.38,-98 390.38,-134"/>
<text xml:space="preserve" text-anchor="middle" x="405.12" y="-110.95" font-family="Times,serif" font-size="14.00">17</text>
<polyline fill="none" stroke="lightgray" points="419.88,-98 419.88,-134"/>
<text xml:space="preserve" text-anchor="middle" x="429.75" y="-110.95" font-family="Times,serif" font-size="14.00"> </text>
</g>
<!-- 4469875760&#45;&gt;4469870272 -->
<g id="edge5" class="edge">
<title>4469875760:l&#45;&gt;4469870272:v</title>
<path fill="none" stroke="black" d="M422.5,-170.5C422.5,-157.31 412.93,-153.66 407.99,-145.38"/>
<polygon fill="black" stroke="black" points="411.44,-144.74 405.51,-135.96 404.68,-146.53 411.44,-144.74"/>
</g>
<!-- 4469868256 -->
<g id="node7" class="node">
<title>4469868256</title>
<path fill="lightgray" stroke="green" d="M470,-98C470,-98 508.25,-98 508.25,-98 514.25,-98 520.25,-104 520.25,-110 520.25,-110 520.25,-122 520.25,-122 520.25,-128 514.25,-134 508.25,-134 508.25,-134 470,-134 470,-134 464,-134 458,-128 458,-122 458,-122 458,-110 458,-110 458,-104 464,-98 470,-98"/>
<text xml:space="preserve" text-anchor="middle" x="467.88" y="-110.95" font-family="Times,serif" font-size="14.00"> </text>
<polyline fill="none" stroke="green" points="477.75,-98 477.75,-134"/>
<text xml:space="preserve" text-anchor="middle" x="489.12" y="-110.95" font-family="Times,serif" font-size="14.00">3</text>
<polyline fill="none" stroke="green" points="500.5,-98 500.5,-134"/>
<text xml:space="preserve" text-anchor="middle" x="510.38" y="-110.95" font-family="Times,serif" font-size="14.00"> </text>
</g>
<!-- 4469875760&#45;&gt;4469868256 -->
<g id="edge6" class="edge">
<title>4469875760:r&#45;&gt;4469868256:v</title>
<path fill="none" stroke="black" d="M471.75,-170.5C471.75,-157.31 481.32,-153.66 486.26,-145.38"/>
<polygon fill="black" stroke="black" points="489.57,-146.53 488.74,-135.96 482.81,-144.74 489.57,-146.53"/>
</g>
<!-- 4469872960 -->
<g id="node8" class="node">
<title>4469872960</title>
<path fill="lightgray" stroke="lightgray" d="M12,-25C12,-25 50.25,-25 50.25,-25 56.25,-25 62.25,-31 62.25,-37 62.25,-37 62.25,-49 62.25,-49 62.25,-55 56.25,-61 50.25,-61 50.25,-61 12,-61 12,-61 6,-61 0,-55 0,-49 0,-49 0,-37 0,-37 0,-31 6,-25 12,-25"/>
<text xml:space="preserve" text-anchor="middle" x="9.88" y="-37.95" font-family="Times,serif" font-size="14.00"> </text>
<polyline fill="none" stroke="lightgray" points="19.75,-25 19.75,-61"/>
<text xml:space="preserve" text-anchor="middle" x="31.12" y="-37.95" font-family="Times,serif" font-size="14.00">9</text>
<polyline fill="none" stroke="lightgray" points="42.5,-25 42.5,-61"/>
<text xml:space="preserve" text-anchor="middle" x="52.38" y="-37.95" font-family="Times,serif" font-size="14.00"> </text>
</g>
<!-- 4469876208&#45;&gt;4469872960 -->
<g id="edge7" class="edge">
<title>4469876208:l&#45;&gt;4469872960:v</title>
<path fill="none" stroke="black" d="M62.5,-97.5C62.5,-80.92 43.35,-81.23 34.97,-72.04"/>
<polygon fill="black" stroke="black" points="38.36,-71.11 31.64,-62.92 31.79,-73.52 38.36,-71.11"/>
</g>
<!-- 4469873184 -->
<g id="node9" class="node">
<title>4469873184</title>
<path fill="lightgray" stroke="lightgray" d="M92,-25C92,-25 130.25,-25 130.25,-25 136.25,-25 142.25,-31 142.25,-37 142.25,-37 142.25,-49 142.25,-49 142.25,-55 136.25,-61 130.25,-61 130.25,-61 92,-61 92,-61 86,-61 80,-55 80,-49 80,-49 80,-37 80,-37 80,-31 86,-25 92,-25"/>
<text xml:space="preserve" text-anchor="middle" x="89.88" y="-37.95" font-family="Times,serif" font-size="14.00"> </text>
<polyline fill="none" stroke="lightgray" points="99.75,-25 99.75,-61"/>
<text xml:space="preserve" text-anchor="middle" x="111.12" y="-37.95" font-family="Times,serif" font-size="14.00">4</text>
<polyline fill="none" stroke="lightgray" points="122.5,-25 122.5,-61"/>
<text xml:space="preserve" text-anchor="middle" x="132.38" y="-37.95" font-family="Times,serif" font-size="14.00"> </text>
</g>
<!-- 4469876208&#45;&gt;4469873184 -->
<g id="edge8" class="edge">
<title>4469876208:r&#45;&gt;4469873184:v</title>
<path fill="none" stroke="black" d="M111.75,-97.5C111.75,-86.12 111.43,-80.82 111.25,-72.95"/>
<polygon fill="black" stroke="black" points="114.75,-72.97 111.14,-63.01 107.75,-73.05 114.75,-72.97"/>
</g>
<!-- 4469869712 -->
<g id="node10" class="node">
<title>4469869712</title>
<path fill="lightgray" stroke="lightgray" d="M172.62,-25C172.62,-25 217.62,-25 217.62,-25 223.62,-25 229.62,-31 229.62,-37 229.62,-37 229.62,-49 229.62,-49 229.62,-55 223.62,-61 217.62,-61 217.62,-61 172.62,-61 172.62,-61 166.62,-61 160.62,-55 160.62,-49 160.62,-49 160.62,-37 160.62,-37 160.62,-31 166.62,-25 172.62,-25"/>
<text xml:space="preserve" text-anchor="middle" x="170.5" y="-37.95" font-family="Times,serif" font-size="14.00"> </text>
<polyline fill="none" stroke="lightgray" points="180.38,-25 180.38,-61"/>
<text xml:space="preserve" text-anchor="middle" x="195.12" y="-37.95" font-family="Times,serif" font-size="14.00">12</text>
<polyline fill="none" stroke="lightgray" points="209.88,-25 209.88,-61"/>
<text xml:space="preserve" text-anchor="middle" x="219.75" y="-37.95" font-family="Times,serif" font-size="14.00"> </text>
</g>
<!-- 4469873968&#45;&gt;4469869712 -->
<g id="edge9" class="edge">
<title>4469873968:l&#45;&gt;4469869712:v</title>
<path fill="none" stroke="black" d="M212.5,-97.5C212.5,-84.31 202.93,-80.66 197.99,-72.38"/>
<polygon fill="black" stroke="black" points="201.44,-71.74 195.51,-62.96 194.68,-73.53 201.44,-71.74"/>
</g>
<!-- 4469874304 -->
<g id="node11" class="node">
<title>4469874304</title>
<path fill="lightgray" stroke="lightgray" d="M260,-25C260,-25 298.25,-25 298.25,-25 304.25,-25 310.25,-31 310.25,-37 310.25,-37 310.25,-49 310.25,-49 310.25,-55 304.25,-61 298.25,-61 298.25,-61 260,-61 260,-61 254,-61 248,-55 248,-49 248,-49 248,-37 248,-37 248,-31 254,-25 260,-25"/>
<text xml:space="preserve" text-anchor="middle" x="257.88" y="-37.95" font-family="Times,serif" font-size="14.00"> </text>
<polyline fill="none" stroke="lightgray" points="267.75,-25 267.75,-61"/>
<text xml:space="preserve" text-anchor="middle" x="279.12" y="-37.95" font-family="Times,serif" font-size="14.00">5</text>
<polyline fill="none" stroke="lightgray" points="290.5,-25 290.5,-61"/>
<text xml:space="preserve" text-anchor="middle" x="300.38" y="-37.95" font-family="Times,serif" font-size="14.00"> </text>
</g>
<!-- 4469873968&#45;&gt;4469874304 -->
<g id="edge10" class="edge">
<title>4469873968:r&#45;&gt;4469874304:v</title>
<path fill="none" stroke="black" d="M261.75,-97.5C261.75,-84.31 271.32,-80.66 276.26,-72.38"/>
<polygon fill="black" stroke="black" points="279.57,-73.53 278.74,-62.96 272.81,-71.74 279.57,-73.53"/>
</g>
<!-- 4469870608 -->
<g id="node12" class="node">
<title>4469870608</title>
<path fill="lightgray" stroke="lightgray" d="M340.62,-25C340.62,-25 385.62,-25 385.62,-25 391.62,-25 397.62,-31 397.62,-37 397.62,-37 397.62,-49 397.62,-49 397.62,-55 391.62,-61 385.62,-61 385.62,-61 340.62,-61 340.62,-61 334.62,-61 328.62,-55 328.62,-49 328.62,-49 328.62,-37 328.62,-37 328.62,-31 334.62,-25 340.62,-25"/>
<text xml:space="preserve" text-anchor="middle" x="338.5" y="-37.95" font-family="Times,serif" font-size="14.00"> </text>
<polyline fill="none" stroke="lightgray" points="348.38,-25 348.38,-61"/>
<text xml:space="preserve" text-anchor="middle" x="363.12" y="-37.95" font-family="Times,serif" font-size="14.00">16</text>
<polyline fill="none" stroke="lightgray" points="377.88,-25 377.88,-61"/>
<text xml:space="preserve" text-anchor="middle" x="387.75" y="-37.95" font-family="Times,serif" font-size="14.00"> </text>
</g>
<!-- 4469870272&#45;&gt;4469870608 -->
<g id="edge11" class="edge">
<title>4469870272:l&#45;&gt;4469870608:v</title>
<path fill="none" stroke="black" d="M380.5,-97.5C380.5,-84.31 370.93,-80.66 365.99,-72.38"/>
<polygon fill="black" stroke="black" points="369.44,-71.74 363.51,-62.96 362.68,-73.53 369.44,-71.74"/>
</g>
<!-- 4469873856 -->
<g id="node13" class="node">
<title>4469873856</title>
<path fill="lightgray" stroke="lightgray" d="M428,-25C428,-25 466.25,-25 466.25,-25 472.25,-25 478.25,-31 478.25,-37 478.25,-37 478.25,-49 478.25,-49 478.25,-55 472.25,-61 466.25,-61 466.25,-61 428,-61 428,-61 422,-61 416,-55 416,-49 416,-49 416,-37 416,-37 416,-31 422,-25 428,-25"/>
<text xml:space="preserve" text-anchor="middle" x="425.88" y="-37.95" font-family="Times,serif" font-size="14.00"> </text>
<polyline fill="none" stroke="lightgray" points="435.75,-25 435.75,-61"/>
<text xml:space="preserve" text-anchor="middle" x="447.12" y="-37.95" font-family="Times,serif" font-size="14.00">7</text>
<polyline fill="none" stroke="lightgray" points="458.5,-25 458.5,-61"/>
<text xml:space="preserve" text-anchor="middle" x="468.38" y="-37.95" font-family="Times,serif" font-size="14.00"> </text>
</g>
<!-- 4469870272&#45;&gt;4469873856 -->
<g id="edge12" class="edge">
<title>4469870272:r&#45;&gt;4469873856:v</title>
<path fill="none" stroke="black" d="M429.75,-97.5C429.75,-84.31 439.32,-80.66 444.26,-72.38"/>
<polygon fill="black" stroke="black" points="447.57,-73.53 446.74,-62.96 440.81,-71.74 447.57,-73.53"/>
</g>
<!-- 4469868256&#45;&gt;4469875760 -->
<g id="edge14" class="edge">
<title>4469868256&#45;&gt;4469875760</title>
<path fill="none" stroke="green" d="M479.05,-134.03C474.27,-142.12 468.43,-151.98 463.07,-161.05"/>
<polygon fill="green" stroke="green" points="460.14,-159.12 458.06,-169.51 466.17,-162.69 460.14,-159.12"/>
</g>
<!-- 4469870384 -->
<g id="node14" class="node">
<title>4469870384</title>
<path fill="lightgray" stroke="lightgray" d="M508,-25C508,-25 546.25,-25 546.25,-25 552.25,-25 558.25,-31 558.25,-37 558.25,-37 558.25,-49 558.25,-49 558.25,-55 552.25,-61 546.25,-61 546.25,-61 508,-61 508,-61 502,-61 496,-55 496,-49 496,-49 496,-37 496,-37 496,-31 502,-25 508,-25"/>
<text xml:space="preserve" text-anchor="middle" x="505.88" y="-37.95" font-family="Times,serif" font-size="14.00"> </text>
<polyline fill="none" stroke="lightgray" points="515.75,-25 515.75,-61"/>
<text xml:space="preserve" text-anchor="middle" x="527.12" y="-37.95" font-family="Times,serif" font-size="14.00">8</text>
<polyline fill="none" stroke="lightgray" points="538.5,-25 538.5,-61"/>
<text xml:space="preserve" text-anchor="middle" x="548.38" y="-37.95" font-family="Times,serif" font-size="14.00"> </text>
</g>
<!-- 4469868256&#45;&gt;4469870384 -->
<g id="edge13" class="edge">
<title>4469868256:l&#45;&gt;4469870384:v</title>
<path fill="none" stroke="black" d="M467.88,-97.5C467.88,-71.5 510.06,-85.68 523.24,-72.24"/>
<polygon fill="black" stroke="black" points="526.5,-73.52 526.61,-62.92 519.92,-71.13 526.5,-73.52"/>
</g>
</g>
</svg>
