<?xml version="1.0" encoding="UTF-8" standalone="no"?>
<!DOCTYPE svg PUBLIC "-//W3C//DTD SVG 1.1//EN"
 "http://www.w3.org/Graphics/SVG/1.1/DTD/svg11.dtd">
<!-- Generated by graphviz version 14.0.0 (20250921.2048)
 -->
<!-- Pages: 1 -->
<svg width="331pt" height="289pt"
 viewBox="0.00 0.00 331.00 289.00" xmlns="http://www.w3.org/2000/svg" xmlns:xlink="http://www.w3.org/1999/xlink">
<g id="graph0" class="graph" transform="scale(1 1) rotate(0) translate(4 284.5)">
<polygon fill="white" stroke="none" points="-4,4 -4,-284.5 327.25,-284.5 327.25,4 -4,4"/>
<text xml:space="preserve" text-anchor="middle" x="161.62" y="-7.2" font-family="Times,serif" font-size="14.00">MaxHeap [20, 13, 17, 8, 7, 4, 2, 5, 25], heapsize: 8</text>
<!-- 4512496816 -->
<g id="node1" class="node">
<title>4512496816</title>
<path fill="lightgray" stroke="lightgray" d="M149.62,-244C149.62,-244 194.62,-244 194.62,-244 200.62,-244 206.62,-250 206.62,-256 206.62,-256 206.62,-268 206.62,-268 206.62,-274 200.62,-280 194.62,-280 194.62,-280 149.62,-280 149.62,-280 143.62,-280 137.62,-274 137.62,-268 137.62,-268 137.62,-256 137.62,-256 137.62,-250 143.62,-244 149.62,-244"/>
<text xml:space="preserve" text-anchor="middle" x="147.5" y="-256.95" font-family="Times,serif" font-size="14.00"> </text>
<polyline fill="none" stroke="lightgray" points="157.38,-244 157.38,-280"/>
<text xml:space="preserve" text-anchor="middle" x="172.12" y="-256.95" font-family="Times,serif" font-size="14.00">20</text>
<polyline fill="none" stroke="lightgray" points="186.88,-244 186.88,-280"/>
<text xml:space="preserve" text-anchor="middle" x="196.75" y="-256.95" font-family="Times,serif" font-size="14.00"> </text>
</g>
<!-- 4512495808 -->
<g id="node2" class="node">
<title>4512495808</title>
<path fill="lightgray" stroke="lightgray" d="M85.62,-171C85.62,-171 130.62,-171 130.62,-171 136.62,-171 142.62,-177 142.62,-183 142.62,-183 142.62,-195 142.62,-195 142.62,-201 136.62,-207 130.62,-207 130.62,-207 85.62,-207 85.62,-207 79.62,-207 73.62,-201 73.62,-195 73.62,-195 73.62,-183 73.62,-183 73.62,-177 79.62,-171 85.62,-171"/>
<text xml:space="preserve" text-anchor="middle" x="83.5" y="-183.95" font-family="Times,serif" font-size="14.00"> </text>
<polyline fill="none" stroke="lightgray" points="93.38,-171 93.38,-207"/>
<text xml:space="preserve" text-anchor="middle" x="108.12" y="-183.95" font-family="Times,serif" font-size="14.00">13</text>
<polyline fill="none" stroke="lightgray" points="122.88,-171 122.88,-207"/>
<text xml:space="preserve" text-anchor="middle" x="132.75" y="-183.95" font-family="Times,serif" font-size="14.00"> </text>
</g>
<!-- 4512496816&#45;&gt;4512495808 -->
<g id="edge1" class="edge">
<title>4512496816:l&#45;&gt;4512495808:v</title>
<path fill="none" stroke="black" d="M147.5,-243.5C147.5,-224.6 122.5,-228.02 112.34,-218.19"/>
<polygon fill="black" stroke="black" points="115.6,-216.93 108.68,-208.91 109.09,-219.49 115.6,-216.93"/>
</g>
<!-- 4534530160 -->
<g id="node3" class="node">
<title>4534530160</title>
<path fill="lightgray" stroke="green" d="M213.62,-171C213.62,-171 258.62,-171 258.62,-171 264.62,-171 270.62,-177 270.62,-183 270.62,-183 270.62,-195 270.62,-195 270.62,-201 264.62,-207 258.62,-207 258.62,-207 213.62,-207 213.62,-207 207.62,-207 201.62,-201 201.62,-195 201.62,-195 201.62,-183 201.62,-183 201.62,-177 207.62,-171 213.62,-171"/>
<text xml:space="preserve" text-anchor="middle" x="211.5" y="-183.95" font-family="Times,serif" font-size="14.00"> </text>
<polyline fill="none" stroke="green" points="221.38,-171 221.38,-207"/>
<text xml:space="preserve" text-anchor="middle" x="236.12" y="-183.95" font-family="Times,serif" font-size="14.00">17</text>
<polyline fill="none" stroke="green" points="250.88,-171 250.88,-207"/>
<text xml:space="preserve" text-anchor="middle" x="260.75" y="-183.95" font-family="Times,serif" font-size="14.00"> </text>
</g>
<!-- 4512496816&#45;&gt;4534530160 -->
<g id="edge2" class="edge">
<title>4512496816:r&#45;&gt;4534530160:v</title>
<path fill="none" stroke="black" d="M196.75,-243.5C196.75,-224.6 221.75,-228.02 231.91,-218.19"/>
<polygon fill="black" stroke="black" points="235.16,-219.49 235.57,-208.91 228.65,-216.93 235.16,-219.49"/>
</g>
<!-- 4534528704 -->
<g id="node4" class="node">
<title>4534528704</title>
<path fill="lightgray" stroke="lightgray" d="M33,-98C33,-98 71.25,-98 71.25,-98 77.25,-98 83.25,-104 83.25,-110 83.25,-110 83.25,-122 83.25,-122 83.25,-128 77.25,-134 71.25,-134 71.25,-134 33,-134 33,-134 27,-134 21,-128 21,-122 21,-122 21,-110 21,-110 21,-104 27,-98 33,-98"/>
<text xml:space="preserve" text-anchor="middle" x="30.88" y="-110.95" font-family="Times,serif" font-size="14.00"> </text>
<polyline fill="none" stroke="lightgray" points="40.75,-98 40.75,-134"/>
<text xml:space="preserve" text-anchor="middle" x="52.12" y="-110.95" font-family="Times,serif" font-size="14.00">8</text>
<polyline fill="none" stroke="lightgray" points="63.5,-98 63.5,-134"/>
<text xml:space="preserve" text-anchor="middle" x="73.38" y="-110.95" font-family="Times,serif" font-size="14.00"> </text>
</g>
<!-- 4512495808&#45;&gt;4534528704 -->
<g id="edge3" class="edge">
<title>4512495808:l&#45;&gt;4534528704:v</title>
<path fill="none" stroke="black" d="M83.5,-170.5C83.5,-153.92 64.35,-154.23 55.97,-145.04"/>
<polygon fill="black" stroke="black" points="59.36,-144.11 52.64,-135.92 52.79,-146.52 59.36,-144.11"/>
</g>
<!-- 4534521088 -->
<g id="node5" class="node">
<title>4534521088</title>
<path fill="lightgray" stroke="lightgray" d="M113,-98C113,-98 151.25,-98 151.25,-98 157.25,-98 163.25,-104 163.25,-110 163.25,-110 163.25,-122 163.25,-122 163.25,-128 157.25,-134 151.25,-134 151.25,-134 113,-134 113,-134 107,-134 101,-128 101,-122 101,-122 101,-110 101,-110 101,-104 107,-98 113,-98"/>
<text xml:space="preserve" text-anchor="middle" x="110.88" y="-110.95" font-family="Times,serif" font-size="14.00"> </text>
<polyline fill="none" stroke="lightgray" points="120.75,-98 120.75,-134"/>
<text xml:space="preserve" text-anchor="middle" x="132.12" y="-110.95" font-family="Times,serif" font-size="14.00">7</text>
<polyline fill="none" stroke="lightgray" points="143.5,-98 143.5,-134"/>
<text xml:space="preserve" text-anchor="middle" x="153.38" y="-110.95" font-family="Times,serif" font-size="14.00"> </text>
</g>
<!-- 4512495808&#45;&gt;4534521088 -->
<g id="edge4" class="edge">
<title>4512495808:r&#45;&gt;4534521088:v</title>
<path fill="none" stroke="black" d="M132.75,-170.5C132.75,-159.12 132.43,-153.82 132.25,-145.95"/>
<polygon fill="black" stroke="black" points="135.75,-145.97 132.14,-136.01 128.75,-146.05 135.75,-145.97"/>
</g>
<!-- 4534518736 -->
<g id="node6" class="node">
<title>4534518736</title>
<path fill="lightgray" stroke="green" d="M193,-98C193,-98 231.25,-98 231.25,-98 237.25,-98 243.25,-104 243.25,-110 243.25,-110 243.25,-122 243.25,-122 243.25,-128 237.25,-134 231.25,-134 231.25,-134 193,-134 193,-134 187,-134 181,-128 181,-122 181,-122 181,-110 181,-110 181,-104 187,-98 193,-98"/>
<text xml:space="preserve" text-anchor="middle" x="190.88" y="-110.95" font-family="Times,serif" font-size="14.00"> </text>
<polyline fill="none" stroke="green" points="200.75,-98 200.75,-134"/>
<text xml:space="preserve" text-anchor="middle" x="212.12" y="-110.95" font-family="Times,serif" font-size="14.00">4</text>
<polyline fill="none" stroke="green" points="223.5,-98 223.5,-134"/>
<text xml:space="preserve" text-anchor="middle" x="233.38" y="-110.95" font-family="Times,serif" font-size="14.00"> </text>
</g>
<!-- 4534530160&#45;&gt;4534518736 -->
<g id="edge5" class="edge">
<title>4534530160:l&#45;&gt;4534518736:v</title>
<path fill="none" stroke="black" d="M211.5,-170.5C211.5,-159.12 211.82,-153.82 212,-145.95"/>
<polygon fill="black" stroke="black" points="215.5,-146.05 212.11,-136.01 208.5,-145.97 215.5,-146.05"/>
</g>
<!-- 4534529600 -->
<g id="node7" class="node">
<title>4534529600</title>
<path fill="lightgray" stroke="lightgray" d="M273,-98C273,-98 311.25,-98 311.25,-98 317.25,-98 323.25,-104 323.25,-110 323.25,-110 323.25,-122 323.25,-122 323.25,-128 317.25,-134 311.25,-134 311.25,-134 273,-134 273,-134 267,-134 261,-128 261,-122 261,-122 261,-110 261,-110 261,-104 267,-98 273,-98"/>
<text xml:space="preserve" text-anchor="middle" x="270.88" y="-110.95" font-family="Times,serif" font-size="14.00"> </text>
<polyline fill="none" stroke="lightgray" points="280.75,-98 280.75,-134"/>
<text xml:space="preserve" text-anchor="middle" x="292.12" y="-110.95" font-family="Times,serif" font-size="14.00">2</text>
<polyline fill="none" stroke="lightgray" points="303.5,-98 303.5,-134"/>
<text xml:space="preserve" text-anchor="middle" x="313.38" y="-110.95" font-family="Times,serif" font-size="14.00"> </text>
</g>
<!-- 4534530160&#45;&gt;4534529600 -->
<g id="edge6" class="edge">
<title>4534530160:r&#45;&gt;4534529600:v</title>
<path fill="none" stroke="black" d="M260.75,-170.5C260.75,-153.92 279.9,-154.23 288.28,-145.04"/>
<polygon fill="black" stroke="black" points="291.46,-146.52 291.61,-135.92 284.89,-144.11 291.46,-146.52"/>
</g>
<!-- 4534529936 -->
<g id="node8" class="node">
<title>4534529936</title>
<path fill="lightgray" stroke="lightgray" d="M12,-25C12,-25 50.25,-25 50.25,-25 56.25,-25 62.25,-31 62.25,-37 62.25,-37 62.25,-49 62.25,-49 62.25,-55 56.25,-61 50.25,-61 50.25,-61 12,-61 12,-61 6,-61 0,-55 0,-49 0,-49 0,-37 0,-37 0,-31 6,-25 12,-25"/>
<text xml:space="preserve" text-anchor="middle" x="9.88" y="-37.95" font-family="Times,serif" font-size="14.00"> </text>
<polyline fill="none" stroke="lightgray" points="19.75,-25 19.75,-61"/>
<text xml:space="preserve" text-anchor="middle" x="31.12" y="-37.95" font-family="Times,serif" font-size="14.00">5</text>
<polyline fill="none" stroke="lightgray" points="42.5,-25 42.5,-61"/>
<text xml:space="preserve" text-anchor="middle" x="52.38" y="-37.95" font-family="Times,serif" font-size="14.00"> </text>
</g>
<!-- 4534528704&#45;&gt;4534529936 -->
<g id="edge7" class="edge">
<title>4534528704:l&#45;&gt;4534529936:v</title>
<path fill="none" stroke="black" d="M30.88,-97.5C30.88,-86.12 31,-80.82 31.07,-72.95"/>
<polygon fill="black" stroke="black" points="34.57,-73.03 31.12,-63.01 27.57,-73 34.57,-73.03"/>
</g>
</g>
</svg>
