<?xml version="1.0" encoding="UTF-8" standalone="no"?>
<!DOCTYPE svg PUBLIC "-//W3C//DTD SVG 1.1//EN"
 "http://www.w3.org/Graphics/SVG/1.1/DTD/svg11.dtd">
<!-- Generated by graphviz version 14.0.0 (20250921.2048)
 -->
<!-- Pages: 1 -->
<svg width="150pt" height="159pt"
 viewBox="0.00 0.00 150.00 159.00" xmlns="http://www.w3.org/2000/svg" xmlns:xlink="http://www.w3.org/1999/xlink">
<g id="graph0" class="graph" transform="scale(1 1) rotate(0) translate(4 155)">
<polygon fill="white" stroke="none" points="-4,4 -4,-155 146.25,-155 146.25,4 -4,4"/>
<text xml:space="preserve" text-anchor="middle" x="71.12" y="-23.7" font-family="Times,serif" font-size="14.00">ls.length = 3</text>
<text xml:space="preserve" text-anchor="middle" x="71.12" y="-7.2" font-family="Times,serif" font-size="14.00">first leaf = [1]</text>
<!-- 4467961616 -->
<g id="node1" class="node">
<title>4467961616</title>
<path fill="lightgray" stroke="lightgray" d="M52,-114.5C52,-114.5 90.25,-114.5 90.25,-114.5 96.25,-114.5 102.25,-120.5 102.25,-126.5 102.25,-126.5 102.25,-138.5 102.25,-138.5 102.25,-144.5 96.25,-150.5 90.25,-150.5 90.25,-150.5 52,-150.5 52,-150.5 46,-150.5 40,-144.5 40,-138.5 40,-138.5 40,-126.5 40,-126.5 40,-120.5 46,-114.5 52,-114.5"/>
<text xml:space="preserve" text-anchor="middle" x="49.88" y="-127.45" font-family="Times,serif" font-size="14.00"> </text>
<polyline fill="none" stroke="lightgray" points="59.75,-114.5 59.75,-150.5"/>
<text xml:space="preserve" text-anchor="middle" x="71.12" y="-127.45" font-family="Times,serif" font-size="14.00">0</text>
<polyline fill="none" stroke="lightgray" points="82.5,-114.5 82.5,-150.5"/>
<text xml:space="preserve" text-anchor="middle" x="92.38" y="-127.45" font-family="Times,serif" font-size="14.00"> </text>
</g>
<!-- 4467962160 -->
<g id="node2" class="node">
<title>4467962160</title>
<path fill="lightgray" stroke="green" d="M12,-41.5C12,-41.5 50.25,-41.5 50.25,-41.5 56.25,-41.5 62.25,-47.5 62.25,-53.5 62.25,-53.5 62.25,-65.5 62.25,-65.5 62.25,-71.5 56.25,-77.5 50.25,-77.5 50.25,-77.5 12,-77.5 12,-77.5 6,-77.5 0,-71.5 0,-65.5 0,-65.5 0,-53.5 0,-53.5 0,-47.5 6,-41.5 12,-41.5"/>
<text xml:space="preserve" text-anchor="middle" x="9.88" y="-54.45" font-family="Times,serif" font-size="14.00"> </text>
<polyline fill="none" stroke="green" points="19.75,-41.5 19.75,-77.5"/>
<text xml:space="preserve" text-anchor="middle" x="31.12" y="-54.45" font-family="Times,serif" font-size="14.00">1</text>
<polyline fill="none" stroke="green" points="42.5,-41.5 42.5,-77.5"/>
<text xml:space="preserve" text-anchor="middle" x="52.38" y="-54.45" font-family="Times,serif" font-size="14.00"> </text>
</g>
<!-- 4467961616&#45;&gt;4467962160 -->
<g id="edge1" class="edge">
<title>4467961616:l&#45;&gt;4467962160:v</title>
<path fill="none" stroke="black" d="M49.88,-114C49.88,-100.61 39.55,-97.2 34.22,-88.96"/>
<polygon fill="black" stroke="black" points="37.62,-88.13 31.54,-79.46 30.89,-90.03 37.62,-88.13"/>
</g>
<!-- 4467790416 -->
<g id="node3" class="node">
<title>4467790416</title>
<path fill="lightgray" stroke="green" d="M92,-41.5C92,-41.5 130.25,-41.5 130.25,-41.5 136.25,-41.5 142.25,-47.5 142.25,-53.5 142.25,-53.5 142.25,-65.5 142.25,-65.5 142.25,-71.5 136.25,-77.5 130.25,-77.5 130.25,-77.5 92,-77.5 92,-77.5 86,-77.5 80,-71.5 80,-65.5 80,-65.5 80,-53.5 80,-53.5 80,-47.5 86,-41.5 92,-41.5"/>
<text xml:space="preserve" text-anchor="middle" x="89.88" y="-54.45" font-family="Times,serif" font-size="14.00"> </text>
<polyline fill="none" stroke="green" points="99.75,-41.5 99.75,-77.5"/>
<text xml:space="preserve" text-anchor="middle" x="111.12" y="-54.45" font-family="Times,serif" font-size="14.00">2</text>
<polyline fill="none" stroke="green" points="122.5,-41.5 122.5,-77.5"/>
<text xml:space="preserve" text-anchor="middle" x="132.38" y="-54.45" font-family="Times,serif" font-size="14.00"> </text>
</g>
<!-- 4467961616&#45;&gt;4467790416 -->
<g id="edge2" class="edge">
<title>4467961616:r&#45;&gt;4467790416:v</title>
<path fill="none" stroke="black" d="M92.38,-114C92.38,-100.61 102.7,-97.2 108.03,-88.96"/>
<polygon fill="black" stroke="black" points="111.36,-90.03 110.71,-79.46 104.63,-88.13 111.36,-90.03"/>
</g>
</g>
</svg>
