<?xml version="1.0" encoding="UTF-8" standalone="no"?>
<!DOCTYPE svg PUBLIC "-//W3C//DTD SVG 1.1//EN"
 "http://www.w3.org/Graphics/SVG/1.1/DTD/svg11.dtd">
<!-- Generated by graphviz version 14.0.0 (20250921.2048)
 -->
<!-- Pages: 1 -->
<svg width="360pt" height="289pt"
 viewBox="0.00 0.00 360.00 289.00" xmlns="http://www.w3.org/2000/svg" xmlns:xlink="http://www.w3.org/1999/xlink">
<g id="graph0" class="graph" transform="scale(1 1) rotate(0) translate(4 284.5)">
<polygon fill="white" stroke="none" points="-4,4 -4,-284.5 356.25,-284.5 356.25,4 -4,4"/>
<text xml:space="preserve" text-anchor="middle" x="176.12" y="-7.2" font-family="Times,serif" font-size="14.00">MaxHeap [4, 13, 20, 8, 7, 17, 2, 5, 25], heapsize: 9</text>
<!-- 4534528704 -->
<g id="node1" class="node">
<title>4534528704</title>
<path fill="lightgray" stroke="green" d="M176,-244C176,-244 214.25,-244 214.25,-244 220.25,-244 226.25,-250 226.25,-256 226.25,-256 226.25,-268 226.25,-268 226.25,-274 220.25,-280 214.25,-280 214.25,-280 176,-280 176,-280 170,-280 164,-274 164,-268 164,-268 164,-256 164,-256 164,-250 170,-244 176,-244"/>
<text xml:space="preserve" text-anchor="middle" x="173.88" y="-256.95" font-family="Times,serif" font-size="14.00"> </text>
<polyline fill="none" stroke="green" points="183.75,-244 183.75,-280"/>
<text xml:space="preserve" text-anchor="middle" x="195.12" y="-256.95" font-family="Times,serif" font-size="14.00">4</text>
<polyline fill="none" stroke="green" points="206.5,-244 206.5,-280"/>
<text xml:space="preserve" text-anchor="middle" x="216.38" y="-256.95" font-family="Times,serif" font-size="14.00"> </text>
</g>
<!-- 4534522432 -->
<g id="node2" class="node">
<title>4534522432</title>
<path fill="lightgray" stroke="lightgray" d="M106.62,-171C106.62,-171 151.62,-171 151.62,-171 157.62,-171 163.62,-177 163.62,-183 163.62,-183 163.62,-195 163.62,-195 163.62,-201 157.62,-207 151.62,-207 151.62,-207 106.62,-207 106.62,-207 100.62,-207 94.62,-201 94.62,-195 94.62,-195 94.62,-183 94.62,-183 94.62,-177 100.62,-171 106.62,-171"/>
<text xml:space="preserve" text-anchor="middle" x="104.5" y="-183.95" font-family="Times,serif" font-size="14.00"> </text>
<polyline fill="none" stroke="lightgray" points="114.38,-171 114.38,-207"/>
<text xml:space="preserve" text-anchor="middle" x="129.12" y="-183.95" font-family="Times,serif" font-size="14.00">13</text>
<polyline fill="none" stroke="lightgray" points="143.88,-171 143.88,-207"/>
<text xml:space="preserve" text-anchor="middle" x="153.75" y="-183.95" font-family="Times,serif" font-size="14.00"> </text>
</g>
<!-- 4534528704&#45;&gt;4534522432 -->
<g id="edge1" class="edge">
<title>4534528704:l&#45;&gt;4534522432:v</title>
<path fill="none" stroke="black" d="M173.88,-243.5C173.88,-222.76 144.33,-228.81 133.25,-218.11"/>
<polygon fill="black" stroke="black" points="136.56,-216.96 129.67,-208.91 130.04,-219.5 136.56,-216.96"/>
</g>
<!-- 4534529936 -->
<g id="node3" class="node">
<title>4534529936</title>
<path fill="lightgray" stroke="lightgray" d="M238.62,-171C238.62,-171 283.62,-171 283.62,-171 289.62,-171 295.62,-177 295.62,-183 295.62,-183 295.62,-195 295.62,-195 295.62,-201 289.62,-207 283.62,-207 283.62,-207 238.62,-207 238.62,-207 232.62,-207 226.62,-201 226.62,-195 226.62,-195 226.62,-183 226.62,-183 226.62,-177 232.62,-171 238.62,-171"/>
<text xml:space="preserve" text-anchor="middle" x="236.5" y="-183.95" font-family="Times,serif" font-size="14.00"> </text>
<polyline fill="none" stroke="lightgray" points="246.38,-171 246.38,-207"/>
<text xml:space="preserve" text-anchor="middle" x="261.12" y="-183.95" font-family="Times,serif" font-size="14.00">20</text>
<polyline fill="none" stroke="lightgray" points="275.88,-171 275.88,-207"/>
<text xml:space="preserve" text-anchor="middle" x="285.75" y="-183.95" font-family="Times,serif" font-size="14.00"> </text>
</g>
<!-- 4534528704&#45;&gt;4534529936 -->
<g id="edge2" class="edge">
<title>4534528704:r&#45;&gt;4534529936:v</title>
<path fill="none" stroke="black" d="M216.38,-243.5C216.38,-222.76 245.92,-228.81 257,-218.11"/>
<polygon fill="black" stroke="black" points="260.21,-219.5 260.58,-208.91 253.69,-216.96 260.21,-219.5"/>
</g>
<!-- 4534518736 -->
<g id="node4" class="node">
<title>4534518736</title>
<path fill="lightgray" stroke="lightgray" d="M54,-98C54,-98 92.25,-98 92.25,-98 98.25,-98 104.25,-104 104.25,-110 104.25,-110 104.25,-122 104.25,-122 104.25,-128 98.25,-134 92.25,-134 92.25,-134 54,-134 54,-134 48,-134 42,-128 42,-122 42,-122 42,-110 42,-110 42,-104 48,-98 54,-98"/>
<text xml:space="preserve" text-anchor="middle" x="51.88" y="-110.95" font-family="Times,serif" font-size="14.00"> </text>
<polyline fill="none" stroke="lightgray" points="61.75,-98 61.75,-134"/>
<text xml:space="preserve" text-anchor="middle" x="73.12" y="-110.95" font-family="Times,serif" font-size="14.00">8</text>
<polyline fill="none" stroke="lightgray" points="84.5,-98 84.5,-134"/>
<text xml:space="preserve" text-anchor="middle" x="94.38" y="-110.95" font-family="Times,serif" font-size="14.00"> </text>
</g>
<!-- 4534522432&#45;&gt;4534518736 -->
<g id="edge3" class="edge">
<title>4534522432:l&#45;&gt;4534518736:v</title>
<path fill="none" stroke="black" d="M104.5,-170.5C104.5,-153.92 85.35,-154.23 76.97,-145.04"/>
<polygon fill="black" stroke="black" points="80.36,-144.11 73.64,-135.92 73.79,-146.52 80.36,-144.11"/>
</g>
<!-- 4534529600 -->
<g id="node5" class="node">
<title>4534529600</title>
<path fill="lightgray" stroke="lightgray" d="M134,-98C134,-98 172.25,-98 172.25,-98 178.25,-98 184.25,-104 184.25,-110 184.25,-110 184.25,-122 184.25,-122 184.25,-128 178.25,-134 172.25,-134 172.25,-134 134,-134 134,-134 128,-134 122,-128 122,-122 122,-122 122,-110 122,-110 122,-104 128,-98 134,-98"/>
<text xml:space="preserve" text-anchor="middle" x="131.88" y="-110.95" font-family="Times,serif" font-size="14.00"> </text>
<polyline fill="none" stroke="lightgray" points="141.75,-98 141.75,-134"/>
<text xml:space="preserve" text-anchor="middle" x="153.12" y="-110.95" font-family="Times,serif" font-size="14.00">7</text>
<polyline fill="none" stroke="lightgray" points="164.5,-98 164.5,-134"/>
<text xml:space="preserve" text-anchor="middle" x="174.38" y="-110.95" font-family="Times,serif" font-size="14.00"> </text>
</g>
<!-- 4534522432&#45;&gt;4534529600 -->
<g id="edge4" class="edge">
<title>4534522432:r&#45;&gt;4534529600:v</title>
<path fill="none" stroke="black" d="M153.75,-170.5C153.75,-159.12 153.43,-153.82 153.25,-145.95"/>
<polygon fill="black" stroke="black" points="156.75,-145.97 153.14,-136.01 149.75,-146.05 156.75,-145.97"/>
</g>
<!-- 4534530272 -->
<g id="node6" class="node">
<title>4534530272</title>
<path fill="lightgray" stroke="lightgray" d="M214.62,-98C214.62,-98 259.62,-98 259.62,-98 265.62,-98 271.62,-104 271.62,-110 271.62,-110 271.62,-122 271.62,-122 271.62,-128 265.62,-134 259.62,-134 259.62,-134 214.62,-134 214.62,-134 208.62,-134 202.62,-128 202.62,-122 202.62,-122 202.62,-110 202.62,-110 202.62,-104 208.62,-98 214.62,-98"/>
<text xml:space="preserve" text-anchor="middle" x="212.5" y="-110.95" font-family="Times,serif" font-size="14.00"> </text>
<polyline fill="none" stroke="lightgray" points="222.38,-98 222.38,-134"/>
<text xml:space="preserve" text-anchor="middle" x="237.12" y="-110.95" font-family="Times,serif" font-size="14.00">17</text>
<polyline fill="none" stroke="lightgray" points="251.88,-98 251.88,-134"/>
<text xml:space="preserve" text-anchor="middle" x="261.75" y="-110.95" font-family="Times,serif" font-size="14.00"> </text>
</g>
<!-- 4534529936&#45;&gt;4534530272 -->
<g id="edge5" class="edge">
<title>4534529936:l&#45;&gt;4534530272:v</title>
<path fill="none" stroke="black" d="M236.5,-170.5C236.5,-159.12 236.82,-153.82 237,-145.95"/>
<polygon fill="black" stroke="black" points="240.5,-146.05 237.11,-136.01 233.5,-145.97 240.5,-146.05"/>
</g>
<!-- 4534521088 -->
<g id="node7" class="node">
<title>4534521088</title>
<path fill="lightgray" stroke="lightgray" d="M302,-98C302,-98 340.25,-98 340.25,-98 346.25,-98 352.25,-104 352.25,-110 352.25,-110 352.25,-122 352.25,-122 352.25,-128 346.25,-134 340.25,-134 340.25,-134 302,-134 302,-134 296,-134 290,-128 290,-122 290,-122 290,-110 290,-110 290,-104 296,-98 302,-98"/>
<text xml:space="preserve" text-anchor="middle" x="299.88" y="-110.95" font-family="Times,serif" font-size="14.00"> </text>
<polyline fill="none" stroke="lightgray" points="309.75,-98 309.75,-134"/>
<text xml:space="preserve" text-anchor="middle" x="321.12" y="-110.95" font-family="Times,serif" font-size="14.00">2</text>
<polyline fill="none" stroke="lightgray" points="332.5,-98 332.5,-134"/>
<text xml:space="preserve" text-anchor="middle" x="342.38" y="-110.95" font-family="Times,serif" font-size="14.00"> </text>
</g>
<!-- 4534529936&#45;&gt;4534521088 -->
<g id="edge6" class="edge">
<title>4534529936:r&#45;&gt;4534521088:v</title>
<path fill="none" stroke="black" d="M285.75,-170.5C285.75,-152.8 307.78,-154.58 317.07,-145.11"/>
<polygon fill="black" stroke="black" points="320.28,-146.5 320.58,-135.91 313.74,-144 320.28,-146.5"/>
</g>
<!-- 4534528256 -->
<g id="node8" class="node">
<title>4534528256</title>
<path fill="lightgray" stroke="lightgray" d="M12,-25C12,-25 50.25,-25 50.25,-25 56.25,-25 62.25,-31 62.25,-37 62.25,-37 62.25,-49 62.25,-49 62.25,-55 56.25,-61 50.25,-61 50.25,-61 12,-61 12,-61 6,-61 0,-55 0,-49 0,-49 0,-37 0,-37 0,-31 6,-25 12,-25"/>
<text xml:space="preserve" text-anchor="middle" x="9.88" y="-37.95" font-family="Times,serif" font-size="14.00"> </text>
<polyline fill="none" stroke="lightgray" points="19.75,-25 19.75,-61"/>
<text xml:space="preserve" text-anchor="middle" x="31.12" y="-37.95" font-family="Times,serif" font-size="14.00">5</text>
<polyline fill="none" stroke="lightgray" points="42.5,-25 42.5,-61"/>
<text xml:space="preserve" text-anchor="middle" x="52.38" y="-37.95" font-family="Times,serif" font-size="14.00"> </text>
</g>
<!-- 4534518736&#45;&gt;4534528256 -->
<g id="edge7" class="edge">
<title>4534518736:l&#45;&gt;4534528256:v</title>
<path fill="none" stroke="black" d="M51.88,-97.5C51.88,-83.65 40.2,-80.71 34.37,-72.32"/>
<polygon fill="black" stroke="black" points="37.78,-71.52 31.56,-62.95 31.08,-73.53 37.78,-71.52"/>
</g>
<!-- 4534525456 -->
<g id="node9" class="node">
<title>4534525456</title>
<path fill="lightgray" stroke="green" d="M92.62,-25C92.62,-25 137.62,-25 137.62,-25 143.62,-25 149.62,-31 149.62,-37 149.62,-37 149.62,-49 149.62,-49 149.62,-55 143.62,-61 137.62,-61 137.62,-61 92.62,-61 92.62,-61 86.62,-61 80.62,-55 80.62,-49 80.62,-49 80.62,-37 80.62,-37 80.62,-31 86.62,-25 92.62,-25"/>
<text xml:space="preserve" text-anchor="middle" x="90.5" y="-37.95" font-family="Times,serif" font-size="14.00"> </text>
<polyline fill="none" stroke="green" points="100.38,-25 100.38,-61"/>
<text xml:space="preserve" text-anchor="middle" x="115.12" y="-37.95" font-family="Times,serif" font-size="14.00">25</text>
<polyline fill="none" stroke="green" points="129.88,-25 129.88,-61"/>
<text xml:space="preserve" text-anchor="middle" x="139.75" y="-37.95" font-family="Times,serif" font-size="14.00"> </text>
</g>
<!-- 4534518736&#45;&gt;4534525456 -->
<g id="edge8" class="edge">
<title>4534518736:r&#45;&gt;4534525456:v</title>
<path fill="none" stroke="black" d="M94.38,-97.5C94.38,-83.65 106.05,-80.71 111.88,-72.32"/>
<polygon fill="black" stroke="black" points="115.17,-73.53 114.69,-62.95 108.47,-71.52 115.17,-73.53"/>
</g>
</g>
</svg>
