<?xml version="1.0" encoding="UTF-8" standalone="no"?>
<!DOCTYPE svg PUBLIC "-//W3C//DTD SVG 1.1//EN"
 "http://www.w3.org/Graphics/SVG/1.1/DTD/svg11.dtd">
<!-- Generated by graphviz version 14.0.0 (20250921.2048)
 -->
<!-- Pages: 1 -->
<svg width="374pt" height="289pt"
 viewBox="0.00 0.00 374.00 289.00" xmlns="http://www.w3.org/2000/svg" xmlns:xlink="http://www.w3.org/1999/xlink">
<g id="graph0" class="graph" transform="scale(1 1) rotate(0) translate(4 284.5)">
<polygon fill="white" stroke="none" points="-4,4 -4,-284.5 369.62,-284.5 369.62,4 -4,4"/>
<text xml:space="preserve" text-anchor="middle" x="182.81" y="-7.2" font-family="Times,serif" font-size="14.00">MaxHeap [5, 3, 19, 22, 84, 17, 6, 10, 9], heapsize: 9</text>
<!-- 4469873744 -->
<g id="node1" class="node">
<title>4469873744</title>
<path fill="lightgray" stroke="lightgray" d="M177.38,-244C177.38,-244 215.62,-244 215.62,-244 221.62,-244 227.62,-250 227.62,-256 227.62,-256 227.62,-268 227.62,-268 227.62,-274 221.62,-280 215.62,-280 215.62,-280 177.38,-280 177.38,-280 171.38,-280 165.38,-274 165.38,-268 165.38,-268 165.38,-256 165.38,-256 165.38,-250 171.38,-244 177.38,-244"/>
<text xml:space="preserve" text-anchor="middle" x="175.25" y="-256.95" font-family="Times,serif" font-size="14.00"> </text>
<polyline fill="none" stroke="lightgray" points="185.12,-244 185.12,-280"/>
<text xml:space="preserve" text-anchor="middle" x="196.5" y="-256.95" font-family="Times,serif" font-size="14.00">5</text>
<polyline fill="none" stroke="lightgray" points="207.88,-244 207.88,-280"/>
<text xml:space="preserve" text-anchor="middle" x="217.75" y="-256.95" font-family="Times,serif" font-size="14.00"> </text>
</g>
<!-- 4469868816 -->
<g id="node2" class="node">
<title>4469868816</title>
<path fill="lightgray" stroke="lightgray" d="M123.38,-171C123.38,-171 161.62,-171 161.62,-171 167.62,-171 173.62,-177 173.62,-183 173.62,-183 173.62,-195 173.62,-195 173.62,-201 167.62,-207 161.62,-207 161.62,-207 123.38,-207 123.38,-207 117.38,-207 111.38,-201 111.38,-195 111.38,-195 111.38,-183 111.38,-183 111.38,-177 117.38,-171 123.38,-171"/>
<text xml:space="preserve" text-anchor="middle" x="121.25" y="-183.95" font-family="Times,serif" font-size="14.00"> </text>
<polyline fill="none" stroke="lightgray" points="131.12,-171 131.12,-207"/>
<text xml:space="preserve" text-anchor="middle" x="142.5" y="-183.95" font-family="Times,serif" font-size="14.00">3</text>
<polyline fill="none" stroke="lightgray" points="153.88,-171 153.88,-207"/>
<text xml:space="preserve" text-anchor="middle" x="163.75" y="-183.95" font-family="Times,serif" font-size="14.00"> </text>
</g>
<!-- 4469873744&#45;&gt;4469868816 -->
<g id="edge1" class="edge">
<title>4469873744:l&#45;&gt;4469868816:v</title>
<path fill="none" stroke="black" d="M175.25,-243.5C175.25,-226.6 155.26,-227.34 146.52,-218.15"/>
<polygon fill="black" stroke="black" points="149.84,-217.04 143.03,-208.92 143.29,-219.51 149.84,-217.04"/>
</g>
<!-- 4469875088 -->
<g id="node3" class="node">
<title>4469875088</title>
<path fill="lightgray" stroke="green" d="M240,-171C240,-171 285,-171 285,-171 291,-171 297,-177 297,-183 297,-183 297,-195 297,-195 297,-201 291,-207 285,-207 285,-207 240,-207 240,-207 234,-207 228,-201 228,-195 228,-195 228,-183 228,-183 228,-177 234,-171 240,-171"/>
<text xml:space="preserve" text-anchor="middle" x="237.88" y="-183.95" font-family="Times,serif" font-size="14.00"> </text>
<polyline fill="none" stroke="green" points="247.75,-171 247.75,-207"/>
<text xml:space="preserve" text-anchor="middle" x="262.5" y="-183.95" font-family="Times,serif" font-size="14.00">19</text>
<polyline fill="none" stroke="green" points="277.25,-171 277.25,-207"/>
<text xml:space="preserve" text-anchor="middle" x="287.12" y="-183.95" font-family="Times,serif" font-size="14.00"> </text>
</g>
<!-- 4469873744&#45;&gt;4469875088 -->
<g id="edge2" class="edge">
<title>4469873744:r&#45;&gt;4469875088:v</title>
<path fill="none" stroke="black" d="M217.75,-243.5C217.75,-222.76 247.29,-228.81 258.37,-218.11"/>
<polygon fill="black" stroke="black" points="261.59,-219.5 261.95,-208.91 255.06,-216.96 261.59,-219.5"/>
</g>
<!-- 4469874080 -->
<g id="node4" class="node">
<title>4469874080</title>
<path fill="lightgray" stroke="lightgray" d="M54,-98C54,-98 99,-98 99,-98 105,-98 111,-104 111,-110 111,-110 111,-122 111,-122 111,-128 105,-134 99,-134 99,-134 54,-134 54,-134 48,-134 42,-128 42,-122 42,-122 42,-110 42,-110 42,-104 48,-98 54,-98"/>
<text xml:space="preserve" text-anchor="middle" x="51.88" y="-110.95" font-family="Times,serif" font-size="14.00"> </text>
<polyline fill="none" stroke="lightgray" points="61.75,-98 61.75,-134"/>
<text xml:space="preserve" text-anchor="middle" x="76.5" y="-110.95" font-family="Times,serif" font-size="14.00">22</text>
<polyline fill="none" stroke="lightgray" points="91.25,-98 91.25,-134"/>
<text xml:space="preserve" text-anchor="middle" x="101.12" y="-110.95" font-family="Times,serif" font-size="14.00"> </text>
</g>
<!-- 4469868816&#45;&gt;4469874080 -->
<g id="edge3" class="edge">
<title>4469868816:l&#45;&gt;4469874080:v</title>
<path fill="none" stroke="black" d="M121.25,-170.5C121.25,-149.76 91.71,-155.81 80.63,-145.11"/>
<polygon fill="black" stroke="black" points="83.94,-143.96 77.05,-135.91 77.41,-146.5 83.94,-143.96"/>
</g>
<!-- 4469870048 -->
<g id="node5" class="node">
<title>4469870048</title>
<path fill="lightgray" stroke="lightgray" d="M141,-98C141,-98 186,-98 186,-98 192,-98 198,-104 198,-110 198,-110 198,-122 198,-122 198,-128 192,-134 186,-134 186,-134 141,-134 141,-134 135,-134 129,-128 129,-122 129,-122 129,-110 129,-110 129,-104 135,-98 141,-98"/>
<text xml:space="preserve" text-anchor="middle" x="138.88" y="-110.95" font-family="Times,serif" font-size="14.00"> </text>
<polyline fill="none" stroke="lightgray" points="148.75,-98 148.75,-134"/>
<text xml:space="preserve" text-anchor="middle" x="163.5" y="-110.95" font-family="Times,serif" font-size="14.00">84</text>
<polyline fill="none" stroke="lightgray" points="178.25,-98 178.25,-134"/>
<text xml:space="preserve" text-anchor="middle" x="188.12" y="-110.95" font-family="Times,serif" font-size="14.00"> </text>
</g>
<!-- 4469868816&#45;&gt;4469870048 -->
<g id="edge4" class="edge">
<title>4469868816:r&#45;&gt;4469870048:v</title>
<path fill="none" stroke="black" d="M163.75,-170.5C163.75,-159.12 163.62,-153.82 163.55,-145.95"/>
<polygon fill="black" stroke="black" points="167.05,-146 163.51,-136.01 160.05,-146.03 167.05,-146"/>
</g>
<!-- 4469875424 -->
<g id="node6" class="node">
<title>4469875424</title>
<path fill="lightgray" stroke="green" d="M228,-98C228,-98 273,-98 273,-98 279,-98 285,-104 285,-110 285,-110 285,-122 285,-122 285,-128 279,-134 273,-134 273,-134 228,-134 228,-134 222,-134 216,-128 216,-122 216,-122 216,-110 216,-110 216,-104 222,-98 228,-98"/>
<text xml:space="preserve" text-anchor="middle" x="225.88" y="-110.95" font-family="Times,serif" font-size="14.00"> </text>
<polyline fill="none" stroke="green" points="235.75,-98 235.75,-134"/>
<text xml:space="preserve" text-anchor="middle" x="250.5" y="-110.95" font-family="Times,serif" font-size="14.00">17</text>
<polyline fill="none" stroke="green" points="265.25,-98 265.25,-134"/>
<text xml:space="preserve" text-anchor="middle" x="275.12" y="-110.95" font-family="Times,serif" font-size="14.00"> </text>
</g>
<!-- 4469875088&#45;&gt;4469875424 -->
<g id="edge5" class="edge">
<title>4469875088:l&#45;&gt;4469875424:v</title>
<path fill="none" stroke="black" d="M237.88,-170.5C237.88,-158.18 244.54,-153.71 248.18,-145.68"/>
<polygon fill="black" stroke="black" points="251.59,-146.48 250.19,-135.98 244.74,-145.06 251.59,-146.48"/>
</g>
<!-- 4469877104 -->
<g id="node7" class="node">
<title>4469877104</title>
<path fill="lightgray" stroke="lightgray" d="M315.38,-98C315.38,-98 353.62,-98 353.62,-98 359.62,-98 365.62,-104 365.62,-110 365.62,-110 365.62,-122 365.62,-122 365.62,-128 359.62,-134 353.62,-134 353.62,-134 315.38,-134 315.38,-134 309.38,-134 303.38,-128 303.38,-122 303.38,-122 303.38,-110 303.38,-110 303.38,-104 309.38,-98 315.38,-98"/>
<text xml:space="preserve" text-anchor="middle" x="313.25" y="-110.95" font-family="Times,serif" font-size="14.00"> </text>
<polyline fill="none" stroke="lightgray" points="323.12,-98 323.12,-134"/>
<text xml:space="preserve" text-anchor="middle" x="334.5" y="-110.95" font-family="Times,serif" font-size="14.00">6</text>
<polyline fill="none" stroke="lightgray" points="345.88,-98 345.88,-134"/>
<text xml:space="preserve" text-anchor="middle" x="355.75" y="-110.95" font-family="Times,serif" font-size="14.00"> </text>
</g>
<!-- 4469875088&#45;&gt;4469877104 -->
<g id="edge6" class="edge">
<title>4469875088:r&#45;&gt;4469877104:v</title>
<path fill="none" stroke="black" d="M287.12,-170.5C287.12,-148.81 319,-156.27 330.46,-145.06"/>
<polygon fill="black" stroke="black" points="333.66,-146.5 333.96,-135.91 327.12,-144 333.66,-146.5"/>
</g>
<!-- 4469877664 -->
<g id="node8" class="node">
<title>4469877664</title>
<path fill="lightgray" stroke="lightgray" d="M12,-25C12,-25 57,-25 57,-25 63,-25 69,-31 69,-37 69,-37 69,-49 69,-49 69,-55 63,-61 57,-61 57,-61 12,-61 12,-61 6,-61 0,-55 0,-49 0,-49 0,-37 0,-37 0,-31 6,-25 12,-25"/>
<text xml:space="preserve" text-anchor="middle" x="9.88" y="-37.95" font-family="Times,serif" font-size="14.00"> </text>
<polyline fill="none" stroke="lightgray" points="19.75,-25 19.75,-61"/>
<text xml:space="preserve" text-anchor="middle" x="34.5" y="-37.95" font-family="Times,serif" font-size="14.00">10</text>
<polyline fill="none" stroke="lightgray" points="49.25,-25 49.25,-61"/>
<text xml:space="preserve" text-anchor="middle" x="59.12" y="-37.95" font-family="Times,serif" font-size="14.00"> </text>
</g>
<!-- 4469874080&#45;&gt;4469877664 -->
<g id="edge7" class="edge">
<title>4469874080:l&#45;&gt;4469877664:v</title>
<path fill="none" stroke="black" d="M51.88,-97.5C51.88,-84.31 42.3,-80.66 37.37,-72.38"/>
<polygon fill="black" stroke="black" points="40.82,-71.74 34.89,-62.96 34.05,-73.53 40.82,-71.74"/>
</g>
<!-- 4469875760 -->
<g id="node9" class="node">
<title>4469875760</title>
<path fill="lightgray" stroke="lightgray" d="M99.38,-25C99.38,-25 137.62,-25 137.62,-25 143.62,-25 149.62,-31 149.62,-37 149.62,-37 149.62,-49 149.62,-49 149.62,-55 143.62,-61 137.62,-61 137.62,-61 99.38,-61 99.38,-61 93.38,-61 87.38,-55 87.38,-49 87.38,-49 87.38,-37 87.38,-37 87.38,-31 93.38,-25 99.38,-25"/>
<text xml:space="preserve" text-anchor="middle" x="97.25" y="-37.95" font-family="Times,serif" font-size="14.00"> </text>
<polyline fill="none" stroke="lightgray" points="107.12,-25 107.12,-61"/>
<text xml:space="preserve" text-anchor="middle" x="118.5" y="-37.95" font-family="Times,serif" font-size="14.00">9</text>
<polyline fill="none" stroke="lightgray" points="129.88,-25 129.88,-61"/>
<text xml:space="preserve" text-anchor="middle" x="139.75" y="-37.95" font-family="Times,serif" font-size="14.00"> </text>
</g>
<!-- 4469874080&#45;&gt;4469875760 -->
<g id="edge8" class="edge">
<title>4469874080:r&#45;&gt;4469875760:v</title>
<path fill="none" stroke="black" d="M101.12,-97.5C101.12,-84.31 110.7,-80.66 115.63,-72.38"/>
<polygon fill="black" stroke="black" points="118.95,-73.53 118.11,-62.96 112.18,-71.74 118.95,-73.53"/>
</g>
<!-- 4469875424&#45;&gt;4469875088 -->
<g id="edge9" class="edge">
<title>4469875424&#45;&gt;4469875088</title>
<path fill="none" stroke="green" d="M253.38,-134.03C254.67,-141.68 256.23,-150.92 257.7,-159.58"/>
<polygon fill="green" stroke="green" points="254.23,-160.04 259.34,-169.32 261.13,-158.88 254.23,-160.04"/>
</g>
</g>
</svg>
