<?xml version="1.0" encoding="UTF-8" standalone="no"?>
<!DOCTYPE svg PUBLIC "-//W3C//DTD SVG 1.1//EN"
 "http://www.w3.org/Graphics/SVG/1.1/DTD/svg11.dtd">
<!-- Generated by graphviz version 14.0.0 (20250921.2048)
 -->
<!-- Pages: 1 -->
<svg width="573pt" height="289pt"
 viewBox="0.00 0.00 573.00 289.00" xmlns="http://www.w3.org/2000/svg" xmlns:xlink="http://www.w3.org/1999/xlink">
<g id="graph0" class="graph" transform="scale(1 1) rotate(0) translate(4 284.5)">
<polygon fill="white" stroke="none" points="-4,4 -4,-284.5 568.62,-284.5 568.62,4 -4,4"/>
<text xml:space="preserve" text-anchor="middle" x="282.31" y="-7.2" font-family="Times,serif" font-size="14.00">MaxHeap [0, 1, 3, 10, 13, 17, 27, 9, 4, 12, 5, 16, 7, 8], heapsize: 14</text>
<!-- 4469875424 -->
<g id="node1" class="node">
<title>4469875424</title>
<path fill="lightgray" stroke="lightgray" d="M284,-244C284,-244 322.25,-244 322.25,-244 328.25,-244 334.25,-250 334.25,-256 334.25,-256 334.25,-268 334.25,-268 334.25,-274 328.25,-280 322.25,-280 322.25,-280 284,-280 284,-280 278,-280 272,-274 272,-268 272,-268 272,-256 272,-256 272,-250 278,-244 284,-244"/>
<text xml:space="preserve" text-anchor="middle" x="281.88" y="-256.95" font-family="Times,serif" font-size="14.00"> </text>
<polyline fill="none" stroke="lightgray" points="291.75,-244 291.75,-280"/>
<text xml:space="preserve" text-anchor="middle" x="303.12" y="-256.95" font-family="Times,serif" font-size="14.00">0</text>
<polyline fill="none" stroke="lightgray" points="314.5,-244 314.5,-280"/>
<text xml:space="preserve" text-anchor="middle" x="324.38" y="-256.95" font-family="Times,serif" font-size="14.00"> </text>
</g>
<!-- 4469874864 -->
<g id="node2" class="node">
<title>4469874864</title>
<path fill="lightgray" stroke="lightgray" d="M197,-171C197,-171 235.25,-171 235.25,-171 241.25,-171 247.25,-177 247.25,-183 247.25,-183 247.25,-195 247.25,-195 247.25,-201 241.25,-207 235.25,-207 235.25,-207 197,-207 197,-207 191,-207 185,-201 185,-195 185,-195 185,-183 185,-183 185,-177 191,-171 197,-171"/>
<text xml:space="preserve" text-anchor="middle" x="194.88" y="-183.95" font-family="Times,serif" font-size="14.00"> </text>
<polyline fill="none" stroke="lightgray" points="204.75,-171 204.75,-207"/>
<text xml:space="preserve" text-anchor="middle" x="216.12" y="-183.95" font-family="Times,serif" font-size="14.00">1</text>
<polyline fill="none" stroke="lightgray" points="227.5,-171 227.5,-207"/>
<text xml:space="preserve" text-anchor="middle" x="237.38" y="-183.95" font-family="Times,serif" font-size="14.00"> </text>
</g>
<!-- 4469875424&#45;&gt;4469874864 -->
<g id="edge1" class="edge">
<title>4469875424:l&#45;&gt;4469874864:v</title>
<path fill="none" stroke="black" d="M281.88,-243.5C281.88,-214.87 233.32,-233.47 219.66,-218.12"/>
<polygon fill="black" stroke="black" points="223.08,-217.32 216.6,-208.94 216.44,-219.53 223.08,-217.32"/>
</g>
<!-- 4469872736 -->
<g id="node3" class="node">
<title>4469872736</title>
<path fill="lightgray" stroke="lightgray" d="M407,-171C407,-171 445.25,-171 445.25,-171 451.25,-171 457.25,-177 457.25,-183 457.25,-183 457.25,-195 457.25,-195 457.25,-201 451.25,-207 445.25,-207 445.25,-207 407,-207 407,-207 401,-207 395,-201 395,-195 395,-195 395,-183 395,-183 395,-177 401,-171 407,-171"/>
<text xml:space="preserve" text-anchor="middle" x="404.88" y="-183.95" font-family="Times,serif" font-size="14.00"> </text>
<polyline fill="none" stroke="lightgray" points="414.75,-171 414.75,-207"/>
<text xml:space="preserve" text-anchor="middle" x="426.12" y="-183.95" font-family="Times,serif" font-size="14.00">3</text>
<polyline fill="none" stroke="lightgray" points="437.5,-171 437.5,-207"/>
<text xml:space="preserve" text-anchor="middle" x="447.38" y="-183.95" font-family="Times,serif" font-size="14.00"> </text>
</g>
<!-- 4469875424&#45;&gt;4469872736 -->
<g id="edge2" class="edge">
<title>4469875424:r&#45;&gt;4469872736:v</title>
<path fill="none" stroke="black" d="M324.38,-243.5C324.38,-200.22 407.22,-244.79 423.4,-218.67"/>
<polygon fill="black" stroke="black" points="426.8,-219.51 425.77,-208.97 420,-217.86 426.8,-219.51"/>
</g>
<!-- 4469875200 -->
<g id="node4" class="node">
<title>4469875200</title>
<path fill="lightgray" stroke="green" d="M76.62,-98C76.62,-98 121.62,-98 121.62,-98 127.62,-98 133.62,-104 133.62,-110 133.62,-110 133.62,-122 133.62,-122 133.62,-128 127.62,-134 121.62,-134 121.62,-134 76.62,-134 76.62,-134 70.62,-134 64.62,-128 64.62,-122 64.62,-122 64.62,-110 64.62,-110 64.62,-104 70.62,-98 76.62,-98"/>
<text xml:space="preserve" text-anchor="middle" x="74.5" y="-110.95" font-family="Times,serif" font-size="14.00"> </text>
<polyline fill="none" stroke="green" points="84.38,-98 84.38,-134"/>
<text xml:space="preserve" text-anchor="middle" x="99.12" y="-110.95" font-family="Times,serif" font-size="14.00">10</text>
<polyline fill="none" stroke="green" points="113.88,-98 113.88,-134"/>
<text xml:space="preserve" text-anchor="middle" x="123.75" y="-110.95" font-family="Times,serif" font-size="14.00"> </text>
</g>
<!-- 4469874864&#45;&gt;4469875200 -->
<g id="edge3" class="edge">
<title>4469874864:l&#45;&gt;4469875200:v</title>
<path fill="none" stroke="black" d="M194.88,-170.5C194.88,-129.65 117.59,-169.84 101.89,-145.46"/>
<polygon fill="black" stroke="black" points="105.33,-144.81 99.5,-135.97 98.55,-146.52 105.33,-144.81"/>
</g>
<!-- 4469869824 -->
<g id="node5" class="node">
<title>4469869824</title>
<path fill="lightgray" stroke="lightgray" d="M214.62,-98C214.62,-98 259.62,-98 259.62,-98 265.62,-98 271.62,-104 271.62,-110 271.62,-110 271.62,-122 271.62,-122 271.62,-128 265.62,-134 259.62,-134 259.62,-134 214.62,-134 214.62,-134 208.62,-134 202.62,-128 202.62,-122 202.62,-122 202.62,-110 202.62,-110 202.62,-104 208.62,-98 214.62,-98"/>
<text xml:space="preserve" text-anchor="middle" x="212.5" y="-110.95" font-family="Times,serif" font-size="14.00"> </text>
<polyline fill="none" stroke="lightgray" points="222.38,-98 222.38,-134"/>
<text xml:space="preserve" text-anchor="middle" x="237.12" y="-110.95" font-family="Times,serif" font-size="14.00">13</text>
<polyline fill="none" stroke="lightgray" points="251.88,-98 251.88,-134"/>
<text xml:space="preserve" text-anchor="middle" x="261.75" y="-110.95" font-family="Times,serif" font-size="14.00"> </text>
</g>
<!-- 4469874864&#45;&gt;4469869824 -->
<g id="edge4" class="edge">
<title>4469874864:r&#45;&gt;4469869824:v</title>
<path fill="none" stroke="black" d="M237.38,-170.5C237.38,-159.12 237.25,-153.82 237.18,-145.95"/>
<polygon fill="black" stroke="black" points="240.68,-146 237.13,-136.01 233.68,-146.03 240.68,-146"/>
</g>
<!-- 4469875312 -->
<g id="node6" class="node">
<title>4469875312</title>
<path fill="lightgray" stroke="lightgray" d="M382.62,-98C382.62,-98 427.62,-98 427.62,-98 433.62,-98 439.62,-104 439.62,-110 439.62,-110 439.62,-122 439.62,-122 439.62,-128 433.62,-134 427.62,-134 427.62,-134 382.62,-134 382.62,-134 376.62,-134 370.62,-128 370.62,-122 370.62,-122 370.62,-110 370.62,-110 370.62,-104 376.62,-98 382.62,-98"/>
<text xml:space="preserve" text-anchor="middle" x="380.5" y="-110.95" font-family="Times,serif" font-size="14.00"> </text>
<polyline fill="none" stroke="lightgray" points="390.38,-98 390.38,-134"/>
<text xml:space="preserve" text-anchor="middle" x="405.12" y="-110.95" font-family="Times,serif" font-size="14.00">17</text>
<polyline fill="none" stroke="lightgray" points="419.88,-98 419.88,-134"/>
<text xml:space="preserve" text-anchor="middle" x="429.75" y="-110.95" font-family="Times,serif" font-size="14.00"> </text>
</g>
<!-- 4469872736&#45;&gt;4469875312 -->
<g id="edge5" class="edge">
<title>4469872736:l&#45;&gt;4469875312:v</title>
<path fill="none" stroke="black" d="M404.88,-170.5C404.88,-159.12 405,-153.82 405.07,-145.95"/>
<polygon fill="black" stroke="black" points="408.57,-146.03 405.12,-136.01 401.57,-146 408.57,-146.03"/>
</g>
<!-- 4469874976 -->
<g id="node7" class="node">
<title>4469874976</title>
<path fill="lightgray" stroke="lightgray" d="M507.62,-98C507.62,-98 552.62,-98 552.62,-98 558.62,-98 564.62,-104 564.62,-110 564.62,-110 564.62,-122 564.62,-122 564.62,-128 558.62,-134 552.62,-134 552.62,-134 507.62,-134 507.62,-134 501.62,-134 495.62,-128 495.62,-122 495.62,-122 495.62,-110 495.62,-110 495.62,-104 501.62,-98 507.62,-98"/>
<text xml:space="preserve" text-anchor="middle" x="505.5" y="-110.95" font-family="Times,serif" font-size="14.00"> </text>
<polyline fill="none" stroke="lightgray" points="515.38,-98 515.38,-134"/>
<text xml:space="preserve" text-anchor="middle" x="530.12" y="-110.95" font-family="Times,serif" font-size="14.00">27</text>
<polyline fill="none" stroke="lightgray" points="544.88,-98 544.88,-134"/>
<text xml:space="preserve" text-anchor="middle" x="554.75" y="-110.95" font-family="Times,serif" font-size="14.00"> </text>
</g>
<!-- 4469872736&#45;&gt;4469874976 -->
<g id="edge6" class="edge">
<title>4469872736:r&#45;&gt;4469874976:v</title>
<path fill="none" stroke="black" d="M447.38,-170.5C447.38,-135.09 511.87,-165.4 526.98,-145.4"/>
<polygon fill="black" stroke="black" points="530.3,-146.53 529.71,-135.95 523.57,-144.59 530.3,-146.53"/>
</g>
<!-- 4469875536 -->
<g id="node8" class="node">
<title>4469875536</title>
<path fill="lightgray" stroke="lightgray" d="M12,-25C12,-25 50.25,-25 50.25,-25 56.25,-25 62.25,-31 62.25,-37 62.25,-37 62.25,-49 62.25,-49 62.25,-55 56.25,-61 50.25,-61 50.25,-61 12,-61 12,-61 6,-61 0,-55 0,-49 0,-49 0,-37 0,-37 0,-31 6,-25 12,-25"/>
<text xml:space="preserve" text-anchor="middle" x="9.88" y="-37.95" font-family="Times,serif" font-size="14.00"> </text>
<polyline fill="none" stroke="lightgray" points="19.75,-25 19.75,-61"/>
<text xml:space="preserve" text-anchor="middle" x="31.12" y="-37.95" font-family="Times,serif" font-size="14.00">9</text>
<polyline fill="none" stroke="lightgray" points="42.5,-25 42.5,-61"/>
<text xml:space="preserve" text-anchor="middle" x="52.38" y="-37.95" font-family="Times,serif" font-size="14.00"> </text>
</g>
<!-- 4469875200&#45;&gt;4469875536 -->
<g id="edge7" class="edge">
<title>4469875200:l&#45;&gt;4469875536:v</title>
<path fill="none" stroke="black" d="M74.5,-97.5C74.5,-77.14 45.87,-82.64 35.13,-71.98"/>
<polygon fill="black" stroke="black" points="38.5,-71.01 31.67,-62.91 31.96,-73.5 38.5,-71.01"/>
</g>
<!-- 4469874416 -->
<g id="node9" class="node">
<title>4469874416</title>
<path fill="lightgray" stroke="green" d="M92,-25C92,-25 130.25,-25 130.25,-25 136.25,-25 142.25,-31 142.25,-37 142.25,-37 142.25,-49 142.25,-49 142.25,-55 136.25,-61 130.25,-61 130.25,-61 92,-61 92,-61 86,-61 80,-55 80,-49 80,-49 80,-37 80,-37 80,-31 86,-25 92,-25"/>
<text xml:space="preserve" text-anchor="middle" x="89.88" y="-37.95" font-family="Times,serif" font-size="14.00"> </text>
<polyline fill="none" stroke="green" points="99.75,-25 99.75,-61"/>
<text xml:space="preserve" text-anchor="middle" x="111.12" y="-37.95" font-family="Times,serif" font-size="14.00">4</text>
<polyline fill="none" stroke="green" points="122.5,-25 122.5,-61"/>
<text xml:space="preserve" text-anchor="middle" x="132.38" y="-37.95" font-family="Times,serif" font-size="14.00"> </text>
</g>
<!-- 4469875200&#45;&gt;4469874416 -->
<g id="edge8" class="edge">
<title>4469875200:r&#45;&gt;4469874416:v</title>
<path fill="none" stroke="black" d="M123.75,-97.5C123.75,-85.18 117.09,-80.71 113.44,-72.68"/>
<polygon fill="black" stroke="black" points="116.89,-72.06 111.43,-62.98 110.03,-73.48 116.89,-72.06"/>
</g>
<!-- 4469875648 -->
<g id="node10" class="node">
<title>4469875648</title>
<path fill="lightgray" stroke="lightgray" d="M172.62,-25C172.62,-25 217.62,-25 217.62,-25 223.62,-25 229.62,-31 229.62,-37 229.62,-37 229.62,-49 229.62,-49 229.62,-55 223.62,-61 217.62,-61 217.62,-61 172.62,-61 172.62,-61 166.62,-61 160.62,-55 160.62,-49 160.62,-49 160.62,-37 160.62,-37 160.62,-31 166.62,-25 172.62,-25"/>
<text xml:space="preserve" text-anchor="middle" x="170.5" y="-37.95" font-family="Times,serif" font-size="14.00"> </text>
<polyline fill="none" stroke="lightgray" points="180.38,-25 180.38,-61"/>
<text xml:space="preserve" text-anchor="middle" x="195.12" y="-37.95" font-family="Times,serif" font-size="14.00">12</text>
<polyline fill="none" stroke="lightgray" points="209.88,-25 209.88,-61"/>
<text xml:space="preserve" text-anchor="middle" x="219.75" y="-37.95" font-family="Times,serif" font-size="14.00"> </text>
</g>
<!-- 4469869824&#45;&gt;4469875648 -->
<g id="edge9" class="edge">
<title>4469869824:l&#45;&gt;4469875648:v</title>
<path fill="none" stroke="black" d="M212.5,-97.5C212.5,-84.31 202.93,-80.66 197.99,-72.38"/>
<polygon fill="black" stroke="black" points="201.44,-71.74 195.51,-62.96 194.68,-73.53 201.44,-71.74"/>
</g>
<!-- 4469874640 -->
<g id="node11" class="node">
<title>4469874640</title>
<path fill="lightgray" stroke="lightgray" d="M260,-25C260,-25 298.25,-25 298.25,-25 304.25,-25 310.25,-31 310.25,-37 310.25,-37 310.25,-49 310.25,-49 310.25,-55 304.25,-61 298.25,-61 298.25,-61 260,-61 260,-61 254,-61 248,-55 248,-49 248,-49 248,-37 248,-37 248,-31 254,-25 260,-25"/>
<text xml:space="preserve" text-anchor="middle" x="257.88" y="-37.95" font-family="Times,serif" font-size="14.00"> </text>
<polyline fill="none" stroke="lightgray" points="267.75,-25 267.75,-61"/>
<text xml:space="preserve" text-anchor="middle" x="279.12" y="-37.95" font-family="Times,serif" font-size="14.00">5</text>
<polyline fill="none" stroke="lightgray" points="290.5,-25 290.5,-61"/>
<text xml:space="preserve" text-anchor="middle" x="300.38" y="-37.95" font-family="Times,serif" font-size="14.00"> </text>
</g>
<!-- 4469869824&#45;&gt;4469874640 -->
<g id="edge10" class="edge">
<title>4469869824:r&#45;&gt;4469874640:v</title>
<path fill="none" stroke="black" d="M261.75,-97.5C261.75,-84.31 271.32,-80.66 276.26,-72.38"/>
<polygon fill="black" stroke="black" points="279.57,-73.53 278.74,-62.96 272.81,-71.74 279.57,-73.53"/>
</g>
<!-- 4469877664 -->
<g id="node12" class="node">
<title>4469877664</title>
<path fill="lightgray" stroke="lightgray" d="M340.62,-25C340.62,-25 385.62,-25 385.62,-25 391.62,-25 397.62,-31 397.62,-37 397.62,-37 397.62,-49 397.62,-49 397.62,-55 391.62,-61 385.62,-61 385.62,-61 340.62,-61 340.62,-61 334.62,-61 328.62,-55 328.62,-49 328.62,-49 328.62,-37 328.62,-37 328.62,-31 334.62,-25 340.62,-25"/>
<text xml:space="preserve" text-anchor="middle" x="338.5" y="-37.95" font-family="Times,serif" font-size="14.00"> </text>
<polyline fill="none" stroke="lightgray" points="348.38,-25 348.38,-61"/>
<text xml:space="preserve" text-anchor="middle" x="363.12" y="-37.95" font-family="Times,serif" font-size="14.00">16</text>
<polyline fill="none" stroke="lightgray" points="377.88,-25 377.88,-61"/>
<text xml:space="preserve" text-anchor="middle" x="387.75" y="-37.95" font-family="Times,serif" font-size="14.00"> </text>
</g>
<!-- 4469875312&#45;&gt;4469877664 -->
<g id="edge11" class="edge">
<title>4469875312:l&#45;&gt;4469877664:v</title>
<path fill="none" stroke="black" d="M380.5,-97.5C380.5,-84.31 370.93,-80.66 365.99,-72.38"/>
<polygon fill="black" stroke="black" points="369.44,-71.74 363.51,-62.96 362.68,-73.53 369.44,-71.74"/>
</g>
<!-- 4469874528 -->
<g id="node13" class="node">
<title>4469874528</title>
<path fill="lightgray" stroke="lightgray" d="M428,-25C428,-25 466.25,-25 466.25,-25 472.25,-25 478.25,-31 478.25,-37 478.25,-37 478.25,-49 478.25,-49 478.25,-55 472.25,-61 466.25,-61 466.25,-61 428,-61 428,-61 422,-61 416,-55 416,-49 416,-49 416,-37 416,-37 416,-31 422,-25 428,-25"/>
<text xml:space="preserve" text-anchor="middle" x="425.88" y="-37.95" font-family="Times,serif" font-size="14.00"> </text>
<polyline fill="none" stroke="lightgray" points="435.75,-25 435.75,-61"/>
<text xml:space="preserve" text-anchor="middle" x="447.12" y="-37.95" font-family="Times,serif" font-size="14.00">7</text>
<polyline fill="none" stroke="lightgray" points="458.5,-25 458.5,-61"/>
<text xml:space="preserve" text-anchor="middle" x="468.38" y="-37.95" font-family="Times,serif" font-size="14.00"> </text>
</g>
<!-- 4469875312&#45;&gt;4469874528 -->
<g id="edge12" class="edge">
<title>4469875312:r&#45;&gt;4469874528:v</title>
<path fill="none" stroke="black" d="M429.75,-97.5C429.75,-84.31 439.32,-80.66 444.26,-72.38"/>
<polygon fill="black" stroke="black" points="447.57,-73.53 446.74,-62.96 440.81,-71.74 447.57,-73.53"/>
</g>
<!-- 4469875088 -->
<g id="node14" class="node">
<title>4469875088</title>
<path fill="lightgray" stroke="lightgray" d="M508,-25C508,-25 546.25,-25 546.25,-25 552.25,-25 558.25,-31 558.25,-37 558.25,-37 558.25,-49 558.25,-49 558.25,-55 552.25,-61 546.25,-61 546.25,-61 508,-61 508,-61 502,-61 496,-55 496,-49 496,-49 496,-37 496,-37 496,-31 502,-25 508,-25"/>
<text xml:space="preserve" text-anchor="middle" x="505.88" y="-37.95" font-family="Times,serif" font-size="14.00"> </text>
<polyline fill="none" stroke="lightgray" points="515.75,-25 515.75,-61"/>
<text xml:space="preserve" text-anchor="middle" x="527.12" y="-37.95" font-family="Times,serif" font-size="14.00">8</text>
<polyline fill="none" stroke="lightgray" points="538.5,-25 538.5,-61"/>
<text xml:space="preserve" text-anchor="middle" x="548.38" y="-37.95" font-family="Times,serif" font-size="14.00"> </text>
</g>
<!-- 4469874976&#45;&gt;4469875088 -->
<g id="edge13" class="edge">
<title>4469874976:l&#45;&gt;4469875088:v</title>
<path fill="none" stroke="black" d="M505.5,-97.5C505.5,-83.5 517.66,-80.75 523.75,-72.37"/>
<polygon fill="black" stroke="black" points="527.05,-73.53 526.68,-62.95 520.37,-71.46 527.05,-73.53"/>
</g>
<!-- 4469874416&#45;&gt;4469875200 -->
<g id="edge14" class="edge">
<title>4469874416&#45;&gt;4469875200</title>
<path fill="none" stroke="green" d="M108.25,-61.03C106.95,-68.68 105.39,-77.92 103.93,-86.58"/>
<polygon fill="green" stroke="green" points="100.5,-85.88 102.28,-96.32 107.4,-87.04 100.5,-85.88"/>
</g>
</g>
</svg>
