<?xml version="1.0" encoding="UTF-8" standalone="no"?>
<!DOCTYPE svg PUBLIC "-//W3C//DTD SVG 1.1//EN"
 "http://www.w3.org/Graphics/SVG/1.1/DTD/svg11.dtd">
<!-- Generated by graphviz version 14.0.0 (20250921.2048)
 -->
<!-- Pages: 1 -->
<svg width="558pt" height="264pt"
 viewBox="0.00 0.00 558.00 264.00" xmlns="http://www.w3.org/2000/svg" xmlns:xlink="http://www.w3.org/1999/xlink">
<g id="graph0" class="graph" transform="scale(1 1) rotate(0) translate(4 260)">
<polygon fill="white" stroke="none" points="-4,4 -4,-260 554.25,-260 554.25,4 -4,4"/>
<!-- 4495592592 -->
<g id="node1" class="node">
<title>4495592592</title>
<path fill="lightgray" stroke="lightgray" d="M276.62,-219.5C276.62,-219.5 321.62,-219.5 321.62,-219.5 327.62,-219.5 333.62,-225.5 333.62,-231.5 333.62,-231.5 333.62,-243.5 333.62,-243.5 333.62,-249.5 327.62,-255.5 321.62,-255.5 321.62,-255.5 276.62,-255.5 276.62,-255.5 270.62,-255.5 264.62,-249.5 264.62,-243.5 264.62,-243.5 264.62,-231.5 264.62,-231.5 264.62,-225.5 270.62,-219.5 276.62,-219.5"/>
<text xml:space="preserve" text-anchor="middle" x="274.5" y="-232.45" font-family="Times,serif" font-size="14.00"> </text>
<polyline fill="none" stroke="lightgray" points="284.38,-219.5 284.38,-255.5"/>
<text xml:space="preserve" text-anchor="middle" x="299.12" y="-232.45" font-family="Times,serif" font-size="14.00">27</text>
<polyline fill="none" stroke="lightgray" points="313.88,-219.5 313.88,-255.5"/>
<text xml:space="preserve" text-anchor="middle" x="323.75" y="-232.45" font-family="Times,serif" font-size="14.00"> </text>
</g>
<!-- 4495592704 -->
<g id="node2" class="node">
<title>4495592704</title>
<path fill="lightgray" stroke="lightgray" d="M190.62,-146.5C190.62,-146.5 235.62,-146.5 235.62,-146.5 241.62,-146.5 247.62,-152.5 247.62,-158.5 247.62,-158.5 247.62,-170.5 247.62,-170.5 247.62,-176.5 241.62,-182.5 235.62,-182.5 235.62,-182.5 190.62,-182.5 190.62,-182.5 184.62,-182.5 178.62,-176.5 178.62,-170.5 178.62,-170.5 178.62,-158.5 178.62,-158.5 178.62,-152.5 184.62,-146.5 190.62,-146.5"/>
<text xml:space="preserve" text-anchor="middle" x="188.5" y="-159.45" font-family="Times,serif" font-size="14.00"> </text>
<polyline fill="none" stroke="lightgray" points="198.38,-146.5 198.38,-182.5"/>
<text xml:space="preserve" text-anchor="middle" x="213.12" y="-159.45" font-family="Times,serif" font-size="14.00">17</text>
<polyline fill="none" stroke="lightgray" points="227.88,-146.5 227.88,-182.5"/>
<text xml:space="preserve" text-anchor="middle" x="237.75" y="-159.45" font-family="Times,serif" font-size="14.00"> </text>
</g>
<!-- 4495592592&#45;&gt;4495592704 -->
<g id="edge1" class="edge">
<title>4495592592:l&#45;&gt;4495592704:v</title>
<path fill="none" stroke="black" d="M274.5,-219C274.5,-192.07 229.99,-207.83 216.78,-193.58"/>
<polygon fill="black" stroke="black" points="220.19,-192.74 213.62,-184.43 213.58,-195.03 220.19,-192.74"/>
</g>
<!-- 4495592816 -->
<g id="node3" class="node">
<title>4495592816</title>
<path fill="lightgray" stroke="green" d="M401,-146.5C401,-146.5 439.25,-146.5 439.25,-146.5 445.25,-146.5 451.25,-152.5 451.25,-158.5 451.25,-158.5 451.25,-170.5 451.25,-170.5 451.25,-176.5 445.25,-182.5 439.25,-182.5 439.25,-182.5 401,-182.5 401,-182.5 395,-182.5 389,-176.5 389,-170.5 389,-170.5 389,-158.5 389,-158.5 389,-152.5 395,-146.5 401,-146.5"/>
<text xml:space="preserve" text-anchor="middle" x="398.88" y="-159.45" font-family="Times,serif" font-size="14.00"> </text>
<polyline fill="none" stroke="green" points="408.75,-146.5 408.75,-182.5"/>
<text xml:space="preserve" text-anchor="middle" x="420.12" y="-159.45" font-family="Times,serif" font-size="14.00">3</text>
<polyline fill="none" stroke="green" points="431.5,-146.5 431.5,-182.5"/>
<text xml:space="preserve" text-anchor="middle" x="441.38" y="-159.45" font-family="Times,serif" font-size="14.00"> </text>
</g>
<!-- 4495592592&#45;&gt;4495592816 -->
<g id="edge2" class="edge">
<title>4495592592:r&#45;&gt;4495592816:v</title>
<path fill="none" stroke="black" d="M323.75,-219C323.75,-177.92 401.54,-218.5 417.34,-194.01"/>
<polygon fill="black" stroke="black" points="420.7,-195.02 419.75,-184.47 413.91,-193.31 420.7,-195.02"/>
</g>
<!-- 4495592928 -->
<g id="node4" class="node">
<title>4495592928</title>
<path fill="lightgray" stroke="lightgray" d="M64.62,-73.5C64.62,-73.5 109.62,-73.5 109.62,-73.5 115.62,-73.5 121.62,-79.5 121.62,-85.5 121.62,-85.5 121.62,-97.5 121.62,-97.5 121.62,-103.5 115.62,-109.5 109.62,-109.5 109.62,-109.5 64.62,-109.5 64.62,-109.5 58.62,-109.5 52.62,-103.5 52.62,-97.5 52.62,-97.5 52.62,-85.5 52.62,-85.5 52.62,-79.5 58.62,-73.5 64.62,-73.5"/>
<text xml:space="preserve" text-anchor="middle" x="62.5" y="-86.45" font-family="Times,serif" font-size="14.00"> </text>
<polyline fill="none" stroke="lightgray" points="72.38,-73.5 72.38,-109.5"/>
<text xml:space="preserve" text-anchor="middle" x="87.12" y="-86.45" font-family="Times,serif" font-size="14.00">16</text>
<polyline fill="none" stroke="lightgray" points="101.88,-73.5 101.88,-109.5"/>
<text xml:space="preserve" text-anchor="middle" x="111.75" y="-86.45" font-family="Times,serif" font-size="14.00"> </text>
</g>
<!-- 4495592704&#45;&gt;4495592928 -->
<g id="edge3" class="edge">
<title>4495592704:l&#45;&gt;4495592928:v</title>
<path fill="none" stroke="black" d="M188.5,-146C188.5,-102.86 105.96,-147.19 89.84,-121.13"/>
<polygon fill="black" stroke="black" points="93.25,-120.36 87.48,-111.47 86.45,-122.01 93.25,-120.36"/>
</g>
<!-- 4495593040 -->
<g id="node5" class="node">
<title>4495593040</title>
<path fill="lightgray" stroke="lightgray" d="M214.62,-73.5C214.62,-73.5 259.62,-73.5 259.62,-73.5 265.62,-73.5 271.62,-79.5 271.62,-85.5 271.62,-85.5 271.62,-97.5 271.62,-97.5 271.62,-103.5 265.62,-109.5 259.62,-109.5 259.62,-109.5 214.62,-109.5 214.62,-109.5 208.62,-109.5 202.62,-103.5 202.62,-97.5 202.62,-97.5 202.62,-85.5 202.62,-85.5 202.62,-79.5 208.62,-73.5 214.62,-73.5"/>
<text xml:space="preserve" text-anchor="middle" x="212.5" y="-86.45" font-family="Times,serif" font-size="14.00"> </text>
<polyline fill="none" stroke="lightgray" points="222.38,-73.5 222.38,-109.5"/>
<text xml:space="preserve" text-anchor="middle" x="237.12" y="-86.45" font-family="Times,serif" font-size="14.00">13</text>
<polyline fill="none" stroke="lightgray" points="251.88,-73.5 251.88,-109.5"/>
<text xml:space="preserve" text-anchor="middle" x="261.75" y="-86.45" font-family="Times,serif" font-size="14.00"> </text>
</g>
<!-- 4495592704&#45;&gt;4495593040 -->
<g id="edge4" class="edge">
<title>4495592704:r&#45;&gt;4495593040:v</title>
<path fill="none" stroke="black" d="M237.75,-146C237.75,-134.62 237.43,-129.32 237.25,-121.45"/>
<polygon fill="black" stroke="black" points="240.75,-121.47 237.14,-111.51 233.75,-121.55 240.75,-121.47"/>
</g>
<!-- 4495593152 -->
<g id="node6" class="node">
<title>4495593152</title>
<path fill="lightgray" stroke="lightgray" d="M376.62,-73.5C376.62,-73.5 421.62,-73.5 421.62,-73.5 427.62,-73.5 433.62,-79.5 433.62,-85.5 433.62,-85.5 433.62,-97.5 433.62,-97.5 433.62,-103.5 427.62,-109.5 421.62,-109.5 421.62,-109.5 376.62,-109.5 376.62,-109.5 370.62,-109.5 364.62,-103.5 364.62,-97.5 364.62,-97.5 364.62,-85.5 364.62,-85.5 364.62,-79.5 370.62,-73.5 376.62,-73.5"/>
<text xml:space="preserve" text-anchor="middle" x="374.5" y="-86.45" font-family="Times,serif" font-size="14.00"> </text>
<polyline fill="none" stroke="lightgray" points="384.38,-73.5 384.38,-109.5"/>
<text xml:space="preserve" text-anchor="middle" x="399.12" y="-86.45" font-family="Times,serif" font-size="14.00">10</text>
<polyline fill="none" stroke="lightgray" points="413.88,-73.5 413.88,-109.5"/>
<text xml:space="preserve" text-anchor="middle" x="423.75" y="-86.45" font-family="Times,serif" font-size="14.00"> </text>
</g>
<!-- 4495592816&#45;&gt;4495593152 -->
<g id="edge5" class="edge">
<title>4495592816:l&#45;&gt;4495593152:v</title>
<path fill="none" stroke="black" d="M398.88,-146C398.88,-134.62 399,-129.32 399.07,-121.45"/>
<polygon fill="black" stroke="black" points="402.57,-121.53 399.12,-111.51 395.57,-121.5 402.57,-121.53"/>
</g>
<!-- 4495593264 -->
<g id="node7" class="node">
<title>4495593264</title>
<path fill="lightgray" stroke="lightgray" d="M500,-73.5C500,-73.5 538.25,-73.5 538.25,-73.5 544.25,-73.5 550.25,-79.5 550.25,-85.5 550.25,-85.5 550.25,-97.5 550.25,-97.5 550.25,-103.5 544.25,-109.5 538.25,-109.5 538.25,-109.5 500,-109.5 500,-109.5 494,-109.5 488,-103.5 488,-97.5 488,-97.5 488,-85.5 488,-85.5 488,-79.5 494,-73.5 500,-73.5"/>
<text xml:space="preserve" text-anchor="middle" x="497.88" y="-86.45" font-family="Times,serif" font-size="14.00"> </text>
<polyline fill="none" stroke="lightgray" points="507.75,-73.5 507.75,-109.5"/>
<text xml:space="preserve" text-anchor="middle" x="519.12" y="-86.45" font-family="Times,serif" font-size="14.00">1</text>
<polyline fill="none" stroke="lightgray" points="530.5,-73.5 530.5,-109.5"/>
<text xml:space="preserve" text-anchor="middle" x="540.38" y="-86.45" font-family="Times,serif" font-size="14.00"> </text>
</g>
<!-- 4495592816&#45;&gt;4495593264 -->
<g id="edge6" class="edge">
<title>4495592816:r&#45;&gt;4495593264:v</title>
<path fill="none" stroke="black" d="M441.38,-146C441.38,-112.68 500.9,-139.26 515.78,-120.92"/>
<polygon fill="black" stroke="black" points="519.1,-122.03 518.68,-111.45 512.41,-119.99 519.1,-122.03"/>
</g>
<!-- 4495593376 -->
<g id="node8" class="node">
<title>4495593376</title>
<path fill="lightgray" stroke="lightgray" d="M12,-0.5C12,-0.5 50.25,-0.5 50.25,-0.5 56.25,-0.5 62.25,-6.5 62.25,-12.5 62.25,-12.5 62.25,-24.5 62.25,-24.5 62.25,-30.5 56.25,-36.5 50.25,-36.5 50.25,-36.5 12,-36.5 12,-36.5 6,-36.5 0,-30.5 0,-24.5 0,-24.5 0,-12.5 0,-12.5 0,-6.5 6,-0.5 12,-0.5"/>
<text xml:space="preserve" text-anchor="middle" x="9.88" y="-13.45" font-family="Times,serif" font-size="14.00"> </text>
<polyline fill="none" stroke="lightgray" points="19.75,-0.5 19.75,-36.5"/>
<text xml:space="preserve" text-anchor="middle" x="31.12" y="-13.45" font-family="Times,serif" font-size="14.00">5</text>
<polyline fill="none" stroke="lightgray" points="42.5,-0.5 42.5,-36.5"/>
<text xml:space="preserve" text-anchor="middle" x="52.38" y="-13.45" font-family="Times,serif" font-size="14.00"> </text>
</g>
<!-- 4495592928&#45;&gt;4495593376 -->
<g id="edge7" class="edge">
<title>4495592928:l&#45;&gt;4495593376:v</title>
<path fill="none" stroke="black" d="M62.5,-73C62.5,-56.42 43.35,-56.73 34.97,-47.54"/>
<polygon fill="black" stroke="black" points="38.36,-46.61 31.64,-38.42 31.79,-49.02 38.36,-46.61"/>
</g>
<!-- 4495593488 -->
<g id="node9" class="node">
<title>4495593488</title>
<path fill="lightgray" stroke="lightgray" d="M92,-0.5C92,-0.5 130.25,-0.5 130.25,-0.5 136.25,-0.5 142.25,-6.5 142.25,-12.5 142.25,-12.5 142.25,-24.5 142.25,-24.5 142.25,-30.5 136.25,-36.5 130.25,-36.5 130.25,-36.5 92,-36.5 92,-36.5 86,-36.5 80,-30.5 80,-24.5 80,-24.5 80,-12.5 80,-12.5 80,-6.5 86,-0.5 92,-0.5"/>
<text xml:space="preserve" text-anchor="middle" x="89.88" y="-13.45" font-family="Times,serif" font-size="14.00"> </text>
<polyline fill="none" stroke="lightgray" points="99.75,-0.5 99.75,-36.5"/>
<text xml:space="preserve" text-anchor="middle" x="111.12" y="-13.45" font-family="Times,serif" font-size="14.00">7</text>
<polyline fill="none" stroke="lightgray" points="122.5,-0.5 122.5,-36.5"/>
<text xml:space="preserve" text-anchor="middle" x="132.38" y="-13.45" font-family="Times,serif" font-size="14.00"> </text>
</g>
<!-- 4495592928&#45;&gt;4495593488 -->
<g id="edge8" class="edge">
<title>4495592928:r&#45;&gt;4495593488:v</title>
<path fill="none" stroke="black" d="M111.75,-73C111.75,-61.62 111.43,-56.32 111.25,-48.45"/>
<polygon fill="black" stroke="black" points="114.75,-48.47 111.14,-38.51 107.75,-48.55 114.75,-48.47"/>
</g>
<!-- 4495593600 -->
<g id="node10" class="node">
<title>4495593600</title>
<path fill="lightgray" stroke="lightgray" d="M172.62,-0.5C172.62,-0.5 217.62,-0.5 217.62,-0.5 223.62,-0.5 229.62,-6.5 229.62,-12.5 229.62,-12.5 229.62,-24.5 229.62,-24.5 229.62,-30.5 223.62,-36.5 217.62,-36.5 217.62,-36.5 172.62,-36.5 172.62,-36.5 166.62,-36.5 160.62,-30.5 160.62,-24.5 160.62,-24.5 160.62,-12.5 160.62,-12.5 160.62,-6.5 166.62,-0.5 172.62,-0.5"/>
<text xml:space="preserve" text-anchor="middle" x="170.5" y="-13.45" font-family="Times,serif" font-size="14.00"> </text>
<polyline fill="none" stroke="lightgray" points="180.38,-0.5 180.38,-36.5"/>
<text xml:space="preserve" text-anchor="middle" x="195.12" y="-13.45" font-family="Times,serif" font-size="14.00">12</text>
<polyline fill="none" stroke="lightgray" points="209.88,-0.5 209.88,-36.5"/>
<text xml:space="preserve" text-anchor="middle" x="219.75" y="-13.45" font-family="Times,serif" font-size="14.00"> </text>
</g>
<!-- 4495593040&#45;&gt;4495593600 -->
<g id="edge9" class="edge">
<title>4495593040:l&#45;&gt;4495593600:v</title>
<path fill="none" stroke="black" d="M212.5,-73C212.5,-59.81 202.93,-56.16 197.99,-47.88"/>
<polygon fill="black" stroke="black" points="201.44,-47.24 195.51,-38.46 194.68,-49.03 201.44,-47.24"/>
</g>
<!-- 4495593712 -->
<g id="node11" class="node">
<title>4495593712</title>
<path fill="lightgray" stroke="lightgray" d="M260,-0.5C260,-0.5 298.25,-0.5 298.25,-0.5 304.25,-0.5 310.25,-6.5 310.25,-12.5 310.25,-12.5 310.25,-24.5 310.25,-24.5 310.25,-30.5 304.25,-36.5 298.25,-36.5 298.25,-36.5 260,-36.5 260,-36.5 254,-36.5 248,-30.5 248,-24.5 248,-24.5 248,-12.5 248,-12.5 248,-6.5 254,-0.5 260,-0.5"/>
<text xml:space="preserve" text-anchor="middle" x="257.88" y="-13.45" font-family="Times,serif" font-size="14.00"> </text>
<polyline fill="none" stroke="lightgray" points="267.75,-0.5 267.75,-36.5"/>
<text xml:space="preserve" text-anchor="middle" x="279.12" y="-13.45" font-family="Times,serif" font-size="14.00">4</text>
<polyline fill="none" stroke="lightgray" points="290.5,-0.5 290.5,-36.5"/>
<text xml:space="preserve" text-anchor="middle" x="300.38" y="-13.45" font-family="Times,serif" font-size="14.00"> </text>
</g>
<!-- 4495593040&#45;&gt;4495593712 -->
<g id="edge10" class="edge">
<title>4495593040:r&#45;&gt;4495593712:v</title>
<path fill="none" stroke="black" d="M261.75,-73C261.75,-59.81 271.32,-56.16 276.26,-47.88"/>
<polygon fill="black" stroke="black" points="279.57,-49.03 278.74,-38.46 272.81,-47.24 279.57,-49.03"/>
</g>
<!-- 4495593824 -->
<g id="node12" class="node">
<title>4495593824</title>
<path fill="lightgray" stroke="lightgray" d="M340,-0.5C340,-0.5 378.25,-0.5 378.25,-0.5 384.25,-0.5 390.25,-6.5 390.25,-12.5 390.25,-12.5 390.25,-24.5 390.25,-24.5 390.25,-30.5 384.25,-36.5 378.25,-36.5 378.25,-36.5 340,-36.5 340,-36.5 334,-36.5 328,-30.5 328,-24.5 328,-24.5 328,-12.5 328,-12.5 328,-6.5 334,-0.5 340,-0.5"/>
<text xml:space="preserve" text-anchor="middle" x="337.88" y="-13.45" font-family="Times,serif" font-size="14.00"> </text>
<polyline fill="none" stroke="lightgray" points="347.75,-0.5 347.75,-36.5"/>
<text xml:space="preserve" text-anchor="middle" x="359.12" y="-13.45" font-family="Times,serif" font-size="14.00">8</text>
<polyline fill="none" stroke="lightgray" points="370.5,-0.5 370.5,-36.5"/>
<text xml:space="preserve" text-anchor="middle" x="380.38" y="-13.45" font-family="Times,serif" font-size="14.00"> </text>
</g>
<!-- 4495593152&#45;&gt;4495593824 -->
<g id="edge11" class="edge">
<title>4495593152:l&#45;&gt;4495593824:v</title>
<path fill="none" stroke="black" d="M374.5,-73C374.5,-60.22 366.21,-56.18 361.8,-48.04"/>
<polygon fill="black" stroke="black" points="365.24,-47.36 359.48,-38.47 358.44,-49.01 365.24,-47.36"/>
</g>
<!-- 4495593936 -->
<g id="node13" class="node">
<title>4495593936</title>
<path fill="lightgray" stroke="lightgray" d="M420,-0.5C420,-0.5 458.25,-0.5 458.25,-0.5 464.25,-0.5 470.25,-6.5 470.25,-12.5 470.25,-12.5 470.25,-24.5 470.25,-24.5 470.25,-30.5 464.25,-36.5 458.25,-36.5 458.25,-36.5 420,-36.5 420,-36.5 414,-36.5 408,-30.5 408,-24.5 408,-24.5 408,-12.5 408,-12.5 408,-6.5 414,-0.5 420,-0.5"/>
<text xml:space="preserve" text-anchor="middle" x="417.88" y="-13.45" font-family="Times,serif" font-size="14.00"> </text>
<polyline fill="none" stroke="lightgray" points="427.75,-0.5 427.75,-36.5"/>
<text xml:space="preserve" text-anchor="middle" x="439.12" y="-13.45" font-family="Times,serif" font-size="14.00">9</text>
<polyline fill="none" stroke="lightgray" points="450.5,-0.5 450.5,-36.5"/>
<text xml:space="preserve" text-anchor="middle" x="460.38" y="-13.45" font-family="Times,serif" font-size="14.00"> </text>
</g>
<!-- 4495593152&#45;&gt;4495593936 -->
<g id="edge12" class="edge">
<title>4495593152:r&#45;&gt;4495593936:v</title>
<path fill="none" stroke="black" d="M423.75,-73C423.75,-60.22 432.04,-56.18 436.45,-48.04"/>
<polygon fill="black" stroke="black" points="439.81,-49.01 438.77,-38.47 433.01,-47.36 439.81,-49.01"/>
</g>
<!-- 4495594048 -->
<g id="node14" class="node">
<title>4495594048</title>
<path fill="lightgray" stroke="lightgray" d="M500,-0.5C500,-0.5 538.25,-0.5 538.25,-0.5 544.25,-0.5 550.25,-6.5 550.25,-12.5 550.25,-12.5 550.25,-24.5 550.25,-24.5 550.25,-30.5 544.25,-36.5 538.25,-36.5 538.25,-36.5 500,-36.5 500,-36.5 494,-36.5 488,-30.5 488,-24.5 488,-24.5 488,-12.5 488,-12.5 488,-6.5 494,-0.5 500,-0.5"/>
<text xml:space="preserve" text-anchor="middle" x="497.88" y="-13.45" font-family="Times,serif" font-size="14.00"> </text>
<polyline fill="none" stroke="lightgray" points="507.75,-0.5 507.75,-36.5"/>
<text xml:space="preserve" text-anchor="middle" x="519.12" y="-13.45" font-family="Times,serif" font-size="14.00">0</text>
<polyline fill="none" stroke="lightgray" points="530.5,-0.5 530.5,-36.5"/>
<text xml:space="preserve" text-anchor="middle" x="540.38" y="-13.45" font-family="Times,serif" font-size="14.00"> </text>
</g>
<!-- 4495593264&#45;&gt;4495594048 -->
<g id="edge13" class="edge">
<title>4495593264:l&#45;&gt;4495594048:v</title>
<path fill="none" stroke="black" d="M497.88,-73C497.88,-59.07 509.83,-56.23 515.8,-47.85"/>
<polygon fill="black" stroke="black" points="519.1,-49.03 518.68,-38.45 512.41,-46.99 519.1,-49.03"/>
</g>
</g>
</svg>
