<?xml version="1.0" encoding="UTF-8" standalone="no"?>
<!DOCTYPE svg PUBLIC "-//W3C//DTD SVG 1.1//EN"
 "http://www.w3.org/Graphics/SVG/1.1/DTD/svg11.dtd">
<!-- Generated by graphviz version 14.0.0 (20250921.2048)
 -->
<!-- Pages: 1 -->
<svg width="346pt" height="289pt"
 viewBox="0.00 0.00 346.00 289.00" xmlns="http://www.w3.org/2000/svg" xmlns:xlink="http://www.w3.org/1999/xlink">
<g id="graph0" class="graph" transform="scale(1 1) rotate(0) translate(4 284.5)">
<polygon fill="white" stroke="none" points="-4,4 -4,-284.5 342.25,-284.5 342.25,4 -4,4"/>
<text xml:space="preserve" text-anchor="middle" x="169.12" y="-7.2" font-family="Times,serif" font-size="14.00">MaxHeap [22, 9, 19, 10, 3, 17, 6, 5, 84], heapsize: 8</text>
<!-- 4534521088 -->
<g id="node1" class="node">
<title>4534521088</title>
<path fill="lightgray" stroke="green" d="M159.62,-244C159.62,-244 204.62,-244 204.62,-244 210.62,-244 216.62,-250 216.62,-256 216.62,-256 216.62,-268 216.62,-268 216.62,-274 210.62,-280 204.62,-280 204.62,-280 159.62,-280 159.62,-280 153.62,-280 147.62,-274 147.62,-268 147.62,-268 147.62,-256 147.62,-256 147.62,-250 153.62,-244 159.62,-244"/>
<text xml:space="preserve" text-anchor="middle" x="157.5" y="-256.95" font-family="Times,serif" font-size="14.00"> </text>
<polyline fill="none" stroke="green" points="167.38,-244 167.38,-280"/>
<text xml:space="preserve" text-anchor="middle" x="182.12" y="-256.95" font-family="Times,serif" font-size="14.00">22</text>
<polyline fill="none" stroke="green" points="196.88,-244 196.88,-280"/>
<text xml:space="preserve" text-anchor="middle" x="206.75" y="-256.95" font-family="Times,serif" font-size="14.00"> </text>
</g>
<!-- 4534529712 -->
<g id="node2" class="node">
<title>4534529712</title>
<path fill="lightgray" stroke="green" d="M99,-171C99,-171 137.25,-171 137.25,-171 143.25,-171 149.25,-177 149.25,-183 149.25,-183 149.25,-195 149.25,-195 149.25,-201 143.25,-207 137.25,-207 137.25,-207 99,-207 99,-207 93,-207 87,-201 87,-195 87,-195 87,-183 87,-183 87,-177 93,-171 99,-171"/>
<text xml:space="preserve" text-anchor="middle" x="96.88" y="-183.95" font-family="Times,serif" font-size="14.00"> </text>
<polyline fill="none" stroke="green" points="106.75,-171 106.75,-207"/>
<text xml:space="preserve" text-anchor="middle" x="118.12" y="-183.95" font-family="Times,serif" font-size="14.00">9</text>
<polyline fill="none" stroke="green" points="129.5,-171 129.5,-207"/>
<text xml:space="preserve" text-anchor="middle" x="139.38" y="-183.95" font-family="Times,serif" font-size="14.00"> </text>
</g>
<!-- 4534521088&#45;&gt;4534529712 -->
<g id="edge1" class="edge">
<title>4534521088:l&#45;&gt;4534529712:v</title>
<path fill="none" stroke="black" d="M157.5,-243.5C157.5,-224.6 132.5,-228.02 122.34,-218.19"/>
<polygon fill="black" stroke="black" points="125.6,-216.93 118.68,-208.91 119.09,-219.49 125.6,-216.93"/>
</g>
<!-- 4534530384 -->
<g id="node3" class="node">
<title>4534530384</title>
<path fill="lightgray" stroke="lightgray" d="M224.62,-171C224.62,-171 269.62,-171 269.62,-171 275.62,-171 281.62,-177 281.62,-183 281.62,-183 281.62,-195 281.62,-195 281.62,-201 275.62,-207 269.62,-207 269.62,-207 224.62,-207 224.62,-207 218.62,-207 212.62,-201 212.62,-195 212.62,-195 212.62,-183 212.62,-183 212.62,-177 218.62,-171 224.62,-171"/>
<text xml:space="preserve" text-anchor="middle" x="222.5" y="-183.95" font-family="Times,serif" font-size="14.00"> </text>
<polyline fill="none" stroke="lightgray" points="232.38,-171 232.38,-207"/>
<text xml:space="preserve" text-anchor="middle" x="247.12" y="-183.95" font-family="Times,serif" font-size="14.00">19</text>
<polyline fill="none" stroke="lightgray" points="261.88,-171 261.88,-207"/>
<text xml:space="preserve" text-anchor="middle" x="271.75" y="-183.95" font-family="Times,serif" font-size="14.00"> </text>
</g>
<!-- 4534521088&#45;&gt;4534530384 -->
<g id="edge2" class="edge">
<title>4534521088:r&#45;&gt;4534530384:v</title>
<path fill="none" stroke="black" d="M206.75,-243.5C206.75,-224.15 232.89,-228.2 243.11,-217.99"/>
<polygon fill="black" stroke="black" points="246.27,-219.5 246.58,-208.91 239.74,-217 246.27,-219.5"/>
</g>
<!-- 4534530048 -->
<g id="node4" class="node">
<title>4534530048</title>
<path fill="lightgray" stroke="lightgray" d="M32.62,-98C32.62,-98 77.62,-98 77.62,-98 83.62,-98 89.62,-104 89.62,-110 89.62,-110 89.62,-122 89.62,-122 89.62,-128 83.62,-134 77.62,-134 77.62,-134 32.62,-134 32.62,-134 26.62,-134 20.62,-128 20.62,-122 20.62,-122 20.62,-110 20.62,-110 20.62,-104 26.62,-98 32.62,-98"/>
<text xml:space="preserve" text-anchor="middle" x="30.5" y="-110.95" font-family="Times,serif" font-size="14.00"> </text>
<polyline fill="none" stroke="lightgray" points="40.38,-98 40.38,-134"/>
<text xml:space="preserve" text-anchor="middle" x="55.12" y="-110.95" font-family="Times,serif" font-size="14.00">10</text>
<polyline fill="none" stroke="lightgray" points="69.88,-98 69.88,-134"/>
<text xml:space="preserve" text-anchor="middle" x="79.75" y="-110.95" font-family="Times,serif" font-size="14.00"> </text>
</g>
<!-- 4534529712&#45;&gt;4534530048 -->
<g id="edge3" class="edge">
<title>4534529712:l&#45;&gt;4534530048:v</title>
<path fill="none" stroke="black" d="M96.88,-170.5C96.88,-150.78 69.84,-155.35 59.28,-145.12"/>
<polygon fill="black" stroke="black" points="62.58,-143.95 55.68,-135.91 56.06,-146.5 62.58,-143.95"/>
</g>
<!-- 4534523328 -->
<g id="node5" class="node">
<title>4534523328</title>
<path fill="lightgray" stroke="lightgray" d="M120,-98C120,-98 158.25,-98 158.25,-98 164.25,-98 170.25,-104 170.25,-110 170.25,-110 170.25,-122 170.25,-122 170.25,-128 164.25,-134 158.25,-134 158.25,-134 120,-134 120,-134 114,-134 108,-128 108,-122 108,-122 108,-110 108,-110 108,-104 114,-98 120,-98"/>
<text xml:space="preserve" text-anchor="middle" x="117.88" y="-110.95" font-family="Times,serif" font-size="14.00"> </text>
<polyline fill="none" stroke="lightgray" points="127.75,-98 127.75,-134"/>
<text xml:space="preserve" text-anchor="middle" x="139.12" y="-110.95" font-family="Times,serif" font-size="14.00">3</text>
<polyline fill="none" stroke="lightgray" points="150.5,-98 150.5,-134"/>
<text xml:space="preserve" text-anchor="middle" x="160.38" y="-110.95" font-family="Times,serif" font-size="14.00"> </text>
</g>
<!-- 4534529712&#45;&gt;4534523328 -->
<g id="edge4" class="edge">
<title>4534529712:r&#45;&gt;4534523328:v</title>
<path fill="none" stroke="black" d="M139.38,-170.5C139.38,-159.12 139.25,-153.82 139.18,-145.95"/>
<polygon fill="black" stroke="black" points="142.68,-146 139.13,-136.01 135.68,-146.03 142.68,-146"/>
</g>
<!-- 4534524000 -->
<g id="node6" class="node">
<title>4534524000</title>
<path fill="lightgray" stroke="lightgray" d="M200.62,-98C200.62,-98 245.62,-98 245.62,-98 251.62,-98 257.62,-104 257.62,-110 257.62,-110 257.62,-122 257.62,-122 257.62,-128 251.62,-134 245.62,-134 245.62,-134 200.62,-134 200.62,-134 194.62,-134 188.62,-128 188.62,-122 188.62,-122 188.62,-110 188.62,-110 188.62,-104 194.62,-98 200.62,-98"/>
<text xml:space="preserve" text-anchor="middle" x="198.5" y="-110.95" font-family="Times,serif" font-size="14.00"> </text>
<polyline fill="none" stroke="lightgray" points="208.38,-98 208.38,-134"/>
<text xml:space="preserve" text-anchor="middle" x="223.12" y="-110.95" font-family="Times,serif" font-size="14.00">17</text>
<polyline fill="none" stroke="lightgray" points="237.88,-98 237.88,-134"/>
<text xml:space="preserve" text-anchor="middle" x="247.75" y="-110.95" font-family="Times,serif" font-size="14.00"> </text>
</g>
<!-- 4534530384&#45;&gt;4534524000 -->
<g id="edge5" class="edge">
<title>4534530384:l&#45;&gt;4534524000:v</title>
<path fill="none" stroke="black" d="M222.5,-170.5C222.5,-159.12 222.82,-153.82 223,-145.95"/>
<polygon fill="black" stroke="black" points="226.5,-146.05 223.11,-136.01 219.5,-145.97 226.5,-146.05"/>
</g>
<!-- 4534524784 -->
<g id="node7" class="node">
<title>4534524784</title>
<path fill="lightgray" stroke="lightgray" d="M288,-98C288,-98 326.25,-98 326.25,-98 332.25,-98 338.25,-104 338.25,-110 338.25,-110 338.25,-122 338.25,-122 338.25,-128 332.25,-134 326.25,-134 326.25,-134 288,-134 288,-134 282,-134 276,-128 276,-122 276,-122 276,-110 276,-110 276,-104 282,-98 288,-98"/>
<text xml:space="preserve" text-anchor="middle" x="285.88" y="-110.95" font-family="Times,serif" font-size="14.00"> </text>
<polyline fill="none" stroke="lightgray" points="295.75,-98 295.75,-134"/>
<text xml:space="preserve" text-anchor="middle" x="307.12" y="-110.95" font-family="Times,serif" font-size="14.00">6</text>
<polyline fill="none" stroke="lightgray" points="318.5,-98 318.5,-134"/>
<text xml:space="preserve" text-anchor="middle" x="328.38" y="-110.95" font-family="Times,serif" font-size="14.00"> </text>
</g>
<!-- 4534530384&#45;&gt;4534524784 -->
<g id="edge6" class="edge">
<title>4534530384:r&#45;&gt;4534524784:v</title>
<path fill="none" stroke="black" d="M271.75,-170.5C271.75,-152.8 293.78,-154.58 303.07,-145.11"/>
<polygon fill="black" stroke="black" points="306.28,-146.5 306.58,-135.91 299.74,-144 306.28,-146.5"/>
</g>
<!-- 4534530160 -->
<g id="node8" class="node">
<title>4534530160</title>
<path fill="lightgray" stroke="lightgray" d="M12,-25C12,-25 50.25,-25 50.25,-25 56.25,-25 62.25,-31 62.25,-37 62.25,-37 62.25,-49 62.25,-49 62.25,-55 56.25,-61 50.25,-61 50.25,-61 12,-61 12,-61 6,-61 0,-55 0,-49 0,-49 0,-37 0,-37 0,-31 6,-25 12,-25"/>
<text xml:space="preserve" text-anchor="middle" x="9.88" y="-37.95" font-family="Times,serif" font-size="14.00"> </text>
<polyline fill="none" stroke="lightgray" points="19.75,-25 19.75,-61"/>
<text xml:space="preserve" text-anchor="middle" x="31.12" y="-37.95" font-family="Times,serif" font-size="14.00">5</text>
<polyline fill="none" stroke="lightgray" points="42.5,-25 42.5,-61"/>
<text xml:space="preserve" text-anchor="middle" x="52.38" y="-37.95" font-family="Times,serif" font-size="14.00"> </text>
</g>
<!-- 4534530048&#45;&gt;4534530160 -->
<g id="edge7" class="edge">
<title>4534530048:l&#45;&gt;4534530160:v</title>
<path fill="none" stroke="black" d="M30.5,-97.5C30.5,-86.12 30.82,-80.82 31,-72.95"/>
<polygon fill="black" stroke="black" points="34.5,-73.05 31.11,-63.01 27.5,-72.97 34.5,-73.05"/>
</g>
</g>
</svg>
