<?xml version="1.0" encoding="UTF-8" standalone="no"?>
<!DOCTYPE svg PUBLIC "-//W3C//DTD SVG 1.1//EN"
 "http://www.w3.org/Graphics/SVG/1.1/DTD/svg11.dtd">
<!-- Generated by graphviz version 14.0.0 (20250921.2048)
 -->
<!-- Pages: 1 -->
<svg width="307pt" height="143pt"
 viewBox="0.00 0.00 307.00 143.00" xmlns="http://www.w3.org/2000/svg" xmlns:xlink="http://www.w3.org/1999/xlink">
<g id="graph0" class="graph" transform="scale(1 1) rotate(0) translate(4 138.5)">
<polygon fill="white" stroke="none" points="-4,4 -4,-138.5 302.75,-138.5 302.75,4 -4,4"/>
<text xml:space="preserve" text-anchor="middle" x="149.38" y="-7.2" font-family="Times,serif" font-size="14.00">MaxHeap [2, 4, 5, 7, 8, 13, 17, 20, 25], heapsize: 3</text>
<!-- 4512495808 -->
<g id="node1" class="node">
<title>4512495808</title>
<path fill="lightgray" stroke="green" d="M130.25,-98C130.25,-98 168.5,-98 168.5,-98 174.5,-98 180.5,-104 180.5,-110 180.5,-110 180.5,-122 180.5,-122 180.5,-128 174.5,-134 168.5,-134 168.5,-134 130.25,-134 130.25,-134 124.25,-134 118.25,-128 118.25,-122 118.25,-122 118.25,-110 118.25,-110 118.25,-104 124.25,-98 130.25,-98"/>
<text xml:space="preserve" text-anchor="middle" x="128.12" y="-110.95" font-family="Times,serif" font-size="14.00"> </text>
<polyline fill="none" stroke="green" points="138,-98 138,-134"/>
<text xml:space="preserve" text-anchor="middle" x="149.38" y="-110.95" font-family="Times,serif" font-size="14.00">2</text>
<polyline fill="none" stroke="green" points="160.75,-98 160.75,-134"/>
<text xml:space="preserve" text-anchor="middle" x="170.62" y="-110.95" font-family="Times,serif" font-size="14.00"> </text>
</g>
<!-- 4512495920 -->
<g id="node2" class="node">
<title>4512495920</title>
<path fill="lightgray" stroke="lightgray" d="M90.25,-25C90.25,-25 128.5,-25 128.5,-25 134.5,-25 140.5,-31 140.5,-37 140.5,-37 140.5,-49 140.5,-49 140.5,-55 134.5,-61 128.5,-61 128.5,-61 90.25,-61 90.25,-61 84.25,-61 78.25,-55 78.25,-49 78.25,-49 78.25,-37 78.25,-37 78.25,-31 84.25,-25 90.25,-25"/>
<text xml:space="preserve" text-anchor="middle" x="88.12" y="-37.95" font-family="Times,serif" font-size="14.00"> </text>
<polyline fill="none" stroke="lightgray" points="98,-25 98,-61"/>
<text xml:space="preserve" text-anchor="middle" x="109.38" y="-37.95" font-family="Times,serif" font-size="14.00">4</text>
<polyline fill="none" stroke="lightgray" points="120.75,-25 120.75,-61"/>
<text xml:space="preserve" text-anchor="middle" x="130.62" y="-37.95" font-family="Times,serif" font-size="14.00"> </text>
</g>
<!-- 4512495808&#45;&gt;4512495920 -->
<g id="edge1" class="edge">
<title>4512495808:l&#45;&gt;4512495920:v</title>
<path fill="none" stroke="black" d="M128.12,-97.5C128.12,-84.11 117.8,-80.7 112.47,-72.46"/>
<polygon fill="black" stroke="black" points="115.87,-71.63 109.79,-62.96 109.14,-73.53 115.87,-71.63"/>
</g>
<!-- 4534519520 -->
<g id="node3" class="node">
<title>4534519520</title>
<path fill="lightgray" stroke="green" d="M170.25,-25C170.25,-25 208.5,-25 208.5,-25 214.5,-25 220.5,-31 220.5,-37 220.5,-37 220.5,-49 220.5,-49 220.5,-55 214.5,-61 208.5,-61 208.5,-61 170.25,-61 170.25,-61 164.25,-61 158.25,-55 158.25,-49 158.25,-49 158.25,-37 158.25,-37 158.25,-31 164.25,-25 170.25,-25"/>
<text xml:space="preserve" text-anchor="middle" x="168.12" y="-37.95" font-family="Times,serif" font-size="14.00"> </text>
<polyline fill="none" stroke="green" points="178,-25 178,-61"/>
<text xml:space="preserve" text-anchor="middle" x="189.38" y="-37.95" font-family="Times,serif" font-size="14.00">5</text>
<polyline fill="none" stroke="green" points="200.75,-25 200.75,-61"/>
<text xml:space="preserve" text-anchor="middle" x="210.62" y="-37.95" font-family="Times,serif" font-size="14.00"> </text>
</g>
<!-- 4512495808&#45;&gt;4534519520 -->
<g id="edge2" class="edge">
<title>4512495808:r&#45;&gt;4534519520:v</title>
<path fill="none" stroke="black" d="M170.62,-97.5C170.62,-84.11 180.95,-80.7 186.28,-72.46"/>
<polygon fill="black" stroke="black" points="189.61,-73.53 188.96,-62.96 182.88,-71.63 189.61,-73.53"/>
</g>
</g>
</svg>
