<?xml version="1.0" encoding="UTF-8" standalone="no"?>
<!DOCTYPE svg PUBLIC "-//W3C//DTD SVG 1.1//EN"
 "http://www.w3.org/Graphics/SVG/1.1/DTD/svg11.dtd">
<!-- Generated by graphviz version 14.0.0 (20250921.2048)
 -->
<!-- Pages: 1 -->
<svg width="364pt" height="289pt"
 viewBox="0.00 0.00 364.00 289.00" xmlns="http://www.w3.org/2000/svg" xmlns:xlink="http://www.w3.org/1999/xlink">
<g id="graph0" class="graph" transform="scale(1 1) rotate(0) translate(4 284.5)">
<polygon fill="white" stroke="none" points="-4,4 -4,-284.5 360,-284.5 360,4 -4,4"/>
<text xml:space="preserve" text-anchor="middle" x="178" y="-7.2" font-family="Times,serif" font-size="14.00">MaxHeap [13, 8, 5, 2, 7, 4, 17, 20, 25], heapsize: 6</text>
<!-- 4469870832 -->
<g id="node1" class="node">
<title>4469870832</title>
<path fill="lightgray" stroke="lightgray" d="M165,-244C165,-244 210,-244 210,-244 216,-244 222,-250 222,-256 222,-256 222,-268 222,-268 222,-274 216,-280 210,-280 210,-280 165,-280 165,-280 159,-280 153,-274 153,-268 153,-268 153,-256 153,-256 153,-250 159,-244 165,-244"/>
<text xml:space="preserve" text-anchor="middle" x="162.88" y="-256.95" font-family="Times,serif" font-size="14.00"> </text>
<polyline fill="none" stroke="lightgray" points="172.75,-244 172.75,-280"/>
<text xml:space="preserve" text-anchor="middle" x="187.5" y="-256.95" font-family="Times,serif" font-size="14.00">13</text>
<polyline fill="none" stroke="lightgray" points="202.25,-244 202.25,-280"/>
<text xml:space="preserve" text-anchor="middle" x="212.12" y="-256.95" font-family="Times,serif" font-size="14.00"> </text>
</g>
<!-- 4469875872 -->
<g id="node2" class="node">
<title>4469875872</title>
<path fill="lightgray" stroke="green" d="M98.38,-171C98.38,-171 136.62,-171 136.62,-171 142.62,-171 148.62,-177 148.62,-183 148.62,-183 148.62,-195 148.62,-195 148.62,-201 142.62,-207 136.62,-207 136.62,-207 98.38,-207 98.38,-207 92.38,-207 86.38,-201 86.38,-195 86.38,-195 86.38,-183 86.38,-183 86.38,-177 92.38,-171 98.38,-171"/>
<text xml:space="preserve" text-anchor="middle" x="96.25" y="-183.95" font-family="Times,serif" font-size="14.00"> </text>
<polyline fill="none" stroke="green" points="106.12,-171 106.12,-207"/>
<text xml:space="preserve" text-anchor="middle" x="117.5" y="-183.95" font-family="Times,serif" font-size="14.00">8</text>
<polyline fill="none" stroke="green" points="128.88,-171 128.88,-207"/>
<text xml:space="preserve" text-anchor="middle" x="138.75" y="-183.95" font-family="Times,serif" font-size="14.00"> </text>
</g>
<!-- 4469870832&#45;&gt;4469875872 -->
<g id="edge1" class="edge">
<title>4469870832:l&#45;&gt;4469875872:v</title>
<path fill="none" stroke="black" d="M162.88,-243.5C162.88,-222.58 132.92,-228.89 121.69,-218.18"/>
<polygon fill="black" stroke="black" points="124.96,-216.94 118.05,-208.91 118.45,-219.5 124.96,-216.94"/>
</g>
<!-- 4469870496 -->
<g id="node3" class="node">
<title>4469870496</title>
<path fill="lightgray" stroke="lightgray" d="M239.38,-171C239.38,-171 277.62,-171 277.62,-171 283.62,-171 289.62,-177 289.62,-183 289.62,-183 289.62,-195 289.62,-195 289.62,-201 283.62,-207 277.62,-207 277.62,-207 239.38,-207 239.38,-207 233.38,-207 227.38,-201 227.38,-195 227.38,-195 227.38,-183 227.38,-183 227.38,-177 233.38,-171 239.38,-171"/>
<text xml:space="preserve" text-anchor="middle" x="237.25" y="-183.95" font-family="Times,serif" font-size="14.00"> </text>
<polyline fill="none" stroke="lightgray" points="247.12,-171 247.12,-207"/>
<text xml:space="preserve" text-anchor="middle" x="258.5" y="-183.95" font-family="Times,serif" font-size="14.00">5</text>
<polyline fill="none" stroke="lightgray" points="269.88,-171 269.88,-207"/>
<text xml:space="preserve" text-anchor="middle" x="279.75" y="-183.95" font-family="Times,serif" font-size="14.00"> </text>
</g>
<!-- 4469870832&#45;&gt;4469870496 -->
<g id="edge2" class="edge">
<title>4469870832:r&#45;&gt;4469870496:v</title>
<path fill="none" stroke="black" d="M212.12,-243.5C212.12,-222.1 243.33,-229.14 254.55,-217.96"/>
<polygon fill="black" stroke="black" points="257.7,-219.51 257.96,-208.92 251.16,-217.03 257.7,-219.51"/>
</g>
<!-- 4469873632 -->
<g id="node4" class="node">
<title>4469873632</title>
<path fill="lightgray" stroke="green" d="M58.38,-98C58.38,-98 96.62,-98 96.62,-98 102.62,-98 108.62,-104 108.62,-110 108.62,-110 108.62,-122 108.62,-122 108.62,-128 102.62,-134 96.62,-134 96.62,-134 58.38,-134 58.38,-134 52.38,-134 46.38,-128 46.38,-122 46.38,-122 46.38,-110 46.38,-110 46.38,-104 52.38,-98 58.38,-98"/>
<text xml:space="preserve" text-anchor="middle" x="56.25" y="-110.95" font-family="Times,serif" font-size="14.00"> </text>
<polyline fill="none" stroke="green" points="66.12,-98 66.12,-134"/>
<text xml:space="preserve" text-anchor="middle" x="77.5" y="-110.95" font-family="Times,serif" font-size="14.00">2</text>
<polyline fill="none" stroke="green" points="88.88,-98 88.88,-134"/>
<text xml:space="preserve" text-anchor="middle" x="98.75" y="-110.95" font-family="Times,serif" font-size="14.00"> </text>
</g>
<!-- 4469875872&#45;&gt;4469873632 -->
<g id="edge3" class="edge">
<title>4469875872:l&#45;&gt;4469873632:v</title>
<path fill="none" stroke="black" d="M96.25,-170.5C96.25,-157.11 85.92,-153.7 80.6,-145.46"/>
<polygon fill="black" stroke="black" points="84,-144.63 77.91,-135.96 77.26,-146.53 84,-144.63"/>
</g>
<!-- 4469874752 -->
<g id="node5" class="node">
<title>4469874752</title>
<path fill="lightgray" stroke="lightgray" d="M138.38,-98C138.38,-98 176.62,-98 176.62,-98 182.62,-98 188.62,-104 188.62,-110 188.62,-110 188.62,-122 188.62,-122 188.62,-128 182.62,-134 176.62,-134 176.62,-134 138.38,-134 138.38,-134 132.38,-134 126.38,-128 126.38,-122 126.38,-122 126.38,-110 126.38,-110 126.38,-104 132.38,-98 138.38,-98"/>
<text xml:space="preserve" text-anchor="middle" x="136.25" y="-110.95" font-family="Times,serif" font-size="14.00"> </text>
<polyline fill="none" stroke="lightgray" points="146.12,-98 146.12,-134"/>
<text xml:space="preserve" text-anchor="middle" x="157.5" y="-110.95" font-family="Times,serif" font-size="14.00">7</text>
<polyline fill="none" stroke="lightgray" points="168.88,-98 168.88,-134"/>
<text xml:space="preserve" text-anchor="middle" x="178.75" y="-110.95" font-family="Times,serif" font-size="14.00"> </text>
</g>
<!-- 4469875872&#45;&gt;4469874752 -->
<g id="edge4" class="edge">
<title>4469875872:r&#45;&gt;4469874752:v</title>
<path fill="none" stroke="black" d="M138.75,-170.5C138.75,-157.11 149.08,-153.7 154.4,-145.46"/>
<polygon fill="black" stroke="black" points="157.74,-146.53 157.09,-135.96 151,-144.63 157.74,-146.53"/>
</g>
<!-- 4469874640 -->
<g id="node6" class="node">
<title>4469874640</title>
<path fill="lightgray" stroke="lightgray" d="M218.38,-98C218.38,-98 256.62,-98 256.62,-98 262.62,-98 268.62,-104 268.62,-110 268.62,-110 268.62,-122 268.62,-122 268.62,-128 262.62,-134 256.62,-134 256.62,-134 218.38,-134 218.38,-134 212.38,-134 206.38,-128 206.38,-122 206.38,-122 206.38,-110 206.38,-110 206.38,-104 212.38,-98 218.38,-98"/>
<text xml:space="preserve" text-anchor="middle" x="216.25" y="-110.95" font-family="Times,serif" font-size="14.00"> </text>
<polyline fill="none" stroke="lightgray" points="226.12,-98 226.12,-134"/>
<text xml:space="preserve" text-anchor="middle" x="237.5" y="-110.95" font-family="Times,serif" font-size="14.00">4</text>
<polyline fill="none" stroke="lightgray" points="248.88,-98 248.88,-134"/>
<text xml:space="preserve" text-anchor="middle" x="258.75" y="-110.95" font-family="Times,serif" font-size="14.00"> </text>
</g>
<!-- 4469870496&#45;&gt;4469874640 -->
<g id="edge5" class="edge">
<title>4469870496:l&#45;&gt;4469874640:v</title>
<path fill="none" stroke="black" d="M237.25,-170.5C237.25,-159.12 237.38,-153.82 237.45,-145.95"/>
<polygon fill="black" stroke="black" points="240.95,-146.03 237.49,-136.01 233.95,-146 240.95,-146.03"/>
</g>
<!-- 4469870384 -->
<g id="node7" class="node">
<title>4469870384</title>
<path fill="lightgray" stroke="lightgray" d="M299,-98C299,-98 344,-98 344,-98 350,-98 356,-104 356,-110 356,-110 356,-122 356,-122 356,-128 350,-134 344,-134 344,-134 299,-134 299,-134 293,-134 287,-128 287,-122 287,-122 287,-110 287,-110 287,-104 293,-98 299,-98"/>
<text xml:space="preserve" text-anchor="middle" x="296.88" y="-110.95" font-family="Times,serif" font-size="14.00"> </text>
<polyline fill="none" stroke="lightgray" points="306.75,-98 306.75,-134"/>
<text xml:space="preserve" text-anchor="middle" x="321.5" y="-110.95" font-family="Times,serif" font-size="14.00">17</text>
<polyline fill="none" stroke="lightgray" points="336.25,-98 336.25,-134"/>
<text xml:space="preserve" text-anchor="middle" x="346.12" y="-110.95" font-family="Times,serif" font-size="14.00"> </text>
</g>
<!-- 4469870496&#45;&gt;4469870384 -->
<g id="edge6" class="edge">
<title>4469870496:r&#45;&gt;4469870384:v</title>
<path fill="none" stroke="black" d="M279.75,-170.5C279.75,-150.78 306.78,-155.35 317.34,-145.12"/>
<polygon fill="black" stroke="black" points="320.56,-146.5 320.95,-135.91 314.05,-143.95 320.56,-146.5"/>
</g>
<!-- 4469873632&#45;&gt;4469875872 -->
<g id="edge9" class="edge">
<title>4469873632&#45;&gt;4469875872</title>
<path fill="none" stroke="green" d="M87.09,-134.03C91.65,-142.12 97.21,-151.98 102.31,-161.05"/>
<polygon fill="green" stroke="green" points="99.12,-162.5 107.07,-169.49 105.22,-159.06 99.12,-162.5"/>
</g>
<!-- 4469878112 -->
<g id="node8" class="node">
<title>4469878112</title>
<path fill="lightgray" stroke="lightgray" d="M12,-25C12,-25 57,-25 57,-25 63,-25 69,-31 69,-37 69,-37 69,-49 69,-49 69,-55 63,-61 57,-61 57,-61 12,-61 12,-61 6,-61 0,-55 0,-49 0,-49 0,-37 0,-37 0,-31 6,-25 12,-25"/>
<text xml:space="preserve" text-anchor="middle" x="9.88" y="-37.95" font-family="Times,serif" font-size="14.00"> </text>
<polyline fill="none" stroke="lightgray" points="19.75,-25 19.75,-61"/>
<text xml:space="preserve" text-anchor="middle" x="34.5" y="-37.95" font-family="Times,serif" font-size="14.00">20</text>
<polyline fill="none" stroke="lightgray" points="49.25,-25 49.25,-61"/>
<text xml:space="preserve" text-anchor="middle" x="59.12" y="-37.95" font-family="Times,serif" font-size="14.00"> </text>
</g>
<!-- 4469873632&#45;&gt;4469878112 -->
<g id="edge7" class="edge">
<title>4469873632:l&#45;&gt;4469878112:v</title>
<path fill="none" stroke="black" d="M56.25,-97.5C56.25,-83.48 44.02,-80.76 37.9,-72.38"/>
<polygon fill="black" stroke="black" points="41.27,-71.45 34.95,-62.94 34.59,-73.53 41.27,-71.45"/>
</g>
<!-- 4469877664 -->
<g id="node9" class="node">
<title>4469877664</title>
<path fill="lightgray" stroke="lightgray" d="M99,-25C99,-25 144,-25 144,-25 150,-25 156,-31 156,-37 156,-37 156,-49 156,-49 156,-55 150,-61 144,-61 144,-61 99,-61 99,-61 93,-61 87,-55 87,-49 87,-49 87,-37 87,-37 87,-31 93,-25 99,-25"/>
<text xml:space="preserve" text-anchor="middle" x="96.88" y="-37.95" font-family="Times,serif" font-size="14.00"> </text>
<polyline fill="none" stroke="lightgray" points="106.75,-25 106.75,-61"/>
<text xml:space="preserve" text-anchor="middle" x="121.5" y="-37.95" font-family="Times,serif" font-size="14.00">25</text>
<polyline fill="none" stroke="lightgray" points="136.25,-25 136.25,-61"/>
<text xml:space="preserve" text-anchor="middle" x="146.12" y="-37.95" font-family="Times,serif" font-size="14.00"> </text>
</g>
<!-- 4469873632&#45;&gt;4469877664 -->
<g id="edge8" class="edge">
<title>4469873632:r&#45;&gt;4469877664:v</title>
<path fill="none" stroke="black" d="M98.75,-97.5C98.75,-83.3 111.55,-80.8 117.95,-72.45"/>
<polygon fill="black" stroke="black" points="121.27,-73.53 121.03,-62.94 114.62,-71.37 121.27,-73.53"/>
</g>
</g>
</svg>
