<?xml version="1.0" encoding="UTF-8" standalone="no"?>
<!DOCTYPE svg PUBLIC "-//W3C//DTD SVG 1.1//EN"
 "http://www.w3.org/Graphics/SVG/1.1/DTD/svg11.dtd">
<!-- Generated by graphviz version 14.0.0 (20250921.2048)
 -->
<!-- Pages: 1 -->
<svg width="307pt" height="216pt"
 viewBox="0.00 0.00 307.00 216.00" xmlns="http://www.w3.org/2000/svg" xmlns:xlink="http://www.w3.org/1999/xlink">
<g id="graph0" class="graph" transform="scale(1 1) rotate(0) translate(4 211.5)">
<polygon fill="white" stroke="none" points="-4,4 -4,-211.5 302.75,-211.5 302.75,4 -4,4"/>
<text xml:space="preserve" text-anchor="middle" x="149.38" y="-7.2" font-family="Times,serif" font-size="14.00">MaxHeap [13, 8, 5, 2, 7, 4, 17, 20, 25], heapsize: 6</text>
<!-- 4512495808 -->
<g id="node1" class="node">
<title>4512495808</title>
<path fill="lightgray" stroke="lightgray" d="M155.88,-171C155.88,-171 200.88,-171 200.88,-171 206.88,-171 212.88,-177 212.88,-183 212.88,-183 212.88,-195 212.88,-195 212.88,-201 206.88,-207 200.88,-207 200.88,-207 155.88,-207 155.88,-207 149.88,-207 143.88,-201 143.88,-195 143.88,-195 143.88,-183 143.88,-183 143.88,-177 149.88,-171 155.88,-171"/>
<text xml:space="preserve" text-anchor="middle" x="153.75" y="-183.95" font-family="Times,serif" font-size="14.00"> </text>
<polyline fill="none" stroke="lightgray" points="163.62,-171 163.62,-207"/>
<text xml:space="preserve" text-anchor="middle" x="178.38" y="-183.95" font-family="Times,serif" font-size="14.00">13</text>
<polyline fill="none" stroke="lightgray" points="193.12,-171 193.12,-207"/>
<text xml:space="preserve" text-anchor="middle" x="203" y="-183.95" font-family="Times,serif" font-size="14.00"> </text>
</g>
<!-- 4512496816 -->
<g id="node2" class="node">
<title>4512496816</title>
<path fill="lightgray" stroke="green" d="M109.25,-98C109.25,-98 147.5,-98 147.5,-98 153.5,-98 159.5,-104 159.5,-110 159.5,-110 159.5,-122 159.5,-122 159.5,-128 153.5,-134 147.5,-134 147.5,-134 109.25,-134 109.25,-134 103.25,-134 97.25,-128 97.25,-122 97.25,-122 97.25,-110 97.25,-110 97.25,-104 103.25,-98 109.25,-98"/>
<text xml:space="preserve" text-anchor="middle" x="107.12" y="-110.95" font-family="Times,serif" font-size="14.00"> </text>
<polyline fill="none" stroke="green" points="117,-98 117,-134"/>
<text xml:space="preserve" text-anchor="middle" x="128.38" y="-110.95" font-family="Times,serif" font-size="14.00">8</text>
<polyline fill="none" stroke="green" points="139.75,-98 139.75,-134"/>
<text xml:space="preserve" text-anchor="middle" x="149.62" y="-110.95" font-family="Times,serif" font-size="14.00"> </text>
</g>
<!-- 4512495808&#45;&gt;4512496816 -->
<g id="edge1" class="edge">
<title>4512495808:l&#45;&gt;4512496816:v</title>
<path fill="none" stroke="black" d="M153.75,-170.5C153.75,-155.67 139.18,-153.88 132.12,-145.37"/>
<polygon fill="black" stroke="black" points="135.43,-144.25 128.87,-135.93 128.82,-146.53 135.43,-144.25"/>
</g>
<!-- 4534519856 -->
<g id="node3" class="node">
<title>4534519856</title>
<path fill="lightgray" stroke="lightgray" d="M210.25,-98C210.25,-98 248.5,-98 248.5,-98 254.5,-98 260.5,-104 260.5,-110 260.5,-110 260.5,-122 260.5,-122 260.5,-128 254.5,-134 248.5,-134 248.5,-134 210.25,-134 210.25,-134 204.25,-134 198.25,-128 198.25,-122 198.25,-122 198.25,-110 198.25,-110 198.25,-104 204.25,-98 210.25,-98"/>
<text xml:space="preserve" text-anchor="middle" x="208.12" y="-110.95" font-family="Times,serif" font-size="14.00"> </text>
<polyline fill="none" stroke="lightgray" points="218,-98 218,-134"/>
<text xml:space="preserve" text-anchor="middle" x="229.38" y="-110.95" font-family="Times,serif" font-size="14.00">5</text>
<polyline fill="none" stroke="lightgray" points="240.75,-98 240.75,-134"/>
<text xml:space="preserve" text-anchor="middle" x="250.62" y="-110.95" font-family="Times,serif" font-size="14.00"> </text>
</g>
<!-- 4512495808&#45;&gt;4534519856 -->
<g id="edge2" class="edge">
<title>4512495808:r&#45;&gt;4534519856:v</title>
<path fill="none" stroke="black" d="M203,-170.5C203,-155.31 218.46,-153.91 225.71,-145.18"/>
<polygon fill="black" stroke="black" points="228.95,-146.53 228.88,-135.93 222.32,-144.25 228.95,-146.53"/>
</g>
<!-- 4534521984 -->
<g id="node4" class="node">
<title>4534521984</title>
<path fill="lightgray" stroke="green" d="M50.25,-25C50.25,-25 88.5,-25 88.5,-25 94.5,-25 100.5,-31 100.5,-37 100.5,-37 100.5,-49 100.5,-49 100.5,-55 94.5,-61 88.5,-61 88.5,-61 50.25,-61 50.25,-61 44.25,-61 38.25,-55 38.25,-49 38.25,-49 38.25,-37 38.25,-37 38.25,-31 44.25,-25 50.25,-25"/>
<text xml:space="preserve" text-anchor="middle" x="48.12" y="-37.95" font-family="Times,serif" font-size="14.00"> </text>
<polyline fill="none" stroke="green" points="58,-25 58,-61"/>
<text xml:space="preserve" text-anchor="middle" x="69.38" y="-37.95" font-family="Times,serif" font-size="14.00">2</text>
<polyline fill="none" stroke="green" points="80.75,-25 80.75,-61"/>
<text xml:space="preserve" text-anchor="middle" x="90.62" y="-37.95" font-family="Times,serif" font-size="14.00"> </text>
</g>
<!-- 4512496816&#45;&gt;4534521984 -->
<g id="edge3" class="edge">
<title>4512496816:l&#45;&gt;4534521984:v</title>
<path fill="none" stroke="black" d="M107.12,-97.5C107.12,-79.03 83.15,-81.86 73.41,-72.04"/>
<polygon fill="black" stroke="black" points="76.76,-71 69.92,-62.91 70.23,-73.5 76.76,-71"/>
</g>
<!-- 4534524896 -->
<g id="node5" class="node">
<title>4534524896</title>
<path fill="lightgray" stroke="lightgray" d="M130.25,-25C130.25,-25 168.5,-25 168.5,-25 174.5,-25 180.5,-31 180.5,-37 180.5,-37 180.5,-49 180.5,-49 180.5,-55 174.5,-61 168.5,-61 168.5,-61 130.25,-61 130.25,-61 124.25,-61 118.25,-55 118.25,-49 118.25,-49 118.25,-37 118.25,-37 118.25,-31 124.25,-25 130.25,-25"/>
<text xml:space="preserve" text-anchor="middle" x="128.12" y="-37.95" font-family="Times,serif" font-size="14.00"> </text>
<polyline fill="none" stroke="lightgray" points="138,-25 138,-61"/>
<text xml:space="preserve" text-anchor="middle" x="149.38" y="-37.95" font-family="Times,serif" font-size="14.00">7</text>
<polyline fill="none" stroke="lightgray" points="160.75,-25 160.75,-61"/>
<text xml:space="preserve" text-anchor="middle" x="170.62" y="-37.95" font-family="Times,serif" font-size="14.00"> </text>
</g>
<!-- 4512496816&#45;&gt;4534524896 -->
<g id="edge4" class="edge">
<title>4512496816:r&#45;&gt;4534524896:v</title>
<path fill="none" stroke="black" d="M149.62,-97.5C149.62,-86.12 149.5,-80.82 149.43,-72.95"/>
<polygon fill="black" stroke="black" points="152.93,-73 149.38,-63.01 145.93,-73.03 152.93,-73"/>
</g>
<!-- 4534518736 -->
<g id="node6" class="node">
<title>4534518736</title>
<path fill="lightgray" stroke="lightgray" d="M210.25,-25C210.25,-25 248.5,-25 248.5,-25 254.5,-25 260.5,-31 260.5,-37 260.5,-37 260.5,-49 260.5,-49 260.5,-55 254.5,-61 248.5,-61 248.5,-61 210.25,-61 210.25,-61 204.25,-61 198.25,-55 198.25,-49 198.25,-49 198.25,-37 198.25,-37 198.25,-31 204.25,-25 210.25,-25"/>
<text xml:space="preserve" text-anchor="middle" x="208.12" y="-37.95" font-family="Times,serif" font-size="14.00"> </text>
<polyline fill="none" stroke="lightgray" points="218,-25 218,-61"/>
<text xml:space="preserve" text-anchor="middle" x="229.38" y="-37.95" font-family="Times,serif" font-size="14.00">4</text>
<polyline fill="none" stroke="lightgray" points="240.75,-25 240.75,-61"/>
<text xml:space="preserve" text-anchor="middle" x="250.62" y="-37.95" font-family="Times,serif" font-size="14.00"> </text>
</g>
<!-- 4534519856&#45;&gt;4534518736 -->
<g id="edge5" class="edge">
<title>4534519856:l&#45;&gt;4534518736:v</title>
<path fill="none" stroke="black" d="M208.12,-97.5C208.12,-83.57 220.08,-80.73 226.05,-72.35"/>
<polygon fill="black" stroke="black" points="229.35,-73.53 228.93,-62.95 222.66,-71.49 229.35,-73.53"/>
</g>
</g>
</svg>
