<?xml version="1.0" encoding="UTF-8" standalone="no"?>
<!DOCTYPE svg PUBLIC "-//W3C//DTD SVG 1.1//EN"
 "http://www.w3.org/Graphics/SVG/1.1/DTD/svg11.dtd">
<!-- Generated by graphviz version 14.0.0 (20250921.2048)
 -->
<!-- Pages: 1 -->
<svg width="371pt" height="289pt"
 viewBox="0.00 0.00 371.00 289.00" xmlns="http://www.w3.org/2000/svg" xmlns:xlink="http://www.w3.org/1999/xlink">
<g id="graph0" class="graph" transform="scale(1 1) rotate(0) translate(4 284.5)">
<polygon fill="white" stroke="none" points="-4,4 -4,-284.5 367,-284.5 367,4 -4,4"/>
<text xml:space="preserve" text-anchor="middle" x="181.5" y="-7.2" font-family="Times,serif" font-size="14.00">MaxHeap [10, 9, 6, 5, 3, 17, 19, 22, 84], heapsize: 5</text>
<!-- 4472372960 -->
<g id="node1" class="node">
<title>4472372960</title>
<path fill="lightgray" stroke="lightgray" d="M167,-244C167,-244 212,-244 212,-244 218,-244 224,-250 224,-256 224,-256 224,-268 224,-268 224,-274 218,-280 212,-280 212,-280 167,-280 167,-280 161,-280 155,-274 155,-268 155,-268 155,-256 155,-256 155,-250 161,-244 167,-244"/>
<text xml:space="preserve" text-anchor="middle" x="164.88" y="-256.95" font-family="Times,serif" font-size="14.00"> </text>
<polyline fill="none" stroke="lightgray" points="174.75,-244 174.75,-280"/>
<text xml:space="preserve" text-anchor="middle" x="189.5" y="-256.95" font-family="Times,serif" font-size="14.00">10</text>
<polyline fill="none" stroke="lightgray" points="204.25,-244 204.25,-280"/>
<text xml:space="preserve" text-anchor="middle" x="214.12" y="-256.95" font-family="Times,serif" font-size="14.00"> </text>
</g>
<!-- 4495603568 -->
<g id="node2" class="node">
<title>4495603568</title>
<path fill="lightgray" stroke="green" d="M98.38,-171C98.38,-171 136.62,-171 136.62,-171 142.62,-171 148.62,-177 148.62,-183 148.62,-183 148.62,-195 148.62,-195 148.62,-201 142.62,-207 136.62,-207 136.62,-207 98.38,-207 98.38,-207 92.38,-207 86.38,-201 86.38,-195 86.38,-195 86.38,-183 86.38,-183 86.38,-177 92.38,-171 98.38,-171"/>
<text xml:space="preserve" text-anchor="middle" x="96.25" y="-183.95" font-family="Times,serif" font-size="14.00"> </text>
<polyline fill="none" stroke="green" points="106.12,-171 106.12,-207"/>
<text xml:space="preserve" text-anchor="middle" x="117.5" y="-183.95" font-family="Times,serif" font-size="14.00">9</text>
<polyline fill="none" stroke="green" points="128.88,-171 128.88,-207"/>
<text xml:space="preserve" text-anchor="middle" x="138.75" y="-183.95" font-family="Times,serif" font-size="14.00"> </text>
</g>
<!-- 4472372960&#45;&gt;4495603568 -->
<g id="edge1" class="edge">
<title>4472372960:l&#45;&gt;4495603568:v</title>
<path fill="none" stroke="black" d="M164.88,-243.5C164.88,-221.81 133,-229.27 121.54,-218.06"/>
<polygon fill="black" stroke="black" points="124.88,-217 118.04,-208.91 118.34,-219.5 124.88,-217"/>
</g>
<!-- 4495595504 -->
<g id="node3" class="node">
<title>4495595504</title>
<path fill="lightgray" stroke="lightgray" d="M243.38,-171C243.38,-171 281.62,-171 281.62,-171 287.62,-171 293.62,-177 293.62,-183 293.62,-183 293.62,-195 293.62,-195 293.62,-201 287.62,-207 281.62,-207 281.62,-207 243.38,-207 243.38,-207 237.38,-207 231.38,-201 231.38,-195 231.38,-195 231.38,-183 231.38,-183 231.38,-177 237.38,-171 243.38,-171"/>
<text xml:space="preserve" text-anchor="middle" x="241.25" y="-183.95" font-family="Times,serif" font-size="14.00"> </text>
<polyline fill="none" stroke="lightgray" points="251.12,-171 251.12,-207"/>
<text xml:space="preserve" text-anchor="middle" x="262.5" y="-183.95" font-family="Times,serif" font-size="14.00">6</text>
<polyline fill="none" stroke="lightgray" points="273.88,-171 273.88,-207"/>
<text xml:space="preserve" text-anchor="middle" x="283.75" y="-183.95" font-family="Times,serif" font-size="14.00"> </text>
</g>
<!-- 4472372960&#45;&gt;4495595504 -->
<g id="edge2" class="edge">
<title>4472372960:r&#45;&gt;4495595504:v</title>
<path fill="none" stroke="black" d="M214.12,-243.5C214.12,-221.52 246.68,-229.41 258.38,-218.16"/>
<polygon fill="black" stroke="black" points="261.61,-219.5 261.95,-208.91 255.08,-216.98 261.61,-219.5"/>
</g>
<!-- 4495595056 -->
<g id="node4" class="node">
<title>4495595056</title>
<path fill="lightgray" stroke="green" d="M58.38,-98C58.38,-98 96.62,-98 96.62,-98 102.62,-98 108.62,-104 108.62,-110 108.62,-110 108.62,-122 108.62,-122 108.62,-128 102.62,-134 96.62,-134 96.62,-134 58.38,-134 58.38,-134 52.38,-134 46.38,-128 46.38,-122 46.38,-122 46.38,-110 46.38,-110 46.38,-104 52.38,-98 58.38,-98"/>
<text xml:space="preserve" text-anchor="middle" x="56.25" y="-110.95" font-family="Times,serif" font-size="14.00"> </text>
<polyline fill="none" stroke="green" points="66.12,-98 66.12,-134"/>
<text xml:space="preserve" text-anchor="middle" x="77.5" y="-110.95" font-family="Times,serif" font-size="14.00">5</text>
<polyline fill="none" stroke="green" points="88.88,-98 88.88,-134"/>
<text xml:space="preserve" text-anchor="middle" x="98.75" y="-110.95" font-family="Times,serif" font-size="14.00"> </text>
</g>
<!-- 4495603568&#45;&gt;4495595056 -->
<g id="edge3" class="edge">
<title>4495603568:l&#45;&gt;4495595056:v</title>
<path fill="none" stroke="black" d="M96.25,-170.5C96.25,-157.11 85.92,-153.7 80.6,-145.46"/>
<polygon fill="black" stroke="black" points="84,-144.63 77.91,-135.96 77.26,-146.53 84,-144.63"/>
</g>
<!-- 4495597968 -->
<g id="node5" class="node">
<title>4495597968</title>
<path fill="lightgray" stroke="lightgray" d="M138.38,-98C138.38,-98 176.62,-98 176.62,-98 182.62,-98 188.62,-104 188.62,-110 188.62,-110 188.62,-122 188.62,-122 188.62,-128 182.62,-134 176.62,-134 176.62,-134 138.38,-134 138.38,-134 132.38,-134 126.38,-128 126.38,-122 126.38,-122 126.38,-110 126.38,-110 126.38,-104 132.38,-98 138.38,-98"/>
<text xml:space="preserve" text-anchor="middle" x="136.25" y="-110.95" font-family="Times,serif" font-size="14.00"> </text>
<polyline fill="none" stroke="lightgray" points="146.12,-98 146.12,-134"/>
<text xml:space="preserve" text-anchor="middle" x="157.5" y="-110.95" font-family="Times,serif" font-size="14.00">3</text>
<polyline fill="none" stroke="lightgray" points="168.88,-98 168.88,-134"/>
<text xml:space="preserve" text-anchor="middle" x="178.75" y="-110.95" font-family="Times,serif" font-size="14.00"> </text>
</g>
<!-- 4495603568&#45;&gt;4495597968 -->
<g id="edge4" class="edge">
<title>4495603568:r&#45;&gt;4495597968:v</title>
<path fill="none" stroke="black" d="M138.75,-170.5C138.75,-157.11 149.08,-153.7 154.4,-145.46"/>
<polygon fill="black" stroke="black" points="157.74,-146.53 157.09,-135.96 151,-144.63 157.74,-146.53"/>
</g>
<!-- 4495603344 -->
<g id="node6" class="node">
<title>4495603344</title>
<path fill="lightgray" stroke="lightgray" d="M219,-98C219,-98 264,-98 264,-98 270,-98 276,-104 276,-110 276,-110 276,-122 276,-122 276,-128 270,-134 264,-134 264,-134 219,-134 219,-134 213,-134 207,-128 207,-122 207,-122 207,-110 207,-110 207,-104 213,-98 219,-98"/>
<text xml:space="preserve" text-anchor="middle" x="216.88" y="-110.95" font-family="Times,serif" font-size="14.00"> </text>
<polyline fill="none" stroke="lightgray" points="226.75,-98 226.75,-134"/>
<text xml:space="preserve" text-anchor="middle" x="241.5" y="-110.95" font-family="Times,serif" font-size="14.00">17</text>
<polyline fill="none" stroke="lightgray" points="256.25,-98 256.25,-134"/>
<text xml:space="preserve" text-anchor="middle" x="266.12" y="-110.95" font-family="Times,serif" font-size="14.00"> </text>
</g>
<!-- 4495595504&#45;&gt;4495603344 -->
<g id="edge5" class="edge">
<title>4495595504:l&#45;&gt;4495603344:v</title>
<path fill="none" stroke="black" d="M241.25,-170.5C241.25,-159.12 241.38,-153.82 241.45,-145.95"/>
<polygon fill="black" stroke="black" points="244.95,-146.03 241.49,-136.01 237.95,-146 244.95,-146.03"/>
</g>
<!-- 4495593152 -->
<g id="node7" class="node">
<title>4495593152</title>
<path fill="lightgray" stroke="lightgray" d="M306,-98C306,-98 351,-98 351,-98 357,-98 363,-104 363,-110 363,-110 363,-122 363,-122 363,-128 357,-134 351,-134 351,-134 306,-134 306,-134 300,-134 294,-128 294,-122 294,-122 294,-110 294,-110 294,-104 300,-98 306,-98"/>
<text xml:space="preserve" text-anchor="middle" x="303.88" y="-110.95" font-family="Times,serif" font-size="14.00"> </text>
<polyline fill="none" stroke="lightgray" points="313.75,-98 313.75,-134"/>
<text xml:space="preserve" text-anchor="middle" x="328.5" y="-110.95" font-family="Times,serif" font-size="14.00">19</text>
<polyline fill="none" stroke="lightgray" points="343.25,-98 343.25,-134"/>
<text xml:space="preserve" text-anchor="middle" x="353.12" y="-110.95" font-family="Times,serif" font-size="14.00"> </text>
</g>
<!-- 4495595504&#45;&gt;4495593152 -->
<g id="edge6" class="edge">
<title>4495595504:r&#45;&gt;4495593152:v</title>
<path fill="none" stroke="black" d="M283.75,-170.5C283.75,-149.76 313.29,-155.81 324.37,-145.11"/>
<polygon fill="black" stroke="black" points="327.59,-146.5 327.95,-135.91 321.06,-143.96 327.59,-146.5"/>
</g>
<!-- 4495595056&#45;&gt;4495603568 -->
<g id="edge9" class="edge">
<title>4495595056&#45;&gt;4495603568</title>
<path fill="none" stroke="green" d="M87.09,-134.03C91.65,-142.12 97.21,-151.98 102.31,-161.05"/>
<polygon fill="green" stroke="green" points="99.12,-162.5 107.07,-169.49 105.22,-159.06 99.12,-162.5"/>
</g>
<!-- 4495594384 -->
<g id="node8" class="node">
<title>4495594384</title>
<path fill="lightgray" stroke="lightgray" d="M12,-25C12,-25 57,-25 57,-25 63,-25 69,-31 69,-37 69,-37 69,-49 69,-49 69,-55 63,-61 57,-61 57,-61 12,-61 12,-61 6,-61 0,-55 0,-49 0,-49 0,-37 0,-37 0,-31 6,-25 12,-25"/>
<text xml:space="preserve" text-anchor="middle" x="9.88" y="-37.95" font-family="Times,serif" font-size="14.00"> </text>
<polyline fill="none" stroke="lightgray" points="19.75,-25 19.75,-61"/>
<text xml:space="preserve" text-anchor="middle" x="34.5" y="-37.95" font-family="Times,serif" font-size="14.00">22</text>
<polyline fill="none" stroke="lightgray" points="49.25,-25 49.25,-61"/>
<text xml:space="preserve" text-anchor="middle" x="59.12" y="-37.95" font-family="Times,serif" font-size="14.00"> </text>
</g>
<!-- 4495595056&#45;&gt;4495594384 -->
<g id="edge7" class="edge">
<title>4495595056:l&#45;&gt;4495594384:v</title>
<path fill="none" stroke="black" d="M56.25,-97.5C56.25,-83.48 44.02,-80.76 37.9,-72.38"/>
<polygon fill="black" stroke="black" points="41.27,-71.45 34.95,-62.94 34.59,-73.53 41.27,-71.45"/>
</g>
<!-- 4495600096 -->
<g id="node9" class="node">
<title>4495600096</title>
<path fill="lightgray" stroke="lightgray" d="M99,-25C99,-25 144,-25 144,-25 150,-25 156,-31 156,-37 156,-37 156,-49 156,-49 156,-55 150,-61 144,-61 144,-61 99,-61 99,-61 93,-61 87,-55 87,-49 87,-49 87,-37 87,-37 87,-31 93,-25 99,-25"/>
<text xml:space="preserve" text-anchor="middle" x="96.88" y="-37.95" font-family="Times,serif" font-size="14.00"> </text>
<polyline fill="none" stroke="lightgray" points="106.75,-25 106.75,-61"/>
<text xml:space="preserve" text-anchor="middle" x="121.5" y="-37.95" font-family="Times,serif" font-size="14.00">84</text>
<polyline fill="none" stroke="lightgray" points="136.25,-25 136.25,-61"/>
<text xml:space="preserve" text-anchor="middle" x="146.12" y="-37.95" font-family="Times,serif" font-size="14.00"> </text>
</g>
<!-- 4495595056&#45;&gt;4495600096 -->
<g id="edge8" class="edge">
<title>4495595056:r&#45;&gt;4495600096:v</title>
<path fill="none" stroke="black" d="M98.75,-97.5C98.75,-83.3 111.55,-80.8 117.95,-72.45"/>
<polygon fill="black" stroke="black" points="121.27,-73.53 121.03,-62.94 114.62,-71.37 121.27,-73.53"/>
</g>
</g>
</svg>
