<?xml version="1.0" encoding="UTF-8" standalone="no"?>
<!DOCTYPE svg PUBLIC "-//W3C//DTD SVG 1.1//EN"
 "http://www.w3.org/Graphics/SVG/1.1/DTD/svg11.dtd">
<!-- Generated by graphviz version 14.0.0 (20250921.2048)
 -->
<!-- Pages: 1 -->
<svg width="314pt" height="216pt"
 viewBox="0.00 0.00 314.00 216.00" xmlns="http://www.w3.org/2000/svg" xmlns:xlink="http://www.w3.org/1999/xlink">
<g id="graph0" class="graph" transform="scale(1 1) rotate(0) translate(4 211.5)">
<polygon fill="white" stroke="none" points="-4,4 -4,-211.5 309.5,-211.5 309.5,4 -4,4"/>
<text xml:space="preserve" text-anchor="middle" x="152.75" y="-7.2" font-family="Times,serif" font-size="14.00">MaxHeap [10, 9, 6, 5, 3, 17, 19, 22, 84], heapsize: 5</text>
<!-- 4534525344 -->
<g id="node1" class="node">
<title>4534525344</title>
<path fill="lightgray" stroke="lightgray" d="M150.25,-171C150.25,-171 195.25,-171 195.25,-171 201.25,-171 207.25,-177 207.25,-183 207.25,-183 207.25,-195 207.25,-195 207.25,-201 201.25,-207 195.25,-207 195.25,-207 150.25,-207 150.25,-207 144.25,-207 138.25,-201 138.25,-195 138.25,-195 138.25,-183 138.25,-183 138.25,-177 144.25,-171 150.25,-171"/>
<text xml:space="preserve" text-anchor="middle" x="148.12" y="-183.95" font-family="Times,serif" font-size="14.00"> </text>
<polyline fill="none" stroke="lightgray" points="158,-171 158,-207"/>
<text xml:space="preserve" text-anchor="middle" x="172.75" y="-183.95" font-family="Times,serif" font-size="14.00">10</text>
<polyline fill="none" stroke="lightgray" points="187.5,-171 187.5,-207"/>
<text xml:space="preserve" text-anchor="middle" x="197.38" y="-183.95" font-family="Times,serif" font-size="14.00"> </text>
</g>
<!-- 4534521648 -->
<g id="node2" class="node">
<title>4534521648</title>
<path fill="lightgray" stroke="green" d="M113.62,-98C113.62,-98 151.88,-98 151.88,-98 157.88,-98 163.88,-104 163.88,-110 163.88,-110 163.88,-122 163.88,-122 163.88,-128 157.88,-134 151.88,-134 151.88,-134 113.62,-134 113.62,-134 107.62,-134 101.62,-128 101.62,-122 101.62,-122 101.62,-110 101.62,-110 101.62,-104 107.62,-98 113.62,-98"/>
<text xml:space="preserve" text-anchor="middle" x="111.5" y="-110.95" font-family="Times,serif" font-size="14.00"> </text>
<polyline fill="none" stroke="green" points="121.38,-98 121.38,-134"/>
<text xml:space="preserve" text-anchor="middle" x="132.75" y="-110.95" font-family="Times,serif" font-size="14.00">9</text>
<polyline fill="none" stroke="green" points="144.12,-98 144.12,-134"/>
<text xml:space="preserve" text-anchor="middle" x="154" y="-110.95" font-family="Times,serif" font-size="14.00"> </text>
</g>
<!-- 4534525344&#45;&gt;4534521648 -->
<g id="edge1" class="edge">
<title>4534525344:l&#45;&gt;4534521648:v</title>
<path fill="none" stroke="black" d="M148.12,-170.5C148.12,-157.72 139.83,-153.68 135.43,-145.54"/>
<polygon fill="black" stroke="black" points="138.86,-144.86 133.11,-135.97 132.06,-146.51 138.86,-144.86"/>
</g>
<!-- 4534528144 -->
<g id="node3" class="node">
<title>4534528144</title>
<path fill="lightgray" stroke="lightgray" d="M193.62,-98C193.62,-98 231.88,-98 231.88,-98 237.88,-98 243.88,-104 243.88,-110 243.88,-110 243.88,-122 243.88,-122 243.88,-128 237.88,-134 231.88,-134 231.88,-134 193.62,-134 193.62,-134 187.62,-134 181.62,-128 181.62,-122 181.62,-122 181.62,-110 181.62,-110 181.62,-104 187.62,-98 193.62,-98"/>
<text xml:space="preserve" text-anchor="middle" x="191.5" y="-110.95" font-family="Times,serif" font-size="14.00"> </text>
<polyline fill="none" stroke="lightgray" points="201.38,-98 201.38,-134"/>
<text xml:space="preserve" text-anchor="middle" x="212.75" y="-110.95" font-family="Times,serif" font-size="14.00">6</text>
<polyline fill="none" stroke="lightgray" points="224.12,-98 224.12,-134"/>
<text xml:space="preserve" text-anchor="middle" x="234" y="-110.95" font-family="Times,serif" font-size="14.00"> </text>
</g>
<!-- 4534525344&#45;&gt;4534528144 -->
<g id="edge2" class="edge">
<title>4534525344:r&#45;&gt;4534528144:v</title>
<path fill="none" stroke="black" d="M197.38,-170.5C197.38,-157.72 205.67,-153.68 210.07,-145.54"/>
<polygon fill="black" stroke="black" points="213.44,-146.51 212.39,-135.97 206.64,-144.86 213.44,-146.51"/>
</g>
<!-- 4534524896 -->
<g id="node4" class="node">
<title>4534524896</title>
<path fill="lightgray" stroke="green" d="M73.62,-25C73.62,-25 111.88,-25 111.88,-25 117.88,-25 123.88,-31 123.88,-37 123.88,-37 123.88,-49 123.88,-49 123.88,-55 117.88,-61 111.88,-61 111.88,-61 73.62,-61 73.62,-61 67.62,-61 61.62,-55 61.62,-49 61.62,-49 61.62,-37 61.62,-37 61.62,-31 67.62,-25 73.62,-25"/>
<text xml:space="preserve" text-anchor="middle" x="71.5" y="-37.95" font-family="Times,serif" font-size="14.00"> </text>
<polyline fill="none" stroke="green" points="81.38,-25 81.38,-61"/>
<text xml:space="preserve" text-anchor="middle" x="92.75" y="-37.95" font-family="Times,serif" font-size="14.00">5</text>
<polyline fill="none" stroke="green" points="104.12,-25 104.12,-61"/>
<text xml:space="preserve" text-anchor="middle" x="114" y="-37.95" font-family="Times,serif" font-size="14.00"> </text>
</g>
<!-- 4534521648&#45;&gt;4534524896 -->
<g id="edge3" class="edge">
<title>4534521648:l&#45;&gt;4534524896:v</title>
<path fill="none" stroke="black" d="M111.5,-97.5C111.5,-84.11 101.17,-80.7 95.85,-72.46"/>
<polygon fill="black" stroke="black" points="99.25,-71.63 93.16,-62.96 92.51,-73.53 99.25,-71.63"/>
</g>
<!-- 4534522432 -->
<g id="node5" class="node">
<title>4534522432</title>
<path fill="lightgray" stroke="lightgray" d="M153.62,-25C153.62,-25 191.88,-25 191.88,-25 197.88,-25 203.88,-31 203.88,-37 203.88,-37 203.88,-49 203.88,-49 203.88,-55 197.88,-61 191.88,-61 191.88,-61 153.62,-61 153.62,-61 147.62,-61 141.62,-55 141.62,-49 141.62,-49 141.62,-37 141.62,-37 141.62,-31 147.62,-25 153.62,-25"/>
<text xml:space="preserve" text-anchor="middle" x="151.5" y="-37.95" font-family="Times,serif" font-size="14.00"> </text>
<polyline fill="none" stroke="lightgray" points="161.38,-25 161.38,-61"/>
<text xml:space="preserve" text-anchor="middle" x="172.75" y="-37.95" font-family="Times,serif" font-size="14.00">3</text>
<polyline fill="none" stroke="lightgray" points="184.12,-25 184.12,-61"/>
<text xml:space="preserve" text-anchor="middle" x="194" y="-37.95" font-family="Times,serif" font-size="14.00"> </text>
</g>
<!-- 4534521648&#45;&gt;4534522432 -->
<g id="edge4" class="edge">
<title>4534521648:r&#45;&gt;4534522432:v</title>
<path fill="none" stroke="black" d="M154,-97.5C154,-84.11 164.33,-80.7 169.65,-72.46"/>
<polygon fill="black" stroke="black" points="172.99,-73.53 172.34,-62.96 166.25,-71.63 172.99,-73.53"/>
</g>
</g>
</svg>
