<?xml version="1.0" encoding="UTF-8" standalone="no"?>
<!DOCTYPE svg PUBLIC "-//W3C//DTD SVG 1.1//EN"
 "http://www.w3.org/Graphics/SVG/1.1/DTD/svg11.dtd">
<!-- Generated by graphviz version 14.0.0 (20250921.2048)
 -->
<!-- Pages: 1 -->
<svg width="339pt" height="289pt"
 viewBox="0.00 0.00 339.00 289.00" xmlns="http://www.w3.org/2000/svg" xmlns:xlink="http://www.w3.org/1999/xlink">
<g id="graph0" class="graph" transform="scale(1 1) rotate(0) translate(4 284.5)">
<polygon fill="white" stroke="none" points="-4,4 -4,-284.5 335.25,-284.5 335.25,4 -4,4"/>
<text xml:space="preserve" text-anchor="middle" x="165.62" y="-7.2" font-family="Times,serif" font-size="14.00">MaxHeap [25, 13, 20, 8, 7, 17, 2, 5, 4], heapsize: 9</text>
<!-- 4469874528 -->
<g id="node1" class="node">
<title>4469874528</title>
<path fill="lightgray" stroke="lightgray" d="M151.62,-244C151.62,-244 196.62,-244 196.62,-244 202.62,-244 208.62,-250 208.62,-256 208.62,-256 208.62,-268 208.62,-268 208.62,-274 202.62,-280 196.62,-280 196.62,-280 151.62,-280 151.62,-280 145.62,-280 139.62,-274 139.62,-268 139.62,-268 139.62,-256 139.62,-256 139.62,-250 145.62,-244 151.62,-244"/>
<text xml:space="preserve" text-anchor="middle" x="149.5" y="-256.95" font-family="Times,serif" font-size="14.00"> </text>
<polyline fill="none" stroke="lightgray" points="159.38,-244 159.38,-280"/>
<text xml:space="preserve" text-anchor="middle" x="174.12" y="-256.95" font-family="Times,serif" font-size="14.00">25</text>
<polyline fill="none" stroke="lightgray" points="188.88,-244 188.88,-280"/>
<text xml:space="preserve" text-anchor="middle" x="198.75" y="-256.95" font-family="Times,serif" font-size="14.00"> </text>
</g>
<!-- 4469873856 -->
<g id="node2" class="node">
<title>4469873856</title>
<path fill="lightgray" stroke="lightgray" d="M85.62,-171C85.62,-171 130.62,-171 130.62,-171 136.62,-171 142.62,-177 142.62,-183 142.62,-183 142.62,-195 142.62,-195 142.62,-201 136.62,-207 130.62,-207 130.62,-207 85.62,-207 85.62,-207 79.62,-207 73.62,-201 73.62,-195 73.62,-195 73.62,-183 73.62,-183 73.62,-177 79.62,-171 85.62,-171"/>
<text xml:space="preserve" text-anchor="middle" x="83.5" y="-183.95" font-family="Times,serif" font-size="14.00"> </text>
<polyline fill="none" stroke="lightgray" points="93.38,-171 93.38,-207"/>
<text xml:space="preserve" text-anchor="middle" x="108.12" y="-183.95" font-family="Times,serif" font-size="14.00">13</text>
<polyline fill="none" stroke="lightgray" points="122.88,-171 122.88,-207"/>
<text xml:space="preserve" text-anchor="middle" x="132.75" y="-183.95" font-family="Times,serif" font-size="14.00"> </text>
</g>
<!-- 4469874528&#45;&gt;4469873856 -->
<g id="edge1" class="edge">
<title>4469874528:l&#45;&gt;4469873856:v</title>
<path fill="none" stroke="black" d="M149.5,-243.5C149.5,-223.89 122.71,-228.31 112.24,-218.09"/>
<polygon fill="black" stroke="black" points="115.56,-216.96 108.67,-208.91 109.04,-219.5 115.56,-216.96"/>
</g>
<!-- 4469875200 -->
<g id="node3" class="node">
<title>4469875200</title>
<path fill="lightgray" stroke="lightgray" d="M217.62,-171C217.62,-171 262.62,-171 262.62,-171 268.62,-171 274.62,-177 274.62,-183 274.62,-183 274.62,-195 274.62,-195 274.62,-201 268.62,-207 262.62,-207 262.62,-207 217.62,-207 217.62,-207 211.62,-207 205.62,-201 205.62,-195 205.62,-195 205.62,-183 205.62,-183 205.62,-177 211.62,-171 217.62,-171"/>
<text xml:space="preserve" text-anchor="middle" x="215.5" y="-183.95" font-family="Times,serif" font-size="14.00"> </text>
<polyline fill="none" stroke="lightgray" points="225.38,-171 225.38,-207"/>
<text xml:space="preserve" text-anchor="middle" x="240.12" y="-183.95" font-family="Times,serif" font-size="14.00">20</text>
<polyline fill="none" stroke="lightgray" points="254.88,-171 254.88,-207"/>
<text xml:space="preserve" text-anchor="middle" x="264.75" y="-183.95" font-family="Times,serif" font-size="14.00"> </text>
</g>
<!-- 4469874528&#45;&gt;4469875200 -->
<g id="edge2" class="edge">
<title>4469874528:r&#45;&gt;4469875200:v</title>
<path fill="none" stroke="black" d="M198.75,-243.5C198.75,-223.89 225.54,-228.31 236.01,-218.09"/>
<polygon fill="black" stroke="black" points="239.21,-219.5 239.58,-208.91 232.69,-216.96 239.21,-219.5"/>
</g>
<!-- 4469869824 -->
<g id="node4" class="node">
<title>4469869824</title>
<path fill="lightgray" stroke="green" d="M33,-98C33,-98 71.25,-98 71.25,-98 77.25,-98 83.25,-104 83.25,-110 83.25,-110 83.25,-122 83.25,-122 83.25,-128 77.25,-134 71.25,-134 71.25,-134 33,-134 33,-134 27,-134 21,-128 21,-122 21,-122 21,-110 21,-110 21,-104 27,-98 33,-98"/>
<text xml:space="preserve" text-anchor="middle" x="30.88" y="-110.95" font-family="Times,serif" font-size="14.00"> </text>
<polyline fill="none" stroke="green" points="40.75,-98 40.75,-134"/>
<text xml:space="preserve" text-anchor="middle" x="52.12" y="-110.95" font-family="Times,serif" font-size="14.00">8</text>
<polyline fill="none" stroke="green" points="63.5,-98 63.5,-134"/>
<text xml:space="preserve" text-anchor="middle" x="73.38" y="-110.95" font-family="Times,serif" font-size="14.00"> </text>
</g>
<!-- 4469873856&#45;&gt;4469869824 -->
<g id="edge3" class="edge">
<title>4469873856:l&#45;&gt;4469869824:v</title>
<path fill="none" stroke="black" d="M83.5,-170.5C83.5,-153.92 64.35,-154.23 55.97,-145.04"/>
<polygon fill="black" stroke="black" points="59.36,-144.11 52.64,-135.92 52.79,-146.52 59.36,-144.11"/>
</g>
<!-- 4469873072 -->
<g id="node5" class="node">
<title>4469873072</title>
<path fill="lightgray" stroke="lightgray" d="M113,-98C113,-98 151.25,-98 151.25,-98 157.25,-98 163.25,-104 163.25,-110 163.25,-110 163.25,-122 163.25,-122 163.25,-128 157.25,-134 151.25,-134 151.25,-134 113,-134 113,-134 107,-134 101,-128 101,-122 101,-122 101,-110 101,-110 101,-104 107,-98 113,-98"/>
<text xml:space="preserve" text-anchor="middle" x="110.88" y="-110.95" font-family="Times,serif" font-size="14.00"> </text>
<polyline fill="none" stroke="lightgray" points="120.75,-98 120.75,-134"/>
<text xml:space="preserve" text-anchor="middle" x="132.12" y="-110.95" font-family="Times,serif" font-size="14.00">7</text>
<polyline fill="none" stroke="lightgray" points="143.5,-98 143.5,-134"/>
<text xml:space="preserve" text-anchor="middle" x="153.38" y="-110.95" font-family="Times,serif" font-size="14.00"> </text>
</g>
<!-- 4469873856&#45;&gt;4469873072 -->
<g id="edge4" class="edge">
<title>4469873856:r&#45;&gt;4469873072:v</title>
<path fill="none" stroke="black" d="M132.75,-170.5C132.75,-159.12 132.43,-153.82 132.25,-145.95"/>
<polygon fill="black" stroke="black" points="135.75,-145.97 132.14,-136.01 128.75,-146.05 135.75,-145.97"/>
</g>
<!-- 4469870272 -->
<g id="node6" class="node">
<title>4469870272</title>
<path fill="lightgray" stroke="lightgray" d="M193.62,-98C193.62,-98 238.62,-98 238.62,-98 244.62,-98 250.62,-104 250.62,-110 250.62,-110 250.62,-122 250.62,-122 250.62,-128 244.62,-134 238.62,-134 238.62,-134 193.62,-134 193.62,-134 187.62,-134 181.62,-128 181.62,-122 181.62,-122 181.62,-110 181.62,-110 181.62,-104 187.62,-98 193.62,-98"/>
<text xml:space="preserve" text-anchor="middle" x="191.5" y="-110.95" font-family="Times,serif" font-size="14.00"> </text>
<polyline fill="none" stroke="lightgray" points="201.38,-98 201.38,-134"/>
<text xml:space="preserve" text-anchor="middle" x="216.12" y="-110.95" font-family="Times,serif" font-size="14.00">17</text>
<polyline fill="none" stroke="lightgray" points="230.88,-98 230.88,-134"/>
<text xml:space="preserve" text-anchor="middle" x="240.75" y="-110.95" font-family="Times,serif" font-size="14.00"> </text>
</g>
<!-- 4469875200&#45;&gt;4469870272 -->
<g id="edge5" class="edge">
<title>4469875200:l&#45;&gt;4469870272:v</title>
<path fill="none" stroke="black" d="M215.5,-170.5C215.5,-159.12 215.82,-153.82 216,-145.95"/>
<polygon fill="black" stroke="black" points="219.5,-146.05 216.11,-136.01 212.5,-145.97 219.5,-146.05"/>
</g>
<!-- 4469877104 -->
<g id="node7" class="node">
<title>4469877104</title>
<path fill="lightgray" stroke="lightgray" d="M281,-98C281,-98 319.25,-98 319.25,-98 325.25,-98 331.25,-104 331.25,-110 331.25,-110 331.25,-122 331.25,-122 331.25,-128 325.25,-134 319.25,-134 319.25,-134 281,-134 281,-134 275,-134 269,-128 269,-122 269,-122 269,-110 269,-110 269,-104 275,-98 281,-98"/>
<text xml:space="preserve" text-anchor="middle" x="278.88" y="-110.95" font-family="Times,serif" font-size="14.00"> </text>
<polyline fill="none" stroke="lightgray" points="288.75,-98 288.75,-134"/>
<text xml:space="preserve" text-anchor="middle" x="300.12" y="-110.95" font-family="Times,serif" font-size="14.00">2</text>
<polyline fill="none" stroke="lightgray" points="311.5,-98 311.5,-134"/>
<text xml:space="preserve" text-anchor="middle" x="321.38" y="-110.95" font-family="Times,serif" font-size="14.00"> </text>
</g>
<!-- 4469875200&#45;&gt;4469877104 -->
<g id="edge6" class="edge">
<title>4469875200:r&#45;&gt;4469877104:v</title>
<path fill="none" stroke="black" d="M264.75,-170.5C264.75,-152.8 286.78,-154.58 296.07,-145.11"/>
<polygon fill="black" stroke="black" points="299.28,-146.5 299.58,-135.91 292.74,-144 299.28,-146.5"/>
</g>
<!-- 4469877776 -->
<g id="node8" class="node">
<title>4469877776</title>
<path fill="lightgray" stroke="green" d="M12,-25C12,-25 50.25,-25 50.25,-25 56.25,-25 62.25,-31 62.25,-37 62.25,-37 62.25,-49 62.25,-49 62.25,-55 56.25,-61 50.25,-61 50.25,-61 12,-61 12,-61 6,-61 0,-55 0,-49 0,-49 0,-37 0,-37 0,-31 6,-25 12,-25"/>
<text xml:space="preserve" text-anchor="middle" x="9.88" y="-37.95" font-family="Times,serif" font-size="14.00"> </text>
<polyline fill="none" stroke="green" points="19.75,-25 19.75,-61"/>
<text xml:space="preserve" text-anchor="middle" x="31.12" y="-37.95" font-family="Times,serif" font-size="14.00">5</text>
<polyline fill="none" stroke="green" points="42.5,-25 42.5,-61"/>
<text xml:space="preserve" text-anchor="middle" x="52.38" y="-37.95" font-family="Times,serif" font-size="14.00"> </text>
</g>
<!-- 4469869824&#45;&gt;4469877776 -->
<g id="edge7" class="edge">
<title>4469869824:l&#45;&gt;4469877776:v</title>
<path fill="none" stroke="black" d="M30.88,-97.5C30.88,-86.12 31,-80.82 31.07,-72.95"/>
<polygon fill="black" stroke="black" points="34.57,-73.03 31.12,-63.01 27.57,-73 34.57,-73.03"/>
</g>
<!-- 4469876208 -->
<g id="node9" class="node">
<title>4469876208</title>
<path fill="lightgray" stroke="lightgray" d="M92,-25C92,-25 130.25,-25 130.25,-25 136.25,-25 142.25,-31 142.25,-37 142.25,-37 142.25,-49 142.25,-49 142.25,-55 136.25,-61 130.25,-61 130.25,-61 92,-61 92,-61 86,-61 80,-55 80,-49 80,-49 80,-37 80,-37 80,-31 86,-25 92,-25"/>
<text xml:space="preserve" text-anchor="middle" x="89.88" y="-37.95" font-family="Times,serif" font-size="14.00"> </text>
<polyline fill="none" stroke="lightgray" points="99.75,-25 99.75,-61"/>
<text xml:space="preserve" text-anchor="middle" x="111.12" y="-37.95" font-family="Times,serif" font-size="14.00">4</text>
<polyline fill="none" stroke="lightgray" points="122.5,-25 122.5,-61"/>
<text xml:space="preserve" text-anchor="middle" x="132.38" y="-37.95" font-family="Times,serif" font-size="14.00"> </text>
</g>
<!-- 4469869824&#45;&gt;4469876208 -->
<g id="edge8" class="edge">
<title>4469869824:r&#45;&gt;4469876208:v</title>
<path fill="none" stroke="black" d="M73.38,-97.5C73.38,-79.03 97.35,-81.86 107.09,-72.04"/>
<polygon fill="black" stroke="black" points="110.27,-73.5 110.58,-62.91 103.74,-71 110.27,-73.5"/>
</g>
<!-- 4469877776&#45;&gt;4469869824 -->
<g id="edge9" class="edge">
<title>4469877776&#45;&gt;4469869824</title>
<path fill="none" stroke="green" d="M36.16,-61.03C38.45,-68.77 41.22,-78.13 43.81,-86.87"/>
<polygon fill="green" stroke="green" points="40.42,-87.76 46.61,-96.36 47.13,-85.78 40.42,-87.76"/>
</g>
</g>
</svg>
