<?xml version="1.0" encoding="UTF-8" standalone="no"?>
<!DOCTYPE svg PUBLIC "-//W3C//DTD SVG 1.1//EN"
 "http://www.w3.org/Graphics/SVG/1.1/DTD/svg11.dtd">
<!-- Generated by graphviz version 14.0.0 (20250921.2048)
 -->
<!-- Pages: 1 -->
<svg width="358pt" height="289pt"
 viewBox="0.00 0.00 358.00 289.00" xmlns="http://www.w3.org/2000/svg" xmlns:xlink="http://www.w3.org/1999/xlink">
<g id="graph0" class="graph" transform="scale(1 1) rotate(0) translate(4 284.5)">
<polygon fill="white" stroke="none" points="-4,4 -4,-284.5 354.25,-284.5 354.25,4 -4,4"/>
<text xml:space="preserve" text-anchor="middle" x="175.12" y="-7.2" font-family="Times,serif" font-size="14.00">MaxHeap [25, 13, 20, 8, 7, 17, 2, 5, 4], heapsize: 9</text>
<!-- 4534529040 -->
<g id="node1" class="node">
<title>4534529040</title>
<path fill="lightgray" stroke="lightgray" d="M170.62,-244C170.62,-244 215.62,-244 215.62,-244 221.62,-244 227.62,-250 227.62,-256 227.62,-256 227.62,-268 227.62,-268 227.62,-274 221.62,-280 215.62,-280 215.62,-280 170.62,-280 170.62,-280 164.62,-280 158.62,-274 158.62,-268 158.62,-268 158.62,-256 158.62,-256 158.62,-250 164.62,-244 170.62,-244"/>
<text xml:space="preserve" text-anchor="middle" x="168.5" y="-256.95" font-family="Times,serif" font-size="14.00"> </text>
<polyline fill="none" stroke="lightgray" points="178.38,-244 178.38,-280"/>
<text xml:space="preserve" text-anchor="middle" x="193.12" y="-256.95" font-family="Times,serif" font-size="14.00">25</text>
<polyline fill="none" stroke="lightgray" points="207.88,-244 207.88,-280"/>
<text xml:space="preserve" text-anchor="middle" x="217.75" y="-256.95" font-family="Times,serif" font-size="14.00"> </text>
</g>
<!-- 4534521872 -->
<g id="node2" class="node">
<title>4534521872</title>
<path fill="lightgray" stroke="lightgray" d="M104.62,-171C104.62,-171 149.62,-171 149.62,-171 155.62,-171 161.62,-177 161.62,-183 161.62,-183 161.62,-195 161.62,-195 161.62,-201 155.62,-207 149.62,-207 149.62,-207 104.62,-207 104.62,-207 98.62,-207 92.62,-201 92.62,-195 92.62,-195 92.62,-183 92.62,-183 92.62,-177 98.62,-171 104.62,-171"/>
<text xml:space="preserve" text-anchor="middle" x="102.5" y="-183.95" font-family="Times,serif" font-size="14.00"> </text>
<polyline fill="none" stroke="lightgray" points="112.38,-171 112.38,-207"/>
<text xml:space="preserve" text-anchor="middle" x="127.12" y="-183.95" font-family="Times,serif" font-size="14.00">13</text>
<polyline fill="none" stroke="lightgray" points="141.88,-171 141.88,-207"/>
<text xml:space="preserve" text-anchor="middle" x="151.75" y="-183.95" font-family="Times,serif" font-size="14.00"> </text>
</g>
<!-- 4534529040&#45;&gt;4534521872 -->
<g id="edge1" class="edge">
<title>4534529040:l&#45;&gt;4534521872:v</title>
<path fill="none" stroke="black" d="M168.5,-243.5C168.5,-223.89 141.71,-228.31 131.24,-218.09"/>
<polygon fill="black" stroke="black" points="134.56,-216.96 127.67,-208.91 128.04,-219.5 134.56,-216.96"/>
</g>
<!-- 4534525568 -->
<g id="node3" class="node">
<title>4534525568</title>
<path fill="lightgray" stroke="lightgray" d="M236.62,-171C236.62,-171 281.62,-171 281.62,-171 287.62,-171 293.62,-177 293.62,-183 293.62,-183 293.62,-195 293.62,-195 293.62,-201 287.62,-207 281.62,-207 281.62,-207 236.62,-207 236.62,-207 230.62,-207 224.62,-201 224.62,-195 224.62,-195 224.62,-183 224.62,-183 224.62,-177 230.62,-171 236.62,-171"/>
<text xml:space="preserve" text-anchor="middle" x="234.5" y="-183.95" font-family="Times,serif" font-size="14.00"> </text>
<polyline fill="none" stroke="lightgray" points="244.38,-171 244.38,-207"/>
<text xml:space="preserve" text-anchor="middle" x="259.12" y="-183.95" font-family="Times,serif" font-size="14.00">20</text>
<polyline fill="none" stroke="lightgray" points="273.88,-171 273.88,-207"/>
<text xml:space="preserve" text-anchor="middle" x="283.75" y="-183.95" font-family="Times,serif" font-size="14.00"> </text>
</g>
<!-- 4534529040&#45;&gt;4534525568 -->
<g id="edge2" class="edge">
<title>4534529040:r&#45;&gt;4534525568:v</title>
<path fill="none" stroke="black" d="M217.75,-243.5C217.75,-223.89 244.54,-228.31 255.01,-218.09"/>
<polygon fill="black" stroke="black" points="258.21,-219.5 258.58,-208.91 251.69,-216.96 258.21,-219.5"/>
</g>
<!-- 4534527584 -->
<g id="node4" class="node">
<title>4534527584</title>
<path fill="lightgray" stroke="green" d="M52,-98C52,-98 90.25,-98 90.25,-98 96.25,-98 102.25,-104 102.25,-110 102.25,-110 102.25,-122 102.25,-122 102.25,-128 96.25,-134 90.25,-134 90.25,-134 52,-134 52,-134 46,-134 40,-128 40,-122 40,-122 40,-110 40,-110 40,-104 46,-98 52,-98"/>
<text xml:space="preserve" text-anchor="middle" x="49.88" y="-110.95" font-family="Times,serif" font-size="14.00"> </text>
<polyline fill="none" stroke="green" points="59.75,-98 59.75,-134"/>
<text xml:space="preserve" text-anchor="middle" x="71.12" y="-110.95" font-family="Times,serif" font-size="14.00">8</text>
<polyline fill="none" stroke="green" points="82.5,-98 82.5,-134"/>
<text xml:space="preserve" text-anchor="middle" x="92.38" y="-110.95" font-family="Times,serif" font-size="14.00"> </text>
</g>
<!-- 4534521872&#45;&gt;4534527584 -->
<g id="edge3" class="edge">
<title>4534521872:l&#45;&gt;4534527584:v</title>
<path fill="none" stroke="black" d="M102.5,-170.5C102.5,-153.92 83.35,-154.23 74.97,-145.04"/>
<polygon fill="black" stroke="black" points="78.36,-144.11 71.64,-135.92 71.79,-146.52 78.36,-144.11"/>
</g>
<!-- 4534518512 -->
<g id="node5" class="node">
<title>4534518512</title>
<path fill="lightgray" stroke="lightgray" d="M132,-98C132,-98 170.25,-98 170.25,-98 176.25,-98 182.25,-104 182.25,-110 182.25,-110 182.25,-122 182.25,-122 182.25,-128 176.25,-134 170.25,-134 170.25,-134 132,-134 132,-134 126,-134 120,-128 120,-122 120,-122 120,-110 120,-110 120,-104 126,-98 132,-98"/>
<text xml:space="preserve" text-anchor="middle" x="129.88" y="-110.95" font-family="Times,serif" font-size="14.00"> </text>
<polyline fill="none" stroke="lightgray" points="139.75,-98 139.75,-134"/>
<text xml:space="preserve" text-anchor="middle" x="151.12" y="-110.95" font-family="Times,serif" font-size="14.00">7</text>
<polyline fill="none" stroke="lightgray" points="162.5,-98 162.5,-134"/>
<text xml:space="preserve" text-anchor="middle" x="172.38" y="-110.95" font-family="Times,serif" font-size="14.00"> </text>
</g>
<!-- 4534521872&#45;&gt;4534518512 -->
<g id="edge4" class="edge">
<title>4534521872:r&#45;&gt;4534518512:v</title>
<path fill="none" stroke="black" d="M151.75,-170.5C151.75,-159.12 151.43,-153.82 151.25,-145.95"/>
<polygon fill="black" stroke="black" points="154.75,-145.97 151.14,-136.01 147.75,-146.05 154.75,-145.97"/>
</g>
<!-- 4534526912 -->
<g id="node6" class="node">
<title>4534526912</title>
<path fill="lightgray" stroke="lightgray" d="M212.62,-98C212.62,-98 257.62,-98 257.62,-98 263.62,-98 269.62,-104 269.62,-110 269.62,-110 269.62,-122 269.62,-122 269.62,-128 263.62,-134 257.62,-134 257.62,-134 212.62,-134 212.62,-134 206.62,-134 200.62,-128 200.62,-122 200.62,-122 200.62,-110 200.62,-110 200.62,-104 206.62,-98 212.62,-98"/>
<text xml:space="preserve" text-anchor="middle" x="210.5" y="-110.95" font-family="Times,serif" font-size="14.00"> </text>
<polyline fill="none" stroke="lightgray" points="220.38,-98 220.38,-134"/>
<text xml:space="preserve" text-anchor="middle" x="235.12" y="-110.95" font-family="Times,serif" font-size="14.00">17</text>
<polyline fill="none" stroke="lightgray" points="249.88,-98 249.88,-134"/>
<text xml:space="preserve" text-anchor="middle" x="259.75" y="-110.95" font-family="Times,serif" font-size="14.00"> </text>
</g>
<!-- 4534525568&#45;&gt;4534526912 -->
<g id="edge5" class="edge">
<title>4534525568:l&#45;&gt;4534526912:v</title>
<path fill="none" stroke="black" d="M234.5,-170.5C234.5,-159.12 234.82,-153.82 235,-145.95"/>
<polygon fill="black" stroke="black" points="238.5,-146.05 235.11,-136.01 231.5,-145.97 238.5,-146.05"/>
</g>
<!-- 4534528592 -->
<g id="node7" class="node">
<title>4534528592</title>
<path fill="lightgray" stroke="lightgray" d="M300,-98C300,-98 338.25,-98 338.25,-98 344.25,-98 350.25,-104 350.25,-110 350.25,-110 350.25,-122 350.25,-122 350.25,-128 344.25,-134 338.25,-134 338.25,-134 300,-134 300,-134 294,-134 288,-128 288,-122 288,-122 288,-110 288,-110 288,-104 294,-98 300,-98"/>
<text xml:space="preserve" text-anchor="middle" x="297.88" y="-110.95" font-family="Times,serif" font-size="14.00"> </text>
<polyline fill="none" stroke="lightgray" points="307.75,-98 307.75,-134"/>
<text xml:space="preserve" text-anchor="middle" x="319.12" y="-110.95" font-family="Times,serif" font-size="14.00">2</text>
<polyline fill="none" stroke="lightgray" points="330.5,-98 330.5,-134"/>
<text xml:space="preserve" text-anchor="middle" x="340.38" y="-110.95" font-family="Times,serif" font-size="14.00"> </text>
</g>
<!-- 4534525568&#45;&gt;4534528592 -->
<g id="edge6" class="edge">
<title>4534525568:r&#45;&gt;4534528592:v</title>
<path fill="none" stroke="black" d="M283.75,-170.5C283.75,-152.8 305.78,-154.58 315.07,-145.11"/>
<polygon fill="black" stroke="black" points="318.28,-146.5 318.58,-135.91 311.74,-144 318.28,-146.5"/>
</g>
<!-- 4534519856 -->
<g id="node8" class="node">
<title>4534519856</title>
<path fill="lightgray" stroke="green" d="M12,-25C12,-25 50.25,-25 50.25,-25 56.25,-25 62.25,-31 62.25,-37 62.25,-37 62.25,-49 62.25,-49 62.25,-55 56.25,-61 50.25,-61 50.25,-61 12,-61 12,-61 6,-61 0,-55 0,-49 0,-49 0,-37 0,-37 0,-31 6,-25 12,-25"/>
<text xml:space="preserve" text-anchor="middle" x="9.88" y="-37.95" font-family="Times,serif" font-size="14.00"> </text>
<polyline fill="none" stroke="green" points="19.75,-25 19.75,-61"/>
<text xml:space="preserve" text-anchor="middle" x="31.12" y="-37.95" font-family="Times,serif" font-size="14.00">5</text>
<polyline fill="none" stroke="green" points="42.5,-25 42.5,-61"/>
<text xml:space="preserve" text-anchor="middle" x="52.38" y="-37.95" font-family="Times,serif" font-size="14.00"> </text>
</g>
<!-- 4534527584&#45;&gt;4534519856 -->
<g id="edge7" class="edge">
<title>4534527584:l&#45;&gt;4534519856:v</title>
<path fill="none" stroke="black" d="M49.88,-97.5C49.88,-84.11 39.55,-80.7 34.22,-72.46"/>
<polygon fill="black" stroke="black" points="37.62,-71.63 31.54,-62.96 30.89,-73.53 37.62,-71.63"/>
</g>
<!-- 4534527360 -->
<g id="node9" class="node">
<title>4534527360</title>
<path fill="lightgray" stroke="lightgray" d="M92,-25C92,-25 130.25,-25 130.25,-25 136.25,-25 142.25,-31 142.25,-37 142.25,-37 142.25,-49 142.25,-49 142.25,-55 136.25,-61 130.25,-61 130.25,-61 92,-61 92,-61 86,-61 80,-55 80,-49 80,-49 80,-37 80,-37 80,-31 86,-25 92,-25"/>
<text xml:space="preserve" text-anchor="middle" x="89.88" y="-37.95" font-family="Times,serif" font-size="14.00"> </text>
<polyline fill="none" stroke="lightgray" points="99.75,-25 99.75,-61"/>
<text xml:space="preserve" text-anchor="middle" x="111.12" y="-37.95" font-family="Times,serif" font-size="14.00">4</text>
<polyline fill="none" stroke="lightgray" points="122.5,-25 122.5,-61"/>
<text xml:space="preserve" text-anchor="middle" x="132.38" y="-37.95" font-family="Times,serif" font-size="14.00"> </text>
</g>
<!-- 4534527584&#45;&gt;4534527360 -->
<g id="edge8" class="edge">
<title>4534527584:r&#45;&gt;4534527360:v</title>
<path fill="none" stroke="black" d="M92.38,-97.5C92.38,-84.11 102.7,-80.7 108.03,-72.46"/>
<polygon fill="black" stroke="black" points="111.36,-73.53 110.71,-62.96 104.63,-71.63 111.36,-73.53"/>
</g>
</g>
</svg>
