<?xml version="1.0" encoding="UTF-8" standalone="no"?>
<!DOCTYPE svg PUBLIC "-//W3C//DTD SVG 1.1//EN"
 "http://www.w3.org/Graphics/SVG/1.1/DTD/svg11.dtd">
<!-- Generated by graphviz version 14.0.0 (20250921.2048)
 -->
<!-- Pages: 1 -->
<svg width="491pt" height="289pt"
 viewBox="0.00 0.00 491.00 289.00" xmlns="http://www.w3.org/2000/svg" xmlns:xlink="http://www.w3.org/1999/xlink">
<g id="graph0" class="graph" transform="scale(1 1) rotate(0) translate(4 284.5)">
<polygon fill="white" stroke="none" points="-4,4 -4,-284.5 487.25,-284.5 487.25,4 -4,4"/>
<text xml:space="preserve" text-anchor="middle" x="241.62" y="-7.2" font-family="Times,serif" font-size="14.00">MaxHeap [15, 13, 10, 5, 12, 9, 7, 4, 0, 6, 2, 1, 8], heapsize: 13</text>
<!-- 4469871728 -->
<g id="node1" class="node">
<title>4469871728</title>
<path fill="lightgray" stroke="lightgray" d="M274.62,-244C274.62,-244 319.62,-244 319.62,-244 325.62,-244 331.62,-250 331.62,-256 331.62,-256 331.62,-268 331.62,-268 331.62,-274 325.62,-280 319.62,-280 319.62,-280 274.62,-280 274.62,-280 268.62,-280 262.62,-274 262.62,-268 262.62,-268 262.62,-256 262.62,-256 262.62,-250 268.62,-244 274.62,-244"/>
<text xml:space="preserve" text-anchor="middle" x="272.5" y="-256.95" font-family="Times,serif" font-size="14.00"> </text>
<polyline fill="none" stroke="lightgray" points="282.38,-244 282.38,-280"/>
<text xml:space="preserve" text-anchor="middle" x="297.12" y="-256.95" font-family="Times,serif" font-size="14.00">15</text>
<polyline fill="none" stroke="lightgray" points="311.88,-244 311.88,-280"/>
<text xml:space="preserve" text-anchor="middle" x="321.75" y="-256.95" font-family="Times,serif" font-size="14.00"> </text>
</g>
<!-- 4469878896 -->
<g id="node2" class="node">
<title>4469878896</title>
<path fill="lightgray" stroke="lightgray" d="M184.62,-171C184.62,-171 229.62,-171 229.62,-171 235.62,-171 241.62,-177 241.62,-183 241.62,-183 241.62,-195 241.62,-195 241.62,-201 235.62,-207 229.62,-207 229.62,-207 184.62,-207 184.62,-207 178.62,-207 172.62,-201 172.62,-195 172.62,-195 172.62,-183 172.62,-183 172.62,-177 178.62,-171 184.62,-171"/>
<text xml:space="preserve" text-anchor="middle" x="182.5" y="-183.95" font-family="Times,serif" font-size="14.00"> </text>
<polyline fill="none" stroke="lightgray" points="192.38,-171 192.38,-207"/>
<text xml:space="preserve" text-anchor="middle" x="207.12" y="-183.95" font-family="Times,serif" font-size="14.00">13</text>
<polyline fill="none" stroke="lightgray" points="221.88,-171 221.88,-207"/>
<text xml:space="preserve" text-anchor="middle" x="231.75" y="-183.95" font-family="Times,serif" font-size="14.00"> </text>
</g>
<!-- 4469871728&#45;&gt;4469878896 -->
<g id="edge1" class="edge">
<title>4469871728:l&#45;&gt;4469878896:v</title>
<path fill="none" stroke="black" d="M272.5,-243.5C272.5,-214.99 224.22,-233.39 210.64,-218.08"/>
<polygon fill="black" stroke="black" points="214.08,-217.32 207.6,-208.94 207.43,-219.53 214.08,-217.32"/>
</g>
<!-- 4469879008 -->
<g id="node3" class="node">
<title>4469879008</title>
<path fill="lightgray" stroke="green" d="M361.62,-171C361.62,-171 406.62,-171 406.62,-171 412.62,-171 418.62,-177 418.62,-183 418.62,-183 418.62,-195 418.62,-195 418.62,-201 412.62,-207 406.62,-207 406.62,-207 361.62,-207 361.62,-207 355.62,-207 349.62,-201 349.62,-195 349.62,-195 349.62,-183 349.62,-183 349.62,-177 355.62,-171 361.62,-171"/>
<text xml:space="preserve" text-anchor="middle" x="359.5" y="-183.95" font-family="Times,serif" font-size="14.00"> </text>
<polyline fill="none" stroke="green" points="369.38,-171 369.38,-207"/>
<text xml:space="preserve" text-anchor="middle" x="384.12" y="-183.95" font-family="Times,serif" font-size="14.00">10</text>
<polyline fill="none" stroke="green" points="398.88,-171 398.88,-207"/>
<text xml:space="preserve" text-anchor="middle" x="408.75" y="-183.95" font-family="Times,serif" font-size="14.00"> </text>
</g>
<!-- 4469871728&#45;&gt;4469879008 -->
<g id="edge2" class="edge">
<title>4469871728:r&#45;&gt;4469879008:v</title>
<path fill="none" stroke="black" d="M321.75,-243.5C321.75,-216.24 366.98,-232.51 380.41,-218.18"/>
<polygon fill="black" stroke="black" points="383.65,-219.52 383.63,-208.93 377.04,-217.22 383.65,-219.52"/>
</g>
<!-- 4469875760 -->
<g id="node4" class="node">
<title>4469875760</title>
<path fill="lightgray" stroke="lightgray" d="M71,-98C71,-98 109.25,-98 109.25,-98 115.25,-98 121.25,-104 121.25,-110 121.25,-110 121.25,-122 121.25,-122 121.25,-128 115.25,-134 109.25,-134 109.25,-134 71,-134 71,-134 65,-134 59,-128 59,-122 59,-122 59,-110 59,-110 59,-104 65,-98 71,-98"/>
<text xml:space="preserve" text-anchor="middle" x="68.88" y="-110.95" font-family="Times,serif" font-size="14.00"> </text>
<polyline fill="none" stroke="lightgray" points="78.75,-98 78.75,-134"/>
<text xml:space="preserve" text-anchor="middle" x="90.12" y="-110.95" font-family="Times,serif" font-size="14.00">5</text>
<polyline fill="none" stroke="lightgray" points="101.5,-98 101.5,-134"/>
<text xml:space="preserve" text-anchor="middle" x="111.38" y="-110.95" font-family="Times,serif" font-size="14.00"> </text>
</g>
<!-- 4469878896&#45;&gt;4469875760 -->
<g id="edge3" class="edge">
<title>4469878896:l&#45;&gt;4469875760:v</title>
<path fill="none" stroke="black" d="M182.5,-170.5C182.5,-131.08 108.58,-168.64 92.99,-145.46"/>
<polygon fill="black" stroke="black" points="96.42,-144.75 90.51,-135.96 89.65,-146.52 96.42,-144.75"/>
</g>
<!-- 4469879456 -->
<g id="node5" class="node">
<title>4469879456</title>
<path fill="lightgray" stroke="lightgray" d="M208.62,-98C208.62,-98 253.62,-98 253.62,-98 259.62,-98 265.62,-104 265.62,-110 265.62,-110 265.62,-122 265.62,-122 265.62,-128 259.62,-134 253.62,-134 253.62,-134 208.62,-134 208.62,-134 202.62,-134 196.62,-128 196.62,-122 196.62,-122 196.62,-110 196.62,-110 196.62,-104 202.62,-98 208.62,-98"/>
<text xml:space="preserve" text-anchor="middle" x="206.5" y="-110.95" font-family="Times,serif" font-size="14.00"> </text>
<polyline fill="none" stroke="lightgray" points="216.38,-98 216.38,-134"/>
<text xml:space="preserve" text-anchor="middle" x="231.12" y="-110.95" font-family="Times,serif" font-size="14.00">12</text>
<polyline fill="none" stroke="lightgray" points="245.88,-98 245.88,-134"/>
<text xml:space="preserve" text-anchor="middle" x="255.75" y="-110.95" font-family="Times,serif" font-size="14.00"> </text>
</g>
<!-- 4469878896&#45;&gt;4469879456 -->
<g id="edge4" class="edge">
<title>4469878896:r&#45;&gt;4469879456:v</title>
<path fill="none" stroke="black" d="M231.75,-170.5C231.75,-159.12 231.43,-153.82 231.25,-145.95"/>
<polygon fill="black" stroke="black" points="234.75,-145.97 231.14,-136.01 227.75,-146.05 234.75,-145.97"/>
</g>
<!-- 4469879568 -->
<g id="node6" class="node">
<title>4469879568</title>
<path fill="lightgray" stroke="green" d="M353,-98C353,-98 391.25,-98 391.25,-98 397.25,-98 403.25,-104 403.25,-110 403.25,-110 403.25,-122 403.25,-122 403.25,-128 397.25,-134 391.25,-134 391.25,-134 353,-134 353,-134 347,-134 341,-128 341,-122 341,-122 341,-110 341,-110 341,-104 347,-98 353,-98"/>
<text xml:space="preserve" text-anchor="middle" x="350.88" y="-110.95" font-family="Times,serif" font-size="14.00"> </text>
<polyline fill="none" stroke="green" points="360.75,-98 360.75,-134"/>
<text xml:space="preserve" text-anchor="middle" x="372.12" y="-110.95" font-family="Times,serif" font-size="14.00">9</text>
<polyline fill="none" stroke="green" points="383.5,-98 383.5,-134"/>
<text xml:space="preserve" text-anchor="middle" x="393.38" y="-110.95" font-family="Times,serif" font-size="14.00"> </text>
</g>
<!-- 4469879008&#45;&gt;4469879568 -->
<g id="edge5" class="edge">
<title>4469879008:l&#45;&gt;4469879568:v</title>
<path fill="none" stroke="black" d="M359.5,-170.5C359.5,-158.18 366.16,-153.71 369.81,-145.68"/>
<polygon fill="black" stroke="black" points="373.22,-146.48 371.82,-135.98 366.36,-145.06 373.22,-146.48"/>
</g>
<!-- 4469879008&#45;&gt;4469879568 -->
<g id="edge13" class="edge">
<title>4469879008&#45;&gt;4469879568</title>
<path fill="none" stroke="green" d="M381.22,-170.81C379.92,-163.14 378.36,-153.89 376.9,-145.24"/>
<polygon fill="green" stroke="green" points="380.37,-144.8 375.26,-135.52 373.47,-145.96 380.37,-144.8"/>
</g>
<!-- 4469873856 -->
<g id="node7" class="node">
<title>4469873856</title>
<path fill="lightgray" stroke="lightgray" d="M433,-98C433,-98 471.25,-98 471.25,-98 477.25,-98 483.25,-104 483.25,-110 483.25,-110 483.25,-122 483.25,-122 483.25,-128 477.25,-134 471.25,-134 471.25,-134 433,-134 433,-134 427,-134 421,-128 421,-122 421,-122 421,-110 421,-110 421,-104 427,-98 433,-98"/>
<text xml:space="preserve" text-anchor="middle" x="430.88" y="-110.95" font-family="Times,serif" font-size="14.00"> </text>
<polyline fill="none" stroke="lightgray" points="440.75,-98 440.75,-134"/>
<text xml:space="preserve" text-anchor="middle" x="452.12" y="-110.95" font-family="Times,serif" font-size="14.00">7</text>
<polyline fill="none" stroke="lightgray" points="463.5,-98 463.5,-134"/>
<text xml:space="preserve" text-anchor="middle" x="473.38" y="-110.95" font-family="Times,serif" font-size="14.00"> </text>
</g>
<!-- 4469879008&#45;&gt;4469873856 -->
<g id="edge6" class="edge">
<title>4469879008:r&#45;&gt;4469873856:v</title>
<path fill="none" stroke="black" d="M408.75,-170.5C408.75,-150.14 437.38,-155.64 448.12,-144.98"/>
<polygon fill="black" stroke="black" points="451.29,-146.5 451.58,-135.91 444.75,-144.01 451.29,-146.5"/>
</g>
<!-- 4469880352 -->
<g id="node8" class="node">
<title>4469880352</title>
<path fill="lightgray" stroke="lightgray" d="M12,-25C12,-25 50.25,-25 50.25,-25 56.25,-25 62.25,-31 62.25,-37 62.25,-37 62.25,-49 62.25,-49 62.25,-55 56.25,-61 50.25,-61 50.25,-61 12,-61 12,-61 6,-61 0,-55 0,-49 0,-49 0,-37 0,-37 0,-31 6,-25 12,-25"/>
<text xml:space="preserve" text-anchor="middle" x="9.88" y="-37.95" font-family="Times,serif" font-size="14.00"> </text>
<polyline fill="none" stroke="lightgray" points="19.75,-25 19.75,-61"/>
<text xml:space="preserve" text-anchor="middle" x="31.12" y="-37.95" font-family="Times,serif" font-size="14.00">4</text>
<polyline fill="none" stroke="lightgray" points="42.5,-25 42.5,-61"/>
<text xml:space="preserve" text-anchor="middle" x="52.38" y="-37.95" font-family="Times,serif" font-size="14.00"> </text>
</g>
<!-- 4469875760&#45;&gt;4469880352 -->
<g id="edge7" class="edge">
<title>4469875760:l&#45;&gt;4469880352:v</title>
<path fill="none" stroke="black" d="M68.88,-97.5C68.88,-79.03 44.9,-81.86 35.16,-72.04"/>
<polygon fill="black" stroke="black" points="38.51,-71 31.67,-62.91 31.98,-73.5 38.51,-71"/>
</g>
<!-- 4469878112 -->
<g id="node9" class="node">
<title>4469878112</title>
<path fill="lightgray" stroke="lightgray" d="M92,-25C92,-25 130.25,-25 130.25,-25 136.25,-25 142.25,-31 142.25,-37 142.25,-37 142.25,-49 142.25,-49 142.25,-55 136.25,-61 130.25,-61 130.25,-61 92,-61 92,-61 86,-61 80,-55 80,-49 80,-49 80,-37 80,-37 80,-31 86,-25 92,-25"/>
<text xml:space="preserve" text-anchor="middle" x="89.88" y="-37.95" font-family="Times,serif" font-size="14.00"> </text>
<polyline fill="none" stroke="lightgray" points="99.75,-25 99.75,-61"/>
<text xml:space="preserve" text-anchor="middle" x="111.12" y="-37.95" font-family="Times,serif" font-size="14.00">0</text>
<polyline fill="none" stroke="lightgray" points="122.5,-25 122.5,-61"/>
<text xml:space="preserve" text-anchor="middle" x="132.38" y="-37.95" font-family="Times,serif" font-size="14.00"> </text>
</g>
<!-- 4469875760&#45;&gt;4469878112 -->
<g id="edge8" class="edge">
<title>4469875760:r&#45;&gt;4469878112:v</title>
<path fill="none" stroke="black" d="M111.38,-97.5C111.38,-86.12 111.25,-80.82 111.18,-72.95"/>
<polygon fill="black" stroke="black" points="114.68,-73 111.13,-63.01 107.68,-73.03 114.68,-73"/>
</g>
<!-- 4469876992 -->
<g id="node10" class="node">
<title>4469876992</title>
<path fill="lightgray" stroke="lightgray" d="M172,-25C172,-25 210.25,-25 210.25,-25 216.25,-25 222.25,-31 222.25,-37 222.25,-37 222.25,-49 222.25,-49 222.25,-55 216.25,-61 210.25,-61 210.25,-61 172,-61 172,-61 166,-61 160,-55 160,-49 160,-49 160,-37 160,-37 160,-31 166,-25 172,-25"/>
<text xml:space="preserve" text-anchor="middle" x="169.88" y="-37.95" font-family="Times,serif" font-size="14.00"> </text>
<polyline fill="none" stroke="lightgray" points="179.75,-25 179.75,-61"/>
<text xml:space="preserve" text-anchor="middle" x="191.12" y="-37.95" font-family="Times,serif" font-size="14.00">6</text>
<polyline fill="none" stroke="lightgray" points="202.5,-25 202.5,-61"/>
<text xml:space="preserve" text-anchor="middle" x="212.38" y="-37.95" font-family="Times,serif" font-size="14.00"> </text>
</g>
<!-- 4469879456&#45;&gt;4469876992 -->
<g id="edge9" class="edge">
<title>4469879456:l&#45;&gt;4469876992:v</title>
<path fill="none" stroke="black" d="M206.5,-97.5C206.5,-84.72 198.21,-80.68 193.8,-72.54"/>
<polygon fill="black" stroke="black" points="197.24,-71.86 191.48,-62.97 190.44,-73.51 197.24,-71.86"/>
</g>
<!-- 4469879120 -->
<g id="node11" class="node">
<title>4469879120</title>
<path fill="lightgray" stroke="lightgray" d="M252,-25C252,-25 290.25,-25 290.25,-25 296.25,-25 302.25,-31 302.25,-37 302.25,-37 302.25,-49 302.25,-49 302.25,-55 296.25,-61 290.25,-61 290.25,-61 252,-61 252,-61 246,-61 240,-55 240,-49 240,-49 240,-37 240,-37 240,-31 246,-25 252,-25"/>
<text xml:space="preserve" text-anchor="middle" x="249.88" y="-37.95" font-family="Times,serif" font-size="14.00"> </text>
<polyline fill="none" stroke="lightgray" points="259.75,-25 259.75,-61"/>
<text xml:space="preserve" text-anchor="middle" x="271.12" y="-37.95" font-family="Times,serif" font-size="14.00">2</text>
<polyline fill="none" stroke="lightgray" points="282.5,-25 282.5,-61"/>
<text xml:space="preserve" text-anchor="middle" x="292.38" y="-37.95" font-family="Times,serif" font-size="14.00"> </text>
</g>
<!-- 4469879456&#45;&gt;4469879120 -->
<g id="edge10" class="edge">
<title>4469879456:r&#45;&gt;4469879120:v</title>
<path fill="none" stroke="black" d="M255.75,-97.5C255.75,-84.72 264.04,-80.68 268.45,-72.54"/>
<polygon fill="black" stroke="black" points="271.81,-73.51 270.77,-62.97 265.01,-71.86 271.81,-73.51"/>
</g>
<!-- 4469879232 -->
<g id="node12" class="node">
<title>4469879232</title>
<path fill="lightgray" stroke="lightgray" d="M332,-25C332,-25 370.25,-25 370.25,-25 376.25,-25 382.25,-31 382.25,-37 382.25,-37 382.25,-49 382.25,-49 382.25,-55 376.25,-61 370.25,-61 370.25,-61 332,-61 332,-61 326,-61 320,-55 320,-49 320,-49 320,-37 320,-37 320,-31 326,-25 332,-25"/>
<text xml:space="preserve" text-anchor="middle" x="329.88" y="-37.95" font-family="Times,serif" font-size="14.00"> </text>
<polyline fill="none" stroke="lightgray" points="339.75,-25 339.75,-61"/>
<text xml:space="preserve" text-anchor="middle" x="351.12" y="-37.95" font-family="Times,serif" font-size="14.00">1</text>
<polyline fill="none" stroke="lightgray" points="362.5,-25 362.5,-61"/>
<text xml:space="preserve" text-anchor="middle" x="372.38" y="-37.95" font-family="Times,serif" font-size="14.00"> </text>
</g>
<!-- 4469879568&#45;&gt;4469879232 -->
<g id="edge11" class="edge">
<title>4469879568:l&#45;&gt;4469879232:v</title>
<path fill="none" stroke="black" d="M350.88,-97.5C350.88,-86.12 351,-80.82 351.07,-72.95"/>
<polygon fill="black" stroke="black" points="354.57,-73.03 351.12,-63.01 347.57,-73 354.57,-73.03"/>
</g>
<!-- 4469877664 -->
<g id="node13" class="node">
<title>4469877664</title>
<path fill="lightgray" stroke="lightgray" d="M412,-25C412,-25 450.25,-25 450.25,-25 456.25,-25 462.25,-31 462.25,-37 462.25,-37 462.25,-49 462.25,-49 462.25,-55 456.25,-61 450.25,-61 450.25,-61 412,-61 412,-61 406,-61 400,-55 400,-49 400,-49 400,-37 400,-37 400,-31 406,-25 412,-25"/>
<text xml:space="preserve" text-anchor="middle" x="409.88" y="-37.95" font-family="Times,serif" font-size="14.00"> </text>
<polyline fill="none" stroke="lightgray" points="419.75,-25 419.75,-61"/>
<text xml:space="preserve" text-anchor="middle" x="431.12" y="-37.95" font-family="Times,serif" font-size="14.00">8</text>
<polyline fill="none" stroke="lightgray" points="442.5,-25 442.5,-61"/>
<text xml:space="preserve" text-anchor="middle" x="452.38" y="-37.95" font-family="Times,serif" font-size="14.00"> </text>
</g>
<!-- 4469879568&#45;&gt;4469877664 -->
<g id="edge12" class="edge">
<title>4469879568:r&#45;&gt;4469877664:v</title>
<path fill="none" stroke="black" d="M393.38,-97.5C393.38,-79.03 417.35,-81.86 427.09,-72.04"/>
<polygon fill="black" stroke="black" points="430.27,-73.5 430.58,-62.91 423.74,-71 430.27,-73.5"/>
</g>
</g>
</svg>
