<?xml version="1.0" encoding="UTF-8" standalone="no"?>
<!DOCTYPE svg PUBLIC "-//W3C//DTD SVG 1.1//EN"
 "http://www.w3.org/Graphics/SVG/1.1/DTD/svg11.dtd">
<!-- Generated by graphviz version 14.0.0 (20250921.2048)
 -->
<!-- Pages: 1 -->
<svg width="362pt" height="289pt"
 viewBox="0.00 0.00 362.00 289.00" xmlns="http://www.w3.org/2000/svg" xmlns:xlink="http://www.w3.org/1999/xlink">
<g id="graph0" class="graph" transform="scale(1 1) rotate(0) translate(4 284.5)">
<polygon fill="white" stroke="none" points="-4,4 -4,-284.5 358.25,-284.5 358.25,4 -4,4"/>
<text xml:space="preserve" text-anchor="middle" x="177.12" y="-7.2" font-family="Times,serif" font-size="14.00">MaxHeap [5, 25, 20, 13, 7, 17, 2, 8, 4], heapsize: 9</text>
<!-- 4495602896 -->
<g id="node1" class="node">
<title>4495602896</title>
<path fill="lightgray" stroke="lightgray" d="M169,-244C169,-244 207.25,-244 207.25,-244 213.25,-244 219.25,-250 219.25,-256 219.25,-256 219.25,-268 219.25,-268 219.25,-274 213.25,-280 207.25,-280 207.25,-280 169,-280 169,-280 163,-280 157,-274 157,-268 157,-268 157,-256 157,-256 157,-250 163,-244 169,-244"/>
<text xml:space="preserve" text-anchor="middle" x="166.88" y="-256.95" font-family="Times,serif" font-size="14.00"> </text>
<polyline fill="none" stroke="lightgray" points="176.75,-244 176.75,-280"/>
<text xml:space="preserve" text-anchor="middle" x="188.12" y="-256.95" font-family="Times,serif" font-size="14.00">5</text>
<polyline fill="none" stroke="lightgray" points="199.5,-244 199.5,-280"/>
<text xml:space="preserve" text-anchor="middle" x="209.38" y="-256.95" font-family="Times,serif" font-size="14.00"> </text>
</g>
<!-- 4495602784 -->
<g id="node2" class="node">
<title>4495602784</title>
<path fill="lightgray" stroke="green" d="M90.62,-171C90.62,-171 135.62,-171 135.62,-171 141.62,-171 147.62,-177 147.62,-183 147.62,-183 147.62,-195 147.62,-195 147.62,-201 141.62,-207 135.62,-207 135.62,-207 90.62,-207 90.62,-207 84.62,-207 78.62,-201 78.62,-195 78.62,-195 78.62,-183 78.62,-183 78.62,-177 84.62,-171 90.62,-171"/>
<text xml:space="preserve" text-anchor="middle" x="88.5" y="-183.95" font-family="Times,serif" font-size="14.00"> </text>
<polyline fill="none" stroke="green" points="98.38,-171 98.38,-207"/>
<text xml:space="preserve" text-anchor="middle" x="113.12" y="-183.95" font-family="Times,serif" font-size="14.00">25</text>
<polyline fill="none" stroke="green" points="127.88,-171 127.88,-207"/>
<text xml:space="preserve" text-anchor="middle" x="137.75" y="-183.95" font-family="Times,serif" font-size="14.00"> </text>
</g>
<!-- 4495602896&#45;&gt;4495602784 -->
<g id="edge1" class="edge">
<title>4495602896:l&#45;&gt;4495602784:v</title>
<path fill="none" stroke="black" d="M166.88,-243.5C166.88,-219.47 129.31,-230.55 116.99,-218.04"/>
<polygon fill="black" stroke="black" points="120.38,-217.1 113.65,-208.92 113.8,-219.51 120.38,-217.1"/>
</g>
<!-- 4495601888 -->
<g id="node3" class="node">
<title>4495601888</title>
<path fill="lightgray" stroke="lightgray" d="M240.62,-171C240.62,-171 285.62,-171 285.62,-171 291.62,-171 297.62,-177 297.62,-183 297.62,-183 297.62,-195 297.62,-195 297.62,-201 291.62,-207 285.62,-207 285.62,-207 240.62,-207 240.62,-207 234.62,-207 228.62,-201 228.62,-195 228.62,-195 228.62,-183 228.62,-183 228.62,-177 234.62,-171 240.62,-171"/>
<text xml:space="preserve" text-anchor="middle" x="238.5" y="-183.95" font-family="Times,serif" font-size="14.00"> </text>
<polyline fill="none" stroke="lightgray" points="248.38,-171 248.38,-207"/>
<text xml:space="preserve" text-anchor="middle" x="263.12" y="-183.95" font-family="Times,serif" font-size="14.00">20</text>
<polyline fill="none" stroke="lightgray" points="277.88,-171 277.88,-207"/>
<text xml:space="preserve" text-anchor="middle" x="287.75" y="-183.95" font-family="Times,serif" font-size="14.00"> </text>
</g>
<!-- 4495602896&#45;&gt;4495601888 -->
<g id="edge2" class="edge">
<title>4495602896:r&#45;&gt;4495601888:v</title>
<path fill="none" stroke="black" d="M209.38,-243.5C209.38,-219.47 246.94,-230.55 259.26,-218.04"/>
<polygon fill="black" stroke="black" points="262.45,-219.51 262.6,-208.92 255.87,-217.1 262.45,-219.51"/>
</g>
<!-- 4495594384 -->
<g id="node4" class="node">
<title>4495594384</title>
<path fill="lightgray" stroke="green" d="M48.62,-98C48.62,-98 93.62,-98 93.62,-98 99.62,-98 105.62,-104 105.62,-110 105.62,-110 105.62,-122 105.62,-122 105.62,-128 99.62,-134 93.62,-134 93.62,-134 48.62,-134 48.62,-134 42.62,-134 36.62,-128 36.62,-122 36.62,-122 36.62,-110 36.62,-110 36.62,-104 42.62,-98 48.62,-98"/>
<text xml:space="preserve" text-anchor="middle" x="46.5" y="-110.95" font-family="Times,serif" font-size="14.00"> </text>
<polyline fill="none" stroke="green" points="56.38,-98 56.38,-134"/>
<text xml:space="preserve" text-anchor="middle" x="71.12" y="-110.95" font-family="Times,serif" font-size="14.00">13</text>
<polyline fill="none" stroke="green" points="85.88,-98 85.88,-134"/>
<text xml:space="preserve" text-anchor="middle" x="95.75" y="-110.95" font-family="Times,serif" font-size="14.00"> </text>
</g>
<!-- 4495602784&#45;&gt;4495594384 -->
<g id="edge3" class="edge">
<title>4495602784:l&#45;&gt;4495594384:v</title>
<path fill="none" stroke="black" d="M88.5,-170.5C88.5,-157.31 78.93,-153.66 73.99,-145.38"/>
<polygon fill="black" stroke="black" points="77.44,-144.74 71.51,-135.96 70.68,-146.53 77.44,-144.74"/>
</g>
<!-- 4495597856 -->
<g id="node5" class="node">
<title>4495597856</title>
<path fill="lightgray" stroke="lightgray" d="M136,-98C136,-98 174.25,-98 174.25,-98 180.25,-98 186.25,-104 186.25,-110 186.25,-110 186.25,-122 186.25,-122 186.25,-128 180.25,-134 174.25,-134 174.25,-134 136,-134 136,-134 130,-134 124,-128 124,-122 124,-122 124,-110 124,-110 124,-104 130,-98 136,-98"/>
<text xml:space="preserve" text-anchor="middle" x="133.88" y="-110.95" font-family="Times,serif" font-size="14.00"> </text>
<polyline fill="none" stroke="lightgray" points="143.75,-98 143.75,-134"/>
<text xml:space="preserve" text-anchor="middle" x="155.12" y="-110.95" font-family="Times,serif" font-size="14.00">7</text>
<polyline fill="none" stroke="lightgray" points="166.5,-98 166.5,-134"/>
<text xml:space="preserve" text-anchor="middle" x="176.38" y="-110.95" font-family="Times,serif" font-size="14.00"> </text>
</g>
<!-- 4495602784&#45;&gt;4495597856 -->
<g id="edge4" class="edge">
<title>4495602784:r&#45;&gt;4495597856:v</title>
<path fill="none" stroke="black" d="M137.75,-170.5C137.75,-157.31 147.32,-153.66 152.26,-145.38"/>
<polygon fill="black" stroke="black" points="155.57,-146.53 154.74,-135.96 148.81,-144.74 155.57,-146.53"/>
</g>
<!-- 4495599088 -->
<g id="node6" class="node">
<title>4495599088</title>
<path fill="lightgray" stroke="lightgray" d="M216.62,-98C216.62,-98 261.62,-98 261.62,-98 267.62,-98 273.62,-104 273.62,-110 273.62,-110 273.62,-122 273.62,-122 273.62,-128 267.62,-134 261.62,-134 261.62,-134 216.62,-134 216.62,-134 210.62,-134 204.62,-128 204.62,-122 204.62,-122 204.62,-110 204.62,-110 204.62,-104 210.62,-98 216.62,-98"/>
<text xml:space="preserve" text-anchor="middle" x="214.5" y="-110.95" font-family="Times,serif" font-size="14.00"> </text>
<polyline fill="none" stroke="lightgray" points="224.38,-98 224.38,-134"/>
<text xml:space="preserve" text-anchor="middle" x="239.12" y="-110.95" font-family="Times,serif" font-size="14.00">17</text>
<polyline fill="none" stroke="lightgray" points="253.88,-98 253.88,-134"/>
<text xml:space="preserve" text-anchor="middle" x="263.75" y="-110.95" font-family="Times,serif" font-size="14.00"> </text>
</g>
<!-- 4495601888&#45;&gt;4495599088 -->
<g id="edge5" class="edge">
<title>4495601888:l&#45;&gt;4495599088:v</title>
<path fill="none" stroke="black" d="M238.5,-170.5C238.5,-159.12 238.82,-153.82 239,-145.95"/>
<polygon fill="black" stroke="black" points="242.5,-146.05 239.11,-136.01 235.5,-145.97 242.5,-146.05"/>
</g>
<!-- 4495602336 -->
<g id="node7" class="node">
<title>4495602336</title>
<path fill="lightgray" stroke="lightgray" d="M304,-98C304,-98 342.25,-98 342.25,-98 348.25,-98 354.25,-104 354.25,-110 354.25,-110 354.25,-122 354.25,-122 354.25,-128 348.25,-134 342.25,-134 342.25,-134 304,-134 304,-134 298,-134 292,-128 292,-122 292,-122 292,-110 292,-110 292,-104 298,-98 304,-98"/>
<text xml:space="preserve" text-anchor="middle" x="301.88" y="-110.95" font-family="Times,serif" font-size="14.00"> </text>
<polyline fill="none" stroke="lightgray" points="311.75,-98 311.75,-134"/>
<text xml:space="preserve" text-anchor="middle" x="323.12" y="-110.95" font-family="Times,serif" font-size="14.00">2</text>
<polyline fill="none" stroke="lightgray" points="334.5,-98 334.5,-134"/>
<text xml:space="preserve" text-anchor="middle" x="344.38" y="-110.95" font-family="Times,serif" font-size="14.00"> </text>
</g>
<!-- 4495601888&#45;&gt;4495602336 -->
<g id="edge6" class="edge">
<title>4495601888:r&#45;&gt;4495602336:v</title>
<path fill="none" stroke="black" d="M287.75,-170.5C287.75,-152.8 309.78,-154.58 319.07,-145.11"/>
<polygon fill="black" stroke="black" points="322.28,-146.5 322.58,-135.91 315.74,-144 322.28,-146.5"/>
</g>
<!-- 4495594384&#45;&gt;4495602784 -->
<g id="edge9" class="edge">
<title>4495594384&#45;&gt;4495602784</title>
<path fill="none" stroke="green" d="M81.2,-134.03C85.98,-142.12 91.82,-151.98 97.18,-161.05"/>
<polygon fill="green" stroke="green" points="94.08,-162.69 102.19,-169.51 100.11,-159.12 94.08,-162.69"/>
</g>
<!-- 4495603008 -->
<g id="node8" class="node">
<title>4495603008</title>
<path fill="lightgray" stroke="lightgray" d="M12,-25C12,-25 50.25,-25 50.25,-25 56.25,-25 62.25,-31 62.25,-37 62.25,-37 62.25,-49 62.25,-49 62.25,-55 56.25,-61 50.25,-61 50.25,-61 12,-61 12,-61 6,-61 0,-55 0,-49 0,-49 0,-37 0,-37 0,-31 6,-25 12,-25"/>
<text xml:space="preserve" text-anchor="middle" x="9.88" y="-37.95" font-family="Times,serif" font-size="14.00"> </text>
<polyline fill="none" stroke="lightgray" points="19.75,-25 19.75,-61"/>
<text xml:space="preserve" text-anchor="middle" x="31.12" y="-37.95" font-family="Times,serif" font-size="14.00">8</text>
<polyline fill="none" stroke="lightgray" points="42.5,-25 42.5,-61"/>
<text xml:space="preserve" text-anchor="middle" x="52.38" y="-37.95" font-family="Times,serif" font-size="14.00"> </text>
</g>
<!-- 4495594384&#45;&gt;4495603008 -->
<g id="edge7" class="edge">
<title>4495594384:l&#45;&gt;4495603008:v</title>
<path fill="none" stroke="black" d="M46.5,-97.5C46.5,-84.72 38.21,-80.68 33.8,-72.54"/>
<polygon fill="black" stroke="black" points="37.24,-71.86 31.48,-62.97 30.44,-73.51 37.24,-71.86"/>
</g>
<!-- 4495594272 -->
<g id="node9" class="node">
<title>4495594272</title>
<path fill="lightgray" stroke="lightgray" d="M92,-25C92,-25 130.25,-25 130.25,-25 136.25,-25 142.25,-31 142.25,-37 142.25,-37 142.25,-49 142.25,-49 142.25,-55 136.25,-61 130.25,-61 130.25,-61 92,-61 92,-61 86,-61 80,-55 80,-49 80,-49 80,-37 80,-37 80,-31 86,-25 92,-25"/>
<text xml:space="preserve" text-anchor="middle" x="89.88" y="-37.95" font-family="Times,serif" font-size="14.00"> </text>
<polyline fill="none" stroke="lightgray" points="99.75,-25 99.75,-61"/>
<text xml:space="preserve" text-anchor="middle" x="111.12" y="-37.95" font-family="Times,serif" font-size="14.00">4</text>
<polyline fill="none" stroke="lightgray" points="122.5,-25 122.5,-61"/>
<text xml:space="preserve" text-anchor="middle" x="132.38" y="-37.95" font-family="Times,serif" font-size="14.00"> </text>
</g>
<!-- 4495594384&#45;&gt;4495594272 -->
<g id="edge8" class="edge">
<title>4495594384:r&#45;&gt;4495594272:v</title>
<path fill="none" stroke="black" d="M95.75,-97.5C95.75,-84.72 104.04,-80.68 108.45,-72.54"/>
<polygon fill="black" stroke="black" points="111.81,-73.51 110.77,-62.97 105.01,-71.86 111.81,-73.51"/>
</g>
</g>
</svg>
