<?xml version="1.0" encoding="UTF-8" standalone="no"?>
<!DOCTYPE svg PUBLIC "-//W3C//DTD SVG 1.1//EN"
 "http://www.w3.org/Graphics/SVG/1.1/DTD/svg11.dtd">
<!-- Generated by graphviz version 14.0.0 (20250921.2048)
 -->
<!-- Pages: 1 -->
<svg width="335pt" height="289pt"
 viewBox="0.00 0.00 335.00 289.00" xmlns="http://www.w3.org/2000/svg" xmlns:xlink="http://www.w3.org/1999/xlink">
<g id="graph0" class="graph" transform="scale(1 1) rotate(0) translate(4 284.5)">
<polygon fill="white" stroke="none" points="-4,4 -4,-284.5 330.62,-284.5 330.62,4 -4,4"/>
<text xml:space="preserve" text-anchor="middle" x="163.31" y="-7.2" font-family="Times,serif" font-size="14.00">MaxHeap [5, 13, 17, 8, 7, 4, 2, 20, 25], heapsize: 8</text>
<!-- 4534520304 -->
<g id="node1" class="node">
<title>4534520304</title>
<path fill="lightgray" stroke="green" d="M156.38,-244C156.38,-244 194.62,-244 194.62,-244 200.62,-244 206.62,-250 206.62,-256 206.62,-256 206.62,-268 206.62,-268 206.62,-274 200.62,-280 194.62,-280 194.62,-280 156.38,-280 156.38,-280 150.38,-280 144.38,-274 144.38,-268 144.38,-268 144.38,-256 144.38,-256 144.38,-250 150.38,-244 156.38,-244"/>
<text xml:space="preserve" text-anchor="middle" x="154.25" y="-256.95" font-family="Times,serif" font-size="14.00"> </text>
<polyline fill="none" stroke="green" points="164.12,-244 164.12,-280"/>
<text xml:space="preserve" text-anchor="middle" x="175.5" y="-256.95" font-family="Times,serif" font-size="14.00">5</text>
<polyline fill="none" stroke="green" points="186.88,-244 186.88,-280"/>
<text xml:space="preserve" text-anchor="middle" x="196.75" y="-256.95" font-family="Times,serif" font-size="14.00"> </text>
</g>
<!-- 4534519520 -->
<g id="node2" class="node">
<title>4534519520</title>
<path fill="lightgray" stroke="lightgray" d="M89,-171C89,-171 134,-171 134,-171 140,-171 146,-177 146,-183 146,-183 146,-195 146,-195 146,-201 140,-207 134,-207 134,-207 89,-207 89,-207 83,-207 77,-201 77,-195 77,-195 77,-183 77,-183 77,-177 83,-171 89,-171"/>
<text xml:space="preserve" text-anchor="middle" x="86.88" y="-183.95" font-family="Times,serif" font-size="14.00"> </text>
<polyline fill="none" stroke="lightgray" points="96.75,-171 96.75,-207"/>
<text xml:space="preserve" text-anchor="middle" x="111.5" y="-183.95" font-family="Times,serif" font-size="14.00">13</text>
<polyline fill="none" stroke="lightgray" points="126.25,-171 126.25,-207"/>
<text xml:space="preserve" text-anchor="middle" x="136.12" y="-183.95" font-family="Times,serif" font-size="14.00"> </text>
</g>
<!-- 4534520304&#45;&gt;4534519520 -->
<g id="edge1" class="edge">
<title>4534520304:l&#45;&gt;4534519520:v</title>
<path fill="none" stroke="black" d="M154.25,-243.5C154.25,-223.32 126.03,-228.56 115.45,-217.92"/>
<polygon fill="black" stroke="black" points="118.85,-217.03 112.04,-208.92 112.3,-219.51 118.85,-217.03"/>
</g>
<!-- 4534524000 -->
<g id="node3" class="node">
<title>4534524000</title>
<path fill="lightgray" stroke="lightgray" d="M217,-171C217,-171 262,-171 262,-171 268,-171 274,-177 274,-183 274,-183 274,-195 274,-195 274,-201 268,-207 262,-207 262,-207 217,-207 217,-207 211,-207 205,-201 205,-195 205,-195 205,-183 205,-183 205,-177 211,-171 217,-171"/>
<text xml:space="preserve" text-anchor="middle" x="214.88" y="-183.95" font-family="Times,serif" font-size="14.00"> </text>
<polyline fill="none" stroke="lightgray" points="224.75,-171 224.75,-207"/>
<text xml:space="preserve" text-anchor="middle" x="239.5" y="-183.95" font-family="Times,serif" font-size="14.00">17</text>
<polyline fill="none" stroke="lightgray" points="254.25,-171 254.25,-207"/>
<text xml:space="preserve" text-anchor="middle" x="264.12" y="-183.95" font-family="Times,serif" font-size="14.00"> </text>
</g>
<!-- 4534520304&#45;&gt;4534524000 -->
<g id="edge2" class="edge">
<title>4534520304:r&#45;&gt;4534524000:v</title>
<path fill="none" stroke="black" d="M196.75,-243.5C196.75,-223.32 224.97,-228.56 235.55,-217.92"/>
<polygon fill="black" stroke="black" points="238.7,-219.51 238.96,-208.92 232.15,-217.03 238.7,-219.51"/>
</g>
<!-- 4534522880 -->
<g id="node4" class="node">
<title>4534522880</title>
<path fill="lightgray" stroke="lightgray" d="M36.38,-98C36.38,-98 74.62,-98 74.62,-98 80.62,-98 86.62,-104 86.62,-110 86.62,-110 86.62,-122 86.62,-122 86.62,-128 80.62,-134 74.62,-134 74.62,-134 36.38,-134 36.38,-134 30.38,-134 24.38,-128 24.38,-122 24.38,-122 24.38,-110 24.38,-110 24.38,-104 30.38,-98 36.38,-98"/>
<text xml:space="preserve" text-anchor="middle" x="34.25" y="-110.95" font-family="Times,serif" font-size="14.00"> </text>
<polyline fill="none" stroke="lightgray" points="44.12,-98 44.12,-134"/>
<text xml:space="preserve" text-anchor="middle" x="55.5" y="-110.95" font-family="Times,serif" font-size="14.00">8</text>
<polyline fill="none" stroke="lightgray" points="66.88,-98 66.88,-134"/>
<text xml:space="preserve" text-anchor="middle" x="76.75" y="-110.95" font-family="Times,serif" font-size="14.00"> </text>
</g>
<!-- 4534519520&#45;&gt;4534522880 -->
<g id="edge3" class="edge">
<title>4534519520:l&#45;&gt;4534522880:v</title>
<path fill="none" stroke="black" d="M86.88,-170.5C86.88,-153.92 67.73,-154.23 59.35,-145.04"/>
<polygon fill="black" stroke="black" points="62.74,-144.11 56.02,-135.92 56.16,-146.52 62.74,-144.11"/>
</g>
<!-- 4534520640 -->
<g id="node5" class="node">
<title>4534520640</title>
<path fill="lightgray" stroke="lightgray" d="M116.38,-98C116.38,-98 154.62,-98 154.62,-98 160.62,-98 166.62,-104 166.62,-110 166.62,-110 166.62,-122 166.62,-122 166.62,-128 160.62,-134 154.62,-134 154.62,-134 116.38,-134 116.38,-134 110.38,-134 104.38,-128 104.38,-122 104.38,-122 104.38,-110 104.38,-110 104.38,-104 110.38,-98 116.38,-98"/>
<text xml:space="preserve" text-anchor="middle" x="114.25" y="-110.95" font-family="Times,serif" font-size="14.00"> </text>
<polyline fill="none" stroke="lightgray" points="124.12,-98 124.12,-134"/>
<text xml:space="preserve" text-anchor="middle" x="135.5" y="-110.95" font-family="Times,serif" font-size="14.00">7</text>
<polyline fill="none" stroke="lightgray" points="146.88,-98 146.88,-134"/>
<text xml:space="preserve" text-anchor="middle" x="156.75" y="-110.95" font-family="Times,serif" font-size="14.00"> </text>
</g>
<!-- 4534519520&#45;&gt;4534520640 -->
<g id="edge4" class="edge">
<title>4534519520:r&#45;&gt;4534520640:v</title>
<path fill="none" stroke="black" d="M136.12,-170.5C136.12,-159.12 135.81,-153.82 135.63,-145.95"/>
<polygon fill="black" stroke="black" points="139.13,-145.97 135.52,-136.01 132.13,-146.05 139.13,-145.97"/>
</g>
<!-- 4534529376 -->
<g id="node6" class="node">
<title>4534529376</title>
<path fill="lightgray" stroke="lightgray" d="M196.38,-98C196.38,-98 234.62,-98 234.62,-98 240.62,-98 246.62,-104 246.62,-110 246.62,-110 246.62,-122 246.62,-122 246.62,-128 240.62,-134 234.62,-134 234.62,-134 196.38,-134 196.38,-134 190.38,-134 184.38,-128 184.38,-122 184.38,-122 184.38,-110 184.38,-110 184.38,-104 190.38,-98 196.38,-98"/>
<text xml:space="preserve" text-anchor="middle" x="194.25" y="-110.95" font-family="Times,serif" font-size="14.00"> </text>
<polyline fill="none" stroke="lightgray" points="204.12,-98 204.12,-134"/>
<text xml:space="preserve" text-anchor="middle" x="215.5" y="-110.95" font-family="Times,serif" font-size="14.00">4</text>
<polyline fill="none" stroke="lightgray" points="226.88,-98 226.88,-134"/>
<text xml:space="preserve" text-anchor="middle" x="236.75" y="-110.95" font-family="Times,serif" font-size="14.00"> </text>
</g>
<!-- 4534524000&#45;&gt;4534529376 -->
<g id="edge5" class="edge">
<title>4534524000:l&#45;&gt;4534529376:v</title>
<path fill="none" stroke="black" d="M214.88,-170.5C214.88,-159.12 215.19,-153.82 215.37,-145.95"/>
<polygon fill="black" stroke="black" points="218.87,-146.05 215.48,-136.01 211.87,-145.97 218.87,-146.05"/>
</g>
<!-- 4534521424 -->
<g id="node7" class="node">
<title>4534521424</title>
<path fill="lightgray" stroke="lightgray" d="M276.38,-98C276.38,-98 314.62,-98 314.62,-98 320.62,-98 326.62,-104 326.62,-110 326.62,-110 326.62,-122 326.62,-122 326.62,-128 320.62,-134 314.62,-134 314.62,-134 276.38,-134 276.38,-134 270.38,-134 264.38,-128 264.38,-122 264.38,-122 264.38,-110 264.38,-110 264.38,-104 270.38,-98 276.38,-98"/>
<text xml:space="preserve" text-anchor="middle" x="274.25" y="-110.95" font-family="Times,serif" font-size="14.00"> </text>
<polyline fill="none" stroke="lightgray" points="284.12,-98 284.12,-134"/>
<text xml:space="preserve" text-anchor="middle" x="295.5" y="-110.95" font-family="Times,serif" font-size="14.00">2</text>
<polyline fill="none" stroke="lightgray" points="306.88,-98 306.88,-134"/>
<text xml:space="preserve" text-anchor="middle" x="316.75" y="-110.95" font-family="Times,serif" font-size="14.00"> </text>
</g>
<!-- 4534524000&#45;&gt;4534521424 -->
<g id="edge6" class="edge">
<title>4534524000:r&#45;&gt;4534521424:v</title>
<path fill="none" stroke="black" d="M264.12,-170.5C264.12,-153.92 283.27,-154.23 291.65,-145.04"/>
<polygon fill="black" stroke="black" points="294.84,-146.52 294.98,-135.92 288.26,-144.11 294.84,-146.52"/>
</g>
<!-- 4534524560 -->
<g id="node8" class="node">
<title>4534524560</title>
<path fill="lightgray" stroke="green" d="M12,-25C12,-25 57,-25 57,-25 63,-25 69,-31 69,-37 69,-37 69,-49 69,-49 69,-55 63,-61 57,-61 57,-61 12,-61 12,-61 6,-61 0,-55 0,-49 0,-49 0,-37 0,-37 0,-31 6,-25 12,-25"/>
<text xml:space="preserve" text-anchor="middle" x="9.88" y="-37.95" font-family="Times,serif" font-size="14.00"> </text>
<polyline fill="none" stroke="green" points="19.75,-25 19.75,-61"/>
<text xml:space="preserve" text-anchor="middle" x="34.5" y="-37.95" font-family="Times,serif" font-size="14.00">20</text>
<polyline fill="none" stroke="green" points="49.25,-25 49.25,-61"/>
<text xml:space="preserve" text-anchor="middle" x="59.12" y="-37.95" font-family="Times,serif" font-size="14.00"> </text>
</g>
<!-- 4534522880&#45;&gt;4534524560 -->
<g id="edge7" class="edge">
<title>4534522880:l&#45;&gt;4534524560:v</title>
<path fill="none" stroke="black" d="M34.25,-97.5C34.25,-86.12 34.38,-80.82 34.45,-72.95"/>
<polygon fill="black" stroke="black" points="37.95,-73.03 34.49,-63.01 30.95,-73 37.95,-73.03"/>
</g>
</g>
</svg>
