<?xml version="1.0" encoding="UTF-8" standalone="no"?>
<!DOCTYPE svg PUBLIC "-//W3C//DTD SVG 1.1//EN"
 "http://www.w3.org/Graphics/SVG/1.1/DTD/svg11.dtd">
<!-- Generated by graphviz version 14.0.0 (20250921.2048)
 -->
<!-- Pages: 1 -->
<svg width="566pt" height="289pt"
 viewBox="0.00 0.00 566.00 289.00" xmlns="http://www.w3.org/2000/svg" xmlns:xlink="http://www.w3.org/1999/xlink">
<g id="graph0" class="graph" transform="scale(1 1) rotate(0) translate(4 284.5)">
<polygon fill="white" stroke="none" points="-4,4 -4,-284.5 562.25,-284.5 562.25,4 -4,4"/>
<text xml:space="preserve" text-anchor="middle" x="279.12" y="-7.2" font-family="Times,serif" font-size="14.00">MaxHeap [0, 13, 27, 10, 1, 17, 8, 9, 4, 12, 5, 16, 7, 3], heapsize: 14</text>
<!-- 4469872736 -->
<g id="node1" class="node">
<title>4469872736</title>
<path fill="lightgray" stroke="lightgray" d="M294,-244C294,-244 332.25,-244 332.25,-244 338.25,-244 344.25,-250 344.25,-256 344.25,-256 344.25,-268 344.25,-268 344.25,-274 338.25,-280 332.25,-280 332.25,-280 294,-280 294,-280 288,-280 282,-274 282,-268 282,-268 282,-256 282,-256 282,-250 288,-244 294,-244"/>
<text xml:space="preserve" text-anchor="middle" x="291.88" y="-256.95" font-family="Times,serif" font-size="14.00"> </text>
<polyline fill="none" stroke="lightgray" points="301.75,-244 301.75,-280"/>
<text xml:space="preserve" text-anchor="middle" x="313.12" y="-256.95" font-family="Times,serif" font-size="14.00">0</text>
<polyline fill="none" stroke="lightgray" points="324.5,-244 324.5,-280"/>
<text xml:space="preserve" text-anchor="middle" x="334.38" y="-256.95" font-family="Times,serif" font-size="14.00"> </text>
</g>
<!-- 4469874864 -->
<g id="node2" class="node">
<title>4469874864</title>
<path fill="lightgray" stroke="green" d="M202.62,-171C202.62,-171 247.62,-171 247.62,-171 253.62,-171 259.62,-177 259.62,-183 259.62,-183 259.62,-195 259.62,-195 259.62,-201 253.62,-207 247.62,-207 247.62,-207 202.62,-207 202.62,-207 196.62,-207 190.62,-201 190.62,-195 190.62,-195 190.62,-183 190.62,-183 190.62,-177 196.62,-171 202.62,-171"/>
<text xml:space="preserve" text-anchor="middle" x="200.5" y="-183.95" font-family="Times,serif" font-size="14.00"> </text>
<polyline fill="none" stroke="green" points="210.38,-171 210.38,-207"/>
<text xml:space="preserve" text-anchor="middle" x="225.12" y="-183.95" font-family="Times,serif" font-size="14.00">13</text>
<polyline fill="none" stroke="green" points="239.88,-171 239.88,-207"/>
<text xml:space="preserve" text-anchor="middle" x="249.75" y="-183.95" font-family="Times,serif" font-size="14.00"> </text>
</g>
<!-- 4469872736&#45;&gt;4469874864 -->
<g id="edge1" class="edge">
<title>4469872736:l&#45;&gt;4469874864:v</title>
<path fill="none" stroke="black" d="M291.88,-243.5C291.88,-214.53 242.58,-233.66 228.71,-218.22"/>
<polygon fill="black" stroke="black" points="232.1,-217.31 225.61,-208.94 225.46,-219.53 232.1,-217.31"/>
</g>
<!-- 4469874416 -->
<g id="node3" class="node">
<title>4469874416</title>
<path fill="lightgray" stroke="lightgray" d="M406.62,-171C406.62,-171 451.62,-171 451.62,-171 457.62,-171 463.62,-177 463.62,-183 463.62,-183 463.62,-195 463.62,-195 463.62,-201 457.62,-207 451.62,-207 451.62,-207 406.62,-207 406.62,-207 400.62,-207 394.62,-201 394.62,-195 394.62,-195 394.62,-183 394.62,-183 394.62,-177 400.62,-171 406.62,-171"/>
<text xml:space="preserve" text-anchor="middle" x="404.5" y="-183.95" font-family="Times,serif" font-size="14.00"> </text>
<polyline fill="none" stroke="lightgray" points="414.38,-171 414.38,-207"/>
<text xml:space="preserve" text-anchor="middle" x="429.12" y="-183.95" font-family="Times,serif" font-size="14.00">27</text>
<polyline fill="none" stroke="lightgray" points="443.88,-171 443.88,-207"/>
<text xml:space="preserve" text-anchor="middle" x="453.75" y="-183.95" font-family="Times,serif" font-size="14.00"> </text>
</g>
<!-- 4469872736&#45;&gt;4469874416 -->
<g id="edge2" class="edge">
<title>4469872736:r&#45;&gt;4469874416:v</title>
<path fill="none" stroke="black" d="M334.38,-243.5C334.38,-203.03 410.86,-242.58 426.39,-218.37"/>
<polygon fill="black" stroke="black" points="429.71,-219.52 428.76,-208.97 422.92,-217.81 429.71,-219.52"/>
</g>
<!-- 4469869824 -->
<g id="node4" class="node">
<title>4469869824</title>
<path fill="lightgray" stroke="lightgray" d="M64.62,-98C64.62,-98 109.62,-98 109.62,-98 115.62,-98 121.62,-104 121.62,-110 121.62,-110 121.62,-122 121.62,-122 121.62,-128 115.62,-134 109.62,-134 109.62,-134 64.62,-134 64.62,-134 58.62,-134 52.62,-128 52.62,-122 52.62,-122 52.62,-110 52.62,-110 52.62,-104 58.62,-98 64.62,-98"/>
<text xml:space="preserve" text-anchor="middle" x="62.5" y="-110.95" font-family="Times,serif" font-size="14.00"> </text>
<polyline fill="none" stroke="lightgray" points="72.38,-98 72.38,-134"/>
<text xml:space="preserve" text-anchor="middle" x="87.12" y="-110.95" font-family="Times,serif" font-size="14.00">10</text>
<polyline fill="none" stroke="lightgray" points="101.88,-98 101.88,-134"/>
<text xml:space="preserve" text-anchor="middle" x="111.75" y="-110.95" font-family="Times,serif" font-size="14.00"> </text>
</g>
<!-- 4469874864&#45;&gt;4469869824 -->
<g id="edge3" class="edge">
<title>4469874864:l&#45;&gt;4469869824:v</title>
<path fill="none" stroke="black" d="M200.5,-170.5C200.5,-122.18 105.77,-176.29 89.49,-145.57"/>
<polygon fill="black" stroke="black" points="92.96,-145.03 87.44,-135.98 86.11,-146.49 92.96,-145.03"/>
</g>
<!-- 4469875536 -->
<g id="node5" class="node">
<title>4469875536</title>
<path fill="lightgray" stroke="green" d="M218,-98C218,-98 256.25,-98 256.25,-98 262.25,-98 268.25,-104 268.25,-110 268.25,-110 268.25,-122 268.25,-122 268.25,-128 262.25,-134 256.25,-134 256.25,-134 218,-134 218,-134 212,-134 206,-128 206,-122 206,-122 206,-110 206,-110 206,-104 212,-98 218,-98"/>
<text xml:space="preserve" text-anchor="middle" x="215.88" y="-110.95" font-family="Times,serif" font-size="14.00"> </text>
<polyline fill="none" stroke="green" points="225.75,-98 225.75,-134"/>
<text xml:space="preserve" text-anchor="middle" x="237.12" y="-110.95" font-family="Times,serif" font-size="14.00">1</text>
<polyline fill="none" stroke="green" points="248.5,-98 248.5,-134"/>
<text xml:space="preserve" text-anchor="middle" x="258.38" y="-110.95" font-family="Times,serif" font-size="14.00"> </text>
</g>
<!-- 4469874864&#45;&gt;4469875536 -->
<g id="edge4" class="edge">
<title>4469874864:r&#45;&gt;4469875536:v</title>
<path fill="none" stroke="black" d="M249.75,-170.5C249.75,-158.18 243.09,-153.71 239.44,-145.68"/>
<polygon fill="black" stroke="black" points="242.89,-145.06 237.43,-135.98 236.03,-146.48 242.89,-145.06"/>
</g>
<!-- 4469874640 -->
<g id="node6" class="node">
<title>4469874640</title>
<path fill="lightgray" stroke="lightgray" d="M382.62,-98C382.62,-98 427.62,-98 427.62,-98 433.62,-98 439.62,-104 439.62,-110 439.62,-110 439.62,-122 439.62,-122 439.62,-128 433.62,-134 427.62,-134 427.62,-134 382.62,-134 382.62,-134 376.62,-134 370.62,-128 370.62,-122 370.62,-122 370.62,-110 370.62,-110 370.62,-104 376.62,-98 382.62,-98"/>
<text xml:space="preserve" text-anchor="middle" x="380.5" y="-110.95" font-family="Times,serif" font-size="14.00"> </text>
<polyline fill="none" stroke="lightgray" points="390.38,-98 390.38,-134"/>
<text xml:space="preserve" text-anchor="middle" x="405.12" y="-110.95" font-family="Times,serif" font-size="14.00">17</text>
<polyline fill="none" stroke="lightgray" points="419.88,-98 419.88,-134"/>
<text xml:space="preserve" text-anchor="middle" x="429.75" y="-110.95" font-family="Times,serif" font-size="14.00"> </text>
</g>
<!-- 4469874416&#45;&gt;4469874640 -->
<g id="edge5" class="edge">
<title>4469874416:l&#45;&gt;4469874640:v</title>
<path fill="none" stroke="black" d="M404.5,-170.5C404.5,-159.12 404.82,-153.82 405,-145.95"/>
<polygon fill="black" stroke="black" points="408.5,-146.05 405.11,-136.01 401.5,-145.97 408.5,-146.05"/>
</g>
<!-- 4469875312 -->
<g id="node7" class="node">
<title>4469875312</title>
<path fill="lightgray" stroke="lightgray" d="M508,-98C508,-98 546.25,-98 546.25,-98 552.25,-98 558.25,-104 558.25,-110 558.25,-110 558.25,-122 558.25,-122 558.25,-128 552.25,-134 546.25,-134 546.25,-134 508,-134 508,-134 502,-134 496,-128 496,-122 496,-122 496,-110 496,-110 496,-104 502,-98 508,-98"/>
<text xml:space="preserve" text-anchor="middle" x="505.88" y="-110.95" font-family="Times,serif" font-size="14.00"> </text>
<polyline fill="none" stroke="lightgray" points="515.75,-98 515.75,-134"/>
<text xml:space="preserve" text-anchor="middle" x="527.12" y="-110.95" font-family="Times,serif" font-size="14.00">8</text>
<polyline fill="none" stroke="lightgray" points="538.5,-98 538.5,-134"/>
<text xml:space="preserve" text-anchor="middle" x="548.38" y="-110.95" font-family="Times,serif" font-size="14.00"> </text>
</g>
<!-- 4469874416&#45;&gt;4469875312 -->
<g id="edge6" class="edge">
<title>4469874416:r&#45;&gt;4469875312:v</title>
<path fill="none" stroke="black" d="M453.75,-170.5C453.75,-139 508.93,-162.38 523.59,-145.45"/>
<polygon fill="black" stroke="black" points="526.92,-146.53 526.66,-135.94 520.25,-144.38 526.92,-146.53"/>
</g>
<!-- 4469875088 -->
<g id="node8" class="node">
<title>4469875088</title>
<path fill="lightgray" stroke="lightgray" d="M12,-25C12,-25 50.25,-25 50.25,-25 56.25,-25 62.25,-31 62.25,-37 62.25,-37 62.25,-49 62.25,-49 62.25,-55 56.25,-61 50.25,-61 50.25,-61 12,-61 12,-61 6,-61 0,-55 0,-49 0,-49 0,-37 0,-37 0,-31 6,-25 12,-25"/>
<text xml:space="preserve" text-anchor="middle" x="9.88" y="-37.95" font-family="Times,serif" font-size="14.00"> </text>
<polyline fill="none" stroke="lightgray" points="19.75,-25 19.75,-61"/>
<text xml:space="preserve" text-anchor="middle" x="31.12" y="-37.95" font-family="Times,serif" font-size="14.00">9</text>
<polyline fill="none" stroke="lightgray" points="42.5,-25 42.5,-61"/>
<text xml:space="preserve" text-anchor="middle" x="52.38" y="-37.95" font-family="Times,serif" font-size="14.00"> </text>
</g>
<!-- 4469869824&#45;&gt;4469875088 -->
<g id="edge7" class="edge">
<title>4469869824:l&#45;&gt;4469875088:v</title>
<path fill="none" stroke="black" d="M62.5,-97.5C62.5,-80.92 43.35,-81.23 34.97,-72.04"/>
<polygon fill="black" stroke="black" points="38.36,-71.11 31.64,-62.92 31.79,-73.52 38.36,-71.11"/>
</g>
<!-- 4469877664 -->
<g id="node9" class="node">
<title>4469877664</title>
<path fill="lightgray" stroke="lightgray" d="M92,-25C92,-25 130.25,-25 130.25,-25 136.25,-25 142.25,-31 142.25,-37 142.25,-37 142.25,-49 142.25,-49 142.25,-55 136.25,-61 130.25,-61 130.25,-61 92,-61 92,-61 86,-61 80,-55 80,-49 80,-49 80,-37 80,-37 80,-31 86,-25 92,-25"/>
<text xml:space="preserve" text-anchor="middle" x="89.88" y="-37.95" font-family="Times,serif" font-size="14.00"> </text>
<polyline fill="none" stroke="lightgray" points="99.75,-25 99.75,-61"/>
<text xml:space="preserve" text-anchor="middle" x="111.12" y="-37.95" font-family="Times,serif" font-size="14.00">4</text>
<polyline fill="none" stroke="lightgray" points="122.5,-25 122.5,-61"/>
<text xml:space="preserve" text-anchor="middle" x="132.38" y="-37.95" font-family="Times,serif" font-size="14.00"> </text>
</g>
<!-- 4469869824&#45;&gt;4469877664 -->
<g id="edge8" class="edge">
<title>4469869824:r&#45;&gt;4469877664:v</title>
<path fill="none" stroke="black" d="M111.75,-97.5C111.75,-86.12 111.43,-80.82 111.25,-72.95"/>
<polygon fill="black" stroke="black" points="114.75,-72.97 111.14,-63.01 107.75,-73.05 114.75,-72.97"/>
</g>
<!-- 4469875536&#45;&gt;4469874864 -->
<g id="edge14" class="edge">
<title>4469875536&#45;&gt;4469874864</title>
<path fill="none" stroke="green" d="M234.25,-134.03C232.95,-141.68 231.39,-150.92 229.93,-159.58"/>
<polygon fill="green" stroke="green" points="226.5,-158.88 228.28,-169.32 233.4,-160.04 226.5,-158.88"/>
</g>
<!-- 4469875648 -->
<g id="node10" class="node">
<title>4469875648</title>
<path fill="lightgray" stroke="lightgray" d="M172.62,-25C172.62,-25 217.62,-25 217.62,-25 223.62,-25 229.62,-31 229.62,-37 229.62,-37 229.62,-49 229.62,-49 229.62,-55 223.62,-61 217.62,-61 217.62,-61 172.62,-61 172.62,-61 166.62,-61 160.62,-55 160.62,-49 160.62,-49 160.62,-37 160.62,-37 160.62,-31 166.62,-25 172.62,-25"/>
<text xml:space="preserve" text-anchor="middle" x="170.5" y="-37.95" font-family="Times,serif" font-size="14.00"> </text>
<polyline fill="none" stroke="lightgray" points="180.38,-25 180.38,-61"/>
<text xml:space="preserve" text-anchor="middle" x="195.12" y="-37.95" font-family="Times,serif" font-size="14.00">12</text>
<polyline fill="none" stroke="lightgray" points="209.88,-25 209.88,-61"/>
<text xml:space="preserve" text-anchor="middle" x="219.75" y="-37.95" font-family="Times,serif" font-size="14.00"> </text>
</g>
<!-- 4469875536&#45;&gt;4469875648 -->
<g id="edge9" class="edge">
<title>4469875536:l&#45;&gt;4469875648:v</title>
<path fill="none" stroke="black" d="M215.88,-97.5C215.88,-83.65 204.2,-80.71 198.37,-72.32"/>
<polygon fill="black" stroke="black" points="201.78,-71.52 195.56,-62.95 195.08,-73.53 201.78,-71.52"/>
</g>
<!-- 4469875200 -->
<g id="node11" class="node">
<title>4469875200</title>
<path fill="lightgray" stroke="lightgray" d="M260,-25C260,-25 298.25,-25 298.25,-25 304.25,-25 310.25,-31 310.25,-37 310.25,-37 310.25,-49 310.25,-49 310.25,-55 304.25,-61 298.25,-61 298.25,-61 260,-61 260,-61 254,-61 248,-55 248,-49 248,-49 248,-37 248,-37 248,-31 254,-25 260,-25"/>
<text xml:space="preserve" text-anchor="middle" x="257.88" y="-37.95" font-family="Times,serif" font-size="14.00"> </text>
<polyline fill="none" stroke="lightgray" points="267.75,-25 267.75,-61"/>
<text xml:space="preserve" text-anchor="middle" x="279.12" y="-37.95" font-family="Times,serif" font-size="14.00">5</text>
<polyline fill="none" stroke="lightgray" points="290.5,-25 290.5,-61"/>
<text xml:space="preserve" text-anchor="middle" x="300.38" y="-37.95" font-family="Times,serif" font-size="14.00"> </text>
</g>
<!-- 4469875536&#45;&gt;4469875200 -->
<g id="edge10" class="edge">
<title>4469875536:r&#45;&gt;4469875200:v</title>
<path fill="none" stroke="black" d="M258.38,-97.5C258.38,-83.65 270.05,-80.71 275.88,-72.32"/>
<polygon fill="black" stroke="black" points="279.17,-73.53 278.69,-62.95 272.47,-71.52 279.17,-73.53"/>
</g>
<!-- 4469876768 -->
<g id="node12" class="node">
<title>4469876768</title>
<path fill="lightgray" stroke="lightgray" d="M340.62,-25C340.62,-25 385.62,-25 385.62,-25 391.62,-25 397.62,-31 397.62,-37 397.62,-37 397.62,-49 397.62,-49 397.62,-55 391.62,-61 385.62,-61 385.62,-61 340.62,-61 340.62,-61 334.62,-61 328.62,-55 328.62,-49 328.62,-49 328.62,-37 328.62,-37 328.62,-31 334.62,-25 340.62,-25"/>
<text xml:space="preserve" text-anchor="middle" x="338.5" y="-37.95" font-family="Times,serif" font-size="14.00"> </text>
<polyline fill="none" stroke="lightgray" points="348.38,-25 348.38,-61"/>
<text xml:space="preserve" text-anchor="middle" x="363.12" y="-37.95" font-family="Times,serif" font-size="14.00">16</text>
<polyline fill="none" stroke="lightgray" points="377.88,-25 377.88,-61"/>
<text xml:space="preserve" text-anchor="middle" x="387.75" y="-37.95" font-family="Times,serif" font-size="14.00"> </text>
</g>
<!-- 4469874640&#45;&gt;4469876768 -->
<g id="edge11" class="edge">
<title>4469874640:l&#45;&gt;4469876768:v</title>
<path fill="none" stroke="black" d="M380.5,-97.5C380.5,-84.31 370.93,-80.66 365.99,-72.38"/>
<polygon fill="black" stroke="black" points="369.44,-71.74 363.51,-62.96 362.68,-73.53 369.44,-71.74"/>
</g>
<!-- 4469874528 -->
<g id="node13" class="node">
<title>4469874528</title>
<path fill="lightgray" stroke="lightgray" d="M428,-25C428,-25 466.25,-25 466.25,-25 472.25,-25 478.25,-31 478.25,-37 478.25,-37 478.25,-49 478.25,-49 478.25,-55 472.25,-61 466.25,-61 466.25,-61 428,-61 428,-61 422,-61 416,-55 416,-49 416,-49 416,-37 416,-37 416,-31 422,-25 428,-25"/>
<text xml:space="preserve" text-anchor="middle" x="425.88" y="-37.95" font-family="Times,serif" font-size="14.00"> </text>
<polyline fill="none" stroke="lightgray" points="435.75,-25 435.75,-61"/>
<text xml:space="preserve" text-anchor="middle" x="447.12" y="-37.95" font-family="Times,serif" font-size="14.00">7</text>
<polyline fill="none" stroke="lightgray" points="458.5,-25 458.5,-61"/>
<text xml:space="preserve" text-anchor="middle" x="468.38" y="-37.95" font-family="Times,serif" font-size="14.00"> </text>
</g>
<!-- 4469874640&#45;&gt;4469874528 -->
<g id="edge12" class="edge">
<title>4469874640:r&#45;&gt;4469874528:v</title>
<path fill="none" stroke="black" d="M429.75,-97.5C429.75,-84.31 439.32,-80.66 444.26,-72.38"/>
<polygon fill="black" stroke="black" points="447.57,-73.53 446.74,-62.96 440.81,-71.74 447.57,-73.53"/>
</g>
<!-- 4469874976 -->
<g id="node14" class="node">
<title>4469874976</title>
<path fill="lightgray" stroke="lightgray" d="M508,-25C508,-25 546.25,-25 546.25,-25 552.25,-25 558.25,-31 558.25,-37 558.25,-37 558.25,-49 558.25,-49 558.25,-55 552.25,-61 546.25,-61 546.25,-61 508,-61 508,-61 502,-61 496,-55 496,-49 496,-49 496,-37 496,-37 496,-31 502,-25 508,-25"/>
<text xml:space="preserve" text-anchor="middle" x="505.88" y="-37.95" font-family="Times,serif" font-size="14.00"> </text>
<polyline fill="none" stroke="lightgray" points="515.75,-25 515.75,-61"/>
<text xml:space="preserve" text-anchor="middle" x="527.12" y="-37.95" font-family="Times,serif" font-size="14.00">3</text>
<polyline fill="none" stroke="lightgray" points="538.5,-25 538.5,-61"/>
<text xml:space="preserve" text-anchor="middle" x="548.38" y="-37.95" font-family="Times,serif" font-size="14.00"> </text>
</g>
<!-- 4469875312&#45;&gt;4469874976 -->
<g id="edge13" class="edge">
<title>4469875312:l&#45;&gt;4469874976:v</title>
<path fill="none" stroke="black" d="M505.88,-97.5C505.88,-83.57 517.83,-80.73 523.8,-72.35"/>
<polygon fill="black" stroke="black" points="527.1,-73.53 526.68,-62.95 520.41,-71.49 527.1,-73.53"/>
</g>
</g>
</svg>
