<?xml version="1.0" encoding="UTF-8" standalone="no"?>
<!DOCTYPE svg PUBLIC "-//W3C//DTD SVG 1.1//EN"
 "http://www.w3.org/Graphics/SVG/1.1/DTD/svg11.dtd">
<!-- Generated by graphviz version 14.0.0 (20250921.2048)
 -->
<!-- Pages: 1 -->
<svg width="171pt" height="216pt"
 viewBox="0.00 0.00 171.00 216.00" xmlns="http://www.w3.org/2000/svg" xmlns:xlink="http://www.w3.org/1999/xlink">
<g id="graph0" class="graph" transform="scale(1 1) rotate(0) translate(4 211.5)">
<polygon fill="white" stroke="none" points="-4,4 -4,-211.5 167.25,-211.5 167.25,4 -4,4"/>
<text xml:space="preserve" text-anchor="middle" x="81.62" y="-7.2" font-family="Times,serif" font-size="14.00">parents</text>
<!-- 4446419248 -->
<g id="node1" class="node">
<title>4446419248</title>
<path fill="lightgray" stroke="green" d="M73,-171C73,-171 111.25,-171 111.25,-171 117.25,-171 123.25,-177 123.25,-183 123.25,-183 123.25,-195 123.25,-195 123.25,-201 117.25,-207 111.25,-207 111.25,-207 73,-207 73,-207 67,-207 61,-201 61,-195 61,-195 61,-183 61,-183 61,-177 67,-171 73,-171"/>
<text xml:space="preserve" text-anchor="middle" x="70.88" y="-183.95" font-family="Times,serif" font-size="14.00"> </text>
<polyline fill="none" stroke="green" points="80.75,-171 80.75,-207"/>
<text xml:space="preserve" text-anchor="middle" x="92.12" y="-183.95" font-family="Times,serif" font-size="14.00">1</text>
<polyline fill="none" stroke="green" points="103.5,-171 103.5,-207"/>
<text xml:space="preserve" text-anchor="middle" x="113.38" y="-183.95" font-family="Times,serif" font-size="14.00"> </text>
</g>
<!-- 4446419360 -->
<g id="node2" class="node">
<title>4446419360</title>
<path fill="lightgray" stroke="green" d="M33,-98C33,-98 71.25,-98 71.25,-98 77.25,-98 83.25,-104 83.25,-110 83.25,-110 83.25,-122 83.25,-122 83.25,-128 77.25,-134 71.25,-134 71.25,-134 33,-134 33,-134 27,-134 21,-128 21,-122 21,-122 21,-110 21,-110 21,-104 27,-98 33,-98"/>
<text xml:space="preserve" text-anchor="middle" x="30.88" y="-110.95" font-family="Times,serif" font-size="14.00"> </text>
<polyline fill="none" stroke="green" points="40.75,-98 40.75,-134"/>
<text xml:space="preserve" text-anchor="middle" x="52.12" y="-110.95" font-family="Times,serif" font-size="14.00">2</text>
<polyline fill="none" stroke="green" points="63.5,-98 63.5,-134"/>
<text xml:space="preserve" text-anchor="middle" x="73.38" y="-110.95" font-family="Times,serif" font-size="14.00"> </text>
</g>
<!-- 4446419248&#45;&gt;4446419360 -->
<g id="edge1" class="edge">
<title>4446419248:l&#45;&gt;4446419360:v</title>
<path fill="none" stroke="black" d="M70.88,-170.5C70.88,-157.11 60.55,-153.7 55.22,-145.46"/>
<polygon fill="black" stroke="black" points="58.62,-144.63 52.54,-135.96 51.89,-146.53 58.62,-144.63"/>
</g>
<!-- 4446419920 -->
<g id="node3" class="node">
<title>4446419920</title>
<path fill="lightgray" stroke="lightgray" d="M113,-98C113,-98 151.25,-98 151.25,-98 157.25,-98 163.25,-104 163.25,-110 163.25,-110 163.25,-122 163.25,-122 163.25,-128 157.25,-134 151.25,-134 151.25,-134 113,-134 113,-134 107,-134 101,-128 101,-122 101,-122 101,-110 101,-110 101,-104 107,-98 113,-98"/>
<text xml:space="preserve" text-anchor="middle" x="110.88" y="-110.95" font-family="Times,serif" font-size="14.00"> </text>
<polyline fill="none" stroke="lightgray" points="120.75,-98 120.75,-134"/>
<text xml:space="preserve" text-anchor="middle" x="132.12" y="-110.95" font-family="Times,serif" font-size="14.00">3</text>
<polyline fill="none" stroke="lightgray" points="143.5,-98 143.5,-134"/>
<text xml:space="preserve" text-anchor="middle" x="153.38" y="-110.95" font-family="Times,serif" font-size="14.00"> </text>
</g>
<!-- 4446419248&#45;&gt;4446419920 -->
<g id="edge2" class="edge">
<title>4446419248:r&#45;&gt;4446419920:v</title>
<path fill="none" stroke="black" d="M113.38,-170.5C113.38,-157.11 123.7,-153.7 129.03,-145.46"/>
<polygon fill="black" stroke="black" points="132.36,-146.53 131.71,-135.96 125.63,-144.63 132.36,-146.53"/>
</g>
<!-- 4446419584 -->
<g id="node4" class="node">
<title>4446419584</title>
<path fill="lightgray" stroke="lightgray" d="M12,-25C12,-25 50.25,-25 50.25,-25 56.25,-25 62.25,-31 62.25,-37 62.25,-37 62.25,-49 62.25,-49 62.25,-55 56.25,-61 50.25,-61 50.25,-61 12,-61 12,-61 6,-61 0,-55 0,-49 0,-49 0,-37 0,-37 0,-31 6,-25 12,-25"/>
<text xml:space="preserve" text-anchor="middle" x="9.88" y="-37.95" font-family="Times,serif" font-size="14.00"> </text>
<polyline fill="none" stroke="lightgray" points="19.75,-25 19.75,-61"/>
<text xml:space="preserve" text-anchor="middle" x="31.12" y="-37.95" font-family="Times,serif" font-size="14.00">4</text>
<polyline fill="none" stroke="lightgray" points="42.5,-25 42.5,-61"/>
<text xml:space="preserve" text-anchor="middle" x="52.38" y="-37.95" font-family="Times,serif" font-size="14.00"> </text>
</g>
<!-- 4446419360&#45;&gt;4446419584 -->
<g id="edge3" class="edge">
<title>4446419360:l&#45;&gt;4446419584:v</title>
<path fill="none" stroke="black" d="M30.88,-97.5C30.88,-86.12 31,-80.82 31.07,-72.95"/>
<polygon fill="black" stroke="black" points="34.57,-73.03 31.12,-63.01 27.57,-73 34.57,-73.03"/>
</g>
</g>
</svg>
