<?xml version="1.0" encoding="UTF-8" standalone="no"?>
<!DOCTYPE svg PUBLIC "-//W3C//DTD SVG 1.1//EN"
 "http://www.w3.org/Graphics/SVG/1.1/DTD/svg11.dtd">
<!-- Generated by graphviz version 14.0.0 (20250921.2048)
 -->
<!-- Pages: 1 -->
<svg width="390pt" height="305pt"
 viewBox="0.00 0.00 390.00 305.00" xmlns="http://www.w3.org/2000/svg" xmlns:xlink="http://www.w3.org/1999/xlink">
<g id="graph0" class="graph" transform="scale(1 1) rotate(0) translate(4 301)">
<polygon fill="white" stroke="none" points="-4,4 -4,-301 386.25,-301 386.25,4 -4,4"/>
<text xml:space="preserve" text-anchor="middle" x="191.12" y="-23.7" font-family="Times,serif" font-size="14.00">ls.length = 10</text>
<text xml:space="preserve" text-anchor="middle" x="191.12" y="-7.2" font-family="Times,serif" font-size="14.00">first leaf = [5]</text>
<!-- 4464282544 -->
<g id="node1" class="node">
<title>4464282544</title>
<path fill="lightgray" stroke="lightgray" d="M212,-260.5C212,-260.5 250.25,-260.5 250.25,-260.5 256.25,-260.5 262.25,-266.5 262.25,-272.5 262.25,-272.5 262.25,-284.5 262.25,-284.5 262.25,-290.5 256.25,-296.5 250.25,-296.5 250.25,-296.5 212,-296.5 212,-296.5 206,-296.5 200,-290.5 200,-284.5 200,-284.5 200,-272.5 200,-272.5 200,-266.5 206,-260.5 212,-260.5"/>
<text xml:space="preserve" text-anchor="middle" x="209.88" y="-273.45" font-family="Times,serif" font-size="14.00"> </text>
<polyline fill="none" stroke="lightgray" points="219.75,-260.5 219.75,-296.5"/>
<text xml:space="preserve" text-anchor="middle" x="231.12" y="-273.45" font-family="Times,serif" font-size="14.00">0</text>
<polyline fill="none" stroke="lightgray" points="242.5,-260.5 242.5,-296.5"/>
<text xml:space="preserve" text-anchor="middle" x="252.38" y="-273.45" font-family="Times,serif" font-size="14.00"> </text>
</g>
<!-- 4464282656 -->
<g id="node2" class="node">
<title>4464282656</title>
<path fill="lightgray" stroke="lightgray" d="M151,-187.5C151,-187.5 189.25,-187.5 189.25,-187.5 195.25,-187.5 201.25,-193.5 201.25,-199.5 201.25,-199.5 201.25,-211.5 201.25,-211.5 201.25,-217.5 195.25,-223.5 189.25,-223.5 189.25,-223.5 151,-223.5 151,-223.5 145,-223.5 139,-217.5 139,-211.5 139,-211.5 139,-199.5 139,-199.5 139,-193.5 145,-187.5 151,-187.5"/>
<text xml:space="preserve" text-anchor="middle" x="148.88" y="-200.45" font-family="Times,serif" font-size="14.00"> </text>
<polyline fill="none" stroke="lightgray" points="158.75,-187.5 158.75,-223.5"/>
<text xml:space="preserve" text-anchor="middle" x="170.12" y="-200.45" font-family="Times,serif" font-size="14.00">1</text>
<polyline fill="none" stroke="lightgray" points="181.5,-187.5 181.5,-223.5"/>
<text xml:space="preserve" text-anchor="middle" x="191.38" y="-200.45" font-family="Times,serif" font-size="14.00"> </text>
</g>
<!-- 4464282544&#45;&gt;4464282656 -->
<g id="edge1" class="edge">
<title>4464282544:l&#45;&gt;4464282656:v</title>
<path fill="none" stroke="black" d="M209.88,-260C209.88,-240.82 184.14,-244.63 174.08,-234.43"/>
<polygon fill="black" stroke="black" points="177.48,-233.52 170.66,-225.42 170.94,-236.01 177.48,-233.52"/>
</g>
<!-- 4486165488 -->
<g id="node3" class="node">
<title>4486165488</title>
<path fill="lightgray" stroke="lightgray" d="M273,-187.5C273,-187.5 311.25,-187.5 311.25,-187.5 317.25,-187.5 323.25,-193.5 323.25,-199.5 323.25,-199.5 323.25,-211.5 323.25,-211.5 323.25,-217.5 317.25,-223.5 311.25,-223.5 311.25,-223.5 273,-223.5 273,-223.5 267,-223.5 261,-217.5 261,-211.5 261,-211.5 261,-199.5 261,-199.5 261,-193.5 267,-187.5 273,-187.5"/>
<text xml:space="preserve" text-anchor="middle" x="270.88" y="-200.45" font-family="Times,serif" font-size="14.00"> </text>
<polyline fill="none" stroke="lightgray" points="280.75,-187.5 280.75,-223.5"/>
<text xml:space="preserve" text-anchor="middle" x="292.12" y="-200.45" font-family="Times,serif" font-size="14.00">2</text>
<polyline fill="none" stroke="lightgray" points="303.5,-187.5 303.5,-223.5"/>
<text xml:space="preserve" text-anchor="middle" x="313.38" y="-200.45" font-family="Times,serif" font-size="14.00"> </text>
</g>
<!-- 4464282544&#45;&gt;4486165488 -->
<g id="edge2" class="edge">
<title>4464282544:r&#45;&gt;4486165488:v</title>
<path fill="none" stroke="black" d="M252.38,-260C252.38,-240.82 278.11,-244.63 288.17,-234.43"/>
<polygon fill="black" stroke="black" points="291.31,-236.01 291.59,-225.42 284.77,-233.52 291.31,-236.01"/>
</g>
<!-- 4495592032 -->
<g id="node4" class="node">
<title>4495592032</title>
<path fill="lightgray" stroke="lightgray" d="M71,-114.5C71,-114.5 109.25,-114.5 109.25,-114.5 115.25,-114.5 121.25,-120.5 121.25,-126.5 121.25,-126.5 121.25,-138.5 121.25,-138.5 121.25,-144.5 115.25,-150.5 109.25,-150.5 109.25,-150.5 71,-150.5 71,-150.5 65,-150.5 59,-144.5 59,-138.5 59,-138.5 59,-126.5 59,-126.5 59,-120.5 65,-114.5 71,-114.5"/>
<text xml:space="preserve" text-anchor="middle" x="68.88" y="-127.45" font-family="Times,serif" font-size="14.00"> </text>
<polyline fill="none" stroke="lightgray" points="78.75,-114.5 78.75,-150.5"/>
<text xml:space="preserve" text-anchor="middle" x="90.12" y="-127.45" font-family="Times,serif" font-size="14.00">3</text>
<polyline fill="none" stroke="lightgray" points="101.5,-114.5 101.5,-150.5"/>
<text xml:space="preserve" text-anchor="middle" x="111.38" y="-127.45" font-family="Times,serif" font-size="14.00"> </text>
</g>
<!-- 4464282656&#45;&gt;4495592032 -->
<g id="edge3" class="edge">
<title>4464282656:l&#45;&gt;4495592032:v</title>
<path fill="none" stroke="black" d="M148.88,-187C148.88,-161.16 107.05,-175.1 93.98,-161.69"/>
<polygon fill="black" stroke="black" points="97.32,-160.64 90.64,-152.42 90.74,-163.02 97.32,-160.64"/>
</g>
<!-- 4495591696 -->
<g id="node5" class="node">
<title>4495591696</title>
<path fill="lightgray" stroke="lightgray" d="M172,-114.5C172,-114.5 210.25,-114.5 210.25,-114.5 216.25,-114.5 222.25,-120.5 222.25,-126.5 222.25,-126.5 222.25,-138.5 222.25,-138.5 222.25,-144.5 216.25,-150.5 210.25,-150.5 210.25,-150.5 172,-150.5 172,-150.5 166,-150.5 160,-144.5 160,-138.5 160,-138.5 160,-126.5 160,-126.5 160,-120.5 166,-114.5 172,-114.5"/>
<text xml:space="preserve" text-anchor="middle" x="169.88" y="-127.45" font-family="Times,serif" font-size="14.00"> </text>
<polyline fill="none" stroke="lightgray" points="179.75,-114.5 179.75,-150.5"/>
<text xml:space="preserve" text-anchor="middle" x="191.12" y="-127.45" font-family="Times,serif" font-size="14.00">4</text>
<polyline fill="none" stroke="lightgray" points="202.5,-114.5 202.5,-150.5"/>
<text xml:space="preserve" text-anchor="middle" x="212.38" y="-127.45" font-family="Times,serif" font-size="14.00"> </text>
</g>
<!-- 4464282656&#45;&gt;4495591696 -->
<g id="edge4" class="edge">
<title>4464282656:r&#45;&gt;4495591696:v</title>
<path fill="none" stroke="black" d="M191.38,-187C191.38,-175.62 191.25,-170.32 191.18,-162.45"/>
<polygon fill="black" stroke="black" points="194.68,-162.5 191.13,-152.51 187.68,-162.53 194.68,-162.5"/>
</g>
<!-- 4495591024 -->
<g id="node6" class="node">
<title>4495591024</title>
<path fill="lightgray" stroke="green" d="M252,-114.5C252,-114.5 290.25,-114.5 290.25,-114.5 296.25,-114.5 302.25,-120.5 302.25,-126.5 302.25,-126.5 302.25,-138.5 302.25,-138.5 302.25,-144.5 296.25,-150.5 290.25,-150.5 290.25,-150.5 252,-150.5 252,-150.5 246,-150.5 240,-144.5 240,-138.5 240,-138.5 240,-126.5 240,-126.5 240,-120.5 246,-114.5 252,-114.5"/>
<text xml:space="preserve" text-anchor="middle" x="249.88" y="-127.45" font-family="Times,serif" font-size="14.00"> </text>
<polyline fill="none" stroke="green" points="259.75,-114.5 259.75,-150.5"/>
<text xml:space="preserve" text-anchor="middle" x="271.12" y="-127.45" font-family="Times,serif" font-size="14.00">5</text>
<polyline fill="none" stroke="green" points="282.5,-114.5 282.5,-150.5"/>
<text xml:space="preserve" text-anchor="middle" x="292.38" y="-127.45" font-family="Times,serif" font-size="14.00"> </text>
</g>
<!-- 4486165488&#45;&gt;4495591024 -->
<g id="edge5" class="edge">
<title>4486165488:l&#45;&gt;4495591024:v</title>
<path fill="none" stroke="black" d="M270.88,-187C270.88,-175.62 271,-170.32 271.07,-162.45"/>
<polygon fill="black" stroke="black" points="274.57,-162.53 271.12,-152.51 267.57,-162.5 274.57,-162.53"/>
</g>
<!-- 4495590912 -->
<g id="node7" class="node">
<title>4495590912</title>
<path fill="lightgray" stroke="green" d="M332,-114.5C332,-114.5 370.25,-114.5 370.25,-114.5 376.25,-114.5 382.25,-120.5 382.25,-126.5 382.25,-126.5 382.25,-138.5 382.25,-138.5 382.25,-144.5 376.25,-150.5 370.25,-150.5 370.25,-150.5 332,-150.5 332,-150.5 326,-150.5 320,-144.5 320,-138.5 320,-138.5 320,-126.5 320,-126.5 320,-120.5 326,-114.5 332,-114.5"/>
<text xml:space="preserve" text-anchor="middle" x="329.88" y="-127.45" font-family="Times,serif" font-size="14.00"> </text>
<polyline fill="none" stroke="green" points="339.75,-114.5 339.75,-150.5"/>
<text xml:space="preserve" text-anchor="middle" x="351.12" y="-127.45" font-family="Times,serif" font-size="14.00">6</text>
<polyline fill="none" stroke="green" points="362.5,-114.5 362.5,-150.5"/>
<text xml:space="preserve" text-anchor="middle" x="372.38" y="-127.45" font-family="Times,serif" font-size="14.00"> </text>
</g>
<!-- 4486165488&#45;&gt;4495590912 -->
<g id="edge6" class="edge">
<title>4486165488:r&#45;&gt;4495590912:v</title>
<path fill="none" stroke="black" d="M313.38,-187C313.38,-168.53 337.35,-171.36 347.09,-161.54"/>
<polygon fill="black" stroke="black" points="350.27,-163 350.58,-152.41 343.74,-160.5 350.27,-163"/>
</g>
<!-- 4495591920 -->
<g id="node8" class="node">
<title>4495591920</title>
<path fill="lightgray" stroke="green" d="M12,-41.5C12,-41.5 50.25,-41.5 50.25,-41.5 56.25,-41.5 62.25,-47.5 62.25,-53.5 62.25,-53.5 62.25,-65.5 62.25,-65.5 62.25,-71.5 56.25,-77.5 50.25,-77.5 50.25,-77.5 12,-77.5 12,-77.5 6,-77.5 0,-71.5 0,-65.5 0,-65.5 0,-53.5 0,-53.5 0,-47.5 6,-41.5 12,-41.5"/>
<text xml:space="preserve" text-anchor="middle" x="9.88" y="-54.45" font-family="Times,serif" font-size="14.00"> </text>
<polyline fill="none" stroke="green" points="19.75,-41.5 19.75,-77.5"/>
<text xml:space="preserve" text-anchor="middle" x="31.12" y="-54.45" font-family="Times,serif" font-size="14.00">7</text>
<polyline fill="none" stroke="green" points="42.5,-41.5 42.5,-77.5"/>
<text xml:space="preserve" text-anchor="middle" x="52.38" y="-54.45" font-family="Times,serif" font-size="14.00"> </text>
</g>
<!-- 4495592032&#45;&gt;4495591920 -->
<g id="edge7" class="edge">
<title>4495592032:l&#45;&gt;4495591920:v</title>
<path fill="none" stroke="black" d="M68.88,-114C68.88,-95.53 44.9,-98.36 35.16,-88.54"/>
<polygon fill="black" stroke="black" points="38.51,-87.5 31.67,-79.41 31.98,-90 38.51,-87.5"/>
</g>
<!-- 4495591584 -->
<g id="node9" class="node">
<title>4495591584</title>
<path fill="lightgray" stroke="green" d="M92,-41.5C92,-41.5 130.25,-41.5 130.25,-41.5 136.25,-41.5 142.25,-47.5 142.25,-53.5 142.25,-53.5 142.25,-65.5 142.25,-65.5 142.25,-71.5 136.25,-77.5 130.25,-77.5 130.25,-77.5 92,-77.5 92,-77.5 86,-77.5 80,-71.5 80,-65.5 80,-65.5 80,-53.5 80,-53.5 80,-47.5 86,-41.5 92,-41.5"/>
<text xml:space="preserve" text-anchor="middle" x="89.88" y="-54.45" font-family="Times,serif" font-size="14.00"> </text>
<polyline fill="none" stroke="green" points="99.75,-41.5 99.75,-77.5"/>
<text xml:space="preserve" text-anchor="middle" x="111.12" y="-54.45" font-family="Times,serif" font-size="14.00">8</text>
<polyline fill="none" stroke="green" points="122.5,-41.5 122.5,-77.5"/>
<text xml:space="preserve" text-anchor="middle" x="132.38" y="-54.45" font-family="Times,serif" font-size="14.00"> </text>
</g>
<!-- 4495592032&#45;&gt;4495591584 -->
<g id="edge8" class="edge">
<title>4495592032:r&#45;&gt;4495591584:v</title>
<path fill="none" stroke="black" d="M111.38,-114C111.38,-102.62 111.25,-97.32 111.18,-89.45"/>
<polygon fill="black" stroke="black" points="114.68,-89.5 111.13,-79.51 107.68,-89.53 114.68,-89.5"/>
</g>
<!-- 4495591808 -->
<g id="node10" class="node">
<title>4495591808</title>
<path fill="lightgray" stroke="green" d="M172,-41.5C172,-41.5 210.25,-41.5 210.25,-41.5 216.25,-41.5 222.25,-47.5 222.25,-53.5 222.25,-53.5 222.25,-65.5 222.25,-65.5 222.25,-71.5 216.25,-77.5 210.25,-77.5 210.25,-77.5 172,-77.5 172,-77.5 166,-77.5 160,-71.5 160,-65.5 160,-65.5 160,-53.5 160,-53.5 160,-47.5 166,-41.5 172,-41.5"/>
<text xml:space="preserve" text-anchor="middle" x="169.88" y="-54.45" font-family="Times,serif" font-size="14.00"> </text>
<polyline fill="none" stroke="green" points="179.75,-41.5 179.75,-77.5"/>
<text xml:space="preserve" text-anchor="middle" x="191.12" y="-54.45" font-family="Times,serif" font-size="14.00">9</text>
<polyline fill="none" stroke="green" points="202.5,-41.5 202.5,-77.5"/>
<text xml:space="preserve" text-anchor="middle" x="212.38" y="-54.45" font-family="Times,serif" font-size="14.00"> </text>
</g>
<!-- 4495591696&#45;&gt;4495591808 -->
<g id="edge9" class="edge">
<title>4495591696:l&#45;&gt;4495591808:v</title>
<path fill="none" stroke="black" d="M169.88,-114C169.88,-100.07 181.83,-97.23 187.8,-88.85"/>
<polygon fill="black" stroke="black" points="191.1,-90.03 190.68,-79.45 184.41,-87.99 191.1,-90.03"/>
</g>
</g>
</svg>
