<?xml version="1.0" encoding="UTF-8" standalone="no"?>
<!DOCTYPE svg PUBLIC "-//W3C//DTD SVG 1.1//EN"
 "http://www.w3.org/Graphics/SVG/1.1/DTD/svg11.dtd">
<!-- Generated by graphviz version 14.0.0 (20250921.2048)
 -->
<!-- Pages: 1 -->
<svg width="586pt" height="289pt"
 viewBox="0.00 0.00 586.00 289.00" xmlns="http://www.w3.org/2000/svg" xmlns:xlink="http://www.w3.org/1999/xlink">
<g id="graph0" class="graph" transform="scale(1 1) rotate(0) translate(4 284.5)">
<polygon fill="white" stroke="none" points="-4,4 -4,-284.5 581.62,-284.5 581.62,4 -4,4"/>
<text xml:space="preserve" text-anchor="middle" x="288.81" y="-7.2" font-family="Times,serif" font-size="14.00">MaxHeap [0, 1, 3, 4, 5, 17, 27, 9, 10, 12, 13, 16, 7, 8], heapsize: 14</text>
<!-- 4534520864 -->
<g id="node1" class="node">
<title>4534520864</title>
<path fill="lightgray" stroke="lightgray" d="M293,-244C293,-244 331.25,-244 331.25,-244 337.25,-244 343.25,-250 343.25,-256 343.25,-256 343.25,-268 343.25,-268 343.25,-274 337.25,-280 331.25,-280 331.25,-280 293,-280 293,-280 287,-280 281,-274 281,-268 281,-268 281,-256 281,-256 281,-250 287,-244 293,-244"/>
<text xml:space="preserve" text-anchor="middle" x="290.88" y="-256.95" font-family="Times,serif" font-size="14.00"> </text>
<polyline fill="none" stroke="lightgray" points="300.75,-244 300.75,-280"/>
<text xml:space="preserve" text-anchor="middle" x="312.12" y="-256.95" font-family="Times,serif" font-size="14.00">0</text>
<polyline fill="none" stroke="lightgray" points="323.5,-244 323.5,-280"/>
<text xml:space="preserve" text-anchor="middle" x="333.38" y="-256.95" font-family="Times,serif" font-size="14.00"> </text>
</g>
<!-- 4534521536 -->
<g id="node2" class="node">
<title>4534521536</title>
<path fill="lightgray" stroke="lightgray" d="M206,-171C206,-171 244.25,-171 244.25,-171 250.25,-171 256.25,-177 256.25,-183 256.25,-183 256.25,-195 256.25,-195 256.25,-201 250.25,-207 244.25,-207 244.25,-207 206,-207 206,-207 200,-207 194,-201 194,-195 194,-195 194,-183 194,-183 194,-177 200,-171 206,-171"/>
<text xml:space="preserve" text-anchor="middle" x="203.88" y="-183.95" font-family="Times,serif" font-size="14.00"> </text>
<polyline fill="none" stroke="lightgray" points="213.75,-171 213.75,-207"/>
<text xml:space="preserve" text-anchor="middle" x="225.12" y="-183.95" font-family="Times,serif" font-size="14.00">1</text>
<polyline fill="none" stroke="lightgray" points="236.5,-171 236.5,-207"/>
<text xml:space="preserve" text-anchor="middle" x="246.38" y="-183.95" font-family="Times,serif" font-size="14.00"> </text>
</g>
<!-- 4534520864&#45;&gt;4534521536 -->
<g id="edge1" class="edge">
<title>4534520864:l&#45;&gt;4534521536:v</title>
<path fill="none" stroke="black" d="M290.88,-243.5C290.88,-214.87 242.32,-233.47 228.66,-218.12"/>
<polygon fill="black" stroke="black" points="232.08,-217.32 225.6,-208.94 225.44,-219.53 232.08,-217.32"/>
</g>
<!-- 4534522320 -->
<g id="node3" class="node">
<title>4534522320</title>
<path fill="lightgray" stroke="lightgray" d="M420,-171C420,-171 458.25,-171 458.25,-171 464.25,-171 470.25,-177 470.25,-183 470.25,-183 470.25,-195 470.25,-195 470.25,-201 464.25,-207 458.25,-207 458.25,-207 420,-207 420,-207 414,-207 408,-201 408,-195 408,-195 408,-183 408,-183 408,-177 414,-171 420,-171"/>
<text xml:space="preserve" text-anchor="middle" x="417.88" y="-183.95" font-family="Times,serif" font-size="14.00"> </text>
<polyline fill="none" stroke="lightgray" points="427.75,-171 427.75,-207"/>
<text xml:space="preserve" text-anchor="middle" x="439.12" y="-183.95" font-family="Times,serif" font-size="14.00">3</text>
<polyline fill="none" stroke="lightgray" points="450.5,-171 450.5,-207"/>
<text xml:space="preserve" text-anchor="middle" x="460.38" y="-183.95" font-family="Times,serif" font-size="14.00"> </text>
</g>
<!-- 4534520864&#45;&gt;4534522320 -->
<g id="edge2" class="edge">
<title>4534520864:r&#45;&gt;4534522320:v</title>
<path fill="none" stroke="black" d="M333.38,-243.5C333.38,-198.51 420.23,-246.27 436.51,-218.67"/>
<polygon fill="black" stroke="black" points="439.91,-219.51 438.78,-208.97 433.09,-217.91 439.91,-219.51"/>
</g>
<!-- 4534521984 -->
<g id="node4" class="node">
<title>4534521984</title>
<path fill="lightgray" stroke="lightgray" d="M75,-98C75,-98 113.25,-98 113.25,-98 119.25,-98 125.25,-104 125.25,-110 125.25,-110 125.25,-122 125.25,-122 125.25,-128 119.25,-134 113.25,-134 113.25,-134 75,-134 75,-134 69,-134 63,-128 63,-122 63,-122 63,-110 63,-110 63,-104 69,-98 75,-98"/>
<text xml:space="preserve" text-anchor="middle" x="72.88" y="-110.95" font-family="Times,serif" font-size="14.00"> </text>
<polyline fill="none" stroke="lightgray" points="82.75,-98 82.75,-134"/>
<text xml:space="preserve" text-anchor="middle" x="94.12" y="-110.95" font-family="Times,serif" font-size="14.00">4</text>
<polyline fill="none" stroke="lightgray" points="105.5,-98 105.5,-134"/>
<text xml:space="preserve" text-anchor="middle" x="115.38" y="-110.95" font-family="Times,serif" font-size="14.00"> </text>
</g>
<!-- 4534521536&#45;&gt;4534521984 -->
<g id="edge3" class="edge">
<title>4534521536:l&#45;&gt;4534521984:v</title>
<path fill="none" stroke="black" d="M203.88,-170.5C203.88,-123.78 112.96,-174.81 96.62,-145.65"/>
<polygon fill="black" stroke="black" points="100.06,-144.97 94.46,-135.98 93.23,-146.5 100.06,-144.97"/>
</g>
<!-- 4534520752 -->
<g id="node5" class="node">
<title>4534520752</title>
<path fill="lightgray" stroke="lightgray" d="M227,-98C227,-98 265.25,-98 265.25,-98 271.25,-98 277.25,-104 277.25,-110 277.25,-110 277.25,-122 277.25,-122 277.25,-128 271.25,-134 265.25,-134 265.25,-134 227,-134 227,-134 221,-134 215,-128 215,-122 215,-122 215,-110 215,-110 215,-104 221,-98 227,-98"/>
<text xml:space="preserve" text-anchor="middle" x="224.88" y="-110.95" font-family="Times,serif" font-size="14.00"> </text>
<polyline fill="none" stroke="lightgray" points="234.75,-98 234.75,-134"/>
<text xml:space="preserve" text-anchor="middle" x="246.12" y="-110.95" font-family="Times,serif" font-size="14.00">5</text>
<polyline fill="none" stroke="lightgray" points="257.5,-98 257.5,-134"/>
<text xml:space="preserve" text-anchor="middle" x="267.38" y="-110.95" font-family="Times,serif" font-size="14.00"> </text>
</g>
<!-- 4534521536&#45;&gt;4534520752 -->
<g id="edge4" class="edge">
<title>4534521536:r&#45;&gt;4534520752:v</title>
<path fill="none" stroke="black" d="M246.38,-170.5C246.38,-159.12 246.25,-153.82 246.18,-145.95"/>
<polygon fill="black" stroke="black" points="249.68,-146 246.13,-136.01 242.68,-146.03 249.68,-146"/>
</g>
<!-- 4534524560 -->
<g id="node6" class="node">
<title>4534524560</title>
<path fill="lightgray" stroke="green" d="M395.62,-98C395.62,-98 440.62,-98 440.62,-98 446.62,-98 452.62,-104 452.62,-110 452.62,-110 452.62,-122 452.62,-122 452.62,-128 446.62,-134 440.62,-134 440.62,-134 395.62,-134 395.62,-134 389.62,-134 383.62,-128 383.62,-122 383.62,-122 383.62,-110 383.62,-110 383.62,-104 389.62,-98 395.62,-98"/>
<text xml:space="preserve" text-anchor="middle" x="393.5" y="-110.95" font-family="Times,serif" font-size="14.00"> </text>
<polyline fill="none" stroke="green" points="403.38,-98 403.38,-134"/>
<text xml:space="preserve" text-anchor="middle" x="418.12" y="-110.95" font-family="Times,serif" font-size="14.00">17</text>
<polyline fill="none" stroke="green" points="432.88,-98 432.88,-134"/>
<text xml:space="preserve" text-anchor="middle" x="442.75" y="-110.95" font-family="Times,serif" font-size="14.00"> </text>
</g>
<!-- 4534522320&#45;&gt;4534524560 -->
<g id="edge5" class="edge">
<title>4534522320:l&#45;&gt;4534524560:v</title>
<path fill="none" stroke="black" d="M417.88,-170.5C417.88,-159.12 418,-153.82 418.07,-145.95"/>
<polygon fill="black" stroke="black" points="421.57,-146.03 418.12,-136.01 414.57,-146 421.57,-146.03"/>
</g>
<!-- 4534518624 -->
<g id="node7" class="node">
<title>4534518624</title>
<path fill="lightgray" stroke="lightgray" d="M520.62,-98C520.62,-98 565.62,-98 565.62,-98 571.62,-98 577.62,-104 577.62,-110 577.62,-110 577.62,-122 577.62,-122 577.62,-128 571.62,-134 565.62,-134 565.62,-134 520.62,-134 520.62,-134 514.62,-134 508.62,-128 508.62,-122 508.62,-122 508.62,-110 508.62,-110 508.62,-104 514.62,-98 520.62,-98"/>
<text xml:space="preserve" text-anchor="middle" x="518.5" y="-110.95" font-family="Times,serif" font-size="14.00"> </text>
<polyline fill="none" stroke="lightgray" points="528.38,-98 528.38,-134"/>
<text xml:space="preserve" text-anchor="middle" x="543.12" y="-110.95" font-family="Times,serif" font-size="14.00">27</text>
<polyline fill="none" stroke="lightgray" points="557.88,-98 557.88,-134"/>
<text xml:space="preserve" text-anchor="middle" x="567.75" y="-110.95" font-family="Times,serif" font-size="14.00"> </text>
</g>
<!-- 4534522320&#45;&gt;4534518624 -->
<g id="edge6" class="edge">
<title>4534522320:r&#45;&gt;4534518624:v</title>
<path fill="none" stroke="black" d="M460.38,-170.5C460.38,-135.09 524.87,-165.4 539.98,-145.4"/>
<polygon fill="black" stroke="black" points="543.3,-146.53 542.71,-135.95 536.57,-144.59 543.3,-146.53"/>
</g>
<!-- 4534521648 -->
<g id="node8" class="node">
<title>4534521648</title>
<path fill="lightgray" stroke="lightgray" d="M12,-25C12,-25 50.25,-25 50.25,-25 56.25,-25 62.25,-31 62.25,-37 62.25,-37 62.25,-49 62.25,-49 62.25,-55 56.25,-61 50.25,-61 50.25,-61 12,-61 12,-61 6,-61 0,-55 0,-49 0,-49 0,-37 0,-37 0,-31 6,-25 12,-25"/>
<text xml:space="preserve" text-anchor="middle" x="9.88" y="-37.95" font-family="Times,serif" font-size="14.00"> </text>
<polyline fill="none" stroke="lightgray" points="19.75,-25 19.75,-61"/>
<text xml:space="preserve" text-anchor="middle" x="31.12" y="-37.95" font-family="Times,serif" font-size="14.00">9</text>
<polyline fill="none" stroke="lightgray" points="42.5,-25 42.5,-61"/>
<text xml:space="preserve" text-anchor="middle" x="52.38" y="-37.95" font-family="Times,serif" font-size="14.00"> </text>
</g>
<!-- 4534521984&#45;&gt;4534521648 -->
<g id="edge7" class="edge">
<title>4534521984:l&#45;&gt;4534521648:v</title>
<path fill="none" stroke="black" d="M72.88,-97.5C72.88,-77.78 45.84,-82.35 35.28,-72.12"/>
<polygon fill="black" stroke="black" points="38.58,-70.95 31.68,-62.91 32.06,-73.5 38.58,-70.95"/>
</g>
<!-- 4534521872 -->
<g id="node9" class="node">
<title>4534521872</title>
<path fill="lightgray" stroke="lightgray" d="M92.62,-25C92.62,-25 137.62,-25 137.62,-25 143.62,-25 149.62,-31 149.62,-37 149.62,-37 149.62,-49 149.62,-49 149.62,-55 143.62,-61 137.62,-61 137.62,-61 92.62,-61 92.62,-61 86.62,-61 80.62,-55 80.62,-49 80.62,-49 80.62,-37 80.62,-37 80.62,-31 86.62,-25 92.62,-25"/>
<text xml:space="preserve" text-anchor="middle" x="90.5" y="-37.95" font-family="Times,serif" font-size="14.00"> </text>
<polyline fill="none" stroke="lightgray" points="100.38,-25 100.38,-61"/>
<text xml:space="preserve" text-anchor="middle" x="115.12" y="-37.95" font-family="Times,serif" font-size="14.00">10</text>
<polyline fill="none" stroke="lightgray" points="129.88,-25 129.88,-61"/>
<text xml:space="preserve" text-anchor="middle" x="139.75" y="-37.95" font-family="Times,serif" font-size="14.00"> </text>
</g>
<!-- 4534521984&#45;&gt;4534521872 -->
<g id="edge8" class="edge">
<title>4534521984:r&#45;&gt;4534521872:v</title>
<path fill="none" stroke="black" d="M115.38,-97.5C115.38,-86.12 115.25,-80.82 115.18,-72.95"/>
<polygon fill="black" stroke="black" points="118.68,-73 115.13,-63.01 111.68,-73.03 118.68,-73"/>
</g>
<!-- 4534521760 -->
<g id="node10" class="node">
<title>4534521760</title>
<path fill="lightgray" stroke="lightgray" d="M179.62,-25C179.62,-25 224.62,-25 224.62,-25 230.62,-25 236.62,-31 236.62,-37 236.62,-37 236.62,-49 236.62,-49 236.62,-55 230.62,-61 224.62,-61 224.62,-61 179.62,-61 179.62,-61 173.62,-61 167.62,-55 167.62,-49 167.62,-49 167.62,-37 167.62,-37 167.62,-31 173.62,-25 179.62,-25"/>
<text xml:space="preserve" text-anchor="middle" x="177.5" y="-37.95" font-family="Times,serif" font-size="14.00"> </text>
<polyline fill="none" stroke="lightgray" points="187.38,-25 187.38,-61"/>
<text xml:space="preserve" text-anchor="middle" x="202.12" y="-37.95" font-family="Times,serif" font-size="14.00">12</text>
<polyline fill="none" stroke="lightgray" points="216.88,-25 216.88,-61"/>
<text xml:space="preserve" text-anchor="middle" x="226.75" y="-37.95" font-family="Times,serif" font-size="14.00"> </text>
</g>
<!-- 4534520752&#45;&gt;4534521760 -->
<g id="edge9" class="edge">
<title>4534520752:l&#45;&gt;4534521760:v</title>
<path fill="none" stroke="black" d="M224.88,-97.5C224.88,-83.3 212.08,-80.8 205.68,-72.45"/>
<polygon fill="black" stroke="black" points="209.01,-71.37 202.59,-62.94 202.35,-73.53 209.01,-71.37"/>
</g>
<!-- 4534521088 -->
<g id="node11" class="node">
<title>4534521088</title>
<path fill="lightgray" stroke="lightgray" d="M266.62,-25C266.62,-25 311.62,-25 311.62,-25 317.62,-25 323.62,-31 323.62,-37 323.62,-37 323.62,-49 323.62,-49 323.62,-55 317.62,-61 311.62,-61 311.62,-61 266.62,-61 266.62,-61 260.62,-61 254.62,-55 254.62,-49 254.62,-49 254.62,-37 254.62,-37 254.62,-31 260.62,-25 266.62,-25"/>
<text xml:space="preserve" text-anchor="middle" x="264.5" y="-37.95" font-family="Times,serif" font-size="14.00"> </text>
<polyline fill="none" stroke="lightgray" points="274.38,-25 274.38,-61"/>
<text xml:space="preserve" text-anchor="middle" x="289.12" y="-37.95" font-family="Times,serif" font-size="14.00">13</text>
<polyline fill="none" stroke="lightgray" points="303.88,-25 303.88,-61"/>
<text xml:space="preserve" text-anchor="middle" x="313.75" y="-37.95" font-family="Times,serif" font-size="14.00"> </text>
</g>
<!-- 4534520752&#45;&gt;4534521088 -->
<g id="edge10" class="edge">
<title>4534520752:r&#45;&gt;4534521088:v</title>
<path fill="none" stroke="black" d="M267.38,-97.5C267.38,-83.48 279.61,-80.76 285.73,-72.38"/>
<polygon fill="black" stroke="black" points="289.03,-73.53 288.67,-62.94 282.35,-71.45 289.03,-73.53"/>
</g>
<!-- 4534522096 -->
<g id="node12" class="node">
<title>4534522096</title>
<path fill="lightgray" stroke="lightgray" d="M353.62,-25C353.62,-25 398.62,-25 398.62,-25 404.62,-25 410.62,-31 410.62,-37 410.62,-37 410.62,-49 410.62,-49 410.62,-55 404.62,-61 398.62,-61 398.62,-61 353.62,-61 353.62,-61 347.62,-61 341.62,-55 341.62,-49 341.62,-49 341.62,-37 341.62,-37 341.62,-31 347.62,-25 353.62,-25"/>
<text xml:space="preserve" text-anchor="middle" x="351.5" y="-37.95" font-family="Times,serif" font-size="14.00"> </text>
<polyline fill="none" stroke="lightgray" points="361.38,-25 361.38,-61"/>
<text xml:space="preserve" text-anchor="middle" x="376.12" y="-37.95" font-family="Times,serif" font-size="14.00">16</text>
<polyline fill="none" stroke="lightgray" points="390.88,-25 390.88,-61"/>
<text xml:space="preserve" text-anchor="middle" x="400.75" y="-37.95" font-family="Times,serif" font-size="14.00"> </text>
</g>
<!-- 4534524560&#45;&gt;4534522096 -->
<g id="edge11" class="edge">
<title>4534524560:l&#45;&gt;4534522096:v</title>
<path fill="none" stroke="black" d="M393.5,-97.5C393.5,-84.31 383.93,-80.66 378.99,-72.38"/>
<polygon fill="black" stroke="black" points="382.44,-71.74 376.51,-62.96 375.68,-73.53 382.44,-71.74"/>
</g>
<!-- 4534521200 -->
<g id="node13" class="node">
<title>4534521200</title>
<path fill="lightgray" stroke="green" d="M441,-25C441,-25 479.25,-25 479.25,-25 485.25,-25 491.25,-31 491.25,-37 491.25,-37 491.25,-49 491.25,-49 491.25,-55 485.25,-61 479.25,-61 479.25,-61 441,-61 441,-61 435,-61 429,-55 429,-49 429,-49 429,-37 429,-37 429,-31 435,-25 441,-25"/>
<text xml:space="preserve" text-anchor="middle" x="438.88" y="-37.95" font-family="Times,serif" font-size="14.00"> </text>
<polyline fill="none" stroke="green" points="448.75,-25 448.75,-61"/>
<text xml:space="preserve" text-anchor="middle" x="460.12" y="-37.95" font-family="Times,serif" font-size="14.00">7</text>
<polyline fill="none" stroke="green" points="471.5,-25 471.5,-61"/>
<text xml:space="preserve" text-anchor="middle" x="481.38" y="-37.95" font-family="Times,serif" font-size="14.00"> </text>
</g>
<!-- 4534524560&#45;&gt;4534521200 -->
<g id="edge12" class="edge">
<title>4534524560:r&#45;&gt;4534521200:v</title>
<path fill="none" stroke="black" d="M442.75,-97.5C442.75,-84.31 452.32,-80.66 457.26,-72.38"/>
<polygon fill="black" stroke="black" points="460.57,-73.53 459.74,-62.96 453.81,-71.74 460.57,-73.53"/>
</g>
<!-- 4534520976 -->
<g id="node14" class="node">
<title>4534520976</title>
<path fill="lightgray" stroke="lightgray" d="M521,-25C521,-25 559.25,-25 559.25,-25 565.25,-25 571.25,-31 571.25,-37 571.25,-37 571.25,-49 571.25,-49 571.25,-55 565.25,-61 559.25,-61 559.25,-61 521,-61 521,-61 515,-61 509,-55 509,-49 509,-49 509,-37 509,-37 509,-31 515,-25 521,-25"/>
<text xml:space="preserve" text-anchor="middle" x="518.88" y="-37.95" font-family="Times,serif" font-size="14.00"> </text>
<polyline fill="none" stroke="lightgray" points="528.75,-25 528.75,-61"/>
<text xml:space="preserve" text-anchor="middle" x="540.12" y="-37.95" font-family="Times,serif" font-size="14.00">8</text>
<polyline fill="none" stroke="lightgray" points="551.5,-25 551.5,-61"/>
<text xml:space="preserve" text-anchor="middle" x="561.38" y="-37.95" font-family="Times,serif" font-size="14.00"> </text>
</g>
<!-- 4534518624&#45;&gt;4534520976 -->
<g id="edge13" class="edge">
<title>4534518624:l&#45;&gt;4534520976:v</title>
<path fill="none" stroke="black" d="M518.5,-97.5C518.5,-83.5 530.66,-80.75 536.75,-72.37"/>
<polygon fill="black" stroke="black" points="540.05,-73.53 539.68,-62.95 533.37,-71.46 540.05,-73.53"/>
</g>
</g>
</svg>
