<?xml version="1.0" encoding="UTF-8" standalone="no"?>
<!DOCTYPE svg PUBLIC "-//W3C//DTD SVG 1.1//EN"
 "http://www.w3.org/Graphics/SVG/1.1/DTD/svg11.dtd">
<!-- Generated by graphviz version 14.0.0 (20250921.2048)
 -->
<!-- Pages: 1 -->
<svg width="586pt" height="289pt"
 viewBox="0.00 0.00 586.00 289.00" xmlns="http://www.w3.org/2000/svg" xmlns:xlink="http://www.w3.org/1999/xlink">
<g id="graph0" class="graph" transform="scale(1 1) rotate(0) translate(4 284.5)">
<polygon fill="white" stroke="none" points="-4,4 -4,-284.5 581.62,-284.5 581.62,4 -4,4"/>
<text xml:space="preserve" text-anchor="middle" x="288.81" y="-7.2" font-family="Times,serif" font-size="14.00">MaxHeap [0, 1, 3, 4, 5, 17, 27, 9, 10, 12, 13, 16, 7, 8], heapsize: 14</text>
<!-- 4495600656 -->
<g id="node1" class="node">
<title>4495600656</title>
<path fill="lightgray" stroke="lightgray" d="M332,-244C332,-244 370.25,-244 370.25,-244 376.25,-244 382.25,-250 382.25,-256 382.25,-256 382.25,-268 382.25,-268 382.25,-274 376.25,-280 370.25,-280 370.25,-280 332,-280 332,-280 326,-280 320,-274 320,-268 320,-268 320,-256 320,-256 320,-250 326,-244 332,-244"/>
<text xml:space="preserve" text-anchor="middle" x="329.88" y="-256.95" font-family="Times,serif" font-size="14.00"> </text>
<polyline fill="none" stroke="lightgray" points="339.75,-244 339.75,-280"/>
<text xml:space="preserve" text-anchor="middle" x="351.12" y="-256.95" font-family="Times,serif" font-size="14.00">0</text>
<polyline fill="none" stroke="lightgray" points="362.5,-244 362.5,-280"/>
<text xml:space="preserve" text-anchor="middle" x="372.38" y="-256.95" font-family="Times,serif" font-size="14.00"> </text>
</g>
<!-- 4495600880 -->
<g id="node2" class="node">
<title>4495600880</title>
<path fill="lightgray" stroke="lightgray" d="M205,-171C205,-171 243.25,-171 243.25,-171 249.25,-171 255.25,-177 255.25,-183 255.25,-183 255.25,-195 255.25,-195 255.25,-201 249.25,-207 243.25,-207 243.25,-207 205,-207 205,-207 199,-207 193,-201 193,-195 193,-195 193,-183 193,-183 193,-177 199,-171 205,-171"/>
<text xml:space="preserve" text-anchor="middle" x="202.88" y="-183.95" font-family="Times,serif" font-size="14.00"> </text>
<polyline fill="none" stroke="lightgray" points="212.75,-171 212.75,-207"/>
<text xml:space="preserve" text-anchor="middle" x="224.12" y="-183.95" font-family="Times,serif" font-size="14.00">1</text>
<polyline fill="none" stroke="lightgray" points="235.5,-171 235.5,-207"/>
<text xml:space="preserve" text-anchor="middle" x="245.38" y="-183.95" font-family="Times,serif" font-size="14.00"> </text>
</g>
<!-- 4495600656&#45;&gt;4495600880 -->
<g id="edge1" class="edge">
<title>4495600656:l&#45;&gt;4495600880:v</title>
<path fill="none" stroke="black" d="M329.88,-243.5C329.88,-198.51 243.02,-246.27 226.74,-218.67"/>
<polygon fill="black" stroke="black" points="230.16,-217.91 224.47,-208.97 223.34,-219.51 230.16,-217.91"/>
</g>
<!-- 4495601328 -->
<g id="node3" class="node">
<title>4495601328</title>
<path fill="lightgray" stroke="lightgray" d="M438,-171C438,-171 476.25,-171 476.25,-171 482.25,-171 488.25,-177 488.25,-183 488.25,-183 488.25,-195 488.25,-195 488.25,-201 482.25,-207 476.25,-207 476.25,-207 438,-207 438,-207 432,-207 426,-201 426,-195 426,-195 426,-183 426,-183 426,-177 432,-171 438,-171"/>
<text xml:space="preserve" text-anchor="middle" x="435.88" y="-183.95" font-family="Times,serif" font-size="14.00"> </text>
<polyline fill="none" stroke="lightgray" points="445.75,-171 445.75,-207"/>
<text xml:space="preserve" text-anchor="middle" x="457.12" y="-183.95" font-family="Times,serif" font-size="14.00">3</text>
<polyline fill="none" stroke="lightgray" points="468.5,-171 468.5,-207"/>
<text xml:space="preserve" text-anchor="middle" x="478.38" y="-183.95" font-family="Times,serif" font-size="14.00"> </text>
</g>
<!-- 4495600656&#45;&gt;4495601328 -->
<g id="edge2" class="edge">
<title>4495600656:r&#45;&gt;4495601328:v</title>
<path fill="none" stroke="black" d="M372.38,-243.5C372.38,-207.21 439.01,-239.15 454.11,-218.32"/>
<polygon fill="black" stroke="black" points="457.4,-219.53 456.72,-208.96 450.66,-217.65 457.4,-219.53"/>
</g>
<!-- 4495602112 -->
<g id="node4" class="node">
<title>4495602112</title>
<path fill="lightgray" stroke="lightgray" d="M75,-98C75,-98 113.25,-98 113.25,-98 119.25,-98 125.25,-104 125.25,-110 125.25,-110 125.25,-122 125.25,-122 125.25,-128 119.25,-134 113.25,-134 113.25,-134 75,-134 75,-134 69,-134 63,-128 63,-122 63,-122 63,-110 63,-110 63,-104 69,-98 75,-98"/>
<text xml:space="preserve" text-anchor="middle" x="72.88" y="-110.95" font-family="Times,serif" font-size="14.00"> </text>
<polyline fill="none" stroke="lightgray" points="82.75,-98 82.75,-134"/>
<text xml:space="preserve" text-anchor="middle" x="94.12" y="-110.95" font-family="Times,serif" font-size="14.00">4</text>
<polyline fill="none" stroke="lightgray" points="105.5,-98 105.5,-134"/>
<text xml:space="preserve" text-anchor="middle" x="115.38" y="-110.95" font-family="Times,serif" font-size="14.00"> </text>
</g>
<!-- 4495600880&#45;&gt;4495602112 -->
<g id="edge3" class="edge">
<title>4495600880:l&#45;&gt;4495602112:v</title>
<path fill="none" stroke="black" d="M202.88,-170.5C202.88,-124.16 112.79,-174.53 96.6,-145.57"/>
<polygon fill="black" stroke="black" points="100.05,-144.97 94.46,-135.98 93.22,-146.5 100.05,-144.97"/>
</g>
<!-- 4495601216 -->
<g id="node5" class="node">
<title>4495601216</title>
<path fill="lightgray" stroke="lightgray" d="M226,-98C226,-98 264.25,-98 264.25,-98 270.25,-98 276.25,-104 276.25,-110 276.25,-110 276.25,-122 276.25,-122 276.25,-128 270.25,-134 264.25,-134 264.25,-134 226,-134 226,-134 220,-134 214,-128 214,-122 214,-122 214,-110 214,-110 214,-104 220,-98 226,-98"/>
<text xml:space="preserve" text-anchor="middle" x="223.88" y="-110.95" font-family="Times,serif" font-size="14.00"> </text>
<polyline fill="none" stroke="lightgray" points="233.75,-98 233.75,-134"/>
<text xml:space="preserve" text-anchor="middle" x="245.12" y="-110.95" font-family="Times,serif" font-size="14.00">5</text>
<polyline fill="none" stroke="lightgray" points="256.5,-98 256.5,-134"/>
<text xml:space="preserve" text-anchor="middle" x="266.38" y="-110.95" font-family="Times,serif" font-size="14.00"> </text>
</g>
<!-- 4495600880&#45;&gt;4495601216 -->
<g id="edge4" class="edge">
<title>4495600880:r&#45;&gt;4495601216:v</title>
<path fill="none" stroke="black" d="M245.38,-170.5C245.38,-159.12 245.25,-153.82 245.18,-145.95"/>
<polygon fill="black" stroke="black" points="248.68,-146 245.13,-136.01 241.68,-146.03 248.68,-146"/>
</g>
<!-- 4495602000 -->
<g id="node6" class="node">
<title>4495602000</title>
<path fill="lightgray" stroke="green" d="M413.62,-98C413.62,-98 458.62,-98 458.62,-98 464.62,-98 470.62,-104 470.62,-110 470.62,-110 470.62,-122 470.62,-122 470.62,-128 464.62,-134 458.62,-134 458.62,-134 413.62,-134 413.62,-134 407.62,-134 401.62,-128 401.62,-122 401.62,-122 401.62,-110 401.62,-110 401.62,-104 407.62,-98 413.62,-98"/>
<text xml:space="preserve" text-anchor="middle" x="411.5" y="-110.95" font-family="Times,serif" font-size="14.00"> </text>
<polyline fill="none" stroke="green" points="421.38,-98 421.38,-134"/>
<text xml:space="preserve" text-anchor="middle" x="436.12" y="-110.95" font-family="Times,serif" font-size="14.00">17</text>
<polyline fill="none" stroke="green" points="450.88,-98 450.88,-134"/>
<text xml:space="preserve" text-anchor="middle" x="460.75" y="-110.95" font-family="Times,serif" font-size="14.00"> </text>
</g>
<!-- 4495601328&#45;&gt;4495602000 -->
<g id="edge5" class="edge">
<title>4495601328:l&#45;&gt;4495602000:v</title>
<path fill="none" stroke="black" d="M435.88,-170.5C435.88,-159.12 436,-153.82 436.07,-145.95"/>
<polygon fill="black" stroke="black" points="439.57,-146.03 436.12,-136.01 432.57,-146 439.57,-146.03"/>
</g>
<!-- 4495601888 -->
<g id="node7" class="node">
<title>4495601888</title>
<path fill="lightgray" stroke="lightgray" d="M520.62,-98C520.62,-98 565.62,-98 565.62,-98 571.62,-98 577.62,-104 577.62,-110 577.62,-110 577.62,-122 577.62,-122 577.62,-128 571.62,-134 565.62,-134 565.62,-134 520.62,-134 520.62,-134 514.62,-134 508.62,-128 508.62,-122 508.62,-122 508.62,-110 508.62,-110 508.62,-104 514.62,-98 520.62,-98"/>
<text xml:space="preserve" text-anchor="middle" x="518.5" y="-110.95" font-family="Times,serif" font-size="14.00"> </text>
<polyline fill="none" stroke="lightgray" points="528.38,-98 528.38,-134"/>
<text xml:space="preserve" text-anchor="middle" x="543.12" y="-110.95" font-family="Times,serif" font-size="14.00">27</text>
<polyline fill="none" stroke="lightgray" points="557.88,-98 557.88,-134"/>
<text xml:space="preserve" text-anchor="middle" x="567.75" y="-110.95" font-family="Times,serif" font-size="14.00"> </text>
</g>
<!-- 4495601328&#45;&gt;4495601888 -->
<g id="edge6" class="edge">
<title>4495601328:r&#45;&gt;4495601888:v</title>
<path fill="none" stroke="black" d="M478.38,-170.5C478.38,-142.2 526.19,-160.27 539.64,-145.02"/>
<polygon fill="black" stroke="black" points="542.83,-146.53 542.65,-135.94 536.18,-144.33 542.83,-146.53"/>
</g>
<!-- 4495600768 -->
<g id="node8" class="node">
<title>4495600768</title>
<path fill="lightgray" stroke="lightgray" d="M12,-25C12,-25 50.25,-25 50.25,-25 56.25,-25 62.25,-31 62.25,-37 62.25,-37 62.25,-49 62.25,-49 62.25,-55 56.25,-61 50.25,-61 50.25,-61 12,-61 12,-61 6,-61 0,-55 0,-49 0,-49 0,-37 0,-37 0,-31 6,-25 12,-25"/>
<text xml:space="preserve" text-anchor="middle" x="9.88" y="-37.95" font-family="Times,serif" font-size="14.00"> </text>
<polyline fill="none" stroke="lightgray" points="19.75,-25 19.75,-61"/>
<text xml:space="preserve" text-anchor="middle" x="31.12" y="-37.95" font-family="Times,serif" font-size="14.00">9</text>
<polyline fill="none" stroke="lightgray" points="42.5,-25 42.5,-61"/>
<text xml:space="preserve" text-anchor="middle" x="52.38" y="-37.95" font-family="Times,serif" font-size="14.00"> </text>
</g>
<!-- 4495602112&#45;&gt;4495600768 -->
<g id="edge7" class="edge">
<title>4495602112:l&#45;&gt;4495600768:v</title>
<path fill="none" stroke="black" d="M72.88,-97.5C72.88,-77.78 45.84,-82.35 35.28,-72.12"/>
<polygon fill="black" stroke="black" points="38.58,-70.95 31.68,-62.91 32.06,-73.5 38.58,-70.95"/>
</g>
<!-- 4495601104 -->
<g id="node9" class="node">
<title>4495601104</title>
<path fill="lightgray" stroke="lightgray" d="M92.62,-25C92.62,-25 137.62,-25 137.62,-25 143.62,-25 149.62,-31 149.62,-37 149.62,-37 149.62,-49 149.62,-49 149.62,-55 143.62,-61 137.62,-61 137.62,-61 92.62,-61 92.62,-61 86.62,-61 80.62,-55 80.62,-49 80.62,-49 80.62,-37 80.62,-37 80.62,-31 86.62,-25 92.62,-25"/>
<text xml:space="preserve" text-anchor="middle" x="90.5" y="-37.95" font-family="Times,serif" font-size="14.00"> </text>
<polyline fill="none" stroke="lightgray" points="100.38,-25 100.38,-61"/>
<text xml:space="preserve" text-anchor="middle" x="115.12" y="-37.95" font-family="Times,serif" font-size="14.00">10</text>
<polyline fill="none" stroke="lightgray" points="129.88,-25 129.88,-61"/>
<text xml:space="preserve" text-anchor="middle" x="139.75" y="-37.95" font-family="Times,serif" font-size="14.00"> </text>
</g>
<!-- 4495602112&#45;&gt;4495601104 -->
<g id="edge8" class="edge">
<title>4495602112:r&#45;&gt;4495601104:v</title>
<path fill="none" stroke="black" d="M115.38,-97.5C115.38,-86.12 115.25,-80.82 115.18,-72.95"/>
<polygon fill="black" stroke="black" points="118.68,-73 115.13,-63.01 111.68,-73.03 118.68,-73"/>
</g>
<!-- 4495601776 -->
<g id="node10" class="node">
<title>4495601776</title>
<path fill="lightgray" stroke="lightgray" d="M179.62,-25C179.62,-25 224.62,-25 224.62,-25 230.62,-25 236.62,-31 236.62,-37 236.62,-37 236.62,-49 236.62,-49 236.62,-55 230.62,-61 224.62,-61 224.62,-61 179.62,-61 179.62,-61 173.62,-61 167.62,-55 167.62,-49 167.62,-49 167.62,-37 167.62,-37 167.62,-31 173.62,-25 179.62,-25"/>
<text xml:space="preserve" text-anchor="middle" x="177.5" y="-37.95" font-family="Times,serif" font-size="14.00"> </text>
<polyline fill="none" stroke="lightgray" points="187.38,-25 187.38,-61"/>
<text xml:space="preserve" text-anchor="middle" x="202.12" y="-37.95" font-family="Times,serif" font-size="14.00">12</text>
<polyline fill="none" stroke="lightgray" points="216.88,-25 216.88,-61"/>
<text xml:space="preserve" text-anchor="middle" x="226.75" y="-37.95" font-family="Times,serif" font-size="14.00"> </text>
</g>
<!-- 4495601216&#45;&gt;4495601776 -->
<g id="edge9" class="edge">
<title>4495601216:l&#45;&gt;4495601776:v</title>
<path fill="none" stroke="black" d="M223.88,-97.5C223.88,-83.48 211.64,-80.76 205.52,-72.38"/>
<polygon fill="black" stroke="black" points="208.9,-71.45 202.58,-62.94 202.22,-73.53 208.9,-71.45"/>
</g>
<!-- 4495601664 -->
<g id="node11" class="node">
<title>4495601664</title>
<path fill="lightgray" stroke="lightgray" d="M266.62,-25C266.62,-25 311.62,-25 311.62,-25 317.62,-25 323.62,-31 323.62,-37 323.62,-37 323.62,-49 323.62,-49 323.62,-55 317.62,-61 311.62,-61 311.62,-61 266.62,-61 266.62,-61 260.62,-61 254.62,-55 254.62,-49 254.62,-49 254.62,-37 254.62,-37 254.62,-31 260.62,-25 266.62,-25"/>
<text xml:space="preserve" text-anchor="middle" x="264.5" y="-37.95" font-family="Times,serif" font-size="14.00"> </text>
<polyline fill="none" stroke="lightgray" points="274.38,-25 274.38,-61"/>
<text xml:space="preserve" text-anchor="middle" x="289.12" y="-37.95" font-family="Times,serif" font-size="14.00">13</text>
<polyline fill="none" stroke="lightgray" points="303.88,-25 303.88,-61"/>
<text xml:space="preserve" text-anchor="middle" x="313.75" y="-37.95" font-family="Times,serif" font-size="14.00"> </text>
</g>
<!-- 4495601216&#45;&gt;4495601664 -->
<g id="edge10" class="edge">
<title>4495601216:r&#45;&gt;4495601664:v</title>
<path fill="none" stroke="black" d="M266.38,-97.5C266.38,-83.3 279.17,-80.8 285.57,-72.45"/>
<polygon fill="black" stroke="black" points="288.9,-73.53 288.66,-62.94 282.24,-71.37 288.9,-73.53"/>
</g>
<!-- 4495600992 -->
<g id="node12" class="node">
<title>4495600992</title>
<path fill="lightgray" stroke="lightgray" d="M353.62,-25C353.62,-25 398.62,-25 398.62,-25 404.62,-25 410.62,-31 410.62,-37 410.62,-37 410.62,-49 410.62,-49 410.62,-55 404.62,-61 398.62,-61 398.62,-61 353.62,-61 353.62,-61 347.62,-61 341.62,-55 341.62,-49 341.62,-49 341.62,-37 341.62,-37 341.62,-31 347.62,-25 353.62,-25"/>
<text xml:space="preserve" text-anchor="middle" x="351.5" y="-37.95" font-family="Times,serif" font-size="14.00"> </text>
<polyline fill="none" stroke="lightgray" points="361.38,-25 361.38,-61"/>
<text xml:space="preserve" text-anchor="middle" x="376.12" y="-37.95" font-family="Times,serif" font-size="14.00">16</text>
<polyline fill="none" stroke="lightgray" points="390.88,-25 390.88,-61"/>
<text xml:space="preserve" text-anchor="middle" x="400.75" y="-37.95" font-family="Times,serif" font-size="14.00"> </text>
</g>
<!-- 4495602000&#45;&gt;4495600992 -->
<g id="edge11" class="edge">
<title>4495602000:l&#45;&gt;4495600992:v</title>
<path fill="none" stroke="black" d="M411.5,-97.5C411.5,-79.8 389.47,-81.58 380.18,-72.11"/>
<polygon fill="black" stroke="black" points="383.51,-71 376.67,-62.91 376.97,-73.5 383.51,-71"/>
</g>
<!-- 4495601552 -->
<g id="node13" class="node">
<title>4495601552</title>
<path fill="lightgray" stroke="green" d="M441,-25C441,-25 479.25,-25 479.25,-25 485.25,-25 491.25,-31 491.25,-37 491.25,-37 491.25,-49 491.25,-49 491.25,-55 485.25,-61 479.25,-61 479.25,-61 441,-61 441,-61 435,-61 429,-55 429,-49 429,-49 429,-37 429,-37 429,-31 435,-25 441,-25"/>
<text xml:space="preserve" text-anchor="middle" x="438.88" y="-37.95" font-family="Times,serif" font-size="14.00"> </text>
<polyline fill="none" stroke="green" points="448.75,-25 448.75,-61"/>
<text xml:space="preserve" text-anchor="middle" x="460.12" y="-37.95" font-family="Times,serif" font-size="14.00">7</text>
<polyline fill="none" stroke="green" points="471.5,-25 471.5,-61"/>
<text xml:space="preserve" text-anchor="middle" x="481.38" y="-37.95" font-family="Times,serif" font-size="14.00"> </text>
</g>
<!-- 4495602000&#45;&gt;4495601552 -->
<g id="edge12" class="edge">
<title>4495602000:r&#45;&gt;4495601552:v</title>
<path fill="none" stroke="black" d="M460.75,-97.5C460.75,-86.12 460.43,-80.82 460.25,-72.95"/>
<polygon fill="black" stroke="black" points="463.75,-72.97 460.14,-63.01 456.75,-73.05 463.75,-72.97"/>
</g>
<!-- 4495601440 -->
<g id="node14" class="node">
<title>4495601440</title>
<path fill="lightgray" stroke="lightgray" d="M521,-25C521,-25 559.25,-25 559.25,-25 565.25,-25 571.25,-31 571.25,-37 571.25,-37 571.25,-49 571.25,-49 571.25,-55 565.25,-61 559.25,-61 559.25,-61 521,-61 521,-61 515,-61 509,-55 509,-49 509,-49 509,-37 509,-37 509,-31 515,-25 521,-25"/>
<text xml:space="preserve" text-anchor="middle" x="518.88" y="-37.95" font-family="Times,serif" font-size="14.00"> </text>
<polyline fill="none" stroke="lightgray" points="528.75,-25 528.75,-61"/>
<text xml:space="preserve" text-anchor="middle" x="540.12" y="-37.95" font-family="Times,serif" font-size="14.00">8</text>
<polyline fill="none" stroke="lightgray" points="551.5,-25 551.5,-61"/>
<text xml:space="preserve" text-anchor="middle" x="561.38" y="-37.95" font-family="Times,serif" font-size="14.00"> </text>
</g>
<!-- 4495601888&#45;&gt;4495601440 -->
<g id="edge13" class="edge">
<title>4495601888:l&#45;&gt;4495601440:v</title>
<path fill="none" stroke="black" d="M518.5,-97.5C518.5,-83.5 530.66,-80.75 536.75,-72.37"/>
<polygon fill="black" stroke="black" points="540.05,-73.53 539.68,-62.95 533.37,-71.46 540.05,-73.53"/>
</g>
<!-- 4495601552&#45;&gt;4495602000 -->
<g id="edge14" class="edge">
<title>4495601552&#45;&gt;4495602000</title>
<path fill="none" stroke="green" d="M454.37,-61.03C451.72,-68.86 448.52,-78.34 445.53,-87.17"/>
<polygon fill="green" stroke="green" points="442.31,-85.78 442.42,-96.38 448.94,-88.03 442.31,-85.78"/>
</g>
</g>
</svg>
