<?xml version="1.0" encoding="UTF-8" standalone="no"?>
<!DOCTYPE svg PUBLIC "-//W3C//DTD SVG 1.1//EN"
 "http://www.w3.org/Graphics/SVG/1.1/DTD/svg11.dtd">
<!-- Generated by graphviz version 14.0.0 (20250921.2048)
 -->
<!-- Pages: 1 -->
<svg width="314pt" height="143pt"
 viewBox="0.00 0.00 314.00 143.00" xmlns="http://www.w3.org/2000/svg" xmlns:xlink="http://www.w3.org/1999/xlink">
<g id="graph0" class="graph" transform="scale(1 1) rotate(0) translate(4 138.5)">
<polygon fill="white" stroke="none" points="-4,4 -4,-138.5 309.5,-138.5 309.5,4 -4,4"/>
<text xml:space="preserve" text-anchor="middle" x="152.75" y="-7.2" font-family="Times,serif" font-size="14.00">MaxHeap [3, 5, 6, 9, 10, 17, 19, 22, 84], heapsize: 3</text>
<!-- 4534523216 -->
<g id="node1" class="node">
<title>4534523216</title>
<path fill="lightgray" stroke="green" d="M133.62,-98C133.62,-98 171.88,-98 171.88,-98 177.88,-98 183.88,-104 183.88,-110 183.88,-110 183.88,-122 183.88,-122 183.88,-128 177.88,-134 171.88,-134 171.88,-134 133.62,-134 133.62,-134 127.62,-134 121.62,-128 121.62,-122 121.62,-122 121.62,-110 121.62,-110 121.62,-104 127.62,-98 133.62,-98"/>
<text xml:space="preserve" text-anchor="middle" x="131.5" y="-110.95" font-family="Times,serif" font-size="14.00"> </text>
<polyline fill="none" stroke="green" points="141.38,-98 141.38,-134"/>
<text xml:space="preserve" text-anchor="middle" x="152.75" y="-110.95" font-family="Times,serif" font-size="14.00">3</text>
<polyline fill="none" stroke="green" points="164.12,-98 164.12,-134"/>
<text xml:space="preserve" text-anchor="middle" x="174" y="-110.95" font-family="Times,serif" font-size="14.00"> </text>
</g>
<!-- 4534522544 -->
<g id="node2" class="node">
<title>4534522544</title>
<path fill="lightgray" stroke="lightgray" d="M93.62,-25C93.62,-25 131.88,-25 131.88,-25 137.88,-25 143.88,-31 143.88,-37 143.88,-37 143.88,-49 143.88,-49 143.88,-55 137.88,-61 131.88,-61 131.88,-61 93.62,-61 93.62,-61 87.62,-61 81.62,-55 81.62,-49 81.62,-49 81.62,-37 81.62,-37 81.62,-31 87.62,-25 93.62,-25"/>
<text xml:space="preserve" text-anchor="middle" x="91.5" y="-37.95" font-family="Times,serif" font-size="14.00"> </text>
<polyline fill="none" stroke="lightgray" points="101.38,-25 101.38,-61"/>
<text xml:space="preserve" text-anchor="middle" x="112.75" y="-37.95" font-family="Times,serif" font-size="14.00">5</text>
<polyline fill="none" stroke="lightgray" points="124.12,-25 124.12,-61"/>
<text xml:space="preserve" text-anchor="middle" x="134" y="-37.95" font-family="Times,serif" font-size="14.00"> </text>
</g>
<!-- 4534523216&#45;&gt;4534522544 -->
<g id="edge1" class="edge">
<title>4534523216:l&#45;&gt;4534522544:v</title>
<path fill="none" stroke="black" d="M131.5,-97.5C131.5,-84.11 121.17,-80.7 115.85,-72.46"/>
<polygon fill="black" stroke="black" points="119.25,-71.63 113.16,-62.96 112.51,-73.53 119.25,-71.63"/>
</g>
<!-- 4534528704 -->
<g id="node3" class="node">
<title>4534528704</title>
<path fill="lightgray" stroke="green" d="M173.62,-25C173.62,-25 211.88,-25 211.88,-25 217.88,-25 223.88,-31 223.88,-37 223.88,-37 223.88,-49 223.88,-49 223.88,-55 217.88,-61 211.88,-61 211.88,-61 173.62,-61 173.62,-61 167.62,-61 161.62,-55 161.62,-49 161.62,-49 161.62,-37 161.62,-37 161.62,-31 167.62,-25 173.62,-25"/>
<text xml:space="preserve" text-anchor="middle" x="171.5" y="-37.95" font-family="Times,serif" font-size="14.00"> </text>
<polyline fill="none" stroke="green" points="181.38,-25 181.38,-61"/>
<text xml:space="preserve" text-anchor="middle" x="192.75" y="-37.95" font-family="Times,serif" font-size="14.00">6</text>
<polyline fill="none" stroke="green" points="204.12,-25 204.12,-61"/>
<text xml:space="preserve" text-anchor="middle" x="214" y="-37.95" font-family="Times,serif" font-size="14.00"> </text>
</g>
<!-- 4534523216&#45;&gt;4534528704 -->
<g id="edge2" class="edge">
<title>4534523216:r&#45;&gt;4534528704:v</title>
<path fill="none" stroke="black" d="M174,-97.5C174,-84.11 184.33,-80.7 189.65,-72.46"/>
<polygon fill="black" stroke="black" points="192.99,-73.53 192.34,-62.96 186.25,-71.63 192.99,-73.53"/>
</g>
</g>
</svg>
