<?xml version="1.0" encoding="UTF-8" standalone="no"?>
<!DOCTYPE svg PUBLIC "-//W3C//DTD SVG 1.1//EN"
 "http://www.w3.org/Graphics/SVG/1.1/DTD/svg11.dtd">
<!-- Generated by graphviz version 14.0.0 (20250921.2048)
 -->
<!-- Pages: 1 -->
<svg width="346pt" height="289pt"
 viewBox="0.00 0.00 346.00 289.00" xmlns="http://www.w3.org/2000/svg" xmlns:xlink="http://www.w3.org/1999/xlink">
<g id="graph0" class="graph" transform="scale(1 1) rotate(0) translate(4 284.5)">
<polygon fill="white" stroke="none" points="-4,4 -4,-284.5 342.25,-284.5 342.25,4 -4,4"/>
<text xml:space="preserve" text-anchor="middle" x="169.12" y="-7.2" font-family="Times,serif" font-size="14.00">MaxHeap [84, 22, 19, 10, 3, 17, 6, 5, 9], heapsize: 9</text>
<!-- 4495596288 -->
<g id="node1" class="node">
<title>4495596288</title>
<path fill="lightgray" stroke="lightgray" d="M158.62,-244C158.62,-244 203.62,-244 203.62,-244 209.62,-244 215.62,-250 215.62,-256 215.62,-256 215.62,-268 215.62,-268 215.62,-274 209.62,-280 203.62,-280 203.62,-280 158.62,-280 158.62,-280 152.62,-280 146.62,-274 146.62,-268 146.62,-268 146.62,-256 146.62,-256 146.62,-250 152.62,-244 158.62,-244"/>
<text xml:space="preserve" text-anchor="middle" x="156.5" y="-256.95" font-family="Times,serif" font-size="14.00"> </text>
<polyline fill="none" stroke="lightgray" points="166.38,-244 166.38,-280"/>
<text xml:space="preserve" text-anchor="middle" x="181.12" y="-256.95" font-family="Times,serif" font-size="14.00">84</text>
<polyline fill="none" stroke="lightgray" points="195.88,-244 195.88,-280"/>
<text xml:space="preserve" text-anchor="middle" x="205.75" y="-256.95" font-family="Times,serif" font-size="14.00"> </text>
</g>
<!-- 4495597520 -->
<g id="node2" class="node">
<title>4495597520</title>
<path fill="lightgray" stroke="lightgray" d="M92.62,-171C92.62,-171 137.62,-171 137.62,-171 143.62,-171 149.62,-177 149.62,-183 149.62,-183 149.62,-195 149.62,-195 149.62,-201 143.62,-207 137.62,-207 137.62,-207 92.62,-207 92.62,-207 86.62,-207 80.62,-201 80.62,-195 80.62,-195 80.62,-183 80.62,-183 80.62,-177 86.62,-171 92.62,-171"/>
<text xml:space="preserve" text-anchor="middle" x="90.5" y="-183.95" font-family="Times,serif" font-size="14.00"> </text>
<polyline fill="none" stroke="lightgray" points="100.38,-171 100.38,-207"/>
<text xml:space="preserve" text-anchor="middle" x="115.12" y="-183.95" font-family="Times,serif" font-size="14.00">22</text>
<polyline fill="none" stroke="lightgray" points="129.88,-171 129.88,-207"/>
<text xml:space="preserve" text-anchor="middle" x="139.75" y="-183.95" font-family="Times,serif" font-size="14.00"> </text>
</g>
<!-- 4495596288&#45;&gt;4495597520 -->
<g id="edge1" class="edge">
<title>4495596288:l&#45;&gt;4495597520:v</title>
<path fill="none" stroke="black" d="M156.5,-243.5C156.5,-223.89 129.71,-228.31 119.24,-218.09"/>
<polygon fill="black" stroke="black" points="122.56,-216.96 115.67,-208.91 116.04,-219.5 122.56,-216.96"/>
</g>
<!-- 4495598976 -->
<g id="node3" class="node">
<title>4495598976</title>
<path fill="lightgray" stroke="lightgray" d="M224.62,-171C224.62,-171 269.62,-171 269.62,-171 275.62,-171 281.62,-177 281.62,-183 281.62,-183 281.62,-195 281.62,-195 281.62,-201 275.62,-207 269.62,-207 269.62,-207 224.62,-207 224.62,-207 218.62,-207 212.62,-201 212.62,-195 212.62,-195 212.62,-183 212.62,-183 212.62,-177 218.62,-171 224.62,-171"/>
<text xml:space="preserve" text-anchor="middle" x="222.5" y="-183.95" font-family="Times,serif" font-size="14.00"> </text>
<polyline fill="none" stroke="lightgray" points="232.38,-171 232.38,-207"/>
<text xml:space="preserve" text-anchor="middle" x="247.12" y="-183.95" font-family="Times,serif" font-size="14.00">19</text>
<polyline fill="none" stroke="lightgray" points="261.88,-171 261.88,-207"/>
<text xml:space="preserve" text-anchor="middle" x="271.75" y="-183.95" font-family="Times,serif" font-size="14.00"> </text>
</g>
<!-- 4495596288&#45;&gt;4495598976 -->
<g id="edge2" class="edge">
<title>4495596288:r&#45;&gt;4495598976:v</title>
<path fill="none" stroke="black" d="M205.75,-243.5C205.75,-223.89 232.54,-228.31 243.01,-218.09"/>
<polygon fill="black" stroke="black" points="246.21,-219.5 246.58,-208.91 239.69,-216.96 246.21,-219.5"/>
</g>
<!-- 4495592704 -->
<g id="node4" class="node">
<title>4495592704</title>
<path fill="lightgray" stroke="green" d="M32.62,-98C32.62,-98 77.62,-98 77.62,-98 83.62,-98 89.62,-104 89.62,-110 89.62,-110 89.62,-122 89.62,-122 89.62,-128 83.62,-134 77.62,-134 77.62,-134 32.62,-134 32.62,-134 26.62,-134 20.62,-128 20.62,-122 20.62,-122 20.62,-110 20.62,-110 20.62,-104 26.62,-98 32.62,-98"/>
<text xml:space="preserve" text-anchor="middle" x="30.5" y="-110.95" font-family="Times,serif" font-size="14.00"> </text>
<polyline fill="none" stroke="green" points="40.38,-98 40.38,-134"/>
<text xml:space="preserve" text-anchor="middle" x="55.12" y="-110.95" font-family="Times,serif" font-size="14.00">10</text>
<polyline fill="none" stroke="green" points="69.88,-98 69.88,-134"/>
<text xml:space="preserve" text-anchor="middle" x="79.75" y="-110.95" font-family="Times,serif" font-size="14.00"> </text>
</g>
<!-- 4495597520&#45;&gt;4495592704 -->
<g id="edge3" class="edge">
<title>4495597520:l&#45;&gt;4495592704:v</title>
<path fill="none" stroke="black" d="M90.5,-170.5C90.5,-152.8 68.47,-154.58 59.18,-145.11"/>
<polygon fill="black" stroke="black" points="62.51,-144 55.67,-135.91 55.97,-146.5 62.51,-144"/>
</g>
<!-- 4495602112 -->
<g id="node5" class="node">
<title>4495602112</title>
<path fill="lightgray" stroke="lightgray" d="M120,-98C120,-98 158.25,-98 158.25,-98 164.25,-98 170.25,-104 170.25,-110 170.25,-110 170.25,-122 170.25,-122 170.25,-128 164.25,-134 158.25,-134 158.25,-134 120,-134 120,-134 114,-134 108,-128 108,-122 108,-122 108,-110 108,-110 108,-104 114,-98 120,-98"/>
<text xml:space="preserve" text-anchor="middle" x="117.88" y="-110.95" font-family="Times,serif" font-size="14.00"> </text>
<polyline fill="none" stroke="lightgray" points="127.75,-98 127.75,-134"/>
<text xml:space="preserve" text-anchor="middle" x="139.12" y="-110.95" font-family="Times,serif" font-size="14.00">3</text>
<polyline fill="none" stroke="lightgray" points="150.5,-98 150.5,-134"/>
<text xml:space="preserve" text-anchor="middle" x="160.38" y="-110.95" font-family="Times,serif" font-size="14.00"> </text>
</g>
<!-- 4495597520&#45;&gt;4495602112 -->
<g id="edge4" class="edge">
<title>4495597520:r&#45;&gt;4495602112:v</title>
<path fill="none" stroke="black" d="M139.75,-170.5C139.75,-159.12 139.43,-153.82 139.25,-145.95"/>
<polygon fill="black" stroke="black" points="142.75,-145.97 139.14,-136.01 135.75,-146.05 142.75,-145.97"/>
</g>
<!-- 4495598752 -->
<g id="node6" class="node">
<title>4495598752</title>
<path fill="lightgray" stroke="lightgray" d="M200.62,-98C200.62,-98 245.62,-98 245.62,-98 251.62,-98 257.62,-104 257.62,-110 257.62,-110 257.62,-122 257.62,-122 257.62,-128 251.62,-134 245.62,-134 245.62,-134 200.62,-134 200.62,-134 194.62,-134 188.62,-128 188.62,-122 188.62,-122 188.62,-110 188.62,-110 188.62,-104 194.62,-98 200.62,-98"/>
<text xml:space="preserve" text-anchor="middle" x="198.5" y="-110.95" font-family="Times,serif" font-size="14.00"> </text>
<polyline fill="none" stroke="lightgray" points="208.38,-98 208.38,-134"/>
<text xml:space="preserve" text-anchor="middle" x="223.12" y="-110.95" font-family="Times,serif" font-size="14.00">17</text>
<polyline fill="none" stroke="lightgray" points="237.88,-98 237.88,-134"/>
<text xml:space="preserve" text-anchor="middle" x="247.75" y="-110.95" font-family="Times,serif" font-size="14.00"> </text>
</g>
<!-- 4495598976&#45;&gt;4495598752 -->
<g id="edge5" class="edge">
<title>4495598976:l&#45;&gt;4495598752:v</title>
<path fill="none" stroke="black" d="M222.5,-170.5C222.5,-159.12 222.82,-153.82 223,-145.95"/>
<polygon fill="black" stroke="black" points="226.5,-146.05 223.11,-136.01 219.5,-145.97 226.5,-146.05"/>
</g>
<!-- 4495592368 -->
<g id="node7" class="node">
<title>4495592368</title>
<path fill="lightgray" stroke="lightgray" d="M288,-98C288,-98 326.25,-98 326.25,-98 332.25,-98 338.25,-104 338.25,-110 338.25,-110 338.25,-122 338.25,-122 338.25,-128 332.25,-134 326.25,-134 326.25,-134 288,-134 288,-134 282,-134 276,-128 276,-122 276,-122 276,-110 276,-110 276,-104 282,-98 288,-98"/>
<text xml:space="preserve" text-anchor="middle" x="285.88" y="-110.95" font-family="Times,serif" font-size="14.00"> </text>
<polyline fill="none" stroke="lightgray" points="295.75,-98 295.75,-134"/>
<text xml:space="preserve" text-anchor="middle" x="307.12" y="-110.95" font-family="Times,serif" font-size="14.00">6</text>
<polyline fill="none" stroke="lightgray" points="318.5,-98 318.5,-134"/>
<text xml:space="preserve" text-anchor="middle" x="328.38" y="-110.95" font-family="Times,serif" font-size="14.00"> </text>
</g>
<!-- 4495598976&#45;&gt;4495592368 -->
<g id="edge6" class="edge">
<title>4495598976:r&#45;&gt;4495592368:v</title>
<path fill="none" stroke="black" d="M271.75,-170.5C271.75,-152.8 293.78,-154.58 303.07,-145.11"/>
<polygon fill="black" stroke="black" points="306.28,-146.5 306.58,-135.91 299.74,-144 306.28,-146.5"/>
</g>
<!-- 4495601888 -->
<g id="node8" class="node">
<title>4495601888</title>
<path fill="lightgray" stroke="green" d="M12,-25C12,-25 50.25,-25 50.25,-25 56.25,-25 62.25,-31 62.25,-37 62.25,-37 62.25,-49 62.25,-49 62.25,-55 56.25,-61 50.25,-61 50.25,-61 12,-61 12,-61 6,-61 0,-55 0,-49 0,-49 0,-37 0,-37 0,-31 6,-25 12,-25"/>
<text xml:space="preserve" text-anchor="middle" x="9.88" y="-37.95" font-family="Times,serif" font-size="14.00"> </text>
<polyline fill="none" stroke="green" points="19.75,-25 19.75,-61"/>
<text xml:space="preserve" text-anchor="middle" x="31.12" y="-37.95" font-family="Times,serif" font-size="14.00">5</text>
<polyline fill="none" stroke="green" points="42.5,-25 42.5,-61"/>
<text xml:space="preserve" text-anchor="middle" x="52.38" y="-37.95" font-family="Times,serif" font-size="14.00"> </text>
</g>
<!-- 4495592704&#45;&gt;4495601888 -->
<g id="edge7" class="edge">
<title>4495592704:l&#45;&gt;4495601888:v</title>
<path fill="none" stroke="black" d="M30.5,-97.5C30.5,-86.12 30.82,-80.82 31,-72.95"/>
<polygon fill="black" stroke="black" points="34.5,-73.05 31.11,-63.01 27.5,-72.97 34.5,-73.05"/>
</g>
<!-- 4495595952 -->
<g id="node9" class="node">
<title>4495595952</title>
<path fill="lightgray" stroke="lightgray" d="M92,-25C92,-25 130.25,-25 130.25,-25 136.25,-25 142.25,-31 142.25,-37 142.25,-37 142.25,-49 142.25,-49 142.25,-55 136.25,-61 130.25,-61 130.25,-61 92,-61 92,-61 86,-61 80,-55 80,-49 80,-49 80,-37 80,-37 80,-31 86,-25 92,-25"/>
<text xml:space="preserve" text-anchor="middle" x="89.88" y="-37.95" font-family="Times,serif" font-size="14.00"> </text>
<polyline fill="none" stroke="lightgray" points="99.75,-25 99.75,-61"/>
<text xml:space="preserve" text-anchor="middle" x="111.12" y="-37.95" font-family="Times,serif" font-size="14.00">9</text>
<polyline fill="none" stroke="lightgray" points="122.5,-25 122.5,-61"/>
<text xml:space="preserve" text-anchor="middle" x="132.38" y="-37.95" font-family="Times,serif" font-size="14.00"> </text>
</g>
<!-- 4495592704&#45;&gt;4495595952 -->
<g id="edge8" class="edge">
<title>4495592704:r&#45;&gt;4495595952:v</title>
<path fill="none" stroke="black" d="M79.75,-97.5C79.75,-80.92 98.9,-81.23 107.28,-72.04"/>
<polygon fill="black" stroke="black" points="110.46,-73.52 110.61,-62.92 103.89,-71.11 110.46,-73.52"/>
</g>
<!-- 4495601888&#45;&gt;4495592704 -->
<g id="edge9" class="edge">
<title>4495601888&#45;&gt;4495592704</title>
<path fill="none" stroke="green" d="M36.88,-61.03C39.53,-68.86 42.73,-78.34 45.72,-87.17"/>
<polygon fill="green" stroke="green" points="42.31,-88.03 48.83,-96.38 48.94,-85.78 42.31,-88.03"/>
</g>
</g>
</svg>
