<?xml version="1.0" encoding="UTF-8" standalone="no"?>
<!DOCTYPE svg PUBLIC "-//W3C//DTD SVG 1.1//EN"
 "http://www.w3.org/Graphics/SVG/1.1/DTD/svg11.dtd">
<!-- Generated by graphviz version 14.0.0 (20250921.2048)
 -->
<!-- Pages: 1 -->
<svg width="362pt" height="289pt"
 viewBox="0.00 0.00 362.00 289.00" xmlns="http://www.w3.org/2000/svg" xmlns:xlink="http://www.w3.org/1999/xlink">
<g id="graph0" class="graph" transform="scale(1 1) rotate(0) translate(4 284.5)">
<polygon fill="white" stroke="none" points="-4,4 -4,-284.5 358.25,-284.5 358.25,4 -4,4"/>
<text xml:space="preserve" text-anchor="middle" x="177.12" y="-7.2" font-family="Times,serif" font-size="14.00">MaxHeap [84, 22, 19, 10, 3, 17, 6, 5, 9], heapsize: 9</text>
<!-- 4534521088 -->
<g id="node1" class="node">
<title>4534521088</title>
<path fill="lightgray" stroke="lightgray" d="M174.62,-244C174.62,-244 219.62,-244 219.62,-244 225.62,-244 231.62,-250 231.62,-256 231.62,-256 231.62,-268 231.62,-268 231.62,-274 225.62,-280 219.62,-280 219.62,-280 174.62,-280 174.62,-280 168.62,-280 162.62,-274 162.62,-268 162.62,-268 162.62,-256 162.62,-256 162.62,-250 168.62,-244 174.62,-244"/>
<text xml:space="preserve" text-anchor="middle" x="172.5" y="-256.95" font-family="Times,serif" font-size="14.00"> </text>
<polyline fill="none" stroke="lightgray" points="182.38,-244 182.38,-280"/>
<text xml:space="preserve" text-anchor="middle" x="197.12" y="-256.95" font-family="Times,serif" font-size="14.00">84</text>
<polyline fill="none" stroke="lightgray" points="211.88,-244 211.88,-280"/>
<text xml:space="preserve" text-anchor="middle" x="221.75" y="-256.95" font-family="Times,serif" font-size="14.00"> </text>
</g>
<!-- 4534524000 -->
<g id="node2" class="node">
<title>4534524000</title>
<path fill="lightgray" stroke="lightgray" d="M108.62,-171C108.62,-171 153.62,-171 153.62,-171 159.62,-171 165.62,-177 165.62,-183 165.62,-183 165.62,-195 165.62,-195 165.62,-201 159.62,-207 153.62,-207 153.62,-207 108.62,-207 108.62,-207 102.62,-207 96.62,-201 96.62,-195 96.62,-195 96.62,-183 96.62,-183 96.62,-177 102.62,-171 108.62,-171"/>
<text xml:space="preserve" text-anchor="middle" x="106.5" y="-183.95" font-family="Times,serif" font-size="14.00"> </text>
<polyline fill="none" stroke="lightgray" points="116.38,-171 116.38,-207"/>
<text xml:space="preserve" text-anchor="middle" x="131.12" y="-183.95" font-family="Times,serif" font-size="14.00">22</text>
<polyline fill="none" stroke="lightgray" points="145.88,-171 145.88,-207"/>
<text xml:space="preserve" text-anchor="middle" x="155.75" y="-183.95" font-family="Times,serif" font-size="14.00"> </text>
</g>
<!-- 4534521088&#45;&gt;4534524000 -->
<g id="edge1" class="edge">
<title>4534521088:l&#45;&gt;4534524000:v</title>
<path fill="none" stroke="black" d="M172.5,-243.5C172.5,-223.89 145.71,-228.31 135.24,-218.09"/>
<polygon fill="black" stroke="black" points="138.56,-216.96 131.67,-208.91 132.04,-219.5 138.56,-216.96"/>
</g>
<!-- 4534523328 -->
<g id="node3" class="node">
<title>4534523328</title>
<path fill="lightgray" stroke="lightgray" d="M240.62,-171C240.62,-171 285.62,-171 285.62,-171 291.62,-171 297.62,-177 297.62,-183 297.62,-183 297.62,-195 297.62,-195 297.62,-201 291.62,-207 285.62,-207 285.62,-207 240.62,-207 240.62,-207 234.62,-207 228.62,-201 228.62,-195 228.62,-195 228.62,-183 228.62,-183 228.62,-177 234.62,-171 240.62,-171"/>
<text xml:space="preserve" text-anchor="middle" x="238.5" y="-183.95" font-family="Times,serif" font-size="14.00"> </text>
<polyline fill="none" stroke="lightgray" points="248.38,-171 248.38,-207"/>
<text xml:space="preserve" text-anchor="middle" x="263.12" y="-183.95" font-family="Times,serif" font-size="14.00">19</text>
<polyline fill="none" stroke="lightgray" points="277.88,-171 277.88,-207"/>
<text xml:space="preserve" text-anchor="middle" x="287.75" y="-183.95" font-family="Times,serif" font-size="14.00"> </text>
</g>
<!-- 4534521088&#45;&gt;4534523328 -->
<g id="edge2" class="edge">
<title>4534521088:r&#45;&gt;4534523328:v</title>
<path fill="none" stroke="black" d="M221.75,-243.5C221.75,-223.89 248.54,-228.31 259.01,-218.09"/>
<polygon fill="black" stroke="black" points="262.21,-219.5 262.58,-208.91 255.69,-216.96 262.21,-219.5"/>
</g>
<!-- 4534530384 -->
<g id="node4" class="node">
<title>4534530384</title>
<path fill="lightgray" stroke="green" d="M48.62,-98C48.62,-98 93.62,-98 93.62,-98 99.62,-98 105.62,-104 105.62,-110 105.62,-110 105.62,-122 105.62,-122 105.62,-128 99.62,-134 93.62,-134 93.62,-134 48.62,-134 48.62,-134 42.62,-134 36.62,-128 36.62,-122 36.62,-122 36.62,-110 36.62,-110 36.62,-104 42.62,-98 48.62,-98"/>
<text xml:space="preserve" text-anchor="middle" x="46.5" y="-110.95" font-family="Times,serif" font-size="14.00"> </text>
<polyline fill="none" stroke="green" points="56.38,-98 56.38,-134"/>
<text xml:space="preserve" text-anchor="middle" x="71.12" y="-110.95" font-family="Times,serif" font-size="14.00">10</text>
<polyline fill="none" stroke="green" points="85.88,-98 85.88,-134"/>
<text xml:space="preserve" text-anchor="middle" x="95.75" y="-110.95" font-family="Times,serif" font-size="14.00"> </text>
</g>
<!-- 4534524000&#45;&gt;4534530384 -->
<g id="edge3" class="edge">
<title>4534524000:l&#45;&gt;4534530384:v</title>
<path fill="none" stroke="black" d="M106.5,-170.5C106.5,-152.8 84.47,-154.58 75.18,-145.11"/>
<polygon fill="black" stroke="black" points="78.51,-144 71.67,-135.91 71.97,-146.5 78.51,-144"/>
</g>
<!-- 4534530048 -->
<g id="node5" class="node">
<title>4534530048</title>
<path fill="lightgray" stroke="lightgray" d="M136,-98C136,-98 174.25,-98 174.25,-98 180.25,-98 186.25,-104 186.25,-110 186.25,-110 186.25,-122 186.25,-122 186.25,-128 180.25,-134 174.25,-134 174.25,-134 136,-134 136,-134 130,-134 124,-128 124,-122 124,-122 124,-110 124,-110 124,-104 130,-98 136,-98"/>
<text xml:space="preserve" text-anchor="middle" x="133.88" y="-110.95" font-family="Times,serif" font-size="14.00"> </text>
<polyline fill="none" stroke="lightgray" points="143.75,-98 143.75,-134"/>
<text xml:space="preserve" text-anchor="middle" x="155.12" y="-110.95" font-family="Times,serif" font-size="14.00">3</text>
<polyline fill="none" stroke="lightgray" points="166.5,-98 166.5,-134"/>
<text xml:space="preserve" text-anchor="middle" x="176.38" y="-110.95" font-family="Times,serif" font-size="14.00"> </text>
</g>
<!-- 4534524000&#45;&gt;4534530048 -->
<g id="edge4" class="edge">
<title>4534524000:r&#45;&gt;4534530048:v</title>
<path fill="none" stroke="black" d="M155.75,-170.5C155.75,-159.12 155.43,-153.82 155.25,-145.95"/>
<polygon fill="black" stroke="black" points="158.75,-145.97 155.14,-136.01 151.75,-146.05 158.75,-145.97"/>
</g>
<!-- 4534524784 -->
<g id="node6" class="node">
<title>4534524784</title>
<path fill="lightgray" stroke="lightgray" d="M216.62,-98C216.62,-98 261.62,-98 261.62,-98 267.62,-98 273.62,-104 273.62,-110 273.62,-110 273.62,-122 273.62,-122 273.62,-128 267.62,-134 261.62,-134 261.62,-134 216.62,-134 216.62,-134 210.62,-134 204.62,-128 204.62,-122 204.62,-122 204.62,-110 204.62,-110 204.62,-104 210.62,-98 216.62,-98"/>
<text xml:space="preserve" text-anchor="middle" x="214.5" y="-110.95" font-family="Times,serif" font-size="14.00"> </text>
<polyline fill="none" stroke="lightgray" points="224.38,-98 224.38,-134"/>
<text xml:space="preserve" text-anchor="middle" x="239.12" y="-110.95" font-family="Times,serif" font-size="14.00">17</text>
<polyline fill="none" stroke="lightgray" points="253.88,-98 253.88,-134"/>
<text xml:space="preserve" text-anchor="middle" x="263.75" y="-110.95" font-family="Times,serif" font-size="14.00"> </text>
</g>
<!-- 4534523328&#45;&gt;4534524784 -->
<g id="edge5" class="edge">
<title>4534523328:l&#45;&gt;4534524784:v</title>
<path fill="none" stroke="black" d="M238.5,-170.5C238.5,-159.12 238.82,-153.82 239,-145.95"/>
<polygon fill="black" stroke="black" points="242.5,-146.05 239.11,-136.01 235.5,-145.97 242.5,-146.05"/>
</g>
<!-- 4534529712 -->
<g id="node7" class="node">
<title>4534529712</title>
<path fill="lightgray" stroke="lightgray" d="M304,-98C304,-98 342.25,-98 342.25,-98 348.25,-98 354.25,-104 354.25,-110 354.25,-110 354.25,-122 354.25,-122 354.25,-128 348.25,-134 342.25,-134 342.25,-134 304,-134 304,-134 298,-134 292,-128 292,-122 292,-122 292,-110 292,-110 292,-104 298,-98 304,-98"/>
<text xml:space="preserve" text-anchor="middle" x="301.88" y="-110.95" font-family="Times,serif" font-size="14.00"> </text>
<polyline fill="none" stroke="lightgray" points="311.75,-98 311.75,-134"/>
<text xml:space="preserve" text-anchor="middle" x="323.12" y="-110.95" font-family="Times,serif" font-size="14.00">6</text>
<polyline fill="none" stroke="lightgray" points="334.5,-98 334.5,-134"/>
<text xml:space="preserve" text-anchor="middle" x="344.38" y="-110.95" font-family="Times,serif" font-size="14.00"> </text>
</g>
<!-- 4534523328&#45;&gt;4534529712 -->
<g id="edge6" class="edge">
<title>4534523328:r&#45;&gt;4534529712:v</title>
<path fill="none" stroke="black" d="M287.75,-170.5C287.75,-152.8 309.78,-154.58 319.07,-145.11"/>
<polygon fill="black" stroke="black" points="322.28,-146.5 322.58,-135.91 315.74,-144 322.28,-146.5"/>
</g>
<!-- 4534530160 -->
<g id="node8" class="node">
<title>4534530160</title>
<path fill="lightgray" stroke="green" d="M12,-25C12,-25 50.25,-25 50.25,-25 56.25,-25 62.25,-31 62.25,-37 62.25,-37 62.25,-49 62.25,-49 62.25,-55 56.25,-61 50.25,-61 50.25,-61 12,-61 12,-61 6,-61 0,-55 0,-49 0,-49 0,-37 0,-37 0,-31 6,-25 12,-25"/>
<text xml:space="preserve" text-anchor="middle" x="9.88" y="-37.95" font-family="Times,serif" font-size="14.00"> </text>
<polyline fill="none" stroke="green" points="19.75,-25 19.75,-61"/>
<text xml:space="preserve" text-anchor="middle" x="31.12" y="-37.95" font-family="Times,serif" font-size="14.00">5</text>
<polyline fill="none" stroke="green" points="42.5,-25 42.5,-61"/>
<text xml:space="preserve" text-anchor="middle" x="52.38" y="-37.95" font-family="Times,serif" font-size="14.00"> </text>
</g>
<!-- 4534530384&#45;&gt;4534530160 -->
<g id="edge7" class="edge">
<title>4534530384:l&#45;&gt;4534530160:v</title>
<path fill="none" stroke="black" d="M46.5,-97.5C46.5,-84.72 38.21,-80.68 33.8,-72.54"/>
<polygon fill="black" stroke="black" points="37.24,-71.86 31.48,-62.97 30.44,-73.51 37.24,-71.86"/>
</g>
<!-- 4534528928 -->
<g id="node9" class="node">
<title>4534528928</title>
<path fill="lightgray" stroke="lightgray" d="M92,-25C92,-25 130.25,-25 130.25,-25 136.25,-25 142.25,-31 142.25,-37 142.25,-37 142.25,-49 142.25,-49 142.25,-55 136.25,-61 130.25,-61 130.25,-61 92,-61 92,-61 86,-61 80,-55 80,-49 80,-49 80,-37 80,-37 80,-31 86,-25 92,-25"/>
<text xml:space="preserve" text-anchor="middle" x="89.88" y="-37.95" font-family="Times,serif" font-size="14.00"> </text>
<polyline fill="none" stroke="lightgray" points="99.75,-25 99.75,-61"/>
<text xml:space="preserve" text-anchor="middle" x="111.12" y="-37.95" font-family="Times,serif" font-size="14.00">9</text>
<polyline fill="none" stroke="lightgray" points="122.5,-25 122.5,-61"/>
<text xml:space="preserve" text-anchor="middle" x="132.38" y="-37.95" font-family="Times,serif" font-size="14.00"> </text>
</g>
<!-- 4534530384&#45;&gt;4534528928 -->
<g id="edge8" class="edge">
<title>4534530384:r&#45;&gt;4534528928:v</title>
<path fill="none" stroke="black" d="M95.75,-97.5C95.75,-84.72 104.04,-80.68 108.45,-72.54"/>
<polygon fill="black" stroke="black" points="111.81,-73.51 110.77,-62.97 105.01,-71.86 111.81,-73.51"/>
</g>
</g>
</svg>
