<?xml version="1.0" encoding="UTF-8" standalone="no"?>
<!DOCTYPE svg PUBLIC "-//W3C//DTD SVG 1.1//EN"
 "http://www.w3.org/Graphics/SVG/1.1/DTD/svg11.dtd">
<!-- Generated by graphviz version 14.0.0 (20250921.2048)
 -->
<!-- Pages: 1 -->
<svg width="411pt" height="337pt"
 viewBox="0.00 0.00 411.00 337.00" xmlns="http://www.w3.org/2000/svg" xmlns:xlink="http://www.w3.org/1999/xlink">
<g id="graph0" class="graph" transform="scale(1 1) rotate(0) translate(4 333)">
<polygon fill="white" stroke="none" points="-4,4 -4,-333 407,-333 407,4 -4,4"/>
<!-- 4536587152 -->
<g id="node1" class="node">
<title>4536587152</title>
<path fill="lightgray" stroke="lightgray" d="M214,-292.5C214,-292.5 259,-292.5 259,-292.5 265,-292.5 271,-298.5 271,-304.5 271,-304.5 271,-316.5 271,-316.5 271,-322.5 265,-328.5 259,-328.5 259,-328.5 214,-328.5 214,-328.5 208,-328.5 202,-322.5 202,-316.5 202,-316.5 202,-304.5 202,-304.5 202,-298.5 208,-292.5 214,-292.5"/>
<text xml:space="preserve" text-anchor="middle" x="211.88" y="-305.45" font-family="Times,serif" font-size="14.00"> </text>
<polyline fill="none" stroke="lightgray" points="221.75,-292.5 221.75,-328.5"/>
<text xml:space="preserve" text-anchor="middle" x="236.5" y="-305.45" font-family="Times,serif" font-size="14.00">33</text>
<polyline fill="none" stroke="lightgray" points="251.25,-292.5 251.25,-328.5"/>
<text xml:space="preserve" text-anchor="middle" x="261.12" y="-305.45" font-family="Times,serif" font-size="14.00"> </text>
</g>
<!-- 4536585584 -->
<g id="node2" class="node">
<title>4536585584</title>
<path fill="lightgray" stroke="lightgray" d="M173,-219.5C173,-219.5 218,-219.5 218,-219.5 224,-219.5 230,-225.5 230,-231.5 230,-231.5 230,-243.5 230,-243.5 230,-249.5 224,-255.5 218,-255.5 218,-255.5 173,-255.5 173,-255.5 167,-255.5 161,-249.5 161,-243.5 161,-243.5 161,-231.5 161,-231.5 161,-225.5 167,-219.5 173,-219.5"/>
<text xml:space="preserve" text-anchor="middle" x="170.88" y="-232.45" font-family="Times,serif" font-size="14.00"> </text>
<polyline fill="none" stroke="lightgray" points="180.75,-219.5 180.75,-255.5"/>
<text xml:space="preserve" text-anchor="middle" x="195.5" y="-232.45" font-family="Times,serif" font-size="14.00">11</text>
<polyline fill="none" stroke="lightgray" points="210.25,-219.5 210.25,-255.5"/>
<text xml:space="preserve" text-anchor="middle" x="220.12" y="-232.45" font-family="Times,serif" font-size="14.00"> </text>
</g>
<!-- 4536587152&#45;&gt;4536585584 -->
<g id="edge1" class="edge">
<title>4536587152:l&#45;&gt;4536585584:v</title>
<path fill="none" stroke="black" d="M211.88,-292C211.88,-279.09 203.04,-275.21 198.35,-267.09"/>
<polygon fill="black" stroke="black" points="201.76,-266.28 195.88,-257.47 194.98,-268.02 201.76,-266.28"/>
</g>
<!-- 4536585808 -->
<g id="node3" class="node">
<title>4536585808</title>
<path fill="lightgray" stroke="lightgray" d="M259.38,-73.5C259.38,-73.5 297.62,-73.5 297.62,-73.5 303.62,-73.5 309.62,-79.5 309.62,-85.5 309.62,-85.5 309.62,-97.5 309.62,-97.5 309.62,-103.5 303.62,-109.5 297.62,-109.5 297.62,-109.5 259.38,-109.5 259.38,-109.5 253.38,-109.5 247.38,-103.5 247.38,-97.5 247.38,-97.5 247.38,-85.5 247.38,-85.5 247.38,-79.5 253.38,-73.5 259.38,-73.5"/>
<text xml:space="preserve" text-anchor="middle" x="257.25" y="-86.45" font-family="Times,serif" font-size="14.00"> </text>
<polyline fill="none" stroke="lightgray" points="267.12,-73.5 267.12,-109.5"/>
<text xml:space="preserve" text-anchor="middle" x="278.5" y="-86.45" font-family="Times,serif" font-size="14.00">4</text>
<polyline fill="none" stroke="lightgray" points="289.88,-73.5 289.88,-109.5"/>
<text xml:space="preserve" text-anchor="middle" x="299.75" y="-86.45" font-family="Times,serif" font-size="14.00"> </text>
</g>
<!-- 4536587152&#45;&gt;4536585808 -->
<g id="edge2" class="edge">
<title>4536587152:r&#45;&gt;4536585808:v</title>
<path fill="none" stroke="black" d="M261.12,-292C261.12,-214.71 276.84,-193.31 278.38,-121.48"/>
<polygon fill="black" stroke="black" points="281.88,-121.55 278.48,-111.51 274.88,-121.48 281.88,-121.55"/>
</g>
<!-- 4536586032 -->
<g id="node4" class="node">
<title>4536586032</title>
<path fill="lightgray" stroke="lightgray" d="M72,-146.5C72,-146.5 117,-146.5 117,-146.5 123,-146.5 129,-152.5 129,-158.5 129,-158.5 129,-170.5 129,-170.5 129,-176.5 123,-182.5 117,-182.5 117,-182.5 72,-182.5 72,-182.5 66,-182.5 60,-176.5 60,-170.5 60,-170.5 60,-158.5 60,-158.5 60,-152.5 66,-146.5 72,-146.5"/>
<text xml:space="preserve" text-anchor="middle" x="69.88" y="-159.45" font-family="Times,serif" font-size="14.00"> </text>
<polyline fill="none" stroke="lightgray" points="79.75,-146.5 79.75,-182.5"/>
<text xml:space="preserve" text-anchor="middle" x="94.5" y="-159.45" font-family="Times,serif" font-size="14.00">44</text>
<polyline fill="none" stroke="lightgray" points="109.25,-146.5 109.25,-182.5"/>
<text xml:space="preserve" text-anchor="middle" x="119.12" y="-159.45" font-family="Times,serif" font-size="14.00"> </text>
</g>
<!-- 4536585584&#45;&gt;4536586032 -->
<g id="edge3" class="edge">
<title>4536585584:l&#45;&gt;4536586032:v</title>
<path fill="none" stroke="black" d="M170.88,-219C170.88,-186.16 112.4,-211.96 97.78,-193.78"/>
<polygon fill="black" stroke="black" points="101.2,-193 94.94,-184.45 94.5,-195.03 101.2,-193"/>
</g>
<!-- 4536587824 -->
<g id="node5" class="node">
<title>4536587824</title>
<path fill="lightgray" stroke="lightgray" d="M200.38,-146.5C200.38,-146.5 238.62,-146.5 238.62,-146.5 244.62,-146.5 250.62,-152.5 250.62,-158.5 250.62,-158.5 250.62,-170.5 250.62,-170.5 250.62,-176.5 244.62,-182.5 238.62,-182.5 238.62,-182.5 200.38,-182.5 200.38,-182.5 194.38,-182.5 188.38,-176.5 188.38,-170.5 188.38,-170.5 188.38,-158.5 188.38,-158.5 188.38,-152.5 194.38,-146.5 200.38,-146.5"/>
<text xml:space="preserve" text-anchor="middle" x="198.25" y="-159.45" font-family="Times,serif" font-size="14.00"> </text>
<polyline fill="none" stroke="lightgray" points="208.12,-146.5 208.12,-182.5"/>
<text xml:space="preserve" text-anchor="middle" x="219.5" y="-159.45" font-family="Times,serif" font-size="14.00">3</text>
<polyline fill="none" stroke="lightgray" points="230.88,-146.5 230.88,-182.5"/>
<text xml:space="preserve" text-anchor="middle" x="240.75" y="-159.45" font-family="Times,serif" font-size="14.00"> </text>
</g>
<!-- 4536585584&#45;&gt;4536587824 -->
<g id="edge4" class="edge">
<title>4536585584:r&#45;&gt;4536587824:v</title>
<path fill="none" stroke="black" d="M220.12,-219C220.12,-207.62 219.81,-202.32 219.63,-194.45"/>
<polygon fill="black" stroke="black" points="223.13,-194.47 219.52,-184.51 216.13,-194.55 223.13,-194.47"/>
</g>
<!-- 4536586704 -->
<g id="node6" class="node">
<title>4536586704</title>
<path fill="lightgray" stroke="lightgray" d="M214,-0.5C214,-0.5 259,-0.5 259,-0.5 265,-0.5 271,-6.5 271,-12.5 271,-12.5 271,-24.5 271,-24.5 271,-30.5 265,-36.5 259,-36.5 259,-36.5 214,-36.5 214,-36.5 208,-36.5 202,-30.5 202,-24.5 202,-24.5 202,-12.5 202,-12.5 202,-6.5 208,-0.5 214,-0.5"/>
<text xml:space="preserve" text-anchor="middle" x="211.88" y="-13.45" font-family="Times,serif" font-size="14.00"> </text>
<polyline fill="none" stroke="lightgray" points="221.75,-0.5 221.75,-36.5"/>
<text xml:space="preserve" text-anchor="middle" x="236.5" y="-13.45" font-family="Times,serif" font-size="14.00">55</text>
<polyline fill="none" stroke="lightgray" points="251.25,-0.5 251.25,-36.5"/>
<text xml:space="preserve" text-anchor="middle" x="261.12" y="-13.45" font-family="Times,serif" font-size="14.00"> </text>
</g>
<!-- 4536585808&#45;&gt;4536586704 -->
<g id="edge5" class="edge">
<title>4536585808:l&#45;&gt;4536586704:v</title>
<path fill="none" stroke="black" d="M257.25,-73C257.25,-59.15 245.58,-56.21 239.74,-47.82"/>
<polygon fill="black" stroke="black" points="243.16,-47.02 236.93,-38.45 236.45,-49.03 243.16,-47.02"/>
</g>
<!-- 4536586144 -->
<g id="node7" class="node">
<title>4536586144</title>
<path fill="lightgray" stroke="lightgray" d="M301.38,-0.5C301.38,-0.5 339.62,-0.5 339.62,-0.5 345.62,-0.5 351.62,-6.5 351.62,-12.5 351.62,-12.5 351.62,-24.5 351.62,-24.5 351.62,-30.5 345.62,-36.5 339.62,-36.5 339.62,-36.5 301.38,-36.5 301.38,-36.5 295.38,-36.5 289.38,-30.5 289.38,-24.5 289.38,-24.5 289.38,-12.5 289.38,-12.5 289.38,-6.5 295.38,-0.5 301.38,-0.5"/>
<text xml:space="preserve" text-anchor="middle" x="299.25" y="-13.45" font-family="Times,serif" font-size="14.00"> </text>
<polyline fill="none" stroke="lightgray" points="309.12,-0.5 309.12,-36.5"/>
<text xml:space="preserve" text-anchor="middle" x="320.5" y="-13.45" font-family="Times,serif" font-size="14.00">3</text>
<polyline fill="none" stroke="lightgray" points="331.88,-0.5 331.88,-36.5"/>
<text xml:space="preserve" text-anchor="middle" x="341.75" y="-13.45" font-family="Times,serif" font-size="14.00"> </text>
</g>
<!-- 4536585808&#45;&gt;4536586144 -->
<g id="edge6" class="edge">
<title>4536585808:r&#45;&gt;4536586144:v</title>
<path fill="none" stroke="black" d="M299.75,-73C299.75,-59.15 311.42,-56.21 317.26,-47.82"/>
<polygon fill="black" stroke="black" points="320.55,-49.03 320.07,-38.45 313.84,-47.02 320.55,-49.03"/>
</g>
<!-- 4536586480 -->
<g id="node8" class="node">
<title>4536586480</title>
<path fill="lightgray" stroke="lightgray" d="M12,-73.5C12,-73.5 57,-73.5 57,-73.5 63,-73.5 69,-79.5 69,-85.5 69,-85.5 69,-97.5 69,-97.5 69,-103.5 63,-109.5 57,-109.5 57,-109.5 12,-109.5 12,-109.5 6,-109.5 0,-103.5 0,-97.5 0,-97.5 0,-85.5 0,-85.5 0,-79.5 6,-73.5 12,-73.5"/>
<text xml:space="preserve" text-anchor="middle" x="9.88" y="-86.45" font-family="Times,serif" font-size="14.00"> </text>
<polyline fill="none" stroke="lightgray" points="19.75,-73.5 19.75,-109.5"/>
<text xml:space="preserve" text-anchor="middle" x="34.5" y="-86.45" font-family="Times,serif" font-size="14.00">22</text>
<polyline fill="none" stroke="lightgray" points="49.25,-73.5 49.25,-109.5"/>
<text xml:space="preserve" text-anchor="middle" x="59.12" y="-86.45" font-family="Times,serif" font-size="14.00"> </text>
</g>
<!-- 4536586032&#45;&gt;4536586480 -->
<g id="edge7" class="edge">
<title>4536586032:l&#45;&gt;4536586480:v</title>
<path fill="none" stroke="black" d="M69.88,-146C69.88,-128.3 47.85,-130.08 38.56,-120.61"/>
<polygon fill="black" stroke="black" points="41.88,-119.5 35.04,-111.41 35.35,-122 41.88,-119.5"/>
</g>
<!-- 4536586256 -->
<g id="node9" class="node">
<title>4536586256</title>
<path fill="lightgray" stroke="lightgray" d="M99.38,-73.5C99.38,-73.5 137.62,-73.5 137.62,-73.5 143.62,-73.5 149.62,-79.5 149.62,-85.5 149.62,-85.5 149.62,-97.5 149.62,-97.5 149.62,-103.5 143.62,-109.5 137.62,-109.5 137.62,-109.5 99.38,-109.5 99.38,-109.5 93.38,-109.5 87.38,-103.5 87.38,-97.5 87.38,-97.5 87.38,-85.5 87.38,-85.5 87.38,-79.5 93.38,-73.5 99.38,-73.5"/>
<text xml:space="preserve" text-anchor="middle" x="97.25" y="-86.45" font-family="Times,serif" font-size="14.00"> </text>
<polyline fill="none" stroke="lightgray" points="107.12,-73.5 107.12,-109.5"/>
<text xml:space="preserve" text-anchor="middle" x="118.5" y="-86.45" font-family="Times,serif" font-size="14.00">2</text>
<polyline fill="none" stroke="lightgray" points="129.88,-73.5 129.88,-109.5"/>
<text xml:space="preserve" text-anchor="middle" x="139.75" y="-86.45" font-family="Times,serif" font-size="14.00"> </text>
</g>
<!-- 4536586032&#45;&gt;4536586256 -->
<g id="edge8" class="edge">
<title>4536586032:r&#45;&gt;4536586256:v</title>
<path fill="none" stroke="black" d="M119.12,-146C119.12,-134.62 118.81,-129.32 118.63,-121.45"/>
<polygon fill="black" stroke="black" points="122.13,-121.47 118.52,-111.51 115.13,-121.55 122.13,-121.47"/>
</g>
<!-- 4536587824&#45;&gt;4536585808 -->
<g id="edge11" class="edge">
<title>4536587824&#45;&gt;4536585808</title>
<path fill="none" stroke="green" d="M233.78,-146.31C240.81,-137.85 249.43,-127.48 257.22,-118.11"/>
<polygon fill="green" stroke="green" points="259.68,-120.62 263.38,-110.69 254.3,-116.15 259.68,-120.62"/>
</g>
<!-- 4536586368 -->
<g id="node10" class="node">
<title>4536586368</title>
<path fill="lightgray" stroke="lightgray" d="M179.38,-73.5C179.38,-73.5 217.62,-73.5 217.62,-73.5 223.62,-73.5 229.62,-79.5 229.62,-85.5 229.62,-85.5 229.62,-97.5 229.62,-97.5 229.62,-103.5 223.62,-109.5 217.62,-109.5 217.62,-109.5 179.38,-109.5 179.38,-109.5 173.38,-109.5 167.38,-103.5 167.38,-97.5 167.38,-97.5 167.38,-85.5 167.38,-85.5 167.38,-79.5 173.38,-73.5 179.38,-73.5"/>
<text xml:space="preserve" text-anchor="middle" x="177.25" y="-86.45" font-family="Times,serif" font-size="14.00"> </text>
<polyline fill="none" stroke="lightgray" points="187.12,-73.5 187.12,-109.5"/>
<text xml:space="preserve" text-anchor="middle" x="198.5" y="-86.45" font-family="Times,serif" font-size="14.00">1</text>
<polyline fill="none" stroke="lightgray" points="209.88,-73.5 209.88,-109.5"/>
<text xml:space="preserve" text-anchor="middle" x="219.75" y="-86.45" font-family="Times,serif" font-size="14.00"> </text>
</g>
<!-- 4536587824&#45;&gt;4536586368 -->
<g id="edge9" class="edge">
<title>4536587824:l&#45;&gt;4536586368:v</title>
<path fill="none" stroke="black" d="M198.25,-146C198.25,-134.62 198.38,-129.32 198.45,-121.45"/>
<polygon fill="black" stroke="black" points="201.95,-121.53 198.49,-111.51 194.95,-121.5 201.95,-121.53"/>
</g>
<!-- 4536585696 -->
<g id="node11" class="node">
<title>4536585696</title>
<path fill="lightgray" stroke="lightgray" d="M340,-73.5C340,-73.5 391,-73.5 391,-73.5 397,-73.5 403,-79.5 403,-85.5 403,-85.5 403,-97.5 403,-97.5 403,-103.5 397,-109.5 391,-109.5 391,-109.5 340,-109.5 340,-109.5 334,-109.5 328,-103.5 328,-97.5 328,-97.5 328,-85.5 328,-85.5 328,-79.5 334,-73.5 340,-73.5"/>
<text xml:space="preserve" text-anchor="middle" x="337.88" y="-86.45" font-family="Times,serif" font-size="14.00"> </text>
<polyline fill="none" stroke="lightgray" points="347.75,-73.5 347.75,-109.5"/>
<text xml:space="preserve" text-anchor="middle" x="365.5" y="-86.45" font-family="Times,serif" font-size="14.00">&#45;inf</text>
<polyline fill="none" stroke="lightgray" points="383.25,-73.5 383.25,-109.5"/>
<text xml:space="preserve" text-anchor="middle" x="393.12" y="-86.45" font-family="Times,serif" font-size="14.00"> </text>
</g>
<!-- 4536587824&#45;&gt;4536585696 -->
<g id="edge10" class="edge">
<title>4536587824:r&#45;&gt;4536585696:v</title>
<path fill="none" stroke="black" d="M251.62,-164.5C276.06,-164.5 344.33,-144.43 361.53,-120.72"/>
<polygon fill="black" stroke="black" points="364.78,-122.01 364.97,-111.42 358.22,-119.58 364.78,-122.01"/>
</g>
</g>
</svg>
