<?xml version="1.0" encoding="UTF-8" standalone="no"?>
<!DOCTYPE svg PUBLIC "-//W3C//DTD SVG 1.1//EN"
 "http://www.w3.org/Graphics/SVG/1.1/DTD/svg11.dtd">
<!-- Generated by graphviz version 14.0.0 (20250921.2048)
 -->
<!-- Title: G Pages: 1 -->
<svg width="343pt" height="500pt"
 viewBox="0.00 0.00 343.00 500.00" xmlns="http://www.w3.org/2000/svg" xmlns:xlink="http://www.w3.org/1999/xlink">
<g id="graph0" class="graph" transform="scale(0.598086 0.598086) rotate(0) translate(4 832)">
<title>G</title>
<polygon fill="white" stroke="none" points="-4,4 -4,-832 570,-832 570,4 -4,4"/>
<!-- 0 -->
<!-- 1 -->
<g id="node2" class="node">
<title>1</title>
<ellipse fill="none" stroke="black" cx="175" cy="-666" rx="27" ry="18"/>
<text xml:space="preserve" text-anchor="middle" x="175" y="-660.95" font-family="Times,serif" font-size="14.00">1</text>
</g>
<!-- 0&#45;&gt;1 -->
<!-- 2 -->
<g id="node3" class="node">
<title>2</title>
<ellipse fill="none" stroke="black" cx="283" cy="-594" rx="27" ry="18"/>
<text xml:space="preserve" text-anchor="middle" x="283" y="-588.95" font-family="Times,serif" font-size="14.00">2</text>
</g>
<!-- 0&#45;&gt;2 -->
<!-- 1&#45;&gt;0 -->
<!-- 1&#45;&gt;2 -->
<g id="edge4" class="edge">
<title>1&#45;&gt;2</title>
<path fill="none" stroke="black" d="M193.81,-652.81C210.59,-641.93 235.39,-625.86 254.59,-613.42"/>
<polygon fill="black" stroke="black" points="256.28,-616.49 262.77,-608.11 252.48,-610.61 256.28,-616.49"/>
</g>
<!-- 3 -->
<g id="node4" class="node">
<title>3</title>
<ellipse fill="none" stroke="black" cx="207" cy="-522" rx="27" ry="18"/>
<text xml:space="preserve" text-anchor="middle" x="207" y="-516.95" font-family="Times,serif" font-size="14.00">3</text>
</g>
<!-- 1&#45;&gt;3 -->
<!-- 4 -->
<g id="node5" class="node">
<title>4</title>
<ellipse fill="none" stroke="black" cx="131" cy="-450" rx="27" ry="18"/>
<text xml:space="preserve" text-anchor="middle" x="131" y="-444.95" font-family="Times,serif" font-size="14.00">4</text>
</g>
<!-- 1&#45;&gt;4 -->
<!-- 2&#45;&gt;0 -->
<!-- 2&#45;&gt;3 -->
<g id="edge26" class="edge">
<title>2&#45;&gt;3</title>
<path fill="none" stroke="black" d="M267.62,-578.83C257.01,-569.06 242.7,-555.88 230.65,-544.78"/>
<polygon fill="black" stroke="black" points="233.2,-542.37 223.47,-538.17 228.45,-547.52 233.2,-542.37"/>
</g>
<!-- 5 -->
<g id="node6" class="node">
<title>5</title>
<ellipse fill="none" stroke="black" cx="321" cy="-378" rx="27" ry="18"/>
<text xml:space="preserve" text-anchor="middle" x="321" y="-372.95" font-family="Times,serif" font-size="14.00">5</text>
</g>
<!-- 2&#45;&gt;5 -->
<!-- 6 -->
<g id="node7" class="node">
<title>6</title>
<ellipse fill="none" stroke="black" cx="348" cy="-306" rx="27" ry="18"/>
<text xml:space="preserve" text-anchor="middle" x="348" y="-300.95" font-family="Times,serif" font-size="14.00">11</text>
</g>
<!-- 2&#45;&gt;6 -->
<!-- 3&#45;&gt;0 -->
<!-- 3&#45;&gt;4 -->
<g id="edge5" class="edge">
<title>3&#45;&gt;4</title>
<path fill="none" stroke="black" d="M191.62,-506.83C181.01,-497.06 166.7,-483.88 154.65,-472.78"/>
<polygon fill="black" stroke="black" points="157.2,-470.37 147.47,-466.17 152.45,-475.52 157.2,-470.37"/>
</g>
<!-- 7 -->
<g id="node8" class="node">
<title>7</title>
<ellipse fill="none" stroke="black" cx="348" cy="-234" rx="27" ry="18"/>
<text xml:space="preserve" text-anchor="middle" x="348" y="-228.95" font-family="Times,serif" font-size="14.00">22</text>
</g>
<!-- 3&#45;&gt;7 -->
<!-- 8 -->
<g id="node9" class="node">
<title>8</title>
<ellipse fill="none" stroke="black" cx="97" cy="-162" rx="27" ry="18"/>
<text xml:space="preserve" text-anchor="middle" x="97" y="-156.95" font-family="Times,serif" font-size="14.00">33</text>
</g>
<!-- 3&#45;&gt;8 -->
<!-- 4&#45;&gt;0 -->
<!-- 4&#45;&gt;5 -->
<g id="edge28" class="edge">
<title>4&#45;&gt;5</title>
<path fill="none" stroke="black" d="M154.3,-440.42C187.58,-428.16 248.93,-405.55 287.2,-391.45"/>
<polygon fill="black" stroke="black" points="288.22,-394.81 296.39,-388.07 285.8,-388.24 288.22,-394.81"/>
</g>
<!-- 9 -->
<g id="node10" class="node">
<title>9</title>
<ellipse fill="none" stroke="black" cx="124" cy="-90" rx="27" ry="18"/>
<text xml:space="preserve" text-anchor="middle" x="124" y="-84.95" font-family="Times,serif" font-size="14.00">44</text>
</g>
<!-- 4&#45;&gt;9 -->
<!-- 5&#45;&gt;0 -->
<!-- 5&#45;&gt;6 -->
<g id="edge31" class="edge">
<title>5&#45;&gt;6</title>
<path fill="none" stroke="black" d="M327.54,-360.05C330.52,-352.32 334.13,-342.96 337.48,-334.27"/>
<polygon fill="black" stroke="black" points="340.65,-335.79 340.98,-325.2 334.12,-333.27 340.65,-335.79"/>
</g>
<!-- 6&#45;&gt;0 -->
<!-- 6&#45;&gt;7 -->
<g id="edge11" class="edge">
<title>6&#45;&gt;7</title>
<path fill="none" stroke="black" d="M348,-287.7C348,-280.41 348,-271.73 348,-263.54"/>
<polygon fill="black" stroke="black" points="351.5,-263.62 348,-253.62 344.5,-263.62 351.5,-263.62"/>
</g>
<!-- 7&#45;&gt;0 -->
<!-- 7&#45;&gt;8 -->
<g id="edge33" class="edge">
<title>7&#45;&gt;8</title>
<path fill="none" stroke="black" d="M323.48,-226.16C278.86,-213.72 184.28,-187.34 132.58,-172.92"/>
<polygon fill="black" stroke="black" points="133.65,-169.59 123.08,-170.27 131.77,-176.33 133.65,-169.59"/>
</g>
<!-- 8&#45;&gt;0 -->
<!-- 8&#45;&gt;9 -->
<g id="edge13" class="edge">
<title>8&#45;&gt;9</title>
<path fill="none" stroke="black" d="M103.54,-144.05C106.52,-136.32 110.13,-126.96 113.48,-118.27"/>
<polygon fill="black" stroke="black" points="116.65,-119.79 116.98,-109.2 110.12,-117.27 116.65,-119.79"/>
</g>
<!-- 9&#45;&gt;0 -->
<!-- 10 -->
<g id="node11" class="node">
<title>10</title>
<ellipse fill="none" stroke="black" cx="124" cy="-18" rx="27" ry="18"/>
<text xml:space="preserve" text-anchor="middle" x="124" y="-12.95" font-family="Times,serif" font-size="14.00">55</text>
</g>
<!-- 9&#45;&gt;10 -->
<g id="edge2" class="edge">
<title>9&#45;&gt;10</title>
<path fill="none" stroke="black" d="M124,-71.7C124,-64.41 124,-55.73 124,-47.54"/>
<polygon fill="black" stroke="black" points="127.5,-47.62 124,-37.62 120.5,-47.62 127.5,-47.62"/>
</g>
<!-- None -->
<!-- None&#45;&gt;0 -->
<!-- None&#45;&gt;5 -->
<!-- None&#45;&gt;6 -->
<!-- None&#45;&gt;7 -->
<!-- None&#45;&gt;8 -->
<!-- None&#45;&gt;9 -->
</g>
</svg>
