<?xml version="1.0" encoding="UTF-8" standalone="no"?>
<!DOCTYPE svg PUBLIC "-//W3C//DTD SVG 1.1//EN"
 "http://www.w3.org/Graphics/SVG/1.1/DTD/svg11.dtd">
<!-- Generated by graphviz version 14.0.0 (20250921.2048)
 -->
<!-- Title: G Pages: 1 -->
<svg width="389pt" height="500pt"
 viewBox="0.00 0.00 389.00 500.00" xmlns="http://www.w3.org/2000/svg" xmlns:xlink="http://www.w3.org/1999/xlink">
<g id="graph0" class="graph" transform="scale(0.598086 0.598086) rotate(0) translate(4 832)">
<title>G</title>
<polygon fill="white" stroke="none" points="-4,4 -4,-832 646,-832 646,4 -4,4"/>
<!-- 0 -->
<g id="node1" class="node">
<title>0</title>
<ellipse fill="none" stroke="black" cx="333" cy="-738" rx="27" ry="18"/>
<text xml:space="preserve" text-anchor="middle" x="333" y="-732.95" font-family="Times,serif" font-size="14.00">1</text>
</g>
<!-- 1 -->
<g id="node2" class="node">
<title>1</title>
<ellipse fill="none" stroke="black" cx="253" cy="-666" rx="27" ry="18"/>
<text xml:space="preserve" text-anchor="middle" x="253" y="-660.95" font-family="Times,serif" font-size="14.00">2</text>
</g>
<!-- 0&#45;&gt;1 -->
<g id="edge21" class="edge">
<title>0&#45;&gt;1</title>
<path fill="none" stroke="black" d="M313.8,-724.81C301.41,-715.26 285.54,-701.7 273.02,-690.11"/>
<polygon fill="black" stroke="black" points="275.74,-687.87 266.08,-683.52 270.92,-692.94 275.74,-687.87"/>
</g>
<!-- 2 -->
<g id="node3" class="node">
<title>2</title>
<ellipse fill="none" stroke="black" cx="359" cy="-594" rx="27" ry="18"/>
<text xml:space="preserve" text-anchor="middle" x="359" y="-588.95" font-family="Times,serif" font-size="14.00">3</text>
</g>
<!-- 0&#45;&gt;2 -->
<g id="edge8" class="edge">
<title>0&#45;&gt;2</title>
<path fill="none" stroke="black" d="M331.57,-719.59C333.48,-695.37 341.27,-651.28 348.48,-622.57"/>
<polygon fill="black" stroke="black" points="351.8,-623.7 351.02,-613.13 345.04,-621.88 351.8,-623.7"/>
</g>
<!-- 1&#45;&gt;0 -->
<!-- 1&#45;&gt;2 -->
<!-- 3 -->
<g id="node4" class="node">
<title>3</title>
<ellipse fill="none" stroke="black" cx="283" cy="-522" rx="27" ry="18"/>
<text xml:space="preserve" text-anchor="middle" x="283" y="-516.95" font-family="Times,serif" font-size="14.00">4</text>
</g>
<!-- 1&#45;&gt;3 -->
<!-- 4 -->
<g id="node5" class="node">
<title>4</title>
<ellipse fill="none" stroke="black" cx="207" cy="-450" rx="27" ry="18"/>
<text xml:space="preserve" text-anchor="middle" x="207" y="-444.95" font-family="Times,serif" font-size="14.00">5</text>
</g>
<!-- 1&#45;&gt;4 -->
<!-- 2&#45;&gt;0 -->
<!-- 2&#45;&gt;3 -->
<!-- 5 -->
<g id="node6" class="node">
<title>5</title>
<ellipse fill="none" stroke="black" cx="397" cy="-378" rx="27" ry="18"/>
<text xml:space="preserve" text-anchor="middle" x="397" y="-372.95" font-family="Times,serif" font-size="14.00">11</text>
</g>
<!-- 2&#45;&gt;5 -->
<!-- 6 -->
<g id="node7" class="node">
<title>6</title>
<ellipse fill="none" stroke="black" cx="425" cy="-306" rx="27" ry="18"/>
<text xml:space="preserve" text-anchor="middle" x="425" y="-300.95" font-family="Times,serif" font-size="14.00">22</text>
</g>
<!-- 2&#45;&gt;6 -->
<!-- 3&#45;&gt;0 -->
<!-- 3&#45;&gt;4 -->
<!-- 7 -->
<g id="node8" class="node">
<title>7</title>
<ellipse fill="none" stroke="black" cx="425" cy="-234" rx="27" ry="18"/>
<text xml:space="preserve" text-anchor="middle" x="425" y="-228.95" font-family="Times,serif" font-size="14.00">33</text>
</g>
<!-- 3&#45;&gt;7 -->
<!-- 8 -->
<g id="node9" class="node">
<title>8</title>
<ellipse fill="none" stroke="black" cx="169" cy="-162" rx="27" ry="18"/>
<text xml:space="preserve" text-anchor="middle" x="169" y="-156.95" font-family="Times,serif" font-size="14.00">44</text>
</g>
<!-- 3&#45;&gt;8 -->
<!-- 4&#45;&gt;0 -->
<!-- 4&#45;&gt;5 -->
<!-- 9 -->
<g id="node10" class="node">
<title>9</title>
<ellipse fill="none" stroke="black" cx="196" cy="-90" rx="27" ry="18"/>
<text xml:space="preserve" text-anchor="middle" x="196" y="-84.95" font-family="Times,serif" font-size="14.00">55</text>
</g>
<!-- 4&#45;&gt;9 -->
<!-- 5&#45;&gt;0 -->
<!-- 5&#45;&gt;6 -->
<!-- 6&#45;&gt;0 -->
<!-- 6&#45;&gt;7 -->
<!-- 7&#45;&gt;0 -->
<!-- 7&#45;&gt;8 -->
<!-- 8&#45;&gt;0 -->
<!-- 8&#45;&gt;9 -->
<!-- 9&#45;&gt;0 -->
<!-- 10 -->
<!-- 9&#45;&gt;10 -->
<!-- None -->
<g id="node12" class="node">
<title>None</title>
<ellipse fill="none" stroke="black" cx="424" cy="-810" rx="30.88" ry="18"/>
<text xml:space="preserve" text-anchor="middle" x="424" y="-804.95" font-family="Times,serif" font-size="14.00">None</text>
</g>
<!-- None&#45;&gt;0 -->
<g id="edge13" class="edge">
<title>None&#45;&gt;0</title>
<path fill="none" stroke="black" d="M406.02,-795.17C392.64,-784.88 374.17,-770.67 359.15,-759.12"/>
<polygon fill="black" stroke="black" points="361.58,-756.57 351.52,-753.25 357.32,-762.12 361.58,-756.57"/>
</g>
<!-- None&#45;&gt;3 -->
<g id="edge14" class="edge">
<title>None&#45;&gt;3</title>
<path fill="none" stroke="black" d="M395.52,-802.69C346.72,-790.07 249.28,-756.48 217,-684 195.41,-635.53 234.52,-577.77 261.2,-546.29"/>
<polygon fill="black" stroke="black" points="263.71,-548.74 267.67,-538.91 258.45,-544.13 263.71,-548.74"/>
</g>
<!-- None&#45;&gt;4 -->
<g id="edge1" class="edge">
<title>None&#45;&gt;4</title>
<path fill="none" stroke="black" d="M393.06,-807.05C353.59,-803.12 284.94,-791.34 239,-756 148.29,-686.22 162.98,-616.11 186,-504 187.81,-495.2 190.97,-485.98 194.3,-477.74"/>
<polygon fill="black" stroke="black" points="197.48,-479.21 198.24,-468.64 191.06,-476.43 197.48,-479.21"/>
</g>
<!-- None&#45;&gt;5 -->
<g id="edge26" class="edge">
<title>None&#45;&gt;5</title>
<path fill="none" stroke="black" d="M436.73,-793.49C455.9,-768.49 490,-717.02 490,-667 10,0 10,0 490,-521 490,-471.27 449.6,-425.41 422.05,-399.92"/>
<polygon fill="black" stroke="black" points="424.54,-397.45 414.75,-393.39 419.87,-402.66 424.54,-397.45"/>
</g>
<!-- None&#45;&gt;6 -->
<g id="edge15" class="edge">
<title>None&#45;&gt;6</title>
<path fill="none" stroke="black" d="M448.09,-798.45C488.6,-778.89 566,-732.89 566,-667 10,0 10,0 566,-449 566,-387.64 498.88,-343.35 457.26,-321.79"/>
<polygon fill="black" stroke="black" points="458.9,-318.7 448.39,-317.36 455.77,-324.96 458.9,-318.7"/>
</g>
<!-- None&#45;&gt;7 -->
<g id="edge4" class="edge">
<title>None&#45;&gt;7</title>
<path fill="none" stroke="black" d="M451.34,-801.39C501.69,-785.52 604,-743.82 604,-667 10,0 10,0 604,-377 604,-304.38 512.46,-263.01 460.31,-245.33"/>
<polygon fill="black" stroke="black" points="461.55,-242.05 450.95,-242.28 459.38,-248.71 461.55,-242.05"/>
</g>
<!-- None&#45;&gt;8 -->
<g id="edge27" class="edge">
<title>None&#45;&gt;8</title>
<path fill="none" stroke="black" d="M393.85,-805.54C296.98,-793.59 0,-750.16 0,-667 10,0 10,0 0,-377 0,-287.72 91.71,-213.85 140.01,-181.13"/>
<polygon fill="black" stroke="black" points="141.94,-184.05 148.35,-175.62 138.08,-178.21 141.94,-184.05"/>
</g>
<!-- None&#45;&gt;9 -->
<g id="edge17" class="edge">
<title>None&#45;&gt;9</title>
<path fill="none" stroke="black" d="M453.4,-804.03C512.91,-792.1 642,-755.98 642,-667 10,0 10,0 642,-233 642,-147.72 342.22,-106.83 234.21,-94.86"/>
<polygon fill="black" stroke="black" points="234.72,-91.4 224.4,-93.8 233.96,-98.36 234.72,-91.4"/>
</g>
</g>
</svg>
