<?xml version="1.0" encoding="UTF-8" standalone="no"?>
<!DOCTYPE svg PUBLIC "-//W3C//DTD SVG 1.1//EN"
 "http://www.w3.org/Graphics/SVG/1.1/DTD/svg11.dtd">
<!-- Generated by graphviz version 14.0.0 (20250921.2048)
 -->
<!-- Pages: 1 -->
<svg width="331pt" height="264pt"
 viewBox="0.00 0.00 331.00 264.00" xmlns="http://www.w3.org/2000/svg" xmlns:xlink="http://www.w3.org/1999/xlink">
<g id="graph0" class="graph" transform="scale(1 1) rotate(0) translate(4 260)">
<polygon fill="white" stroke="none" points="-4,4 -4,-260 327.25,-260 327.25,4 -4,4"/>
<!-- 4465225616 -->
<g id="node1" class="node">
<title>4465225616</title>
<path fill="lightgray" stroke="lightgray" d="M147.62,-219.5C147.62,-219.5 192.62,-219.5 192.62,-219.5 198.62,-219.5 204.62,-225.5 204.62,-231.5 204.62,-231.5 204.62,-243.5 204.62,-243.5 204.62,-249.5 198.62,-255.5 192.62,-255.5 192.62,-255.5 147.62,-255.5 147.62,-255.5 141.62,-255.5 135.62,-249.5 135.62,-243.5 135.62,-243.5 135.62,-231.5 135.62,-231.5 135.62,-225.5 141.62,-219.5 147.62,-219.5"/>
<text xml:space="preserve" text-anchor="middle" x="145.5" y="-232.45" font-family="Times,serif" font-size="14.00"> </text>
<polyline fill="none" stroke="lightgray" points="155.38,-219.5 155.38,-255.5"/>
<text xml:space="preserve" text-anchor="middle" x="170.12" y="-232.45" font-family="Times,serif" font-size="14.00">55</text>
<polyline fill="none" stroke="lightgray" points="184.88,-219.5 184.88,-255.5"/>
<text xml:space="preserve" text-anchor="middle" x="194.75" y="-232.45" font-family="Times,serif" font-size="14.00"> </text>
</g>
<!-- 4465221584 -->
<g id="node2" class="node">
<title>4465221584</title>
<path fill="lightgray" stroke="lightgray" d="M85.62,-146.5C85.62,-146.5 130.62,-146.5 130.62,-146.5 136.62,-146.5 142.62,-152.5 142.62,-158.5 142.62,-158.5 142.62,-170.5 142.62,-170.5 142.62,-176.5 136.62,-182.5 130.62,-182.5 130.62,-182.5 85.62,-182.5 85.62,-182.5 79.62,-182.5 73.62,-176.5 73.62,-170.5 73.62,-170.5 73.62,-158.5 73.62,-158.5 73.62,-152.5 79.62,-146.5 85.62,-146.5"/>
<text xml:space="preserve" text-anchor="middle" x="83.5" y="-159.45" font-family="Times,serif" font-size="14.00"> </text>
<polyline fill="none" stroke="lightgray" points="93.38,-146.5 93.38,-182.5"/>
<text xml:space="preserve" text-anchor="middle" x="108.12" y="-159.45" font-family="Times,serif" font-size="14.00">55</text>
<polyline fill="none" stroke="lightgray" points="122.88,-146.5 122.88,-182.5"/>
<text xml:space="preserve" text-anchor="middle" x="132.75" y="-159.45" font-family="Times,serif" font-size="14.00"> </text>
</g>
<!-- 4465225616&#45;&gt;4465221584 -->
<g id="edge1" class="edge">
<title>4465225616:l&#45;&gt;4465221584:v</title>
<path fill="none" stroke="black" d="M145.5,-219C145.5,-200.62 121.77,-203.32 112.12,-193.5"/>
<polygon fill="black" stroke="black" points="115.49,-192.51 108.66,-184.41 108.95,-195.01 115.49,-192.51"/>
</g>
<!-- 4465219680 -->
<g id="node3" class="node">
<title>4465219680</title>
<path fill="lightgray" stroke="lightgray" d="M214,-146.5C214,-146.5 252.25,-146.5 252.25,-146.5 258.25,-146.5 264.25,-152.5 264.25,-158.5 264.25,-158.5 264.25,-170.5 264.25,-170.5 264.25,-176.5 258.25,-182.5 252.25,-182.5 252.25,-182.5 214,-182.5 214,-182.5 208,-182.5 202,-176.5 202,-170.5 202,-170.5 202,-158.5 202,-158.5 202,-152.5 208,-146.5 214,-146.5"/>
<text xml:space="preserve" text-anchor="middle" x="211.88" y="-159.45" font-family="Times,serif" font-size="14.00"> </text>
<polyline fill="none" stroke="lightgray" points="221.75,-146.5 221.75,-182.5"/>
<text xml:space="preserve" text-anchor="middle" x="233.12" y="-159.45" font-family="Times,serif" font-size="14.00">5</text>
<polyline fill="none" stroke="lightgray" points="244.5,-146.5 244.5,-182.5"/>
<text xml:space="preserve" text-anchor="middle" x="254.38" y="-159.45" font-family="Times,serif" font-size="14.00"> </text>
</g>
<!-- 4465225616&#45;&gt;4465219680 -->
<g id="edge2" class="edge">
<title>4465225616:r&#45;&gt;4465219680:v</title>
<path fill="none" stroke="black" d="M194.75,-219C194.75,-200.36 219.12,-203.42 229.02,-193.6"/>
<polygon fill="black" stroke="black" points="232.23,-195 232.58,-184.41 225.7,-192.47 232.23,-195"/>
</g>
<!-- 4465228528 -->
<g id="node4" class="node">
<title>4465228528</title>
<path fill="lightgray" stroke="lightgray" d="M33,-73.5C33,-73.5 71.25,-73.5 71.25,-73.5 77.25,-73.5 83.25,-79.5 83.25,-85.5 83.25,-85.5 83.25,-97.5 83.25,-97.5 83.25,-103.5 77.25,-109.5 71.25,-109.5 71.25,-109.5 33,-109.5 33,-109.5 27,-109.5 21,-103.5 21,-97.5 21,-97.5 21,-85.5 21,-85.5 21,-79.5 27,-73.5 33,-73.5"/>
<text xml:space="preserve" text-anchor="middle" x="30.88" y="-86.45" font-family="Times,serif" font-size="14.00"> </text>
<polyline fill="none" stroke="lightgray" points="40.75,-73.5 40.75,-109.5"/>
<text xml:space="preserve" text-anchor="middle" x="52.12" y="-86.45" font-family="Times,serif" font-size="14.00">4</text>
<polyline fill="none" stroke="lightgray" points="63.5,-73.5 63.5,-109.5"/>
<text xml:space="preserve" text-anchor="middle" x="73.38" y="-86.45" font-family="Times,serif" font-size="14.00"> </text>
</g>
<!-- 4465221584&#45;&gt;4465228528 -->
<g id="edge3" class="edge">
<title>4465221584:l&#45;&gt;4465228528:v</title>
<path fill="none" stroke="black" d="M83.5,-146C83.5,-129.42 64.35,-129.73 55.97,-120.54"/>
<polygon fill="black" stroke="black" points="59.36,-119.61 52.64,-111.42 52.79,-122.02 59.36,-119.61"/>
</g>
<!-- 4465224720 -->
<g id="node5" class="node">
<title>4465224720</title>
<path fill="lightgray" stroke="lightgray" d="M113,-73.5C113,-73.5 151.25,-73.5 151.25,-73.5 157.25,-73.5 163.25,-79.5 163.25,-85.5 163.25,-85.5 163.25,-97.5 163.25,-97.5 163.25,-103.5 157.25,-109.5 151.25,-109.5 151.25,-109.5 113,-109.5 113,-109.5 107,-109.5 101,-103.5 101,-97.5 101,-97.5 101,-85.5 101,-85.5 101,-79.5 107,-73.5 113,-73.5"/>
<text xml:space="preserve" text-anchor="middle" x="110.88" y="-86.45" font-family="Times,serif" font-size="14.00"> </text>
<polyline fill="none" stroke="lightgray" points="120.75,-73.5 120.75,-109.5"/>
<text xml:space="preserve" text-anchor="middle" x="132.12" y="-86.45" font-family="Times,serif" font-size="14.00">1</text>
<polyline fill="none" stroke="lightgray" points="143.5,-73.5 143.5,-109.5"/>
<text xml:space="preserve" text-anchor="middle" x="153.38" y="-86.45" font-family="Times,serif" font-size="14.00"> </text>
</g>
<!-- 4465221584&#45;&gt;4465224720 -->
<g id="edge4" class="edge">
<title>4465221584:r&#45;&gt;4465224720:v</title>
<path fill="none" stroke="black" d="M132.75,-146C132.75,-134.62 132.43,-129.32 132.25,-121.45"/>
<polygon fill="black" stroke="black" points="135.75,-121.47 132.14,-111.51 128.75,-121.55 135.75,-121.47"/>
</g>
<!-- 4465224608 -->
<g id="node6" class="node">
<title>4465224608</title>
<path fill="lightgray" stroke="lightgray" d="M193,-73.5C193,-73.5 231.25,-73.5 231.25,-73.5 237.25,-73.5 243.25,-79.5 243.25,-85.5 243.25,-85.5 243.25,-97.5 243.25,-97.5 243.25,-103.5 237.25,-109.5 231.25,-109.5 231.25,-109.5 193,-109.5 193,-109.5 187,-109.5 181,-103.5 181,-97.5 181,-97.5 181,-85.5 181,-85.5 181,-79.5 187,-73.5 193,-73.5"/>
<text xml:space="preserve" text-anchor="middle" x="190.88" y="-86.45" font-family="Times,serif" font-size="14.00"> </text>
<polyline fill="none" stroke="lightgray" points="200.75,-73.5 200.75,-109.5"/>
<text xml:space="preserve" text-anchor="middle" x="212.12" y="-86.45" font-family="Times,serif" font-size="14.00">0</text>
<polyline fill="none" stroke="lightgray" points="223.5,-73.5 223.5,-109.5"/>
<text xml:space="preserve" text-anchor="middle" x="233.38" y="-86.45" font-family="Times,serif" font-size="14.00"> </text>
</g>
<!-- 4465219680&#45;&gt;4465224608 -->
<g id="edge5" class="edge">
<title>4465219680:l&#45;&gt;4465224608:v</title>
<path fill="none" stroke="black" d="M211.88,-146C211.88,-134.62 212,-129.32 212.07,-121.45"/>
<polygon fill="black" stroke="black" points="215.57,-121.53 212.12,-111.51 208.57,-121.5 215.57,-121.53"/>
</g>
<!-- 4465222480 -->
<g id="node7" class="node">
<title>4465222480</title>
<path fill="lightgray" stroke="lightgray" d="M273,-73.5C273,-73.5 311.25,-73.5 311.25,-73.5 317.25,-73.5 323.25,-79.5 323.25,-85.5 323.25,-85.5 323.25,-97.5 323.25,-97.5 323.25,-103.5 317.25,-109.5 311.25,-109.5 311.25,-109.5 273,-109.5 273,-109.5 267,-109.5 261,-103.5 261,-97.5 261,-97.5 261,-85.5 261,-85.5 261,-79.5 267,-73.5 273,-73.5"/>
<text xml:space="preserve" text-anchor="middle" x="270.88" y="-86.45" font-family="Times,serif" font-size="14.00"> </text>
<polyline fill="none" stroke="lightgray" points="280.75,-73.5 280.75,-109.5"/>
<text xml:space="preserve" text-anchor="middle" x="292.12" y="-86.45" font-family="Times,serif" font-size="14.00">2</text>
<polyline fill="none" stroke="lightgray" points="303.5,-73.5 303.5,-109.5"/>
<text xml:space="preserve" text-anchor="middle" x="313.38" y="-86.45" font-family="Times,serif" font-size="14.00"> </text>
</g>
<!-- 4465219680&#45;&gt;4465222480 -->
<g id="edge6" class="edge">
<title>4465219680:r&#45;&gt;4465222480:v</title>
<path fill="none" stroke="black" d="M254.38,-146C254.38,-127.53 278.35,-130.36 288.09,-120.54"/>
<polygon fill="black" stroke="black" points="291.27,-122 291.58,-111.41 284.74,-119.5 291.27,-122"/>
</g>
<!-- 4465221472 -->
<g id="node8" class="node">
<title>4465221472</title>
<path fill="lightgray" stroke="lightgray" d="M12,-0.5C12,-0.5 50.25,-0.5 50.25,-0.5 56.25,-0.5 62.25,-6.5 62.25,-12.5 62.25,-12.5 62.25,-24.5 62.25,-24.5 62.25,-30.5 56.25,-36.5 50.25,-36.5 50.25,-36.5 12,-36.5 12,-36.5 6,-36.5 0,-30.5 0,-24.5 0,-24.5 0,-12.5 0,-12.5 0,-6.5 6,-0.5 12,-0.5"/>
<text xml:space="preserve" text-anchor="middle" x="9.88" y="-13.45" font-family="Times,serif" font-size="14.00"> </text>
<polyline fill="none" stroke="lightgray" points="19.75,-0.5 19.75,-36.5"/>
<text xml:space="preserve" text-anchor="middle" x="31.12" y="-13.45" font-family="Times,serif" font-size="14.00">3</text>
<polyline fill="none" stroke="lightgray" points="42.5,-0.5 42.5,-36.5"/>
<text xml:space="preserve" text-anchor="middle" x="52.38" y="-13.45" font-family="Times,serif" font-size="14.00"> </text>
</g>
<!-- 4465228528&#45;&gt;4465221472 -->
<g id="edge7" class="edge">
<title>4465228528:l&#45;&gt;4465221472:v</title>
<path fill="none" stroke="black" d="M30.88,-73C30.88,-61.62 31,-56.32 31.07,-48.45"/>
<polygon fill="black" stroke="black" points="34.57,-48.53 31.12,-38.51 27.57,-48.5 34.57,-48.53"/>
</g>
</g>
</svg>
