<?xml version="1.0" encoding="UTF-8" standalone="no"?>
<!DOCTYPE svg PUBLIC "-//W3C//DTD SVG 1.1//EN"
 "http://www.w3.org/Graphics/SVG/1.1/DTD/svg11.dtd">
<!-- Generated by graphviz version 14.0.0 (20250921.2048)
 -->
<!-- Title: G Pages: 1 -->
<svg width="500pt" height="336pt"
 viewBox="0.00 0.00 500.00 336.00" xmlns="http://www.w3.org/2000/svg" xmlns:xlink="http://www.w3.org/1999/xlink">
<g id="graph0" class="graph" transform="scale(1.01215 1.01215) rotate(0) translate(4 328)">
<title>G</title>
<polygon fill="white" stroke="none" points="-4,4 -4,-328 490,-328 490,4 -4,4"/>
<!-- 0 -->
<g id="node1" class="node">
<title>0</title>
<ellipse fill="none" stroke="black" cx="243" cy="-234" rx="27" ry="18"/>
<text xml:space="preserve" text-anchor="middle" x="243" y="-228.95" font-family="Times,serif" font-size="14.00">55</text>
</g>
<!-- 1 -->
<g id="node2" class="node">
<title>1</title>
<ellipse fill="none" stroke="black" cx="207" cy="-162" rx="27" ry="18"/>
<text xml:space="preserve" text-anchor="middle" x="207" y="-156.95" font-family="Times,serif" font-size="14.00">44</text>
</g>
<!-- 0&#45;&gt;1 -->
<g id="edge1" class="edge">
<title>0&#45;&gt;1</title>
<path fill="none" stroke="black" d="M234.65,-216.76C230.42,-208.55 225.19,-198.37 220.42,-189.09"/>
<polygon fill="black" stroke="black" points="223.68,-187.79 216,-180.49 217.46,-190.99 223.68,-187.79"/>
</g>
<!-- 2 -->
<g id="node3" class="node">
<title>2</title>
<ellipse fill="none" stroke="black" cx="315" cy="-162" rx="27" ry="18"/>
<text xml:space="preserve" text-anchor="middle" x="315" y="-156.95" font-family="Times,serif" font-size="14.00">33</text>
</g>
<!-- 0&#45;&gt;2 -->
<g id="edge4" class="edge">
<title>0&#45;&gt;2</title>
<path fill="none" stroke="black" d="M257.92,-218.5C267.77,-208.92 280.86,-196.19 292.03,-185.34"/>
<polygon fill="black" stroke="black" points="294.29,-188.02 299.02,-178.54 289.41,-183 294.29,-188.02"/>
</g>
<!-- 3 -->
<g id="node4" class="node">
<title>3</title>
<ellipse fill="none" stroke="black" cx="99" cy="-90" rx="27" ry="18"/>
<text xml:space="preserve" text-anchor="middle" x="99" y="-84.95" font-family="Times,serif" font-size="14.00">22</text>
</g>
<!-- 1&#45;&gt;3 -->
<g id="edge8" class="edge">
<title>1&#45;&gt;3</title>
<path fill="none" stroke="black" d="M188.19,-148.81C171.41,-137.93 146.61,-121.86 127.41,-109.42"/>
<polygon fill="black" stroke="black" points="129.52,-106.61 119.23,-104.11 125.72,-112.49 129.52,-106.61"/>
</g>
<!-- 4 -->
<g id="node5" class="node">
<title>4</title>
<ellipse fill="none" stroke="black" cx="207" cy="-90" rx="27" ry="18"/>
<text xml:space="preserve" text-anchor="middle" x="207" y="-84.95" font-family="Times,serif" font-size="14.00">11</text>
</g>
<!-- 1&#45;&gt;4 -->
<g id="edge13" class="edge">
<title>1&#45;&gt;4</title>
<path fill="none" stroke="black" d="M207,-143.7C207,-136.41 207,-127.73 207,-119.54"/>
<polygon fill="black" stroke="black" points="210.5,-119.62 207,-109.62 203.5,-119.62 210.5,-119.62"/>
</g>
<!-- 5 -->
<g id="node6" class="node">
<title>5</title>
<ellipse fill="none" stroke="black" cx="315" cy="-90" rx="27" ry="18"/>
<text xml:space="preserve" text-anchor="middle" x="315" y="-84.95" font-family="Times,serif" font-size="14.00">8</text>
</g>
<!-- 2&#45;&gt;5 -->
<g id="edge7" class="edge">
<title>2&#45;&gt;5</title>
<path fill="none" stroke="black" d="M315,-143.7C315,-136.41 315,-127.73 315,-119.54"/>
<polygon fill="black" stroke="black" points="318.5,-119.62 315,-109.62 311.5,-119.62 318.5,-119.62"/>
</g>
<!-- 6 -->
<g id="node7" class="node">
<title>6</title>
<ellipse fill="none" stroke="black" cx="459" cy="-90" rx="27" ry="18"/>
<text xml:space="preserve" text-anchor="middle" x="459" y="-84.95" font-family="Times,serif" font-size="14.00">8</text>
</g>
<!-- 2&#45;&gt;6 -->
<g id="edge14" class="edge">
<title>2&#45;&gt;6</title>
<path fill="none" stroke="black" d="M336.56,-150.52C360.66,-138.8 399.92,-119.72 427.47,-106.32"/>
<polygon fill="black" stroke="black" points="428.94,-109.5 436.4,-101.98 425.88,-103.21 428.94,-109.5"/>
</g>
<!-- 7 -->
<g id="node8" class="node">
<title>7</title>
<ellipse fill="none" stroke="black" cx="27" cy="-18" rx="27" ry="18"/>
<text xml:space="preserve" text-anchor="middle" x="27" y="-12.95" font-family="Times,serif" font-size="14.00">3</text>
</g>
<!-- 3&#45;&gt;7 -->
<g id="edge3" class="edge">
<title>3&#45;&gt;7</title>
<path fill="none" stroke="black" d="M84.08,-74.5C74.23,-64.92 61.14,-52.19 49.97,-41.34"/>
<polygon fill="black" stroke="black" points="52.59,-39 42.98,-34.54 47.71,-44.02 52.59,-39"/>
</g>
<!-- 8 -->
<g id="node9" class="node">
<title>8</title>
<ellipse fill="none" stroke="black" cx="99" cy="-18" rx="27" ry="18"/>
<text xml:space="preserve" text-anchor="middle" x="99" y="-12.95" font-family="Times,serif" font-size="14.00">2</text>
</g>
<!-- 3&#45;&gt;8 -->
<g id="edge10" class="edge">
<title>3&#45;&gt;8</title>
<path fill="none" stroke="black" d="M99,-71.7C99,-64.41 99,-55.73 99,-47.54"/>
<polygon fill="black" stroke="black" points="102.5,-47.62 99,-37.62 95.5,-47.62 102.5,-47.62"/>
</g>
<!-- 9 -->
<g id="node10" class="node">
<title>9</title>
<ellipse fill="none" stroke="black" cx="171" cy="-18" rx="27" ry="18"/>
<text xml:space="preserve" text-anchor="middle" x="171" y="-12.95" font-family="Times,serif" font-size="14.00">1</text>
</g>
<!-- 4&#45;&gt;9 -->
<g id="edge2" class="edge">
<title>4&#45;&gt;9</title>
<path fill="none" stroke="black" d="M198.65,-72.76C194.42,-64.55 189.19,-54.37 184.42,-45.09"/>
<polygon fill="black" stroke="black" points="187.68,-43.79 180,-36.49 181.46,-46.99 187.68,-43.79"/>
</g>
<!-- 10 -->
<g id="node11" class="node">
<title>10</title>
<ellipse fill="none" stroke="black" cx="243" cy="-18" rx="27" ry="18"/>
<text xml:space="preserve" text-anchor="middle" x="243" y="-12.95" font-family="Times,serif" font-size="14.00">8</text>
</g>
<!-- 4&#45;&gt;10 -->
<g id="edge9" class="edge">
<title>4&#45;&gt;10</title>
<path fill="none" stroke="black" d="M215.35,-72.76C219.58,-64.55 224.81,-54.37 229.58,-45.09"/>
<polygon fill="black" stroke="black" points="232.54,-46.99 234,-36.49 226.32,-43.79 232.54,-46.99"/>
</g>
<!-- 11 -->
<g id="node12" class="node">
<title>11</title>
<ellipse fill="none" stroke="black" cx="315" cy="-18" rx="27" ry="18"/>
<text xml:space="preserve" text-anchor="middle" x="315" y="-12.95" font-family="Times,serif" font-size="14.00">4</text>
</g>
<!-- 5&#45;&gt;11 -->
<g id="edge11" class="edge">
<title>5&#45;&gt;11</title>
<path fill="none" stroke="black" d="M309.12,-72.05C308.33,-64.57 308.08,-55.58 308.37,-47.14"/>
<polygon fill="black" stroke="black" points="311.85,-47.51 309.04,-37.3 304.87,-47.04 311.85,-47.51"/>
</g>
<!-- 12 -->
<g id="node13" class="node">
<title>12</title>
<ellipse fill="none" stroke="black" cx="387" cy="-18" rx="27" ry="18"/>
<text xml:space="preserve" text-anchor="middle" x="387" y="-12.95" font-family="Times,serif" font-size="14.00">8</text>
</g>
<!-- 5&#45;&gt;12 -->
<g id="edge16" class="edge">
<title>5&#45;&gt;12</title>
<path fill="none" stroke="black" d="M329.92,-74.5C339.77,-64.92 352.86,-52.19 364.03,-41.34"/>
<polygon fill="black" stroke="black" points="366.29,-44.02 371.02,-34.54 361.41,-39 366.29,-44.02"/>
</g>
<!-- 13 -->
<g id="node14" class="node">
<title>13</title>
<ellipse fill="none" stroke="black" cx="459" cy="-18" rx="27" ry="18"/>
<text xml:space="preserve" text-anchor="middle" x="459" y="-12.95" font-family="Times,serif" font-size="14.00">5</text>
</g>
<!-- 6&#45;&gt;13 -->
<g id="edge5" class="edge">
<title>6&#45;&gt;13</title>
<path fill="none" stroke="black" d="M453.12,-72.05C452.33,-64.57 452.08,-55.58 452.37,-47.14"/>
<polygon fill="black" stroke="black" points="455.85,-47.51 453.04,-37.3 448.87,-47.04 455.85,-47.51"/>
</g>
<!-- 11&#45;&gt;5 -->
<!-- 13&#45;&gt;6 -->
<g id="edge15" class="edge">
<title>13&#45;&gt;6</title>
<path fill="none" stroke="green" d="M464.86,-35.79C465.66,-43.25 465.92,-52.24 465.64,-60.69"/>
<polygon fill="green" stroke="green" points="462.16,-60.33 464.98,-70.54 469.14,-60.8 462.16,-60.33"/>
</g>
<!-- None -->
<g id="node15" class="node">
<title>None</title>
<ellipse fill="none" stroke="black" cx="243" cy="-306" rx="30.88" ry="18"/>
<text xml:space="preserve" text-anchor="middle" x="243" y="-300.95" font-family="Times,serif" font-size="14.00">None</text>
</g>
<!-- None&#45;&gt;0 -->
<g id="edge12" class="edge">
<title>None&#45;&gt;0</title>
<path fill="none" stroke="black" d="M243,-287.7C243,-280.41 243,-271.73 243,-263.54"/>
<polygon fill="black" stroke="black" points="246.5,-263.62 243,-253.62 239.5,-263.62 246.5,-263.62"/>
</g>
</g>
</svg>
