<?xml version="1.0" encoding="UTF-8" standalone="no"?>
<!DOCTYPE svg PUBLIC "-//W3C//DTD SVG 1.1//EN"
 "http://www.w3.org/Graphics/SVG/1.1/DTD/svg11.dtd">
<!-- Generated by graphviz version 14.0.0 (20250921.2048)
 -->
<!-- Pages: 1 -->
<svg width="310pt" height="191pt"
 viewBox="0.00 0.00 310.00 191.00" xmlns="http://www.w3.org/2000/svg" xmlns:xlink="http://www.w3.org/1999/xlink">
<g id="graph0" class="graph" transform="scale(1 1) rotate(0) translate(4 187)">
<polygon fill="white" stroke="none" points="-4,4 -4,-187 306.25,-187 306.25,4 -4,4"/>
<!-- 4473490240 -->
<g id="node1" class="node">
<title>4473490240</title>
<path fill="lightgray" stroke="lightgray" d="M128.62,-146.5C128.62,-146.5 173.62,-146.5 173.62,-146.5 179.62,-146.5 185.62,-152.5 185.62,-158.5 185.62,-158.5 185.62,-170.5 185.62,-170.5 185.62,-176.5 179.62,-182.5 173.62,-182.5 173.62,-182.5 128.62,-182.5 128.62,-182.5 122.62,-182.5 116.62,-176.5 116.62,-170.5 116.62,-170.5 116.62,-158.5 116.62,-158.5 116.62,-152.5 122.62,-146.5 128.62,-146.5"/>
<text xml:space="preserve" text-anchor="middle" x="126.5" y="-159.45" font-family="Times,serif" font-size="14.00"> </text>
<polyline fill="none" stroke="lightgray" points="136.38,-146.5 136.38,-182.5"/>
<text xml:space="preserve" text-anchor="middle" x="151.12" y="-159.45" font-family="Times,serif" font-size="14.00">55</text>
<polyline fill="none" stroke="lightgray" points="165.88,-146.5 165.88,-182.5"/>
<text xml:space="preserve" text-anchor="middle" x="175.75" y="-159.45" font-family="Times,serif" font-size="14.00"> </text>
</g>
<!-- 4473490576 -->
<g id="node2" class="node">
<title>4473490576</title>
<path fill="lightgray" stroke="lightgray" d="M71,-73.5C71,-73.5 109.25,-73.5 109.25,-73.5 115.25,-73.5 121.25,-79.5 121.25,-85.5 121.25,-85.5 121.25,-97.5 121.25,-97.5 121.25,-103.5 115.25,-109.5 109.25,-109.5 109.25,-109.5 71,-109.5 71,-109.5 65,-109.5 59,-103.5 59,-97.5 59,-97.5 59,-85.5 59,-85.5 59,-79.5 65,-73.5 71,-73.5"/>
<text xml:space="preserve" text-anchor="middle" x="68.88" y="-86.45" font-family="Times,serif" font-size="14.00"> </text>
<polyline fill="none" stroke="lightgray" points="78.75,-73.5 78.75,-109.5"/>
<text xml:space="preserve" text-anchor="middle" x="90.12" y="-86.45" font-family="Times,serif" font-size="14.00">4</text>
<polyline fill="none" stroke="lightgray" points="101.5,-73.5 101.5,-109.5"/>
<text xml:space="preserve" text-anchor="middle" x="111.38" y="-86.45" font-family="Times,serif" font-size="14.00"> </text>
</g>
<!-- 4473490240&#45;&gt;4473490576 -->
<g id="edge1" class="edge">
<title>4473490240:l&#45;&gt;4473490576:v</title>
<path fill="none" stroke="black" d="M126.5,-146C126.5,-128.05 103.85,-130.18 94.3,-120.7"/>
<polygon fill="black" stroke="black" points="97.57,-119.45 90.68,-111.41 91.05,-122 97.57,-119.45"/>
</g>
<!-- 4473490464 -->
<g id="node3" class="node">
<title>4473490464</title>
<path fill="lightgray" stroke="lightgray" d="M193,-73.5C193,-73.5 231.25,-73.5 231.25,-73.5 237.25,-73.5 243.25,-79.5 243.25,-85.5 243.25,-85.5 243.25,-97.5 243.25,-97.5 243.25,-103.5 237.25,-109.5 231.25,-109.5 231.25,-109.5 193,-109.5 193,-109.5 187,-109.5 181,-103.5 181,-97.5 181,-97.5 181,-85.5 181,-85.5 181,-79.5 187,-73.5 193,-73.5"/>
<text xml:space="preserve" text-anchor="middle" x="190.88" y="-86.45" font-family="Times,serif" font-size="14.00"> </text>
<polyline fill="none" stroke="lightgray" points="200.75,-73.5 200.75,-109.5"/>
<text xml:space="preserve" text-anchor="middle" x="212.12" y="-86.45" font-family="Times,serif" font-size="14.00">5</text>
<polyline fill="none" stroke="lightgray" points="223.5,-73.5 223.5,-109.5"/>
<text xml:space="preserve" text-anchor="middle" x="233.38" y="-86.45" font-family="Times,serif" font-size="14.00"> </text>
</g>
<!-- 4473490240&#45;&gt;4473490464 -->
<g id="edge2" class="edge">
<title>4473490240:r&#45;&gt;4473490464:v</title>
<path fill="none" stroke="black" d="M175.75,-146C175.75,-128.05 198.4,-130.18 207.95,-120.7"/>
<polygon fill="black" stroke="black" points="211.2,-122 211.57,-111.41 204.68,-119.45 211.2,-122"/>
</g>
<!-- 4473490688 -->
<g id="node4" class="node">
<title>4473490688</title>
<path fill="lightgray" stroke="lightgray" d="M12,-0.5C12,-0.5 50.25,-0.5 50.25,-0.5 56.25,-0.5 62.25,-6.5 62.25,-12.5 62.25,-12.5 62.25,-24.5 62.25,-24.5 62.25,-30.5 56.25,-36.5 50.25,-36.5 50.25,-36.5 12,-36.5 12,-36.5 6,-36.5 0,-30.5 0,-24.5 0,-24.5 0,-12.5 0,-12.5 0,-6.5 6,-0.5 12,-0.5"/>
<text xml:space="preserve" text-anchor="middle" x="9.88" y="-13.45" font-family="Times,serif" font-size="14.00"> </text>
<polyline fill="none" stroke="lightgray" points="19.75,-0.5 19.75,-36.5"/>
<text xml:space="preserve" text-anchor="middle" x="31.12" y="-13.45" font-family="Times,serif" font-size="14.00">3</text>
<polyline fill="none" stroke="lightgray" points="42.5,-0.5 42.5,-36.5"/>
<text xml:space="preserve" text-anchor="middle" x="52.38" y="-13.45" font-family="Times,serif" font-size="14.00"> </text>
</g>
<!-- 4473490576&#45;&gt;4473490688 -->
<g id="edge3" class="edge">
<title>4473490576:l&#45;&gt;4473490688:v</title>
<path fill="none" stroke="black" d="M68.88,-73C68.88,-54.53 44.9,-57.36 35.16,-47.54"/>
<polygon fill="black" stroke="black" points="38.51,-46.5 31.67,-38.41 31.98,-49 38.51,-46.5"/>
</g>
<!-- 4473490352 -->
<g id="node5" class="node">
<title>4473490352</title>
<path fill="lightgray" stroke="lightgray" d="M92,-0.5C92,-0.5 130.25,-0.5 130.25,-0.5 136.25,-0.5 142.25,-6.5 142.25,-12.5 142.25,-12.5 142.25,-24.5 142.25,-24.5 142.25,-30.5 136.25,-36.5 130.25,-36.5 130.25,-36.5 92,-36.5 92,-36.5 86,-36.5 80,-30.5 80,-24.5 80,-24.5 80,-12.5 80,-12.5 80,-6.5 86,-0.5 92,-0.5"/>
<text xml:space="preserve" text-anchor="middle" x="89.88" y="-13.45" font-family="Times,serif" font-size="14.00"> </text>
<polyline fill="none" stroke="lightgray" points="99.75,-0.5 99.75,-36.5"/>
<text xml:space="preserve" text-anchor="middle" x="111.12" y="-13.45" font-family="Times,serif" font-size="14.00">1</text>
<polyline fill="none" stroke="lightgray" points="122.5,-0.5 122.5,-36.5"/>
<text xml:space="preserve" text-anchor="middle" x="132.38" y="-13.45" font-family="Times,serif" font-size="14.00"> </text>
</g>
<!-- 4473490576&#45;&gt;4473490352 -->
<g id="edge4" class="edge">
<title>4473490576:r&#45;&gt;4473490352:v</title>
<path fill="none" stroke="black" d="M111.38,-73C111.38,-61.62 111.25,-56.32 111.18,-48.45"/>
<polygon fill="black" stroke="black" points="114.68,-48.5 111.13,-38.51 107.68,-48.53 114.68,-48.5"/>
</g>
<!-- 4473489792 -->
<g id="node6" class="node">
<title>4473489792</title>
<path fill="lightgray" stroke="lightgray" d="M172,-0.5C172,-0.5 210.25,-0.5 210.25,-0.5 216.25,-0.5 222.25,-6.5 222.25,-12.5 222.25,-12.5 222.25,-24.5 222.25,-24.5 222.25,-30.5 216.25,-36.5 210.25,-36.5 210.25,-36.5 172,-36.5 172,-36.5 166,-36.5 160,-30.5 160,-24.5 160,-24.5 160,-12.5 160,-12.5 160,-6.5 166,-0.5 172,-0.5"/>
<text xml:space="preserve" text-anchor="middle" x="169.88" y="-13.45" font-family="Times,serif" font-size="14.00"> </text>
<polyline fill="none" stroke="lightgray" points="179.75,-0.5 179.75,-36.5"/>
<text xml:space="preserve" text-anchor="middle" x="191.12" y="-13.45" font-family="Times,serif" font-size="14.00">0</text>
<polyline fill="none" stroke="lightgray" points="202.5,-0.5 202.5,-36.5"/>
<text xml:space="preserve" text-anchor="middle" x="212.38" y="-13.45" font-family="Times,serif" font-size="14.00"> </text>
</g>
<!-- 4473490464&#45;&gt;4473489792 -->
<g id="edge5" class="edge">
<title>4473490464:l&#45;&gt;4473489792:v</title>
<path fill="none" stroke="black" d="M190.88,-73C190.88,-61.62 191,-56.32 191.07,-48.45"/>
<polygon fill="black" stroke="black" points="194.57,-48.53 191.12,-38.51 187.57,-48.5 194.57,-48.53"/>
</g>
<!-- 4473487440 -->
<g id="node7" class="node">
<title>4473487440</title>
<path fill="lightgray" stroke="lightgray" d="M252,-0.5C252,-0.5 290.25,-0.5 290.25,-0.5 296.25,-0.5 302.25,-6.5 302.25,-12.5 302.25,-12.5 302.25,-24.5 302.25,-24.5 302.25,-30.5 296.25,-36.5 290.25,-36.5 290.25,-36.5 252,-36.5 252,-36.5 246,-36.5 240,-30.5 240,-24.5 240,-24.5 240,-12.5 240,-12.5 240,-6.5 246,-0.5 252,-0.5"/>
<text xml:space="preserve" text-anchor="middle" x="249.88" y="-13.45" font-family="Times,serif" font-size="14.00"> </text>
<polyline fill="none" stroke="lightgray" points="259.75,-0.5 259.75,-36.5"/>
<text xml:space="preserve" text-anchor="middle" x="271.12" y="-13.45" font-family="Times,serif" font-size="14.00">2</text>
<polyline fill="none" stroke="lightgray" points="282.5,-0.5 282.5,-36.5"/>
<text xml:space="preserve" text-anchor="middle" x="292.38" y="-13.45" font-family="Times,serif" font-size="14.00"> </text>
</g>
<!-- 4473490464&#45;&gt;4473487440 -->
<g id="edge6" class="edge">
<title>4473490464:r&#45;&gt;4473487440:v</title>
<path fill="none" stroke="black" d="M233.38,-73C233.38,-54.53 257.35,-57.36 267.09,-47.54"/>
<polygon fill="black" stroke="black" points="270.27,-49 270.58,-38.41 263.74,-46.5 270.27,-49"/>
</g>
</g>
</svg>
