<?xml version="1.0" encoding="UTF-8" standalone="no"?>
<!DOCTYPE svg PUBLIC "-//W3C//DTD SVG 1.1//EN"
 "http://www.w3.org/Graphics/SVG/1.1/DTD/svg11.dtd">
<!-- Generated by graphviz version 14.0.0 (20250921.2048)
 -->
<!-- Pages: 1 -->
<svg width="337pt" height="191pt"
 viewBox="0.00 0.00 337.00 191.00" xmlns="http://www.w3.org/2000/svg" xmlns:xlink="http://www.w3.org/1999/xlink">
<g id="graph0" class="graph" transform="scale(1 1) rotate(0) translate(4 187)">
<polygon fill="white" stroke="none" points="-4,4 -4,-187 332.62,-187 332.62,4 -4,4"/>
<!-- 4465223264 -->
<g id="node1" class="node">
<title>4465223264</title>
<path fill="lightgray" stroke="lightgray" d="M135,-146.5C135,-146.5 173.25,-146.5 173.25,-146.5 179.25,-146.5 185.25,-152.5 185.25,-158.5 185.25,-158.5 185.25,-170.5 185.25,-170.5 185.25,-176.5 179.25,-182.5 173.25,-182.5 173.25,-182.5 135,-182.5 135,-182.5 129,-182.5 123,-176.5 123,-170.5 123,-170.5 123,-158.5 123,-158.5 123,-152.5 129,-146.5 135,-146.5"/>
<text xml:space="preserve" text-anchor="middle" x="132.88" y="-159.45" font-family="Times,serif" font-size="14.00"> </text>
<polyline fill="none" stroke="lightgray" points="142.75,-146.5 142.75,-182.5"/>
<text xml:space="preserve" text-anchor="middle" x="154.12" y="-159.45" font-family="Times,serif" font-size="14.00">2</text>
<polyline fill="none" stroke="lightgray" points="165.5,-146.5 165.5,-182.5"/>
<text xml:space="preserve" text-anchor="middle" x="175.38" y="-159.45" font-family="Times,serif" font-size="14.00"> </text>
</g>
<!-- 4465221472 -->
<g id="node2" class="node">
<title>4465221472</title>
<path fill="lightgray" stroke="lightgray" d="M71,-73.5C71,-73.5 109.25,-73.5 109.25,-73.5 115.25,-73.5 121.25,-79.5 121.25,-85.5 121.25,-85.5 121.25,-97.5 121.25,-97.5 121.25,-103.5 115.25,-109.5 109.25,-109.5 109.25,-109.5 71,-109.5 71,-109.5 65,-109.5 59,-103.5 59,-97.5 59,-97.5 59,-85.5 59,-85.5 59,-79.5 65,-73.5 71,-73.5"/>
<text xml:space="preserve" text-anchor="middle" x="68.88" y="-86.45" font-family="Times,serif" font-size="14.00"> </text>
<polyline fill="none" stroke="lightgray" points="78.75,-73.5 78.75,-109.5"/>
<text xml:space="preserve" text-anchor="middle" x="90.12" y="-86.45" font-family="Times,serif" font-size="14.00">4</text>
<polyline fill="none" stroke="lightgray" points="101.5,-73.5 101.5,-109.5"/>
<text xml:space="preserve" text-anchor="middle" x="111.38" y="-86.45" font-family="Times,serif" font-size="14.00"> </text>
</g>
<!-- 4465223264&#45;&gt;4465221472 -->
<g id="edge1" class="edge">
<title>4465223264:l&#45;&gt;4465221472:v</title>
<path fill="none" stroke="black" d="M132.88,-146C132.88,-125.82 104.65,-131.06 94.07,-120.42"/>
<polygon fill="black" stroke="black" points="97.48,-119.53 90.66,-111.42 90.93,-122.01 97.48,-119.53"/>
</g>
<!-- 4465225392 -->
<g id="node3" class="node">
<title>4465225392</title>
<path fill="lightgray" stroke="lightgray" d="M200,-73.5C200,-73.5 238.25,-73.5 238.25,-73.5 244.25,-73.5 250.25,-79.5 250.25,-85.5 250.25,-85.5 250.25,-97.5 250.25,-97.5 250.25,-103.5 244.25,-109.5 238.25,-109.5 238.25,-109.5 200,-109.5 200,-109.5 194,-109.5 188,-103.5 188,-97.5 188,-97.5 188,-85.5 188,-85.5 188,-79.5 194,-73.5 200,-73.5"/>
<text xml:space="preserve" text-anchor="middle" x="197.88" y="-86.45" font-family="Times,serif" font-size="14.00"> </text>
<polyline fill="none" stroke="lightgray" points="207.75,-73.5 207.75,-109.5"/>
<text xml:space="preserve" text-anchor="middle" x="219.12" y="-86.45" font-family="Times,serif" font-size="14.00">0</text>
<polyline fill="none" stroke="lightgray" points="230.5,-73.5 230.5,-109.5"/>
<text xml:space="preserve" text-anchor="middle" x="240.38" y="-86.45" font-family="Times,serif" font-size="14.00"> </text>
</g>
<!-- 4465223264&#45;&gt;4465225392 -->
<g id="edge2" class="edge">
<title>4465223264:r&#45;&gt;4465225392:v</title>
<path fill="none" stroke="black" d="M175.38,-146C175.38,-125.54 204.26,-131.19 215.09,-120.52"/>
<polygon fill="black" stroke="black" points="218.27,-122 218.58,-111.41 211.73,-119.49 218.27,-122"/>
</g>
<!-- 4465224048 -->
<g id="node4" class="node">
<title>4465224048</title>
<path fill="lightgray" stroke="lightgray" d="M12,-0.5C12,-0.5 50.25,-0.5 50.25,-0.5 56.25,-0.5 62.25,-6.5 62.25,-12.5 62.25,-12.5 62.25,-24.5 62.25,-24.5 62.25,-30.5 56.25,-36.5 50.25,-36.5 50.25,-36.5 12,-36.5 12,-36.5 6,-36.5 0,-30.5 0,-24.5 0,-24.5 0,-12.5 0,-12.5 0,-6.5 6,-0.5 12,-0.5"/>
<text xml:space="preserve" text-anchor="middle" x="9.88" y="-13.45" font-family="Times,serif" font-size="14.00"> </text>
<polyline fill="none" stroke="lightgray" points="19.75,-0.5 19.75,-36.5"/>
<text xml:space="preserve" text-anchor="middle" x="31.12" y="-13.45" font-family="Times,serif" font-size="14.00">3</text>
<polyline fill="none" stroke="lightgray" points="42.5,-0.5 42.5,-36.5"/>
<text xml:space="preserve" text-anchor="middle" x="52.38" y="-13.45" font-family="Times,serif" font-size="14.00"> </text>
</g>
<!-- 4465221472&#45;&gt;4465224048 -->
<g id="edge3" class="edge">
<title>4465221472:l&#45;&gt;4465224048:v</title>
<path fill="none" stroke="black" d="M68.88,-73C68.88,-54.53 44.9,-57.36 35.16,-47.54"/>
<polygon fill="black" stroke="black" points="38.51,-46.5 31.67,-38.41 31.98,-49 38.51,-46.5"/>
</g>
<!-- 4465220016 -->
<g id="node5" class="node">
<title>4465220016</title>
<path fill="lightgray" stroke="lightgray" d="M92,-0.5C92,-0.5 130.25,-0.5 130.25,-0.5 136.25,-0.5 142.25,-6.5 142.25,-12.5 142.25,-12.5 142.25,-24.5 142.25,-24.5 142.25,-30.5 136.25,-36.5 130.25,-36.5 130.25,-36.5 92,-36.5 92,-36.5 86,-36.5 80,-30.5 80,-24.5 80,-24.5 80,-12.5 80,-12.5 80,-6.5 86,-0.5 92,-0.5"/>
<text xml:space="preserve" text-anchor="middle" x="89.88" y="-13.45" font-family="Times,serif" font-size="14.00"> </text>
<polyline fill="none" stroke="lightgray" points="99.75,-0.5 99.75,-36.5"/>
<text xml:space="preserve" text-anchor="middle" x="111.12" y="-13.45" font-family="Times,serif" font-size="14.00">1</text>
<polyline fill="none" stroke="lightgray" points="122.5,-0.5 122.5,-36.5"/>
<text xml:space="preserve" text-anchor="middle" x="132.38" y="-13.45" font-family="Times,serif" font-size="14.00"> </text>
</g>
<!-- 4465221472&#45;&gt;4465220016 -->
<g id="edge4" class="edge">
<title>4465221472:r&#45;&gt;4465220016:v</title>
<path fill="none" stroke="black" d="M111.38,-73C111.38,-61.62 111.25,-56.32 111.18,-48.45"/>
<polygon fill="black" stroke="black" points="114.68,-48.5 111.13,-38.51 107.68,-48.53 114.68,-48.5"/>
</g>
<!-- 4465220464 -->
<g id="node6" class="node">
<title>4465220464</title>
<path fill="lightgray" stroke="lightgray" d="M172.62,-0.5C172.62,-0.5 223.62,-0.5 223.62,-0.5 229.62,-0.5 235.62,-6.5 235.62,-12.5 235.62,-12.5 235.62,-24.5 235.62,-24.5 235.62,-30.5 229.62,-36.5 223.62,-36.5 223.62,-36.5 172.62,-36.5 172.62,-36.5 166.62,-36.5 160.62,-30.5 160.62,-24.5 160.62,-24.5 160.62,-12.5 160.62,-12.5 160.62,-6.5 166.62,-0.5 172.62,-0.5"/>
<text xml:space="preserve" text-anchor="middle" x="170.5" y="-13.45" font-family="Times,serif" font-size="14.00"> </text>
<polyline fill="none" stroke="lightgray" points="180.38,-0.5 180.38,-36.5"/>
<text xml:space="preserve" text-anchor="middle" x="198.12" y="-13.45" font-family="Times,serif" font-size="14.00">&#45;inf</text>
<polyline fill="none" stroke="lightgray" points="215.88,-0.5 215.88,-36.5"/>
<text xml:space="preserve" text-anchor="middle" x="225.75" y="-13.45" font-family="Times,serif" font-size="14.00"> </text>
</g>
<!-- 4465225392&#45;&gt;4465220464 -->
<g id="edge5" class="edge">
<title>4465225392:l&#45;&gt;4465220464:v</title>
<path fill="none" stroke="black" d="M197.88,-73C197.88,-61.62 198,-56.32 198.07,-48.45"/>
<polygon fill="black" stroke="black" points="201.57,-48.53 198.12,-38.51 194.57,-48.5 201.57,-48.53"/>
</g>
<!-- 4465228416 -->
<g id="node7" class="node">
<title>4465228416</title>
<path fill="lightgray" stroke="lightgray" d="M265.62,-0.5C265.62,-0.5 316.62,-0.5 316.62,-0.5 322.62,-0.5 328.62,-6.5 328.62,-12.5 328.62,-12.5 328.62,-24.5 328.62,-24.5 328.62,-30.5 322.62,-36.5 316.62,-36.5 316.62,-36.5 265.62,-36.5 265.62,-36.5 259.62,-36.5 253.62,-30.5 253.62,-24.5 253.62,-24.5 253.62,-12.5 253.62,-12.5 253.62,-6.5 259.62,-0.5 265.62,-0.5"/>
<text xml:space="preserve" text-anchor="middle" x="263.5" y="-13.45" font-family="Times,serif" font-size="14.00"> </text>
<polyline fill="none" stroke="lightgray" points="273.38,-0.5 273.38,-36.5"/>
<text xml:space="preserve" text-anchor="middle" x="291.12" y="-13.45" font-family="Times,serif" font-size="14.00">&#45;inf</text>
<polyline fill="none" stroke="lightgray" points="308.88,-0.5 308.88,-36.5"/>
<text xml:space="preserve" text-anchor="middle" x="318.75" y="-13.45" font-family="Times,serif" font-size="14.00"> </text>
</g>
<!-- 4465225392&#45;&gt;4465228416 -->
<g id="edge6" class="edge">
<title>4465225392:r&#45;&gt;4465228416:v</title>
<path fill="none" stroke="black" d="M240.38,-73C240.38,-50.1 275.18,-59.4 287.14,-47.57"/>
<polygon fill="black" stroke="black" points="290.34,-49.01 290.59,-38.42 283.79,-46.54 290.34,-49.01"/>
</g>
</g>
</svg>
