<?xml version="1.0" encoding="UTF-8" standalone="no"?>
<!DOCTYPE svg PUBLIC "-//W3C//DTD SVG 1.1//EN"
 "http://www.w3.org/Graphics/SVG/1.1/DTD/svg11.dtd">
<!-- Generated by graphviz version 14.0.0 (20250921.2048)
 -->
<!-- Title: G Pages: 1 -->
<svg width="500pt" height="430pt"
 viewBox="0.00 0.00 500.00 430.00" xmlns="http://www.w3.org/2000/svg" xmlns:xlink="http://www.w3.org/1999/xlink">
<g id="graph0" class="graph" transform="scale(1.29534 1.29534) rotate(0) translate(4 328)">
<title>G</title>
<polygon fill="white" stroke="none" points="-4,4 -4,-328 382,-328 382,4 -4,4"/>
<!-- 0 -->
<g id="node1" class="node">
<title>0</title>
<ellipse fill="none" stroke="black" cx="243" cy="-234" rx="27" ry="18"/>
<text xml:space="preserve" text-anchor="middle" x="243" y="-228.95" font-family="Times,serif" font-size="14.00">55</text>
</g>
<!-- 1 -->
<g id="node2" class="node">
<title>1</title>
<ellipse fill="none" stroke="black" cx="207" cy="-162" rx="27" ry="18"/>
<text xml:space="preserve" text-anchor="middle" x="207" y="-156.95" font-family="Times,serif" font-size="14.00">44</text>
</g>
<!-- 0&#45;&gt;1 -->
<g id="edge1" class="edge">
<title>0&#45;&gt;1</title>
<path fill="none" stroke="black" d="M234.65,-216.76C230.42,-208.55 225.19,-198.37 220.42,-189.09"/>
<polygon fill="black" stroke="black" points="223.68,-187.79 216,-180.49 217.46,-190.99 223.68,-187.79"/>
</g>
<!-- 2 -->
<g id="node3" class="node">
<title>2</title>
<ellipse fill="none" stroke="black" cx="279" cy="-162" rx="27" ry="18"/>
<text xml:space="preserve" text-anchor="middle" x="279" y="-156.95" font-family="Times,serif" font-size="14.00">22</text>
</g>
<!-- 0&#45;&gt;2 -->
<g id="edge4" class="edge">
<title>0&#45;&gt;2</title>
<path fill="none" stroke="black" d="M251.35,-216.76C255.58,-208.55 260.81,-198.37 265.58,-189.09"/>
<polygon fill="black" stroke="black" points="268.54,-190.99 270,-180.49 262.32,-187.79 268.54,-190.99"/>
</g>
<!-- 3 -->
<g id="node4" class="node">
<title>3</title>
<ellipse fill="none" stroke="black" cx="99" cy="-90" rx="27" ry="18"/>
<text xml:space="preserve" text-anchor="middle" x="99" y="-84.95" font-family="Times,serif" font-size="14.00">33</text>
</g>
<!-- 1&#45;&gt;3 -->
<g id="edge6" class="edge">
<title>1&#45;&gt;3</title>
<path fill="none" stroke="black" d="M188.19,-148.81C171.41,-137.93 146.61,-121.86 127.41,-109.42"/>
<polygon fill="black" stroke="black" points="129.52,-106.61 119.23,-104.11 125.72,-112.49 129.52,-106.61"/>
</g>
<!-- 4 -->
<g id="node5" class="node">
<title>4</title>
<ellipse fill="none" stroke="black" cx="207" cy="-90" rx="27" ry="18"/>
<text xml:space="preserve" text-anchor="middle" x="207" y="-84.95" font-family="Times,serif" font-size="14.00">8</text>
</g>
<!-- 1&#45;&gt;4 -->
<g id="edge11" class="edge">
<title>1&#45;&gt;4</title>
<path fill="none" stroke="black" d="M207,-143.7C207,-136.41 207,-127.73 207,-119.54"/>
<polygon fill="black" stroke="black" points="210.5,-119.62 207,-109.62 203.5,-119.62 210.5,-119.62"/>
</g>
<!-- 5 -->
<g id="node6" class="node">
<title>5</title>
<ellipse fill="none" stroke="black" cx="279" cy="-90" rx="27" ry="18"/>
<text xml:space="preserve" text-anchor="middle" x="279" y="-84.95" font-family="Times,serif" font-size="14.00">11</text>
</g>
<!-- 2&#45;&gt;5 -->
<g id="edge5" class="edge">
<title>2&#45;&gt;5</title>
<path fill="none" stroke="black" d="M279,-143.7C279,-136.41 279,-127.73 279,-119.54"/>
<polygon fill="black" stroke="black" points="282.5,-119.62 279,-109.62 275.5,-119.62 282.5,-119.62"/>
</g>
<!-- 6 -->
<g id="node7" class="node">
<title>6</title>
<ellipse fill="none" stroke="black" cx="351" cy="-90" rx="27" ry="18"/>
<text xml:space="preserve" text-anchor="middle" x="351" y="-84.95" font-family="Times,serif" font-size="14.00">3</text>
</g>
<!-- 2&#45;&gt;6 -->
<g id="edge12" class="edge">
<title>2&#45;&gt;6</title>
<path fill="none" stroke="black" d="M293.92,-146.5C303.77,-136.92 316.86,-124.19 328.03,-113.34"/>
<polygon fill="black" stroke="black" points="330.29,-116.02 335.02,-106.54 325.41,-111 330.29,-116.02"/>
</g>
<!-- 7 -->
<g id="node8" class="node">
<title>7</title>
<ellipse fill="none" stroke="black" cx="27" cy="-18" rx="27" ry="18"/>
<text xml:space="preserve" text-anchor="middle" x="27" y="-12.95" font-family="Times,serif" font-size="14.00">1</text>
</g>
<!-- 3&#45;&gt;7 -->
<g id="edge3" class="edge">
<title>3&#45;&gt;7</title>
<path fill="none" stroke="black" d="M84.08,-74.5C74.23,-64.92 61.14,-52.19 49.97,-41.34"/>
<polygon fill="black" stroke="black" points="52.59,-39 42.98,-34.54 47.71,-44.02 52.59,-39"/>
</g>
<!-- 8 -->
<g id="node9" class="node">
<title>8</title>
<ellipse fill="none" stroke="black" cx="99" cy="-18" rx="27" ry="18"/>
<text xml:space="preserve" text-anchor="middle" x="99" y="-12.95" font-family="Times,serif" font-size="14.00">4</text>
</g>
<!-- 3&#45;&gt;8 -->
<g id="edge8" class="edge">
<title>3&#45;&gt;8</title>
<path fill="none" stroke="black" d="M99,-71.7C99,-64.41 99,-55.73 99,-47.54"/>
<polygon fill="black" stroke="black" points="102.5,-47.62 99,-37.62 95.5,-47.62 102.5,-47.62"/>
</g>
<!-- 9 -->
<g id="node10" class="node">
<title>9</title>
<ellipse fill="none" stroke="black" cx="171" cy="-18" rx="27" ry="18"/>
<text xml:space="preserve" text-anchor="middle" x="171" y="-12.95" font-family="Times,serif" font-size="14.00">2</text>
</g>
<!-- 4&#45;&gt;9 -->
<g id="edge2" class="edge">
<title>4&#45;&gt;9</title>
<path fill="none" stroke="black" d="M198.65,-72.76C194.42,-64.55 189.19,-54.37 184.42,-45.09"/>
<polygon fill="black" stroke="black" points="187.68,-43.79 180,-36.49 181.46,-46.99 187.68,-43.79"/>
</g>
<!-- 10 -->
<g id="node11" class="node">
<title>10</title>
<ellipse fill="none" stroke="black" cx="243" cy="-18" rx="27" ry="18"/>
<text xml:space="preserve" text-anchor="middle" x="243" y="-12.95" font-family="Times,serif" font-size="14.00">5</text>
</g>
<!-- 4&#45;&gt;10 -->
<g id="edge7" class="edge">
<title>4&#45;&gt;10</title>
<path fill="none" stroke="black" d="M209.98,-71.7C213.47,-63.22 218.6,-52.88 223.87,-43.6"/>
<polygon fill="black" stroke="black" points="226.87,-45.41 229.02,-35.04 220.87,-41.8 226.87,-45.41"/>
</g>
<!-- 10&#45;&gt;4 -->
<g id="edge10" class="edge">
<title>10&#45;&gt;4</title>
<path fill="none" stroke="green" d="M240.02,-36.29C236.55,-44.74 231.44,-55.05 226.18,-64.31"/>
<polygon fill="green" stroke="green" points="223.2,-62.48 221.05,-72.86 229.2,-66.08 223.2,-62.48"/>
</g>
<!-- None -->
<g id="node12" class="node">
<title>None</title>
<ellipse fill="none" stroke="black" cx="243" cy="-306" rx="30.88" ry="18"/>
<text xml:space="preserve" text-anchor="middle" x="243" y="-300.95" font-family="Times,serif" font-size="14.00">None</text>
</g>
<!-- None&#45;&gt;0 -->
<g id="edge9" class="edge">
<title>None&#45;&gt;0</title>
<path fill="none" stroke="black" d="M243,-287.7C243,-280.41 243,-271.73 243,-263.54"/>
<polygon fill="black" stroke="black" points="246.5,-263.62 243,-253.62 239.5,-263.62 246.5,-263.62"/>
</g>
</g>
</svg>
