<?xml version="1.0" encoding="UTF-8" standalone="no"?>
<!DOCTYPE svg PUBLIC "-//W3C//DTD SVG 1.1//EN"
 "http://www.w3.org/Graphics/SVG/1.1/DTD/svg11.dtd">
<!-- Generated by graphviz version 14.0.0 (20250921.2048)
 -->
<!-- Pages: 1 -->
<svg width="368pt" height="264pt"
 viewBox="0.00 0.00 368.00 264.00" xmlns="http://www.w3.org/2000/svg" xmlns:xlink="http://www.w3.org/1999/xlink">
<g id="graph0" class="graph" transform="scale(1 1) rotate(0) translate(4 260)">
<polygon fill="white" stroke="none" points="-4,4 -4,-260 363.62,-260 363.62,4 -4,4"/>
<!-- 4474145040 -->
<g id="node1" class="node">
<title>4474145040</title>
<path fill="lightgray" stroke="lightgray" d="M178,-219.5C178,-219.5 223,-219.5 223,-219.5 229,-219.5 235,-225.5 235,-231.5 235,-231.5 235,-243.5 235,-243.5 235,-249.5 229,-255.5 223,-255.5 223,-255.5 178,-255.5 178,-255.5 172,-255.5 166,-249.5 166,-243.5 166,-243.5 166,-231.5 166,-231.5 166,-225.5 172,-219.5 178,-219.5"/>
<text xml:space="preserve" text-anchor="middle" x="175.88" y="-232.45" font-family="Times,serif" font-size="14.00"> </text>
<polyline fill="none" stroke="lightgray" points="185.75,-219.5 185.75,-255.5"/>
<text xml:space="preserve" text-anchor="middle" x="200.5" y="-232.45" font-family="Times,serif" font-size="14.00">19</text>
<polyline fill="none" stroke="lightgray" points="215.25,-219.5 215.25,-255.5"/>
<text xml:space="preserve" text-anchor="middle" x="225.12" y="-232.45" font-family="Times,serif" font-size="14.00"> </text>
</g>
<!-- 4474144256 -->
<g id="node2" class="node">
<title>4474144256</title>
<path fill="lightgray" stroke="lightgray" d="M114,-146.5C114,-146.5 159,-146.5 159,-146.5 165,-146.5 171,-152.5 171,-158.5 171,-158.5 171,-170.5 171,-170.5 171,-176.5 165,-182.5 159,-182.5 159,-182.5 114,-182.5 114,-182.5 108,-182.5 102,-176.5 102,-170.5 102,-170.5 102,-158.5 102,-158.5 102,-152.5 108,-146.5 114,-146.5"/>
<text xml:space="preserve" text-anchor="middle" x="111.88" y="-159.45" font-family="Times,serif" font-size="14.00"> </text>
<polyline fill="none" stroke="lightgray" points="121.75,-146.5 121.75,-182.5"/>
<text xml:space="preserve" text-anchor="middle" x="136.5" y="-159.45" font-family="Times,serif" font-size="14.00">84</text>
<polyline fill="none" stroke="lightgray" points="151.25,-146.5 151.25,-182.5"/>
<text xml:space="preserve" text-anchor="middle" x="161.12" y="-159.45" font-family="Times,serif" font-size="14.00"> </text>
</g>
<!-- 4474145040&#45;&gt;4474144256 -->
<g id="edge1" class="edge">
<title>4474145040:l&#45;&gt;4474144256:v</title>
<path fill="none" stroke="black" d="M175.88,-219C175.88,-200.1 150.87,-203.52 140.71,-193.69"/>
<polygon fill="black" stroke="black" points="143.98,-192.43 137.06,-184.41 137.47,-194.99 143.98,-192.43"/>
</g>
<!-- 4474144816 -->
<g id="node3" class="node">
<title>4474144816</title>
<path fill="lightgray" stroke="lightgray" d="M246.38,-146.5C246.38,-146.5 284.62,-146.5 284.62,-146.5 290.62,-146.5 296.62,-152.5 296.62,-158.5 296.62,-158.5 296.62,-170.5 296.62,-170.5 296.62,-176.5 290.62,-182.5 284.62,-182.5 284.62,-182.5 246.38,-182.5 246.38,-182.5 240.38,-182.5 234.38,-176.5 234.38,-170.5 234.38,-170.5 234.38,-158.5 234.38,-158.5 234.38,-152.5 240.38,-146.5 246.38,-146.5"/>
<text xml:space="preserve" text-anchor="middle" x="244.25" y="-159.45" font-family="Times,serif" font-size="14.00"> </text>
<polyline fill="none" stroke="lightgray" points="254.12,-146.5 254.12,-182.5"/>
<text xml:space="preserve" text-anchor="middle" x="265.5" y="-159.45" font-family="Times,serif" font-size="14.00">6</text>
<polyline fill="none" stroke="lightgray" points="276.88,-146.5 276.88,-182.5"/>
<text xml:space="preserve" text-anchor="middle" x="286.75" y="-159.45" font-family="Times,serif" font-size="14.00"> </text>
</g>
<!-- 4474145040&#45;&gt;4474144816 -->
<g id="edge2" class="edge">
<title>4474145040:r&#45;&gt;4474144816:v</title>
<path fill="none" stroke="black" d="M225.12,-219C225.12,-199.65 251.27,-203.7 261.48,-193.49"/>
<polygon fill="black" stroke="black" points="264.65,-195 264.96,-184.41 258.11,-192.5 264.65,-195"/>
</g>
<!-- 4474145152 -->
<g id="node4" class="node">
<title>4474145152</title>
<path fill="lightgray" stroke="lightgray" d="M54,-73.5C54,-73.5 99,-73.5 99,-73.5 105,-73.5 111,-79.5 111,-85.5 111,-85.5 111,-97.5 111,-97.5 111,-103.5 105,-109.5 99,-109.5 99,-109.5 54,-109.5 54,-109.5 48,-109.5 42,-103.5 42,-97.5 42,-97.5 42,-85.5 42,-85.5 42,-79.5 48,-73.5 54,-73.5"/>
<text xml:space="preserve" text-anchor="middle" x="51.88" y="-86.45" font-family="Times,serif" font-size="14.00"> </text>
<polyline fill="none" stroke="lightgray" points="61.75,-73.5 61.75,-109.5"/>
<text xml:space="preserve" text-anchor="middle" x="76.5" y="-86.45" font-family="Times,serif" font-size="14.00">22</text>
<polyline fill="none" stroke="lightgray" points="91.25,-73.5 91.25,-109.5"/>
<text xml:space="preserve" text-anchor="middle" x="101.12" y="-86.45" font-family="Times,serif" font-size="14.00"> </text>
</g>
<!-- 4474144256&#45;&gt;4474145152 -->
<g id="edge3" class="edge">
<title>4474144256:l&#45;&gt;4474145152:v</title>
<path fill="none" stroke="black" d="M111.88,-146C111.88,-128.3 89.85,-130.08 80.56,-120.61"/>
<polygon fill="black" stroke="black" points="83.88,-119.5 77.04,-111.41 77.35,-122 83.88,-119.5"/>
</g>
<!-- 4487821280 -->
<g id="node5" class="node">
<title>4487821280</title>
<path fill="lightgray" stroke="lightgray" d="M141.38,-73.5C141.38,-73.5 179.62,-73.5 179.62,-73.5 185.62,-73.5 191.62,-79.5 191.62,-85.5 191.62,-85.5 191.62,-97.5 191.62,-97.5 191.62,-103.5 185.62,-109.5 179.62,-109.5 179.62,-109.5 141.38,-109.5 141.38,-109.5 135.38,-109.5 129.38,-103.5 129.38,-97.5 129.38,-97.5 129.38,-85.5 129.38,-85.5 129.38,-79.5 135.38,-73.5 141.38,-73.5"/>
<text xml:space="preserve" text-anchor="middle" x="139.25" y="-86.45" font-family="Times,serif" font-size="14.00"> </text>
<polyline fill="none" stroke="lightgray" points="149.12,-73.5 149.12,-109.5"/>
<text xml:space="preserve" text-anchor="middle" x="160.5" y="-86.45" font-family="Times,serif" font-size="14.00">3</text>
<polyline fill="none" stroke="lightgray" points="171.88,-73.5 171.88,-109.5"/>
<text xml:space="preserve" text-anchor="middle" x="181.75" y="-86.45" font-family="Times,serif" font-size="14.00"> </text>
</g>
<!-- 4474144256&#45;&gt;4487821280 -->
<g id="edge4" class="edge">
<title>4474144256:r&#45;&gt;4487821280:v</title>
<path fill="none" stroke="black" d="M161.12,-146C161.12,-134.62 160.81,-129.32 160.63,-121.45"/>
<polygon fill="black" stroke="black" points="164.13,-121.47 160.52,-111.51 157.13,-121.55 164.13,-121.47"/>
</g>
<!-- 4487820832 -->
<g id="node6" class="node">
<title>4487820832</title>
<path fill="lightgray" stroke="lightgray" d="M222,-73.5C222,-73.5 267,-73.5 267,-73.5 273,-73.5 279,-79.5 279,-85.5 279,-85.5 279,-97.5 279,-97.5 279,-103.5 273,-109.5 267,-109.5 267,-109.5 222,-109.5 222,-109.5 216,-109.5 210,-103.5 210,-97.5 210,-97.5 210,-85.5 210,-85.5 210,-79.5 216,-73.5 222,-73.5"/>
<text xml:space="preserve" text-anchor="middle" x="219.88" y="-86.45" font-family="Times,serif" font-size="14.00"> </text>
<polyline fill="none" stroke="lightgray" points="229.75,-73.5 229.75,-109.5"/>
<text xml:space="preserve" text-anchor="middle" x="244.5" y="-86.45" font-family="Times,serif" font-size="14.00">17</text>
<polyline fill="none" stroke="lightgray" points="259.25,-73.5 259.25,-109.5"/>
<text xml:space="preserve" text-anchor="middle" x="269.12" y="-86.45" font-family="Times,serif" font-size="14.00"> </text>
</g>
<!-- 4474144816&#45;&gt;4487820832 -->
<g id="edge5" class="edge">
<title>4474144816:l&#45;&gt;4487820832:v</title>
<path fill="none" stroke="black" d="M244.25,-146C244.25,-134.62 244.38,-129.32 244.45,-121.45"/>
<polygon fill="black" stroke="black" points="247.95,-121.53 244.49,-111.51 240.95,-121.5 247.95,-121.53"/>
</g>
<!-- 4487820048 -->
<g id="node7" class="node">
<title>4487820048</title>
<path fill="lightgray" stroke="lightgray" d="M309.38,-73.5C309.38,-73.5 347.62,-73.5 347.62,-73.5 353.62,-73.5 359.62,-79.5 359.62,-85.5 359.62,-85.5 359.62,-97.5 359.62,-97.5 359.62,-103.5 353.62,-109.5 347.62,-109.5 347.62,-109.5 309.38,-109.5 309.38,-109.5 303.38,-109.5 297.38,-103.5 297.38,-97.5 297.38,-97.5 297.38,-85.5 297.38,-85.5 297.38,-79.5 303.38,-73.5 309.38,-73.5"/>
<text xml:space="preserve" text-anchor="middle" x="307.25" y="-86.45" font-family="Times,serif" font-size="14.00"> </text>
<polyline fill="none" stroke="lightgray" points="317.12,-73.5 317.12,-109.5"/>
<text xml:space="preserve" text-anchor="middle" x="328.5" y="-86.45" font-family="Times,serif" font-size="14.00">5</text>
<polyline fill="none" stroke="lightgray" points="339.88,-73.5 339.88,-109.5"/>
<text xml:space="preserve" text-anchor="middle" x="349.75" y="-86.45" font-family="Times,serif" font-size="14.00"> </text>
</g>
<!-- 4474144816&#45;&gt;4487820048 -->
<g id="edge6" class="edge">
<title>4474144816:r&#45;&gt;4487820048:v</title>
<path fill="none" stroke="black" d="M286.75,-146C286.75,-126.28 313.78,-130.85 324.34,-120.62"/>
<polygon fill="black" stroke="black" points="327.56,-122 327.95,-111.41 321.05,-119.45 327.56,-122"/>
</g>
<!-- 4487821056 -->
<g id="node8" class="node">
<title>4487821056</title>
<path fill="lightgray" stroke="lightgray" d="M12,-0.5C12,-0.5 57,-0.5 57,-0.5 63,-0.5 69,-6.5 69,-12.5 69,-12.5 69,-24.5 69,-24.5 69,-30.5 63,-36.5 57,-36.5 57,-36.5 12,-36.5 12,-36.5 6,-36.5 0,-30.5 0,-24.5 0,-24.5 0,-12.5 0,-12.5 0,-6.5 6,-0.5 12,-0.5"/>
<text xml:space="preserve" text-anchor="middle" x="9.88" y="-13.45" font-family="Times,serif" font-size="14.00"> </text>
<polyline fill="none" stroke="lightgray" points="19.75,-0.5 19.75,-36.5"/>
<text xml:space="preserve" text-anchor="middle" x="34.5" y="-13.45" font-family="Times,serif" font-size="14.00">10</text>
<polyline fill="none" stroke="lightgray" points="49.25,-0.5 49.25,-36.5"/>
<text xml:space="preserve" text-anchor="middle" x="59.12" y="-13.45" font-family="Times,serif" font-size="14.00"> </text>
</g>
<!-- 4474145152&#45;&gt;4487821056 -->
<g id="edge7" class="edge">
<title>4474145152:l&#45;&gt;4487821056:v</title>
<path fill="none" stroke="black" d="M51.88,-73C51.88,-59.81 42.3,-56.16 37.37,-47.88"/>
<polygon fill="black" stroke="black" points="40.82,-47.24 34.89,-38.46 34.05,-49.03 40.82,-47.24"/>
</g>
<!-- 4487820384 -->
<g id="node9" class="node">
<title>4487820384</title>
<path fill="lightgray" stroke="lightgray" d="M99.38,-0.5C99.38,-0.5 137.62,-0.5 137.62,-0.5 143.62,-0.5 149.62,-6.5 149.62,-12.5 149.62,-12.5 149.62,-24.5 149.62,-24.5 149.62,-30.5 143.62,-36.5 137.62,-36.5 137.62,-36.5 99.38,-36.5 99.38,-36.5 93.38,-36.5 87.38,-30.5 87.38,-24.5 87.38,-24.5 87.38,-12.5 87.38,-12.5 87.38,-6.5 93.38,-0.5 99.38,-0.5"/>
<text xml:space="preserve" text-anchor="middle" x="97.25" y="-13.45" font-family="Times,serif" font-size="14.00"> </text>
<polyline fill="none" stroke="lightgray" points="107.12,-0.5 107.12,-36.5"/>
<text xml:space="preserve" text-anchor="middle" x="118.5" y="-13.45" font-family="Times,serif" font-size="14.00">9</text>
<polyline fill="none" stroke="lightgray" points="129.88,-0.5 129.88,-36.5"/>
<text xml:space="preserve" text-anchor="middle" x="139.75" y="-13.45" font-family="Times,serif" font-size="14.00"> </text>
</g>
<!-- 4474145152&#45;&gt;4487820384 -->
<g id="edge8" class="edge">
<title>4474145152:r&#45;&gt;4487820384:v</title>
<path fill="none" stroke="black" d="M101.12,-73C101.12,-59.81 110.7,-56.16 115.63,-47.88"/>
<polygon fill="black" stroke="black" points="118.95,-49.03 118.11,-38.46 112.18,-47.24 118.95,-49.03"/>
</g>
</g>
</svg>
