<?xml version="1.0" encoding="UTF-8" standalone="no"?>
<!DOCTYPE svg PUBLIC "-//W3C//DTD SVG 1.1//EN"
 "http://www.w3.org/Graphics/SVG/1.1/DTD/svg11.dtd">
<!-- Generated by graphviz version 14.0.0 (20250921.2048)
 -->
<!-- Pages: 1 -->
<svg width="418pt" height="264pt"
 viewBox="0.00 0.00 418.00 264.00" xmlns="http://www.w3.org/2000/svg" xmlns:xlink="http://www.w3.org/1999/xlink">
<g id="graph0" class="graph" transform="scale(1 1) rotate(0) translate(4 260)">
<polygon fill="white" stroke="none" points="-4,4 -4,-260 414,-260 414,4 -4,4"/>
<!-- 4518738224 -->
<g id="node1" class="node">
<title>4518738224</title>
<path fill="lightgray" stroke="lightgray" d="M227.38,-219.5C227.38,-219.5 265.62,-219.5 265.62,-219.5 271.62,-219.5 277.62,-225.5 277.62,-231.5 277.62,-231.5 277.62,-243.5 277.62,-243.5 277.62,-249.5 271.62,-255.5 265.62,-255.5 265.62,-255.5 227.38,-255.5 227.38,-255.5 221.38,-255.5 215.38,-249.5 215.38,-243.5 215.38,-243.5 215.38,-231.5 215.38,-231.5 215.38,-225.5 221.38,-219.5 227.38,-219.5"/>
<text xml:space="preserve" text-anchor="middle" x="225.25" y="-232.45" font-family="Times,serif" font-size="14.00"> </text>
<polyline fill="none" stroke="lightgray" points="235.12,-219.5 235.12,-255.5"/>
<text xml:space="preserve" text-anchor="middle" x="246.5" y="-232.45" font-family="Times,serif" font-size="14.00">5</text>
<polyline fill="none" stroke="lightgray" points="257.88,-219.5 257.88,-255.5"/>
<text xml:space="preserve" text-anchor="middle" x="267.75" y="-232.45" font-family="Times,serif" font-size="14.00"> </text>
</g>
<!-- 4518733520 -->
<g id="node2" class="node">
<title>4518733520</title>
<path fill="lightgray" stroke="lightgray" d="M164.38,-146.5C164.38,-146.5 202.62,-146.5 202.62,-146.5 208.62,-146.5 214.62,-152.5 214.62,-158.5 214.62,-158.5 214.62,-170.5 214.62,-170.5 214.62,-176.5 208.62,-182.5 202.62,-182.5 202.62,-182.5 164.38,-182.5 164.38,-182.5 158.38,-182.5 152.38,-176.5 152.38,-170.5 152.38,-170.5 152.38,-158.5 152.38,-158.5 152.38,-152.5 158.38,-146.5 164.38,-146.5"/>
<text xml:space="preserve" text-anchor="middle" x="162.25" y="-159.45" font-family="Times,serif" font-size="14.00"> </text>
<polyline fill="none" stroke="lightgray" points="172.12,-146.5 172.12,-182.5"/>
<text xml:space="preserve" text-anchor="middle" x="183.5" y="-159.45" font-family="Times,serif" font-size="14.00">3</text>
<polyline fill="none" stroke="lightgray" points="194.88,-146.5 194.88,-182.5"/>
<text xml:space="preserve" text-anchor="middle" x="204.75" y="-159.45" font-family="Times,serif" font-size="14.00"> </text>
</g>
<!-- 4518738224&#45;&gt;4518733520 -->
<g id="edge1" class="edge">
<title>4518738224:l&#45;&gt;4518733520:v</title>
<path fill="none" stroke="black" d="M225.25,-219C225.25,-199.28 198.22,-203.85 187.66,-193.62"/>
<polygon fill="black" stroke="black" points="190.95,-192.45 184.05,-184.41 184.44,-195 190.95,-192.45"/>
</g>
<!-- 4518733968 -->
<g id="node3" class="node">
<title>4518733968</title>
<path fill="lightgray" stroke="lightgray" d="M290.38,-146.5C290.38,-146.5 328.62,-146.5 328.62,-146.5 334.62,-146.5 340.62,-152.5 340.62,-158.5 340.62,-158.5 340.62,-170.5 340.62,-170.5 340.62,-176.5 334.62,-182.5 328.62,-182.5 328.62,-182.5 290.38,-182.5 290.38,-182.5 284.38,-182.5 278.38,-176.5 278.38,-170.5 278.38,-170.5 278.38,-158.5 278.38,-158.5 278.38,-152.5 284.38,-146.5 290.38,-146.5"/>
<text xml:space="preserve" text-anchor="middle" x="288.25" y="-159.45" font-family="Times,serif" font-size="14.00"> </text>
<polyline fill="none" stroke="lightgray" points="298.12,-146.5 298.12,-182.5"/>
<text xml:space="preserve" text-anchor="middle" x="309.5" y="-159.45" font-family="Times,serif" font-size="14.00">4</text>
<polyline fill="none" stroke="lightgray" points="320.88,-146.5 320.88,-182.5"/>
<text xml:space="preserve" text-anchor="middle" x="330.75" y="-159.45" font-family="Times,serif" font-size="14.00"> </text>
</g>
<!-- 4518738224&#45;&gt;4518733968 -->
<g id="edge2" class="edge">
<title>4518738224:r&#45;&gt;4518733968:v</title>
<path fill="none" stroke="black" d="M267.75,-219C267.75,-199.28 294.78,-203.85 305.34,-193.62"/>
<polygon fill="black" stroke="black" points="308.56,-195 308.95,-184.41 302.05,-192.45 308.56,-195"/>
</g>
<!-- 4518732176 -->
<g id="node4" class="node">
<title>4518732176</title>
<path fill="lightgray" stroke="lightgray" d="M81.38,-73.5C81.38,-73.5 119.62,-73.5 119.62,-73.5 125.62,-73.5 131.62,-79.5 131.62,-85.5 131.62,-85.5 131.62,-97.5 131.62,-97.5 131.62,-103.5 125.62,-109.5 119.62,-109.5 119.62,-109.5 81.38,-109.5 81.38,-109.5 75.38,-109.5 69.38,-103.5 69.38,-97.5 69.38,-97.5 69.38,-85.5 69.38,-85.5 69.38,-79.5 75.38,-73.5 81.38,-73.5"/>
<text xml:space="preserve" text-anchor="middle" x="79.25" y="-86.45" font-family="Times,serif" font-size="14.00"> </text>
<polyline fill="none" stroke="lightgray" points="89.12,-73.5 89.12,-109.5"/>
<text xml:space="preserve" text-anchor="middle" x="100.5" y="-86.45" font-family="Times,serif" font-size="14.00">2</text>
<polyline fill="none" stroke="lightgray" points="111.88,-73.5 111.88,-109.5"/>
<text xml:space="preserve" text-anchor="middle" x="121.75" y="-86.45" font-family="Times,serif" font-size="14.00"> </text>
</g>
<!-- 4518733520&#45;&gt;4518732176 -->
<g id="edge3" class="edge">
<title>4518733520:l&#45;&gt;4518732176:v</title>
<path fill="none" stroke="black" d="M162.25,-146C162.25,-118.95 117.47,-134.9 104.18,-120.61"/>
<polygon fill="black" stroke="black" points="107.58,-119.73 101,-111.43 100.96,-122.02 107.58,-119.73"/>
</g>
<!-- 4518731056 -->
<g id="node5" class="node">
<title>4518731056</title>
<path fill="lightgray" stroke="lightgray" d="M185.38,-73.5C185.38,-73.5 223.62,-73.5 223.62,-73.5 229.62,-73.5 235.62,-79.5 235.62,-85.5 235.62,-85.5 235.62,-97.5 235.62,-97.5 235.62,-103.5 229.62,-109.5 223.62,-109.5 223.62,-109.5 185.38,-109.5 185.38,-109.5 179.38,-109.5 173.38,-103.5 173.38,-97.5 173.38,-97.5 173.38,-85.5 173.38,-85.5 173.38,-79.5 179.38,-73.5 185.38,-73.5"/>
<text xml:space="preserve" text-anchor="middle" x="183.25" y="-86.45" font-family="Times,serif" font-size="14.00"> </text>
<polyline fill="none" stroke="lightgray" points="193.12,-73.5 193.12,-109.5"/>
<text xml:space="preserve" text-anchor="middle" x="204.5" y="-86.45" font-family="Times,serif" font-size="14.00">1</text>
<polyline fill="none" stroke="lightgray" points="215.88,-73.5 215.88,-109.5"/>
<text xml:space="preserve" text-anchor="middle" x="225.75" y="-86.45" font-family="Times,serif" font-size="14.00"> </text>
</g>
<!-- 4518733520&#45;&gt;4518731056 -->
<g id="edge4" class="edge">
<title>4518733520:r&#45;&gt;4518731056:v</title>
<path fill="none" stroke="black" d="M204.75,-146C204.75,-134.62 204.62,-129.32 204.55,-121.45"/>
<polygon fill="black" stroke="black" points="208.05,-121.5 204.51,-111.51 201.05,-121.53 208.05,-121.5"/>
</g>
<!-- 4518731952 -->
<g id="node6" class="node">
<title>4518731952</title>
<path fill="lightgray" stroke="lightgray" d="M266,-73.5C266,-73.5 311,-73.5 311,-73.5 317,-73.5 323,-79.5 323,-85.5 323,-85.5 323,-97.5 323,-97.5 323,-103.5 317,-109.5 311,-109.5 311,-109.5 266,-109.5 266,-109.5 260,-109.5 254,-103.5 254,-97.5 254,-97.5 254,-85.5 254,-85.5 254,-79.5 260,-73.5 266,-73.5"/>
<text xml:space="preserve" text-anchor="middle" x="263.88" y="-86.45" font-family="Times,serif" font-size="14.00"> </text>
<polyline fill="none" stroke="lightgray" points="273.75,-73.5 273.75,-109.5"/>
<text xml:space="preserve" text-anchor="middle" x="288.5" y="-86.45" font-family="Times,serif" font-size="14.00">55</text>
<polyline fill="none" stroke="lightgray" points="303.25,-73.5 303.25,-109.5"/>
<text xml:space="preserve" text-anchor="middle" x="313.12" y="-86.45" font-family="Times,serif" font-size="14.00"> </text>
</g>
<!-- 4518733968&#45;&gt;4518731952 -->
<g id="edge5" class="edge">
<title>4518733968:l&#45;&gt;4518731952:v</title>
<path fill="none" stroke="black" d="M288.25,-146C288.25,-134.62 288.38,-129.32 288.45,-121.45"/>
<polygon fill="black" stroke="black" points="291.95,-121.53 288.49,-111.51 284.95,-121.5 291.95,-121.53"/>
</g>
<!-- 4518735760 -->
<g id="node7" class="node">
<title>4518735760</title>
<path fill="lightgray" stroke="lightgray" d="M353,-73.5C353,-73.5 398,-73.5 398,-73.5 404,-73.5 410,-79.5 410,-85.5 410,-85.5 410,-97.5 410,-97.5 410,-103.5 404,-109.5 398,-109.5 398,-109.5 353,-109.5 353,-109.5 347,-109.5 341,-103.5 341,-97.5 341,-97.5 341,-85.5 341,-85.5 341,-79.5 347,-73.5 353,-73.5"/>
<text xml:space="preserve" text-anchor="middle" x="350.88" y="-86.45" font-family="Times,serif" font-size="14.00"> </text>
<polyline fill="none" stroke="lightgray" points="360.75,-73.5 360.75,-109.5"/>
<text xml:space="preserve" text-anchor="middle" x="375.5" y="-86.45" font-family="Times,serif" font-size="14.00">33</text>
<polyline fill="none" stroke="lightgray" points="390.25,-73.5 390.25,-109.5"/>
<text xml:space="preserve" text-anchor="middle" x="400.12" y="-86.45" font-family="Times,serif" font-size="14.00"> </text>
</g>
<!-- 4518733968&#45;&gt;4518735760 -->
<g id="edge6" class="edge">
<title>4518733968:r&#45;&gt;4518735760:v</title>
<path fill="none" stroke="black" d="M330.75,-146C330.75,-125.26 360.29,-131.31 371.37,-120.61"/>
<polygon fill="black" stroke="black" points="374.59,-122 374.95,-111.41 368.06,-119.46 374.59,-122"/>
</g>
<!-- 4518734528 -->
<g id="node8" class="node">
<title>4518734528</title>
<path fill="lightgray" stroke="lightgray" d="M12,-0.5C12,-0.5 57,-0.5 57,-0.5 63,-0.5 69,-6.5 69,-12.5 69,-12.5 69,-24.5 69,-24.5 69,-30.5 63,-36.5 57,-36.5 57,-36.5 12,-36.5 12,-36.5 6,-36.5 0,-30.5 0,-24.5 0,-24.5 0,-12.5 0,-12.5 0,-6.5 6,-0.5 12,-0.5"/>
<text xml:space="preserve" text-anchor="middle" x="9.88" y="-13.45" font-family="Times,serif" font-size="14.00"> </text>
<polyline fill="none" stroke="lightgray" points="19.75,-0.5 19.75,-36.5"/>
<text xml:space="preserve" text-anchor="middle" x="34.5" y="-13.45" font-family="Times,serif" font-size="14.00">22</text>
<polyline fill="none" stroke="lightgray" points="49.25,-0.5 49.25,-36.5"/>
<text xml:space="preserve" text-anchor="middle" x="59.12" y="-13.45" font-family="Times,serif" font-size="14.00"> </text>
</g>
<!-- 4518732176&#45;&gt;4518734528 -->
<g id="edge7" class="edge">
<title>4518732176:l&#45;&gt;4518734528:v</title>
<path fill="none" stroke="black" d="M79.25,-73C79.25,-52.26 49.71,-58.31 38.63,-47.61"/>
<polygon fill="black" stroke="black" points="41.94,-46.46 35.05,-38.41 35.41,-49 41.94,-46.46"/>
</g>
<!-- 4518736320 -->
<g id="node9" class="node">
<title>4518736320</title>
<path fill="lightgray" stroke="lightgray" d="M99,-0.5C99,-0.5 144,-0.5 144,-0.5 150,-0.5 156,-6.5 156,-12.5 156,-12.5 156,-24.5 156,-24.5 156,-30.5 150,-36.5 144,-36.5 144,-36.5 99,-36.5 99,-36.5 93,-36.5 87,-30.5 87,-24.5 87,-24.5 87,-12.5 87,-12.5 87,-6.5 93,-0.5 99,-0.5"/>
<text xml:space="preserve" text-anchor="middle" x="96.88" y="-13.45" font-family="Times,serif" font-size="14.00"> </text>
<polyline fill="none" stroke="lightgray" points="106.75,-0.5 106.75,-36.5"/>
<text xml:space="preserve" text-anchor="middle" x="121.5" y="-13.45" font-family="Times,serif" font-size="14.00">44</text>
<polyline fill="none" stroke="lightgray" points="136.25,-0.5 136.25,-36.5"/>
<text xml:space="preserve" text-anchor="middle" x="146.12" y="-13.45" font-family="Times,serif" font-size="14.00"> </text>
</g>
<!-- 4518732176&#45;&gt;4518736320 -->
<g id="edge8" class="edge">
<title>4518732176:r&#45;&gt;4518736320:v</title>
<path fill="none" stroke="black" d="M121.75,-73C121.75,-61.62 121.62,-56.32 121.55,-48.45"/>
<polygon fill="black" stroke="black" points="125.05,-48.5 121.51,-38.51 118.05,-48.53 125.05,-48.5"/>
</g>
<!-- 4518730944 -->
<g id="node10" class="node">
<title>4518730944</title>
<path fill="lightgray" stroke="lightgray" d="M186,-0.5C186,-0.5 231,-0.5 231,-0.5 237,-0.5 243,-6.5 243,-12.5 243,-12.5 243,-24.5 243,-24.5 243,-30.5 237,-36.5 231,-36.5 231,-36.5 186,-36.5 186,-36.5 180,-36.5 174,-30.5 174,-24.5 174,-24.5 174,-12.5 174,-12.5 174,-6.5 180,-0.5 186,-0.5"/>
<text xml:space="preserve" text-anchor="middle" x="183.88" y="-13.45" font-family="Times,serif" font-size="14.00"> </text>
<polyline fill="none" stroke="lightgray" points="193.75,-0.5 193.75,-36.5"/>
<text xml:space="preserve" text-anchor="middle" x="208.5" y="-13.45" font-family="Times,serif" font-size="14.00">11</text>
<polyline fill="none" stroke="lightgray" points="223.25,-0.5 223.25,-36.5"/>
<text xml:space="preserve" text-anchor="middle" x="233.12" y="-13.45" font-family="Times,serif" font-size="14.00"> </text>
</g>
<!-- 4518731056&#45;&gt;4518730944 -->
<g id="edge9" class="edge">
<title>4518731056:l&#45;&gt;4518730944:v</title>
<path fill="none" stroke="black" d="M183.25,-73C183.25,-58.19 197.75,-56.38 204.77,-47.86"/>
<polygon fill="black" stroke="black" points="208.07,-49.03 208.01,-38.43 201.45,-46.75 208.07,-49.03"/>
</g>
</g>
</svg>
